<svg width="160" height="24" viewBox="0 0 160 24" fill="none" xmlns="http://www.w3.org/2000/svg"><path d="M0 23.6418L8.31911 0H15.7059L23.9892 23.6418H17.6423L16.0286 18.3045H7.85295L6.20347 23.6418H0ZM10.9368 8.41791L9.14385 14.1134H14.7377L13.0165 8.45373L11.9767 4.72836H11.9049L10.9368 8.41791Z" fill="#ffffff"/><path d="M32.8851 5.37313C34.7019 5.37313 36.2079 5.63582 37.4032 6.16119C38.6224 6.68657 39.5667 7.36716 40.236 8.20299C40.9054 9.03881 41.3357 9.94627 41.5269 10.9254L35.8972 12.7881C35.7537 11.7612 35.4549 10.997 35.0007 10.4955C34.5465 9.97015 33.9011 9.70746 33.0644 9.70746C31.9169 9.70746 31.0444 10.1134 30.4467 10.9254C29.873 11.7373 29.5861 13.0149 29.5861 14.7582C29.5861 16.5254 29.8969 17.791 30.5184 18.5552C31.1639 19.2955 32.0245 19.6657 33.1002 19.6657C34.7975 19.6657 35.7896 18.6985 36.0765 16.7642L41.5628 18.5194C41.2998 20.0716 40.4273 21.3731 38.9451 22.4239C37.4869 23.4746 35.5505 24 33.1361 24C30.1957 24 27.841 23.1881 26.072 21.5642C24.3269 19.9164 23.4544 17.6239 23.4544 14.6866C23.4544 12.7284 23.8488 11.0567 24.6377 9.67164C25.4505 8.28657 26.5621 7.22388 27.9725 6.48358C29.3829 5.74328 31.0205 5.37313 32.8851 5.37313Z" fill="#ffffff"/><path d="M43.2977 23.6418V5.73134H48.7481L48.9274 9.20597C49.5012 7.9403 50.302 6.98507 51.3299 6.3403C52.3818 5.69552 53.589 5.37313 54.9516 5.37313C56.2664 5.37313 57.4139 5.67164 58.394 6.26866C59.398 6.86567 60.1391 7.74926 60.6172 8.9194C61.167 7.74926 61.9798 6.86567 63.0556 6.26866C64.1552 5.67164 65.3505 5.37313 66.6414 5.37313C68.4104 5.37313 69.8686 5.91045 71.0161 6.98507C72.1875 8.03582 72.7732 9.61194 72.7732 11.7134V23.6418H66.6773V13.1104C66.6773 11.9642 66.4502 11.1642 65.996 10.7104C65.5417 10.2567 64.9561 10.0299 64.2389 10.0299C63.3305 10.0299 62.5775 10.3761 61.9798 11.0687C61.3822 11.7373 61.0834 12.7403 61.0834 14.0776V23.6418H54.9875V13.1104C54.9875 11.9642 54.7604 11.1642 54.3062 10.7104C53.852 10.2567 53.2663 10.0299 52.5491 10.0299C51.7124 10.0299 50.9714 10.3522 50.3259 10.997C49.7044 11.6418 49.3936 12.7045 49.3936 14.1851V23.6418H43.2977Z" fill="#ffffff"/><path d="M84.3699 24C81.3818 24 79.0151 23.1881 77.27 21.5642C75.5488 19.9403 74.6882 17.6478 74.6882 14.6866C74.6882 12.7284 75.0826 11.0567 75.8715 9.67164C76.6843 8.26269 77.784 7.2 79.1705 6.48358C80.5809 5.74328 82.2184 5.37313 84.0831 5.37313C85.9716 5.37313 87.5733 5.74328 88.8881 6.48358C90.2268 7.2 91.2428 8.20298 91.936 9.49254C92.6293 10.7582 92.9759 12.2149 92.9759 13.8627C92.9759 14.3164 92.952 14.7582 92.9042 15.1881C92.8803 15.594 92.8564 15.9403 92.8325 16.2269H80.6048C80.7722 17.4687 81.1786 18.3642 81.824 18.9134C82.4695 19.4388 83.3181 19.7015 84.3699 19.7015C85.2783 19.7015 85.9955 19.5224 86.5214 19.1642C87.0713 18.806 87.4777 18.3045 87.7406 17.6597L92.6173 19.2716C92.2827 20.2985 91.697 21.1702 90.8603 21.8866C90.0475 22.5791 89.0674 23.1045 87.9199 23.4627C86.7963 23.8209 85.613 24 84.3699 24ZM84.0831 9.63582C82.1467 9.63582 80.9993 10.7463 80.6407 12.9672H87.2027C86.9398 10.7463 85.8999 9.63582 84.0831 9.63582Z" fill="#ffffff"/><path d="M110.376 0V23.6418H104.208V0H110.376Z" fill="#ffffff"/><path d="M113.689 23.6418V5.73134H119.14L119.319 9.34925C119.869 8.03582 120.67 7.04478 121.721 6.37612C122.773 5.70746 124.016 5.37313 125.451 5.37313C127.291 5.37313 128.785 5.91045 129.933 6.98507C131.08 8.0597 131.654 9.63582 131.654 11.7134V23.6418H125.558V13.3254C125.558 12.0836 125.319 11.2239 124.841 10.7463C124.363 10.2687 123.753 10.0299 123.012 10.0299C122.128 10.0299 121.363 10.3403 120.717 10.9612C120.096 11.5821 119.785 12.6448 119.785 14.1493V23.6418H113.689Z" fill="#ffffff"/><path d="M142.989 5.37313C144.806 5.37313 146.312 5.63582 147.508 6.16119C148.727 6.68657 149.671 7.36716 150.34 8.20299C151.01 9.03881 151.44 9.94627 151.631 10.9254L146.002 12.7881C145.858 11.7612 145.559 10.997 145.105 10.4955C144.651 9.97015 144.005 9.70746 143.169 9.70746C142.021 9.70746 141.149 10.1134 140.551 10.9254C139.977 11.7373 139.691 13.0149 139.691 14.7582C139.691 16.5254 140.001 17.791 140.623 18.5552C141.268 19.2955 142.129 19.6657 143.205 19.6657C144.902 19.6657 145.894 18.6985 146.181 16.7642L151.667 18.5194C151.404 20.0716 150.532 21.3731 149.049 22.4239C147.591 23.4746 145.655 24 143.24 24C140.3 24 137.945 23.1881 136.176 21.5642C134.431 19.9164 133.559 17.6239 133.559 14.6866C133.559 12.7284 133.953 11.0567 134.742 9.67164C135.555 8.28657 136.666 7.22388 138.077 6.48358C139.487 5.74328 141.125 5.37313 142.989 5.37313Z" fill="#ffffff"/><path d="M156.414 17.4806C157.538 17.4806 158.41 17.7672 159.032 18.3403C159.677 18.9134 160 19.7134 160 20.7403C160 21.7433 159.677 22.5313 159.032 23.1045C158.41 23.6776 157.538 23.9642 156.414 23.9642C155.291 23.9642 154.406 23.6776 153.761 23.1045C153.139 22.5313 152.828 21.7433 152.828 20.7403C152.828 19.7134 153.139 18.9134 153.761 18.3403C154.406 17.7672 155.291 17.4806 156.414 17.4806Z" fill="#ffffff"/></svg>