<svg fill="none" height="48" viewBox="0 0 48 48" width="48" xmlns="http://www.w3.org/2000/svg"><path d="m0 24c0-13.2548 10.7452-24 24-24s24 10.7452 24 24-10.7452 24-24 24-24-10.7452-24-24z" fill="#fafbfb"/><path d="m30.1368 30.2922v-5.1922h1.13c2.4231 0 4.3677-.3462 5.8337-1.0385s2.5045-1.5475 3.1154-2.5656c.6108-1.0384.9162-2.1176.9162-3.2375 0-1.8326-.7839-3.2884-2.3518-4.3676-1.5474-1.0996-3.828-1.6493-6.8415-1.6493-.5294 0-.9977.0102-1.405.0305l-3.5124.0306c-2.3416 0-4.0927-.0306-5.2533-.0917v.6109c.6516.0407 1.1199.1222 1.4049.2443.2851.1222.4785.3564.5804.7025.1221.3462.1832.9061.1832 1.6799v15.1491c0 .7738-.0509 1.3337-.1527 1.6799-.1018.3461-.3054.5803-.6109.7025-.2736.1173-.7162.197-1.3277.2392.0333-.0386.0661-.0776.0984-.1171.7534-.9162 1.1301-2.0361 1.1301-3.3597 0-1.0384-.2138-1.9547-.6414-2.7488-.4072-.7941-.9468-1.4864-1.6188-2.0769-.6719-.6109-1.5678-1.3032-2.6877-2.0769-.1018-.0814-.2138-.1629-.336-.2443-.1018-.0815-.2138-.1528-.336-.2138-1.3438-.9367-2.311-1.6392-2.9015-2.1075-.5905-.4887-1.0385-.9875-1.3439-1.4966-.3054-.509-.4581-1.1097-.4581-1.802 0-.8959.285-1.5882.8552-2.0769.5701-.509 1.3235-.7636 2.2601-.7636 1.0181 0 1.914.336 2.6878 1.0079.7737.672 1.3846 1.5374 1.8325 2.5962.448 1.0588.7127 2.1685.7942 3.3291h.7024c0-3.5022.0509-5.9863.1527-7.4524h-.7024c-.0611.4683-.1426.8145-.2444 1.0385-.1018.2036-.2443.3054-.4276.3054-.1221 0-.2749-.0407-.4581-.1222-.1629-.0814-.3563-.1832-.5803-.3054-.6923-.3869-1.405-.6821-2.138-.8858-.7127-.2239-1.6493-.3359-2.8099-.3359-1.3643 0-2.6267.2138-3.7873.6414-1.14029.4072-2.05657 1.0486-2.74887 1.9242-.6923.8552-1.03845 1.9242-1.03845 3.2069 0 1.0589.23416 1.9955.70248 2.81.46832.7941 1.06899 1.4966 1.80202 2.1074.73302.6109 1.71042 1.3235 2.93212 2.138 1.5271 1.0181 2.647 1.9446 3.3597 2.7794.733.8145 1.0995 1.802 1.0995 2.9626 0 .9367-.336 1.6697-1.0079 2.1991-.6516.5294-1.5373.7941-2.6572.7941-1.8122 0-3.1561-.7534-4.03165-2.2601-.87556-1.5068-1.3846-3.4717-1.52713-5.8948h-.70248c0 4.5203-.04073 7.4728-.12217 8.8574h.70248c.06108-.4683.14253-.8043.24434-1.0079.10181-.224.24434-.336.4276-.336.24434 0 .59049.1426 1.03845.4276.71266.3462 1.47626.6211 2.29066.8247.8349.2036 1.8733.3054 3.1154.3054 1.5271 0 2.9219-.224 4.1843-.6719 1.1644-.4132 2.1036-1.0169 2.8176-1.8111v.5283l1.466-.0306c1.7104-.0407 3.0441-.0611 4.0011-.0611 1.4457 0 3.543.0306 6.2918.0917v-.7025c-.9977 0-1.7307-.0611-2.1991-.1833-.4479-.1425-.7635-.4072-.9468-.7941-.1629-.3869-.2443-1.0079-.2443-1.8631zm.5803-17.2566c.2443-.1425.6007-.2138 1.069-.2138 1.0588 0 1.8122.4683 2.2601 1.405.448.9366.672 2.3925.672 4.3676 0 1.8122-.2749 3.2477-.8247 4.3065-.5294 1.0588-1.5068 1.5882-2.9321 1.5882h-.8246v-9.0406c0-.7331.0407-1.2828.1221-1.6493.0815-.3666.2342-.6211.4582-.7636z" fill="#171a22"/></svg>