<svg fill="currentColor" height="24" viewBox="0 0 24 24" width="24" xmlns="http://www.w3.org/2000/svg"><path d="m12 13c1.657 0 3 1.343 3 3 0 .85-.353 1.616-.92 2.162l-1.91 1.838h2.83v2h-6v-1.724l3.693-3.555c.19-.183.307-.438.307-.721 0-.552-.448-1-1-1s-1 .448-1 1h-2c0-1.657 1.343-3 3-3zm6 0v4h2v-4h2v9h-2v-3h-4v-6zm-14-1c0 2.527 1.171 4.78 3 6.246v2.416c-2.989-1.729-5-4.96-5-8.662zm8-10c5.185 0 9.449 3.947 9.95 9h-2.012c-.492-3.946-3.858-7-7.938-7-2.464 0-4.668 1.114-6.135 2.865l2.135 2.135h-6v-6l2.447 2.446c1.833-2.11 4.537-3.446 7.553-3.446z" /></svg>