<svg fill="currentColor" height="24" viewBox="0 0 24 24" width="24" xmlns="http://www.w3.org/2000/svg"><path d="m3 3h18c.2652 0 .5196.10536.7071.29289.1875.18754.2929.44189.2929.70711v16c0 .2652-.1054.5196-.2929.7071s-.4419.2929-.7071.2929h-18c-.26522 0-.51957-.1054-.70711-.2929-.18753-.1875-.29289-.4419-.29289-.7071v-16c0-.26522.10536-.51957.29289-.70711.18754-.18753.44189-.29289.70711-.29289zm8.5 10.5v-1.5h-1v-3h-1.5v3h-1.5v-3h-1.5v4.5h3v1.5h1.5v-1.5zm6.5 1.5-2.25-3 2.25-3h-1.75l-1.75 2.25v-2.25h-1.5v6h1.5v-2.25l1.75 2.25z" /></svg>