<svg fill="currentColor" height="24" viewBox="0 0 24 24" width="24" xmlns="http://www.w3.org/2000/svg"><path d="m12 2c5.52 0 10 4.48 10 10s-4.48 10-10 10-10-4.48-10-10 4.48-10 10-10zm-5.977 13.416c1.468 2.19 3.672 3.584 6.137 3.584 2.464 0 4.669-1.393 6.136-3.584-1.6643-1.5554-3.8581-2.4192-6.136-2.416-2.27829-.0034-4.47249.8604-6.137 2.416zm5.977-4.416c.7956 0 1.5587-.3161 2.1213-.8787.5626-.56259.8787-1.32565.8787-2.1213s-.3161-1.55871-.8787-2.12132-1.3257-.87868-2.1213-.87868-1.5587.31607-2.12132.87868c-.56261.56261-.87868 1.32567-.87868 2.12132s.31607 1.55871.87868 2.1213c.56262.5626 1.32572.8787 2.12132.8787z" /></svg>