<svg fill="currentColor" height="24" viewBox="0 0 24 24" width="24" xmlns="http://www.w3.org/2000/svg"><path d="m14 21-2 2-2-2h-5.005c-.52911 0-1.03654-.2102-1.41068-.5843-.37413-.3742-.58432-.8816-.58432-1.4107v-14.01c0-1.102.893-1.995 1.995-1.995h14.01c1.102 0 1.995.893 1.995 1.995v14.01c0 .5291-.2102 1.0365-.5843 1.4107-.3742.3741-.8816.5843-1.4107.5843zm5-2v-14h-14v14h5.828l1.172 1.172 1.172-1.172zm-11.028-.82c-.61502-.2664-1.20164-.594-1.751-.978.63427-.983 1.50496-1.7912 2.53239-2.3506s2.17881-.8521 3.34861-.8514c2.4 0 4.517 1.207 5.778 3.047-.5388.3986-1.1164.742-1.724 1.025-.4631-.642-1.0722-1.1647-1.7771-1.525-.7049-.3602-1.4853-.5477-2.2769-.547-1.715 0-3.23.864-4.13 2.18zm4.028-5.18c-.4596 0-.9148-.0905-1.3394-.2664s-.81047-.4337-1.13547-.7587c-.32501-.325-.58282-.7109-.75871-1.1355s-.26642-.87977-.26642-1.3394.09053-.91475.26642-1.33939.4337-.81048.75871-1.13548c.325-.32501.71087-.58282 1.13547-.75871s.8798-.26642 1.3394-.26642c.9283 0 1.8185.36875 2.4749 1.02513.6564.65637 1.0251 1.54661 1.0251 2.47487 0 .9283-.3687 1.8185-1.0251 2.4749s-1.5466 1.0251-2.4749 1.0251zm0-2c.3978 0 .7794-.158 1.0607-.4393s.4393-.66288.4393-1.0607-.158-.77936-.4393-1.06066-.6629-.43934-1.0607-.43934-.7794.15804-1.0607.43934-.4393.66284-.4393 1.06066.158.7794.4393 1.0607.6629.4393 1.0607.4393z" /></svg>