<svg fill="currentColor" height="24" viewBox="0 0 24 24" width="24" xmlns="http://www.w3.org/2000/svg"><path d="m14 21-2 2-2-2h-5.005c-.52911 0-1.03654-.2102-1.41068-.5843-.37413-.3742-.58432-.8816-.58432-1.4107v-14.01c0-1.102.893-1.995 1.995-1.995h14.01c1.102 0 1.995.893 1.995 1.995v14.01c0 .5291-.2102 1.0365-.5843 1.4107-.3742.3741-.8816.5843-1.4107.5843zm-7.643-3h11.49c-.6444-.9266-1.5035-1.6834-2.5039-2.2058-1.0004-.5225-2.1125-.7949-3.2411-.7942-1.1286-.0007-2.24066.2717-3.24109.7942-1.00043.5224-1.85954 1.2792-2.50391 2.2058zm5.643-5c.4596 0 .9148-.0905 1.3394-.2664s.8105-.4337 1.1355-.7587.5828-.7109.7587-1.1355.2664-.87977.2664-1.3394-.0905-.91475-.2664-1.33939-.4337-.81048-.7587-1.13548c-.325-.32501-.7109-.58282-1.1355-.75871s-.8798-.26642-1.3394-.26642c-.9283 0-1.8185.36875-2.47487 1.02513-.65638.65637-1.02513 1.54661-1.02513 2.47487 0 .9283.36875 1.8185 1.02513 2.4749.65637.6564 1.54657 1.0251 2.47487 1.0251z" /></svg>