<svg fill="currentColor" height="24" viewBox="0 0 24 24" width="24" xmlns="http://www.w3.org/2000/svg"><path d="m9.745 21.745c-4.437-1.023-7.745-4.998-7.745-9.745 0-5.523 4.477-10 10-10s10 4.477 10 10c0 4.747-3.308 8.722-7.745 9.745l-2.255 2.255zm-2.733-3.488c.9318.7452 2.01932 1.2712 3.182 1.539l.56.129 1.246 1.247 1.247-1.247.56-.13c1.2386-.2855 2.3908-.8637 3.36-1.686-.6512-.6684-1.4298-1.1995-2.2898-1.5617-.8601-.3623-1.784-.5484-2.7172-.5473-2.036 0-3.87.87-5.148 2.257zm-1.396-1.437c.84045-.8919 1.85467-1.6023 2.98014-2.0873s2.33836-.7343 3.56386-.7327c1.1817-.0015 2.352.2304 3.4437.6824 1.0918.452 2.0836 1.1152 2.9183 1.9516.8561-1.2049 1.3616-2.6234 1.4606-4.0981.0989-1.4747-.2126-2.94801-.9001-4.25644-.6875-1.30844-1.724-2.40084-2.9945-3.15601-1.2706-.75518-2.7255-1.14361-4.2034-1.1222-1.4779.02142-2.92094.45183-4.16908 1.24351-1.24814.79167-2.25256 1.91364-2.90183 3.24144s-.918 2.8095-.77637 4.2807c.14162 1.4713.68805 2.8745 1.57868 4.0541zm6.384-3.82c-1.0609 0-2.07828-.4214-2.82843-1.1716-.75014-.7501-1.17157-1.7675-1.17157-2.8284 0-1.06087.42143-2.07828 1.17157-2.82843.75015-.75014 1.76753-1.17157 2.82843-1.17157s2.0783.42143 2.8284 1.17157c.7502.75015 1.1716 1.76756 1.1716 2.82843 0 1.0609-.4214 2.0783-1.1716 2.8284-.7501.7502-1.7675 1.1716-2.8284 1.1716zm0-2c.5304 0 1.0391-.2107 1.4142-.5858s.5858-.88377.5858-1.4142-.2107-1.03914-.5858-1.41421c-.3751-.37508-.8838-.58579-1.4142-.58579s-1.0391.21071-1.4142.58579c-.3751.37507-.5858.88378-.5858 1.41421s.2107 1.0391.5858 1.4142.8838.5858 1.4142.5858z" /></svg>