<svg fill="currentColor" height="24" viewBox="0 0 24 24" width="24" xmlns="http://www.w3.org/2000/svg"><path d="m12 14v2c-1.5913 0-3.11742.6321-4.24264 1.7574-1.12522 1.1252-1.75736 2.6513-1.75736 4.2426h-2c0-2.1217.84285-4.1566 2.34315-5.6569 1.50029-1.5002 3.53512-2.3431 5.65685-2.3431zm0-1c-3.315 0-6-2.685-6-6s2.685-6 6-6 6 2.685 6 6-2.685 6-6 6zm0-2c2.21 0 4-1.79 4-4s-1.79-4-4-4-4 1.79-4 4 1.79 4 4 4zm9 6h1v5h-8v-5h1v-1c0-.7956.3161-1.5587.8787-2.1213s1.3257-.8787 2.1213-.8787 1.5587.3161 2.1213.8787.8787 1.3257.8787 2.1213zm-2 0v-1c0-.2652-.1054-.5196-.2929-.7071s-.4419-.2929-.7071-.2929-.5196.1054-.7071.2929-.2929.4419-.2929.7071v1z" /></svg>