<svg fill="currentColor" height="24" viewBox="0 0 24 24" width="24" xmlns="http://www.w3.org/2000/svg"><path d="m21 3c.2652 0 .5196.10536.7071.29289.1875.18754.2929.44189.2929.70711v16c0 .2652-.1054.5196-.2929.7071s-.4419.2929-.7071.2929h-18c-.26522 0-.51957-.1054-.70711-.2929-.18753-.1875-.29289-.4419-.29289-.7071v-16c0-.26522.10536-.51957.29289-.70711.18754-.18753.44189-.29289.70711-.29289zm-11.601 5h-2l-3.2 8h2.154l.4-1h3.29l.4 1h2.155zm9.601 0h-2v2h-1c-.7809-.00075-1.5313.303-2.0918.8468-.5605.5437-.8869 1.2846-.9098 2.0652-.0229.7805.2594 1.5393.7871 2.115.5276.5757 1.2589.9229 2.0385.968l.176.005h3zm-2 4v2h-1l-.117-.007c-.243-.0289-.4671-.146-.6296-.329s-.2523-.4192-.2523-.664.0898-.481.2523-.664.3866-.3001.6296-.329l.117-.007zm-8.601-1.115.845 2.115h-1.692z" /></svg>