<svg fill="currentColor" height="24" viewBox="0 0 24 24" width="24" xmlns="http://www.w3.org/2000/svg"><path d="m21 3c.2652 0 .5196.10536.7071.29289.1875.18754.2929.44189.2929.70711v16c0 .2652-.1054.5196-.2929.7071s-.4419.2929-.7071.2929h-18c-.26522 0-.51957-.1054-.70711-.2929-.18753-.1875-.29289-.4419-.29289-.7071v-16c0-.26522.10536-.51957.29289-.70711.18754-.18753.44189-.29289.70711-.29289zm-1 2h-16v14h16zm-10.601 3 3.199 8h-2.155l-.4-1h-3.29l-.4 1h-2.154l3.2-8zm9.601 0v8h-3c-.7956 0-1.5587-.3161-2.1213-.8787s-.8787-1.3257-.8787-2.1213.3161-1.5587.8787-2.1213 1.3257-.8787 2.1213-.8787h.999l.001-2zm-2 4h-1c-.2549.0003-.5.0979-.6854.2728-.1853.175-.2968.4142-.3118.6686-.0149.2544.0679.505.2315.7004.1636.1955.3956.3211.6487.3512l.117.007h1zm-8.601-1.115-.847 2.115h1.692z" /></svg>