<svg fill="currentColor" height="24" viewBox="0 0 24 24" width="24" xmlns="http://www.w3.org/2000/svg"><path d="m12.4 13.533 5 6.667c.0557.0743.0897.1626.098.2551s-.0092.1855-.0508.2685c-.0415.0831-.1053.1529-.1843.2017s-.17.0747-.2629.0747h-9.99998c-.09286 0-.18388-.0259-.26287-.0747s-.14282-.1186-.18435-.2017c-.04152-.083-.0591-.176-.05076-.2685s.04226-.1808.09798-.2551l4.99998-6.667c.0466-.0621.107-.1125.1764-.1472s.146-.0528.2236-.0528.1542.0181.2236.0528c.0695.0347.1298.0851.1764.1472zm-.4 2.797-2 2.67h4zm6 2.67v-2h2v-12h-15.99998v12h2v2h-3.008c-.13087-.0003-.26041-.0264-.38117-.0768-.12075-.0505-.23036-.1243-.32253-.2172s-.16508-.2031-.21456-.3242c-.04947-.1212-.07453-.2509-.07374-.3818v-14c0-.552.455-1 .992-1h18.01598c.548 0 .992.445.992 1v14c0 .552-.455 1-.992 1z" /></svg>