<svg fill="currentColor" height="24" viewBox="0 0 24 24" width="24" xmlns="http://www.w3.org/2000/svg"><path d="m4.00011 20v-6c0-2.1217.84285-4.15656 2.34314-5.65685 1.50029-1.5003 3.53512-2.34315 5.65685-2.34315 2.1217 0 4.1566.84285 5.6569 2.34315 1.5003 1.50029 2.3431 3.53515 2.3431 5.65685v6h1v2h-17.99999v-2zm2-6h2c0-1.0609.42142-2.0783 1.17157-2.8284.75014-.7502 1.76752-1.1716 2.82842-1.1716v-2c-1.5913 0-3.11742.63214-4.24264 1.75736-1.12521 1.12524-1.75735 2.65134-1.75735 4.24264zm4.99999-12h2v3h-2zm8.778 2.808 1.414 1.414-2.12 2.121-1.415-1.414zm-16.96999 1.414 1.414-1.414 2.121 2.12-1.413 1.416z" /></svg>