<svg fill="currentColor" height="24" viewBox="0 0 24 24" width="24" xmlns="http://www.w3.org/2000/svg"><path d="m4.00011 20v-6c0-2.1217.84285-4.15656 2.34314-5.65685 1.50029-1.5003 3.53512-2.34315 5.65685-2.34315 2.1217 0 4.1566.84285 5.6569 2.34315 1.5003 1.50029 2.3431 3.53515 2.3431 5.65685v6h1v2h-17.99999v-2zm2 0h11.99999v-6c0-1.5913-.6321-3.1174-1.7574-4.24264-1.1252-1.12522-2.6513-1.75736-4.2426-1.75736s-3.11742.63214-4.24264 1.75736c-1.12521 1.12524-1.75735 2.65134-1.75735 4.24264zm4.99999-18h2v3h-2zm8.778 2.808 1.414 1.414-2.12 2.121-1.415-1.414zm-16.96999 1.414 1.414-1.414 2.121 2.12-1.413 1.416zm4.192 7.778c0-1.3261.52678-2.5979 1.46446-3.5355.93768-.93772 2.20943-1.4645 3.53553-1.4645v2c-.7956 0-1.5587.3161-2.12132.8787-.5626.5626-.87867 1.3257-.87867 2.1213z" /></svg>