<svg fill="currentColor" height="24" viewBox="0 0 24 24" width="24" xmlns="http://www.w3.org/2000/svg"><path d="m12.8661 2.99996 9.526 16.50004c.0878.152.134.3244.134.5 0 .1755-.0462.3479-.134.4999-.0878.1521-.214.2783-.366.3661-.152.0877-.3245.134-.5.134h-19.052c-.17554 0-.34798-.0463-.5-.134-.15201-.0878-.27825-.214-.36601-.3661-.08777-.152-.13397-.3244-.13397-.4999 0-.1756.04621-.348.13398-.5l9.526-16.50004c.0878-.15201.214-.27824.366-.366s.3245-.13396.5-.13396.348.0462.5.13396.2782.21399.366.366zm-8.66 16.00004h15.588l-7.794-13.50004zm6.794-3h2v2h-2zm0-7.00004h2v5.00004h-2z" /></svg>