<svg fill="currentColor" height="24" viewBox="0 0 24 24" width="24" xmlns="http://www.w3.org/2000/svg"><path d="m12 2c2.2543 0 4.4163.89553 6.0104 2.48959s2.4896 3.75607 2.4896 6.01041c0 6.5-5.5 12-8.5 12s-8.5-5.5-8.5-12c0-2.25434.89553-4.41635 2.48959-6.01041s3.75607-2.48959 6.01041-2.48959zm5.5 10c-.631 0-1.255.1327-1.8314.3895s-1.0924.6319-1.5144 1.1011c-.422.4691-.7406 1.0218-.9352 1.6221-.1945.6003-.2606 1.2348-.194 1.8623.6674.0709 1.3422-.0085 1.975-.2322s1.2075-.5861 1.6821-1.0607.837-1.0493 1.0607-1.6821.3031-1.3076.2322-1.975c-.1578-.0166-.3163-.025-.475-.025zm-11 0c-.16 0-.319.008-.475.025-.07087.6674.00845 1.3422.23216 1.975.2237.6328.58612 1.2075 1.0607 1.6821.47459.4746 1.04933.837 1.68212 1.0607s1.30762.3031 1.97502.2322c.0666-.6275.0005-1.262-.194-1.8623-.1946-.6003-.5132-1.153-.9352-1.6221-.42201-.4692-.93797-.8443-1.51438-1.1011s-1.20039-.3895-1.83142-.3895z" /></svg>