<svg fill="currentColor" height="24" viewBox="0 0 24 24" width="24" xmlns="http://www.w3.org/2000/svg"><path d="m12 2c2.2543 0 4.4163.89553 6.0104 2.48959s2.4896 3.75607 2.4896 6.01041c0 6.5-5.5 12-8.5 12s-8.5-5.5-8.5-12c0-2.25434.89553-4.41635 2.48959-6.01041s3.75607-2.48959 6.01041-2.48959zm0 2c-1.7239 0-3.37721.68482-4.59619 1.90381-1.21899 1.21898-1.90381 2.87228-1.90381 4.59619 0 4.794 4.165 10 6.5 10s6.5-5.206 6.5-10c0-1.72391-.6848-3.37721-1.9038-4.59619-1.219-1.21899-2.8723-1.90381-4.5962-1.90381zm5.5 7c.16 0 .319.008.475.025.0709.6674-.0085 1.3422-.2322 1.975s-.5861 1.2075-1.0607 1.6821-1.0493.837-1.6821 1.0607-1.3076.3031-1.975.2322c-.0666-.6275-.0005-1.262.194-1.8623.1946-.6003.5132-1.153.9352-1.6221.422-.4692.938-.8443 1.5144-1.1011s1.2004-.3895 1.8314-.3895zm-11 0c.63103 0 1.25501.1327 1.83142.3895s1.09237.6319 1.51438 1.1011c.422.4691.7406 1.0218.9352 1.6221.1945.6003.2606 1.2348.194 1.8623-.6674.0709-1.34223-.0085-1.97502-.2322s-1.20753-.5861-1.68212-1.0607c-.47458-.4746-.837-1.0493-1.0607-1.6821-.22371-.6328-.30303-1.3076-.23216-1.975.155-.017.315-.025.475-.025z" /></svg>