<svg fill="currentColor" height="24" viewBox="0 0 24 24" width="24" xmlns="http://www.w3.org/2000/svg"><path d="m21.422 15.358c-3.83-1.153-6.055-1.84-6.678-2.062.5978-1.0372 1.0424-2.1555 1.32-3.32h-3.264v-1.104h4v-.68h-4v-1.848h-1.536c-.28 0-.312.248-.312.248v1.592h-3.752v.68h3.752v1.104h-3.072v.616h6.224c-.2172.755-.5149 1.4846-.888 2.176-1.408-.464-2.192-.784-3.912-.944-3.256-.312-4.008 1.48-4.128 2.576-.176 1.672 1.304 3.032 3.512 3.032s3.68-1.024 5.08-2.72c1.167.558 3.338 1.525 6.514 2.902-.9156 1.3541-2.1496 2.4628-3.5935 3.2289-1.444.7661-3.0539 1.1662-4.6885 1.1651-5.523 0-10-4.477-10-10s4.477-10 10-10 10 4.477 10 10c.0012 1.1442-.1943 2.2801-.578 3.358zm-12.99 1.01c-2.336 0-2.704-1.48-2.584-2.096s.8-1.416 2.104-1.416c1.496 0 2.832.384 4.44 1.16-1.136 1.48-2.52 2.352-3.96 2.352z" /></svg>