<svg fill="currentColor" height="24" viewBox="0 0 24 24" width="24" xmlns="http://www.w3.org/2000/svg"><path d="m18.408 16.79c-2.173-.95-3.72-1.646-4.64-2.086-1.4 1.696-2.872 2.72-5.08 2.72s-3.688-1.36-3.512-3.032c.12-1.096.872-2.888 4.128-2.576 1.72.16 2.504.48 3.912.944.36-.664.664-1.4.888-2.176h-6.224v-.616h3.072v-1.104h-3.752v-.68h3.752v-1.592s.032-.248.312-.248h1.536v1.848h4v.68h-4v1.104h3.264c-.2776 1.1645-.7222 2.2828-1.32 3.32.51.182 2.097.676 4.76 1.483.7031-1.8962.662-3.9882-.115-5.85533-.7771-1.86708-2.2324-3.37059-4.0732-4.20802-1.8408-.83742-3.9304-.94661-5.84845-.3056-1.91804.64101-3.52214 1.98466-4.48955 3.76059-.9674 1.77592-1.22631 3.85236-.72464 5.81146.50168 1.9591 1.72671 3.6555 3.42861 4.7479s3.75433 1.4997 5.74443 1.1399c1.9901-.3597 3.7701-1.4598 4.9818-3.0789zm-6.408 5.21c-5.523 0-10-4.477-10-10s4.477-10 10-10 10 4.477 10 10-4.477 10-10 10zm-3.568-5.632c1.44 0 2.824-.872 3.96-2.352-1.608-.776-2.944-1.16-4.44-1.16-1.304 0-1.984.8-2.104 1.416s.248 2.096 2.584 2.096z" /></svg>