<svg fill="currentColor" height="24" viewBox="0 0 24 24" width="24" xmlns="http://www.w3.org/2000/svg"><path d="m15.6247 14.6198c-1.107 1.619-2.728 2.384-4.625 2.384-2.30401 0-4.27601-1.773-3.99301-4.124.315-2.608 2.34-3.73 5.70801-4.143.601-.073.85-.094 2.147-.19l.138-.01v-.215c0-1.796-1.068-3.022-2.5-3.022-1.437 0-2.44.747-3.05501 2.526l-1.89-.652c.887-2.57 2.63801-3.874 4.94501-3.874 2.603 0 4.5 2.178 4.5 5.022 0 2.649.163 4.756.483 5.557.356.892.486 1.117.884 1.613l-1.56 1.251c-.523-.652-.753-1.049-1.181-2.122v-.001zm5.632 5.925c-.271.2-.742.081-.529-.44.265-.648.547-1.408.262-1.752-.21-.255-.467-.382-1.027-.382-.46 0-.69.06-.995.08-.204.013-.293-.297-.091-.44.2645-.1895.5584-.3341.87-.428 1.15-.344 2.505-.155 2.67.083.365.53-.199 2.569-1.16 3.28zm-1.182-1.084c-.2597.2512-.5371.4835-.83.695-2.122 1.616-4.87 2.46-7.258 2.46-3.84301 0-7.28001-1.793-9.88801-4.795-.223-.23-.038-.566.223-.384 2.81 2.077 6.288 3.333 9.88901 3.333 2.265 0 4.708-.537 7.035-1.693.162-.076.344-.18.503-.254.367-.21.69.306.326.638zm-5.065-8.92c-1.258.094-1.496.113-2.052.181-2.552.313-3.79701 1.003-3.96501 2.398-.126 1.043.81 1.884 2.00701 1.884 2.039 0 3.517-1.228 4.022-4.463z" /></svg>