<svg fill="currentColor" height="24" viewBox="0 0 24 24" width="24" xmlns="http://www.w3.org/2000/svg"><path d="m18.9009 10c.395.6856 1.045 1.1872 1.8083 1.3957.7632.2085 1.578.1069 2.2667-.2827.0809.7236-.0658 1.4545-.4198 2.0909-.354.6363-.8977 1.1463-1.5552 1.4591l-.001 6.337h-6v-2c.0007-.7809-.3031-1.5313-.8468-2.0918-.5438-.5605-1.2846-.8869-2.0652-.9098s-1.5393.2594-2.11501.7871c-.5757.5276-.92297 1.2589-.96803 2.0385l-.005.176v2h-6v-6.336c-.65885-.3123-1.20372-.8226-1.55851-1.4596-.3548-.6369-.501803-1.3688-.42049-2.0934.68864.3904 1.50367.4926 2.2674.2845.76374-.2081 1.41421-.7097 1.8096-1.3955zm-1.865-7c.0715.4961.2487.97105.5197 1.39272.271.42166.6294.78021 1.0509 1.05138.4216.27117.8964.44863 1.3925.52038.4961.07176 1.0018.03613 1.4829-.10448-.0857.82858-.464 1.59945-1.067 2.17408-.6031.57464-1.3913.91535-2.223.96092l-.192.005h-12.00004c-.86603.00014-1.70135-.3208-2.3445-.90077-.64314-.57998-1.04842-1.3778-1.1375-2.23923.4811.14061.9868.17624 1.48286.10448.49607-.07175.97094-.24921 1.39248-.52038.42155-.27117.77993-.62972 1.05091-1.05138.27097-.42167.44822-.89662.51975-1.39272z" /></svg>