<svg fill="currentColor" height="24" viewBox="0 0 24 24" width="24" xmlns="http://www.w3.org/2000/svg"><path d="m18.9009 10c.395.6856 1.045 1.1872 1.8083 1.3957.7632.2085 1.578.1069 2.2667-.2827.0809.7236-.0658 1.4545-.4198 2.0909-.354.6363-.8977 1.1463-1.5552 1.4591l-.001 6.337h-7v-2c.0001-.5046-.1904-.9906-.5335-1.3605-.3431-.37-.8134-.5967-1.3165-.6345l-.15-.005c-.5046-.0002-.9906.1904-1.3606.5335s-.5966.8133-.6344 1.3165l-.00504.15v2h-7v-6.336c-.65885-.3123-1.20372-.8226-1.55851-1.4596-.3548-.6369-.501803-1.3688-.42049-2.0934.68864.3904 1.50367.4926 2.2674.2845.76374-.2081 1.41421-.7097 1.8096-1.3955zm-.971 2h-11.86104l-.076.079c-.431.42-.935.76-1.486 1.002l-.096.039.589.28-.001 5.6 3.002-.001v-.072l.01-.223c.149-2.016 1.78-3.599 3.85404-3.698l.208-.005.223.01c.9721.0721 1.8844.4967 2.5655 1.1941.6812.6973 1.0842 1.6194 1.1335 2.5929l.004.201 3.001.001.001-5.6.587-.28-.095-.04c-.5516-.2415-1.055-.5806-1.486-1.001zm-.894-9c.0715.4961.2487.97105.5197 1.39272.271.42166.6294.78021 1.0509 1.05138.4216.27117.8964.44863 1.3925.52038.4961.07176 1.0018.03613 1.4829-.10448-.0857.82858-.464 1.59945-1.067 2.17408-.6031.57464-1.3913.91535-2.223.96092l-.192.005h-12.00004c-.86603.00014-1.70135-.3208-2.3445-.90077-.64314-.57998-1.04842-1.3778-1.1375-2.23923.4811.14061.9868.17624 1.48286.10448.49607-.07175.97094-.24921 1.39248-.52038.42155-.27117.77993-.62972 1.05091-1.05138.27097-.42167.44822-.89662.51975-1.39272zm-1.436 2h-7.20104c-.36028.70545-.86851 1.32487-1.49 1.816l-.248.184h10.67704l-.012-.008c-.6432-.45472-1.1817-1.04188-1.579-1.722z" /></svg>