<svg fill="currentColor" height="24" viewBox="0 0 24 24" width="24" xmlns="http://www.w3.org/2000/svg"><path d="m19 13h-14v7h14zm0-2c0-1.8565-.7375-3.63698-2.0503-4.94974-1.3127-1.31275-3.0932-2.05025-4.9497-2.05025s-3.63699.7375-4.94975 2.05025c-1.31275 1.31276-2.05025 3.09324-2.05025 4.94974zm-12.618-7.03199c1.59374-1.27693 3.5758-1.97125 5.618-1.968 2.125 0 4.078.736 5.618 1.968l1.453-1.453 1.414 1.414-1.453 1.453c1.2769 1.59374 1.9713 3.57581 1.968 5.61799v10c0 .2652-.1054.5196-.2929.7071-.1875.1876-.4419.2929-.7071.2929h-16c-.26522 0-.51957-.1053-.70711-.2929-.18753-.1875-.29289-.4419-.29289-.7071v-10c0-2.12499.736-4.07799 1.968-5.61799l-1.453-1.452 1.414-1.414 1.453 1.453zm2.618 5.032c-.26522 0-.51957-.10536-.70711-.29289-.18753-.18754-.29289-.44189-.29289-.70711s.10536-.51957.29289-.70711c.18754-.18753.44189-.29289.70711-.29289s.51957.10536.70711.29289c.18753.18754.29289.44189.29289.70711s-.10536.51957-.29289.70711c-.18754.18753-.44189.29289-.70711.29289zm6 0c-.2652 0-.5196-.10536-.7071-.29289-.1875-.18754-.2929-.44189-.2929-.70711s.1054-.51957.2929-.70711c.1875-.18753.4419-.29289.7071-.29289s.5196.10536.7071.29289c.1875.18754.2929.44189.2929.70711s-.1054.51957-.2929.70711c-.1875.18753-.4419.29289-.7071.29289z" /></svg>