<svg fill="currentColor" height="24" viewBox="0 0 24 24" width="24" xmlns="http://www.w3.org/2000/svg"><path d="m10.9998 9h10c.2653 0 .5196.10536.7071.29289.1876.18754.2929.44189.2929.70711v10c0 .2652-.1053.5196-.2929.7071-.1875.1875-.4418.2929-.7071.2929h-10c-.2652 0-.5195-.1054-.7071-.2929-.1875-.1875-.29286-.4419-.29286-.7071v-10c0-.26522.10536-.51957.29286-.70711.1876-.18753.4419-.29289.7071-.29289zm1 2v8h8v-8zm-5.99996-.414 1.828-1.829 1.415 1.415-4.243 4.242-4.243004-4.242 1.415004-1.415 1.828 1.829v-2.586c0-1.32608.52678-2.59785 1.46446-3.53553.93768-.93769 2.20945-1.46447 3.53554-1.46447h3.99996v2h-3.99996c-.79565 0-1.55872.31607-2.12132.87868-.56261.56261-.87868 1.32567-.87868 2.12132z" /></svg>