<svg fill="currentColor" height="24" viewBox="0 0 24 24" width="24" xmlns="http://www.w3.org/2000/svg"><path d="m13.414 6 1.829 1.828-1.415 1.415-4.242-4.243 4.242-4.243 1.415 1.415-1.829 1.828h2.586c1.3261 0 2.5979.52678 3.5355 1.46447.9377.93768 1.4645 2.20945 1.4645 3.53553v4h-2v-4c0-.79565-.3161-1.55871-.8787-2.12132s-1.3257-.87868-2.1213-.87868zm1.586 5v10c0 .2652-.1054.5196-.2929.7071s-.4419.2929-.7071.2929h-10c-.26522 0-.51957-.1054-.70711-.2929-.18753-.1875-.29289-.4419-.29289-.7071v-10c0-.2652.10536-.5196.29289-.7071.18754-.1875.44189-.2929.70711-.2929h10c.2652 0 .5196.1054.7071.2929s.2929.4419.2929.7071zm-2 1h-8v8h8z" /></svg>