<svg fill="currentColor" height="24" viewBox="0 0 24 24" width="24" xmlns="http://www.w3.org/2000/svg"><path d="m6 10h3l-4 5-4-5h3v-2c0-1.32608.52678-2.59785 1.46447-3.53553.93768-.93769 2.20945-1.46447 3.53553-1.46447h4v2h-4c-.79565 0-1.55871.31607-2.12132.87868s-.87868 1.32567-.87868 2.12132zm5-1h10c.2652 0 .5196.10536.7071.29289.1875.18754.2929.44189.2929.70711v10c0 .2652-.1054.5196-.2929.7071s-.4419.2929-.7071.2929h-10c-.2652 0-.5196-.1054-.7071-.2929s-.2929-.4419-.2929-.7071v-10c0-.26522.1054-.51957.2929-.70711.1875-.18753.4419-.29289.7071-.29289z" /></svg>