<svg fill="currentColor" height="24" viewBox="0 0 24 24" width="24" xmlns="http://www.w3.org/2000/svg"><path d="m12 2c5.523 0 10 4.477 10 10s-4.477 10-10 10-10-4.477-10-10 4.477-10 10-10zm-3.177 13.343c-.395-.477-.886-.647-1.479-.509l-.15.041-.59 1.016c-.11127.1811-.14813.3983-.10285.606.04528.2078.16918.3899.34575.5083s.39211.1639.60147.1269c.20935-.0369.39628-.1535.52163-.3252l.062-.093.79-1.371zm4.387-6.683c-.488.404-.98 1.597-.29 2.787l3.04 5.266c.1053.1789.2742.3115.473.3712.1988.0598.4128.0423.5992-.0489.1865-.0912.3317-.2494.4065-.443.0749-.1937.0739-.4084-.0027-.6013l-.049-.1-.802-1.392h1.19c.1081.0003.2152-.0209.3151-.0621.0999-.0413.1907-.1019.2671-.1784s.1369-.1674.1781-.2673c.0411-.1.0621-.2071.0617-.3152.0005-.2005-.0725-.3943-.2051-.5446-.1327-.1504-.3159-.2469-.5149-.2714l-.103-.006h-2.14l-2.194-3.797-.23-.396zm.278-3.044c-.1727-.09919-.3754-.13257-.5708-.09397-.1954.03859-.3702.14656-.4922.30397l-.062.092-.367.633-.359-.633c-.1053-.1789-.2742-.31148-.473-.37123s-.4128-.04228-.5992.04893c-.1865.09121-.3317.24944-.4065.44304-.0749.19361-.0739.40834.0027.60126l.049.1.838 1.457-2.685 4.653h-2.097c-.10802-.0003-.21503.0208-.31488.062s-.19057.1018-.26695.1782-.13692.1671-.17814.2669c-.04121.0999-.06229.2069-.06203.3149 0 .421.312.766.719.817l.103.006h7.48c.34-.64-.06-1.549-.81-1.638l-.121-.007h-2.553l3.528-6.11c.109-.1891.1384-.41375.0818-.62454-.0567-.21079-.1947-.39045-.3838-.49946z" /></svg>