<svg fill="currentColor" height="24" viewBox="0 0 24 24" width="24" xmlns="http://www.w3.org/2000/svg"><path d="m12 2c5.523 0 10 4.477 10 10s-4.477 10-10 10-10-4.477-10-10 4.477-10 10-10zm0 2c-2.12173 0-4.15656.84285-5.65685 2.34315-1.5003 1.50029-2.34315 3.53512-2.34315 5.65685 0 2.1217.84285 4.1566 2.34315 5.6569 1.50029 1.5002 3.53512 2.3431 5.65685 2.3431 2.1217 0 4.1566-.8429 5.6569-2.3431 1.5002-1.5003 2.3431-3.5352 2.3431-5.6569 0-2.12173-.8429-4.15656-2.3431-5.65685-1.5003-1.5003-3.5352-2.34315-5.6569-2.34315zm-3.177 11.343-.79 1.37c-.05397.0938-.12589.176-.21163.242-.08575.0659-.18365.1144-.28812.1425-.10446.0281-.21345.0354-.32073.0214s-.21076-.0489-.30452-.1029-.17598-.1259-.24195-.2116c-.06597-.0858-.11441-.1837-.14255-.2881-.02813-.1045-.03542-.2135-.02143-.3208.01398-.1073.04896-.2107.10293-.3045l.589-1.016c.66-.206 1.201-.048 1.629.468zm4.387-6.683 2.423 4.194h2.141c.1081-.0004.2152.0206.3152.0617.1.0412.1908.1017.2673.1781s.1371.1672.1784.2671.0624.207.0621.3151c.0004.1082-.0206.2154-.0618.3154-.0413.1-.1019.1909-.1784.2674s-.1674.1371-.2674.1784c-.1.0412-.2072.0622-.3154.0618h-1.19l.803 1.391c.1017.1888.1259.4097.0673.616-.0585.2063-.1952.3816-.381.4888-.1857.1071-.4059.1376-.6138.085s-.3871-.1842-.4995-.3668l-3.04-5.266c-.69-1.19-.198-2.383.29-2.787zm.278-3.044c.395.226.528.73.302 1.125l-3.528 6.109h2.553c.826 0 1.29.972.931 1.645h-7.48c-.10811.0003-.2152-.0208-.31511-.0621s-.19068-.1019-.26708-.1784c-.07639-.0765-.13691-.1674-.17807-.2673-.04115-.1-.06214-.2071-.06174-.3152-.00026-.108.02082-.215.06203-.3149.04122-.0998.10176-.1905.17814-.2669s.1671-.137.26695-.1782.20686-.0623.31488-.062h2.097l2.685-4.653-.838-1.456c-.1017-.18876-.1259-.40975-.0673-.61603.0585-.20628.1952-.38161.381-.48874.1857-.10713.4059-.13763.6138-.08502s.3871.18419.4995.36679l.359.633.367-.633c.054-.09376.1259-.17596.2117-.2419.0858-.06593.1837-.11431.2882-.14236s.2135-.03522.3207-.02111c.1073.01412.2107.04924.3044.10337z" /></svg>