<svg fill="currentColor" height="24" viewBox="0 0 24 24" width="24" xmlns="http://www.w3.org/2000/svg"><path d="m15.7286 8.2081c-.473-.037-.981.076-1.759.373.066-.025-.742.29-.968.37-.502.175-.915.271-1.378.271-.458 0-.88-.092-1.366-.255-.155-.053-.31103-.11-.50503-.186-.082-.032-.382-.152-.448-.177-.648-.254-1.013-.35-1.316-.342-1.152.015-2.243.68-2.876 1.782-1.292 2.244-.577 6.299 1.312 9.031 1.006 1.444 1.556 1.96 1.778 1.953.222-.01.385-.057.783-.225l.167-.071c1.00503-.429 1.71003-.618 2.77103-.618 1.021 0 1.703.186 2.668.602l.168.072c.398.17.542.208.792.202.358-.005.799-.417 1.778-1.854.268-.391.505-.803.71-1.22-.1348-.111-.2655-.2267-.392-.347-1.289-1.228-2.086-2.884-2.108-4.93-.0216-1.5138.476-2.98939 1.41-4.181-.392-.14471-.8037-.22901-1.221-.25zm.155-1.994c.708.048 2.736.264 4.056 2.196-.108.06-2.424 1.404-2.4 4.212.036 3.36 2.94 4.476 2.976 4.488-.024.084-.468 1.596-1.536 3.156-.924 1.356-1.884 2.7-3.396 2.724-1.488.036-1.968-.876-3.66-.876-1.704 0-2.23203.852-3.63603.912-1.464.048-2.568-1.464-3.504-2.808-1.908-2.76-3.36-7.776-1.404-11.172.972-1.692 2.7-2.76 4.584-2.784 1.428-.036 2.78403.96 3.66003.96.864 0 2.412-1.152 4.26-1.008zm-1.14-1.824c-.78.936-2.052 1.668-3.288 1.572-.168-1.272.456-2.604 1.176-3.432.804-.936 2.148-1.632002 3.264-1.680002.144 1.296002-.372 2.604002-1.152 3.540002z" /></svg>