<svg fill="currentColor" height="24" viewBox="0 0 24 24" width="24" xmlns="http://www.w3.org/2000/svg"><path d="m7 11.5c-.59095 0-1.17611-.1164-1.72208-.3425-.54596-.2262-1.04204-.5577-1.4599-.9755-.41786-.41788-.74933-.91396-.97548-1.45992-.22614-.54597-.34254-1.13113-.34254-1.72208s.1164-1.17611.34254-1.72208c.22615-.54596.55762-1.04204.97548-1.4599s.91394-.74933 1.4599-.97548c.54597-.22614 1.13113-.34254 1.72208-.34254 1.19347 0 2.33807.47411 3.182 1.31802.8439.84391 1.318 1.98851 1.318 3.18198s-.4741 2.33807-1.318 3.182c-.84393.8439-1.98853 1.318-3.182 1.318zm0 10c-1.19347 0-2.33807-.4741-3.18198-1.318s-1.31802-1.9885-1.31802-3.182.47411-2.3381 1.31802-3.182 1.98851-1.318 3.18198-1.318 2.33807.4741 3.182 1.318c.8439.8439 1.318 1.9885 1.318 3.182s-.4741 2.3381-1.318 3.182c-.84393.8439-1.98853 1.318-3.182 1.318zm10-10c-.5909 0-1.1761-.1164-1.7221-.3425-.5459-.2262-1.042-.5577-1.4599-.9755-.4178-.41788-.7493-.91396-.9755-1.45992-.2261-.54597-.3425-1.13113-.3425-1.72208s.1164-1.17611.3425-1.72208c.2262-.54596.5577-1.04204.9755-1.4599.4179-.41786.914-.74933 1.4599-.97548.546-.22614 1.1312-.34254 1.7221-.34254 1.1935 0 2.3381.47411 3.182 1.31802s1.318 1.98851 1.318 3.18198-.4741 2.33807-1.318 3.182c-.8439.8439-1.9885 1.318-3.182 1.318zm0 10c-1.1935 0-2.3381-.4741-3.182-1.318s-1.318-1.9885-1.318-3.182.4741-2.3381 1.318-3.182 1.9885-1.318 3.182-1.318 2.3381.4741 3.182 1.318 1.318 1.9885 1.318 3.182-.4741 2.3381-1.318 3.182-1.9885 1.318-3.182 1.318z" /></svg>