<svg fill="currentColor" height="24" viewBox="0 0 24 24" width="24" xmlns="http://www.w3.org/2000/svg"><path d="m6.75 2.5c.55812 0 1.11077.10993 1.62641.32351.51563.21358.98415.52664 1.3788.92129.39469.39465.70769.86316.92129 1.3788.2136.51563.3235 1.06828.3235 1.6264v4.25h-4.25c-1.12717 0-2.20817-.4478-3.0052-1.2448-.79703-.79703-1.2448-1.87803-1.2448-3.0052s.44777-2.20817 1.2448-3.0052 1.87803-1.2448 3.0052-1.2448zm2.25 6.5v-2.25c0-.44501-.13196-.88002-.37919-1.25003s-.59864-.6584-1.00977-.8287-.86353-.21485-1.29999-.12804c-.43646.08682-.83737.30111-1.15204.61578s-.52896.71558-.61578 1.15204c-.08681.43645-.04225.88885.12804 1.29999.1703.41113.45869.76253.8287 1.00977.37001.24723.80502.37919 1.25003.37919zm-2.25 4h4.25v4.25c0 .8406-.2493 1.6623-.7163 2.3612-.46695.6989-1.13071 1.2436-1.90729 1.5653-.77659.3217-1.63112.4058-2.45554.2418s-1.5817-.5687-2.17607-1.1631c-.59438-.5944-.99915-1.3516-1.16314-2.1761-.16398-.8244-.07982-1.6789.24185-2.4555.32168-.7766.86641-1.4403 1.56532-1.9073s1.5206-.7163 2.36117-.7163zm0 2c-.44501 0-.88002.132-1.25003.3792s-.6584.5986-.8287 1.0098c-.17029.4111-.21485.8635-.12804 1.3.08682.4364.30111.8373.61578 1.152s.71558.5289 1.15204.6158c.43646.0868.88886.0422 1.29999-.1281s.76254-.4587 1.00977-.8287.37919-.805.37919-1.25v-2.25zm10.5-12.5c1.1272 0 2.2082.44777 3.0052 1.2448s1.2448 1.87803 1.2448 3.0052-.4478 2.20817-1.2448 3.0052c-.797.797-1.878 1.2448-3.0052 1.2448h-4.25v-4.25c0-1.12717.4478-2.20817 1.2448-3.0052s1.878-1.2448 3.0052-1.2448zm0 6.5c.445 0 .88-.13196 1.25-.37919.37-.24724.6584-.59864.8287-1.00977.1703-.41114.2149-.86354.1281-1.29999-.0868-.43646-.3011-.83737-.6158-1.15204s-.7156-.52896-1.152-.61578c-.4365-.08681-.8889-.04226-1.3.12804-.4112.1703-.7626.45869-1.0098.8287s-.3792.80502-.3792 1.25003v2.25zm-4.25 4h4.25c.8406 0 1.6623.2493 2.3612.7163s1.2436 1.1307 1.5653 1.9073.4058 1.6311.2418 2.4555c-.1639.8245-.5687 1.5817-1.1631 2.1761s-1.3516.9991-2.1761 1.1631c-.8244.164-1.6789.0799-2.4555-.2418s-1.4403-.8664-1.9073-1.5653-.7163-1.5206-.7163-2.3612zm2 2v2.25c0 .445.132.88.3792 1.25s.5986.6584 1.0098.8287c.4111.1703.8635.2149 1.3.1281.4364-.0869.8373-.3011 1.152-.6158s.529-.7156.6158-1.152c.0868-.4365.0422-.8889-.1281-1.3-.1703-.4112-.4587-.7626-.8287-1.0098s-.805-.3792-1.25-.3792z" /></svg>