<svg fill="currentColor" height="24" viewBox="0 0 24 24" width="24" xmlns="http://www.w3.org/2000/svg"><path d="m6.75 2.5c.55812 0 1.11077.10993 1.62641.32351.51563.21358.98415.52664 1.3788.92129.39469.39465.70769.86316.92129 1.3788.2136.51563.3235 1.06828.3235 1.6264v4.25h-4.25c-1.12717 0-2.20817-.4478-3.0052-1.2448-.79703-.79703-1.2448-1.87803-1.2448-3.0052s.44777-2.20817 1.2448-3.0052 1.87803-1.2448 3.0052-1.2448zm0 10.5h4.25v4.25c0 .8406-.2493 1.6623-.7163 2.3612-.46695.6989-1.13071 1.2436-1.90729 1.5653-.77659.3217-1.63112.4058-2.45554.2418s-1.5817-.5687-2.17607-1.1631c-.59438-.5944-.99915-1.3516-1.16314-2.1761-.16398-.8244-.07982-1.6789.24185-2.4555.32168-.7766.86641-1.4403 1.56532-1.9073s1.5206-.7163 2.36117-.7163zm10.5-10.5c1.1272 0 2.2082.44777 3.0052 1.2448s1.2448 1.87803 1.2448 3.0052-.4478 2.20817-1.2448 3.0052c-.797.797-1.878 1.2448-3.0052 1.2448h-4.25v-4.25c0-1.12717.4478-2.20817 1.2448-3.0052s1.878-1.2448 3.0052-1.2448zm-4.25 10.5h4.25c.8406 0 1.6623.2493 2.3612.7163s1.2436 1.1307 1.5653 1.9073.4058 1.6311.2418 2.4555c-.1639.8245-.5687 1.5817-1.1631 2.1761s-1.3516.9991-2.1761 1.1631c-.8244.164-1.6789.0799-2.4555-.2418s-1.4403-.8664-1.9073-1.5653-.7163-1.5206-.7163-2.3612z" /></svg>