<svg fill="currentColor" height="24" viewBox="0 0 24 24" width="24" xmlns="http://www.w3.org/2000/svg"><path d="m3 10h-1v-5.997c0-.554.455-1.003.992-1.003h18.016c.1313-.00027.2613.02556.3825.07601.1212.05044.2312.12449.3235.21782.0923.09334.1651.20411.2142.32586s.0735.25204.0718.38331v5.997h-1v10.001c.0004.1308-.025.2604-.0747.3814s-.1227.231-.2149.3238c-.0922.0927-.2018.1664-.3225.2168-.1207.0505-.2501.0766-.3809.077h-16.014c-.1308-.0004-.26024-.0265-.38093-.077-.12068-.0504-.23026-.1241-.32247-.2168-.09221-.0928-.16524-.2028-.21493-.3238s-.07506-.2506-.07467-.3814zm16 0h-14v9h14zm-15-5v3h16v-3zm5 7h6v2h-6z" /></svg>