<svg fill="currentColor" height="24" viewBox="0 0 24 24" width="24" xmlns="http://www.w3.org/2000/svg"><path d="m5.828 7.00005 2.536 2.536-1.414 1.41395-4.95-4.94995 4.95-4.95 1.414 1.414-2.536 2.536h7.172c2.1217 0 4.1566.84285 5.6569 2.34314 1.5002 1.5003 2.3431 3.53511 2.3431 5.65681 0 2.1218-.8429 4.1566-2.3431 5.6569-1.5003 1.5003-3.5352 2.3431-5.6569 2.3431h-9v-2h9c1.5913 0 3.1174-.6321 4.2426-1.7573 1.1253-1.1252 1.7574-2.6514 1.7574-4.2427s-.6321-3.11737-1.7574-4.24259c-1.1252-1.12522-2.6513-1.75736-4.2426-1.75736z" /></svg>