<svg fill="currentColor" height="24" viewBox="0 0 24 24" width="24" xmlns="http://www.w3.org/2000/svg"><path d="m18.172 7.00005h-7.172c-1.5913 0-3.11742.63214-4.24264 1.75736s-1.75736 2.65129-1.75736 4.24259.63214 3.1175 1.75736 4.2427 2.65134 1.7573 4.24264 1.7573h9v2h-9c-2.12173 0-4.15656-.8428-5.65685-2.3431-1.5003-1.5003-2.34315-3.5351-2.34315-5.6569 0-2.1217.84285-4.15651 2.34315-5.65681 1.50029-1.50029 3.53512-2.34314 5.65685-2.34314h7.172l-2.536-2.536 1.414-1.414 4.95 4.95-4.95 4.94995-1.414-1.41395z" /></svg>