<svg fill="currentColor" height="24" viewBox="0 0 24 24" width="24" xmlns="http://www.w3.org/2000/svg"><path d="m12 22c-5.523 0-10-4.477-10-10s4.477-10 10-10 10 4.477 10 10-4.477 10-10 10zm8-10c-.0003-1.7626-.5827-3.47576-1.6567-4.87334s-2.5796-2.40134-4.2827-2.85535-3.5085-.33284-5.13567.34467c-1.62719.67752-2.98507 1.87345-3.86271 3.40202-.87763 1.52856-1.22589 3.3042-.99066 5.051s1.04077 3.3671 2.29149 4.6091c1.25071 1.2419 2.87658 2.0361 4.62505 2.259 1.7484.223 3.5215-.1378 5.0439-1.0261l-1.008-1.727c-1.1417.6662-2.4716.9368-3.7829.7696-1.31126-.1672-2.53064-.7628-3.46868-1.6942-.93805-.9314-1.54223-2.1465-1.71871-3.4566s.08463-2.6418.74277-3.78823 1.67646-2.04343 2.89678-2.55165c1.22034-.50822 2.57434-.59921 3.85164-.25883 1.2774.34037 2.4065 1.09306 3.2122 2.14113.8056 1.04808 1.2425 2.33288 1.2429 3.65478v1c0 .2652-.1054.5196-.2929.7071s-.4419.2929-.7071.2929-.5196-.1054-.7071-.2929-.2929-.4419-.2929-.7071v-4h-1.354c-.5802-.51174-1.2963-.84427-2.0616-.9573-.7653-.11304-1.5469-.00173-2.2502.32044-.70336.32217-1.29817.84138-1.71242 1.49472-.41424.65334-.63014 1.41284-.62155 2.18634.0086.7736.24132 1.528.66998 2.172s1.03486 1.1498 1.74519 1.4563c.7103.3065 1.4942.4004 2.2568.2704s1.4712-.4784 2.0398-1.0029c.3973.4685.9289.8037 1.5228.9604.594.1567 1.2218.1272 1.7985-.0843.5767-.2116 1.0745-.5951 1.4262-1.0987.3518-.5037.5404-1.1031.5405-1.7174zm-8-2c.5304 0 1.0391.2107 1.4142.5858s.5858.8838.5858 1.4142-.2107 1.0391-.5858 1.4142-.8838.5858-1.4142.5858-1.0391-.2107-1.4142-.5858-.5858-.8838-.5858-1.4142.2107-1.0391.5858-1.4142.8838-.5858 1.4142-.5858z" /></svg>