<svg fill="currentColor" height="24" viewBox="0 0 24 24" width="24" xmlns="http://www.w3.org/2000/svg"><path d="m20 12c-.0002-1.7831-.5961-3.51506-1.6931-4.92081-1.097-1.40574-2.6322-2.40471-4.3618-2.83825-1.7296-.43355-3.5545-.27683-5.18482.44527-1.63036.7221-2.97275 1.96818-3.81399 3.54038-.84125 1.5722-1.13313 3.38041-.8293 5.13741.30384 1.7571 1.18597 3.3622 2.50632 4.5606 1.32034 1.1985 3.00322 1.9214 4.78139 2.0541 1.7782.1327 3.5497-.3325 5.0333-1.3217l1.11 1.664c-1.6418 1.0977-3.573 1.6822-5.548 1.679-5.523 0-10-4.477-10-10s4.477-10 10-10 10 4.477 10 10v1.5c.0001.7488-.2399 1.4778-.6848 2.0801-.4449.6022-1.0712 1.0459-1.7869 1.2659s-1.483.2047-2.1894-.0437c-.7063-.2484-1.3144-.7168-1.7349-1.3363-.6674.694-1.521 1.1805-2.4583 1.4011-.9372.2206-1.9182.1659-2.8251-.1575-.90694-.3235-1.70117-.9019-2.28729-1.6658-.58613-.7639-.93923-1.6808-1.01687-2.6405s.12347-1.9214.57918-2.76963c.45571-.84818 1.14663-1.54675 1.98975-2.01177.84313-.46502 1.80253-.67671 2.76313-.60963.9605.06707 1.8812.41005 2.6515.98773h2v5.5c0 .3978.158.7794.4393 1.0607s.6629.4393 1.0607.4393.7794-.158 1.0607-.4393.4393-.6629.4393-1.0607zm-8-3c-.7956 0-1.5587.31607-2.12132.87868-.56261.56262-.87868 1.32572-.87868 2.12132s.31607 1.5587.87868 2.1213c.56262.5626 1.32572.8787 2.12132.8787s1.5587-.3161 2.1213-.8787.8787-1.3257.8787-2.1213-.3161-1.5587-.8787-2.12132c-.5626-.56261-1.3257-.87868-2.1213-.87868z" /></svg>