<svg fill="currentColor" height="24" viewBox="0 0 24 24" width="24" xmlns="http://www.w3.org/2000/svg"><path d="m14 13.5v-5.5c0-1.06087-.4214-2.07828-1.1716-2.82843-.7501-.75014-1.7675-1.17157-2.8284-1.17157-1.06087 0-2.07828.42143-2.82843 1.17157-.75014.75015-1.17157 1.76756-1.17157 2.82843v5.5c0 1.7239.68482 3.3772 1.90381 4.5962 1.21898 1.219 2.87229 1.9038 4.59619 1.9038s3.3772-.6848 4.5962-1.9038 1.9038-2.8723 1.9038-4.5962v-9.5h2v9.5c0 2.2543-.8955 4.4163-2.4896 6.0104s-3.7561 2.4896-6.0104 2.4896-4.41635-.8955-6.01041-2.4896-2.48959-3.7561-2.48959-6.0104v-5.5c0-1.5913.63214-3.11742 1.75736-4.24264s2.65134-1.75736 4.24264-1.75736 3.1174.63214 4.2426 1.75736c1.1253 1.12522 1.7574 2.65134 1.7574 4.24264v5.5c0 .9283-.3687 1.8185-1.0251 2.4749s-1.5466 1.0251-2.4749 1.0251-1.8185-.3687-2.4749-1.0251c-.65635-.6564-1.0251-1.5466-1.0251-2.4749v-5.5h2v5.5c0 .3978.158.7794.4393 1.0607s.6629.4393 1.0607.4393.7794-.158 1.0607-.4393.4393-.6629.4393-1.0607z" /></svg>