<svg fill="currentColor" height="24" viewBox="0 0 24 24" width="24" xmlns="http://www.w3.org/2000/svg"><path d="m20.997 2.992.003 18.016c-.0021.2626-.1074.5139-.2932.6995s-.4372.2907-.6998.2925h-16.014c-.26319 0-.51561-.1045-.7018-.2905-.1862-.186-.29093-.4383-.2912-.7015v-18.016c.00209-.26262.10742-.51387.29322-.69949.1858-.18561.43716-.29068.69978-.29251h16.01c.549 0 .994.444.994.992zm-11.997 10.008v-4c0-.26522.10536-.51957.29289-.70711.18754-.18753.44189-.29289.70711-.29289.2652 0 .5196.10536.7071.29289.1875.18754.2929.44189.2929.70711v4c0 .2652.1054.5196.2929.7071s.4419.2929.7071.2929.5196-.1054.7071-.2929.2929-.4419.2929-.7071v-4c0-.79565-.3161-1.55871-.8787-2.12132s-1.3257-.87868-2.1213-.87868c-.79565 0-1.55871.31607-2.12132.87868s-.87868 1.32567-.87868 2.12132v4c0 1.3261.52678 2.5979 1.46447 3.5355.93768.9377 2.20943 1.4645 3.53553 1.4645s2.5979-.5268 3.5355-1.4645c.9377-.9376 1.4645-2.2094 1.4645-3.5355v-5h-2v5c0 .7956-.3161 1.5587-.8787 2.1213s-1.3257.8787-2.1213.8787-1.5587-.3161-2.12132-.8787c-.56261-.5626-.87868-1.3257-.87868-2.1213z" /></svg>