<svg fill="currentColor" height="24" viewBox="0 0 24 24" width="24" xmlns="http://www.w3.org/2000/svg"><path d="m17 15.245v6.872c0 .0884-.0234.1753-.068.2518-.0445.0764-.1085.1397-.1855.1833-.0769.0436-.1641.066-.2526.0649-.0884-.001-.175-.0256-.2509-.071l-4.243-2.546-4.243 2.546c-.07596.0455-.16264.07-.25119.071-.08854.0011-.17577-.0214-.25277-.0652-.07699-.0437-.14099-.1071-.18545-.1837s-.06779-.1636-.06759-.2521v-6.87c-1.29385-1.0359-2.23401-2.4481-2.69054-4.0415-.45653-1.59333-.4069-3.28914.14203-4.85305.54894-1.56392 1.57007-2.91873 2.92229-3.8772s2.96872-1.47327 4.62622-1.47327 3.274.5148 4.6262 1.47327 2.3734 2.31328 2.9223 3.8772c.5489 1.56391.5986 3.25972.142 4.85305-.4565 1.5934-1.3966 3.0056-2.6905 4.0415zm-5-.245c1.5913 0 3.1174-.6322 4.2426-1.7574 1.1253-1.1252 1.7574-2.6513 1.7574-4.24263 0-1.59129-.6321-3.11742-1.7574-4.24264-1.1252-1.12521-2.6513-1.75736-4.2426-1.75736s-3.11742.63215-4.24264 1.75736c-1.12522 1.12522-1.75736 2.65135-1.75736 4.24264 0 1.59133.63214 3.11743 1.75736 4.24263s2.65134 1.7574 4.24264 1.7574zm0-2c-1.0609 0-2.07828-.4215-2.82843-1.1716-.75014-.7501-1.17157-1.7676-1.17157-2.82843 0-1.06086.42143-2.07828 1.17157-2.82842.75015-.75015 1.76753-1.17158 2.82843-1.17158s2.0783.42143 2.8284 1.17158c.7502.75014 1.1716 1.76756 1.1716 2.82842 0 1.06083-.4214 2.07833-1.1716 2.82843-.7501.7501-1.7675 1.1716-2.8284 1.1716z" /></svg>