<svg fill="currentColor" height="24" viewBox="0 0 24 24" width="24" xmlns="http://www.w3.org/2000/svg"><path d="m7.56442 19.28c.83788.036 1.6769-.037 2.49598-.217.9787-.2129 1.9865-.2572 2.98-.131.547.067.985.165 1.288.257 1.078.275 2.61.223 3.005-.41.291-.468.253-.787-.026-1.199-.0628-.0928-.1337-.1798-.212-.26-.2516-.2012-.4993-.4072-.743-.618-.6101-.5255-1.1951-1.0794-1.753-1.66-.5731-.5899-1.1003-1.2228-1.577-1.893l-.036-.053c-.742-1.139-1.558-1.067-2.002-.317-.2798.4701-.5993.9153-.955 1.331-.40998.482-.82998.89-1.30498 1.297-.123.105-.503.42-.412.344-.004.003-.017.015.051-.071-.098.12-.95.877-1.2 1.162-.515.583-.723 1.08-.645 1.48.072.376.219.587.45.745.14602.0975.30872.1673.48.206zm7.09798-7.276c1.376 1.97 3.732 3.793 3.732 3.793s2.063 1.748.637 4.038-5.253 1.278-5.253 1.278-1.52-.49-3.286-.098c-1.76498.395-3.28598.245-3.28598.245s-2.206-.245-2.652-2.559 2.06-4.04 2.258-4.284c.195-.247 1.512-1.073 2.452-2.658.93998-1.586 3.58298-2.54 5.39798.245zm5.539-1.42c0 .458.19 2.393-1.553 2.432-1.742.038-1.816-1.178-1.816-2.05 0-.913.188-2.205 1.59-2.205 1.4 0 1.779 1.369 1.779 1.824zm-5.43-2.777c-1.18-.152-1.447-1.222-1.333-2.293.096-.875 1.143-2.219 1.981-2.026.837.19 1.6 1.3 1.446 2.254-.151.957-.911 2.218-2.094 2.065zm-5.01598-.367c-.86 0-1.56-.993-1.56-2.22s.699-2.22 1.56-2.22c.86298 0 1.55998.993 1.55998 2.22s-.697 2.22-1.55998 2.22zm-3.793 4.566c-1.695.365-2.326-1.597-2.14-2.515 0 0 .2-1.987 1.576-2.11 1.093-.095 1.898 1.101 1.981 1.785.051.444.283 2.475-1.417 2.84z" /></svg>