<svg fill="currentColor" height="24" viewBox="0 0 24 24" width="24" xmlns="http://www.w3.org/2000/svg"><path d="m12 13 6 9h-11.99998zm-1.06-2.44c-.1474-.1373-.2656-.3029-.3475-.4869-.082-.184-.1261-.38263-.1297-.58403-.0035-.20141.0335-.40147.109-.58825.0754-.18677.1877-.35644.3301-.49888.1425-.14243.3121-.25472.4989-.33017.1868-.07544.3869-.11249.5883-.10893.2014.00355.4.04763.584.12962.184.08198.3496.20019.4869.34756.265.28435.4092.66044.4024 1.04905-.0069.3886-.1643.75933-.4391 1.03423-.2749.2748-.6456.4322-1.0342.4391-.3886.0068-.7647-.1374-1.0491-.4024zm-5.65898-7.77698 1.415 1.415c-1.40634 1.4065-2.1964 3.31402-2.1964 5.303s.79006 3.89648 2.1964 5.30298l-1.415 1.415c-.8823-.8822-1.58219-1.9295-2.0597-3.0822-.4775-1.1527-.72327-2.3881-.72327-3.63578 0-1.24767.24577-2.48313.72327-3.63581.47751-1.15268 1.1774-2.20002 2.0597-3.08219zm13.43598 0c.8823.88217 1.5822 1.92951 2.0597 3.08219s.7233 2.38814.7233 3.63581c0 1.24768-.2458 2.48308-.7233 3.63578s-1.1774 2.2-2.0597 3.0822l-1.415-1.415c1.4064-1.4065 2.1964-3.314 2.1964-5.30298s-.79-3.8965-2.1964-5.303zm-10.60698 2.828 1.414 1.414c-.32504.32501-.58288.71086-.7588 1.13553-.17591.42466-.26645.87981-.26645 1.33947s.09054.91478.26645 1.33948c.17592.4247.43376.8105.7588 1.1355l-1.414 1.414c-1.0314-1.0314-1.61083-2.4303-1.61083-3.88898 0-1.45865.57943-2.85756 1.61083-3.889zm7.77798 0c1.0314 1.03144 1.6108 2.43035 1.6108 3.889 0 1.45868-.5794 2.85758-1.6108 3.88898l-1.414-1.414c.3251-.325.5829-.7108.7588-1.1355s.2665-.87982.2665-1.33948-.0906-.91481-.2665-1.33947c-.1759-.42467-.4337-.81052-.7588-1.13553z" /></svg>