<svg fill="currentColor" height="24" viewBox="0 0 24 24" width="24" xmlns="http://www.w3.org/2000/svg"><path d="m12.366 13.366 1.775 1.025c-1.0597 2.347-1.1711 5.0128-.311 7.44-.6034.1129-1.2161.1695-1.83.169-1.417.0023-2.81816-.2978-4.11-.88zm3.517 2.032 4.234 2.444c-1.1029 1.5308-2.6151 2.7197-4.363 3.43-.6657-1.7975-.6629-3.7744.008-5.57zm-7.023-4.056 1.775 1.024-4.476 7.75c-1.6557-1.1925-2.90813-2.8618-3.59-4.785 2.41632-.4462 4.58304-1.7683 6.085-3.713zm13.046-.726c.063.453.095.915.095 1.384.0022 1.417-.2978 2.8182-.88 4.11l-4.236-2.445c1.1926-1.5741 2.9262-2.6504 4.866-3.021zm-19.025-2.72499 4.235 2.44499c-1.22562 1.6174-3.02074 2.7079-5.021 3.05-.06332-.4593-.09506-.9224-.095-1.386 0-1.465.315-2.85599.88-4.10999zm14.961-4.008c1.6557 1.19252 2.9081 2.86185 3.59 4.785-2.4167.44711-4.5837 1.76989-6.086 3.71499l-.205.276-1.775-1.025 4.476-7.74999zm-5.842-1.883c1.465 0 2.856.315 4.11.88l-4.476 7.75399-1.775-1.02399c1.0602-2.34758 1.1716-5.01416.311-7.442.6035-.11249 1.2161-.16874 1.83-.168zm-3.753.73c.66471 1.79779.66116 3.7746-.01 5.57l-.12.303-4.234-2.445c1.06024-1.47103 2.49921-2.62732 4.164-3.346l.2-.083z" /></svg>