<svg fill="currentColor" height="24" viewBox="0 0 24 24" width="24" xmlns="http://www.w3.org/2000/svg"><path d="m12 2c5.523 0 10 4.477 10 10s-4.477 10-10 10-10-4.477-10-10 4.477-10 10-10zm.366 11.366-3.469 6.01c1.408.5891 2.9544.766 4.459.51-.2657-1.8686.0062-3.7743.784-5.494zm3.518 2.031c-.5189 1.2283-.7207 2.5673-.587 3.894 1.2138-.5504 2.2713-1.3945 3.077-2.456zm-7.025-4.055c-1.1004 1.5336-2.61431 2.7225-4.365 3.428.5289 1.4312 1.45558 2.6816 2.671 3.604l3.469-6.008zm11.103-.13-.258.12c-1.1087.5477-2.0743 1.3465-2.82 2.333l2.492 1.439c.5176-1.2283.7191-2.5668.586-3.893zm-15.962.788c0 .266.013.53.038.789 1.2155-.547 2.27395-1.3909 3.078-2.454l-2.492-1.438c-.41323.98226-.6254 2.0374-.624 3.103zm12.835-6.374-3.469 6.008 1.775 1.025c1.1004-1.5344 2.6147-2.7241 4.366-3.43-.4917-1.32776-1.3263-2.50157-2.419-3.402zm-4.835-1.626c-.463 0-.916.04-1.357.115.2662 1.86863-.0057 3.77443-.784 5.494l1.775 1.025 3.469-6.01c-.9823-.41323-2.0374-.6254-3.103-.624zm-3.297.71-.191.088c-1.1345.55146-2.12319 1.36235-2.886 2.367l2.49 1.438c.51872-1.228.72057-2.56665.587-3.893z" /></svg>