<svg fill="currentColor" height="24" viewBox="0 0 24 24" width="24" xmlns="http://www.w3.org/2000/svg"><path d="m14 2c.2652 0 .5196.10536.7071.29289.1875.18754.2929.44189.2929.70711v1h3c.2652 0 .5196.10536.7071.29289.1875.18754.2929.44189.2929.70711v2h-2v-1h-4v-2h-2v2h-4v14h10v-3h2v4c0 .2652-.1054.5196-.2929.7071s-.4419.2929-.7071.2929h-12c-.26522 0-.51957-.1054-.70711-.2929-.18753-.1875-.29289-.4419-.29289-.7071v-16c0-.26522.10536-.51957.29289-.70711.18754-.18753.44189-.29289.70711-.29289h3v-1c0-.26522.10536-.51957.29289-.70711.18754-.18753.44189-.29289.70711-.29289zm1 6 5 4-5 4v-3h-1c-1.054 0-2 .95-2 2v3h-2v-3c0-1.0609.4214-2.0783 1.1716-2.8284.7501-.7502 1.7675-1.1716 2.8284-1.1716h1z" /></svg>