<svg fill="currentColor" height="24" viewBox="0 0 24 24" width="24" xmlns="http://www.w3.org/2000/svg"><path d="m14 2c.2652 0 .5196.10536.7071.29289.1875.18754.2929.44189.2929.70711v1h3c.2652 0 .5196.10536.7071.29289.1875.18754.2929.44189.2929.70711v16c0 .2652-.1054.5196-.2929.7071s-.4419.2929-.7071.2929h-12c-.26522 0-.51957-.1054-.70711-.2929-.18753-.1875-.29289-.4419-.29289-.7071v-16c0-.26522.10536-.51957.29289-.70711.18754-.18753.44189-.29289.70711-.29289h3v-1c0-.26522.10536-.51957.29289-.70711.18754-.18753.44189-.29289.70711-.29289zm-1 2h-2v2h-4v14h10v-14h-4zm0 5v3h3v2h-3v3h-2v-3h-3v-2h3v-3z" /></svg>