<svg fill="currentColor" height="24" viewBox="0 0 24 24" width="24" xmlns="http://www.w3.org/2000/svg"><path d="m17.5002 2c.9169.00007 1.8119.2802 2.5651.80291.7533.5227 1.3289 1.26303 1.6499 2.12189.3209.85886.3719 1.79526.146 2.68387-.2259.8886-.7178 1.687-1.41 2.28833.355.967.549 2.013.549 3.103-.0007 1.3149-.2896 2.6137-.8462 3.8049-.5566 1.1913-1.3675 2.2461-2.3756 3.0903s-2.189 1.4572-3.4595 1.796c-1.2705.3387-2.5998.395-3.8944.1648-1.29454-.2302-2.52296-.7413-3.59879-1.4973s-1.97295-1.7385-2.62823-2.8785c-.65529-1.14-1.05283-2.4097-1.16465-3.7198-.11183-1.3101.06478-2.6289.51739-3.8634-.48991-.42574-.88193-.95242-1.14916-1.5439-.26723-.59149-.40334-1.23378-.39901-1.88282.00434-.64904.14903-1.28946.42413-1.87732.27511-.58786.67413-1.10926 1.16969-1.52841.49556-.41916 1.07592-.72615 1.70128-.89992.62536-.17378 1.2809-.21022 1.92167-.10682.64076.1034 1.25157.34418 1.79053.70583s.99335.83561 1.33185 1.38936c1.0972-.20473 2.2228-.20473 3.32 0 .4016-.65798.9656-1.20162 1.6379-1.57867.6723-.37704 1.4303-.57482 2.2011-.57433zm-7.5 11h-1.99998c-.00001 1.0436.40779 2.0458 1.1364 2.7929.72862.7471 1.72038 1.1798 2.76358 1.2059s2.0553-.3565 2.8204-1.0662 1.2225-1.6903 1.2746-2.7326l.005-.2h-2c.0023.519-.1972 1.0185-.5564 1.3932-.3592.3746-.8499.5949-1.3685.6143-.5186.0195-1.0245-.1634-1.4108-.51s-.6227-.8298-.6593-1.3475z" /></svg>