<svg fill="currentColor" height="24" viewBox="0 0 24 24" width="24" xmlns="http://www.w3.org/2000/svg"><path d="m17.5002 2c.9169.00007 1.8119.2802 2.5651.80291.7533.5227 1.3289 1.26303 1.6499 2.12189.3209.85886.3719 1.79526.146 2.68387-.2259.8886-.7178 1.687-1.41 2.28833.355.967.549 2.013.549 3.103-.0007 1.3149-.2896 2.6137-.8462 3.8049-.5566 1.1913-1.3675 2.2461-2.3756 3.0903s-2.189 1.4572-3.4595 1.796c-1.2705.3387-2.5998.395-3.8944.1648-1.29454-.2302-2.52296-.7413-3.59879-1.4973s-1.97295-1.7385-2.62823-2.8785c-.65529-1.14-1.05283-2.4097-1.16465-3.7198-.11183-1.3101.06478-2.6289.51739-3.8634-.48991-.42574-.88193-.95242-1.14916-1.5439-.26723-.59149-.40334-1.23378-.39901-1.88282.00434-.64904.14903-1.28946.42413-1.87732.27511-.58786.67413-1.10926 1.16969-1.52841.49556-.41916 1.07592-.72615 1.70128-.89992.62536-.17378 1.2809-.21022 1.92167-.10682.64076.1034 1.25157.34418 1.79053.70583s.99335.83561 1.33185 1.38936c1.0972-.20473 2.2228-.20473 3.32 0 .4016-.65798.9656-1.20162 1.6379-1.57867.6723-.37704 1.4303-.57482 2.2011-.57433zm0 2c-.823 0-1.575.4-2.038 1.052l-.095.144-.718 1.176-1.355-.253c-.7479-.13954-1.5135-.1571-2.267-.052l-.316.052-1.35598.255-.72-1.176c-.18398-.30135-.4297-.56031-.72099-.75983-.2913-.19953-.62155-.33509-.96901-.39776-.34747-.06267-.70427-.05103-1.04691.03415-.34265.08518-.66336.24197-.94103.46006-.27767.21808-.50599.4925-.66995.8052-.16395.3127-.2598.65658-.28125 1.009-.02146.35242.03199.70539.1568 1.03566.12481.33028.31817.63037.56734.88052l.131.123 1.041.904-.475 1.295c-.35166.9602-.4887 1.9857-.40149 3.0045.08722 1.0188.39658 2.0061.90633 2.8925.50974.8864 1.2075 1.6504 2.04418 2.2382.83669.5878 1.792.9852 2.79876 1.1641 1.0067.179 2.0404.1353 3.0285-.1281.988-.2634 1.9063-.7401 2.6903-1.3965s1.4147-1.4766 1.8478-2.4029c.433-.9263.6578-1.9363.6586-2.9588 0-.716-.107-1.416-.314-2.083l-.112-.33-.475-1.295 1.04-.904c.3848-.33398.6584-.77756.784-1.27132.1257-.49377.0975-1.01414-.0808-1.49145-.1782-.4773-.4981-.88873-.9167-1.17919-.4186-.29047-.916-.44609-1.4255-.44604zm-7.5 9c0 .5304.2107 1.0391.5858 1.4142s.8838.5858 1.4142.5858c.5305 0 1.0392-.2107 1.4142-.5858.3751-.3751.5858-.8838.5858-1.4142h2c0 1.0609-.4214 2.0783-1.1716 2.8284-.7501.7502-1.7675 1.1716-2.8284 1.1716-1.0608 0-2.07826-.4214-2.82841-1.1716-.75014-.7501-1.17157-1.7675-1.17157-2.8284z" /></svg>