<svg fill="currentColor" height="24" viewBox="0 0 24 24" width="24" xmlns="http://www.w3.org/2000/svg"><path d="m7.443 5.3501c.639 0 1.23.05 1.77.198.49001.09004.9578.27483 1.377.544.394.247.689.594.885 1.039.197.445.295.99.295 1.583 0 .693-.147 1.286-.491 1.731-.295.446-.787.841-1.377 1.138.836.248 1.475.693 1.868 1.286.394.594.64 1.336.64 2.177 0 .693-.148 1.286-.394 1.781s-.639.94-1.082 1.237c-.4812.3184-1.01316.5524-1.573.692-.59.149-1.18.248-1.77.248h-6.591v-13.654zm-.394 5.54c.541 0 .984-.148 1.328-.395s.492-.693.492-1.237c0-.297-.05-.594-.148-.791-.098-.198-.246-.347-.442-.495-.197-.099-.394-.198-.64-.247-.246-.05-.491-.05-.787-.05h-2.852v3.216h3.05zm.148 5.838c.295 0 .59-.05.836-.099.24837-.0472.48328-.1486.688-.297.20038-.1448.36803-.3301.492-.544.098-.247.197-.544.197-.89 0-.693-.197-1.188-.59-1.534-.394-.297-.935-.445-1.574-.445h-3.246v3.81h3.197zm9.492-.05c.393.396.983.594 1.77.594.541 0 1.033-.148 1.426-.395.394-.297.64-.594.738-.891h2.41c-.394 1.187-.984 2.028-1.77 2.572-.788.495-1.722.792-2.853.792-.7236.0022-1.4412-.1322-2.115-.396-.6063-.2275-1.147-.6012-1.574-1.088-.4567-.4554-.7943-1.0163-.983-1.633-.246-.643-.345-1.335-.345-2.127 0-.742.099-1.434.345-2.078.2365-.6199.5865-1.1903 1.032-1.682.443-.445.984-.84 1.574-1.088.6567-.26394 1.3582-.39841 2.066-.396.836 0 1.574.149 2.213.495.64.346 1.131.742 1.525 1.336.4019.5705.7014 1.2067.885 1.88.098.692.147 1.385.098 2.176h-7.131c0 .792.295 1.534.689 1.93zm3.098-5.194c-.344-.346-.885-.544-1.525-.544-.442 0-.787.099-1.082.247-.295.149-.491.347-.688.545-.181.1913-.3008.4322-.344.692-.05.248-.099.445-.099.643h4.426c-.098-.742-.344-1.236-.688-1.583zm-4.328-5.194h5.508v1.336h-5.507v-1.336z" /></svg>