<svg fill="currentColor" height="24" viewBox="0 0 24 24" width="24" xmlns="http://www.w3.org/2000/svg"><path d="m7.5 11c.53043 0 1.03914-.2107 1.41421-.5858.37508-.3751.58579-.88377.58579-1.4142s-.21071-1.03914-.58579-1.41421c-.37507-.37508-.88378-.58579-1.41421-.58579h-4.5v4zm1 2h-5.5v4h5.5c.53043 0 1.03914-.2107 1.41421-.5858.37509-.3751.58579-.8838.58579-1.4142s-.2107-1.0391-.58579-1.4142c-.37507-.3751-.88378-.5858-1.41421-.5858zm2.063-1.428c.7495.4507 1.3307 1.1346 1.6545 1.9471.3238.8124.3724 1.7086.1384 2.5513-.2341.8427-.7379 1.5855-1.4343 2.1146s-1.547.8154-2.4216.815h-7.5v-14h6.5c.76147.00009 1.5071.21753 2.14926.62677.64214.40924 1.15414.99328 1.47584 1.68347s.4397 1.45787.3401 2.2128c-.0996.75496-.4126 1.46576-.9022 2.04896zm4.937-5.572h5.5v1.5h-5.5zm7.5 8.5h-7.5v.25c-.0002.6177.2075 1.2176.5898 1.7028s.9168.8276 1.5175.972c.6006.1444 1.2323.0824 1.7934-.1761.561-.2585 1.0187-.6984 1.2993-1.2487h2.134c-.3047 1.1083-1.0007 2.0686-1.9592 2.703-.9584.6344-2.1143.8999-3.2536.7473-1.1392-.1525-2.1845-.7128-2.9423-1.5771-.7577-.8642-1.1766-1.9738-1.1789-3.1232v-1.5c0-1.2598.5004-2.468 1.3912-3.35876.8908-.89079 2.099-1.39124 3.3588-1.39124s2.468.50045 3.3588 1.39124c.8908.89076 1.3912 2.09896 1.3912 3.35876zm-2.104-2c-.1637-.5755-.5106-1.0819-.9881-1.4425s-1.0596-.5557-1.6579-.5557-1.1804.1951-1.6579.5557-.8244.867-.9881 1.4425z" /></svg>