<svg fill="currentColor" height="24" viewBox="0 0 24 24" width="24" xmlns="http://www.w3.org/2000/svg"><path d="m13.4143 10.5861.48.486.465.485.459.492c3.458 3.764 5.472 7.218 4.607 8.083-.4.4-1.356.184-2.64-.507-1.5816.9916-3.4322 1.4673-5.2958 1.3612-1.86372-.1061-3.6484-.7886-5.10723-1.9532l2.98-2.98c.41873.1119.86253.0849 1.26453-.0772.402-.162.7405-.4503.9645-.8214s.3214-.8049.2775-1.2361c-.044-.4312-.2268-.8365-.5209-1.1548-.2942-.3184-.6839-.5325-1.1103-.6102-.42642-.0777-.86655-.0148-1.25411.1793-.38757.1941-.70159.5088-.89479.8968s-.25512.8283-.17643 1.2546l.035.155-2.979 2.98c-1.16494-1.4591-1.84766-3.2442-1.95372-5.1082-.10606-1.8641.36979-3.71505 1.36172-5.29685-.692-1.283-.908-2.238-.508-2.639.977-.976 5.25 1.715 9.54603 6.01005zm6.364-6.36405c.1989.19884.3537.43741.4542.70013s.1444.54368.1289.82453-.09.55528-.2187.80537c-.1288.25008-.3088.4702-.5284.64597.7891 1.25332 1.2573 2.68177 1.3632 4.15905.1059 1.4773-.1539 2.9579-.7562 4.311-1.189-1.954-3.07-4.174-5.393-6.49605l-.537-.532c-2.128-2.079-4.156-3.764-5.95803-4.86 1.35318-.60255 2.83403-.86237 4.31143-.7565 1.4775.10587 2.9061.57417 4.1596 1.3635.1757-.21934.3956-.39918.6455-.52782.2499-.12863.524-.20316.8046-.21873s.5614.02818.8239.12838c.2626.1002.5011.25462.7.45317z" /></svg>