<svg fill="currentColor" height="24" viewBox="0 0 24 24" width="24" xmlns="http://www.w3.org/2000/svg"><path d="m14.121 9.87908c4.296 4.29502 6.829 8.72802 5.657 9.90002-.475.474-1.486.34-2.807-.273-1.5886 1.0507-3.4694 1.5708-5.3721 1.4857-1.90276-.0852-3.72954-.7713-5.21792-1.9597l-.038.04-1.414-1.415.038-.04c-1.18774-1.4882-1.87324-3.3146-1.95804-5.2167-.0848-1.9022.43545-3.78233 1.48604-5.37032-.614-1.322-.748-2.333-.273-2.808 1.128-1.128 5.277 1.177 9.41702 5.182zm-1.414 1.41402c-1.884-1.88402-3.83702-3.45102-5.47102-4.42302l-.186.18c-1.19007 1.1904-1.91149 2.76966-2.03214 4.44852-.12066 1.679.36752 3.3451 1.37514 4.6935l1.846-1.846c-.11386-.4252-.08426-.8761.08421-1.2828.16847-.4066.46639-.7464.84757-.9665.38119-.2201.82434-.3083 1.26074-.251.4365.0574.8418.2571 1.1531.5683.3114.3111.5114.7163.5691 1.1527.0576.4363-.0303.8796-.2501 1.2609-.2199.3814-.5594.6795-.9659.8483-.4066.1687-.8574.1986-1.28272.0851l-1.848 1.846c1.34841 1.0079 3.01482 1.4962 4.69392 1.3756 1.6792-.1207 3.2586-.8423 4.4491-2.0326l.179-.188-.053-.089c-.976-1.615-2.52-3.53-4.369-5.38zm7.071-7.07102c.1989.19884.3537.43741.4542.70013.1005.26271.1444.54367.1289.82453-.0155.28085-.09.55528-.2187.80536-.1288.25009-.3088.47021-.5284.64598.7769 1.23376 1.243 2.63755 1.3583 4.09102.1153 1.4534-.1236 2.9132-.6963 4.254-.4127-.7973-.8756-1.5675-1.386-2.306.2004-1.1113.1286-2.2546-.2092-3.33207-.3379-1.07748-.9318-2.05707-1.7308-2.85495-.798-.79892-1.7776-1.39269-2.855-1.73054-1.0775-.33784-2.2207-.40971-3.332-.20946-.7384-.5106-1.50864-.97354-2.30602-1.386 1.34119-.57282 2.80132-.81174 4.25512-.69626s2.8579.5819 4.0919 1.35926c.1757-.21934.3956-.39919.6455-.52782s.524-.20316.8046-.21873.5614.02817.8239.12838c.2626.1002.5011.25461.7.45317z" /></svg>