<svg fill="currentColor" height="24" viewBox="0 0 24 24" width="24" xmlns="http://www.w3.org/2000/svg"><path d="m5.5 12h-1.5v-5h-2v-2h6v2h-2v2.795l9.813-2.629-.58-2.166h-3.233v-2h3.978c.2239-.00494.4429.0654.6221.19976.1791.13435.308.32494.3659.54124l1.553 5.796-1.932.517-.256-.956zm-.5 7c.53043 0 1.03914-.2107 1.41421-.5858.37508-.3751.58579-.8838.58579-1.4142s-.21071-1.0391-.58579-1.4142c-.37507-.3751-.88378-.5858-1.41421-.5858s-1.03914.2107-1.41421.5858c-.37508.3751-.58579.8838-.58579 1.4142s.21071 1.0391.58579 1.4142c.37507.3751.88378.5858 1.41421.5858zm0 2c-1.06087 0-2.07828-.4214-2.82843-1.1716-.75014-.7501-1.17157-1.7675-1.17157-2.8284s.42143-2.0783 1.17157-2.8284c.75015-.7502 1.76756-1.1716 2.82843-1.1716s2.07828.4214 2.82843 1.1716c.75014.7501 1.17157 1.7675 1.17157 2.8284s-.42143 2.0783-1.17157 2.8284c-.75015.7502-1.76756 1.1716-2.82843 1.1716zm13-2c.7956 0 1.5587-.3161 2.1213-.8787s.8787-1.3257.8787-2.1213c0-.7957-.3161-1.5587-.8787-2.1213s-1.3257-.8787-2.1213-.8787-1.5587.3161-2.1213.8787-.8787 1.3256-.8787 2.1213c0 .7956.3161 1.5587.8787 2.1213s1.3257.8787 2.1213.8787zm0 2c-1.3261 0-2.5979-.5268-3.5355-1.4645-.9377-.9376-1.4645-2.2094-1.4645-3.5355s.5268-2.5979 1.4645-3.5355c.9376-.9377 2.2094-1.4645 3.5355-1.4645s2.5979.5268 3.5355 1.4645c.9377.9376 1.4645 2.2094 1.4645 3.5355s-.5268 2.5979-1.4645 3.5355c-.9376.9377-2.2094 1.4645-3.5355 1.4645z" /></svg>