<svg fill="currentColor" height="24" viewBox="0 0 24 24" width="24" xmlns="http://www.w3.org/2000/svg"><path d="m5.5 12h-1.5v-5h-2v-2h6v2h-2v2.795l9.813-2.629-.58-2.166h-3.233v-2h3.978c.2239-.00494.4429.0654.6221.19976.1791.13435.308.32494.3659.54124l1.553 5.796-1.932.517-.256-.956zm-.5 9c-1.06087 0-2.07828-.4214-2.82843-1.1716-.75014-.7501-1.17157-1.7675-1.17157-2.8284s.42143-2.0783 1.17157-2.8284c.75015-.7502 1.76756-1.1716 2.82843-1.1716s2.07828.4214 2.82843 1.1716c.75014.7501 1.17157 1.7675 1.17157 2.8284s-.42143 2.0783-1.17157 2.8284c-.75015.7502-1.76756 1.1716-2.82843 1.1716zm0-3c.26522 0 .51957-.1054.70711-.2929.18753-.1875.29289-.4419.29289-.7071s-.10536-.5196-.29289-.7071c-.18754-.1875-.44189-.2929-.70711-.2929s-.51957.1054-.70711.2929c-.18753.1875-.29289.4419-.29289.7071s.10536.5196.29289.7071c.18754.1875.44189.2929.70711.2929zm13 3c-1.3261 0-2.5979-.5268-3.5355-1.4645-.9377-.9376-1.4645-2.2094-1.4645-3.5355s.5268-2.5979 1.4645-3.5355c.9376-.9377 2.2094-1.4645 3.5355-1.4645s2.5979.5268 3.5355 1.4645c.9377.9376 1.4645 2.2094 1.4645 3.5355s-.5268 2.5979-1.4645 3.5355c-.9376.9377-2.2094 1.4645-3.5355 1.4645zm0-4c.2652 0 .5196-.1054.7071-.2929s.2929-.4419.2929-.7071-.1054-.5196-.2929-.7071-.4419-.2929-.7071-.2929-.5196.1054-.7071.2929-.2929.4419-.2929.7071.1054.5196.2929.7071.4419.2929.7071.2929z" /></svg>