<svg fill="currentColor" height="24" viewBox="0 0 24 24" width="24" xmlns="http://www.w3.org/2000/svg"><path d="m18.223 3.08592c.1161.11608.2082.25389.2711.40557.0628.15168.0951.31425.0951.47843s-.0323.32675-.0951.47843c-.0629.15168-.155.28949-.2711.40557l-1.143 1.142h1.17c.4925 0 .9803.09703 1.4353.28555s.8685.46483 1.2167.81315c.3482.34833.6244.76184.8128 1.21693s.2853.94283.2852 1.43537v7.49998c0 .9946-.3951 1.9484-1.0983 2.6517-.7033.7032-1.6571 1.0983-2.6517 1.0983h-12.5c-.99456 0-1.94839-.3951-2.65165-1.0983-.70326-.7033-1.09835-1.6571-1.09835-2.6517v-7.49998c0-.99456.39509-1.94839 1.09835-2.65165s1.65709-1.09835 2.65165-1.09835h1.166l-1.141-1.142c-.11942-.11527-.21469-.25318-.28024-.40566-.06555-.15249-.10008-.31651-.10157-.48248s.03009-.33058.0929-.48422c.0628-.15364.15558-.29323.27291-.41063.11734-.1174.25688-.21025.41048-.27315.1536-.06289.31819-.09456.48416-.09317.16598.0014.33001.03583.48254.1013.15252.06547.29048.16066.40582.28001l2.652 2.652c.079.079.145.165.198.257h3.213c.053-.092.12-.18.199-.258l2.651-2.652c.1161-.11611.2539-.20821.4056-.27105.1516-.06284.3142-.09518.4784-.09518s.3268.03234.4784.09518c.1517.06284.2895.15494.4056.27105zm.027 5.42h-12.5c-.3155-.00012-.61938.11908-.85066.33367-.23129.21459-.37287.5087-.39634.82333l-.003.094v7.49998c0 .659.51 1.199 1.157 1.246l.093.004h12.5c.3155.0001.6194-.1191.8507-.3336.2312-.2146.3728-.5088.3963-.8234l.003-.093v-7.49998c0-.69-.56-1.25-1.25-1.25zm-10 2.49998c.69 0 1.25.56 1.25 1.25v1.25c0 .3315-.1317.6495-.36612.8839s-.55236.3661-.88388.3661-.64946-.1317-.88388-.3661-.36612-.5524-.36612-.8839v-1.25c0-.69.56-1.25 1.25-1.25zm7.5 0c.69 0 1.25.56 1.25 1.25v1.25c0 .3315-.1317.6495-.3661.8839s-.5524.3661-.8839.3661-.6495-.1317-.8839-.3661-.3661-.5524-.3661-.8839v-1.25c0-.69.56-1.25 1.25-1.25z" /></svg>