<svg fill="currentColor" height="24" viewBox="0 0 24 24" width="24" xmlns="http://www.w3.org/2000/svg"><path d="m7.172 2.75695 3.242 3.243h3.171l3.243-3.242c.1876-.18764.4421-.29306.7075-.29306s.5199.10542.7075.29306.2931.44213.2931.7075c0 .26536-.1055.51986-.2931.7075l-1.829 1.827h2.086c.9283 0 1.8185.36875 2.4749 1.02512.6564.65638 1.0251 1.54662 1.0251 2.47488v7.99995c0 .9283-.3687 1.8185-1.0251 2.4749s-1.5466 1.0251-2.4749 1.0251h-13c-.92826 0-1.8185-.3687-2.47487-1.0251-.65638-.6564-1.02513-1.5466-1.02513-2.4749v-7.99995c0-.92826.36875-1.8185 1.02513-2.47488.65637-.65637 1.54661-1.02512 2.47487-1.02512h2.085l-1.828-1.829c-.18764-.18764-.29306-.44214-.29306-.7075 0-.26537.10542-.51986.29306-.7075s.44214-.29306.7075-.29306.51986.10542.7075.29306zm11.328 5.243h-13c-.37288.00001-.73239.13892-1.00842.38962-.27603.25069-.44878.59522-.48458.96638l-.007.144v7.99995c.00002.3729.13892.7324.38962 1.0085.2507.276.59522.4487.96638.4845l.144.007h13c.3729 0 .7324-.1389 1.0084-.3896s.4488-.5952.4846-.9664l.007-.144v-7.99995c0-.39783-.158-.77936-.4393-1.06066-.2813-.28131-.6629-.43934-1.0607-.43934zm-10.5 2.99995c.26522 0 .51957.1054.70711.2929.18753.1876.29289.4419.29289.7071v2c0 .2653-.10536.5196-.29289.7072-.18754.1875-.44189.2928-.70711.2928s-.51957-.1053-.70711-.2928c-.18753-.1876-.29289-.4419-.29289-.7072v-2c0-.2652.10536-.5195.29289-.7071.18754-.1875.44189-.2929.70711-.2929zm8 0c.2652 0 .5196.1054.7071.2929.1875.1876.2929.4419.2929.7071v2c0 .2653-.1054.5196-.2929.7072-.1875.1875-.4419.2928-.7071.2928s-.5196-.1053-.7071-.2928c-.1875-.1876-.2929-.4419-.2929-.7072v-2c0-.2652.1054-.5195.2929-.7071.1875-.1875.4419-.2929.7071-.2929z" /></svg>