<svg fill="currentColor" height="24" viewBox="0 0 24 24" width="24" xmlns="http://www.w3.org/2000/svg"><path d="m12 2c5.523 0 10 4.477 10 10s-4.477 10-10 10-10-4.477-10-10 4.477-10 10-10zm0 4c-1.5913 0-3.11742.63214-4.24264 1.75736s-1.75736 2.65134-1.75736 4.24264.63214 3.1174 1.75736 4.2426c1.12522 1.1253 2.65134 1.7574 4.24264 1.7574s3.1174-.6321 4.2426-1.7574c1.1253-1.1252 1.7574-2.6513 1.7574-4.2426s-.6321-3.11742-1.7574-4.24264c-1.1252-1.12522-2.6513-1.75736-4.2426-1.75736zm0 1.75c.4805-.00002.9508.13844 1.3547.39878.4038.26035.7241.63155.9224 1.06919.1984.43764.2664.92313.196 1.39843-.0705.4753-.2764.9203-.5931 1.2816.565.456.92 1.117.92 1.852 0 1.38-1.254 2.5-2.8 2.5s-2.8-1.12-2.8-2.5c0-.735.355-1.396.92-1.853-.31642-.3613-.52206-.8062-.59232-1.2813-.07025-.4752-.00215-.96048.19617-1.39793.19831-.43745.51845-.80852.92205-1.06881.4037-.2603.8738-.39881 1.3541-.39896zm0 5c-.753 0-1.3.488-1.3 1s.547 1 1.3 1 1.3-.488 1.3-1-.547-1-1.3-1zm0-3.5c-.2652 0-.5196.10536-.7071.29289-.1875.18754-.2929.44189-.2929.70711 0 .2652.1054.5196.2929.7071s.4419.2929.7071.2929.5196-.1054.7071-.2929.2929-.4419.2929-.7071c0-.26522-.1054-.51957-.2929-.70711-.1875-.18753-.4419-.29289-.7071-.29289z" /></svg>