<svg fill="currentColor" height="24" viewBox="0 0 24 24" width="24" xmlns="http://www.w3.org/2000/svg"><path d="m12 2c5.523 0 10 4.477 10 10s-4.477 10-10 10-10-4.477-10-10 4.477-10 10-10zm0 2c-2.12173 0-4.15656.84285-5.65685 2.34315-1.5003 1.50029-2.34315 3.53512-2.34315 5.65685 0 2.1217.84285 4.1566 2.34315 5.6569 1.50029 1.5002 3.53512 2.3431 5.65685 2.3431 2.1217 0 4.1566-.8429 5.6569-2.3431 1.5002-1.5003 2.3431-3.5352 2.3431-5.6569 0-2.12173-.8429-4.15656-2.3431-5.65685-1.5003-1.5003-3.5352-2.34315-5.6569-2.34315zm0 2c1.5913 0 3.1174.63214 4.2426 1.75736 1.1253 1.12522 1.7574 2.65134 1.7574 4.24264s-.6321 3.1174-1.7574 4.2426c-1.1252 1.1253-2.6513 1.7574-4.2426 1.7574s-3.11742-.6321-4.24264-1.7574c-1.12522-1.1252-1.75736-2.6513-1.75736-4.2426s.63214-3.11742 1.75736-4.24264 2.65134-1.75736 4.24264-1.75736zm0 1.75c-.4803.00015-.9504.13866-1.3541.39896-.4036.26029-.72374.63136-.92205 1.06881-.19832.43745-.26642.92273-.19617 1.39793.07026.4751.2759.92.59232 1.2813-.565.457-.92 1.118-.92 1.853 0 1.38 1.254 2.5 2.8 2.5s2.8-1.12 2.8-2.5c0-.735-.355-1.396-.92-1.852.3167-.3613.5226-.8063.5931-1.2816.0704-.4753.0024-.96079-.196-1.39843-.1983-.43764-.5186-.80884-.9224-1.06919-.4039-.26034-.8742-.3988-1.3547-.39878zm0 5c.753 0 1.3.488 1.3 1s-.547 1-1.3 1-1.3-.488-1.3-1 .547-1 1.3-1zm0-3.5c.2652 0 .5196.10536.7071.29289.1875.18754.2929.44189.2929.70711 0 .2652-.1054.5196-.2929.7071s-.4419.2929-.7071.2929-.5196-.1054-.7071-.2929-.2929-.4419-.2929-.7071c0-.26522.1054-.51957.2929-.70711.1875-.18753.4419-.29289.7071-.29289z" /></svg>