<svg fill="currentColor" height="24" viewBox="0 0 24 24" width="24" xmlns="http://www.w3.org/2000/svg"><path d="m12 22c-5.523 0-10-4.477-10-10s4.477-10 10-10 10 4.477 10 10-4.477 10-10 10zm0-2c2.1217 0 4.1566-.8429 5.6569-2.3431 1.5002-1.5003 2.3431-3.5352 2.3431-5.6569 0-2.12173-.8429-4.15656-2.3431-5.65685-1.5003-1.5003-3.5352-2.34315-5.6569-2.34315-2.12173 0-4.15656.84285-5.65685 2.34315-1.5003 1.50029-2.34315 3.53512-2.34315 5.65685 0 2.1217.84285 4.1566 2.34315 5.6569 1.50029 1.5002 3.53512 2.3431 5.65685 2.3431zm-1-4h-3v-8h3v-2h2v2h1c.4643 0 .9194.12929 1.3143.37337.395.24409.7141.59333.9218 1.0086.2076.41526.2955.88013.2538 1.34253s-.2113.9041-.4899 1.2755c.2786.3714.4482.8131.4899 1.2755s-.0462.9273-.2538 1.3425c-.2077.4153-.5268.7645-.9218 1.0086-.3949.2441-.85.3734-1.3143.3734h-1v2h-2zm-1-3v1h4c.1326 0 .2598-.0527.3536-.1464.0937-.0938.1464-.221.1464-.3536s-.0527-.2598-.1464-.3536c-.0938-.0937-.221-.1464-.3536-.1464zm0-3v1h4c.1326 0 .2598-.0527.3536-.1464.0937-.0938.1464-.221.1464-.3536s-.0527-.2598-.1464-.3536c-.0938-.0937-.221-.1464-.3536-.1464z" /></svg>