<svg fill="currentColor" height="24" viewBox="0 0 24 24" width="24" xmlns="http://www.w3.org/2000/svg"><path d="m12 22c-5.523 0-10-4.477-10-10s4.477-10 10-10 10 4.477 10 10-4.477 10-10 10zm-1-6v2h2v-2h1c.4643 0 .9194-.1293 1.3143-.3734.395-.2441.7141-.5933.9218-1.0086.2076-.4152.2955-.8801.2538-1.3425s-.2113-.9041-.4899-1.2755c.2786-.3714.4482-.8131.4899-1.2755s-.0462-.92727-.2538-1.34253c-.2077-.41527-.5268-.76451-.9218-1.0086-.3949-.24408-.85-.37337-1.3143-.37337h-1v-2h-2v2h-3v8zm-1-3h4c.1326 0 .2598.0527.3536.1464.0937.0938.1464.221.1464.3536s-.0527.2598-.1464.3536c-.0938.0937-.221.1464-.3536.1464h-4zm0-3h4c.1326 0 .2598.0527.3536.1464.0937.0938.1464.221.1464.3536s-.0527.2598-.1464.3536c-.0938.0937-.221.1464-.3536.1464h-4z" /></svg>