<svg fill="currentColor" height="24" viewBox="0 0 24 24" width="24" xmlns="http://www.w3.org/2000/svg"><path d="m14.341 12.03 4.343 4.343-5.656 5.656h-2v-6.686l-4.364 4.364-1.415-1.414 5.779-5.778v-.97l-5.779-5.78001 1.415-1.414 4.364 4.364v-6.686h2l5.656 5.657-4.343 4.34301zm-1.313 1.514v5.657l2.828-2.828zm0-3.03 2.828-2.82801-2.828-2.828v5.65701zm6.472 2.986c-.3978 0-.7794-.158-1.0607-.4393-.2813-.2814-.4393-.6629-.4393-1.0607s.158-.7794.4393-1.0607.6629-.4393 1.0607-.4393.7794.158 1.0607.4393.4393.6629.4393 1.0607-.158.7793-.4393 1.0607c-.2813.2813-.6629.4393-1.0607.4393zm-13 0c-.39782 0-.77936-.158-1.06066-.4393-.2813-.2814-.43934-.6629-.43934-1.0607s.15804-.7794.43934-1.0607.66284-.4393 1.06066-.4393.77936.158 1.06066.4393.43934.6629.43934 1.0607-.15804.7793-.43934 1.0607c-.2813.2813-.66284.4393-1.06066.4393z" /></svg>