<svg fill="currentColor" height="24" viewBox="0 0 24 24" width="24" xmlns="http://www.w3.org/2000/svg"><path d="m18.1536 19.568c-1.7039 1.603-3.965 2.4795-6.3042 2.4438-2.33913-.0356-4.57246-.9807-6.22667-2.6349-1.65422-1.6543-2.59931-3.8876-2.63499-6.2267-.03569-2.3392.84085-4.6003 2.44384-6.3042l-4.039-4.038 1.415-1.415 19.79902 19.8-1.415 1.414-3.038-3.04zm-11.30702-11.306c-1.22061 1.32953-1.88052 3.0791-1.84196 4.8836.03856 1.8044.77261 3.5243 2.04891 4.8004 1.27629 1.2762 2.99617 2.0101 4.80067 2.0485 1.8044.0383 3.554-.6218 4.8834-1.8425l-9.89002-9.89zm13.56702 7.938-1.599-1.599c.2729-1.1602.2448-2.371-.0816-3.5173-.3264-1.14633-.9403-2.19025-1.7834-3.0327l-4.95-4.951-2.34302 2.343-1.414-1.413 3.75702-3.758001 6.364 6.364001c1.2272 1.22696 2.0736 2.78248 2.4373 4.4793.3637 1.6968.2292 3.4626-.3873 5.0847z" /></svg>