<svg fill="currentColor" height="24" viewBox="0 0 24 24" width="24" xmlns="http://www.w3.org/2000/svg"><path d="m4 16v4h4v2h-6v-6zm18 0v6h-6v-2h4v-4zm-14.5-9c0 1.19347.47411 2.33807 1.31802 3.182.84391.8439 1.98848 1.318 3.18198 1.318s2.3381-.4741 3.182-1.318c.8439-.84393 1.318-1.98853 1.318-3.182h2c.0002 1.18939-.3259 2.35605-.9429 3.3729-.6169 1.0169-1.5011 1.845-2.5561 2.3941l-.001 6.233h-6v-6.232c-1.05538-.5491-1.93982-1.3773-2.55697-2.3943-.61716-1.0171-.94334-2.18403-.94303-3.3737zm4.5-2c.663 0 1.2989.26339 1.7678.73223.4688.46884.7322 1.10473.7322 1.76777s-.2634 1.29893-.7322 1.76777c-.4689.46884-1.1048.73223-1.7678.73223s-1.2989-.26339-1.7678-.73223c-.46881-.46884-.7322-1.10473-.7322-1.76777s.26339-1.29893.7322-1.76777c.4689-.46884 1.1048-.73223 1.7678-.73223zm-4-3v2l-4-.001v4.001h-2v-6zm14 0v6h-2v-4h-4v-2z" /></svg>