<svg fill="currentColor" height="24" viewBox="0 0 24 24" width="24" xmlns="http://www.w3.org/2000/svg"><path d="m4 16v4h4v2h-6v-6zm18 0v6h-6v-2h4v-4zm-14.5-9c.00002 1.01984.3463 2.00946.98215 2.80682.63585.79738 1.52355 1.35518 2.51785 1.58218v5.611h2l.001-5.612c.9939-.2271 1.8813-.7849 2.5169-1.58205.6357-.79713.9819-1.78641.9821-2.80595h2c.0002 1.18939-.3259 2.35605-.9429 3.3729-.6169 1.0169-1.5011 1.845-2.5561 2.3941l-.001 6.233h-6v-6.232c-1.05538-.5491-1.93982-1.3773-2.55697-2.3943-.61716-1.0171-.94334-2.18403-.94303-3.3737zm4.5-2c.663 0 1.2989.26339 1.7678.73223.4688.46884.7322 1.10473.7322 1.76777s-.2634 1.29893-.7322 1.76777c-.4689.46884-1.1048.73223-1.7678.73223s-1.2989-.26339-1.7678-.73223c-.46881-.46884-.7322-1.10473-.7322-1.76777s.26339-1.29893.7322-1.76777c.4689-.46884 1.1048-.73223 1.7678-.73223zm-4-3v2l-4-.001v4.001h-2v-6zm14 0v6h-2v-4h-4v-2z" /></svg>