<svg fill="currentColor" height="24" viewBox="0 0 24 24" width="24" xmlns="http://www.w3.org/2000/svg"><path d="m5 2h14c.2652 0 .5196.10536.7071.29289.1875.18754.2929.44189.2929.70711v19.143c.0001.0894-.0237.1772-.0691.2543-.0454.077-.1105.1405-.1888.1838-.0782.0433-.1666.0648-.256.0623-.0893-.0024-.1764-.0288-.2521-.0764l-7.234-4.537-7.234 4.536c-.07563.0475-.16261.0739-.2519.0764-.08928.0025-.17761-.0189-.2558-.0621-.0782-.0432-.14339-.1065-.18882-.1834-.04542-.0769-.06941-.1646-.06948-.2539v-19.143c0-.26522.10536-.51957.29289-.70711.18754-.18753.44189-.29289.70711-.29289zm3 7v2h8v-2z" /></svg>