<svg fill="currentColor" height="24" viewBox="0 0 24 24" width="24" xmlns="http://www.w3.org/2000/svg"><path d="m21 21h-8v-15c0-.79565.3161-1.55871.8787-2.12132s1.3257-.87868 2.1213-.87868h5c.2652 0 .5196.10536.7071.29289.1875.18754.2929.44189.2929.70711v16c0 .2652-.1054.5196-.2929.7071s-.4419.2929-.7071.2929zm-10 0h-8c-.26522 0-.51957-.1054-.70711-.2929-.18753-.1875-.29289-.4419-.29289-.7071v-16c0-.26522.10536-.51957.29289-.70711.18754-.18753.44189-.29289.70711-.29289h5c.79565 0 1.55871.31607 2.1213.87868.5626.56261.8787 1.32567.8787 2.12132zm0 0h2v2h-2z" /></svg>