<svg fill="currentColor" height="24" viewBox="0 0 24 24" width="24" xmlns="http://www.w3.org/2000/svg"><path d="m4 2h16c.2652 0 .5196.10536.7071.29289.1875.18754.2929.44189.2929.70711v19.276c.0001.0834-.0207.1656-.0605.2389s-.0973.1356-.1673.181c-.0699.0454-.1502.0726-.2334.0791-.0831.0065-.1666-.008-.2428-.042l-8.296-3.703-8.296 3.702c-.0761.034-.15949.0485-.24259.042-.0831-.0064-.16328-.0335-.23323-.0788-.06996-.0453-.12748-.1074-.16733-.1806s-.06077-.1553-.06085-.2386v-19.276c0-.26522.10536-.51957.29289-.70711.18754-.18753.44189-.29289.70711-.29289zm8 11.5 2.939 1.545-.561-3.272 2.377-2.318-3.286-.478-1.469-2.977-1.47 2.977-3.285.478 2.377 2.318-.56 3.272z" /></svg>