<svg fill="currentColor" height="24" viewBox="0 0 24 24" width="24" xmlns="http://www.w3.org/2000/svg"><path d="m21 4h-14c-.53043 0-1.03914.21071-1.41421.58579-.37508.37507-.58579.88378-.58579 1.41421s.21071 1.03914.58579 1.41421c.37507.37508.88378.58579 1.41421.58579h14v13c0 .2652-.1054.5196-.2929.7071s-.4419.2929-.7071.2929h-13c-1.06087 0-2.07828-.4214-2.82843-1.1716-.75014-.7501-1.17157-1.7675-1.17157-2.8284v-12c0-1.06087.42143-2.07828 1.17157-2.82843.75015-.75014 1.76756-1.17157 2.82843-1.17157h13c.2652 0 .5196.10536.7071.29289.1875.18754.2929.44189.2929.70711zm-1 3h-13c-.26522 0-.51957-.10536-.70711-.29289-.18753-.18754-.29289-.44189-.29289-.70711s.10536-.51957.29289-.70711c.18754-.18753.44189-.29289.70711-.29289h13z" /></svg>