<svg fill="currentColor" height="24" viewBox="0 0 24 24" width="24" xmlns="http://www.w3.org/2000/svg"><path d="m13 21v2h-2v-2h-8c-.26522 0-.51957-.1054-.70711-.2929-.18753-.1875-.29289-.4419-.29289-.7071v-16c0-.26521.10536-.51957.29289-.7071.18754-.18754.44189-.2929.70711-.2929h6c.56759-.00067 1.1288.11976 1.6461.35325.5174.23349.9789.57467 1.3539 1.00075.375-.42608.8365-.76726 1.3539-1.00075.5173-.23349 1.0785-.35392 1.6461-.35325h6c.2652 0 .5196.10536.7071.2929.1875.18753.2929.44189.2929.7071v16c0 .2652-.1054.5196-.2929.7071s-.4419.2929-.7071.2929zm7-2v-14h-5c-.5304 0-1.0391.21072-1.4142.58579s-.5858.88378-.5858 1.41421v12zm-9 0v-12c0-.53043-.2107-1.03914-.5858-1.41421s-.88377-.58579-1.4142-.58579h-5v14z" /></svg>