<svg fill="currentColor" height="24" viewBox="0 0 24 24" width="24" xmlns="http://www.w3.org/2000/svg"><path d="m16.5 2c1.4587 0 2.8576.57946 3.8891 1.61091 1.0314 1.03145 1.6109 2.4304 1.6109 3.88909v2.5c0 .888-.386 1.686-1 2.235v4.765c0 .6204-.1924 1.2256-.5505 1.7323-.3582.5066-.8646.8897-1.4495 1.0967v1.171c0 .2652-.1054.5196-.2929.7071s-.4419.2929-.7071.2929h-12c-.26522 0-.51957-.1054-.70711-.2929-.18753-.1875-.29289-.4419-.29289-.7071v-1.17c-.58507-.207-1.09158-.5903-1.44976-1.0971-.35818-.5069-.55042-1.1123-.55024-1.7329v-11c0-1.06087.42143-2.07828 1.17157-2.82843.75015-.75014 1.76756-1.17157 2.82843-1.17157zm-7 9h-4.5v6c.00003.2449.08996.4813.25272.6644.16275.183.38703.2999.63028.3286l.117.007h12c.2449 0 .4813-.09.6644-.2527.183-.1628.2999-.387.3286-.6303l.007-.117v-4h-6.036c-.1202.833-.5366 1.5947-1.1728 2.1457s-1.4496.8543-2.2912.8543h-3.5v-2h3.5c.37288 0 .7324-.1389 1.0084-.3896s.4488-.5952.4846-.9664l.007-.144c0-.3729-.1389-.7324-.3896-1.0084s-.5952-.4488-.9664-.4846zm7-7h-9.5c-.50458-.00016-.99057.19041-1.36055.5335s-.59661.81334-.63445 1.3165l-.005.15v3h4.5c.6625-.00014 1.3113.18773 1.8712.54177.56.35403 1.0079.85973 1.2918 1.45823h6.337c.2449 0 .4813-.09.6644-.2527.183-.1628.2999-.387.3286-.6303l.007-.117v-2.5c.0001-.89507-.3428-1.75615-.9581-2.40621-.6152-.65006-1.4562-1.03969-2.3499-1.08879z" /></svg>