<svg fill="currentColor" height="24" viewBox="0 0 24 24" width="24" xmlns="http://www.w3.org/2000/svg"><path d="m9.50002 11 .144.007c.34663.0332.67088.186.91718.4321s.3994.5703.4328.9169l.006.144-.007.144c-.0332.3466-.186.6709-.4321.9172s-.57028.3993-.91688.4328l-.144.006h-3.5v2h3.5c1.69998 0 3.11698-1.212 3.43398-2.819l.03-.18 6.036-.001c.711 0 1.388-.149 2-.416v4.416c0 .6204-.1923 1.2256-.5505 1.7323-.3582.5066-.8646.8897-1.4495 1.0967v1.171c0 .2652-.1053.5196-.2929.7071-.1875.1875-.4419.2929-.7071.2929h-11.99998c-.26521 0-.51957-.1054-.7071-.2929-.18754-.1875-.2929-.4419-.2929-.7071v-1.17c-.58507-.207-1.09158-.5903-1.44976-1.0971-.35818-.5069-.55042-1.1123-.55024-1.7329v-4c0-.5304.21072-1.0391.58579-1.4142s.88378-.5858 1.41421-.5858zm12.49998-3.5v.5l-.005.176c-.043.73359-.3539 1.42586-.8735 1.9455-.5196.5196-1.2119.8304-1.9455.8735l-.176.005h-6.337c-.2688-.5666-.6849-1.0505-1.2047-1.40127s-1.1243-.55547-1.75028-.59273l-.208-.006h-4.5c-.729 0-1.412.195-2.001.536l.001-3.536c0-1.06087.42143-2.07828 1.17158-2.82843.75014-.75014 1.76756-1.17157 2.82842-1.17157h9.49998c1.4587 0 2.8577.57946 3.8891 1.61091 1.0315 1.03145 1.6109 2.4304 1.6109 3.88909z" /></svg>