<svg fill="currentColor" height="24" viewBox="0 0 24 24" width="24" xmlns="http://www.w3.org/2000/svg"><path d="m4 18v-3.7c0-.3978-.15804-.7794-.43934-1.0607s-.66284-.4393-1.06066-.4393h-.5v-1.6h.5c.19698 0 .39204-.0388.57403-.1142.18198-.0754.34734-.1859.48663-.3251.13929-.1393.24978-.3047.32516-.4867s.11418-.37702.11418-.574v-3.7c0-.79565.31607-1.55871.87868-2.12132s1.32567-.87868 2.12132-.87868h1v2h-1c-.26522 0-.51957.10536-.70711.29289-.18753.18754-.29289.44189-.29289.70711v4.1c.0001.421-.13265.8313-.37936 1.1725-.24671.3411-.59478.5957-.99464.7275.39986.1318.74793.3864.99464.7275.24671.3412.37946.7515.37936 1.1725v4.1c0 .2652.10536.5196.29289.7071.18754.1875.44189.2929.70711.2929h1v2h-1c-.79565 0-1.55871-.3161-2.12132-.8787s-.87868-1.3257-.87868-2.1213zm16-3.7v3.7c0 .7956-.3161 1.5587-.8787 2.1213s-1.3257.8787-2.1213.8787h-1v-2h1c.2652 0 .5196-.1054.7071-.2929s.2929-.4419.2929-.7071v-4.1c-.0001-.421.1327-.8313.3794-1.1725.2467-.3411.5947-.5957.9946-.7275-.3999-.1318-.7479-.3864-.9946-.7275-.2467-.3412-.3795-.7515-.3794-1.1725v-4.1c0-.26522-.1054-.51957-.2929-.70711-.1875-.18753-.4419-.29289-.7071-.29289h-1v-2h1c.7956 0 1.5587.31607 2.1213.87868s.8787 1.32567.8787 2.12132v3.7c0 .3978.158.7794.4393 1.0607s.6629.4393 1.0607.4393h.5v1.6h-.5c-.3978 0-.7794.158-1.0607.4393s-.4393.6629-.4393 1.0607z" /></svg>