<svg fill="currentColor" height="24" viewBox="0 0 24 24" width="24" xmlns="http://www.w3.org/2000/svg"><path d="m7 5v-3c0-.26522.10536-.51957.29289-.70711.18754-.18753.44189-.29289.70711-.29289h8c.2652 0 .5196.10536.7071.29289.1875.18754.2929.44189.2929.70711v3h4c.2652 0 .5196.10536.7071.29289.1875.18754.2929.44189.2929.70711v14c0 .2652-.1054.5196-.2929.7071s-.4419.2929-.7071.2929h-18c-.26522 0-.51957-.1054-.70711-.2929-.18753-.1875-.29289-.4419-.29289-.7071v-14c0-.26522.10536-.51957.29289-.70711.18754-.18753.44189-.29289.70711-.29289zm2 8h-5v6h16v-6h-5v3h-6zm11-6h-16v4h5v-2h6v2h5zm-9 4v3h2v-3zm-2-8v2h6v-2z" /></svg>