<svg fill="currentColor" height="24" viewBox="0 0 24 24" width="24" xmlns="http://www.w3.org/2000/svg"><path d="m7 5v-3c0-.26522.10536-.51957.29289-.70711.18754-.18753.44189-.29289.70711-.29289h8c.2652 0 .5196.10536.7071.29289.1875.18754.2929.44189.2929.70711v3h4c.2652 0 .5196.10536.7071.29289.1875.18754.2929.44189.2929.70711v14c0 .2652-.1054.5196-.2929.7071s-.4419.2929-.7071.2929h-18c-.26522 0-.51957-.1054-.70711-.2929-.18753-.1875-.29289-.4419-.29289-.7071v-14c0-.26522.10536-.51957.29289-.70711.18754-.18753.44189-.29289.70711-.29289zm9 10h-3v1h-2v-1h-3v4h8zm-8-8v6h3v-1h2v1h3v-6zm-2 6v-6h-2v6zm12 0h2v-6h-2zm-12 2h-2v4h2zm12 0v4h2v-4zm-9-12v2h6v-2z" /></svg>