<svg fill="currentColor" height="24" viewBox="0 0 24 24" width="24" xmlns="http://www.w3.org/2000/svg"><path d="m4.92901 2.92896 1.414 1.414c-.74397.74207-1.33395 1.62386-1.73604 2.59467-.40209.97082-.60836 2.01153-.60696 3.06233 0 2.21004.895 4.21004 2.343 5.65704l-1.413 1.413c-.93003-.9274-1.66764-2.0294-2.17047-3.2427-.50282-1.2133-.76094-2.514-.75953-3.82734-.00168-1.31347.25622-2.61431.75888-3.82779.50265-1.21348 1.24015-2.31566 2.17012-3.24321zm14.14199 0c.93.92755 1.6675 2.02973 2.1701 3.24321.5027 1.21348.7606 2.51432.7589 3.82779.0017 1.31344-.2562 2.61434-.7589 3.82774-.5026 1.2135-1.2401 2.3157-2.1701 3.2433l-1.414-1.414c.744-.7421 1.334-1.6239 1.736-2.5947.4021-.9708.6084-2.0116.607-3.06234 0-2.21-.895-4.21-2.343-5.657l1.413-1.413zm-11.31399 2.828 1.415 1.415c-.37204.37092-.6671.81171-.86823 1.29703-.20114.48532-.30437 1.00561-.30377 1.53097 0 1.10504.448 2.10504 1.172 2.82804l-1.415 1.415c-.55797-.5566-1.00044-1.218-1.30197-1.9462-.30152-.7282-.45616-1.5087-.45503-2.29684 0-1.657.672-3.157 1.757-4.243zm8.48599 0c.558.55659 1.0004 1.21798 1.302 1.94614.3015.72816.4561 1.50873.455 2.29686.0011.78814-.1535 1.56864-.455 2.29684-.3016.7282-.744 1.3896-1.302 1.9462l-1.415-1.415c.372-.371.6671-.8118.8682-1.2971.2012-.4853.3044-1.0056.3038-1.53094.0006-.52536-.1026-1.04565-.3038-1.53097-.2011-.48532-.4962-.92611-.8682-1.29703zm-4.243 6.24304c-.5304 0-1.0391-.2108-1.4142-.5858-.3751-.3751-.5858-.8838-.5858-1.41424s.2107-1.03915.5858-1.41422.8838-.58578 1.4142-.58578 1.0391.21071 1.4142.58578.5858.88378.5858 1.41422-.2107 1.03914-.5858 1.41424c-.3751.375-.8838.5858-1.4142.5858zm0 2c.58 0 1.077.413 1.184.983l1.316 7.017h-4.99999l1.31599-7.017c.107-.57.604-.983 1.184-.983z" /></svg>