<svg fill="currentColor" height="24" viewBox="0 0 24 24" width="24" xmlns="http://www.w3.org/2000/svg"><path d="m15.456 9.678-.142-.142c-.6692-.64528-1.4917-1.10953-2.39-1.349-2.907-.778-5.699.869-6.492 3.83-.043.16-.066.34-.104.791-.154 1.87-.594 3.265-1.8 4.68 2.26.888 4.938 1.514 6.974 1.514 1.2103-.0015 2.3863-.4018 3.3462-1.139.9599-.7371 1.6501-1.7701 1.9638-2.939.2463-.9171.2509-1.8823.0133-2.8017-.2377-.9193-.7094-1.7615-1.3693-2.4443zm-2.166-3.462 4.939-3.841c.1923-.14938.4325-.22347.6755-.20837s.4722.11834.6445.29037l2.995 2.994c.1723.17238.2757.40174.2908.64499.0151.24326-.0591.48365-.2088.67601l-3.84 4.938c.2708 1.1044.287 2.2559.0475 3.3675-.2394 1.1116-.7283 2.1543-1.4298 3.0492-.7015.895-1.5971 1.6189-2.6194 2.117-1.0222.4981-2.1442.7574-3.2813.7583-3.503 0-8.003-1.502-10.503-3.002 3.98-3 3.047-4.81 3.5-6.5 1.058-3.95 4.842-6.257 8.789-5.284zm3.413 1.879c.065.063.13.128.193.194l1.135 1.134 2.475-3.182-1.746-1.746-3.182 2.475z" /></svg>