<svg fill="currentColor" height="24" viewBox="0 0 24 24" width="24" xmlns="http://www.w3.org/2000/svg"><path d="m16.5363 15.95 2.12-2.122-3.181-3.182 3.535-3.535-2.12-2.121-3.536 3.535-3.182-3.182-2.12196 2.121zm-3.182-10.253 2.828-2.829c.1876-.18747.4419-.29279.707-.29279.2652 0 .5195.10532.707.29279l3.536 3.536c.1875.18752.2928.44183.2928.707 0 .26516-.1053.51947-.2928.707l-2.829 2.828 2.475 2.475c.093.0929.1668.2032.2171.3246s.0762.2515.0762.3829-.0259.2615-.0762.3829-.1241.2317-.2171.3246l-7.778 7.778c-.1875.1875-.4418.2928-.707.2928-.2651 0-.5194-.1053-.707-.2928l-9.89996-9.9c-.18747-.1875-.29279-.4418-.29279-.707s.10532-.5195.29279-.707l7.778-7.778c.09287-.09298.20316-.16674.32456-.21706.1214-.05033.2515-.07623.3829-.07623.1315 0 .2616.0259.383.07623.1214.05032.2317.12408.3245.21706z" /></svg>