<svg fill="currentColor" height="24" viewBox="0 0 24 24" width="24" xmlns="http://www.w3.org/2000/svg"><path d="m13.289 6.216 4.939-3.841c.1923-.14938.4325-.22347.6755-.20837s.4722.11834.6445.29037l2.995 2.994c.1723.17238.2757.40174.2908.64499.0151.24326-.0591.48365-.2088.67601l-3.84 4.938c.2708 1.1044.287 2.2559.0475 3.3675-.2394 1.1116-.7284 2.1543-1.4298 3.0492-.7015.895-1.5971 1.6189-2.6194 2.117-1.0222.4981-2.1442.7574-3.2813.7583-3.502 0-8.002-1.502-10.502-3.002 3.98-3 3.047-4.81 3.5-6.5 1.058-3.95 4.842-6.257 8.789-5.284zm3.413 1.879c.065.063.13.128.193.194l1.135 1.134 2.475-3.182-1.746-1.746-3.182 2.475z" /></svg>