<svg fill="currentColor" height="24" viewBox="0 0 24 24" width="24" xmlns="http://www.w3.org/2000/svg"><path d="m13 19.9c1.1292-.2309 2.144-.8446 2.8729-1.7375.7288-.8928 1.127-2.0099 1.1271-3.1625v-3c.0013-.6882-.14-1.3692-.415-2h-9.17c-.27504.6308-.41634 1.3118-.415 2v3c.00014 1.1526.3983 2.2697 1.12714 3.1625.72885.8929 1.74367 1.5066 2.87286 1.7375v-5.9h2zm-7.464-2.21c-.35485-.8524-.53703-1.7667-.536-2.69h-3v-2h3v-1c0-.643.087-1.265.249-1.856l-2.213-1.278 1-1.732 2.02 1.166c.06375-.10169.13011-.20172.199-.3h11.49c.069.098.135.199.199.3l2.02-1.166 1 1.732-2.213 1.278c.162.59.249 1.213.249 1.856v1h3v2h-3c0 .953-.19 1.862-.536 2.69l2.5 1.444-1 1.732-2.526-1.458c-.6556.8104-1.4843 1.4638-2.4253 1.9123-.9409.4485-1.9703.6807-3.0127.6797-1.0424.001-2.07178-.2312-3.01274-.6797s-1.76963-1.1019-2.42526-1.9123l-2.526 1.458-1-1.732 2.5-1.443zm2.464-11.69c0-1.06087.42143-2.07828 1.17157-2.82843.75015-.75014 1.76753-1.17157 2.82843-1.17157s2.0783.42143 2.8284 1.17157c.7502.75015 1.1716 1.76756 1.1716 2.82843z" /></svg>