<svg fill="currentColor" height="24" viewBox="0 0 24 24" width="24" xmlns="http://www.w3.org/2000/svg"><path d="m5.07 16c-.047-.3313-.07039-.6654-.07-1v-1h-2v-2h2v-1c0-.34.024-.673.07-1h-2.07v-2h2.674c.61297-1.28849 1.60351-2.35995 2.84-3.072l-1.05-1.05 1.416-1.413 1.683 1.684c.9484-.1982 1.9276-.1982 2.876 0l1.683-1.684 1.415 1.415-1.05 1.05c1.2358.71168 2.226 1.78239 2.839 3.07h2.674v2h-2.07c.046.327.07.66.07 1v1h2v2h-2v1c0 .34-.024.673-.07 1h2.07v2h-2.674c-.5674 1.1976-1.4631 2.2096-2.5829 2.9182-1.1199.7087-2.4179 1.0848-3.7431 1.0848s-2.62323-.3761-3.74308-1.0848c-1.11985-.7086-2.01554-1.7206-2.58292-2.9182h-2.674v-2zm3.93-6v2h6v-2zm0 4v2h6v-2z" /></svg>