<svg fill="currentColor" height="24" viewBox="0 0 24 24" width="24" xmlns="http://www.w3.org/2000/svg"><path d="m6.056 8.3c.06375-.10169.13011-.20172.199-.3h11.49c.069.098.135.199.199.3l2.02-1.166 1 1.732-2.213 1.278c.162.59.249 1.213.249 1.856v1h3v2h-3c0 .953-.19 1.862-.536 2.69l2.5 1.444-1 1.732-2.526-1.458c-1.1088 1.3695-2.6938 2.2699-4.438 2.521v-7.929h-2v7.93c-1.7443-.2513-3.32936-1.1521-4.438-2.522l-2.526 1.458-1-1.732 2.5-1.443c-.35498-.8527-.53716-1.7674-.536-2.691h-3v-2h3v-1c0-.643.087-1.265.249-1.856l-2.213-1.278 1-1.732zm1.944-2.3c0-1.06087.42143-2.07828 1.17157-2.82843.75015-.75014 1.76753-1.17157 2.82843-1.17157s2.0783.42143 2.8284 1.17157c.7502.75015 1.1716 1.76756 1.1716 2.82843z" /></svg>