<svg fill="currentColor" height="24" viewBox="0 0 24 24" width="24" xmlns="http://www.w3.org/2000/svg"><path d="m10.562 4.14799c.9484-.19819 1.9276-.19819 2.876 0l1.683-1.684 1.415 1.415-1.05 1.05c1.2363.71179 2.2269 1.78288 2.84 3.071h2.674v2h-2.07c.046.32701.07.66001.07 1.00001v1h2v2h-2v1c0 .34-.024.673-.07 1h2.07v2h-2.674c-.5674 1.1976-1.4631 2.2096-2.5829 2.9182-1.1199.7086-2.4179 1.0848-3.7431 1.0848s-2.62323-.3762-3.74308-1.0848-2.01554-1.7206-2.58292-2.9182h-2.674v-2h2.07c-.047-.3313-.07039-.6654-.07-1v-1h-2v-2h2v-1c0-.34.024-.673.07-1.00001h-2.07v-2h2.674c.61297-1.28849 1.60351-2.35994 2.84-3.072l-1.05-1.05 1.416-1.413 1.683 1.684zm1.438 1.852c-1.3261 0-2.59785.52678-3.53553 1.46447-.93769.93768-1.46447 2.20945-1.46447 3.53554v4c0 1.3261.52678 2.5978 1.46447 3.5355.93768.9377 2.20943 1.4645 3.53553 1.4645s2.5979-.5268 3.5355-1.4645c.9377-.9377 1.4645-2.2094 1.4645-3.5355v-4c0-1.32609-.5268-2.59786-1.4645-3.53554-.9376-.93769-2.2094-1.46447-3.5355-1.46447zm-3 8.00001h6v2h-6zm0-4.00001h6v2.00001h-6z" /></svg>