<svg fill="currentColor" height="24" viewBox="0 0 24 24" width="24" xmlns="http://www.w3.org/2000/svg"><path d="m3 19v-13.29998c-.00006-.20528.06305-.4056.18077-.57377.11772-.16816.28433-.29603.47723-.36623l9.671-3.516c.0755-.0275.1566-.03637.2363-.02587s.1557.04007.2216.08619c.0658.04612.1196.10744.1567.17876.0371.07131.0564.15053.0564.23092v4.953l6.316 2.105c.1992.06635.3725.19371.4952.36405.1228.17033.1889.37498.1888.58495v9.27898h2v2h-22v-2zm2 0h7v-15.14498l-7 2.546zm14 0v-8.558l-5-1.66698v10.22498z" /></svg>