<svg fill="currentColor" height="24" viewBox="0 0 24 24" width="24" xmlns="http://www.w3.org/2000/svg"><path d="m12 3v2h-7v9h14v-2h2v8h-1v1c0 .2652-.1054.5196-.2929.7071s-.4419.2929-.7071.2929h-1c-.2652 0-.5196-.1054-.7071-.2929s-.2929-.4419-.2929-.7071v-1h-10v1c0 .2652-.10536.5196-.29289.7071-.18754.1875-.44189.2929-.70711.2929h-1c-.26522 0-.51957-.1054-.70711-.2929-.18753-.1875-.29289-.4419-.29289-.7071v-1h-1v-8h-1v-4h1v-3c0-.53043.21071-1.03914.58579-1.41421.37507-.37508.88378-.58579 1.41421-.58579zm-3 13h-4v2h4zm10 0h-4v2h4zm-.5-15c1.1935 0 2.3381.47411 3.182 1.31802s1.318 1.98851 1.318 3.18198-.4741 2.33807-1.318 3.18198-1.9885 1.31802-3.182 1.31802-2.3381-.47411-3.182-1.31802-1.318-1.98851-1.318-3.18198.4741-2.33807 1.318-3.18198 1.9885-1.31802 3.182-1.31802zm0 5.167c-.491 0-.94.177-1.289.47l-.125.115 1.414 1.415 1.413-1.416c-.1855-.18552-.4058-.3326-.6483-.43281s-.5023-.15159-.7647-.15119zm0-2.667c-1.156-.00174-2.2711.42714-3.128 1.203l-.173.165.944.942c.3091-.31011.6765-.55606 1.081-.72373s.8381-.25374 1.276-.25327c.8104-.00123 1.5932.29399 2.201.83l.156.147.943-.943c-.4329-.43404-.9472-.77825-1.5136-1.01285-.5663-.23459-1.1734-.35495-1.7864-.35415z" /></svg>