<svg fill="currentColor" height="24" viewBox="0 0 24 24" width="24" xmlns="http://www.w3.org/2000/svg"><path d="m17 20h-10v1c0 .2652-.10536.5196-.29289.7071-.18754.1875-.44189.2929-.70711.2929h-2c-.26522 0-.51957-.1054-.70711-.2929-.18753-.1875-.29289-.4419-.29289-.7071v-9h-1v-4h1v-3c0-.53043.21071-1.03914.58579-1.41421.37507-.37508.88378-.58579 1.41421-.58579h14c.5304 0 1.0391.21071 1.4142.58579.3751.37507.5858.88378.5858 1.41421v3h1v4h-1v9c0 .2652-.1054.5196-.2929.7071s-.4419.2929-.7071.2929h-2c-.2652 0-.5196-.1054-.7071-.2929s-.2929-.4419-.2929-.7071zm-12-15v6h14v-6zm14 8h-14v5h14zm-11.5 4c-.39782 0-.77936-.158-1.06066-.4393s-.43934-.6629-.43934-1.0607.15804-.7794.43934-1.0607.66284-.4393 1.06066-.4393.77936.158 1.06066.4393.43934.6629.43934 1.0607-.15804.7794-.43934 1.0607-.66284.4393-1.06066.4393zm9 0c-.3978 0-.7794-.158-1.0607-.4393s-.4393-.6629-.4393-1.0607.158-.7794.4393-1.0607.6629-.4393 1.0607-.4393.7794.158 1.0607.4393.4393.6629.4393 1.0607-.158.7794-.4393 1.0607-.6629.4393-1.0607.4393z" /></svg>