<svg fill="currentColor" height="24" viewBox="0 0 24 24" width="24" xmlns="http://www.w3.org/2000/svg"><path d="m17 20h-10v1c0 .2652-.10536.5196-.29289.7071-.18754.1875-.44189.2929-.70711.2929h-1c-.26522 0-.51957-.1054-.70711-.2929-.18753-.1875-.29289-.4419-.29289-.7071v-1h-1v-8h-1v-4h1v-3c0-.53043.21071-1.03914.58579-1.41421.37507-.37508.88378-.58579 1.41421-.58579h14c.5304 0 1.0391.21071 1.4142.58579.3751.37507.5858.88378.5858 1.41421v3h1v4h-1v8h-1v1c0 .2652-.1054.5196-.2929.7071s-.4419.2929-.7071.2929h-1c-.2652 0-.5196-.1054-.7071-.2929s-.2929-.4419-.2929-.7071zm-12-15v9h14v-9zm0 11v2h4v-2zm10 0v2h4v-2z" /></svg>