<svg fill="currentColor" height="24" viewBox="0 0 24 24" width="24" xmlns="http://www.w3.org/2000/svg"><path d="m8 6v3.999h3v-3.999h2v3.999h3v-3.999h2v3.999l1 .001c.7652-.00004 1.5015.2923 2.0583.8173.5567.5249.8918 1.2428.9367 2.0067l.005.176v1c0 1.014-.377 1.94-.999 2.645l-.001 4.355c0 .2652-.1054.5196-.2929.7071s-.4419.2929-.7071.2929h-16c-.26522 0-.51957-.1054-.70711-.2929-.18753-.1875-.29289-.4419-.29289-.7071v-4.36c-.53733-.6122-.87626-1.3731-.972-2.182l-.022-.253-.006-.205v-1c-.00004-.7652.29233-1.5015.81728-2.0583.52496-.5567 1.24283-.8918 2.00672-.9367l.176-.005 1-.001v-3.999zm11 6h-14c-.24493 0-.48134.09-.66437.2527-.18304.1628-.29997.387-.32863.6303l-.007.117v.971l.003.147c.0301.5092.25361.9877.62483 1.3375s.86208.5446 1.37217.5445c.47895.0008.94229-.1703 1.30568-.4823s.60268-.7441.67432-1.2177l.015-.153.005-.176c.036-1.248 1.827-1.293 1.989-.134l.01.134.004.147c.028.5079.2485.9861.6166 1.3373.3681.3511.8561.5487 1.3648.5527.5087.0039.9998-.1861 1.3733-.5315.3736-.3453.6014-.8201.6373-1.3275l.012-.282c.124-1.156 1.862-1.156 1.986 0l.012.282c.0358.5047.2615.9771.6317 1.322s.8573.5367 1.3633.5367.9931-.1918 1.3633-.5367.5959-.8173.6317-1.322l.005-.149v-1c0-.2449-.09-.4813-.2527-.6644-.1628-.183-.387-.2999-.6303-.3286zm-12-11c1.32.871 1.663 2.088 1.449 2.888-.1029.3843-.35426.71198-.69876.91095-.3445.19898-.75394.25295-1.13824.15005s-.71198-.35426-.91095-.69876c-.19898-.3445-.25295-.75394-.15005-1.13824.299-1.11 1.449-.612 1.449-2.112zm5 0c1.32.871 1.663 2.088 1.449 2.888-.1029.3843-.3543.71198-.6988.91095-.3445.19898-.7539.25295-1.1382.15005s-.712-.35426-.911-.69876c-.1989-.3445-.2529-.75394-.15-1.13824.299-1.11 1.449-.612 1.449-2.112zm5 0c1.32.871 1.663 2.088 1.449 2.888-.1029.3843-.3543.71198-.6988.91095-.3445.19898-.7539.25295-1.1382.15005s-.712-.35426-.911-.69876c-.1989-.3445-.2529-.75394-.15-1.13824.299-1.11 1.449-.612 1.449-2.112z" /></svg>