<svg fill="currentColor" height="24" viewBox="0 0 24 24" width="24" xmlns="http://www.w3.org/2000/svg"><path d="m15.5001 2c.5158-.00005 1.0253.11392 1.492.33377.4666.21984.8789.54012 1.2073.93792.3285.39779.5649.86327.6924 1.36311s.143 1.02169.0453 1.5282l-.015.066c.8699.29021 1.6305.83919 2.18 1.5735.5494.7343.8615 1.6189.8945 2.5354.0329.9165-.2148 1.8213-.7101 2.5931-.4953.7719-1.2145 1.3741-2.0614 1.726l-1.086 6.507c-.0389.2335-.1593.4457-.3398.5987-.1805.1531-.4095.2372-.6462.2373h-10.30604c-.23671-.0001-.4657-.0842-.64625-.2373-.18054-.153-.30093-.3652-.33975-.5987l-1.029-6.17c-.69208-.0393-1.3492-.317-1.85968-.7859-.51047-.469-.8428-1.1003-.94048-1.7865-.09769-.6863.04529-1.3852.40464-1.978.35935-.59275.91288-1.04279 1.56652-1.2736l-.003-.17c-.0002-1.01254.25585-2.00867.74431-2.89561.48846-.88693 1.19343-1.63583 2.04926-2.17693.85583-.54111 1.83468-.85683 2.84539-.91776 1.01068-.06093 2.02038.13492 2.93508.5693.3182-.48542.7524-.88394 1.2632-1.15961.5109-.27566 1.0823-.4198 1.6628-.41939zm-6.50004 13h-2.14l.834 5h1.306zm4.00004 0h-2v5h2zm4.139 0h-2.139v5h1.305zm-7.139-10c-2.14204 0-3.89104 1.684-3.99504 3.767l-.005.197.003.17c.00707.39268-.10163.77874-.31254 1.11-.21091.3313-.5147.5932-.87346.753l-.15.059c-.22205.0791-.40907.2339-.52813.4374-.11906.2034-.16252.4423-.12273.6746.0398.2323.16029.4432.34027.5953.17998.1522.40789.236.64359.2367h12.50004c.3696 0 .7346-.082 1.0688-.24.3341-.158.629-.3882.8635-.6739.2346-.2857.4028-.6198.4926-.9784.0899-.3585.0991-.7325.0271-1.095-.0721-.36258-.2236-.70463-.4438-1.00156-.2201-.29693-.5033-.54135-.8293-.71567-.3259-.17431-.6864-.27419-1.0556-.29242-.3692-.01824-.7378.04561-1.0793.18695l-.175.081c-.4615.23777-.9973.28683-1.4942.13679-.4969-.15003-.9161-.48739-1.1688-.94079l-.07-.137c-.3196-.69557-.8321-1.28483-1.4766-1.69784-.6445-.413-1.394-.63241-2.1594-.63216zm5.5-1c-.2593-.00005-.5141.06707-.7396.19484-.2256.12776-.4142.3118-.5474.53416.5163.50838.9364 1.10601 1.24 1.764.444-.228.93-.384 1.446-.453.0876-.22721.1187-.47235.0904-.71424-.0283-.2419-.1151-.47326-.2528-.67411-.1378-.20085-.3223-.36514-.5378-.47868-.2154-.11353-.4553-.1729-.6988-.17297z" /></svg>