<svg fill="currentColor" height="24" viewBox="0 0 24 24" width="24" xmlns="http://www.w3.org/2000/svg"><path d="m9 1v2h6v-2h2v2h4c.2652 0 .5196.10536.7071.29289.1875.18754.2929.44189.2929.70711v16c0 .2652-.1054.5196-.2929.7071s-.4419.2929-.7071.2929h-18c-.26522 0-.51957-.1054-.70711-.2929-.18753-.1875-.29289-.4419-.29289-.7071v-16c0-.26522.10536-.51957.29289-.70711.18754-.18753.44189-.29289.70711-.29289h4v-2zm11 9h-16v9h16zm-4.964 1.136 1.414 1.414-4.95 4.95-3.536-3.536 1.416-1.414 2.121 2.122 3.536-3.536zm-8.036-6.136h-3v3h16v-3h-3v1h-2v-1h-6v1h-2z" /></svg>