<svg fill="currentColor" height="24" viewBox="0 0 24 24" width="24" xmlns="http://www.w3.org/2000/svg"><path d="m9.828 5-2 2h-3.828v12h16v-12h-3.828l-2-2zm-.828-2h6l2 2h4c.2652 0 .5196.10536.7071.29289.1875.18754.2929.44189.2929.70711v14c0 .2652-.1054.5196-.2929.7071s-.4419.2929-.7071.2929h-18c-.26522 0-.51957-.1054-.70711-.2929-.18753-.1875-.29289-.4419-.29289-.7071v-14c0-.26522.10536-.51957.29289-.70711.18754-.18753.44189-.29289.70711-.29289h4zm3 15c-1.4587 0-2.85764-.5795-3.88909-1.6109-1.03145-1.0315-1.61091-2.4304-1.61091-3.8891s.57946-2.85764 1.61091-3.88909 2.43039-1.61091 3.88909-1.61091 2.8576.57946 3.8891 1.61091c1.0314 1.03145 1.6109 2.43039 1.6109 3.88909s-.5795 2.8576-1.6109 3.8891c-1.0315 1.0314-2.4304 1.6109-3.8891 1.6109zm0-2c.9283 0 1.8185-.3687 2.4749-1.0251s1.0251-1.5466 1.0251-2.4749-.3687-1.8185-1.0251-2.4749c-.6564-.65635-1.5466-1.0251-2.4749-1.0251s-1.8185.36875-2.47487 1.0251c-.65638.6564-1.02513 1.5466-1.02513 2.4749s.36875 1.8185 1.02513 2.4749c.65637.6564 1.54657 1.0251 2.47487 1.0251z" /></svg>