<svg fill="currentColor" height="24" viewBox="0 0 24 24" width="24" xmlns="http://www.w3.org/2000/svg"><path d="m9 3h6l2 2h4c.2652 0 .5196.10536.7071.29289.1875.18754.2929.44189.2929.70711v14c0 .2652-.1054.5196-.2929.7071s-.4419.2929-.7071.2929h-18c-.26522 0-.51957-.1054-.70711-.2929-.18753-.1875-.29289-.4419-.29289-.7071v-14c0-.26522.10536-.51957.29289-.70711.18754-.18753.44189-.29289.70711-.29289h4zm5.684 15.368-.895-1.79c-.6099.305-1.2876.449-1.9688.4183-.6811-.0306-1.3432-.2349-1.92321-.5934-.58003-.3585-1.05878-.8593-1.39079-1.4549s-.50626-1.2661-.5062-1.948h2.001l-2.162-4.323c-1.03445.99469-1.67812 2.3272-1.81424 3.7559-.13612 1.4286.24433 2.8587 1.07234 4.0308.828 1.1722 2.0487 2.0087 3.4407 2.3579 1.3919.3492 2.863.1879 4.1462-.4546zm-5.368-10.736.895 1.79c.6099-.30497 1.2876-.44897 1.9688-.41832.6811.03064 1.3432.23491 1.9232.59341.58.35849 1.0588.85931 1.3908 1.45491s.5063 1.2661.5062 1.948h-2.001l2.161 4.323c1.0345-.9947 1.6781-2.3272 1.8142-3.7559.1362-1.4286-.2443-2.8587-1.0723-4.03083-.828-1.17214-2.0487-2.00869-3.4407-2.35788-1.3919-.3492-2.863-.18791-4.1462.45461z" /></svg>