<svg fill="currentColor" height="24" viewBox="0 0 24 24" width="24" xmlns="http://www.w3.org/2000/svg"><path d="m9.82845 21.763 4.48305-7.763 3.5319 6.117c-1.7003 1.2273-3.7449 1.8863-5.8419 1.883-.746 0-1.473-.082-2.17305-.237zm-1.937-.643c-1.2848-.5809-2.43265-1.4262-3.36865-2.4807-.93599-1.0546-1.63907-2.2946-2.06335-3.6393h8.96505l-3.53305 6.119zm-5.84-8.12c-.1431-1.4027.01314-2.8199.45841-4.15776.44527-1.33787 1.16942-2.56601 2.12459-3.60323l4.479 7.76099zm4.109-9.11699c1.70012-1.22712 3.74429-1.88611 5.84105-1.883.746 0 1.473.082 2.173.237l-4.48305 7.76299zm9.95105-1.003c1.2847.58088 2.4326 1.42618 3.3686 2.48072s1.6391 2.29462 2.0634 3.63928h-8.965l3.533-6.119zm5.84 8.11999c.1431 1.4028-.0132 2.8199-.4585 4.1578-.4452 1.3379-1.1694 2.566-2.1245 3.6032l-4.479-7.761h7.064z" /></svg>