<svg fill="currentColor" height="24" viewBox="0 0 24 24" width="24" xmlns="http://www.w3.org/2000/svg"><path d="m9.858 19.71 2.142-3.71h-6.93c1.04953 1.8151 2.76831 3.1469 4.788 3.71zm-5.606-5.71h4.284l-3.466-6.001c-.70332 1.21595-1.07247 2.5963-1.07 4.001 0 .69.088 1.36.252 2zm2.143-7.708 2.14 3.708 3.465-6c-2.09703-.00273-4.11073.82071-5.605 2.292zm7.747-2.002-2.142 3.71h6.93c-1.0495-1.81513-2.7683-3.14693-4.788-3.71zm5.606 5.71h-4.284l3.465 6.001c.7037-1.2158 1.0732-2.5962 1.071-4.001 0-.69-.088-1.36-.252-2zm-2.143 7.708-2.14-3.708-3.465 6c2.097.0027 4.1107-.8207 5.605-2.292zm-5.605 4.292c-5.523 0-10-4.477-10-10s4.477-10 10-10 10 4.477 10 10-4.477 10-10 10zm1.155-12h-2.31l-1.154 2 1.154 2h2.31l1.154-2z" /></svg>