<svg fill="currentColor" height="24" viewBox="0 0 24 24" width="24" xmlns="http://www.w3.org/2000/svg"><path d="m9 3h6l2 2h4c.2652 0 .5196.10536.7071.29289.1875.18754.2929.44189.2929.70711v14c0 .2652-.1054.5196-.2929.7071s-.4419.2929-.7071.2929h-18c-.26522 0-.51957-.1054-.70711-.2929-.18753-.1875-.29289-.4419-.29289-.7071v-14c0-.26522.10536-.51957.29289-.70711.18754-.18753.44189-.29289.70711-.29289h4zm3 16c1.5913 0 3.1174-.6321 4.2426-1.7574 1.1253-1.1252 1.7574-2.6513 1.7574-4.2426s-.6321-3.11742-1.7574-4.24264c-1.1252-1.12522-2.6513-1.75736-4.2426-1.75736s-3.11742.63214-4.24264 1.75736-1.75736 2.65134-1.75736 4.24264.63214 3.1174 1.75736 4.2426c1.12522 1.1253 2.65134 1.7574 4.24264 1.7574zm0-2c-1.0609 0-2.07828-.4214-2.82843-1.1716-.75014-.7501-1.17157-1.7675-1.17157-2.8284s.42143-2.0783 1.17157-2.8284c.75015-.75017 1.76753-1.1716 2.82843-1.1716s2.0783.42143 2.8284 1.1716c.7502.7501 1.1716 1.7675 1.1716 2.8284s-.4214 2.0783-1.1716 2.8284c-.7501.7502-1.7675 1.1716-2.8284 1.1716z" /></svg>