<svg fill="currentColor" height="24" viewBox="0 0 24 24" width="24" xmlns="http://www.w3.org/2000/svg"><path d="m2.00002 6c0-.552.455-1 .992-1h18.01598c.548 0 .992.445.992 1v14c0 .552-.455 1-.992 1h-18.01598c-.13087-.0003-.26041-.0264-.38117-.0768-.12075-.0505-.23036-.1243-.32253-.2172s-.16508-.2031-.21456-.3242c-.04947-.1212-.07453-.2509-.07374-.3818zm2 1v12h15.99998v-12zm9.99998 9c.7957 0 1.5587-.3161 2.1213-.8787s.8787-1.3257.8787-2.1213-.3161-1.5587-.8787-2.1213-1.3256-.8787-2.1213-.8787c-.7956 0-1.5587.3161-2.1213.8787s-.8787 1.3257-.8787 2.1213.3161 1.5587.8787 2.1213 1.3257.8787 2.1213.8787zm0 2c-1.3261 0-2.5978-.5268-3.5355-1.4645-.9377-.9376-1.46448-2.2094-1.46448-3.5355s.52678-2.5979 1.46448-3.53553c.9377-.93769 2.2094-1.46447 3.5355-1.46447s2.5979.52678 3.5356 1.46447c.9376.93763 1.4644 2.20943 1.4644 3.53553s-.5268 2.5979-1.4644 3.5355c-.9377.9377-2.2095 1.4645-3.5356 1.4645zm-9.99998-16h5.99998v2h-5.99998z" /></svg>