<svg fill="currentColor" height="24" viewBox="0 0 24 24" width="24" xmlns="http://www.w3.org/2000/svg"><path d="m9.828 5-2 2h-3.828v12h16v-12h-3.828l-2-2zm-.828-2h6l2 2h4c.2652 0 .5196.10536.7071.29289.1875.18754.2929.44189.2929.70711v14c0 .2652-.1054.5196-.2929.7071s-.4419.2929-.7071.2929h-18c-.26522 0-.51957-.1054-.70711-.2929-.18753-.1875-.29289-.4419-.29289-.7071v-14c0-.26522.10536-.51957.29289-.70711.18754-.18753.44189-.29289.70711-.29289h4zm.64 4.53c1.1781-.56075 2.5172-.68442 3.7781-.34892 1.2608.3355 2.3614 1.10833 3.105 2.18043.7436 1.07209 1.0819 2.37359.9544 3.67209-.1276 1.2986-.7125 2.5094-1.6505 3.4164l-2.077-3.85h1.749l.001-.1c.0001-.5838-.1458-1.1583-.4245-1.6713s-.6813-.94812-1.1711-1.26577c-.4898-.31766-1.0512-.50775-1.6333-.55298-.582-.04522-1.1661.05586-1.6991.29405zm4.677 9.96c-1.1753.5469-2.5059.6612-3.7572.3226-1.25131-.3386-2.34279-1.1083-3.08187-2.1733-.73907-1.0649-1.07824-2.3567-.95766-3.6474.12059-1.2907.69317-2.49727 1.61673-3.4069l2.113 3.915h-1.75c-.00019.58.14375 1.1509.41886 1.6614.27511.5106.67278.9447 1.15724 1.2635.4845.3188 1.0406.5122 1.6183.5629.5778.0506 1.1591-.0431 1.6916-.2728l.931 1.774z" /></svg>