<svg fill="currentColor" height="24" viewBox="0 0 24 24" width="24" xmlns="http://www.w3.org/2000/svg"><path d="m2.00002 6c0-.552.455-1 .992-1h18.01598c.548 0 .992.445.992 1v14c0 .552-.455 1-.992 1h-18.01598c-.13087-.0003-.26041-.0264-.38117-.0768-.12075-.0505-.23036-.1243-.32253-.2172s-.16508-.2031-.21456-.3242c-.04947-.1212-.07453-.2509-.07374-.3818zm11.99998 12c1.3261 0 2.5979-.5268 3.5356-1.4645.9376-.9376 1.4644-2.2094 1.4644-3.5355s-.5268-2.5979-1.4644-3.53553c-.9377-.93769-2.2095-1.46447-3.5356-1.46447s-2.5978.52678-3.5355 1.46447c-.9377.93763-1.46448 2.20943-1.46448 3.53553s.52678 2.5979 1.46448 3.5355c.9377.9377 2.2094 1.4645 3.5355 1.4645zm-9.99998-11v2h3v-2zm0-5h5.99998v2h-5.99998z" /></svg>