<svg fill="currentColor" height="24" viewBox="0 0 24 24" width="24" xmlns="http://www.w3.org/2000/svg"><path d="m2 3.993c.00183-.26262.1069-.51398.29251-.69978.18562-.1858.43687-.29113.69949-.29322h18.016c.548 0 .992.445.992.993v16.014c-.0018.2626-.1069.514-.2925.6998s-.4369.2911-.6995.2932h-18.016c-.26319-.0003-.5155-.105-.70151-.2912s-.29049-.4386-.29049-.7018zm10 11.007c-.7956 0-1.5587-.3161-2.12132-.8787-.56261-.5626-.87868-1.3257-.87868-2.1213s.31607-1.5587.87868-2.12132c.56262-.56261 1.32572-.87868 2.12132-.87868s1.5587.31607 2.1213.87868c.5626.56262.8787 1.32572.8787 2.12132s-.3161 1.5587-.8787 2.1213-1.3257.8787-2.1213.8787zm0 2c1.3261 0 2.5979-.5268 3.5355-1.4645.9377-.9376 1.4645-2.2094 1.4645-3.5355s-.5268-2.59785-1.4645-3.53553c-.9376-.93769-2.2094-1.46447-3.5355-1.46447s-2.59785.52678-3.53553 1.46447c-.93769.93768-1.46447 2.20943-1.46447 3.53553s.52678 2.5979 1.46447 3.5355c.93768.9377 2.20943 1.4645 3.53553 1.4645zm6-12v2h2v-2z" /></svg>