<svg fill="currentColor" height="24" viewBox="0 0 24 24" width="24" xmlns="http://www.w3.org/2000/svg"><path d="m19.7781 4.22209c2.343 2.343 2.343 6.14201 0 8.48501l-7.07 7.071c-2.344 2.343-6.14301 2.343-8.48601 0s-2.343-6.142 0-8.485l7.07001-7.07101c2.344-2.343 6.143-2.343 8.486 0zm-5.656 11.31301-5.65701-5.65701-2.829 2.83001c-1.562 1.561-1.562 4.094 0 5.656s4.095 1.562 5.65701 0l2.829-2.83zm4.242-9.89901c-1.562-1.562-4.095-1.562-5.657 0l-2.82701 2.828 5.65701 5.65701 2.828-2.828c1.562-1.56201 1.562-4.09501 0-5.65701z" /></svg>