<svg fill="currentColor" height="24" viewBox="0 0 24 24" width="24" xmlns="http://www.w3.org/2000/svg"><path d="m19 20.9999h-14v1c0 .2652-.10536.5196-.29289.7071-.18754.1876-.44189.2929-.70711.2929h-1c-.26522 0-.51957-.1053-.70711-.2929-.18753-.1875-.29289-.4419-.29289-.7071v-9l2.417-4.02897c.17769-.29615.42905-.54125.7296-.71141.30054-.17016.64003-.25959.9854-.25959h11.736c.3454 0 .6849.08943.9854.25959s.5519.41526.7296.71141l2.417 4.02897v9c0 .2652-.1054.5196-.2929.7071-.1875.1876-.4419.2929-.7071.2929h-1c-.2652 0-.5196-.1053-.7071-.2929-.1875-.1875-.2929-.4419-.2929-.7071zm-14.668-8h15.336l-1.8-2.99997h-11.736zm2.168 5c.39782 0 .77936-.158 1.06066-.4393s.43934-.6628.43934-1.0607c0-.3978-.15804-.7793-.43934-1.0606s-.66284-.4394-1.06066-.4394-.77936.1581-1.06066.4394-.43934.6628-.43934 1.0606c0 .3979.15804.7794.43934 1.0607s.66284.4393 1.06066.4393zm11 0c.3978 0 .7794-.158 1.0607-.4393s.4393-.6628.4393-1.0607c0-.3978-.158-.7793-.4393-1.0606s-.6629-.4394-1.0607-.4394-.7794.1581-1.0607.4394-.4393.6628-.4393 1.0606c0 .3979.158.7794.4393 1.0607s.6629.4393 1.0607.4393zm-12.06-14.55997 1.06-1.062 1.06 1.06c.20982.20976.35273.47703.41064.76802.05792.29098.02824.59261-.08528.86672-.11352.27412-.30577.50841-.55246.67325-.24668.16484-.53671.25283-.8334.25283s-.58672-.08799-.8334-.25283c-.24669-.16484-.43894-.39913-.55246-.67325-.11352-.27411-.1432-.57574-.08528-.86672.05791-.29099.20082-.55826.41064-.76802zm5.5 0 1.06-1.062 1.06 1.06c.2098.20976.3527.47703.4106.76802.058.29098.0283.59261-.0852.86672-.1136.27412-.3058.50841-.5525.67325s-.5367.25283-.8334.25283-.5867-.08799-.8334-.25283-.4389-.39913-.5525-.67325c-.1135-.27411-.1432-.57574-.0852-.86672.0579-.29099.2008-.55826.4106-.76802zm5.5 0 1.06-1.061 1.06 1.06c.2098.20976.3527.47703.4106.76802.058.29098.0283.59261-.0852.86672-.1136.27412-.3058.50841-.5525.67325s-.5367.25283-.8334.25283-.5867-.08799-.8334-.25283-.4389-.39913-.5525-.67325c-.1135-.27411-.1432-.57574-.0852-.86672.0579-.29099.2008-.55826.4106-.76802z" /></svg>