<svg fill="currentColor" height="24" viewBox="0 0 24 24" width="24" xmlns="http://www.w3.org/2000/svg"><path d="m19 20h-14v1c0 .2652-.10536.5196-.29289.7071-.18754.1875-.44189.2929-.70711.2929h-1c-.26522 0-.51957-.1054-.70711-.2929-.18753-.1875-.29289-.4419-.29289-.7071v-9l2.513-6.702c.14293-.38131.39886-.7099.73356-.94185s.73222-.3562 1.13944-.35615h11.228c.4072-.00005.8047.1242 1.1394.35615s.5907.56054.7336.94185l2.513 6.702v9c0 .2652-.1054.5196-.2929.7071s-.4419.2929-.7071.2929h-1c-.2652 0-.5196-.1054-.7071-.2929s-.2929-.4419-.2929-.7071zm-14.864-8h15.728l-2.25-6h-11.228zm2.364 5c.39782 0 .77936-.158 1.06066-.4393s.43934-.6629.43934-1.0607-.15804-.7794-.43934-1.0607-.66284-.4393-1.06066-.4393-.77936.158-1.06066.4393-.43934.6629-.43934 1.0607.15804.7794.43934 1.0607.66284.4393 1.06066.4393zm11 0c.3978 0 .7794-.158 1.0607-.4393s.4393-.6629.4393-1.0607-.158-.7794-.4393-1.0607-.6629-.4393-1.0607-.4393-.7794.158-1.0607.4393-.4393.6629-.4393 1.0607.158.7794.4393 1.0607.6629.4393 1.0607.4393z" /></svg>