<svg fill="currentColor" height="24" viewBox="0 0 24 24" width="24" xmlns="http://www.w3.org/2000/svg"><path d="m19 20h-14v1c0 .2652-.10536.5196-.29289.7071-.18754.1875-.44189.2929-.70711.2929h-1c-.26522 0-.51957-.1054-.70711-.2929-.18753-.1875-.29289-.4419-.29289-.7071v-10l2.48-5.788c.15432-.36.41096-.66676.73805-.88222.3271-.21546.71027-.33013 1.10195-.32978h11.36c.3913.00004.7741.1149 1.1008.33033.3267.21544.583.52198.7372.88167l2.482 5.788v10c0 .2652-.1054.5196-.2929.7071s-.4419.2929-.7071.2929h-1c-.2652 0-.5196-.1054-.7071-.2929s-.2929-.4419-.2929-.7071zm1-7h-16v5h16zm-15.824-2h15.648l-2.143-5h-11.361l-2.143 5zm2.324 6c-.39782 0-.77936-.158-1.06066-.4393s-.43934-.6629-.43934-1.0607.15804-.7794.43934-1.0607.66284-.4393 1.06066-.4393.77936.158 1.06066.4393.43934.6629.43934 1.0607-.15804.7794-.43934 1.0607-.66284.4393-1.06066.4393zm11 0c-.3978 0-.7794-.158-1.0607-.4393s-.4393-.6629-.4393-1.0607.158-.7794.4393-1.0607.6629-.4393 1.0607-.4393.7794.158 1.0607.4393.4393.6629.4393 1.0607-.158.7794-.4393 1.0607-.6629.4393-1.0607.4393z" /></svg>