<svg fill="currentColor" height="24" viewBox="0 0 24 24" width="24" xmlns="http://www.w3.org/2000/svg"><path d="m3 3h18c.2652 0 .5196.10536.7071.29289.1875.18754.2929.44189.2929.70711v16c0 .2652-.1054.5196-.2929.7071s-.4419.2929-.7071.2929h-6c.0002-.6696-.051-1.3382-.153-2h5.153v-14h-16v3.153c-.66178-.10204-1.3304-.15319-2-.153v-4c0-.26522.10536-.51957.29289-.70711.18754-.18753.44189-.29289.70711-.29289zm10 18h-2c0-2.3869-.9482-4.6761-2.63604-6.364-1.68783-1.6878-3.97701-2.636-6.36396-2.636v-2c6.075 0 11 4.925 11 11zm-4 0h-2c0-.6566-.12933-1.3068-.3806-1.9134-.25128-.6066-.61957-1.1578-1.08387-1.6221-.46429-.4643-1.01548-.8326-1.62211-1.0839s-1.25681-.3806-1.91342-.3806v-2c1.85652 0 3.63699.7375 4.94975 2.0503 1.31275 1.3127 2.05025 3.0932 2.05025 4.9497zm-4 0h-3v-3c.79565 0 1.55871.3161 2.12132.8787s.87868 1.3257.87868 2.1213z" /></svg>