<svg fill="currentColor" height="24" viewBox="0 0 24 24" width="24" xmlns="http://www.w3.org/2000/svg"><path d="m4.5 10c-.45963 0-.91475-.09053-1.33939-.26642s-.81048-.4337-1.13548-.75871c-.32501-.325-.58282-.71084-.75871-1.13548s-.26642-.87976-.26642-1.33939.09053-.91475.26642-1.33939.4337-.81048.75871-1.13548c.325-.32501.71084-.58282 1.13548-.75871s.87976-.26642 1.33939-.26642c.92826 0 1.8185.36875 2.47487 1.02513.65638.65637 1.02513 1.54661 1.02513 2.47487s-.36875 1.8185-1.02513 2.47487c-.65637.65638-1.54661 1.02513-2.47487 1.02513zm0-2c.39782 0 .77936-.15804 1.06066-.43934s.43934-.66284.43934-1.06066-.15804-.77936-.43934-1.06066-.66284-.43934-1.06066-.43934-.77936.15804-1.06066.43934-.43934.66284-.43934 1.06066.15804.77936.43934 1.06066.66284.43934 1.06066.43934zm17.5 2h-2c0-1.06087-.4214-2.07828-1.1716-2.82843-.7501-.75014-1.7675-1.17157-2.8284-1.17157s-2.0783.42143-2.8284 1.17157c-.7502.75015-1.1716 1.76756-1.1716 2.82843v5c0 1.0609.4214 2.0783 1.1716 2.8284.7501.7502 1.7675 1.1716 2.8284 1.1716s2.0783-.4214 2.8284-1.1716c.7502-.7501 1.1716-1.7675 1.1716-2.8284h2c0 1.5913-.6321 3.1174-1.7574 4.2426-1.1252 1.1253-2.6513 1.7574-4.2426 1.7574s-3.1174-.6321-4.2426-1.7574c-1.1253-1.1252-1.7574-2.6513-1.7574-4.2426v-5c0-1.5913.6321-3.11742 1.7574-4.24264 1.1252-1.12522 2.6513-1.75736 4.2426-1.75736s3.1174.63214 4.2426 1.75736c1.1253 1.12522 1.7574 2.65134 1.7574 4.24264z" /></svg>