<svg fill="currentColor" height="24" viewBox="0 0 24 24" width="24" xmlns="http://www.w3.org/2000/svg"><path d="m12 2 4.292 4.292 1.061-1.06-1.232-1.232h3.879v3.879l-1.233-1.233-1.06 1.061 4.293 4.293-4.292 4.293 1.059 1.059 1.233-1.231v3.879h-3.88l1.232-1.233-1.059-1.06-4.293 4.293-4.293-4.293-1.061 1.06 1.233 1.233h-3.879v-3.88l1.231 1.232 1.061-1.06-4.292-4.292 4.293-4.293-1.062-1.061-1.231 1.233v-3.879h3.879l-1.233 1.23 1.062 1.062zm0 11.413-2.88 2.879 2.88 2.88 2.879-2.88-2.879-2.88zm-4.293-4.293-2.879 2.88 2.878 2.878 2.88-2.88-2.879-2.877zm8.585 0-2.877 2.878 2.878 2.879 2.879-2.877-2.88-2.879zm-4.292-4.292-2.878 2.879 2.879 2.878 2.877-2.879z" /></svg>