<svg fill="currentColor" height="24" viewBox="0 0 24 24" width="24" xmlns="http://www.w3.org/2000/svg"><path d="m3 19v-15c0-.26522.10536-.51957.29289-.70711.18754-.18753.44189-.29289.70711-.29289h9c.2652 0 .5196.10536.7071.29289.1875.18754.2929.44189.2929.70711v8h2c.5304 0 1.0391.2107 1.4142.5858s.5858.8838.5858 1.4142v4c0 .2652.1054.5196.2929.7071s.4419.2929.7071.2929.5196-.1054.7071-.2929.2929-.4419.2929-.7071v-7h-2c-.2652 0-.5196-.1054-.7071-.2929s-.2929-.4419-.2929-.7071v-3.586l-1.657-1.657 1.414-1.414 4.95 4.95c.093.09274.1668.20294.217.32427.0503.12133.0761.25139.076.38273v9c0 .7956-.3161 1.5587-.8787 2.1213s-1.3257.8787-2.1213.8787-1.5587-.3161-2.1213-.8787-.8787-1.3257-.8787-2.1213v-4h-2v5h1v2h-13v-2zm6-8v-4l-4 6h3v4l4-6z" /></svg>