<svg fill="currentColor" height="24" viewBox="0 0 24 24" width="24" xmlns="http://www.w3.org/2000/svg"><path d="m10 3h4c2.1217 0 4.1566.84285 5.6569 2.34315 1.5002 1.50029 2.3431 3.53512 2.3431 5.65685 0 2.1217-.8429 4.1566-2.3431 5.6569-1.5003 1.5002-3.5352 2.3431-5.6569 2.3431v3.5c-5-2-12-5-12-11.5 0-2.12173.84285-4.15656 2.34315-5.65685 1.50029-1.5003 3.53512-2.34315 5.65685-2.34315zm2 14h2c.7879 0 1.5681-.1552 2.2961-.4567.728-.3016 1.3894-.7435 1.9465-1.3007.5572-.5571.9991-1.2185 1.3007-1.9465.3015-.728.4567-1.5082.4567-2.2961s-.1552-1.56815-.4567-2.2961c-.3016-.72795-.7435-1.38939-1.3007-1.94654-.5571-.55715-1.2185-.99911-1.9465-1.30064s-1.5082-.45672-2.2961-.45672h-4c-1.5913 0-3.11742.63214-4.24264 1.75736s-1.75736 2.65134-1.75736 4.24264c0 3.61 2.462 5.966 8 8.48z" /></svg>