<svg fill="currentColor" height="24" viewBox="0 0 24 24" width="24" xmlns="http://www.w3.org/2000/svg"><path d="m6.455 19-4.455 3.5v-18.5c0-.26522.10536-.51957.29289-.70711.18754-.18753.44189-.29289.70711-.29289h18c.2652 0 .5196.10536.7071.29289.1875.18754.2929.44189.2929.70711v14c0 .2652-.1054.5196-.2929.7071s-.4419.2929-.7071.2929zm.545-9c0 1.3261.52678 2.5979 1.46447 3.5355.93768.9377 2.20943 1.4645 3.53553 1.4645s2.5979-.5268 3.5355-1.4645c.9377-.9376 1.4645-2.2094 1.4645-3.5355h-2c0 .7956-.3161 1.5587-.8787 2.1213s-1.3257.8787-2.1213.8787-1.5587-.3161-2.12132-.8787c-.56261-.5626-.87868-1.3257-.87868-2.1213z" /></svg>