<svg fill="currentColor" height="24" viewBox="0 0 24 24" width="24" xmlns="http://www.w3.org/2000/svg"><path d="m21 3c.552 0 1 .448 1 1v14c0 .552-.448 1-1 1h-14.545l-4.455 3.5v-18.5c0-.552.448-1 1-1zm-10.038 5.1-.447-.688c-1.787.775-3.015 2.343-3.015 4.093 0 .995.277 1.609.792 2.156.324.344.837.589 1.374.589.966 0 1.75-.784 1.75-1.75 0-.92-.711-1.661-1.614-1.745-.16-.015-.324-.012-.479.01v-.092c.006-.422.092-1.633 1.454-2.466l.185-.107-.447-.688zm4.553-.688c-1.787.775-3.015 2.343-3.015 4.093 0 .995.277 1.609.792 2.156.324.344.837.589 1.374.589.966 0 1.75-.784 1.75-1.75 0-.92-.711-1.661-1.614-1.745-.16-.015-.324-.012-.479.01 0-.313-.029-1.762 1.639-2.665z" /></svg>