<svg fill="currentColor" height="24" viewBox="0 0 24 24" width="24" xmlns="http://www.w3.org/2000/svg"><path d="m21 3c.552 0 1 .448 1 1v14c0 .552-.448 1-1 1h-14.545l-4.455 3.5v-18.5c0-.552.448-1 1-1zm-1 2h-16v13.385l1.763-1.385h14.237zm-9.485 2.412.447.688c-1.668.903-1.639 2.352-1.639 2.664.155-.02.318-.024.48-.009.902.084 1.613.825 1.613 1.745 0 .966-.784 1.75-1.75 1.75-.537 0-1.05-.245-1.374-.59-.515-.546-.792-1.16-.792-2.155 0-1.75 1.228-3.318 3.015-4.093zm5 0 .447.688c-1.668.903-1.639 2.352-1.639 2.664.155-.02.318-.024.48-.009.902.084 1.613.825 1.613 1.745 0 .966-.784 1.75-1.75 1.75-.537 0-1.05-.245-1.374-.59-.515-.546-.792-1.16-.792-2.155 0-1.75 1.228-3.318 3.015-4.093z" /></svg>