<svg fill="currentColor" height="24" viewBox="0 0 24 24" width="24" xmlns="http://www.w3.org/2000/svg"><path d="m2.00001 12c0-5.523 4.477-10 9.99999-10 5.523 0 10 4.477 10 10s-4.477 10-10 10h-9.99999l2.929-2.929c-.92997-.9276-1.66747-2.0297-2.17012-3.2432-.50266-1.2135-.76056-2.5143-.75888-3.8278zm4.828 8h5.17199c1.5823 0 3.129-.4692 4.4446-1.3482 1.3156-.8791 2.3409-2.1285 2.9464-3.5903s.764-3.0704.4553-4.6222c-.3087-1.55187-1.0706-2.97733-2.1894-4.09615-1.1189-1.11882-2.5443-1.88075-4.0962-2.18943-1.5518-.30868-3.1604-.15026-4.62216.45524-1.46181.60551-2.71124 1.63088-3.59029 2.94648-.87905 1.31559-1.34824 2.86226-1.34824 4.44456 0 2.152.851 4.165 2.343 5.657l1.414 1.414zm1.172-7h7.99999c0 1.0609-.4214 2.0783-1.1716 2.8284-.7501.7502-1.7675 1.1716-2.8284 1.1716s-2.07827-.4214-2.82842-1.1716c-.75014-.7501-1.17157-1.7675-1.17157-2.8284z" /></svg>