<svg fill="currentColor" height="24" viewBox="0 0 24 24" width="24" xmlns="http://www.w3.org/2000/svg"><path d="m7.29101 20.824-5.291 1.176 1.176-5.291c-.77447-1.4486-1.17847-3.0664-1.176-4.709 0-5.523 4.477-10 9.99999-10 5.523 0 10 4.477 10 10s-4.477 10-10 10c-1.6426.0025-3.26037-.4015-4.70899-1.176zm-.291-8.824c0 1.3261.52679 2.5979 1.46447 3.5355.93768.9377 2.20942 1.4645 3.53552 1.4645s2.5979-.5268 3.5355-1.4645c.9377-.9376 1.4645-2.2094 1.4645-3.5355h-2c0 .7956-.3161 1.5587-.8787 2.1213s-1.3256.8787-2.1213.8787c-.7956 0-1.5587-.3161-2.12131-.8787s-.87868-1.3257-.87868-2.1213z" /></svg>