<svg fill="currentColor" height="24" viewBox="0 0 24 24" width="24" xmlns="http://www.w3.org/2000/svg"><path d="m6.455 19-4.455 3.5v-18.5c0-.26522.10536-.51957.29289-.70711.18754-.18753.44189-.29289.70711-.29289h18c.2652 0 .5196.10536.7071.29289.1875.18754.2929.44189.2929.70711v14c0 .2652-.1054.5196-.2929.7071s-.4419.2929-.7071.2929zm5.563-4.3 3.359-3.359c.2089-.2089.3747-.457.4877-.73.1131-.2729.1713-.5655.1713-.861 0-.29548-.0582-.58806-.1713-.86104-.113-.27299-.2788-.52103-.4877-.72996s-.457-.37467-.73-.48774c-.2729-.11308-.5655-.17127-.861-.17127s-.5881.05819-.861.17127c-.273.11307-.5211.27881-.73.48774l-.177.177-.177-.177c-.2089-.20893-.457-.37467-.73-.48774-.2729-.11308-.5655-.17127-.861-.17127-.29548 0-.58806.05819-.86104.17127-.27299.11307-.52103.27881-.72996.48774-.42196.42196-.65901.99426-.65901 1.591 0 .5967.23705 1.169.65901 1.591z" /></svg>