<svg fill="currentColor" height="24" viewBox="0 0 24 24" width="24" xmlns="http://www.w3.org/2000/svg"><path d="m22 12h-2v-7h-16v13.385l1.763-1.385h6.237v2h-5.545l-4.455 3.5v-18.5c0-.26522.10536-.51957.29289-.70711.18754-.18753.44189-.29289.70711-.29289h18c.2652 0 .5196.10536.7071.29289.1875.18754.2929.44189.2929.70711zm-7.855 7.071c-.1945-.7008-.1945-1.4412 0-2.142l-.975-.563 1-1.732.976.563c.5091-.519 1.1501-.8893 1.854-1.071v-1.126h2v1.126c.715.184 1.353.56 1.854 1.071l.976-.563 1 1.732-.975.563c.1945.7008.1945 1.4412 0 2.142l.975.563-1 1.732-.976-.563c-.501.51-1.14.887-1.854 1.071v1.126h-2v-1.126c-.7039-.1817-1.3449-.552-1.854-1.071l-.976.563-1-1.732zm3.855.929c.5304 0 1.0391-.2107 1.4142-.5858s.5858-.8838.5858-1.4142-.2107-1.0391-.5858-1.4142-.8838-.5858-1.4142-.5858-1.0391.2107-1.4142.5858-.5858.8838-.5858 1.4142.2107 1.0391.5858 1.4142.8838.5858 1.4142.5858z" /></svg>