<svg fill="currentColor" height="24" viewBox="0 0 24 24" width="24" xmlns="http://www.w3.org/2000/svg"><path d="m6.455 19-4.455 3.5v-18.5c0-.26522.10536-.51957.29289-.70711.18754-.18753.44189-.29289.70711-.29289h18c.2652 0 .5196.10536.7071.29289.1875.18754.2929.44189.2929.70711v14c0 .2652-.1054.5196-.2929.7071s-.4419.2929-.7071.2929zm1.69-6.929-.975.563 1 1.732.976-.563c.501.51 1.14.887 1.854 1.071v1.126h2v-1.126c.7039-.1817 1.3449-.552 1.854-1.071l.976.563 1-1.732-.975-.563c.1945-.7008.1945-1.4412 0-2.142l.975-.563-1-1.732-.976.563c-.5091-.519-1.1501-.8893-1.854-1.071v-1.126h-2v1.126c-.7039.1817-1.34493.552-1.854 1.071l-.976-.563-1 1.732.975.563c-.19453.7008-.19453 1.4412 0 2.142zm3.855.929c-.5304 0-1.0391-.2107-1.4142-.5858s-.5858-.8838-.5858-1.4142.2107-1.03914.5858-1.41421c.3751-.37508.8838-.58579 1.4142-.58579s1.0391.21071 1.4142.58579c.3751.37507.5858.88381.5858 1.41421s-.2107 1.0391-.5858 1.4142-.8838.5858-1.4142.5858z" /></svg>