<svg fill="currentColor" height="24" viewBox="0 0 24 24" width="24" xmlns="http://www.w3.org/2000/svg"><path d="m6.455 19-4.455 3.5v-18.5c0-.26522.10536-.51957.29289-.70711.18754-.18753.44189-.29289.70711-.29289h18c.2652 0 .5196.10536.7071.29289.1875.18754.2929.44189.2929.70711v14c0 .2652-.1054.5196-.2929.7071s-.4419.2929-.7071.2929zm-2.455-.615 1.763-1.385h14.237v-12h-16zm8.018-3.685-3.359-3.36c-.42196-.422-.65901-.9943-.65901-1.591 0-.29548.05819-.58806.17127-.86104.11307-.27299.27881-.52103.48774-.72996s.45697-.37467.72996-.48774c.27298-.11308.56556-.17127.86104-.17127.5967 0 1.169.23705 1.591.65901l.177.177.177-.177c.2089-.20893.457-.37467.73-.48774.2729-.11308.5655-.17127.861-.17127s.5881.05819.861.17127c.273.11307.5211.27881.73.48774s.3747.45697.4877.72996c.1131.27298.1713.56556.1713.86104 0 .2955-.0582.5881-.1713.861-.113.273-.2788.5211-.4877.73l-3.36 3.359z" /></svg>