<svg fill="currentColor" height="24" viewBox="0 0 24 24" width="24" xmlns="http://www.w3.org/2000/svg"><path d="m7 7v-4c0-.26522.10536-.51957.29289-.70711.18754-.18753.44189-.29289.70711-.29289h13c.2652 0 .5196.10536.7071.29289.1875.18754.2929.44189.2929.70711v13c0 .2652-.1054.5196-.2929.7071s-.4419.2929-.7071.2929h-4v3.993c0 .556-.449 1.007-1.007 1.007h-12.986c-.13228.0001-.26328-.0258-.38552-.0764-.12223-.0505-.23329-.1247-.32683-.2183-.09353-.0935-.1677-.2045-.21826-.3268-.05056-.1222-.07652-.2532-.07639-.3855l.003-12.986c0-.556.449-1.007 1.007-1.007zm2 0h6.993c.556 0 1.007.449 1.007 1.007v6.993h3v-11h-11z" /></svg>