<svg fill="currentColor" height="24" viewBox="0 0 24 24" width="24" xmlns="http://www.w3.org/2000/svg"><path d="m10.9999 20v-7h-1.99998v-3h5.99998v3h-2v7h5v2h-11.99998v-2zm-.99998-17.777v-1.223h3.99998v1.223c1.7154.39167 3.2784 1.27743 4.4959 2.54778s2.036 2.86961 2.3544 4.6001c.3184 1.73052.1228 3.51642-.5628 5.13692-.6855 1.6205-1.8309 3.0046-3.2945 3.9812l-1.11-1.664c1.2499-.8335 2.1985-2.0469 2.7057-3.4611.5071-1.4141.5458-2.9539.1104-4.39169-.4355-1.43782-1.3219-2.69742-2.5284-3.59263-1.2064-.89521-2.6689-1.37853-4.1712-1.37853s-2.96474.48332-4.1712 1.37853-2.0929 2.15481-2.52832 3.59263c-.43542 1.43779-.39671 2.97759.1104 4.39169.50712 1.4142 1.45573 2.6276 2.70564 3.4611l-1.109 1.664c-1.46363-.9766-2.60899-2.3607-3.29453-3.9812-.68553-1.6205-.88118-3.4064-.56276-5.13692.31841-1.73049 1.13694-3.32975 2.3544-4.6001s2.78049-2.15611 4.49589-2.54778z" /></svg>