<svg fill="currentColor" height="24" viewBox="0 0 24 24" width="24" xmlns="http://www.w3.org/2000/svg"><path d="m9.827 21.763c-4.477-.992-7.827-4.986-7.827-9.763 0-1.822.487-3.52999 1.339-5.00199l4.283 7.41899c.48119.8721 1.21194 1.5806 2.09853 2.0346.88657.454 1.88857.6328 2.87747.5134l-2.77 4.798zm2.173.237 4.287-7.425c.4679-.7773.7145-1.6677.713-2.575.0016-1.0821-.3495-2.13526-1-2.99999h5.542c.298.947.458 1.95499.458 2.99999 0 5.523-4.477 10-10 10zm2.572-8.455c-.2687.4479-.6498.8179-1.1054 1.0733-.4557.2554-.9701.3874-1.4925.3829-.5223-.0046-1.0344-.1455-1.4855-.4088-.4512-.2633-.82573-.6398-1.0866-1.0924l-.029-.05c-.25323-.4589-.38182-.9761-.37296-1.5002.00886-.524.15485-1.0366.42345-1.4867.2686-.45.65041-.82187 1.10741-1.07846s.9733-.38897 1.4974-.38395c.5241.00501 1.0378.14725 1.4898.41254s.8266.64437 1.0866 1.09947c.2599.4552.3961.9704.3949 1.4946-.0012.5241-.1396 1.0387-.4016 1.4927zm-9.94-8.30599c.93574-1.02211 2.0742-1.83802 3.34278-2.3957 1.26859-.55767 2.63942-.84488 4.02522-.8433 1.7557-.00072 3.4807.46103 5.0013 1.33877s2.7832 2.14051 3.6607 3.66123h-8.662c-.9796-.00013-1.9376.28743-2.75519.82697-.81759.53955-1.45872 1.30733-1.84381 2.20802z" /></svg>