<svg fill="currentColor" height="24" viewBox="0 0 24 24" width="24" xmlns="http://www.w3.org/2000/svg"><path d="m10.365 19.833 1.93-3.342c-.8527.0561-1.7038-.1318-2.45363-.5418-.74982-.41-1.36736-1.025-1.78037-1.7732l-3.267-5.656c-.52837 1.09449-.80051 2.2949-.7958 3.5103.00472 1.2153.28617 2.4136.82302 3.504.53684 1.0904 1.31497 2.0441 2.27535 2.789.96038.7448 2.07778 1.2611 3.26743 1.5097zm2.225.146c1.2121-.0892 2.3879-.4534 3.4382-1.0649 1.0504-.6116 1.9475-1.4544 2.6234-2.4645s1.1128-2.1609 1.2775-3.3651c.1646-1.2042.0528-2.43-.3271-3.5845h-3.86c.4954.7395.7593 1.6099.758 2.5.0013.8167-.2207 1.6183-.642 2.318l-3.268 5.66zm1.553-6.691.022-.038c.2184-.3783.3338-.8072.3348-1.244.0011-.4367-.1123-.8662-.3289-1.2455s-.5288-.6952-.9055-.91634c-.3766-.22112-.8047-.33969-1.2414-.3439-.4368-.00421-.867.10608-1.2479.31989-.3809.21385-.6991.52365-.92296.89875-.22385.375-.34553.8022-.35293 1.2389-.00739.4367.09976.8678.31079 1.2502l.024.042c.2173.3771.5294.6909.9053.9104.3759.2194.8026.3369 1.2378.3407.4353.0038.864-.1061 1.2437-.3188.3797-.2128.6972-.5211.9212-.8943zm-8.108-6.62 1.929 3.34c.37173-.75298.94673-1.38693 1.65998-1.83015.71322-.44322 1.53632-.67802 2.37602-.67785h6.615c-.7332-1.07897-1.7194-1.96205-2.8725-2.57214-1.1531-.6101-2.438-.92865-3.7425-.92786-1.1263-.00127-2.24014.2359-3.26823.69591-1.0281.46001-1.94716 1.13245-2.69677 1.97309zm5.965 15.332c-5.523 0-10-4.477-10-10s4.477-10 10-10 10 4.477 10 10-4.477 10-10 10z" /></svg>