<svg fill="currentColor" height="24" viewBox="0 0 24 24" width="24" xmlns="http://www.w3.org/2000/svg"><path d="m20 10h3l-4 5-4-5h3v-2c0-.79565-.3161-1.55871-.8787-2.12132s-1.3257-.87868-2.1213-.87868h-4v-2h4c1.3261 0 2.5979.52678 3.5355 1.46447.9377.93768 1.4645 2.20945 1.4645 3.53553zm-7-1c.2652 0 .5196.10536.7071.29289.1875.18754.2929.44189.2929.70711v10c0 .2652-.1054.5196-.2929.7071s-.4419.2929-.7071.2929h-10c-.26522 0-.51957-.1054-.70711-.2929-.18753-.1875-.29289-.4419-.29289-.7071v-10c0-.26522.10536-.51957.29289-.70711.18754-.18753.44189-.29289.70711-.29289z" /></svg>