<svg fill="currentColor" height="24" viewBox="0 0 24 24" width="24" xmlns="http://www.w3.org/2000/svg"><path d="m10 4v-3l5 4-5 4v-3h-2c-.79565 0-1.55871.31607-2.12132.87868s-.87868 1.32567-.87868 2.12132v4h-2v-4c0-1.32608.52678-2.59785 1.46447-3.53553.93768-.93769 2.20945-1.46447 3.53553-1.46447zm-1 7c0-.2652.10536-.5196.29289-.7071.18754-.1875.44189-.2929.70711-.2929h10c.2652 0 .5196.1054.7071.2929s.2929.4419.2929.7071v10c0 .2652-.1054.5196-.2929.7071s-.4419.2929-.7071.2929h-10c-.26522 0-.51957-.1054-.70711-.2929-.18753-.1875-.29289-.4419-.29289-.7071z" /></svg>