<svg fill="currentColor" height="24" viewBox="0 0 24 24" width="24" xmlns="http://www.w3.org/2000/svg"><path d="m21 3c.552 0 1 .448 1 1v16c0 .552-.448 1-1 1h-18c-.552 0-1-.448-1-1v-16c0-.552.448-1 1-1zm-1 2h-16v14h16zm-11 3c1.105 0 2.105.448 2.829 1.173l-1.414 1.414c-.362-.363-.862-.587-1.415-.587-1.105 0-2 .895-2 2s.895 2 2 2c.553 0 1.053-.224 1.414-.586l1.414 1.414c-.724.724-1.724 1.172-2.828 1.172-2.208 0-4-1.792-4-4s1.792-4 4-4zm7 0c1.105 0 2.105.448 2.829 1.173l-1.414 1.414c-.362-.363-.862-.587-1.415-.587-1.105 0-2 .895-2 2s.895 2 2 2c.552 0 1.052-.224 1.414-.586l1.414 1.414c-.724.724-1.724 1.172-2.828 1.172-2.208 0-4-1.792-4-4s1.792-4 4-4z" /></svg>