<svg fill="currentColor" height="24" viewBox="0 0 24 24" width="24" xmlns="http://www.w3.org/2000/svg"><path d="m21 3c.552 0 1 .448 1 1v16c0 .552-.448 1-1 1h-18c-.552 0-1-.448-1-1v-16c0-.552.448-1 1-1zm-12 5c-2.208 0-4 1.792-4 4s1.792 4 4 4c1.1 0 2.1-.45 2.828-1.172l-1.414-1.414c-.361.362-.861.586-1.414.586-1.105 0-2-.895-2-2s.895-2 2-2c.55 0 1.048.22 1.415.587l1.414-1.414c-.724-.725-1.724-1.173-2.829-1.173zm7 0c-2.208 0-4 1.792-4 4s1.792 4 4 4c1.104 0 2.104-.448 2.828-1.172l-1.414-1.414c-.362.362-.862.586-1.414.586-1.105 0-2-.895-2-2s.895-2 2-2c.553 0 1.053.224 1.415.587l1.414-1.414c-.724-.725-1.724-1.173-2.829-1.173z" /></svg>