<svg fill="currentColor" height="24" viewBox="0 0 24 24" width="24" xmlns="http://www.w3.org/2000/svg"><path d="m3.51487 2.10001 19.09203 19.09199-1.415 1.415-2.014-2.015c-.6943.2704-1.433.4088-2.178.408h-10.00003c-1.41677.0009-2.78815-.4996-3.87131-1.4128-1.08316-.9133-1.80821-2.1803-2.04678-3.5769-.238565-1.3965.02475-2.8324.74333-4.0534.71857-1.2211 1.84604-2.14841 3.18276-2.61789-.04279-.86885.07693-1.73806.353-2.563l-3.261-3.262zm3.485 6.9c0 .081.002.163.006.243l.07 1.48799-1.404.494c-.88949.3146-1.63924.9333-2.1169 1.7469-.47765.8137-.65248 1.7699-.49364 2.6999.15885.93.64117 1.774 1.36181 2.383.72064.6089 1.63326.9437 2.57673.9452h10.00003c.186 0 .369-.013.548-.037l-10.51803-10.51799c-.02.182-.03.367-.03.555zm5.00003-7c.9478-.00003 1.8857.19243 2.757.5657.8712.37327 1.6575.91958 2.3113 1.60582.6538.68623 1.1614 1.49809 1.4921 2.38635.3306.88826.4775 1.83443.4316 2.78113.8305.29255 1.5864.76419 2.2143 1.38159.6278.6173 1.1122 1.3653 1.4187 2.1907.3065.8255.4277 1.7082.3549 2.5857-.0727.8776-.3376 1.7283-.7759 2.492l-1.493-1.493c.2942-.7279.3677-1.5264.2112-2.2958-.1565-.7695-.536-1.4758-1.0913-2.031-.5553-.5551-1.2617-.9345-2.0311-1.0909-.7695-.1563-1.5679-.0827-2.2958.2117l-1.494-1.49499c.881-.505 1.901-.795 2.99-.795 0-.91554-.2514-1.8135-.7268-2.59596-.4753-.78247-1.1564-1.41939-1.9689-1.84133s-1.7253-.61269-2.6388-.55145-1.7926.37212-2.54153.89874l-1.43-1.43c1.22918-.96147 2.74543-1.48262 4.30603-1.48z" /></svg>