<svg fill="currentColor" height="24" viewBox="0 0 24 24" width="24" xmlns="http://www.w3.org/2000/svg"><path d="m16.9999 21h-10.00003c-1.41677.0009-2.78815-.4996-3.87131-1.4129-1.08316-.9132-1.80821-2.1803-2.04678-3.5768-.238565-1.3966.02475-2.8325.74333-4.0535.71857-1.221 1.84604-2.14836 3.18276-2.61784-.04528-.94634.10202-1.89202.43296-2.77976.33095-.88774.83867-1.69906 1.49239-2.38482.65372-.68575 1.43985-1.23166 2.31076-1.60466.87092-.373 1.80852-.56533 2.75592-.56533s1.885.19233 2.7559.56533 1.657.91891 2.3107 1.60466c.6538.68576 1.1615 1.49708 1.4924 2.38482.331.88774.4783 1.83342.433 2.77976 1.3367.46948 2.4642 1.39684 3.1827 2.61784.7186 1.221.9819 2.6569.7434 4.0535-.2386 1.3965-.9637 2.6636-2.0468 3.5768-1.0832.9133-2.4546 1.4138-3.8713 1.4129z" /></svg>