<svg fill="currentColor" height="24" viewBox="0 0 24 24" width="24" xmlns="http://www.w3.org/2000/svg"><path d="m9.00036 20.986c-1.45595-.0863-2.86522-.5457-4.09226-1.3341s-2.23056-1.8793-2.91405-3.1677c-.68349-1.2885-1.023949-2.7311-.98863-4.1892.03533-1.4581.44524-2.88253 1.19031-4.13636.74508-1.25384 1.80025-2.29486 3.06403-3.02294 1.26377-.72808 2.69363-1.11872 4.15205-1.13436 1.45839-.01563 2.89629.34427 4.17539 1.04509s2.3564 1.71898 3.1282 2.95655c1.6624.05311 3.2413.7415 4.4115 1.92348 1.1703 1.18194 1.8429 2.76764 1.8794 4.43054s-.5659 3.2765-1.6831 4.5087-2.6643 1.9893-4.3228 2.1153v.019h-8.00004z" /></svg>