<svg fill="currentColor" height="24" viewBox="0 0 24 24" width="24" xmlns="http://www.w3.org/2000/svg"><path d="m16.9999 21h-10.00003c-1.41677.0009-2.78815-.4996-3.87131-1.4129-1.08316-.9132-1.80821-2.1803-2.04678-3.5768-.238565-1.3966.02475-2.8325.74333-4.0535.71857-1.221 1.84604-2.14836 3.18276-2.61784-.04528-.94634.10202-1.89202.43296-2.77976.33095-.88774.83867-1.69906 1.49239-2.38482.65372-.68575 1.43985-1.23166 2.31076-1.60466.87092-.373 1.80852-.56533 2.75592-.56533s1.885.19233 2.7559.56533 1.657.91891 2.3107 1.60466c.6538.68576 1.1615 1.49708 1.4924 2.38482.331.88774.4783 1.83342.433 2.77976 1.3367.46948 2.4642 1.39684 3.1827 2.61784.7186 1.221.9819 2.6569.7434 4.0535-.2386 1.3965-.9637 2.6636-2.0468 3.5768-1.0832.9133-2.4546 1.4138-3.8713 1.4129zm-10.00003-2h10.00003c.5426-.001 1.0794-.1124 1.5776-.3274.4983-.215.9476-.5291 1.3206-.9232.373-.3942.6618-.8601.8491-1.3694.1872-.5093.2688-1.0514.2399-1.5933-.029-.5419-.1679-1.0722-.4082-1.5587-.2404-.4865-.5773-.919-.9901-1.2712-.4129-.3522-.8931-.6167-1.4114-.7774s-1.0639-.2143-1.6035-.1574c.336-.7612.4768-1.59414.4096-2.42344s-.3403-1.62872-.7945-2.32581-1.0752-1.26981-1.8067-1.66625-1.5504-.60407-2.3824-.60407-1.6509.20763-2.38242.60407c-.7315.39644-1.35251.96916-1.80674 1.66625s-.72732 1.49651-.79453 2.32581c-.0672.8293.07361 1.66224.40966 2.42344-.53966-.0569-1.08525-.0033-1.60355.1574s-.99849.4252-1.41133.7774-.74971.7847-.9901 1.2712-.37928 1.0168-.40821 1.5587c-.02894.5419.05269 1.084.23991 1.5933.18721.5093.47611.9752.8491 1.3694.37299.3941.82227.7082 1.32052.9232.49824.215 1.03502.3264 1.57766.3274z" /></svg>