<svg fill="currentColor" height="24" viewBox="0 0 24 24" width="24" xmlns="http://www.w3.org/2000/svg"><path d="m16.9999 21h-10.00003c-1.41677.0009-2.78815-.4996-3.87131-1.4128s-1.80821-2.1803-2.04678-3.5769c-.238565-1.3965.02475-2.8324.74333-4.0534.71857-1.221 1.84604-2.1484 3.18276-2.61788-.04528-.94634.10202-1.89202.43296-2.77976.33095-.88774.83867-1.69906 1.49239-2.38482.65372-.68575 1.43985-1.23166 2.31076-1.60466.87092-.373 1.80852-.56532 2.75592-.56532s1.885.19232 2.7559.56532 1.657.91891 2.3107 1.60466c.6538.68576 1.1615 1.49708 1.4924 2.38482.331.88774.4783 1.83342.433 2.77976 1.3367.46948 2.4642 1.39688 3.1827 2.61788.7186 1.221.9819 2.6569.7434 4.0534-.2386 1.3966-.9637 2.6637-2.0468 3.5769-1.0832.9132-2.4546 1.4137-3.8713 1.4128zm0-11.99998c.0002-.66699-.133-1.3273-.3918-1.94203s-.638-1.17147-1.1153-1.63743c-.4772-.46596-1.0429-.83172-1.6636-1.07575-.6208-.24403-1.2841-.36139-1.9509-.34518-.6668.01622-1.3236.16568-1.93173.43959-.60816.27391-1.15537.66673-1.60941 1.15533s-.80573 1.06311-1.03436 1.6897c-.22863.62658-.32959 1.29258-.29693 1.95877l.07 1.48798-1.404.494c-.88949.3146-1.63924.9333-2.1169 1.7469-.47765.8137-.65248 1.7699-.49364 2.6999.15885.93.64117 1.774 1.36181 2.383s1.63326.9437 2.57673.9452h10.00003c.7363-.0002 1.4583-.2037 2.0864-.588s1.1379-.9346 1.4733-1.5901.4833-1.3909.4275-2.1251c-.0559-.7343-.3133-1.4388-.7439-2.0361s-1.0178-1.0641-1.6968-1.3491c-.6789-.2849-1.4234-.3769-2.1513-.2658s-1.411.421-1.9741.8955-.9843 1.0952-1.2171 1.7937l-1.898-.633c.3988-1.1946 1.1633-2.2335 2.1851-2.9697 1.0219-.73614 2.2494-1.13227 3.5089-1.13228z" /></svg>