<svg fill="currentColor" height="24" viewBox="0 0 24 24" width="24" xmlns="http://www.w3.org/2000/svg"><path d="m14 18v-3.993h-11.92598c-.73669-1.8797-.73537-3.9686.0037-5.84744.73907-1.87887 2.16123-3.4088 3.9812-4.28291s3.90314-1.02775 5.83168-.4301c1.9285.59765 3.5597 1.90239 4.5664 3.6525.7523-.1447 1.5266-.13064 2.2731.04128.7466.17191 1.449.4979 2.0622.95706.6132.45915 1.1238 1.04136 1.499 1.70931.3751.6679.6066 1.4069.6796 2.1695.0729.7626-.0142 1.5321-.2559 2.259-.2417.727-.6326 1.3954-1.1477 1.9626-.515.5671-1.1429 1.0203-1.8433 1.3307s-1.4579.471-2.224.4715h-3.499zm-7.99998 2h9.99998v2h-9.99998zm-4-4h9.99998v2h-9.99998z" /></svg>