<svg fill="currentColor" height="24" viewBox="0 0 24 24" width="24" xmlns="http://www.w3.org/2000/svg"><path d="m14 18v-2h3.5c.577 0 1.1451-.1428 1.6536-.4155.5086-.2727.9418-.6669 1.2611-1.1476.3193-.4806.5149-1.0327.5692-1.6072.0544-.5745-.0341-1.1535-.2577-1.6854-.2235-.532-.5751-1.0005-1.0234-1.36375-.4484-.36325-.9796-.61001-1.5464-.71831-.5668-.10831-1.1515-.0748-1.7022.09754s-1.0503.47817-1.4542.89022v-.05c0-1.59127-.6321-3.11739-1.7574-4.24261-1.1252-1.12522-2.6513-1.75736-4.2426-1.75736s-3.11742.63214-4.24264 1.75736-1.75736 2.65134-1.75736 4.24261v.007h-2v-.007c-.001511-1.86681.6499-3.6754 1.84144-5.11254 1.19153-1.43714 2.84815-2.41231 4.68296-2.75665 1.83482-.34434 3.7323-.03616 5.3638.87118 1.6315.90733 2.8944 2.35668 3.5698 4.09704.7523-.1447 1.5266-.13063 2.2732.04131s1.449.49797 2.0623.95718c.6132.45921 1.1238 1.04148 1.4989 1.70949.3752.66799.6066 1.40699.6795 2.16969.0729.7626-.0144 1.5321-.2561 2.2591-.2418.727-.6328 1.3954-1.148 1.9625-.5151.5671-1.1431 1.0203-1.8436 1.3305-.7005.3103-1.4581.4708-2.2242.4712zm-8 2h10v2h-10zm0-8h8v2h-8zm-4 4h10v2h-10z" /></svg>