<svg fill="currentColor" height="24" viewBox="0 0 24 24" width="24" xmlns="http://www.w3.org/2000/svg"><path d="m9.49993 6c-1.72391 0-3.37721.68482-4.5962 1.90381-1.21898 1.21898-1.9038 2.87229-1.9038 4.59619s.68482 3.3772 1.9038 4.5962c1.21899 1.219 2.87229 1.9038 4.5962 1.9038h6.99997c.6312-.0006 1.2552-.134 1.8315-.3915.5762-.2575 1.0919-.6333 1.5134-1.1031.4216-.4697.7396-1.0229.9334-1.6236s.2591-1.2354.1916-1.863-.2663-1.2339-.5834-1.7796c-.3171-.5458-.7454-1.0187-1.2572-1.3881s-1.0956-.627-1.7135-.756c-.6178-.12908-1.2559-.12672-1.8728.0069-.4806-1.21026-1.3137-2.2483-2.3911-2.97967s-2.3497-1.12236-3.65187-1.12233zm6.99997 15h-6.99997c-1.47977-.0004-2.93381-.387-4.21829-1.1217-1.28449-.7347-2.35491-1.7921-3.1054-3.0674s-1.15503-2.7245-1.17362-4.2041c-.018582-1.4797.34943-2.93855 1.06765-4.23234.71821-1.29378 1.76174-2.37765 3.02737-3.1444 1.26562-.76675 2.70949-1.1898 4.18878-1.22733 1.47928-.03752 2.94278.3118 4.24558 1.01339 1.3029.7016 2.4 1.73117 3.1829 2.98688 1.7077.05168 3.3264.77361 4.5059 2.0096 1.1795 1.236 1.8249 2.8867 1.7966 4.5949-.0282 1.7083-.7279 3.3367-1.9476 4.533s-2.8614 1.8643-4.5699 1.8595z" /></svg>