<svg fill="currentColor" height="24" viewBox="0 0 24 24" width="24" xmlns="http://www.w3.org/2000/svg"><path d="m3.51487 2.10001 19.09203 19.09199-1.415 1.415-2.014-2.015c-.6943.2704-1.433.4088-2.178.408h-10.00003c-1.41677.0009-2.78815-.4996-3.87131-1.4128-1.08316-.9133-1.80821-2.1803-2.04678-3.5769-.238565-1.3965.02475-2.8324.74333-4.0534.71857-1.2211 1.84604-2.14841 3.18276-2.61789-.04279-.86885.07693-1.73806.353-2.563l-3.261-3.262zm13.48503 6.9c1.0519.00064 2.0852.27769 2.9963.80339.9112.5257 1.6682 1.2816 2.1952 2.192.527.9103.8056 1.9432.8078 2.9951s-.2721 2.086-.7953 2.9985l-8.194-8.19299c.88-.506 1.9-.796 2.99-.796zm-5-7c1.5423.00013 3.0414.50939 4.2646 1.44875 1.2233.93935 2.1022 2.25624 2.5004 3.74625-1.0585-.23762-2.1541-.25822-3.2208-.06056-1.0667.19765-2.0822.60946-2.9852 1.21056l-4.86503-4.865c1.22918-.96147 2.74543-1.48262 4.30603-1.48z" /></svg>