<svg fill="currentColor" height="24" viewBox="0 0 24 24" width="24" xmlns="http://www.w3.org/2000/svg"><path d="m16.9999 7c-1.6287-.00014-3.2187.49666-4.5576 1.42404s-2.3629 2.24116-2.93543 3.76596l1.87403.703c.495-1.3146 1.4354-2.4139 2.6574-3.10658 1.2221-.69266 2.6484-.93474 4.0305-.6841 1.3822.25065 2.6326.97818 3.5337 2.05578.901 1.0777 1.3955 2.4372 1.3974 3.8419 0 1.5913-.6322 3.1174-1.7574 4.2426-1.1252 1.1253-2.6513 1.7574-4.2426 1.7574h-10.00003c-1.41677.0009-2.78815-.4996-3.87131-1.4128-1.08316-.9133-1.80821-2.1803-2.04678-3.5769-.238565-1.3965.02475-2.8324.74333-4.0534.71857-1.2211 1.84604-2.14842 3.18276-2.6179-.08565-1.72738.47121-3.42532 1.56322-4.76648 1.09202-1.34116 2.64187-2.23057 4.35081-2.49678 1.7088-.2662 3.4558.10966 4.904 1.05511s2.4952 2.39356 2.939 4.06515c-.5793-.13041-1.1713-.19615-1.765-.196z" /></svg>