<svg fill="currentColor" height="24" viewBox="0 0 24 24" width="24" xmlns="http://www.w3.org/2000/svg"><path d="m12 10.2021-2.697 1.798 2.697 1.7981 2.697-1.7981zm4.5.5961 2.697-1.79805-6.197-4.131v3.596zm3.5.0699-1.697 1.132 1.697 1.131v-2.261zm-3.5 2.334-3.5 2.333v3.596l6.197-4.131zm-5.5-4.73695v-3.596l-6.197 4.131 2.697 1.79805zm-6.197 6.53495 6.197 4.131v-3.596l-3.5-2.333zm.894-3-1.697-1.1309v2.2619zm-3.697-2.99995c-.00002-.16459.04058-.32665.11821-.47178.07762-.14514.18987-.26887.32679-.36022l9-6c.1643-.10964.3575-.16815.555-.16815s.3907.05851.555.16815l9 6c.1369.09135.2492.21508.3268.36022.0776.14513.1182.30719.1182.47178v5.99995c0 .1646-.0406.3267-.1182.4718-.0776.1452-.1899.2689-.3268.3602l-9 6c-.1643.1097-.3575.1682-.555.1682s-.3907-.0585-.555-.1682l-9-6c-.13692-.0913-.24917-.215-.32679-.3602-.07763-.1451-.11823-.3072-.11821-.4718z" /></svg>