<svg fill="currentColor" height="24" viewBox="0 0 24 24" width="24" xmlns="http://www.w3.org/2000/svg"><path d="m16.5 13.2021-3.5 2.333v3.596l6.197-4.131zm-1.803-1.202-2.697-1.798-2.697 1.798 2.697 1.7981zm5.303-1.1309-1.697 1.1309 1.697 1.131v-2.261zm-.803-1.86905-6.197-4.131v3.596l3.5 2.33305zm-11.697 1.79805 3.5-2.33305v-3.596l-6.197 4.131zm-2.697 4.2019 6.197 4.131v-3.596l-3.5-2.333zm-.803-1.869 1.697-1.131-1.697-1.1309zm-2-4.13095c-.00002-.16459.04058-.32665.11821-.47178.07762-.14514.18987-.26887.32679-.36022l9-6c.1643-.10964.3575-.16815.555-.16815s.3907.05851.555.16815l9 6c.1369.09135.2492.21508.3268.36022.0776.14513.1182.30719.1182.47178v5.99995c0 .1646-.0406.3267-.1182.4718-.0776.1452-.1899.2689-.3268.3602l-9 6c-.1643.1097-.3575.1682-.555.1682s-.3907-.0585-.555-.1682l-9-6c-.13692-.0913-.24917-.215-.32679-.3602-.07763-.1451-.11823-.3072-.11821-.4718z" /></svg>