<svg fill="currentColor" height="24" viewBox="0 0 24 24" width="24" xmlns="http://www.w3.org/2000/svg"><path d="m14 2c1.8299-.00087 3.6049.62567 5.0288 1.77513 1.4239 1.14945 2.4107 2.75235 2.7958 4.54134.3851 1.78903.1453 3.65593-.6796 5.28943-.8248 1.6336-2.1848 2.9349-3.853 3.6871-.5333 1.1789-1.3445 2.2109-2.3642 3.0074-1.0196.7966-2.2173 1.3339-3.4902 1.5659-1.2729.2321-2.58314.1519-3.81827-.2336s-2.35833-1.0649-3.27325-1.9798c-.91493-.9149-1.59428-2.0381-1.9798-3.2733-.38552-1.2351-.4657-2.5453-.23366-3.8182.23204-1.273.76937-2.4706 1.56592-3.49026.79654-1.01966 1.82851-1.8309 3.00742-2.36414.63415-1.40311 1.65959-2.5935 2.95335-3.42839 1.29379-.8349 2.80089-1.27885 4.34069-1.27861zm-3 7h-2.00004v1c-.64988-.00158-1.27484.25-1.74241.7013-.46757.4514-.741 1.0671-.76232 1.7167-.02133.6495.21112 1.2818.64808 1.7629.43695.481 1.04406.773 1.69265.8141l.164.005h2.00004l.09.008c.1152.0209.2195.0816.2946.1715s.1163.2033.1163.3205-.0412.2306-.1163.3205-.1794.1506-.2946.1715l-.09.008h-4.00004v2h2v1h2.00004v-1c.6499.0016 1.2748-.25 1.7424-.7013.4675-.4514.741-1.0671.7623-1.7167.0213-.6495-.2111-1.2818-.6481-1.7629-.4369-.481-1.044-.773-1.6926-.8141l-.164-.005h-2.00004l-.09-.008c-.11528-.0209-.21957-.0816-.29467-.1715s-.11624-.2033-.11624-.3205.04114-.2306.11624-.3205.17939-.1506.29467-.1715l.09-.008h4.00004v-2h-2zm3-5c-.8474-.00099-1.6852.17794-2.4582.52496s-1.4635.85422-2.02584 1.48804c1.13024-.06861 2.26224.1035 3.32104.50495s2.0203 1.0231 2.8209 1.82383c.8007.80074 1.4222 1.76232 1.8235 2.82112.4013 1.0589.5733 2.1908.5046 3.3211.9092-.8084 1.5512-1.8741 1.8408-3.0557s.2132-2.42339-.2192-3.56058-1.2002-2.11608-2.2017-2.80684c-1.0015-.69075-2.1893-1.06074-3.4059-1.06088z" /></svg>