<svg fill="currentColor" height="24" viewBox="0 0 24 24" width="24" xmlns="http://www.w3.org/2000/svg"><path d="m14 2c1.8299-.00087 3.6049.62567 5.0288 1.77513 1.4239 1.14945 2.4107 2.75235 2.7958 4.54134.3851 1.78903.1453 3.65593-.6796 5.28943-.8248 1.6336-2.1848 2.9349-3.853 3.6871-.5333 1.1789-1.3445 2.2109-2.3642 3.0074-1.0196.7966-2.2173 1.3339-3.4902 1.5659-1.2729.2321-2.58314.1519-3.81827-.2336s-2.35833-1.0649-3.27325-1.9798c-.91493-.9149-1.59428-2.0381-1.9798-3.2733-.38552-1.2351-.4657-2.5453-.23366-3.8182.23204-1.273.76937-2.4706 1.56592-3.49026.79654-1.01966 1.82851-1.8309 3.00742-2.36414.63415-1.40311 1.65959-2.5935 2.95335-3.42839 1.29379-.8349 2.80089-1.27885 4.34069-1.27861zm-4.00004 6c-.78793 0-1.56814.1552-2.2961.45672-.72795.30153-1.38939.74349-1.94654 1.30064-.55715.55714-.9991 1.21854-1.30063 1.94654s-.45673 1.5082-.45673 2.2961.1552 1.5681.45673 2.2961.74348 1.3894 1.30063 1.9465c.55715.5572 1.21859.9991 1.94654 1.3007.72796.3015 1.50817.4567 2.2961.4567 1.59134 0 3.11744-.6321 4.24264-1.7574 1.1252-1.1252 1.7574-2.6513 1.7574-4.2426s-.6322-3.1174-1.7574-4.24264c-1.1252-1.12522-2.6513-1.75736-4.24264-1.75736zm1.00004 1v1h2v2h-4.00004c-.12494-.0002-.24545.0463-.33778.1305s-.1498.1999-.16109.3243c-.01129.1245.02442.2486.10009.348.07568.0995.18584.1669.30878.1892l.09.008h2.00004c.663 0 1.2989.2634 1.7677.7322.4689.4689.7323 1.1048.7323 1.7678s-.2634 1.2989-.7323 1.7678c-.4688.4688-1.1047.7322-1.7677.7322v1h-2.00004v-1h-2v-2h4.00004c.1249.0002.2454-.0463.3377-.1305.0924-.0842.1498-.1999.1611-.3243.0113-.1245-.0244-.2486-.1001-.348-.0756-.0995-.1858-.1669-.3087-.1892l-.09-.008h-2.00004c-.66304 0-1.29892-.2634-1.76776-.7322-.46884-.4689-.73224-1.1048-.73224-1.7678s.2634-1.2989.73224-1.7678c.46884-.4688 1.10472-.7322 1.76776-.7322v-1zm3-5c-.8474-.00099-1.6852.17794-2.4582.52496s-1.4635.85422-2.02584 1.48804c1.13024-.06861 2.26224.1035 3.32104.50495s2.0203 1.0231 2.8209 1.82383c.8007.80074 1.4222 1.76232 1.8235 2.82112.4013 1.0589.5733 2.1908.5046 3.3211.9092-.8084 1.5512-1.8741 1.8408-3.0557s.2132-2.42339-.2192-3.56058-1.2002-2.11608-2.2017-2.80684c-1.0015-.69075-2.1893-1.06074-3.4059-1.06088z" /></svg>