<svg fill="currentColor" height="24" viewBox="0 0 24 24" width="24" xmlns="http://www.w3.org/2000/svg"><path d="m21 21h-18c-.26522 0-.51957-.1054-.70711-.2929-.18753-.1875-.29289-.4419-.29289-.7071v-7.513c-.00002-.1429.03059-.2841.08976-.4142.05916-.13.14552-.2459.25324-.3398l3.657-3.189v-4.544c0-.26522.10536-.51957.29289-.70711.18754-.18753.44189-.29289.70711-.29289h14c.2652 0 .5196.10536.7071.29289.1875.18754.2929.44189.2929.70711v16c0 .2652-.1054.5196-.2929.7071s-.4419.2929-.7071.2929zm-12-2h3v-6.058l-4-3.488-4 3.488v6.058h3v-4h2zm5 0h6v-14h-12v2.127c.234 0 .469.082.657.247l5 4.359c.1077.0939.1941.2098.2532.3398.0592.1301.0898.2713.0898.4142zm2-8h2v2h-2zm0 4h2v2h-2zm0-8h2v2h-2zm-4 0h2v2h-2z" /></svg>