<svg fill="currentColor" height="24" viewBox="0 0 24 24" width="24" xmlns="http://www.w3.org/2000/svg"><path d="m10 8h4v-1.5c0-.69223.2053-1.36892.5899-1.94449.3845-.57558.9312-1.02418 1.5707-1.28909.6396-.2649 1.3433-.33422 2.0222-.19917.679.13505 1.3026.46839 1.7921.95788.4895.48948.8228 1.11312.9579 1.79206.135.67893.0657 1.38266-.1992 2.0222-.2649.63955-.7135 1.18617-1.2891 1.57076-.5756.38458-1.2523.58985-1.9445.58985h-1.5v4h1.5c.6922 0 1.3689.2053 1.9445.5899.5756.3845 1.0242.9312 1.2891 1.5707.2649.6396.3342 1.3433.1992 2.0222-.1351.679-.4684 1.3026-.9579 1.7921s-1.1131.8228-1.7921.9579c-.6789.135-1.3826.0657-2.0222-.1992-.6395-.2649-1.1862-.7135-1.5707-1.2891-.3846-.5756-.5899-1.2523-.5899-1.9445v-1.5h-4v1.5c0 .6922-.20527 1.3689-.58985 1.9445-.38459.5756-.93121 1.0242-1.57076 1.2891-.63954.2649-1.34327.3342-2.0222.1992-.67894-.1351-1.30258-.4684-1.79206-.9579-.48949-.4895-.82283-1.1131-.95788-1.7921-.13505-.6789-.06573-1.3826.19917-2.0222.26491-.6395.71351-1.1862 1.28909-1.5707.57557-.3846 1.25226-.5899 1.94449-.5899h1.5v-4h-1.5c-.69223 0-1.36892-.20527-1.94449-.58985-.57558-.38459-1.02418-.93121-1.28909-1.57076-.2649-.63954-.33422-1.34327-.19917-2.0222.13505-.67894.46839-1.30258.95788-1.79206.48948-.48949 1.11312-.82283 1.79206-.95788.67893-.13505 1.38266-.06573 2.0222.19917.63955.26491 1.18617.71351 1.57076 1.28909.38458.57557.58985 1.25226.58985 1.94449zm-2 0v-1.5c0-.29667-.08797-.58668-.25279-.83335-.16483-.24668-.39909-.43894-.67318-.55247s-.57569-.14323-.86666-.08536c-.29098.05788-.55825.20074-.76803.41052s-.35264.47705-.41052.76803c-.05787.29097-.02817.59257.08536.86666s.30579.50835.55247.67318c.24667.16482.53668.25279.83335.25279zm0 8h-1.5c-.29667 0-.58668.088-.83335.2528-.24668.1648-.43894.3991-.55247.6732s-.14323.5757-.08536.8666c.05788.291.20074.5583.41052.7681.20978.2097.47705.3526.76803.4105.29097.0579.59257.0282.86666-.0854.27409-.1135.50835-.3058.67318-.5524.16482-.2467.25279-.5367.25279-.8334zm8-8h1.5c.2967 0 .5867-.08797.8334-.25279.2466-.16483.4389-.39909.5524-.67318.1136-.27409.1433-.57569.0854-.86666-.0579-.29098-.2008-.55825-.4105-.76803-.2098-.20978-.4771-.35264-.7681-.41052-.2909-.05787-.5925-.02817-.8666.08536s-.5084.30579-.6732.55247c-.1648.24667-.2528.53668-.2528.83335zm0 8v1.5c0 .2967.088.5867.2528.8334.1648.2466.3991.4389.6732.5524.2741.1136.5757.1433.8666.0854.291-.0579.5583-.2008.7681-.4105.2097-.2098.3526-.4771.4105-.7681.0579-.2909.0282-.5925-.0854-.8666-.1135-.2741-.3058-.5084-.5524-.6732-.2467-.1648-.5367-.2528-.8334-.2528zm-6-6v4h4v-4z" /></svg>