<svg fill="currentColor" height="24" viewBox="0 0 24 24" width="24" xmlns="http://www.w3.org/2000/svg"><path d="m10.9998 4.126v-2.126h2v2.126c.6857.17747 1.3119.53373 1.8149 1.0324.5029.49867.8646 1.12188 1.0479 1.806s.1818 1.40465-.0044 2.08799c-.1862.68335-.5504 1.30501-1.0554 1.80161l6.063 10.502-1.732 1-6.063-10.501c-.7008.1945-1.4413.1945-2.142 0l-6.06301 10.501-1.732-1 6.063-10.502c-.50504-.4966-.86924-1.11826-1.05543-1.80161-.1862-.68334-.1877-1.40387-.00437-2.08799.18334-.68412.54494-1.30733 1.0479-1.806.50295-.49867 1.12921-.85493 1.81491-1.0324zm1 4.874c.2652 0 .5196-.10536.7071-.29289.1875-.18754.2929-.44189.2929-.70711s-.1054-.51957-.2929-.70711c-.1875-.18753-.4419-.29289-.7071-.29289s-.5196.10536-.7071.29289c-.1876.18754-.2929.44189-.2929.70711s.1053.51957.2929.70711c.1875.18753.4419.29289.7071.29289z" /></svg>