<svg fill="currentColor" height="24" viewBox="0 0 24 24" width="24" xmlns="http://www.w3.org/2000/svg"><g ><path d="m19.3536 9.35355-3 3.00005-.7072-.7072 3-2.99995z"/><path clip-rule="evenodd" d="m12 16.4722c-1.0615.9501-2.46329 1.5278-4 1.5278-3.31371 0-6-2.6863-6-6 0-3.31371 2.68629-6 6-6 1.53671 0 2.9385.57771 4 1.52779 1.0615-.95008 2.4633-1.52779 4-1.52779 3.3137 0 6 2.68629 6 6 0 3.3137-2.6863 6-6 6-1.5367 0-2.9385-.5777-4-1.5278zm.6876-.7267c.8821.7806 2.0419 1.2545 3.3124 1.2545 2.7614 0 5-2.2386 5-5 0-2.76142-2.2386-5-5-5-1.2705 0-2.4303.47387-3.3124 1.2545.8213 1.0265 1.3124 2.3287 1.3124 3.7455s-.4911 2.719-1.3124 3.7455zm-1.334-6.39191-3.00001 3.00001-.70711-.7071 3.00002-3.00002z" fill-rule="evenodd"/></g></svg>