<svg fill="currentColor" height="24" viewBox="0 0 24 24" width="24" xmlns="http://www.w3.org/2000/svg"><g ><path d="m19.7885 8.81806-3.5355 3.53554-.7071-.7071 3.5355-3.53555z"/><path clip-rule="evenodd" d="m12 17.7453c-1.1338.7909-2.51275 1.2547-4 1.2547-3.86599 0-7-3.134-7-7 0-3.86599 3.13401-7 7-7 1.48725 0 2.8662.46382 4 1.25469 1.1338-.79088 2.5128-1.25469 4-1.25469 3.866 0 7 3.13401 7 7 0 3.866-3.134 7-7 7-1.4872 0-2.8662-.4638-4-1.2547zm.8119-.6614c.9237.5804 2.0167.9161 3.1881.9161 3.3137 0 6-2.6863 6-6 0-3.31371-2.6863-6-6-6-1.1714 0-2.2644.3357-3.1881.91614 1.3475 1.27586 2.1881 3.08169 2.1881 5.08386 0 2.0022-.8406 3.808-2.1881 5.0839zm-.9228-8.26584-3.53551 3.53554-.70711-.7071 3.53552-3.53555z" fill-rule="evenodd"/></g></svg>