<svg fill="currentColor" height="24" viewBox="0 0 24 24" width="24" xmlns="http://www.w3.org/2000/svg"><path d="m16.3302 13.5c.8327-.6545 1.5058-1.4897 1.9684-2.4425.4625-.9528.7024-1.99834.7016-3.0575h2c.001 1.41043-.33 2.8013-.9662 4.0601-.6361 1.2588-1.5597 2.3502-2.6958 3.1859l2.528 4.378c.2652.4594.337 1.0053.1998 1.5176-.1373.5123-.4725.9492-.9318 1.2144l-3.527-6.108c-1.1374.4976-2.3656.7536-3.607.752-1.2415.0016-2.4697-.2544-3.60704-.752l-3.527 6.108c-.45935-.2652-.79453-.7021-.9318-1.2144-.13728-.5123-.06541-1.0582.1998-1.5176l5.063-8.77c-.50504-.4966-.86925-1.11826-1.05544-1.80161-.18619-.68334-.18769-1.40387-.00436-2.08799s.54494-1.30733 1.04789-1.806c.50296-.49867 1.12925-.85493 1.81495-1.0324v-2.126h2v2.126c.6856.17747 1.3119.53373 1.8149 1.0324.5029.49867.8645 1.12188 1.0479 1.806.1833.68412.1818 1.40465-.0044 2.08799-.1862.68335-.5504 1.30501-1.0554 1.80161zm-1.73 1.002-1.528-2.647c-.7008.1945-1.4413.1945-2.142 0l-1.52804 2.647c.80404.321 1.68004.498 2.59904.498.918 0 1.795-.177 2.599-.498zm-2.6-4.502c.5304 0 1.0391-.21071 1.4142-.58579.375-.37507.5858-.88378.5858-1.41421s-.2108-1.03914-.5858-1.41421c-.3751-.37508-.8838-.58579-1.4142-.58579-.5305 0-1.0392.21071-1.4143.58579-.375.37507-.5857.88378-.5857 1.41421s.2107 1.03914.5857 1.41421c.3751.37508.8838.58579 1.4143.58579z" /></svg>