<svg fill="currentColor" height="24" viewBox="0 0 24 24" width="24" xmlns="http://www.w3.org/2000/svg"><path d="m20 22h-14c-.79565 0-1.55871-.3161-2.12132-.8787s-.87868-1.3257-.87868-2.1213v-14c0-.79565.31607-1.55871.87868-2.12132s1.32567-.87868 2.12132-.87868h14c.2652 0 .5196.10536.7071.29289.1875.18754.2929.44189.2929.70711v18c0 .2652-.1054.5196-.2929.7071s-.4419.2929-.7071.2929zm-1-2v-2h-13c-.26522 0-.51957.1054-.70711.2929-.18753.1875-.29289.4419-.29289.7071s.10536.5196.29289.7071c.18754.1875.44189.2929.70711.2929zm-7-10c.5304 0 1.0391-.21071 1.4142-.58579.3751-.37507.5858-.88378.5858-1.41421s-.2107-1.03914-.5858-1.41421c-.3751-.37508-.8838-.58579-1.4142-.58579s-1.0391.21071-1.4142.58579c-.3751.37507-.5858.88378-.5858 1.41421s.2107 1.03914.5858 1.41421c.3751.37508.8838.58579 1.4142.58579zm-3 4h6c0-.7956-.3161-1.5587-.8787-2.1213s-1.3257-.8787-2.1213-.8787-1.5587.3161-2.12132.8787c-.56261.5626-.87868 1.3257-.87868 2.1213z" /></svg>