<svg fill="currentColor" height="24" viewBox="0 0 24 24" width="24" xmlns="http://www.w3.org/2000/svg"><path d="m5.636 6.636 6.364-6.363997 6.364 6.363997c1.2587 1.25868 2.1158 2.86233 2.4631 4.6082.3472 1.7458.169 3.5554-.5122 5.1999s-1.8347 3.0501-3.3148 4.0391c-1.48.9889-3.2201 1.5167-5.0001 1.5167s-3.52008-.5278-5.00012-1.5167c-1.48004-.989-2.63359-2.3946-3.31478-4.0391s-.85943-3.4541-.51217-5.1999c.34726-1.74587 1.20441-3.34952 2.46307-4.6082zm6.364-3.535-4.95 4.949c-.65097.64934-1.16719 1.42093-1.519 2.2704-.35181.8495-.53226 1.7601-.531 2.6796h14c.0013-.9195-.1792-1.8301-.531-2.6796-.3518-.84947-.868-1.62106-1.519-2.2704l-4.95-4.95z" /></svg>