<svg fill="currentColor" height="24" viewBox="0 0 24 24" width="24" xmlns="http://www.w3.org/2000/svg"><path d="m7 2v20h-4v-20zm2 0h10.005c1.102 0 1.995.898 1.995 1.99v16.02c0 1.099-.893 1.99-1.995 1.99h-10.005zm13 4h2v4h-2zm0 6h2v4h-2zm-7 0c.5304 0 1.0391-.2107 1.4142-.5858s.5858-.8838.5858-1.4142c0-.53043-.2107-1.03914-.5858-1.41421-.3751-.37508-.8838-.58579-1.4142-.58579s-1.0391.21071-1.4142.58579c-.3751.37507-.5858.88378-.5858 1.41421 0 .5304.2107 1.0391.5858 1.4142s.8838.5858 1.4142.5858zm-3 4h6c0-.7956-.3161-1.5587-.8787-2.1213s-1.3257-.8787-2.1213-.8787-1.5587.3161-2.1213.8787-.8787 1.3257-.8787 2.1213z" /></svg>