<svg fill="currentColor" height="24" viewBox="0 0 24 24" width="24" xmlns="http://www.w3.org/2000/svg"><path d="m12 22c-5.523 0-10-4.477-10-10s4.477-10 10-10 10 4.477 10 10-4.477 10-10 10zm0-2c2.1217 0 4.1566-.8429 5.6569-2.3431 1.5002-1.5003 2.3431-3.5352 2.3431-5.6569 0-2.12173-.8429-4.15656-2.3431-5.65685-1.5003-1.5003-3.5352-2.34315-5.6569-2.34315-2.12173 0-4.15656.84285-5.65685 2.34315-1.5003 1.50029-2.34315 3.53512-2.34315 5.65685 0 2.1217.84285 4.1566 2.34315 5.6569 1.50029 1.5002 3.53512 2.3431 5.65685 2.3431zm-5-4.68c2.15505-.1548 4.1817-1.0828 5.707-2.613 1.5302-1.5253 2.4582-3.55195 2.613-5.707.7389.49228 1.3593 1.1424 1.8166 1.90349.4572.76108.7398 1.61411.8274 2.49771.0876.8835-.0219 1.7755-.3207 2.6115-.2989.8361-.7795 1.5954-1.4074 2.2232-.6278.6279-1.3871 1.1085-2.2232 1.4074-.836.2988-1.728.4083-2.6115.3207-.8836-.0876-1.73663-.3702-2.49771-.8274-.76109-.4573-1.41121-1.0777-1.90349-1.8166z" /></svg>