<svg fill="currentColor" height="24" viewBox="0 0 24 24" width="24" xmlns="http://www.w3.org/2000/svg"><path d="m12 22c-5.523 0-10-4.477-10-10s4.477-10 10-10 10 4.477 10 10-4.477 10-10 10zm-6.671-5.575c.65728.9834 1.52447 1.8089 2.5391 2.4169 1.01464.608 2.1515.9834 3.3286 1.0992 1.1772.1159 2.3654-.0308 3.4791-.4293 1.1137-.3986 2.1251-1.0392 2.9615-1.8756.8364-.8365 1.4768-1.848 1.8753-2.9617s.545-2.3019.4291-3.4791c-.116-1.1771-.4915-2.31394-1.0996-3.32852s-1.4336-1.88168-2.4171-2.53888c.4312 1.53822.445 3.16352.0401 4.7089-.4049 1.5453-1.214 2.955-2.3441 4.0841-1.129 1.1299-2.5385 1.9389-4.0837 2.3438-1.54512.4049-3.17022.3912-4.7083-.0398z" /></svg>