<svg fill="currentColor" height="24" viewBox="0 0 24 24" width="24" xmlns="http://www.w3.org/2000/svg"><path d="m3 2h16.005c1.102 0 1.995.898 1.995 1.99v16.02c0 1.099-.893 1.99-1.995 1.99h-16.005zm4 2h-2v16h2zm2 16h10v-16h-10zm2-4c0-.7956.3161-1.5587.8787-2.1213s1.3257-.8787 2.1213-.8787 1.5587.3161 2.1213.8787.8787 1.3257.8787 2.1213zm3-4c-.5304 0-1.0391-.2107-1.4142-.5858s-.5858-.8838-.5858-1.4142c0-.53043.2107-1.03914.5858-1.41421.3751-.37508.8838-.58579 1.4142-.58579s1.0391.21071 1.4142.58579c.3751.37507.5858.88378.5858 1.41421 0 .5304-.2107 1.0391-.5858 1.4142s-.8838.5858-1.4142.5858zm8-6h2v4h-2zm0 6h2v4h-2z" /></svg>