<svg fill="currentColor" height="24" viewBox="0 0 24 24" width="24" xmlns="http://www.w3.org/2000/svg"><path d="m19 7h5v2h-5zm-2 5h7v2h-7zm3 5h4v2h-4zm-18 5c0-2.1217.84285-4.1566 2.34315-5.6569 1.50029-1.5002 3.53512-2.3431 5.65685-2.3431 2.1217 0 4.1566.8429 5.6569 2.3431 1.5002 1.5003 2.3431 3.5352 2.3431 5.6569h-2c0-1.5913-.6321-3.1174-1.7574-4.2426-1.1252-1.1253-2.6513-1.7574-4.2426-1.7574s-3.11742.6321-4.24264 1.7574c-1.12522 1.1252-1.75736 2.6513-1.75736 4.2426zm8-9c-3.315 0-6-2.685-6-6s2.685-6 6-6 6 2.685 6 6-2.685 6-6 6zm0-2c2.21 0 4-1.79 4-4s-1.79-4-4-4-4 1.79-4 4 1.79 4 4 4z" /></svg>