<svg fill="currentColor" height="24" viewBox="0 0 24 24" width="24" xmlns="http://www.w3.org/2000/svg"><path d="m12 2c5.52 0 10 4.48 10 10s-4.48 10-10 10-10-4.48-10-10 4.48-10 10-10zm0 2c-4.42 0-8 3.58-8 8s3.58 8 8 8 8-3.58 8-8-3.58-8-8-8zm0 3c1.82 0 3.413.973 4.288 2.428l-1.714 1.029c-.2697-.4498-.6527-.82095-1.1106-1.07655-.4579-.25561-.9749-.38671-1.4993-.38022s-1.0379.15033-1.4894.41719-.8251.64738-1.08363 1.10368-.39292.9724-.38979 1.4968c.00314.5245.1437 1.0389.40767 1.4921s.64215.8292 1.09675 1.0907c.4546.2614.9699.3991 1.4943.3993.5181.0003 1.0275-.1336 1.4785-.3888.4509-.2552.828-.6229 1.0945-1.0672l1.715 1.028c-.562.9386-1.4164 1.667-2.4321 2.0733-1.0157.4064-2.1367.4684-3.191.1764-1.05432-.2919-1.98376-.9217-2.64576-1.7927-.66201-.8709-1.02002-1.935-1.01914-3.029 0-2.76 2.24-5 5-5z" /></svg>