<svg fill="currentColor" height="24" viewBox="0 0 24 24" width="24" xmlns="http://www.w3.org/2000/svg"><path d="m12 2c5.52 0 10 4.48 10 10s-4.48 10-10 10-10-4.48-10-10 4.48-10 10-10zm0 5c-2.76 0-5 2.24-5 5s2.24 5 5 5c1.82 0 3.413-.973 4.288-2.428l-1.715-1.028c-.2699.4496-.6529.8206-1.1109 1.0761-.458.2554-.975.3863-1.4994.3797-.5243-.0067-1.0378-.1507-1.4892-.4177-.4513-.2669-.82482-.6476-1.08321-1.1039-.2584-.4563-.39266-.9724-.3894-1.4968.00325-.5244.14391-1.0388.40796-1.4919.26404-.4531.64225-.82905 1.09685-1.0904.4547-.26135.9699-.39896 1.4943-.3991 1.093 0 2.05.584 2.574 1.457l1.714-1.03c-.4443-.74043-1.0727-1.35316-1.8242-1.77849s-1.6003-.64875-2.4638-.64851z" /></svg>