<svg fill="currentColor" height="24" viewBox="0 0 24 24" width="24" xmlns="http://www.w3.org/2000/svg"><path d="m9.41957 4.40008c-1.30046.43691-2.46671 1.2009-3.38671 2.21858s-1.56284 2.25485-1.86675 3.59264c-.30391 1.3378-.25869 2.7313.13133 4.0466.39001 1.3152 1.11171 2.5081 2.09577 3.464.98405.9559 2.19738 1.6427 3.52343 1.9943 1.32606.3517 2.72026.3565 4.04866.0138 1.3284-.3426 2.5464-1.0211 3.5369-1.9702.9906-.9492 1.7204-2.1371 2.1194-3.4497-3.4 1.46-7.248 1.98-11.54503 1.565-.711-4.126-.264-7.95002 1.343-11.47502zm2.44803-.414c-.6649 1.18918-1.1827 2.4548-1.542 3.769 1.5472.03084 3.0222.66027 4.115 1.756 1.0336 1.03072 1.6543 2.40412 1.745 3.86102 1.33-.341 2.589-.82 3.78-1.433-.0054-1.0552-.2195-2.09881-.6302-3.07078-.4106-.97197-1.0096-1.85303-1.7624-2.59236-.7528-.73934-1.6446-1.32232-2.6238-1.71534-.9792-.39301-2.0266-.58828-3.0816-.57454zm-6.97303 15.07102c-3.905-3.905-3.905-10.23702 0-14.14202 3.905-3.905 10.23703-3.905 14.14203 0s3.905 10.23702 0 14.14202-10.23703 3.905-14.14203 0zm5.02-9.29302c-.19252 1.40172-.21803 2.82132-.076 4.22902 1.45703.0642 2.91683-.0095 4.36003-.22.0032-.5287-.0988-1.0528-.3-1.5417-.2012-.489-.4976-.933-.872-1.3063-.4049-.4057-.8925-.7194-1.4295-.9197-.537-.20038-1.1109-.28268-1.68253-.24132z" /></svg>