<svg fill="currentColor" height="24" viewBox="0 0 24 24" width="24" xmlns="http://www.w3.org/2000/svg"><path d="m2 9.5v-5.5c0-.26522.10536-.51957.29289-.70711.18754-.18753.44189-.29289.70711-.29289h18c.2652 0 .5196.10536.7071.29289.1875.18754.2929.44189.2929.70711v5.5c-.663 0-1.2989.26339-1.7678.7322-.4688.4689-.7322 1.1048-.7322 1.7678s.2634 1.2989.7322 1.7678c.4689.4688 1.1048.7322 1.7678.7322v5.5c0 .2652-.1054.5196-.2929.7071s-.4419.2929-.7071.2929h-18c-.26522 0-.51957-.1054-.70711-.2929-.18753-.1875-.29289-.4419-.29289-.7071v-5.5c.66304 0 1.29893-.2634 1.76777-.7322.46884-.4689.73223-1.1048.73223-1.7678s-.26339-1.2989-.73223-1.7678c-.46884-.46881-1.10473-.7322-1.76777-.7322zm2-1.532c.75121.3723 1.38347.94705 1.8255 1.65946.44204.71244.67626 1.53414.67626 2.37254s-.23422 1.6601-.67626 2.3725c-.44203.7125-1.07429 1.2872-1.8255 1.6595v2.968h16v-2.968c-.7512-.3723-1.3835-.947-1.8255-1.6595-.442-.7124-.6763-1.5341-.6763-2.3725s.2343-1.6601.6763-2.37254c.442-.71241 1.0743-1.28716 1.8255-1.65946v-2.968h-16zm5 1.032h6v2h-6zm0 4h6v2h-6z" /></svg>