<svg fill="currentColor" height="24" viewBox="0 0 24 24" width="24" xmlns="http://www.w3.org/2000/svg"><path d="m2 4c0-.26522.10536-.51957.29289-.70711.18754-.18753.44189-.29289.70711-.29289h18c.2652 0 .5196.10536.7071.29289.1875.18754.2929.44189.2929.70711v5.5c-.663 0-1.2989.26339-1.7678.7322-.4688.4689-.7322 1.1048-.7322 1.7678s.2634 1.2989.7322 1.7678c.4689.4688 1.1048.7322 1.7678.7322v5.5c0 .2652-.1054.5196-.2929.7071s-.4419.2929-.7071.2929h-18c-.26522 0-.51957-.1054-.70711-.2929-.18753-.1875-.29289-.4419-.29289-.7071zm6.085 15c.10307-.293.29455-.5468.54801-.7263s.55639-.2759.86699-.2759.6135.0964.867.2759c.2534.1795.4449.4333.548.7263h9.085v-2.968c-.7512-.3723-1.3835-.947-1.8255-1.6595-.442-.7124-.6763-1.5341-.6763-2.3725s.2343-1.6601.6763-2.37254c.442-.71241 1.0743-1.28716 1.8255-1.65946v-2.968h-9.085c-.1031.29299-.2946.54677-.548.72629-.2535.17952-.5564.27594-.867.27594s-.61353-.09642-.86699-.27594-.44494-.4333-.54801-.72629h-4.085v14zm1.415-8c-.39782 0-.77936-.158-1.06066-.4393s-.43934-.66288-.43934-1.0607.15804-.77936.43934-1.06066.66284-.43934 1.06066-.43934.7794.15804 1.0607.43934.4393.66284.4393 1.06066-.158.7794-.4393 1.0607-.66288.4393-1.0607.4393zm0 5c-.39782 0-.77936-.158-1.06066-.4393s-.43934-.6629-.43934-1.0607.15804-.7794.43934-1.0607.66284-.4393 1.06066-.4393.7794.158 1.0607.4393.4393.6629.4393 1.0607-.158.7794-.4393 1.0607-.66288.4393-1.0607.4393z" /></svg>