<svg fill="currentColor" height="24" viewBox="0 0 24 24" width="24" xmlns="http://www.w3.org/2000/svg"><path d="m10 21h-7c-.26522 0-.51957-.1054-.70711-.2929-.18753-.1875-.29289-.4419-.29289-.7071v-16c0-.26522.10536-.51957.29289-.70711.18754-.18753.44189-.29289.70711-.29289h7c0 .53043.2107 1.03914.5858 1.41421.3751.37508.8838.58579 1.4142.58579s1.0391-.21071 1.4142-.58579c.3751-.37507.5858-.88378.5858-1.41421h7c.2652 0 .5196.10536.7071.29289.1875.18754.2929.44189.2929.70711v16c0 .2652-.1054.5196-.2929.7071s-.4419.2929-.7071.2929h-7c0-.5304-.2107-1.0391-.5858-1.4142s-.8838-.5858-1.4142-.5858-1.0391.2107-1.4142.5858-.5858.8838-.5858 1.4142zm-1.465-2c.35099-.6083.85605-1.1135 1.46434-1.4646.60826-.3511 1.29836-.5358 2.00066-.5354 1.48 0 2.773.804 3.465 2h4.535v-14h-4.535c-.351.60835-.8561 1.11349-1.4643 1.46459-.6083.35111-1.2984.53577-2.0007.53541-.7023.00036-1.3924-.1843-2.00066-.53541-.60829-.3511-1.11335-.85624-1.46434-1.46459h-4.535v14zm-2.535-11h2v8h-2zm10 0h2v8h-2z" /></svg>