<svg fill="currentColor" height="24" viewBox="0 0 24 24" width="24" xmlns="http://www.w3.org/2000/svg"><path d="m21 14v7c0 .2652-.1054.5196-.2929.7071s-.4419.2929-.7071.2929h-16c-.26522 0-.51957-.1054-.70711-.2929-.18753-.1875-.29289-.4419-.29289-.7071v-7c.53043 0 1.03914-.2107 1.41421-.5858.37508-.3751.58579-.8838.58579-1.4142s-.21071-1.0391-.58579-1.4142c-.37507-.3751-.88378-.5858-1.41421-.5858v-7c0-.26522.10536-.51957.29289-.70711.18754-.18753.44189-.29289.70711-.29289h16c.2652 0 .5196.10536.7071.29289.1875.18754.2929.44189.2929.70711v7c-.5304 0-1.0391.2107-1.4142.5858s-.5858.8838-.5858 1.4142.2107 1.0391.5858 1.4142.8838.5858 1.4142.5858zm-12-8v2h6v-2zm0 10v2h6v-2z" /></svg>