<svg fill="currentColor" height="24" viewBox="0 0 24 24" width="24" xmlns="http://www.w3.org/2000/svg"><path d="m11 21c0-.3978-.158-.7794-.4393-1.0607s-.66288-.4393-1.0607-.4393-.77936.158-1.06066.4393-.43934.6629-.43934 1.0607h-5c-.26522 0-.51957-.1054-.70711-.2929-.18753-.1875-.29289-.4419-.29289-.7071v-16c0-.26522.10536-.51957.29289-.70711.18754-.18753.44189-.29289.70711-.29289h5c0 .39782.15804.77936.43934 1.06066s.66284.43934 1.06066.43934.7794-.15804 1.0607-.43934.4393-.66284.4393-1.06066h10c.2652 0 .5196.10536.7071.29289.1875.18754.2929.44189.2929.70711v5.5c-.663 0-1.2989.26339-1.7678.7322-.4688.4689-.7322 1.1048-.7322 1.7678s.2634 1.2989.7322 1.7678c.4689.4688 1.1048.7322 1.7678.7322v5.5c0 .2652-.1054.5196-.2929.7071s-.4419.2929-.7071.2929zm-1.5-10.5c.39782 0 .7794-.158 1.0607-.4393.2813-.28134.4393-.66288.4393-1.0607s-.158-.77936-.4393-1.06066-.66288-.43934-1.0607-.43934-.77936.15804-1.06066.43934-.43934.66284-.43934 1.06066.15804.77936.43934 1.0607c.2813.2813.66284.4393 1.06066.4393zm0 6c.39782 0 .7794-.158 1.0607-.4393s.4393-.6629.4393-1.0607-.158-.7794-.4393-1.0607-.66288-.4393-1.0607-.4393-.77936.158-1.06066.4393-.43934.6629-.43934 1.0607.15804.7794.43934 1.0607.66284.4393 1.06066.4393z" /></svg>