<svg fill="currentColor" height="24" viewBox="0 0 24 24" width="24" xmlns="http://www.w3.org/2000/svg"><path d="m6 18h12v-12h-12zm8 2h-4v2h-2v-2h-3c-.26522 0-.51957-.1054-.70711-.2929-.18753-.1875-.29289-.4419-.29289-.7071v-3h-2v-2h2v-4h-2v-2h2v-3c0-.26522.10536-.51957.29289-.70711.18754-.18753.44189-.29289.70711-.29289h3v-2h2v2h4v-2h2v2h3c.2652 0 .5196.10536.7071.29289.1875.18754.2929.44189.2929.70711v3h2v2h-2v4h2v2h-2v3c0 .2652-.1054.5196-.2929.7071s-.4419.2929-.7071.2929h-3v2h-2zm-6-12h8v8h-8z" /></svg>