<svg fill="currentColor" height="24" viewBox="0 0 24 24" width="24" xmlns="http://www.w3.org/2000/svg"><path d="m12 2c5.523 0 10 4.477 10 10s-4.477 10-10 10-10-4.477-10-10 4.477-10 10-10zm2 8h-4c-.24493 0-.48134.09-.66437.2527-.18304.1628-.29997.387-.32863.6303l-.007.117v4h1.5v4h3v-4h1.5v-4c0-.2449-.09-.4813-.2527-.6644-.1628-.183-.387-.2999-.6303-.3286zm-2-5c-.5304 0-1.0391.21071-1.4142.58579-.3751.37507-.5858.88378-.5858 1.41421s.2107 1.03914.5858 1.41421c.3751.37508.8838.58579 1.4142.58579s1.0391-.21071 1.4142-.58579c.3751-.37507.5858-.88378.5858-1.41421s-.2107-1.03914-.5858-1.41421c-.3751-.37508-.8838-.58579-1.4142-.58579z" /></svg>