<svg fill="currentColor" height="24" viewBox="0 0 24 24" width="24" xmlns="http://www.w3.org/2000/svg"><path d="m4.256 5.67201 3.58 3.577c-.21276.36797-.3282.78409-.33539 1.20909s.09409.8448.29428 1.2198c.20019.3749.49268.6926.84982.9231.35715.2305.76716.3661 1.19129.394l.164.005h4l.09.008c.1153.0209.2196.0816.2947.1715s.1162.2034.1162.3205c0 .1172-.0411.2306-.1162.3205s-.1794.1506-.2947.1715l-.09.008h-5.5v2h2.5v2h2v-2h1c.121 0 .24-.009.357-.025l.173-.031 3.798 3.8c-1.7844 1.4622-4.021 2.2596-6.328 2.256-5.523 0-10-4.477-10-10 0-2.39999.846-4.60399 2.256-6.32799zm7.744-3.672c5.523 0 10 4.477 10 9.99999 0 2.4-.846 4.604-2.256 6.328l-3.579-3.577c.2125-.3679.3278-.784.3348-1.2088.0071-.4249-.0942-.8445-.2944-1.2193-.2001-.3748-.4925-.6924-.8496-.9228-.357-.2305-.7668-.3661-1.1908-.3941l-.165-.006h-4l-.09-.008c-.11528-.0209-.21957-.0816-.29468-.1715-.0751-.0899-.11624-.2033-.11624-.3205 0-.1171.04114-.2306.11624-.3205.07511-.0899.1794-.1506.29468-.1715l.09-.008h5.5v-1.99999h-2.5v-2h-2v2h-1c-.121 0-.24.009-.356.025l-.173.031-3.799-3.8c1.78437-1.46223 4.02104-2.25962 6.328-2.256z" /></svg>