<svg fill="currentColor" height="24" viewBox="0 0 24 24" width="24" xmlns="http://www.w3.org/2000/svg"><path d="m12 2c5.523 0 10 4.477 10 10 0 2.4-.846 4.604-2.256 6.328l.034.036-1.414 1.414-.036-.034c-1.7844 1.4622-4.021 2.2596-6.328 2.256-5.523 0-10-4.477-10-10s4.477-10 10-10zm-8 10c-.00002 1.4969.41995 2.9638 1.21217 4.2339.79221 1.2702 1.92489 2.2925 3.26926 2.9509 1.34436.6584 2.84647.9264 4.33557.7735s2.9055-.7205 4.088-1.6383l-2.375-2.376c-.1742.0374-.3518.0562-.53.056h-1v2h-2v-2h-2.5v-2h5.5c.1249.0002.2454-.0463.3378-.1305.0923-.0842.1498-.1999.1611-.3243.0113-.1245-.0244-.2486-.1001-.348-.0757-.0995-.1859-.1669-.3088-.1892l-.09-.008h-4c-.43884 0-.86994-.1155-1.24998-.335-.38004-.2194-.69562-.535-.91504-.915-.21941-.3801-.33492-.8112-.33492-1.25.00001-.4389.11552-.86996.33494-1.25l-2.156-2.156c-1.09122 1.40228-1.68222 3.1292-1.679 4.906zm8-8c-1.848 0-3.55.627-4.905 1.68l2.375 2.375c.17422-.03709.35188-.05552.53-.055h1v-2h2v2h2.5v2h-5.5c-.12495-.00023-.24545.0463-.33778.1305-.09234.0842-.14981.1999-.1611.3243-.01129.1245.02442.2486.1001.348.07568.0995.18583.1669.30878.1892l.09.008h4c.4388 0 .8699.1155 1.25.335.38.2194.6956.535.915.915.2194.3801.3349.8112.3349 1.25 0 .4389-.1155.87-.3349 1.25l2.156 2.155c.9179-1.1826 1.4855-2.599 1.6383-4.0882s-.1152-2.99142-.7737-4.33582-1.681-2.47707-2.9513-3.26921-2.7373-1.21198-4.2343-1.21177z" /></svg>