<svg fill="currentColor" height="24" viewBox="0 0 24 24" width="24" xmlns="http://www.w3.org/2000/svg"><path d="m12 2c5.523 0 10 4.477 10 10s-4.477 10-10 10-10-4.477-10-10 4.477-10 10-10zm0 2c-2.12173 0-4.15656.84285-5.65685 2.34315-1.5003 1.50029-2.34315 3.53512-2.34315 5.65685 0 2.1217.84285 4.1566 2.34315 5.6569 1.50029 1.5002 3.53512 2.3431 5.65685 2.3431 2.1217 0 4.1566-.8429 5.6569-2.3431 1.5002-1.5003 2.3431-3.5352 2.3431-5.6569 0-2.12173-.8429-4.15656-2.3431-5.65685-1.5003-1.5003-3.5352-2.34315-5.6569-2.34315zm2 6c.2652 0 .5196.1054.7071.2929s.2929.4419.2929.7071v4h-1.5v4h-3v-4h-1.5v-4c0-.2652.10536-.5196.29289-.7071.18754-.1875.44189-.2929.70711-.2929zm-2-5c.5304 0 1.0391.21071 1.4142.58579.3751.37507.5858.88378.5858 1.41421s-.2107 1.03914-.5858 1.41421c-.3751.37508-.8838.58579-1.4142.58579s-1.0391-.21071-1.4142-.58579c-.3751-.37507-.5858-.88378-.5858-1.41421s.2107-1.03914.5858-1.41421c.3751-.37508.8838-.58579 1.4142-.58579z" /></svg>