<svg fill="currentColor" height="24" viewBox="0 0 24 24" width="24" xmlns="http://www.w3.org/2000/svg"><path d="m12 2c5.52 0 10 4.48 10 10s-4.48 10-10 10-10-4.48-10-10 4.48-10 10-10zm0 2c-4.415 0-8 3.585-8 8s3.585 8 8 8 8-3.585 8-8-3.585-8-8-8zm0 2c2.761 0 5 2.686 5 6s-2.239 6-5 6-5-2.686-5-6 2.239-6 5-6zm2.325 3.472-3.562 6.173c.377.228.796.355 1.237.355 1.657 0 3-1.79 3-4 0-.959-.253-1.839-.675-2.528zm-2.325-1.472c-1.657 0-3 1.79-3 4 0 .959.253 1.839.675 2.528l3.562-6.173c-.3718-.22983-.7999-.35266-1.237-.355z" /></svg>