<svg fill="currentColor" height="24" viewBox="0 0 24 24" width="24" xmlns="http://www.w3.org/2000/svg"><path d="m12 2c5.523 0 10 4.477 10 10s-4.477 10-10 10-10-4.477-10-10 4.477-10 10-10zm0 2c-2.12173 0-4.15656.84285-5.65685 2.34315-1.5003 1.50029-2.34315 3.53512-2.34315 5.65685 0 2.1217.84285 4.1566 2.34315 5.6569 1.50029 1.5002 3.53512 2.3431 5.65685 2.3431 2.1217 0 4.1566-.8429 5.6569-2.3431 1.5002-1.5003 2.3431-3.5352 2.3431-5.6569 0-2.12173-.8429-4.15656-2.3431-5.65685-1.5003-1.5003-3.5352-2.34315-5.6569-2.34315zm-3 4c1.105 0 2.105.448 2.829 1.173l-1.414 1.414c-.2796-.2799-.63588-.4705-1.02383-.5479-.38795-.07734-.79013-.0379-1.15567.1133s-.67803.4075-.89793.7363c-.21991.3288-.33736.7155-.3375 1.1111s.11704.7823.33671 1.1113c.21968.329.53198.5855.89741.7369.36544.1515.76759.1912 1.15559.1142.38801-.0771.74442-.2675 1.02422-.5472l1.414 1.413c-.5596.5588-1.2722.9391-2.04786 1.0931-.77565.154-1.57954.0747-2.31014-.2279s-1.35515-.8149-1.79477-1.4722-.67458-1.4302-.67523-2.221c0-2.208 1.792-4 4-4zm7 0c1.105 0 2.105.448 2.829 1.173l-1.414 1.414c-.2796-.2799-.6359-.4705-1.0238-.5479-.388-.07734-.7902-.0379-1.1557.1133s-.678.4075-.8979.7363-.3374.7155-.3375 1.1111c-.0002.3956.117.7823.3367 1.1113s.532.5855.8974.7369c.3654.1515.7676.1912 1.1556.1142.388-.0771.7444-.2675 1.0242-.5472l1.414 1.413c-.5596.5588-1.2722.9391-2.0479 1.0931-.7756.154-1.5795.0747-2.3101-.2279s-1.3552-.8149-1.7948-1.4722-.6746-1.4302-.6752-2.221c0-2.208 1.792-4 4-4z" /></svg>