<svg fill="currentColor" height="24" viewBox="0 0 24 24" width="24" xmlns="http://www.w3.org/2000/svg"><path d="m12 2c5.523 0 10 4.477 10 10s-4.477 10-10 10-10-4.477-10-10 4.477-10 10-10zm-3 6c-2.208 0-4 1.792-4 4 .0005.7722.22445 1.5278.64485 2.1756.42039.6477 1.01926 1.16 1.72433 1.4749.70507.315 1.48623.4192 2.2492.3.76302-.1192 1.47512-.4566 2.05062-.9715l.159-.151-1.414-1.414c-.2746.2746-.62318.4634-1.00323.5432-.38006.0798-.77514.0473-1.13701-.0937-.36187-.1409-.67487-.3842-.90081-.7-.22593-.3159-.35501-.6907-.37149-1.0787s.08036-.7724.27869-1.1063c.19834-.3339.48959-.6028.8382-.7739.34862-.1712.73951-.2371 1.12497-.1898s.7488.2058 1.04568.4562l.126.116 1.414-1.414c-.371-.37229-.8119-.66758-1.2974-.86889-.4855-.2013-1.00602-.30465-1.5316-.30411zm7 0c-2.208 0-4 1.792-4 4 .0005.7722.2245 1.5278.6448 2.1756.4204.6477 1.0193 1.16 1.7244 1.4749.7051.315 1.4862.4192 2.2492.3.7629-.1192 1.4751-.4566 2.0506-.9715l.159-.151-1.414-1.414c-.2746.2746-.6232.4634-1.0032.5432-.3801.0798-.7752.0473-1.137-.0937-.3619-.1409-.6749-.3842-.9008-.7-.226-.3159-.3551-.6907-.3715-1.0787-.0165-.388.0803-.7724.2787-1.1063.1983-.3339.4895-.6028.8382-.7739.3486-.1712.7395-.2371 1.1249-.1898.3855.0473.7488.2058 1.0457.4562l.126.116 1.414-1.414c-.371-.37229-.8119-.66758-1.2974-.86889-.4855-.2013-1.006-.30465-1.5316-.30411z" /></svg>