<svg fill="currentColor" height="24" viewBox="0 0 24 24" width="24" xmlns="http://www.w3.org/2000/svg"><path d="m12 2c1.7133-.00007 3.3911.48892 4.8361 1.40949s2.5972 2.23448 3.3212 3.78732c.724 1.55283.9898 3.28009.766 4.97869-.2238 1.6987-.9278 3.2982-2.0293 4.6105 1.255.83 2.033 1.89 2.101 3.049l.005.165-9 2-8.99999-2 .005-.165c.067-1.16.846-2.22 2.1-3.05-1.3625-1.6194-2.10816-3.6687-2.105-5.785 0-2.38695.94821-4.67613 2.63604-6.36396s3.97701-2.63604 6.36395-2.63604zm0 11c-1.38 0-2.49999.672-2.49999 1.5s1.11999 1.5 2.49999 1.5 2.5-.672 2.5-1.5-1.12-1.5-2.5-1.5zm-2.99999-5c-1.105 0-2 .672-2 1.5s.895 1.5 2 1.5c1.10499 0 1.99999-.672 1.99999-1.5s-.895-1.5-1.99999-1.5zm5.99999 0c-1.105 0-2 .672-2 1.5s.895 1.5 2 1.5 2-.672 2-1.5-.895-1.5-2-1.5z" /></svg>