<svg fill="currentColor" height="24" viewBox="0 0 24 24" width="24" xmlns="http://www.w3.org/2000/svg"><path d="m16 13v-8h-10v8c0 .5304.21071 1.0391.58579 1.4142.37507.3751.88378.5858 1.41421.5858h6c.5304 0 1.0391-.2107 1.4142-.5858s.5858-.8838.5858-1.4142zm-11-10h15c.5304 0 1.0391.21071 1.4142.58579.3751.37507.5858.88378.5858 1.41421v3c0 .53043-.2107 1.03914-.5858 1.41421-.3751.37508-.8838.58579-1.4142.58579h-2v3c0 1.0609-.4214 2.0783-1.1716 2.8284-.7501.7502-1.7675 1.1716-2.8284 1.1716h-6c-1.06087 0-2.07828-.4214-2.82843-1.1716-.75014-.7501-1.17157-1.7675-1.17157-2.8284v-9c0-.26522.10536-.51957.29289-.70711.18754-.18753.44189-.29289.70711-.29289zm13 2v3h2v-3zm-16 14h18v2h-18z" /></svg>