<svg fill="currentColor" height="24" viewBox="0 0 24 24" width="24" xmlns="http://www.w3.org/2000/svg"><path d="m17 16h2v-12h-10v2h8zm0 2v3c0 .552-.45 1-1.007 1h-11.986c-.13187.0008-.2626-.0245-.38468-.0744-.12207-.0499-.23309-.1234-.32666-.2163-.09358-.0929-.16787-.2034-.21861-.3252-.05073-.1217-.07692-.2522-.07705-.3841l.003-14c0-.552.45-1 1.007-1h2.99v-3c0-.26522.10536-.51957.29289-.70711.18754-.18753.44189-.29289.70711-.29289h12c.2652 0 .5196.10536.7071.29289.1875.18754.2929.44189.2929.70711v14c0 .2652-.1054.5196-.2929.7071s-.4419.2929-.7071.2929zm-11.997-10-.003 12h10v-12zm1.997 8h4.5c.1326 0 .2598-.0527.3536-.1464.0937-.0938.1464-.221.1464-.3536s-.0527-.2598-.1464-.3536c-.0938-.0937-.221-.1464-.3536-.1464h-3c-.66304 0-1.29893-.2634-1.76777-.7322-.46884-.4689-.73223-1.1048-.73223-1.7678s.26339-1.2989.73223-1.7678c.46884-.4688 1.10473-.7322 1.76777-.7322h.5v-1h2v1h2v2h-4.5c-.13261 0-.25979.0527-.35355.1464-.09377.0938-.14645.221-.14645.3536s.05268.2598.14645.3536c.09376.0937.22094.1464.35355.1464h3c.663 0 1.2989.2634 1.7678.7322.4688.4689.7322 1.1048.7322 1.7678s-.2634 1.2989-.7322 1.7678c-.4689.4688-1.1048.7322-1.7678.7322h-.5v1h-2v-1h-2z" /></svg>