<svg fill="currentColor" height="24" viewBox="0 0 24 24" width="24" xmlns="http://www.w3.org/2000/svg"><path d="m21 8.00002c.5304 0 1.0391.21072 1.4142.58579s.5858.88378.5858 1.41419v4c0 .5305-.2107 1.0392-.5858 1.4142-.3751.3751-.8838.5858-1.4142.5858h-1.062c-.2438 1.9333-1.1847 3.7112-2.6463 5-1.4615 1.2888-3.3431 2-5.2917 2v-2c1.5913 0 3.1174-.6321 4.2426-1.7573 1.1253-1.1253 1.7574-2.6514 1.7574-4.2427v-5.99998c0-1.5913-.6321-3.11742-1.7574-4.24264-1.1252-1.12522-2.6513-1.75736-4.2426-1.75736s-3.11742.63214-4.24264 1.75736-1.75736 2.65134-1.75736 4.24264v6.99998h-3c-.53043 0-1.03914-.2107-1.41421-.5858-.37508-.375-.58579-.8837-.58579-1.4142v-4c0-.53041.21071-1.03912.58579-1.41419.37507-.37507.88378-.58579 1.41421-.58579h1.062c.24403-1.9331 1.18508-3.71072 2.64657-4.99932 1.4615-1.2886 3.34303-1.9996 5.29143-1.9996s3.8299.711 5.2914 1.9996 2.4026 3.06622 2.6466 4.99932zm-13.24 7.78498 1.06-1.696c.95308.5971 2.0554.9128 3.18.911 1.1246.0018 2.2269-.3139 3.18-.911l1.06 1.696c-1.2707.7962-2.7405 1.2173-4.24 1.215-1.4995.0023-2.96926-.4188-4.24-1.215z" /></svg>