<svg fill="currentColor" height="24" viewBox="0 0 24 24" width="24" xmlns="http://www.w3.org/2000/svg"><path d="m22 17.002c-.0004 1.3676-.4679 2.694-1.325 3.7596-.8571 1.0657-2.0524 1.8067-3.388 2.1004l-.638-1.914c.5842-.0962 1.1398-.3209 1.6268-.6577.4869-.3369.8931-.7775 1.1892-1.2903h-2.465c-.5304 0-1.0391-.2107-1.4142-.5858s-.5858-.8838-.5858-1.4142v-4c0-.5304.2107-1.0391.5858-1.4142s.8838-.5858 1.4142-.5858h2.938c-.244-1.9331-1.1851-3.71073-2.6466-4.99932-1.4615-1.2886-3.343-1.9996-5.2914-1.9996s-3.82993.711-5.29143 1.9996c-1.46149 1.28859-2.40254 3.06622-2.64657 4.99932h2.938c.53043 0 1.03914.2107 1.41421.5858.37508.3751.58579.8838.58579 1.4142v4c0 .5304-.21071 1.0391-.58579 1.4142-.37507.3751-.88378.5858-1.41421.5858h-3c-.53043 0-1.03914-.2107-1.41421-.5858-.37508-.3751-.58579-.8838-.58579-1.4142v-5c0-5.523 4.477-10 10-10s10 4.477 10 10z" /></svg>