<svg fill="currentColor" height="24" viewBox="0 0 24 24" width="24" xmlns="http://www.w3.org/2000/svg"><path d="m12 2c5.523 0 10 4.477 10 10s-4.477 10-10 10-10-4.477-10-10 4.477-10 10-10zm0 3c-3.866 0-7 3.134-7 7 0 1.852.72 3.537 1.894 4.789l.156.16 1.414-1.413c-.904-.906-1.464-2.156-1.464-3.536 0-2.761 2.239-5 5-5 .448 0 .882.059 1.295.17l1.563-1.562c-.873-.39-1.84-.608-2.858-.608zm6.392 4.143-1.561 1.562c.11.413.169.847.169 1.295 0 1.38-.56 2.63-1.464 3.536l1.414 1.414c1.266-1.267 2.05-3.017 2.05-4.95 0-1.018-.217-1.985-.608-2.857zm-2.15-2.8-3.725 3.724c-.165-.044-.338-.067-.517-.067-1.105 0-2 .895-2 2s.895 2 2 2 2-.895 2-2c0-.179-.023-.352-.067-.517l3.724-3.726-1.414-1.414z" /></svg>