<svg fill="currentColor" height="24" viewBox="0 0 24 24" width="24" xmlns="http://www.w3.org/2000/svg"><path d="m12 2c5.523 0 10 4.477 10 10s-4.477 10-10 10-10-4.477-10-10 4.477-10 10-10zm0 2c-4.418 0-8 3.582-8 8s3.582 8 8 8 8-3.582 8-8-3.582-8-8-8zm0 1c1.018 0 1.985.217 2.858.608l-1.563 1.562c-.413-.11-.847-.17-1.295-.17-2.761 0-5 2.239-5 5 0 1.38.56 2.63 1.464 3.536l-1.414 1.414-.156-.161c-1.174-1.252-1.894-2.937-1.894-4.789 0-3.866 3.134-7 7-7zm6.392 4.143c.39.872.608 1.84.608 2.857 0 1.933-.784 3.683-2.05 4.95l-1.414-1.414c.904-.906 1.464-2.156 1.464-3.536 0-.448-.059-.882-.17-1.295zm-2.15-2.8 1.415 1.414-3.724 3.726c.044.165.067.338.067.517 0 1.105-.895 2-2 2s-2-.895-2-2 .895-2 2-2c.179 0 .352.023.517.067l3.726-3.724z" /></svg>