<svg fill="currentColor" height="24" viewBox="0 0 24 24" width="24" xmlns="http://www.w3.org/2000/svg"><path d="m11 7v-3c0-.26522.1054-.51957.2929-.70711.1875-.18753.4419-.29289.7071-.29289h9c.2652 0 .5196.10536.7071.29289.1875.18754.2929.44189.2929.70711v16c0 .2652-.1054.5196-.2929.7071s-.4419.2929-.7071.2929h-18c-.26522 0-.51957-.1054-.70711-.2929-.18753-.1875-.29289-.4419-.29289-.7071v-12c0-.26522.10536-.51957.29289-.70711.18754-.18753.44189-.29289.70711-.29289zm-6 9v2h5v-2zm9 0v2h5v-2zm0-3v2h5v-2zm0-3v2h5v-2zm-9 3v2h5v-2z" /></svg>