<svg fill="currentColor" height="24" viewBox="0 0 24 24" width="24" xmlns="http://www.w3.org/2000/svg"><path d="m6.53505 3h14.46505c.2652 0 .5195.10536.7071.29289.1875.18754.2929.44189.2929.70711v16c0 .2652-.1054.5196-.2929.7071-.1876.1875-.4419.2929-.7071.2929h-14.46505c-.16459 0-.32664-.0406-.47178-.1182s-.26887-.1899-.36022-.3268l-5.332996-8c-.109639-.1643-.16815-.3575-.16815-.555s.058511-.3907.16815-.555l5.332996-8c.09135-.13692.21508-.24917.36022-.32679.14514-.07763.30719-.11823.47178-.11821zm.535 2-4.666 7 4.666 7h12.93005v-14zm5.93005 5.586 2.828-2.829 1.415 1.415-2.829 2.828 2.829 2.828-1.415 1.415-2.828-2.829-2.828 2.829-1.41505-1.415 2.82905-2.828-2.82905-2.828 1.41505-1.415z" /></svg>