<svg fill="currentColor" height="24" viewBox="0 0 24 24" width="24" xmlns="http://www.w3.org/2000/svg"><path d="m19 2c.2652 0 .5196.10536.7071.29289.1875.18754.2929.44189.2929.70711v18c0 .2652-.1054.5196-.2929.7071s-.4419.2929-.7071.2929h-14c-.26522 0-.51957-.1054-.70711-.2929-.18753-.1875-.29289-.4419-.29289-.7071v-18c0-.26522.10536-.51957.29289-.70711.18754-.18753.44189-.29289.70711-.29289zm-1 2h-12v16h12zm-6 3c1.088-.00012 2.1464.35466 3.0145 1.0105s1.4986 1.57696 1.7959 2.6236c.2972 1.0466.2449 2.1616-.1489 3.1759-.3939 1.0142-1.1078 1.8723-2.0335 2.444l-2.128-4.254h2.5c0-.5933-.1759-1.1734-.5056-1.6667-.3296-.49336-.7982-.87788-1.3463-1.10494-.5482-.22706-1.1514-.28647-1.7334-.17072-.5819.11576-1.1165.40148-1.53602.82104-.41956.41952-.70528.95412-.82104 1.53602-.11575.582-.05634 1.1852.17072 1.7334.22706.5481.61158 1.0167 1.10494 1.3463.4933.3297 1.0734.5056 1.6667.5056l.955 1.909c-.6839.1323-1.3879.1202-2.0669-.0354-.679-.1557-1.31797-.4515-1.87595-.8686-.55798-.417-1.02266-.946-1.36426-1.5531s-.55258-1.2789-.6194-1.9722c-.06683-.6934.01197-1.3931.23134-2.0543.21937-.66114.57447-1.26916 1.04254-1.78507.46806-.51591 1.03877-.92832 1.67552-1.21079.63671-.28248 1.32551-.42878 2.02211-.42954z" /></svg>