<svg fill="currentColor" height="24" viewBox="0 0 24 24" width="24" xmlns="http://www.w3.org/2000/svg"><path d="m19 2c.2652 0 .5196.10536.7071.29289.1875.18754.2929.44189.2929.70711v18c0 .2652-.1054.5196-.2929.7071s-.4419.2929-.7071.2929h-14c-.26522 0-.51957-.1054-.70711-.2929-.18753-.1875-.29289-.4419-.29289-.7071v-18c0-.26522.10536-.51957.29289-.70711.18754-.18753.44189-.29289.70711-.29289zm-7 5c-.6966.00076-1.3854.14706-2.02211.42954-.63675.28247-1.20746.69488-1.67552 1.21079-.46807.51591-.82317 1.12393-1.04254 1.78507-.21937.6612-.29817 1.3609-.23134 2.0543.06682.6933.2778 1.3651.6194 1.9722s.80628 1.1361 1.36426 1.5531c.55798.4171 1.19695.7129 1.87595.8686.679.1556 1.383.1677 2.0669.0354l-.955-1.909c-.7956 0-1.5587-.3161-2.12132-.8787-.56261-.5626-.87868-1.3257-.87868-2.1213s.31607-1.5587.87868-2.12132c.56262-.56261 1.32572-.87868 2.12132-.87868 1.598 0 3 1.34 3 3h-2.5l2.128 4.254c.9257-.5717 1.6396-1.4298 2.0335-2.444.3938-1.0143.4461-2.1293.1489-3.1759-.2973-1.04664-.9278-1.96776-1.7959-2.6236s-1.9265-1.01062-3.0145-1.0105z" /></svg>