<svg fill="currentColor" height="24" viewBox="0 0 24 24" width="24" xmlns="http://www.w3.org/2000/svg"><path d="m12 2c-5.523 0-10 4.477-10 10s4.477 10 10 10 10-4.477 10-10-4.477-10-10-10zm4.49 9.04-.006.014c-.42.898-1.516 2.66-1.516 2.66l-.005-.012-.32.558h1.543l-2.948 3.919.67-2.666h-1.215l.422-1.763c-.341.082-.745.195-1.223.349 0 0-.646.378-1.862-.729 0 0-.82-.722-.344-.902.202-.077.981-.175 1.594-.257.83-.112 1.339-.172 1.339-.172s-2.555.038-3.161-.057-1.375-1.107-1.539-1.996c0 0-.253-.488.545-.257s4.101.9 4.101.9-4.295-1.317-4.582-1.639c-.286-.32-.841-1.754-.769-2.634 0 0 .031-.22.257-.16 0 0 3.176 1.45 5.347 2.245 2.172.795 4.06 1.199 3.816 2.228-.02.087-.072.216-.144.37z" /></svg>