<svg fill="currentColor" height="24" viewBox="0 0 24 24" width="24" xmlns="http://www.w3.org/2000/svg"><path d="m12.0004 3.51488-8.48503 8.48502 8.48503 8.485 8.485-8.485zm.707-2.122 9.9 9.90002c.1874.1875.2928.4418.2928.707 0 .2651-.1054.5195-.2928.707l-9.9 9.9c-.1876.1875-.4419.2928-.707.2928-.2652 0-.5195-.1053-.707-.2928l-9.90003-9.9c-.18747-.1875-.29278-.4419-.29278-.707 0-.2652.10531-.5195.29278-.707l9.90003-9.90002c.1875-.18747.4418-.29278.707-.29278.2651 0 .5194.10531.707.29278zm.293 8.607v-2.5l3.5 3.50002-3.5 3.5v-2.5h-3v3h-2.00003v-4c0-.2652.10536-.5196.2929-.7071.18753-.1876.44189-.29292.7071-.29292z" /></svg>