<svg fill="currentColor" height="24" viewBox="0 0 24 24" width="24" xmlns="http://www.w3.org/2000/svg"><path d="m13.914 14.58c-.1603.0391-.3217.0738-.484.104-.8806.1658-1.7847.1624-2.664-.01-.154-.03-.372-.083-.653-.158l-.921 1.197c-2.273-.073-3.137-1.596-3.137-1.596 0-3.381 1.481-6.122 1.481-6.122 1.481-1.133 2.89-1.102 2.89-1.102l.403.525c.0371-.00521.0745-.00854.112-.01.7682-.10183 1.5467-.09846 2.314.01l.442-.525s1.41-.031 2.89 1.103c0 0 1.482 2.74 1.482 6.121 0 0-.875 1.522-3.148 1.596l-1.007-1.134zm-3.838-3.58c-.601 0-1.076.45-1.076 1s.485 1 1.076 1c.6 0 1.075-.45 1.075-1 .01-.55-.474-1-1.075-1zm3.848 0c-.6 0-1.075.45-1.075 1s.485 1 1.075 1c.601 0 1.076-.45 1.076-1s-.475-1-1.076-1zm7.076 12-4.99-5h2.99v-14h-14v14h11.003l.57 2h-11.573c-.53043 0-1.03914-.2107-1.41421-.5858-.37508-.3751-.58579-.8838-.58579-1.4142v-14c0-.53043.21071-1.03914.58579-1.41421.37507-.37508.88378-.58579 1.41421-.58579h14c.5304 0 1.0391.21071 1.4142.58579.3751.37507.5858.88378.5858 1.41421z" /></svg>