<svg fill="currentColor" height="24" viewBox="0 0 24 24" width="24" xmlns="http://www.w3.org/2000/svg"><path d="m16.8 19-2.8 3.5-2.8-3.5h-5.2c-.26522 0-.51957-.1054-.70711-.2929-.18753-.1875-.29289-.4419-.29289-.7071v-10.897c0-.26522.10536-.51957.29289-.70711.18754-.18753.44189-.29289.70711-.29289h16c.2652 0 .5196.10536.7071.29289.1875.18754.2929.44189.2929.70711v10.897c0 .2652-.1054.5196-.2929.7071s-.4419.2929-.7071.2929zm-14.8-17h17v2h-16v11h-2v-12c0-.26522.10536-.51957.29289-.70711.18754-.18753.44189-.29289.70711-.29289z" /></svg>