<svg fill="currentColor" height="24" viewBox="0 0 24 24" width="24" xmlns="http://www.w3.org/2000/svg"><path d="m13 9.17c-.6003-.21225-1.2527-.22798-1.8625-.04491-.6099.18308-1.14571.55546-1.52991 1.06321-.38419.5078-.59685 1.1247-.60719 1.7614-.01035.6367.18216 1.2601.54966 1.7801.36749.52.89094.9096 1.49454 1.1124s1.2561.2083 1.863.0156c.6069-.1926 1.1368-.5734 1.513-1.0871.3761-.5138.5791-1.1339.5794-1.7707v-9.542c4.057 1.274 7 5.064 7 9.542 0 5.523-4.477 10-10 10s-10-4.477-10-10 4.477-10 10-10c.337 0 .671.017 1 .05z" /></svg>