<svg fill="currentColor" height="24" viewBox="0 0 24 24" width="24" xmlns="http://www.w3.org/2000/svg"><path d="m15 4.58205v7.41795c-.0003.6368-.2033 1.2569-.5794 1.7707-.3762.5138-.9061.8946-1.513 1.0872s-1.2594.1872-1.863-.0156-1.12705-.5924-1.49454-1.1124c-.3675-.52-.56001-1.1435-.54966-1.7802.01034-.6366.223-1.2535.60719-1.7613.3842-.5078.92001-.88018 1.52991-1.06326.6098-.18307 1.2622-.16734 1.8625.04491v-7.12c5.053.501 9 4.765 9 9.94995 0 5.523-4.477 10-10 10s-10-4.477-10-10c0-5.18495 3.947-9.44895 9-9.94995v2.012c-2.01729.25668-3.86115 1.27187-5.15681 2.83922-1.29567 1.56735-1.94591 3.56923-1.81857 5.59883.12734 2.0295 1.02271 3.9345 2.50412 5.3276 1.48142 1.3931 3.43771 2.1698 5.47126 2.1723 1.8573.0011 3.6572-.6442 5.0908-1.8251 1.4336-1.1808 2.4116-2.8237 2.7664-4.6469.3547-1.8231.0641-3.71291-.8222-5.34517-.8862-1.63227-2.3128-2.90531-4.035-3.60078z" /></svg>