<svg fill="currentColor" height="24" viewBox="0 0 24 24" width="24" xmlns="http://www.w3.org/2000/svg"><path d="m2.80758 1.39307 18.38402 18.38503-1.414 1.414-3.747-3.747-4.031 4.04-8.48002-8.492c-2.04-2.284-2.028-5.75303.034-8.02303l-2.161-2.162zm2.172 10.23003 7.02002 7.031 2.617-2.623-9.64502-9.64503c-1.294 1.497-1.3 3.73503.008 5.23703zm15.26302-6.86603c2.262 2.268 2.34 5.88003.236 8.23603l-1.635 1.636-1.414-1.414 1.59-1.592c1.374-1.576 1.299-3.95803-.193-5.45303-1.5-1.502-3.92-1.563-5.49-.153l-1.335 1.198-1.336-1.197c-.35-.314-.74102-.555-1.15502-.723l-2.25-2.25c1.668-.206 3.40702.289 4.74002 1.484 2.349-2.109 5.979-2.039 8.242.228z" /></svg>