<svg fill="currentColor" height="24" viewBox="0 0 24 24" width="24" xmlns="http://www.w3.org/2000/svg"><path d="m11.9499 2c5.523 0 10 4.477 10 10s-4.477 10-10 10c-2.30599 0-4.49199-.784-6.24899-2.192l-4.718.59 1.72-4.586c-.496-1.198-.753-2.488-.753-3.812 0-5.523 4.477-10 9.99999-10zm0 2c-4.41799 0-7.99999 3.582-7.99999 8 0 1.178.254 2.318.738 3.362l.176.38-.847 2.26 2.315-.289.338.297c1.45 1.276 3.308 1.99 5.27999 1.99 4.418 0 8-3.582 8-8s-3.582-8-8-8zm-3.94999 3h3.78999c3.42 0 5.44 1.956 5.54 4.729l.003.215v.027c0 2.814-1.962 4.922-5.337 5.025l-.263.004h-3.73299v-10h3.78999zm3.83099 2.458h-1.108v5.085h1.108c1.566 0 2.625-.845 2.704-2.345l.005-.183v-.028c0-1.6-1.08-2.53-2.709-2.53z" /></svg>