<svg fill="currentColor" height="24" viewBox="0 0 24 24" width="24" xmlns="http://www.w3.org/2000/svg"><path d="m5 11h14v2h-14zm7-3c-.3978 0-.7794-.15804-1.0607-.43934s-.4393-.66284-.4393-1.06066.158-.77936.4393-1.06066.6629-.43934 1.0607-.43934.7794.15804 1.0607.43934.4393.66284.4393 1.06066-.158.77936-.4393 1.06066-.6629.43934-1.0607.43934zm0 11c-.3978 0-.7794-.158-1.0607-.4393s-.4393-.6629-.4393-1.0607.158-.7794.4393-1.0607.6629-.4393 1.0607-.4393.7794.158 1.0607.4393.4393.6629.4393 1.0607-.158.7794-.4393 1.0607-.6629.4393-1.0607.4393z" /></svg>