<svg fill="currentColor" height="24" viewBox="0 0 24 24" width="24" xmlns="http://www.w3.org/2000/svg"><path d="m11 2.05001v2.012c-3.946.492-7 3.858-7 7.93799 0 4.418 3.582 8 8 8 1.849 0 3.55-.627 4.906-1.68l1.423 1.423c-1.724 1.41-3.929 2.257-6.329 2.257-5.523 0-10-4.477-10-10 0-5.18499 3.947-9.44899 9-9.94999zm10.95 10.94999c-.2 2.011-.994 3.847-2.207 5.328l-1.423-1.422c.86-1.107 1.436-2.445 1.618-3.906h2.013zm-8.948-10.94999c4.724.469 8.48 4.226 8.95 8.94999h-2.013c-.451-3.61799-3.319-6.48599-6.937-6.93799v-2.013z" /></svg>