<svg fill="currentColor" height="24" viewBox="0 0 24 24" width="24" xmlns="http://www.w3.org/2000/svg"><path d="m11 2.05001v3.02c-3.392.487-6 3.405-6 6.92999 0 3.866 3.134 7 7 7 1.572 0 3.024-.518 4.192-1.394l2.137 2.137c-1.724 1.41-3.929 2.257-6.329 2.257-5.523 0-10-4.477-10-10 0-5.18499 3.947-9.44899 9-9.94999zm10.95 10.94999c-.2 2.011-.994 3.847-2.207 5.328l-2.137-2.136c.687-.916 1.153-2.006 1.323-3.192h3.022zm-8.948-10.94999c4.724.469 8.48 4.226 8.95 8.94999h-3.022c-.438-3.06499-2.863-5.48999-5.928-5.92899v-3.022z" /></svg>