<svg fill="currentColor" height="24" viewBox="0 0 24 24" width="24" xmlns="http://www.w3.org/2000/svg"><path d="m4 3h16c.2652 0 .5196.10536.7071.29289.1875.18754.2929.44189.2929.70711v16c0 .2652-.1054.5196-.2929.7071s-.4419.2929-.7071.2929h-16c-.26522 0-.51957-.1054-.70711-.2929-.18753-.1875-.29289-.4419-.29289-.7071v-16c0-.26522.10536-.51957.29289-.70711.18754-.18753.44189-.29289.70711-.29289zm1 2v14h14v-14zm6 7.792c-.5264-.2297-.9576-.6337-1.22122-1.144-.26357-.5103-.34339-1.0958-.22605-1.65806.11735-.56224.42471-1.06692.87037-1.42919.4457-.36228 1.0025-.56004 1.5769-.56004s1.1312.19776 1.5769.56004c.4457.36227.753.86695.8704 1.42919.1173.56226.0375 1.14776-.2261 1.65806s-.6948.9143-1.2212 1.144v3.208h-2z" /></svg>