<svg fill="currentColor" height="24" viewBox="0 0 24 24" width="24" xmlns="http://www.w3.org/2000/svg"><path d="m12 22c-5.523 0-10-4.477-10-10s4.477-10 10-10 10 4.477 10 10-4.477 10-10 10zm0-2c2.1217 0 4.1566-.8429 5.6569-2.3431 1.5002-1.5003 2.3431-3.5352 2.3431-5.6569 0-2.12173-.8429-4.15656-2.3431-5.65685-1.5003-1.5003-3.5352-2.34315-5.6569-2.34315-2.12173 0-4.15656.84285-5.65685 2.34315-1.5003 1.50029-2.34315 3.53512-2.34315 5.65685 0 2.1217.84285 4.1566 2.34315 5.6569 1.50029 1.5002 3.53512 2.3431 5.65685 2.3431zm-1-7.208c-.5264-.2297-.9576-.6337-1.22122-1.144-.26357-.5103-.34339-1.0958-.22605-1.65806.11735-.56224.42471-1.06692.87037-1.42919.4457-.36228 1.0025-.56004 1.5769-.56004s1.1312.19776 1.5769.56004c.4457.36227.753.86695.8704 1.42919.1173.56226.0375 1.14776-.2261 1.65806s-.6948.9143-1.2212 1.144v3.208h-2z" /></svg>