<svg fill="currentColor" height="24" viewBox="0 0 24 24" width="24" xmlns="http://www.w3.org/2000/svg"><path d="m4 3h16c.2652 0 .5196.10536.7071.29289.1875.18754.2929.44189.2929.70711v16c0 .2652-.1054.5196-.2929.7071s-.4419.2929-.7071.2929h-16c-.26522 0-.51957-.1054-.70711-.2929-.18753-.1875-.29289-.4419-.29289-.7071v-16c0-.26522.10536-.51957.29289-.70711.18754-.18753.44189-.29289.70711-.29289zm7 9.792v3.208h2v-3.208c.5264-.2297.9576-.6337 1.2212-1.144s.3434-1.0958.2261-1.65806c-.1174-.56224-.4247-1.06692-.8704-1.42919-.4457-.36228-1.0025-.56004-1.5769-.56004s-1.1312.19776-1.5769.56004c-.44566.36227-.75302.86695-.87037 1.42919-.11734.56226-.03752 1.14776.22605 1.65806.26362.5103.69482.9143 1.22122 1.144z" /></svg>