<svg fill="currentColor" height="24" viewBox="0 0 24 24" width="24" xmlns="http://www.w3.org/2000/svg"><path d="m16.314 19.138h4.065c.0815-.0001.1622.0158.2376.0469.0753.0311.1438.0768.2015.1343.0576.0576.1034.126.1346.2013s.0473.156.0473.2375v.621c.0001.0815-.0158.1622-.0469.2376-.0311.0753-.0768.1438-.1343.2015-.0576.0576-.126.1034-.2013.1346s-.156.0473-.2375.0473h-16.76c-.16443 0-.32213-.0653-.43841-.1816-.11627-.1163-.18159-.274-.18159-.4384v-.621c-.00013-.0815.01581-.1622.04691-.2376.0311-.0753.07675-.1438.13433-.2015.05759-.0576.12598-.1034.20127-.1346.07528-.0312.15599-.0473.23749-.0473h3.754l-.96-3.104h2.19c.13057-.0003.2579.0406.36384.1169.10595.0763.1851.1842.22616.3081l.892 2.679h3.514l1.225-4.035h-9.653c-.16443 0-.32213-.0653-.43841-.1816-.11627-.1163-.18159-.274-.18159-.4384v-7.138c0-.16443.06532-.32213.18159-.43841.11628-.11627.27398-.18159.43841-.18159h13.656c.1644 0 .3221.06532.4384.18159.1163.11628.1816.27398.1816.43841v7.138c0 .1644-.0653.3221-.1816.4384s-.274.1816-.4384.1816h-1.289zm-12.383-16.138h16.138c.1644 0 .3221.06532.4384.18159.1163.11628.1816.27398.1816.43841v.621c.0001.0815-.0158.16223-.0469.23757s-.0768.1438-.1343.20148c-.0576.05768-.126.10344-.2013.13466s-.156.04729-.2375.04729h-16.138c-.16443 0-.32213-.06532-.43841-.18159-.11627-.11628-.18159-.27398-.18159-.43841v-.622c0-.16426.06518-.32181.18124-.43805.11606-.11625.2735-.18169.43776-.18195zm3.259 5.586c-.02044-.00013-.0407.00378-.05962.01151s-.03613.01913-.05063.03353c-.0145.01441-.026.03154-.03386.05041-.00785.01887-.01189.03911-.01189.05955v4.035c0 .086.07.155.156.155h9.62c.086 0 .156-.07.156-.155v-4.036c0-.02044-.004-.04068-.0119-.05955-.0078-.01887-.0194-.036-.0339-.05041-.0145-.0144-.0317-.0258-.0506-.03353s-.0392-.01164-.0596-.01151h-9.62z" /></svg>