<svg fill="currentColor" height="24" viewBox="0 0 24 24" width="24" xmlns="http://www.w3.org/2000/svg"><path d="m12.9999 13v5.585l1.828-1.828 1.415 1.415-4.243 4.242-4.24301-4.242 1.415-1.415 1.82801 1.828v-5.585zm-1-11c1.717.00008 3.3741.63111 4.6562 1.77312 1.2821 1.142 2.0999 2.71534 2.2978 4.42088 1.2443.33932 2.3297 1.1051 3.0667 2.1635.7369 1.0585 1.0784 2.3422.9649 3.6269s-.6749 2.4886-1.586 3.4014c-.9112.9128-2.1141 1.4764-3.3986 1.5922l-.001-1.978c.0016-1.5729-.6145-3.0834-1.7157-4.2065-1.1011-1.1232-2.5992-1.769-4.1718-1.7985s-3.09384.5597-4.23632 1.6407c-1.14248 1.0811-1.81478 2.5675-1.87219 4.1393l-.004.225v1.978c-1.28455-.1157-2.48759-.6791-3.39886-1.5918s-1.47281-2.1166-1.58646-3.4014c-.113655-1.2847.2278-2.5685.96469-3.627.73689-1.05854 1.82234-1.82441 3.06663-2.1638.19771-1.70562 1.01541-3.27909 2.29758-4.42113 1.28218-1.14205 2.93943-1.77301 4.65643-1.77287z" /></svg>