<svg fill="currentColor" height="24" viewBox="0 0 24 24" width="24" xmlns="http://www.w3.org/2000/svg"><path d="m1 14.5c-.000615-1.1045.28042-2.191.81655-3.1567s1.30965-1.77873 2.24745-2.36229c.24751-1.92991 1.1898-3.7035 2.65052-4.98884 1.46072-1.28535 3.33978-1.99437 5.28548-1.99437s3.8248.70902 5.2855 1.99437c1.4607 1.28534 2.403 3.05893 2.6505 4.98884 1.1632.72369 2.0681 1.79639 2.5853 3.06499s.6204 2.6681.2948 3.9989c-.3255 1.3307-1.0632 2.5245-2.1078 3.411-1.0445.8864-2.3423 1.4202-3.7083 1.5251l-10 .019c-3.356-.274-6-3.078-6-6.5zm15.848 4.487c.9458-.0727 1.8445-.4425 2.5676-1.0565.7231-.6139 1.2337-1.4407 1.4589-2.3623.2251-.9215.1533-1.8906-.2053-2.7688-.3585-.8783-.9855-1.6207-1.7912-2.1214l-.807-.503-.12-.94199c-.1869-1.44631-.8941-2.77506-1.9894-3.73791s-2.5038-1.4939-3.9621-1.4939-2.86678.53105-3.96208 1.4939c-1.09529.96285-1.80249 2.2916-1.98942 3.73791l-.12.94199-.805.503c-.8057.5006-1.43262 1.243-1.7912 2.1212-.35859.8781-.43051 1.8471-.20549 2.7686s.73546 1.7483 1.45844 2.3624c.72298.614 1.6215.9839 2.56725 1.0568l.173.013h9.35zm-3.848-6.987h3l-4 5-4-5h3v-3.99999h2z" /></svg>