<svg fill="currentColor" height="24" viewBox="0 0 24 24" width="24" xmlns="http://www.w3.org/2000/svg"><path d="m16 13 6.964 4.062-2.973.85 2.125 3.681-1.732 1-2.125-3.68-2.223 2.15zm-2-7h2v2h5c.2652 0 .5196.10536.7071.29289.1875.18754.2929.44189.2929.70711v4h-2v-3h-10v10h4v2h-5c-.26522 0-.51957-.1054-.70711-.2929-.18753-.1875-.29289-.4419-.29289-.7071v-5h-2v-2h2v-5c0-.26522.10536-.51957.29289-.70711.18754-.18753.44189-.29289.70711-.29289h5zm-10 8v2h-2v-2zm0-4v2h-2v-2zm0-4v2h-2v-2zm0-4v2h-2v-2zm4 0v2h-2v-2zm4 0v2h-2v-2zm4 0v2h-2v-2z" /></svg>