<svg fill="currentColor" height="24" viewBox="0 0 24 24" width="24" xmlns="http://www.w3.org/2000/svg"><path d="m19.989 11.572c-.082-1.57409-.6294-3.0884-1.573-4.351-.2875.30963-.5948.60024-.92.87-.9991.82985-2.1155 1.50719-3.313 2.01.167.35.32.689.455 1.009v.003c.0381.0894.0748.1794.11.27 1.514-.17 3.11-.108 4.657.101.206.028.4.058.584.088zm-9.385-7.45c.9745 1.37317 1.8732 2.79864 2.692 4.27 1.223-.482 2.234-1.09 3.048-1.767.2826-.23287.5485-.48515.796-.755-1.439-1.21028-3.2597-1.87267-5.14-1.87-.468-.00032-.9351.04017-1.396.121zm-6.351 5.875c.68123-.01719 1.36164-.05822 2.04-.123 1.63964-.14666 3.26528-.4215 4.862-.822-.8345-1.44979-1.73545-2.86029-2.7-4.227-1.03028.5104-1.93874 1.23641-2.66376 2.12879-.72501.89238-1.24962 1.93025-1.53824 3.04321zm1.53 7.038c.388-.567.898-1.205 1.575-1.899 1.454-1.49 3.17-2.65 5.156-3.29l.062-.018c-.165-.364-.32-.689-.476-.995-1.836.535-3.77.869-5.697 1.042-.94.085-1.783.122-2.403.128-.00177 1.8326.62829 3.6098 1.784 5.032zm9.222 2.38c-.3856-1.9447-.9315-3.8543-1.632-5.709-2.002.727-3.597 1.79-4.83 3.058-.4976.5024-.93918 1.0573-1.317 1.655 1.37881 1.0288 3.0537 1.5835 4.774 1.581 1.0299.0015 2.0504-.1965 3.005-.583zm1.873-1.075c1.5613-1.2002 2.6248-2.9343 2.987-4.87-.34-.085-.771-.17-1.245-.236-1.0539-.1518-2.1232-.1629-3.18-.033.5951 1.6788 1.0755 3.3961 1.438 5.14zm-4.878 3.66c-5.523 0-10-4.477-10-10s4.477-10 10-10 10 4.477 10 10-4.477 10-10 10z" /></svg>