<svg fill="currentColor" height="24" viewBox="0 0 24 24" width="24" xmlns="http://www.w3.org/2000/svg"><path d="m12 2c-5.52 0-10 4.48-10 10s4.48 10 10 10c5.51 0 10-4.48 10-10s-4.49-10-10-10zm6.605 4.61c1.2307 1.49931 1.9117 3.37437 1.93 5.314-.281-.054-3.101-.629-5.943-.271-.065-.141-.12-.293-.184-.445-.177-.417-.365-.8291-.564-1.236 3.145-1.28 4.577-3.124 4.761-3.362zm-6.605-3.135c2.17 0 4.154.814 5.662 2.148-.152.216-1.443 1.941-4.48 3.08-1.399-2.57-2.95-4.675-3.189-5 .6579-.15379 1.3314-.23031 2.007-.228zm-3.633.803c1.14443 1.58632 2.2017 3.23376 3.167 4.935-3.992 1.063-7.517 1.04-7.896 1.04.27483-1.29287.84461-2.50478 1.6649-3.54121.82029-1.03642 1.86892-1.86934 3.0641-2.43379zm-4.914 7.732v-.26c.37.01 4.512.065 8.775-1.215.25.477.477.965.694 1.453-.109.033-.228.065-.336.098-4.404 1.42-6.747 5.303-6.942 5.629-1.41016-1.5655-2.19036-3.598-2.19-5.705zm8.547 8.537c-1.8986.0032-3.74333-.6306-5.239-1.8.152-.315 1.888-3.656 6.703-5.337.022-.01.033-.01.054-.022.8123 2.0954 1.4228 4.2636 1.823 6.475-1.0552.454-2.1923.6868-3.341.684zm4.761-1.465c-.086-.52-.542-3.015-1.66-6.084 2.68-.423 5.023.271 5.315.369-.1824 1.1531-.6012 2.256-1.2302 3.2395s-1.4545 1.8263-2.4248 2.4755z" /></svg>