<svg fill="currentColor" height="24" viewBox="0 0 24 24" width="24" xmlns="http://www.w3.org/2000/svg"><path d="m11.0004 18v3h-1.99999v-3c-1.45594-.0005-2.88415-.3982-4.13071-1.1504-1.24657-.7523-2.26422-1.8304-2.9433-3.1183-.67907-1.2878-.993808-2.7366-.9103-4.19017.08351-1.45354.56211-2.85673 1.38421-4.05836s1.95654-2.15612 3.28105-2.76062c1.32452-.6045 2.78889-.83609 4.2353-.66979 1.44644.16629 2.82004.72415 3.97284 1.61346 1.1527.88931 2.041 2.07634 2.5689 3.43318.7524-.1447 1.5266-.13063 2.2732.04131s1.449.49797 2.0623.95718 1.1238 1.04148 1.4989 1.70949c.3752.66802.6066 1.40702.6795 2.16972.0729.7626-.0143 1.5321-.2561 2.2591-.2418.7269-.6328 1.3954-1.148 1.9625-.5151.567-1.1431 1.0202-1.8436 1.3305s-1.4581.4708-2.2242.4712zm2 2h2v3h-2z" /></svg>