<svg fill="currentColor" height="24" viewBox="0 0 24 24" width="24" xmlns="http://www.w3.org/2000/svg"><path d="m12 3.1-4.95 4.95c-.97889.979-1.64551 2.2263-1.91555 3.5841-.27003 1.3579-.13137 2.7653.39847 4.0443.52983 1.2791 1.42704 2.3723 2.57817 3.1414 1.15113.7692 2.50451 1.1797 3.88891 1.1797s2.7378-.4105 3.8889-1.1797c1.1511-.7691 2.0484-1.8623 2.5782-3.1414.5298-1.279.6685-2.6864.3985-4.0443-.2701-1.3578-.9367-2.6051-1.9156-3.5841zm0-2.828001 6.364 6.364001c1.2587 1.25868 2.1158 2.86232 2.4631 4.6081.3472 1.7459.169 3.5555-.5122 5.2s-1.8347 3.0501-3.3148 4.0391c-1.48.9889-3.2201 1.5167-5.0001 1.5167s-3.52008-.5278-5.00012-1.5167c-1.48004-.989-2.63359-2.3946-3.31478-4.0391s-.85943-3.4541-.51217-5.2c.34726-1.74578 1.20441-3.34942 2.46307-4.6081z" /></svg>