<svg fill="currentColor" height="24" viewBox="0 0 24 24" width="24" xmlns="http://www.w3.org/2000/svg"><path d="m8.64616 17.2598 3.39204 2.162 3.392-2.161 1.86 1.185-5.252 3.346-5.25204-3.346 1.86-1.185zm-.877-8.27996 2.39304-1.553-2.42504-1.574-2.457 1.517 2.49 1.61zm1.84 1.18996 2.39104 1.549 2.39-1.547-2.39-1.55296-2.39104 1.55196zm4.23104 2.74 2.424 1.568 2.45-1.502-2.485-1.612-2.389 1.545zm-1.84-6.67596 4.237-2.748 6.223 3.844-4.392 2.84296 4.393 2.85-6.226 3.819-4.235-2.742-4.23504 2.74-6.23-3.817 4.396-2.851-4.392-2.84196 6.224-3.843 4.23704 2.748zm1.837 1.192 2.393 1.554 2.489-1.61-2.456-1.517-2.426 1.574zm-3.677 5.48396-2.39004-1.546-2.486 1.613 2.451 1.502z" /></svg>