<svg fill="currentColor" height="24" viewBox="0 0 24 24" width="24" xmlns="http://www.w3.org/2000/svg"><path d="m15 2 4.707 4.707c.1876.18749.2929.44181.293.707v13.586c0 .2652-.1054.5196-.2929.7071s-.4419.2929-.7071.2929h-14c-.26522 0-.51957-.1054-.70711-.2929-.18753-.1875-.29289-.4419-.29289-.7071v-18c0-.26522.10536-.51957.29289-.70711.18754-.18753.44189-.29289.70711-.29289zm-3 5.5c-.7652-.00004-1.5015.29233-2.05826.81728-.55675.52496-.89185 1.24283-.93674 2.00672l-.005.176h2c0-.1617.0391-.3211.1142-.4644.0751-.14325.1838-.26618.3168-.35822s.2863-.15044.4469-.1702c.1605-.01975.3234-.00027.4748.05678s.2866.14997.3942.27077c.1075.12081.1842.26587.2233.42287.0392.1569.0397.321.0015.4782s-.1139.3027-.2207.4242l-.082.083-3.669 3.304v1.453h6v-2h-2.405l1.412-1.27-.006-.01.008.008c.4505-.4062.7672-.9394.9085-1.5292.1413-.5899.1004-1.20873-.1171-1.77491-.2176-.56618-.6017-1.05312-1.1016-1.39658-.5-.34346-1.0923-.52731-1.6988-.52731z" /></svg>