<svg fill="currentColor" height="24" viewBox="0 0 24 24" width="24" xmlns="http://www.w3.org/2000/svg"><path d="m15 2 4.707 4.707c.1876.18749.2929.44181.293.707v13.586c0 .2652-.1054.5196-.2929.7071s-.4419.2929-.7071.2929h-14c-.26522 0-.51957-.1054-.70711-.2929-.18753-.1875-.29289-.4419-.29289-.7071v-18c0-.26522.10536-.51957.29289-.70711.18754-.18753.44189-.29289.70711-.29289zm-.829 2h-8.171v16h12v-12.171zm-2.171 3.5c.6065 0 1.1988.18385 1.6988.52731.4999.34346.884.8304 1.1016 1.39658.2175.56618.2584 1.18501.1171 1.77491-.1413.5898-.458 1.123-.9085 1.5292l-.008-.008.006.01-1.412 1.27h2.405v2h-6v-1.453l3.67-3.304c.1237-.1116.2175-.2524.273-.4094.0554-.1571.0708-.3256.0446-.4901s-.0931-.3199-.1945-.45201c-.1015-.13212-.2344-.23679-.3866-.3045-.1522-.06772-.3189-.09634-.485-.08326-.1661.01307-.3263.06743-.466.15814-.1397.0907-.2546.21488-.3341.36123-.0796.1464-.1213.3103-.1214.4769h-2c0-.79565.31607-1.55871.87868-2.12132.56262-.56261 1.32572-.87868 2.12132-.87868z" /></svg>