<svg fill="currentColor" height="24" viewBox="0 0 24 24" width="24" xmlns="http://www.w3.org/2000/svg"><path d="m16 1c.5523 0 1 .44772 1 1v1h5v6h-2.0187l2.7458 7.5439c.1762.4509.2729.9417.2729 1.4551 0 2.2092-1.7909 4-4 4-1.8635 0-3.4293-1.2743-3.8737-2.999h-4.2523c-.4441 1.7252-2.01016 3-3.874 3-1.94449 0-3.56492-1.3875-3.92526-3.2264-.63878-.334-1.07474-1.0029-1.07474-1.7736v-10c0-.55228.44772-1 1-1h7c.5523 0 1 .44772 1 1v5c0 .5523.4477 1 1 1h2c.5523 0 1-.4477 1-1v-9h-3v-2zm-9 15c-1.10457 0-2 .8954-2 2s.89543 2 2 2 2-.8954 2-2-.89543-2-2-2zm12-.001c-1.1046 0-2 .8954-2 2s.8954 2 2 2 2-.8954 2-2c0-.2403-.0424-.4708-.1201-.6842l-.0164-.0434c-.291-.7448-1.0156-1.2724-1.8635-1.2724zm-1.147-6.999h-.853v3c0 1.6569-1.3431 3-3 3h-2c-1.6569 0-3-1.3431-3-3h-5v3.3542c.73294-.8304 1.80531-1.3542 3-1.3542 1.86384 0 3.4299 1.2748 3.874 3h4.2518c.4437-1.7257 2.01-3.001 3.8742-3.001.2368 0 .4688.0206.6943.0601zm-8.853-1h-5v2h5zm11-3h-3v2h3z" /></svg>