<svg fill="currentColor" height="24" viewBox="0 0 24 24" width="24" xmlns="http://www.w3.org/2000/svg"><path d="m15.5 6.9369c1.0645.61421 1.9484 1.49795 2.5628 2.5623.6144 1.0643.9376 2.2717.9372 3.5007v8h-4.17c-.2066.5855-.5897 1.0926-1.0966 1.4512-.5069.3587-1.1125.5512-1.7334.5512s-1.2265-.1925-1.7334-.5512c-.50686-.3586-.89-.8657-1.0966-1.4512h-4.17v-8c-.00045-1.229.3228-2.4364.93721-3.5007.61442-1.06435 1.49833-1.94809 2.56279-2.5623-.16431-.29513-.29033-.61-.375-.937h-3.125v-2h3.126c.22244-.85824.72357-1.61832 1.42474-2.16093.70116-.54261 1.56266-.83702 2.44926-.83702s1.7481.29441 2.4493.83702c.7011.54261 1.2023 1.30269 1.4247 2.16093h3.126v2h-3.126c-.085.33-.212.645-.373.937zm-3.5 7.063c-.2652 0-.5196.1054-.7071.2929s-.2929.4419-.2929.7071v5c0 .2652.1054.5196.2929.7071s.4419.2929.7071.2929.5196-.1054.7071-.2929.2929-.4419.2929-.7071v-5c0-.2652-.1054-.5196-.2929-.7071s-.4419-.2929-.7071-.2929zm0-7c.5304 0 1.0391-.21072 1.4142-.58579s.5858-.88378.5858-1.41421c0-.53044-.2107-1.03914-.5858-1.41422-.3751-.37507-.8838-.58578-1.4142-.58578s-1.0391.21071-1.4142.58578c-.3751.37508-.5858.88378-.5858 1.41422 0 .53043.2107 1.03914.5858 1.41421s.8838.58579 1.4142.58579z" /></svg>