<svg fill="currentColor" height="24" viewBox="0 0 24 24" width="24" xmlns="http://www.w3.org/2000/svg"><path d="m16 1c.5523 0 1 .44772 1 1v1h5v6h-2.019l2.7461 7.5448c.1762.451.2729.9418.2729 1.4552 0 2.2091-1.7909 4-4 4-1.8638 0-3.4299-1.2748-3.874-3h-4.252c-.4441 1.7252-2.01016 3-3.874 3-1.94449 0-3.56492-1.3875-3.92526-3.2264-.63878-.334-1.07474-1.0029-1.07474-1.7736v-10c0-.55228.44772-1 1-1h7c.5523 0 1 .44772 1 1v5c0 .5523.4477 1 1 1h2c.5523 0 1-.4477 1-1v-9h-3v-2zm3 15c-1.1046 0-2 .8954-2 2s.8954 2 2 2 2-.8954 2-2c0-.2403-.0424-.4708-.1201-.6842l-.0164-.0434c-.291-.7448-1.0156-1.2724-1.8635-1.2724zm-12 0c-1.10457 0-2 .8954-2 2s.89543 2 2 2 2-.8954 2-2-.89543-2-2-2zm2-8h-5v2h5zm11-3h-3v2h3z" /></svg>