<svg fill="currentColor" height="24" viewBox="0 0 24 24" width="24" xmlns="http://www.w3.org/2000/svg"><path d="m5 21c-.24493-.0001-.48134-.09-.66437-.2527-.18304-.1628-.29997-.3871-.32863-.6303l-.007-.117v-9h-3l10.327-9.38803c.1678-.15271.3826-.24381.609-.25835s.451.04835.637.17835l.1.08 10.327 9.38803h-3v9c0 .2449-.09.4813-.2527.6643-.1628.1831-.387.3-.6303.3287l-.117.007zm7-17.29803-6 5.454v9.84403h4.357l1.393-1.5-3.75-3.5 5-3-2.5-2.00003 3-3-.5 3 2.5 2.00003-4 3 3.5 3-1.25 2h4.25v-9.84303z" /></svg>