<svg fill="currentColor" height="24" viewBox="0 0 24 24" width="24" xmlns="http://www.w3.org/2000/svg"><path d="m12.684 4.029c-1.6346-.14022-3.27278.22551-4.69254 1.04762-1.41975.82211-2.55243 2.06084-3.24452 3.54831-.69208 1.48747-.91011 3.15177-.62454 4.76737.28557 1.6155 1.06094 3.1042 2.22102 4.2643s2.64877 1.9354 4.26428 2.221c1.6156.2856 3.2799.0675 4.7674-.6245 1.4874-.6921 2.7262-1.8248 3.5483-3.2446.8221-1.4197 1.1878-3.0579 1.0476-4.6925-.0701-.8402-.2737-1.66386-.603-2.44l1.5-1.502c.7469 1.42739 1.1354 3.015 1.132 4.626 0 5.523-4.477 10-10 10s-10-4.477-10-10 4.477-10 10-10c1.6107-.00143 3.1979.38696 4.626 1.132l-1.501 1.5c-.7762-.32926-1.5998-.5328-2.44-.603zm7.801-1.929 1.415 1.415-9.192 9.192-1.412.003-.002-1.417z" /></svg>