<svg fill="currentColor" height="24" viewBox="0 0 24 24" width="24" xmlns="http://www.w3.org/2000/svg"><path d="m12.416 3.62398 7.066 10.59902c.0501.0753.0788.1627.0832.2531.0043.0903-.016.1801-.0587.2599-.0426.0797-.1062.1464-.1837.1929-.0776.0465-.1664.071-.2568.0711h-14.132c-.09044-.0001-.17918-.0246-.25676-.0711s-.14109-.1132-.18378-.1929c-.04269-.0798-.06295-.1696-.05863-.2599.00432-.0904.03307-.1778.08317-.2531l7.066-10.59902c.0457-.06848.1075-.12463.1801-.16346s.1536-.05915.2359-.05915.1633.02032.2359.05915.1344.09498.1801.16346zm-7.416 13.37602h14c.2652 0 .5196.1053.7071.2929.1875.1875.2929.4419.2929.7071s-.1054.5196-.2929.7071-.4419.2929-.7071.2929h-14c-.26522 0-.51957-.1054-.70711-.2929-.18753-.1875-.29289-.4419-.29289-.7071s.10536-.5196.29289-.7071c.18754-.1876.44189-.2929.70711-.2929z" /></svg>