<svg fill="currentColor" height="24" viewBox="0 0 24 24" width="24" xmlns="http://www.w3.org/2000/svg"><path d="m12 22c-5.523 0-10-4.477-10-10s4.477-10 10-10 10 4.477 10 10-4.477 10-10 10zm0-2c2.1217 0 4.1566-.8429 5.6569-2.3431 1.5002-1.5003 2.3431-3.5352 2.3431-5.6569 0-2.12173-.8429-4.15656-2.3431-5.65685-1.5003-1.5003-3.5352-2.34315-5.6569-2.34315-2.12173 0-4.15656.84285-5.65685 2.34315-1.5003 1.50029-2.34315 3.53512-2.34315 5.65685 0 2.1217.84285 4.1566 2.34315 5.6569 1.50029 1.5002 3.53512 2.3431 5.65685 2.3431zm-5-7h2c0 .7956.31607 1.5587.87868 2.1213.56262.5626 1.32572.8787 2.12132.8787s1.5587-.3161 2.1213-.8787.8787-1.3257.8787-2.1213h2c0 1.3261-.5268 2.5979-1.4645 3.5355-.9376.9377-2.2094 1.4645-3.5355 1.4645s-2.59785-.5268-3.53553-1.4645c-.93769-.9376-1.46447-2.2094-1.46447-3.5355zm1-2c-.39782 0-.77936-.158-1.06066-.4393s-.43934-.66288-.43934-1.0607.15804-.77936.43934-1.06066.66284-.43934 1.06066-.43934.77936.15804 1.06066.43934.43934.66284.43934 1.06066-.15804.7794-.43934 1.0607-.66284.4393-1.06066.4393zm8 0c-.3978 0-.7794-.158-1.0607-.4393s-.4393-.66288-.4393-1.0607.158-.77936.4393-1.06066.6629-.43934 1.0607-.43934.7794.15804 1.0607.43934.4393.66284.4393 1.06066-.158.7794-.4393 1.0607-.6629.4393-1.0607.4393z" /></svg>