<svg fill="currentColor" height="24" viewBox="0 0 24 24" width="24" xmlns="http://www.w3.org/2000/svg"><path d="m12 2c5.523 0 10 4.477 10 10 0 .727-.077 1.435-.225 2.118l-1.782-1.783c.0734-1.7552-.4331-3.48585-1.4411-4.92463-1.0081-1.43878-2.4617-2.50573-4.1365-3.03615-1.6748-.53041-3.4777-.49479-5.13019.10137-1.65254.59616-3.0629 1.7197-4.01334 3.19718s-1.38812 3.22673-1.24547 4.97773.8577 3.4063 2.03476 4.7105c1.17706 1.3041 2.75068 2.1845 4.47794 2.5054 1.7272.3208 3.512.0641 5.0789-.7304.3817.6049.9187 1.0963 1.555 1.423-1.5598.9451-3.3492 1.4435-5.173 1.441-5.523 0-10-4.477-10-10s4.477-10 10-10zm7 12.172 1.414 1.414c.2753.2752.4642.6247.5438 1.0056.0796.381.0462.7769-.0959 1.1393-.1421.3623-.3869.6753-.7043.9005-.3174.2253-.6936.3531-1.0825.3677-.389.0146-.7737-.0846-1.1071-.2855-.3334-.2008-.6009-.4945-.7698-.8452-.1689-.3506-.2318-.7429-.1811-1.1288.0508-.3859.213-.7486.4669-1.0436l.102-.11zm-7 .828c1.466 0 2.785.631 3.7 1.637l-.945.86c-.79-.315-1.737-.497-2.755-.497s-1.965.183-2.755.496l-.945-.86c.46821-.5161 1.03937-.9283 1.67666-1.21.63724-.2818 1.32654-.4269 2.02334-.426zm-3.5-5c.39782 0 .77936.158 1.06066.4393s.43934.6629.43934 1.0607-.15804.7794-.43934 1.0607-.66284.4393-1.06066.4393-.77936-.158-1.06066-.4393-.43934-.6629-.43934-1.0607.15804-.7794.43934-1.0607.66284-.4393 1.06066-.4393zm7 0c.3978 0 .7794.158 1.0607.4393s.4393.6629.4393 1.0607-.158.7794-.4393 1.0607-.6629.4393-1.0607.4393-.7794-.158-1.0607-.4393-.4393-.6629-.4393-1.0607.158-.7794.4393-1.0607.6629-.4393 1.0607-.4393z" /></svg>