<svg fill="currentColor" height="24" viewBox="0 0 24 24" width="24" xmlns="http://www.w3.org/2000/svg"><path d="m12 2c5.523 0 10 4.477 10 10 .0024 1.5614-.3624 3.1016-1.065 4.496-.0734-.2847-.2094-.5495-.398-.775l-.123-.135-1.414-1.414-1.414 1.414-.117.127c-.2534.3012-.4122.6704-.4567 1.0615-.0445.391.0274.7865.2066 1.1369.1793.3504.4579.6401.8011.8329.3431.1927.7355.2799 1.128.2507-.9305.9527-2.0424 1.7094-3.27 2.2256-1.2277.5161-2.5463.7811-3.878.7794-5.523 0-10-4.477-10-10s4.477-10 10-10zm0 13c-1.38 0-2.63.56-3.534 1.463l-.166.174.945.86c.79-.315 1.737-.497 2.755-.497.905 0 1.754.144 2.486.396l.269.1.945-.86c-.4682-.5161-1.0394-.9283-1.6767-1.21-.6372-.2818-1.3265-.4269-2.0233-.426zm-3.5-5c-.39782 0-.77936.158-1.06066.4393s-.43934.6629-.43934 1.0607.15804.7794.43934 1.0607.66284.4393 1.06066.4393.77936-.158 1.06066-.4393.43934-.6629.43934-1.0607-.15804-.7794-.43934-1.0607-.66284-.4393-1.06066-.4393zm7 0c-.3978 0-.7794.158-1.0607.4393s-.4393.6629-.4393 1.0607.158.7794.4393 1.0607.6629.4393 1.0607.4393.7794-.158 1.0607-.4393.4393-.6629.4393-1.0607-.158-.7794-.4393-1.0607-.6629-.4393-1.0607-.4393z" /></svg>