<svg fill="currentColor" height="24" viewBox="0 0 24 24" width="24" xmlns="http://www.w3.org/2000/svg"><path d="m12 22c-5.523 0-10-4.477-10-10s4.477-10 10-10 10 4.477 10 10-4.477 10-10 10zm-4-8v2h8v-2zm0-3c.39782 0 .77936-.158 1.06066-.4393s.43934-.66288.43934-1.0607-.15804-.77936-.43934-1.06066-.66284-.43934-1.06066-.43934-.77936.15804-1.06066.43934-.43934.66284-.43934 1.06066.15804.7794.43934 1.0607.66284.4393 1.06066.4393zm8 0c.3978 0 .7794-.158 1.0607-.4393s.4393-.66288.4393-1.0607-.158-.77936-.4393-1.06066-.6629-.43934-1.0607-.43934-.7794.15804-1.0607.43934-.4393.66284-.4393 1.06066.158.7794.4393 1.0607.6629.4393 1.0607.4393z" /></svg>