<svg fill="currentColor" height="24" viewBox="0 0 24 24" width="24" xmlns="http://www.w3.org/2000/svg"><path d="m12 2c5.523 0 10 4.477 10 10s-4.477 10-10 10-10-4.477-10-10 4.477-10 10-10zm0 9c-2 0-3.667.333-5 1 0 1.3261.52678 2.5979 1.46447 3.5355.93768.9377 2.20943 1.4645 3.53553 1.4645s2.5979-.5268 3.5355-1.4645c.9377-.9376 1.4645-2.2094 1.4645-3.5355-1.333-.667-3-1-5-1zm-3.5-4c-1.152 0-2.122.78-2.412 1.84l-.038.16h4.9c-.1153-.56468-.4221-1.0722-.8685-1.43665-.44651-.36446-1.00517-.56347-1.5815-.56335zm7 0c-1.152 0-2.122.78-2.412 1.84l-.038.16h4.9c-.1153-.56468-.4221-1.0722-.8685-1.43665-.4465-.36446-1.0052-.56347-1.5815-.56335z" /></svg>