<svg fill="currentColor" height="24" viewBox="0 0 24 24" width="24" xmlns="http://www.w3.org/2000/svg"><path d="m12 2c5.523 0 10 4.477 10 10s-4.477 10-10 10-10-4.477-10-10 4.477-10 10-10zm0 2c-2.12173 0-4.15656.84285-5.65685 2.34315-1.5003 1.50029-2.34315 3.53512-2.34315 5.65685 0 2.1217.84285 4.1566 2.34315 5.6569 1.50029 1.5002 3.53512 2.3431 5.65685 2.3431 2.1217 0 4.1566-.8429 5.6569-2.3431 1.5002-1.5003 2.3431-3.5352 2.3431-5.6569 0-2.12173-.8429-4.15656-2.3431-5.65685-1.5003-1.5003-3.5352-2.34315-5.6569-2.34315zm0 7c2 0 3.667.333 5 1 0 1.3261-.5268 2.5979-1.4645 3.5355-.9376.9377-2.2094 1.4645-3.5355 1.4645s-2.59785-.5268-3.53553-1.4645c-.93769-.9376-1.46447-2.2094-1.46447-3.5355 1.333-.667 3-1 5-1zm-3.5-4c.57633-.00012 1.13499.19889 1.5815.56335.4464.36445.7532.87197.8685 1.43665h-4.9c.11527-.56468.42209-1.0722.86855-1.43665.44646-.36446 1.00512-.56347 1.58145-.56335zm7 0c.5763-.00012 1.135.19889 1.5815.56335.4464.36445.7532.87197.8685 1.43665h-4.9c.1153-.56468.4221-1.0722.8685-1.43665.4465-.36446 1.0052-.56347 1.5815-.56335z" /></svg>