<svg fill="currentColor" height="24" viewBox="0 0 24 24" width="24" xmlns="http://www.w3.org/2000/svg"><path d="m18.3643 10.98c1.562 1.561 1.562 4.094 0 5.656l-5.657 5.657c-.39.39-1.024.39-1.414 0l-5.65696-5.657c-1.562-1.562-1.562-4.095 0-5.657s4.095-1.562 5.65696 0l.706.707.708-.707c1.562-1.562 4.095-1.562 5.657 0zm-11.31396 1.412c-.78.781-.78 2.048 0 2.829l4.94996 4.95 4.95-4.95c.78-.781.78-2.048 0-2.829-.781-.78-2.048-.78-2.83.002l-2.122 2.118-2.11996-2.12c-.78-.78-2.047-.78-2.828 0zm4.94996-11.392c2.21 0 4 1.79 4 4s-1.79 4-4 4c-2.20996 0-3.99996-1.79-3.99996-4s1.79-4 3.99996-4zm0 2c-1.105 0-2 .895-2 2s.895 2 2 2 2-.895 2-2-.895-2-2-2z" /></svg>