<svg fill="currentColor" height="24" viewBox="0 0 24 24" width="24" xmlns="http://www.w3.org/2000/svg"><path d="m6.17 18c.2066-.5855.58974-1.0926 1.0966-1.4512s1.11249-.5512 1.7334-.5512 1.2265.1926 1.7334.5512.89.8657 1.0966 1.4512h10.17v2h-10.17c-.2066.5855-.5897 1.0926-1.0966 1.4512-.5069.3587-1.11249.5513-1.7334.5513s-1.22654-.1926-1.7334-.5513c-.50686-.3586-.89-.8657-1.0966-1.4512h-4.17v-2zm6-7c.2066-.5855.5897-1.09256 1.0966-1.4512.5069-.35865 1.1125-.55124 1.7334-.55124s1.2265.19259 1.7334.55124c.5069.35864.89.8657 1.0966 1.4512h4.17v2h-4.17c-.2066.5855-.5897 1.0926-1.0966 1.4512-.5069.3587-1.1125.5513-1.7334.5513s-1.2265-.1926-1.7334-.5513c-.5069-.3586-.89-.8657-1.0966-1.4512h-10.17v-2zm-6-6.99999c.2066-.58553.58974-1.09257 1.0966-1.45121.50686-.35865 1.11249-.55124 1.7334-.55124s1.2265.19259 1.7334.55124c.5069.35864.89.86568 1.0966 1.45121h10.17v2h-10.17c-.2066.58553-.5897 1.09257-1.0966 1.45121s-1.11249.55124-1.7334.55124-1.22654-.1926-1.7334-.55124-.89-.86568-1.0966-1.45121h-4.17v-2zm2.83 2c.26522 0 .51957-.10536.70711-.29289.18753-.18754.29289-.44189.29289-.70711s-.10536-.51957-.29289-.70711c-.18754-.18753-.44189-.29289-.70711-.29289s-.51957.10536-.70711.29289c-.18753.18754-.29289.44189-.29289.70711s.10536.51957.29289.70711c.18754.18753.44189.29289.70711.29289zm6 6.99999c.2652 0 .5196-.1053.7071-.2929.1875-.1875.2929-.4419.2929-.7071s-.1054-.5196-.2929-.7071-.4419-.2929-.7071-.2929-.5196.1054-.7071.2929-.2929.4419-.2929.7071.1054.5196.2929.7071c.1875.1876.4419.2929.7071.2929zm-6 7c.26522 0 .51957-.1053.70711-.2929.18753-.1875.29289-.4419.29289-.7071s-.10536-.5196-.29289-.7071c-.18754-.1875-.44189-.2929-.70711-.2929s-.51957.1054-.70711.2929c-.18753.1875-.29289.4419-.29289.7071s.10536.5196.29289.7071c.18754.1876.44189.2929.70711.2929z" /></svg>