<svg fill="currentColor" height="24" viewBox="0 0 24 24" width="24" xmlns="http://www.w3.org/2000/svg"><path d="m8.58644 8.858-4.95 4.95 5.194 5.194h1.16996v-.002h1.172l3.778-3.778zm1.41396-1.414 6.364 6.364 2.828-2.829-6.364-6.364zm4 11.556h7v2h-9l-3.99796.002-6.487-6.487c-.18747-.1875-.29278-.4418-.29278-.707s.10531-.5195.29278-.707l10.60496-10.607c.0929-.09298.2032-.16673.3246-.21706.1214-.05032.2515-.07623.3829-.07623.1315 0 .2616.02591.383.07623.1214.05033.2317.12408.3245.21706l7.778 7.778c.1875.1875.2928.4418.2928.707s-.1053.5195-.2928.707z" /></svg>