<svg fill="currentColor" height="24" viewBox="0 0 24 24" width="24" xmlns="http://www.w3.org/2000/svg"><path d="m10.5 8.5c0 .26522-.1054.51957-.2929.70711-.1875.18753-.44188.29289-.7071.29289h-3.499c-.336 0-.501.261-.501.532 0 1.32.254 2.372.664 3.193.216.433.399.67.523.79.735.76 1.886 1.16 3.092 1.089.095-.006.199-.064.332-.208.0829-.0887.1547-.1871.214-.293.2048-.4685.5812-.8407 1.0519-1.0403.4707-.1995 1-.2112 1.4791-.0327.693.258 1.277.434 1.813.56.196.046.375.083.586.122-.077-.014.402.074.518.098.34.07.598.146.883.29.6969.3492 1.3041.8538 1.775 1.475.045-.591.077-1.268.087-2.026.0325-2.2373-.1547-4.47232-.559-6.673-.074-.398-.236-.562-.663-.718-.1913-.06705-.3876-.11888-.587-.155-.147-.028-.65-.11-.693-.118-.7801-.13561-1.5601-.27194-2.34-.409l-.528-.092c-.3414-.05993-.6614-.20759-.9286-.42848s-.4724-.50743-.5954-.83152c-.0112-.02938-.0225-.05871-.034-.088-.233-.0267-.4675-.03873-.702-.036-.271 0-.388.124-.388.463zm6.23 11.639c.352-.356.56-.829.587-1.327.054-1.036-.824-2.48-2.317-2.634-.617-.063-1.586-.306-2.842-.774 0 0-.7 1.603-2.26 1.696-1.665.1-3.43-.433-4.65-1.696 0 0-1.748-1.64-1.748-5.372 0-.814.29-1.422.648-1.904.96-1.292 2.505-2.78 4.133-4.304.719-.674 1.42-1.324 2.607-1.324 2.04 0 2.32.664 2.605 1.414l2.854.499c.907.166 3.15.316 3.578 2.594 1.006 5.42.458 9.87.347 10.675-.71 5.121-4.772 4.871-4.931 4.871-2.059 0-3.178-1.373-3.183-2.677-.0015-.3972.092-.789.2725-1.1428.1806-.3538.443-.6593.7655-.8912.4457-.3168.9803-.4841 1.527-.478.305 0 .687.318.687.753 0 .37-.255.575-.382.645-.223.124-1.122.174-1.122.865 0 .317.35 1.114 1.386 1.114.588 0 1.094-.256 1.437-.602zm-1.796-9.51c.166-.415.627-.632 1.172-.582.544.067.956.4 1.006.848 0 .083.017.183-.017.233-.032.05-.066.067-.1.067-.213.033-.543 0-1.021-.05-.48-.05-.808-.1-1.006-.2-.033-.017-.066-.033-.083-.083s.016-.15.05-.233z" /></svg>