<svg fill="currentColor" height="24" viewBox="0 0 24 24" width="24" xmlns="http://www.w3.org/2000/svg"><path d="m5.373 4.51001c1.8267-1.62062 4.18503-2.51385 6.627-2.51 5.523 0 10 4.477 10 9.99999.0033 2.0439-.6228 4.0393-1.793 5.715l-2.707-5.715h2.5c0-1.5906-.4741-3.14518-1.3619-4.46504-.8877-1.31986-2.1488-2.34511-3.6221-2.94479-1.4732-.59968-3.0918-.74655-4.649-.42186-1.55715.32469-2.98216 1.1062-4.093 2.2447l-.9-1.902zm13.254 14.97999c-1.8267 1.6206-4.185 2.5139-6.627 2.51-5.523 0-10-4.477-10-10 0-2.12499.663-4.09499 1.793-5.71499l2.707 5.71499h-2.5c-.00003 1.5907.47412 3.1452 1.36188 4.4651.88776 1.3198 2.14882 2.3451 3.62209 2.9448 1.47323.5996 3.09183.7465 4.64903.4218 1.5571-.3247 2.9822-1.1062 4.093-2.2447l.9 1.902zm-10.127-5.49h5.5c.1326 0 .2598-.0527.3536-.1464.0937-.0938.1464-.221.1464-.3536s-.0527-.2598-.1464-.3535c-.0938-.0938-.221-.1465-.3536-.1465h-4c-.66304 0-1.29893-.2634-1.76777-.7322-.46884-.4689-.73223-1.1047-.73223-1.7678 0-.66303.26339-1.29891.73223-1.76775.46884-.46885 1.10473-.73224 1.76777-.73224h1v-1h2v1h2.5v1.99999h-5.5c-.13261 0-.25979.0527-.35355.1465-.09377.0937-.14645.2209-.14645.3535s.05268.2598.14645.3536c.09376.0937.22094.1464.35355.1464h4c.663 0 1.2989.2634 1.7678.7322.4688.4689.7322 1.1048.7322 1.7678 0 .6631-.2634 1.2989-.7322 1.7678-.4689.4688-1.1048.7322-1.7678.7322h-1v1h-2v-1h-2.5z" /></svg>