<svg fill="currentColor" height="24" viewBox="0 0 24 24" width="24" xmlns="http://www.w3.org/2000/svg"><path d="m19.375 15.103c.6489-1.5417.7983-3.248.4271-4.879-.3711-1.63097-1.2441-3.10462-2.4961-4.21376-1.2521-1.10914-2.8203-1.79799-4.4841-1.96969-1.6639-.17171-3.33968.18237-4.79186 1.01244l-.992-1.737c1.51763-.86739 3.23616-1.32164 4.98416-1.31743 1.7481.00422 3.4644.46674 4.9778 1.34143 4.49 2.592 6.21 8.14201 4.117 12.77001l1.342.774-4.165 2.214-.165-4.714zm-14.74996-6.20601c-.64886 1.54171-.79822 3.24801-.42708 4.87901.37113 1.6309 1.24409 3.1046 2.49615 4.2137 1.25206 1.1092 2.82025 1.798 4.48409 1.9697 1.6638.1717 3.3397-.1823 4.7918-1.0124l.992 1.737c-1.5176.8674-3.2362 1.3216-4.9842 1.3174s-3.46433-.4667-4.97776-1.3414c-4.49-2.592-6.210001-8.142-4.117-12.77001l-1.343-.773 4.165-2.214.165 4.714-1.246-.719zm8.37496 4.63901h3v2h-3v2h-2v-2h-2.99996v-2h2.99996v-1h-2.99996v-2h2.58596l-2.12196-2.12201 1.416-1.414 2.11996 2.121 2.121-2.121 1.415 1.414-2.122 2.12201h2.586v2h-3z" /></svg>