<svg fill="currentColor" height="24" viewBox="0 0 24 24" width="24" xmlns="http://www.w3.org/2000/svg"><path d="m19.375 15.103c.6489-1.5417.7983-3.248.4271-4.879-.3711-1.63097-1.2441-3.10462-2.4961-4.21376-1.2521-1.10914-2.8203-1.79799-4.4841-1.96969-1.6639-.17171-3.33968.18237-4.79186 1.01244l-.992-1.737c1.51763-.86739 3.23616-1.32164 4.98416-1.31743 1.7481.00422 3.4644.46674 4.9778 1.34143 4.49 2.592 6.21 8.14201 4.117 12.77001l1.342.774-4.165 2.214-.165-4.714zm-14.74996-6.20601c-.64886 1.54171-.79822 3.24801-.42708 4.87901.37113 1.6309 1.24409 3.1046 2.49615 4.2137 1.25206 1.1092 2.82025 1.798 4.48409 1.9697 1.6638.1717 3.3397-.1823 4.7918-1.0124l.992 1.737c-1.5176.8674-3.2362 1.3216-4.9842 1.3174s-3.46433-.4667-4.97776-1.3414c-4.49-2.592-6.210001-8.142-4.117-12.77001l-1.343-.773 4.165-2.214.165 4.714-1.246-.719zm3.875 5.10301h5.49996c.1326 0 .2598-.0527.3536-.1465.0938-.0937.1464-.2209.1464-.3535s-.0526-.2598-.1464-.3536c-.0938-.0937-.221-.1464-.3536-.1464h-4c-.663 0-1.29889-.2634-1.76773-.7322-.46884-.4689-.73223-1.1048-.73223-1.7678 0-.66306.26339-1.29894.73223-1.76778s1.10473-.73223 1.76773-.73223h1v-1h2v1h2.5v2h-5.5c-.13257 0-.25975.05271-.35351.14641-.09377.0938-.14645.221-.14645.3536s.05268.2598.14645.3535c.09376.0938.22094.1465.35351.1465h4c.6631 0 1.299.2634 1.7678.7322.4688.4689.7322 1.1047.7322 1.7678 0 .663-.2634 1.2989-.7322 1.7678-.4688.4688-1.1047.7322-1.7678.7322h-1v1h-2v-1h-2.49996z" /></svg>