<svg fill="currentColor" height="24" viewBox="0 0 24 24" width="24" xmlns="http://www.w3.org/2000/svg"><path d="m17.8817 19.2971c-1.7588 1.1155-3.7993 1.7063-5.882 1.703-5.39204 0-9.87804-3.88-10.81904-9 .43003-2.32932 1.60163-4.45714 3.34-6.06603l-3.129-3.126 1.415-1.415 19.79904 19.80003-1.415 1.414-3.31-3.31zm-11.94704-11.94703c-1.35899 1.23559-2.30568 2.85883-2.712 4.65003.3123 1.3664.93927 2.6411 1.83101 3.7226.89174 1.0814 2.02362 1.9398 3.30555 2.5067 1.28192.5669 2.67848.8267 4.07858.7588 1.4-.0679 2.7648-.4618 3.9859-1.1501l-2.028-2.028c-.8633.5438-1.8858.7781-2.8998.6644s-1.9592-.5685-2.68067-1.29-1.17634-1.6667-1.29-2.6807c-.11367-1.0139.12062-2.0364.66443-2.89973zm6.97904 6.97803-3.24204-3.242c-.17793.4529-.21981.9479-.12049 1.4243s.33551.9134.67963 1.2575c.3441.3442.7811.5803 1.2575.6797.4764.0993.9714.0574 1.4244-.1205zm7.893 2.264-1.431-1.43c.6684-.9527 1.1444-2.0268 1.401-3.162-.2718-1.1903-.7828-2.31289-1.5019-3.29954s-1.6313-1.81677-2.6813-2.43989c-1.0499-.62312-2.2155-1.02624-3.4261-1.18484s-2.4407-.06938-3.61574.26224l-1.578-1.578c1.247-.49 2.60604-.76 4.02604-.76 5.392 0 9.878 3.88 10.819 9.00003-.3065 1.6657-.9952 3.2376-2.012 4.592zm-9.084-9.08403c.6365-.03934 1.2741.05706 1.8705.28281s1.1381.5757 1.589 1.02664c.451.45094.8009.99257 1.0266 1.58898.2258.5965.3222 1.2341.2829 1.8706l-4.77-4.76903z" /></svg>