<svg fill="currentColor" height="24" viewBox="0 0 24 24" width="24" xmlns="http://www.w3.org/2000/svg"><path d="m10.1298 15.842-.78802 2.94-1.931-.518.787-2.939c-1.17803-.4345-2.27288-1.0677-3.237-1.872l-2.153 2.154-1.415-1.415 2.154-2.153c-1.21592-1.4563-2.03291-3.20328-2.371-5.07004l.9-.165c2.88922 2.08317 6.36209 3.20164 9.92402 3.196 3.704 0 7.131-1.18501 9.924-3.196l.9.164c-.3377 1.86701-1.1543 3.61434-2.37 5.07104l2.153 2.153-1.415 1.415-2.153-2.154c-.9641.8043-2.059 1.4375-3.237 1.872l.787 2.94-1.931.517-.788-2.94c-1.2377.212-2.5024.212-3.74 0z" /></svg>