<svg fill="currentColor" height="24" viewBox="0 0 24 24" width="24" xmlns="http://www.w3.org/2000/svg"><path d="m9.34178 18.7821-1.931-.518.787-2.939c-1.17803-.4345-2.27288-1.0676-3.237-1.872l-2.153 2.154-1.415-1.415 2.154-2.153c-1.21592-1.4562-2.03291-3.20323-2.371-5.06999l1.968-.359c.759 4.20199 4.435 7.38999 8.85602 7.38999 4.42 0 8.097-3.188 8.856-7.38999l1.968.358c-.3377 1.86701-1.1543 3.61439-2.37 5.07099l2.153 2.153-1.415 1.415-2.153-2.154c-.9641.8044-2.059 1.4375-3.237 1.872l.787 2.94-1.931.517-.788-2.94c-1.2377.2121-2.5024.2121-3.74 0z" /></svg>