<svg fill="currentColor" height="24" viewBox="0 0 24 24" width="24" xmlns="http://www.w3.org/2000/svg"><path d="m4.51966 5.93407-3.127-3.126 1.415-1.415 19.79904 19.80003-1.415 1.414-3.31-3.31c-1.7588 1.1155-3.7993 1.7063-5.882 1.703-5.39204 0-9.87804-3.88-10.81904-9 .43003-2.32932 1.60163-4.45714 3.34-6.06603zm10.23704 10.23803-1.464-1.464c-.56.2679-1.1893.3555-1.8011.2508-.6118-.1048-1.1761-.3968-1.61507-.8357-.43893-.4389-.7309-1.0032-.83565-1.6151-.10475-.6118-.01713-1.2411.25078-1.801l-1.464-1.46403c-.63628.96153-.92073 2.11333-.80517 3.26053.11556 1.1471.62403 2.2191 1.43929 3.0343.81527.8153 1.88722 1.3238 3.03442 1.4393 1.1471.1156 2.299-.1688 3.2605-.8051zm-6.78304-12.41203c1.247-.49 2.60604-.76 4.02604-.76 5.392 0 9.878 3.88 10.819 9.00003-.3065 1.6657-.9952 3.2376-2.012 4.592l-3.86-3.86c.1146-.7724.0468-1.5609-.1981-2.3024-.2449-.74143-.6601-1.41522-1.2122-1.96737-.5521-.55214-1.2259-.96729-1.9674-1.21219-.7414-.2449-1.5299-.31273-2.3023-.19807l-3.29304-3.291z" /></svg>