<svg fill="currentColor" height="24" viewBox="0 0 24 24" width="24" xmlns="http://www.w3.org/2000/svg"><path d="m12 2c5.523 0 10 4.477 10 10s-4.477 10-10 10-10-4.477-10-10 4.477-10 10-10zm0 5c-.513 0-1.007.077-1.473.22.3689.16622.6919.41949.9414.73807.2494.31858.4178.69294.4907 1.09094s.0481.80775-.0723 1.19409c-.1204.3863-.3327.7376-.6188 1.0237-.286.2862-.6373.4986-1.0235.6191-.3863.1205-.79603.1454-1.19406.0727-.39802-.0728-.77243-.2411-1.09109-.4904-.31865-.2494-.57202-.5723-.73835-.9412-.3101 1.0059-.29483 2.084.04365 3.0808.33847.9967.98288 1.8612 1.84141 2.4702.85853.6091 1.88734.9317 2.93994.9218s2.0752-.3517 2.9222-.9768c.8469-.6251 1.475-1.5015 1.7947-2.5044s.3147-2.0811-.0142-3.081c-.3289-.99993-.965-1.87053-1.8177-2.48777-.8527-.61725-1.8784-.94964-2.931-.94983z" /></svg>