<svg fill="currentColor" height="24" viewBox="0 0 24 24" width="24" xmlns="http://www.w3.org/2000/svg"><path d="m1.18066 12c.94-5.12 5.427-9 10.81904-9 5.392 0 9.878 3.88 10.819 9-.94 5.12-5.427 9-10.819 9-5.39204 0-9.87804-3.88-10.81904-9zm10.81904 5c1.326 0 2.5978-.5268 3.5355-1.4645.9377-.9376 1.4645-2.2094 1.4645-3.5355s-.5268-2.59785-1.4645-3.53553c-.9377-.93769-2.2095-1.46447-3.5355-1.46447-1.3261 0-2.59789.52678-3.53557 1.46447-.93768.93768-1.46447 2.20943-1.46447 3.53553s.52679 2.5979 1.46447 3.5355c.93768.9377 2.20947 1.4645 3.53557 1.4645zm0-2c-.7957 0-1.5587-.3161-2.12136-.8787-.56261-.5626-.87868-1.3257-.87868-2.1213s.31607-1.5587.87868-2.12132c.56266-.56261 1.32566-.87868 2.12136-.87868.7956 0 1.5587.31607 2.1213.87868.5626.56262.8787 1.32572.8787 2.12132s-.3161 1.5587-.8787 2.1213-1.3257.8787-2.1213.8787z" /></svg>