<svg fill="currentColor" height="24" viewBox="0 0 24 24" width="24" xmlns="http://www.w3.org/2000/svg"><path d="m11.9997 3c5.392 0 9.878 3.88 10.819 9-.94 5.12-5.427 9-10.819 9-5.39204 0-9.87804-3.88-10.81904-9 .94-5.12 5.427-9 10.81904-9zm0 16c2.0394-.0004 4.0184-.6932 5.6128-1.9648 1.5945-1.2717 2.7101-3.0469 3.1642-5.0352-.4558-1.9867-1.5721-3.76-3.1664-5.02997-1.5943-1.26998-3.5723-1.9615-5.6106-1.9615-2.03834 0-4.01635.69152-5.61066 1.9615-1.59431 1.26997-2.71061 3.04327-3.16638 5.02997.4541 1.9883 1.56968 3.7635 3.16415 5.0352 1.59447 1.2716 3.57339 1.9644 5.61289 1.9648zm0-2.5c-1.1935 0-2.3381-.4741-3.18202-1.318-.84391-.8439-1.31802-1.9885-1.31802-3.182s.47411-2.33807 1.31802-3.18198c.84392-.84391 1.98852-1.31802 3.18202-1.31802 1.1934 0 2.338.47411 3.1819 1.31802.844.84391 1.3181 1.98848 1.3181 3.18198s-.4741 2.3381-1.3181 3.182c-.8439.8439-1.9885 1.318-3.1819 1.318zm0-2c.663 0 1.2989-.2634 1.7677-.7322.4689-.4689.7323-1.1048.7323-1.7678s-.2634-1.2989-.7323-1.7678c-.4688-.46881-1.1047-.7322-1.7677-.7322-.6631 0-1.299.26339-1.7678.7322-.46884.4689-.73224 1.1048-.73224 1.7678s.2634 1.2989.73224 1.7678c.4688.4688 1.1047.7322 1.7678.7322z" /></svg>