<svg fill="currentColor" height="24" viewBox="0 0 24 24" width="24" xmlns="http://www.w3.org/2000/svg"><path d="m13 19.938c2.0173-.2567 3.8611-1.2719 5.1568-2.8392 1.2957-1.5674 1.9459-3.5693 1.8186-5.5988-.1274-2.02959-1.0227-3.93451-2.5041-5.32762-1.4815-1.39311-3.4377-2.16986-5.4713-2.17238-2.03604-.00152-3.99605.77334-5.48066 2.16668s-2.3821 3.30031-2.5096 5.33232c-.12749 2.0321.5246 4.0363 1.8234 5.6043 1.29881 1.5679 3.1466 2.5817 5.16686 2.8347v-5.938h-2v-2h2v-1.654c0-1.337.14-1.822.4-2.311.2561-.48381.652-.87931 1.136-1.135.382-.205.857-.328 1.687-.381.329-.021.755.005 1.278.08v1.9h-.501c-.917 0-1.296.043-1.522.164-.1349.06936-.2446.17915-.314.314-.12.226-.164.45-.164 1.368v1.655h2.5l-.5 2h-2zm-1 2.062c-5.523 0-10-4.477-10-10s4.477-10 10-10 10 4.477 10 10-4.477 10-10 10z" /></svg>