<svg fill="currentColor" height="24" viewBox="0 0 24 24" width="24" xmlns="http://www.w3.org/2000/svg"><path d="m15.402 21v-6.966h2.333l.349-2.708h-2.682v-1.728c0-.784.218-1.319 1.342-1.319h1.434v-2.422c-.6942-.07366-1.3919-.10938-2.09-.107-2.067 0-3.482 1.262-3.482 3.58v1.996h-2.338v2.708h2.338v6.966h-8.606c-.26522 0-.51957-.1054-.70711-.2929-.18753-.1875-.29289-.4419-.29289-.7071v-16c0-.26522.10536-.51957.29289-.70711.18754-.18753.44189-.29289.70711-.29289h16c.2652 0 .5196.10536.7071.29289.1875.18754.2929.44189.2929.70711v16c0 .2652-.1054.5196-.2929.7071s-.4419.2929-.7071.2929z" /></svg>