<svg fill="currentColor" height="24" viewBox="0 0 24 24" width="24" xmlns="http://www.w3.org/2000/svg"><path d="m14 19h5v-14h-14v14h7v-5h-2v-2h2v-1.654c0-1.337.14-1.822.4-2.311.2561-.48381.652-.87931 1.136-1.135.382-.205.857-.328 1.687-.381.329-.021.755.005 1.278.08v1.9h-.501c-.917 0-1.296.043-1.522.164-.1349.06936-.2446.17915-.314.314-.12.226-.164.45-.164 1.368v1.655h2.5l-.5 2h-2zm-10-16h16c.2652 0 .5196.10536.7071.29289.1875.18754.2929.44189.2929.70711v16c0 .2652-.1054.5196-.2929.7071s-.4419.2929-.7071.2929h-16c-.26522 0-.51957-.1054-.70711-.2929-.18753-.1875-.29289-.4419-.29289-.7071v-16c0-.26522.10536-.51957.29289-.70711.18754-.18753.44189-.29289.70711-.29289z" /></svg>