<svg fill="currentColor" height="24" viewBox="0 0 24 24" width="24" xmlns="http://www.w3.org/2000/svg"><path d="m12 12h7v2h-7v7h-2v-13c0-1.06087.4214-2.07828 1.1716-2.82843.7501-.75014 1.7675-1.17157 2.8284-1.17157h7v2h-7c-.5304 0-1.0391.21071-1.4142.58579-.3751.37507-.5858.88378-.5858 1.41421zm-7.5-2c-.45963 0-.91475-.09053-1.33939-.26642s-.81048-.4337-1.13548-.75871c-.32501-.325-.58282-.71084-.75871-1.13548s-.26642-.87976-.26642-1.33939.09053-.91475.26642-1.33939.4337-.81048.75871-1.13548c.325-.32501.71084-.58282 1.13548-.75871s.87976-.26642 1.33939-.26642c.92826 0 1.8185.36875 2.47487 1.02513.65638.65637 1.02513 1.54661 1.02513 2.47487s-.36875 1.8185-1.02513 2.47487c-.65637.65638-1.54661 1.02513-2.47487 1.02513zm0-2c.39782 0 .77936-.15804 1.06066-.43934s.43934-.66284.43934-1.06066-.15804-.77936-.43934-1.06066-.66284-.43934-1.06066-.43934-.77936.15804-1.06066.43934-.43934.66284-.43934 1.06066.15804.77936.43934 1.06066.66284.43934 1.06066.43934z" /></svg>