<svg fill="currentColor" height="24" viewBox="0 0 24 24" width="24" xmlns="http://www.w3.org/2000/svg"><path d="m15 4h-10v16h14v-12h-4zm-12-1.008c0-.548.447-.992.999-.992h12.001l5 5v13.993c.0009.1313-.024.2615-.0734.3832s-.1223.2325-.2145.326-.202.1679-.3229.219c-.121.0511-.2509.0779-.3822.0788h-16.014c-.26262-.0018-.51398-.1069-.69978-.2925s-.29113-.4369-.29322-.6995zm9 8.508c-.663 0-1.2989-.2634-1.7678-.7322-.46881-.4689-.7322-1.10476-.7322-1.7678s.26339-1.29893.7322-1.76777c.4689-.46884 1.1048-.73223 1.7678-.73223s1.2989.26339 1.7678.73223c.4688.46884.7322 1.10473.7322 1.76777s-.2634 1.2989-.7322 1.7678c-.4689.4688-1.1048.7322-1.7678.7322zm-4.473 5.5c.12122-1.1016.64468-2.1197 1.47008-2.8593.8254-.7395 1.89472-1.1485 3.00292-1.1485s2.1775.409 3.0029 1.1485c.8254.7396 1.3489 1.7577 1.4701 2.8593z" /></svg>