<svg fill="currentColor" height="24" viewBox="0 0 24 24" width="24" xmlns="http://www.w3.org/2000/svg"><path clip-rule="evenodd" d="m16 2 5 5v13.993c0 .556-.445 1.007-.993 1.007h-16.014c-.548 0-.993-.455-.993-.992v-18.016c0-.548.447-.992.999-.992zm-8.5 8h1v5h-1zm2.25 2c0-1.1046.8954-2 2-2h1v1h-1c-.5523 0-1 .4477-1 1v1c0 .5523.4477 1 1 1h1v1h-1c-1.1046 0-2-.8954-2-2zm5.75-2c-.8284 0-1.5.6716-1.5 1.5v.25c0 .6904.5596 1.25 1.25 1.25.1381 0 .25.1119.25.25v.25c0 .2761-.2239.5-.5.5h-1v1h1c.8284 0 1.5-.6716 1.5-1.5v-.25c0-.6904-.5596-1.25-1.25-1.25-.1381 0-.25-.1119-.25-.25v-.25c0-.2761.2239-.5.5-.5h1v-1z"  fill-rule="evenodd"/></svg>