<svg fill="currentColor" height="24" viewBox="0 0 24 24" width="24" xmlns="http://www.w3.org/2000/svg"><g ><path d="m16 2 5 5v13.993c0 .556-.445 1.007-.993 1.007h-16.014c-.548 0-.993-.455-.993-.992v-18.016c0-.548.447-.992.999-.992zm-1 2h-10v16h14v-12h-4z"/><path d="m6.5 12c0-1.1046.89543-2 2-2h1v1h-1c-.55228 0-1 .4477-1 1v1c0 .5523.44772 1 1 1h1v1h-1c-1.10457 0-2-.8954-2-2z"/><path d="m13.8047 10 .4536 3.9011c.1714 1.4742 2.3119 1.4742 2.4833 0l.4536-3.9011h-1.0067l-.4402 3.7856c-.011.0943-.0472.1403-.0799.1668-.039.0316-.0984.0543-.1685.0543s-.1294-.0227-.1685-.0543c-.0326-.0265-.0688-.0725-.0798-.1668l-.4402-3.7856z"/><path d="m12 10c-.8284 0-1.5.6716-1.5 1.5v.25c0 .6904.5596 1.25 1.25 1.25.1381 0 .25.1119.25.25v.25c0 .2761-.2239.5-.5.5h-1v1h1c.8284 0 1.5-.6716 1.5-1.5v-.25c0-.6904-.5596-1.25-1.25-1.25-.1381 0-.25-.1119-.25-.25v-.25c0-.2761.2239-.5.5-.5h1v-1z"/></g></svg>