<svg fill="currentColor" height="24" viewBox="0 0 24 24" width="24" xmlns="http://www.w3.org/2000/svg"><path d="m15 4h-10v16h14v-12h-4zm-12-1.008c0-.548.447-.992.999-.992h12.001l5 5v13.993c.0009.1313-.024.2615-.0734.3832s-.1223.2325-.2145.326-.202.1679-.3229.219c-.121.0511-.2509.0779-.3822.0788h-16.014c-.26262-.0018-.51398-.1069-.69978-.2925s-.29113-.4369-.29322-.6995zm9 5.008v4h4c0 .7911-.2346 1.5645-.6741 2.2223s-1.0643 1.1705-1.7952 1.4732c-.7309.3028-1.5351.382-2.3111.2276-.7759-.1543-1.48862-.5353-2.04803-1.0947s-.94037-1.2721-1.09471-2.048c-.15434-.776-.07513-1.5802.22762-2.3111.30275-.73094.81544-1.35565 1.47324-1.79518.65778-.43952 1.43118-.67412 2.22228-.67412z" /></svg>