<svg fill="currentColor" height="24" viewBox="0 0 24 24" width="24" xmlns="http://www.w3.org/2000/svg"><path d="m14 8v-4h-9v16h14v-11h-3v4.62c0 .844-.446 1.633-1.187 2.101l-2.813 1.777-2.813-1.778c-.741-.467-1.187-1.256-1.187-2.1v-5.62zm7 0v12.993c.0009.1313-.024.2615-.0734.3832s-.1223.2325-.2145.326-.202.1679-.3229.219c-.121.0511-.2509.0779-.3822.0788h-16.014c-.26319 0-.51561-.1045-.7018-.2905-.1862-.186-.29093-.4383-.2912-.7015v-18.016c0-.537.449-.992 1.002-.992h10.995zm-11 5.62c0 .15.087.304.255.41l1.745 1.102 1.745-1.102c.168-.106.255-.26.255-.41v-3.62h-4z" /></svg>