<svg fill="currentColor" height="24" viewBox="0 0 24 24" width="24" xmlns="http://www.w3.org/2000/svg"><path d="m21 11.674c-1.3946-.6621-2.9689-.8446-4.478-.5191s-2.8682 1.1407-3.8659 2.3187c-.9977 1.1781-1.578 2.6529-1.6505 4.195-.0726 1.5421.3667 3.0649 1.2494 4.3314h-8.262c-.26262-.0018-.51398-.1069-.69978-.2925s-.29113-.4369-.29322-.6995v-18.016c0-.548.445-.992.993-.992h12.007l5 5zm-3 11.326c-1.3261 0-2.5979-.5268-3.5355-1.4645-.9377-.9376-1.4645-2.2094-1.4645-3.5355s.5268-2.5979 1.4645-3.5355c.9376-.9377 2.2094-1.4645 3.5355-1.4645s2.5979.5268 3.5355 1.4645c.9377.9376 1.4645 2.2094 1.4645 3.5355s-.5268 2.5979-1.4645 3.5355c-.9376.9377-2.2094 1.4645-3.5355 1.4645zm-1.293-2.292c.56.2679 1.1892.3555 1.8011.2508.6118-.1048 1.1761-.3967 1.615-.8357.439-.4389.7309-1.0032.8357-1.615.1047-.6119.0171-1.2411-.2508-1.8011l-4.001 4zm-1.415-1.415 4.001-4c-.56-.2679-1.1892-.3555-1.8011-.2508-.6118.1048-1.1761.3967-1.615.8357-.439.4389-.7309 1.0032-.8357 1.615-.1047.6119-.0171 1.2411.2508 1.8011z" /></svg>