<svg fill="currentColor" height="24" viewBox="0 0 24 24" width="24" xmlns="http://www.w3.org/2000/svg"><path d="m20 2c.7956 0 1.5587.31607 2.1213.87868s.8787 1.32567.8787 2.12132v2h-2v12c0 .7956-.3161 1.5587-.8787 2.1213s-1.3257.8787-2.1213.8787h-14c-.79565 0-1.55871-.3161-2.12132-.8787s-.87868-1.3257-.87868-2.1213v-2h16v2c0 .2449.09.4813.2527.6644.1628.183.387.2999.6303.3286l.117.007c.2449 0 .4813-.09.6644-.2527.183-.1628.2999-.387.3286-.6303l.007-.117v-15h-13c-.24493.00003-.48134.08996-.66437.25272-.18304.16275-.29997.38703-.32863.63028l-.007.117v10h-2v-10c0-.79565.31607-1.55871.87868-2.12132s1.32567-.87868 2.12132-.87868z" /></svg>