<svg fill="currentColor" height="24" viewBox="0 0 24 24" width="24" xmlns="http://www.w3.org/2000/svg"><path d="m16 2 5 5v14.008c-.0003.2632-.105.5155-.2912.7015s-.4386.2905-.7018.2905h-16.014c-.26262-.0018-.51398-.1069-.69978-.2925s-.29113-.4369-.29322-.6995v-18.016c0-.548.445-.992.993-.992zm-7.405 10.812-.992.572 1 1.732.992-.573c.393.372.873.654 1.405.812v1.145h2v-1.145c.5255-.1567 1.0068-.4349 1.405-.812l.992.573 1-1.732-.992-.573c.1266-.5333.1266-1.0887 0-1.622l.992-.573-1-1.732-.992.573c-.3982-.37712-.8795-.65528-1.405-.812v-1.145h-2v1.145c-.5255.15672-1.00684.43488-1.405.812l-.992-.573-1 1.732.992.573c-.12679.5336-.12679 1.0894 0 1.623zm3.405.688c-.3978 0-.7794-.158-1.0607-.4393s-.4393-.6629-.4393-1.0607.158-.7794.4393-1.0607.6629-.4393 1.0607-.4393.7794.158 1.0607.4393.4393.6629.4393 1.0607-.158.7794-.4393 1.0607-.6629.4393-1.0607.4393z" /></svg>