<svg fill="currentColor" height="24" viewBox="0 0 24 24" width="24" xmlns="http://www.w3.org/2000/svg"><path d="m16 8v2h-3v4.5c-.0001.5159-.1598 1.0191-.4572 1.4407-.2974.4215-.7179.7407-1.2039.9138s-1.0136.1917-1.51051.0531c-.49693-.1386-.93881-.4275-1.26504-.8272-.32624-.3996-.52085-.8904-.55715-1.405s.08748-1.0278.35439-1.4693c.2669-.4415.66384-.7896 1.13639-.9966s.99752-.2627 1.50302-.1595v-4.05h4v-4h-10v16h14v-12zm-13-5.008c0-.548.447-.992.999-.992h12.001l5 5v13.993c.0009.1313-.024.2615-.0734.3832s-.1223.2325-.2145.326-.202.1679-.3229.219c-.121.0511-.2509.0779-.3822.0788h-16.014c-.26262-.0018-.51398-.1069-.69978-.2925s-.29113-.4369-.29322-.6995z" /></svg>