<svg fill="currentColor" height="24" viewBox="0 0 24 24" width="24" xmlns="http://www.w3.org/2000/svg"><path d="m11 15h2v2h-2zm2-1.645v.645h-2v-1.5c0-.2652.1054-.5196.2929-.7071s.4419-.2929.7071-.2929c.2841 0 .5623-.0807.8023-.2327.24-.1519.432-.3689.5535-.6257s.1676-.5428.1329-.82476c-.0347-.28195-.1487-.54826-.3289-.76793-.1801-.21967-.4189-.38368-.6886-.47294s-.5592-.1001-.8348-.03126c-.2756.06883-.526.21452-.722.42011-.1961.20558-.3297.46261-.3854.74118l-1.962-.393c.12163-.60792.40251-1.17263.81392-1.63641.41141-.46379.93858-.81001 1.52768-1.00327s1.2189-.22663 1.8251-.09671c.6062.12993 1.167.4185 1.6251.83621.4581.41772.7971.94959.9823 1.54124.1852.59166.21 1.22184.0718 1.82624s-.4344 1.1612-.8584 1.6136c-.4239.4523-.9604.784-1.5545.9611zm2-9.355h-10v16h14v-12h-4zm-12-1.008c0-.548.447-.992.999-.992h12.001l5 5v13.993c.0009.1313-.024.2615-.0734.3832s-.1223.2325-.2145.326-.202.1679-.3229.219c-.121.0511-.2509.0779-.3822.0788h-16.014c-.26262-.0018-.51398-.1069-.69978-.2925s-.29113-.4369-.29322-.6995z" /></svg>