<svg fill="currentColor" height="24" viewBox="0 0 24 24" width="24" xmlns="http://www.w3.org/2000/svg"><g ><path d="m8.75 10h-1v5h1z"/><path d="m9.75 12c0-1.1046.8954-2 2-2h1v1h-1c-.5523 0-1 .4477-1 1v1c0 .5523.4477 1 1 1h1v1h-1c-1.1046 0-2-.8954-2-2z"/><path d="m15.25 10c-.8284 0-1.5.6716-1.5 1.5v.25c0 .6904.5596 1.25 1.25 1.25.1381 0 .25.1119.25.25v.25c0 .2761-.2239.5-.5.5h-1v1h1c.8284 0 1.5-.6716 1.5-1.5v-.25c0-.6904-.5596-1.25-1.25-1.25-.1381 0-.25-.1119-.25-.25v-.25c0-.2761.2239-.5.5-.5h1v-1z"/><path clip-rule="evenodd" d="m21 7-5-5h-12.001c-.552 0-.999.444-.999.992v18.016c0 .537.445.992.993.992h16.014c.548 0 .993-.451.993-1.007zm-16-3h10v4h4v12h-14z" fill-rule="evenodd"/></g></svg>