<svg fill="currentColor" height="24" viewBox="0 0 24 24" width="24" xmlns="http://www.w3.org/2000/svg"><path d="m12 16h-4v-8h4c1.0609 0 2.0783.42143 2.8284 1.17157.7502.75015 1.1716 1.76753 1.1716 2.82843s-.4214 2.0783-1.1716 2.8284c-.7501.7502-1.7675 1.1716-2.8284 1.1716zm-2-6v4h2c.5304 0 1.0391-.2107 1.4142-.5858s.5858-.8838.5858-1.4142-.2107-1.0391-.5858-1.4142-.8838-.5858-1.4142-.5858zm5-6h-10v16h14v-12h-4zm-12-1.008c0-.548.447-.992.999-.992h12.001l5 5v13.993c.0009.1313-.024.2615-.0734.3832s-.1223.2325-.2145.326-.202.1679-.3229.219c-.121.0511-.2509.0779-.3822.0788h-16.014c-.26262-.0018-.51398-.1069-.69978-.2925s-.29113-.4369-.29322-.6995z" /></svg>