<svg fill="currentColor" height="24" viewBox="0 0 24 24" width="24" xmlns="http://www.w3.org/2000/svg"><path d="m16 2 5 5v14.008c-.0003.2632-.105.5155-.2912.7015s-.4386.2905-.7018.2905h-16.014c-.26262-.0018-.51398-.1069-.69978-.2925s-.29113-.4369-.29322-.6995v-18.016c0-.548.445-.992.993-.992zm-4 9.5c.663 0 1.2989-.2634 1.7678-.7322.4688-.4689.7322-1.10476.7322-1.7678s-.2634-1.29893-.7322-1.76777c-.4689-.46884-1.1048-.73223-1.7678-.73223s-1.2989.26339-1.7678.73223c-.46881.46884-.7322 1.10473-.7322 1.76777s.26339 1.2989.7322 1.7678c.4689.4688 1.1048.7322 1.7678.7322zm-4.473 5.5h8.946c-.1212-1.1016-.6447-2.1197-1.4701-2.8593-.8254-.7395-1.8947-1.1485-3.0029-1.1485s-2.17752.409-3.00292 1.1485c-.8254.7396-1.34886 1.7577-1.47008 2.8593z" /></svg>