<svg fill="currentColor" height="24" viewBox="0 0 24 24" width="24" xmlns="http://www.w3.org/2000/svg"><path d="m3 14 4 2.5 3-3.5 3 4 2-2.5 3 .5-3-3-2 2.5-3-5-3.5 3.75-3.5-3.25v-7.008c0-.537.447-.992.998-.992h10.002v6c0 .26522.1054.51957.2929.70711.1875.18753.4419.29289.7071.29289h6v11.993c.0009.1313-.024.2615-.0734.3832s-.1223.2325-.2145.326-.202.1679-.3229.219c-.121.0511-.2509.0779-.3822.0788h-16.014c-.26319 0-.51561-.1045-.7018-.2905-.1862-.186-.29093-.4383-.2912-.7015zm18-7h-5v-4.997z" /></svg>