<svg fill="currentColor" height="24" viewBox="0 0 24 24" width="24" xmlns="http://www.w3.org/2000/svg"><path d="m15 4h-10v16h14v-12h-4zm-12-1.008c0-.548.447-.992.999-.992h12.001l5 5v13.993c.0009.1313-.024.2615-.0734.3832s-.1223.2325-.2145.326-.202.1679-.3229.219c-.121.0511-.2509.0779-.3822.0788h-16.014c-.26262-.0018-.51398-.1069-.69978-.2925s-.29113-.4369-.29322-.6995zm10.529 11.454c-.8387.49-1.8269.6583-2.7805.4735-.95362-.1849-1.80744-.7102-2.40227-1.4781-.59484-.7679-.89009-1.726-.8307-2.6955.05939-.96951.46936-1.88434 1.15347-2.5739.68845-.68832 1.6043-1.10194 2.5759-1.16335.9716-.0614 1.9322.23363 2.7018.8298.7696.59618 1.2954 1.45256 1.4788 2.40865.1834.9561.0119 1.9463-.4825 2.7849l2.21 2.21-1.414 1.415-2.21-2.21zm-.618-2.032c.191-.1845.3434-.4052.4482-.6492s.16-.5064.1623-.772-.0483-.5289-.1489-.7747c-.1005-.2458-.249-.4691-.4368-.65689s-.4111-.33629-.6569-.43685c-.2458-.10057-.5091-.15117-.7747-.14886s-.528.05748-.772.1623-.4647.25718-.6492.4482c-.36432.3772-.5659.8824-.56135 1.4068.00456.5244.2149 1.026.58575 1.3968.3708.3709.8724.5812 1.3968.5857.5244.0046 1.0296-.197 1.4068-.5613z" /></svg>