<svg fill="currentColor" height="24" viewBox="0 0 24 24" width="24" xmlns="http://www.w3.org/2000/svg"><path d="m16 2 5 5v14.008c-.0003.2632-.105.5155-.2912.7015s-.4386.2905-.7018.2905h-16.014c-.26262-.0018-.51398-.1069-.69978-.2925s-.29113-.4369-.29322-.6995v-18.016c0-.548.445-.992.993-.992zm-4 6c-.7911 0-1.5645.2346-2.22228.67412-.6578.43953-1.17049 1.06424-1.47324 1.79518-.30275.7309-.38196 1.5351-.22762 2.3111.15434.7759.5353 1.4886 1.09471 2.048s1.27213.9404 2.04803 1.0947c.776.1544 1.5802.0752 2.3111-.2276.7309-.3027 1.3557-.8154 1.7952-1.4732s.6741-1.4312.6741-2.2223h-4z" /></svg>