<svg fill="currentColor" height="24" viewBox="0 0 24 24" width="24" xmlns="http://www.w3.org/2000/svg"><path d="m14.997 2 6.003 6 .001 4.26c-.9837-.8165-2.2226-1.2623-3.501-1.26l-.221.004c-1.1955.0482-2.3428.4848-3.268 1.2436-.9251.7588-1.5777 1.7984-1.859 2.9614l-.016.074-.03.02c-.5273.3533-.9784.8087-1.3267 1.3393s-.5867 1.1257-.7012 1.7499c-.11444.6243-.10264 1.2652.0347 1.8849.1374.6197.3976 1.2055.7652 1.7229h-6.885c-.24308 0-.47772-.0892-.65944-.2507-.18173-.1614-.29792-.3839-.32656-.6253l-.007-.116v-18.016c0-.498.387-.927.885-.985l.117-.007zm2.503 11c.9283 0 1.8185.3687 2.4749 1.0251s1.0251 1.5466 1.0251 2.4749l-.001.103c.6256.1763 1.1685.5684 1.5325 1.1069s.5255 1.1884.4559 1.8347c-.0696.6462-.3659 1.2468-.8363 1.6954-.4703.4486-1.0843.7161-1.7331.755l-.168.005h-5.5l-.168-.005c-.6487-.0393-1.2624-.3071-1.7325-.7558-.47-.4487-.766-1.0494-.8353-1.6955-.0694-.6462.0922-1.296.4563-1.8343s.907-.9302 1.5325-1.1064l-.003-.103c0-.9283.3687-1.8185 1.0251-2.4749s1.5466-1.0251 2.4749-1.0251z" /></svg>