<svg fill="currentColor" height="24" viewBox="0 0 24 24" width="24" xmlns="http://www.w3.org/2000/svg"><path d="m16 2 5 5v13.993c.0009.1313-.024.2615-.0734.3832s-.1223.2325-.2145.326-.202.1679-.3229.219c-.121.0511-.2509.0779-.3822.0788h-16.014c-.26262-.0018-.51398-.1069-.69978-.2925s-.29113-.4369-.29322-.6995v-18.016c0-.548.447-.992.999-.992zm-6.667 12.667h-1.333v3.333h8v-1.333l-6.667-.001v-2zm2.667-.334c-.1313 0-.2614.0259-.3827.0761-.1213.0503-.2315.1239-.3244.2168s-.1665.2031-.2168.3244c-.0502.1213-.0761.2514-.0761.3827s.0259.2614.0761.3827c.0503.1213.1239.2315.2168.3244s.2031.1665.3244.2168c.1213.0502.2514.0761.3827.0761.2652 0 .5196-.1054.7071-.2929s.2929-.4419.2929-.7071-.1054-.5196-.2929-.7071-.4419-.2929-.7071-.2929zm0-5.333c-.663 0-1.2989.26339-1.7678.73223-.46881.46887-.7322 1.10477-.7322 1.76777s.26339 1.2989.7322 1.7678c.4689.4688 1.1048.7322 1.7678.7322s1.2989-.2634 1.7678-.7322c.4688-.4689.7322-1.1048.7322-1.7678s-.2634-1.2989-.7322-1.76777c-.4689-.46884-1.1048-.73223-1.7678-.73223zm0 1.333c.3095 0 .6063.123.8252.3418.2188.2189.3418.5157.3418.8252s-.123.6063-.3418.8252c-.2189.2188-.5157.3418-.8252.3418s-.6063-.123-.8252-.3418c-.2188-.2189-.3418-.5157-.3418-.8252s.123-.6063.3418-.8252c.2189-.2188.5157-.3418.8252-.3418zm.667-4.333h-1.334v1.333h-3.333v1.334h8v-1.334h-3.334v-1.333z" /></svg>