<svg fill="currentColor" height="24" viewBox="0 0 24 24" width="24" xmlns="http://www.w3.org/2000/svg"><path d="m21 15.243v5.765c-.0002.2632-.105.5155-.2912.7015s-.4386.2905-.7018.2905h-16.01398c-.13132-.0009-.26117-.0277-.38215-.0788s-.2307-.1255-.32291-.219-.1651-.2043-.2145-.326-.07436-.2519-.07344-.3832v-11.993h6c.26522 0 .51958-.10536.70711-.29289.18754-.18754.29287-.44189.29287-.70711v-6h10.002c.551 0 .998.455.998.992v3.765l-8.999 9-.006 4.238 4.246.006zm.778-6.435 1.414 1.414-7.778 7.778-1.416-.002.002-1.412zm-18.77798-1.808 5-4.997v4.997z" /></svg>