<svg fill="currentColor" height="24" viewBox="0 0 24 24" width="24" xmlns="http://www.w3.org/2000/svg"><path d="m16 2 5 5v14.008c-.0003.2632-.105.5155-.2912.7015s-.4386.2905-.7018.2905h-16.014c-.26262-.0018-.51398-.1069-.69978-.2925s-.29113-.4369-.29322-.6995v-18.016c0-.548.445-.992.993-.992zm-1 9v-1c0-.79565-.3161-1.55871-.8787-2.12132s-1.3257-.87868-2.1213-.87868-1.5587.31607-2.12132.87868c-.56261.56261-.87868 1.32567-.87868 2.12132v1h-1v5h8v-5zm-2 0h-2v-1c0-.26522.1054-.51957.2929-.70711.1875-.18753.4419-.29289.7071-.29289s.5196.10536.7071.29289c.1875.18754.2929.44189.2929.70711z" /></svg>