<svg fill="currentColor" height="24" viewBox="0 0 24 24" width="24" xmlns="http://www.w3.org/2000/svg"><path d="m11.29 20c.215.722.543 1.396.965 2h-8.262c-.26262-.0018-.51398-.1069-.69978-.2925s-.29113-.4369-.29322-.6995v-18.016c0-.548.447-.992.999-.992h12.001l5 5v4.674c-.6325-.3006-1.3068-.5039-2-.603v-3.071h-4v-4h-10v16zm6.71 3c-1.3261 0-2.5979-.5268-3.5355-1.4645-.9377-.9376-1.4645-2.2094-1.4645-3.5355s.5268-2.5979 1.4645-3.5355c.9376-.9377 2.2094-1.4645 3.5355-1.4645s2.5979.5268 3.5355 1.4645c.9377.9376 1.4645 2.2094 1.4645 3.5355s-.5268 2.5979-1.4645 3.5355c-.9376.9377-2.2094 1.4645-3.5355 1.4645zm-1.293-2.292c.56.2679 1.1892.3555 1.8011.2508.6118-.1048 1.1761-.3967 1.615-.8357.439-.4389.7309-1.0032.8357-1.615.1047-.6119.0171-1.2411-.2508-1.8011l-4.001 4zm-1.415-1.415 4.001-4c-.56-.2679-1.1892-.3555-1.8011-.2508-.6118.1048-1.1761.3967-1.615.8357-.439.4389-.7309 1.0032-.8357 1.615-.1047.6119-.0171 1.2411.2508 1.8011z" /></svg>