<svg fill="currentColor" height="24" viewBox="0 0 24 24" width="24" xmlns="http://www.w3.org/2000/svg"><path clip-rule="evenodd" d="m21 7-5-5h-12.001c-.552 0-.999.444-.999.992v18.016c0 .537.445.992.993.992h16.014c.548 0 .993-.451.993-1.007zm-14.5 5c0-1.1046.89543-2 2-2h1v1h-1c-.55228 0-1 .4477-1 1v1c0 .5523.44772 1 1 1h1v1h-1c-1.10457 0-2-.8954-2-2zm7.3047-2 .4536 3.9011c.1714 1.4742 2.3119 1.4742 2.4833 0l.4536-3.9011h-1.0067l-.4402 3.7856c-.011.0943-.0472.1403-.0799.1668-.039.0316-.0984.0543-.1685.0543s-.1294-.0227-.1685-.0543c-.0326-.0265-.0688-.0725-.0798-.1668l-.4402-3.7856zm-3.3047 1.5c0-.8284.6716-1.5 1.5-1.5h1v1h-1c-.2761 0-.5.2239-.5.5v.25c0 .1381.1119.25.25.25.6904 0 1.25.5596 1.25 1.25v.25c0 .8284-.6716 1.5-1.5 1.5h-1v-1h1c.2761 0 .5-.2239.5-.5v-.25c0-.1381-.1119-.25-.25-.25-.6904 0-1.25-.5596-1.25-1.25z"  fill-rule="evenodd"/></svg>