<svg fill="currentColor" height="24" viewBox="0 0 24 24" width="24" xmlns="http://www.w3.org/2000/svg"><path d="m7 6v-3c0-.26522.10536-.51957.29289-.70711.18754-.18753.44189-.29289.70711-.29289h12c.2652 0 .5196.10536.7071.29289.1875.18754.2929.44189.2929.70711v14c0 .2652-.1054.5196-.2929.7071s-.4419.2929-.7071.2929h-3v3c0 .552-.45 1-1.007 1h-11.986c-.13187.0008-.2626-.0245-.38468-.0744-.12207-.0499-.23309-.1234-.32666-.2163-.09358-.0929-.16787-.2034-.21861-.3252-.05073-.1217-.07692-.2522-.07705-.3841l.003-14c0-.552.45-1 1.007-1zm2 0h8v10h2v-12h-10zm-2 5v2h6v-2zm0 4v2h6v-2z" /></svg>