<svg fill="currentColor" height="24" viewBox="0 0 24 24" width="24" xmlns="http://www.w3.org/2000/svg"><path d="m16 2 5 5v14.008c-.0003.2632-.105.5155-.2912.7015s-.4386.2905-.7018.2905h-16.014c-.26262-.0018-.51398-.1069-.69978-.2925s-.29113-.4369-.29322-.6995v-18.016c0-.548.445-.992.993-.992zm-2.471 12.446 2.21 2.21 1.415-1.413-2.21-2.21c.4925-.8389.6626-1.8285.4784-2.7837-.1841-.95524-.7099-1.81067-1.479-2.40636s-1.7288-.89085-2.6998-.83029c-.9709.06056-1.8865.4727-2.5756 1.15935-.68897.68839-1.10311 1.60451-1.16474 2.5765-.06162.972.23349 1.9331.83 2.703.5965.7699 1.45341 1.2957 2.40994 1.4788.9566.1831 1.9471.0109 2.7858-.4843zm-.618-2.032c-.1845.191-.4052.3434-.6492.4482s-.5064.16-.772.1623-.5289-.0483-.7747-.1489c-.2458-.1005-.4691-.249-.6569-.4368-.18778-.1878-.33628-.4111-.43684-.6569s-.15117-.5091-.14886-.7747.05748-.528.1623-.772c.10482-.24402.25718-.46471.4482-.6492.3772-.36432.8824-.56591 1.4068-.56135s1.026.2149 1.3968.58571c.3709.37082.5812.87244.5857 1.39684.0046.5244-.197 1.0296-.5613 1.4068z" /></svg>