<svg fill="currentColor" height="24" viewBox="0 0 24 24" width="24" xmlns="http://www.w3.org/2000/svg"><path d="m8.595 12.812c-.12679-.5336-.12679-1.0894 0-1.623l-.992-.573 1-1.732.992.573c.39816-.37712.8795-.65528 1.405-.812v-1.145h2v1.145c.532.158 1.012.44 1.405.812l.992-.573 1 1.732-.992.573c.1266.5333.1266 1.0887 0 1.622l.992.573-1 1.732-.992-.573c-.3982.3771-.8795.6553-1.405.812v1.145h-2v-1.145c-.5255-.1567-1.00684-.4349-1.405-.812l-.992.573-1-1.732zm3.405.688c.3978 0 .7794-.158 1.0607-.4393s.4393-.6629.4393-1.0607-.158-.7794-.4393-1.0607-.6629-.4393-1.0607-.4393-.7794.158-1.0607.4393-.4393.6629-.4393 1.0607.158.7794.4393 1.0607.6629.4393 1.0607.4393zm3-9.5h-10v16h14v-12h-4zm-12-1.008c0-.548.447-.992.999-.992h12.001l5 5v13.993c.0009.1313-.024.2615-.0734.3832s-.1223.2325-.2145.326-.202.1679-.3229.219c-.121.0511-.2509.0779-.3822.0788h-16.014c-.26262-.0018-.51398-.1069-.69978-.2925s-.29113-.4369-.29322-.6995z" /></svg>