<svg fill="currentColor" height="24" viewBox="0 0 24 24" width="24" xmlns="http://www.w3.org/2000/svg"><path d="m14 9v-5h-9v16h6.056c.328.417.724.785 1.18 1.085l1.39.915h-9.633c-.26319 0-.51561-.1045-.7018-.2905-.1862-.186-.29093-.4383-.2912-.7015v-18.016c0-.537.449-.992 1.002-.992h10.995l6.003 6v1zm-2 2h9v5.949c0 .99-.501 1.916-1.336 2.465l-3.164 2.084-3.164-2.084c-.4094-.2679-.7458-.6333-.979-1.0634s-.3559-.9114-.357-1.4006zm2 5.949c0 .316.162.614.436.795l2.064 1.36 2.064-1.36c.1329-.0859.2424-.2036.3185-.3424s.1165-.2943.1175-.4526v-3.949h-5z" /></svg>