<svg fill="currentColor" height="24" viewBox="0 0 24 24" width="24" xmlns="http://www.w3.org/2000/svg"><path d="m9.00002 2.003v-.003h10.99798c.552 0 1.002.455 1.002.992v18.016c-.0002.2632-.105.5155-.2912.7015s-.4386.2905-.7018.2905h-16.01398c-.13132-.0009-.26117-.0277-.38215-.0788s-.2307-.1255-.32291-.219-.1651-.2043-.2145-.326-.07436-.2519-.07344-.3832v-12.993zm-3.17 5.997h3.17v-3.17zm5.16998-4v5c0 .26522-.1053.51957-.2929.70711-.1875.18753-.4419.29289-.7071.29289h-4.99998v10h13.99998v-16z" /></svg>