<svg fill="currentColor" height="24" viewBox="0 0 24 24" width="24" xmlns="http://www.w3.org/2000/svg"><path d="m16 2 5 5v14.008c-.0003.2632-.105.5155-.2912.7015s-.4386.2905-.7018.2905h-16.014c-.26262-.0018-.51398-.1069-.69978-.2925s-.29113-.4369-.29322-.6995v-18.016c0-.548.445-.992.993-.992zm-5 10.05c-.5055-.1032-1.03047-.0475-1.50302.1595s-.86949.5551-1.13639.9966c-.26691.4415-.39069.9547-.35439 1.4693s.23091 1.0054.55715 1.405c.32623.3997.76811.6886 1.26504.8272.49691.1386 1.02451.12 1.51051-.0531s.9065-.4923 1.2039-.9138c.2974-.4216.4571-.9248.4572-1.4407v-4.5h3v-2h-5z" /></svg>