<svg fill="currentColor" height="24" viewBox="0 0 24 24" width="24" xmlns="http://www.w3.org/2000/svg"><path d="m18.031 16.617 4.283 4.282-1.415 1.415-4.282-4.283c-1.5933 1.2772-3.575 1.9719-5.617 1.969-4.968 0-9-4.032-9-9s4.032-9 9-9 9 4.032 9 9c.0029 2.042-.6918 4.0237-1.969 5.617zm-1.372-7.617c-.4137-1.17015-1.1801-2.18321-2.1936-2.8996s-2.2243-1.10084-3.4654-1.1004c-3.315 0-6 2.685-6 6h2c.00021-.6933.18059-1.37471.52345-1.97733s.83643-1.10581 1.43233-1.46022c.5959-.35442 1.27372-.5479 1.96692-.56147.6932-.01358 1.378.15321 1.9873.48402l-.91 1.515zm.341 2h-2c-.0002.6933-.1806 1.3747-.5234 1.9773-.3429.6027-.8365 1.1058-1.4324 1.4603-.5959.3544-1.2737.5478-1.9669.5614s-1.37798-.1532-1.9873-.484l.91-1.515h-4.659c.41371 1.1702 1.18012 2.1832 2.19363 2.8996s2.22424 1.1008 3.46537 1.1004c3.315 0 6-2.685 6-6z" /></svg>