<svg fill="currentColor" height="24" viewBox="0 0 24 24" width="24" xmlns="http://www.w3.org/2000/svg"><path d="m21 3c.552 0 1 .448 1 1v16c0 .552-.448 1-1 1h-18c-.552 0-1-.448-1-1v-16c0-.552.448-1 1-1zm-1 2h-8.465c-.69 1.977-1.035 4.644-1.035 8h3c-.115.92-.15 1.878-.107 2.877 1.226-.211 2.704-.777 4.027-1.71l1.135 1.665c-1.642 1.095-3.303 1.779-4.976 2.043.052.37.113.745.184 1.125h6.237zm-13.445 9.168-1.11 1.664c2.157 1.438 4.347 2.168 6.555 2.168v-2c-1.792 0-3.602-.603-5.445-1.832zm10.445-7.168c.552 0 1 .448 1 1v1c0 .552-.448 1-1 1s-1-.448-1-1v-1c0-.552.448-1 1-1zm-10 0c-.552 0-1 .452-1 1v1c0 .552.448 1 1 1s1-.45 1-1v-1c0-.552-.448-1-1-1z" /></svg>