<svg fill="currentColor" height="24" viewBox="0 0 24 24" width="24" xmlns="http://www.w3.org/2000/svg"><path d="m18.033 16.618 4.28 4.281-1.414 1.415-4.28-4.281c-1.5942 1.2767-3.5766 1.9707-5.619 1.967-1.67665.0007-3.32016-.467-4.74518-1.3504-1.42501-.8835-2.57485-2.1475-3.31982-3.6496h6.065l-1.304 2.173c1.01603.5446 2.15123.8287 3.304.827 1.8204.0029 3.5699-.7059 4.875-1.975l.15-.15c1.2691-1.3051 1.9779-3.0546 1.975-4.875 0-.695-.101-1.366-.29-2h2.067c.146.643.223 1.313.223 2 .0035 2.0421-.6905 4.0241-1.967 5.618zm1.032-9.618h-6.065l1.304-2.173c-1.016-.54457-2.1512-.82872-3.304-.827-3.868 0-7 3.132-7 7 0 .695.101 1.366.29 2h-2.067c-.14855-.6563-.22335-1.3271-.223-2 0-4.973 4.027-9 9-9 1.6767-.00074 3.3202.46699 4.7452 1.35045s2.5748 2.14749 3.3198 3.64955z" /></svg>