<svg fill="currentColor" height="24" viewBox="0 0 24 24" width="24" xmlns="http://www.w3.org/2000/svg"><path d="m21 3c.552 0 1 .448 1 1v16c0 .552-.448 1-1 1h-18c-.552 0-1-.448-1-1v-16c0-.552.448-1 1-1zm-10.52 1.999-6.48.001v14h8.746c-.062-.344-.116-.684-.163-1.02-.297.013-.491.02-.583.02-2.208 0-4.398-.73-6.555-2.168l1.11-1.664c1.843 1.229 3.653 1.832 5.445 1.832.133 0 .265-.003.398-.01-.024-.497-.024-1.41.007-1.99h-2.905v-1c0-3.275.32-5.94.98-8.001zm2.12 0c-.665 1.583-1.044 4.411-1.09 7.001h3.123l-.14 1.124c-.101.805-.137 1.645-.108 2.52 1.013-.3 2.031-.79 3.06-1.476l1.11 1.664c-1.32.88-2.652 1.495-3.993 1.84.057.433.13.876.219 1.327l5.219.001v-14zm-5.6 2.001c.552 0 1 .448 1 1v1c0 .552-.448 1-1 1s-1-.448-1-1v-1c0-.552.448-1 1-1zm10 0c.552 0 1 .448 1 1v1c0 .552-.448 1-1 1s-1-.448-1-1v-1c0-.552.448-1 1-1z" /></svg>