<svg fill="currentColor" height="24" viewBox="0 0 24 24" width="24" xmlns="http://www.w3.org/2000/svg"><path d="m12 1c2.387 0 4.6761.94821 6.364 2.63604 1.6878 1.68783 2.636 3.97701 2.636 6.36396v4c.001 1.4414-.3446 2.862-1.0077 4.1419-.663 1.2799-1.6242 2.3815-2.8023 3.2121.474-1.522.75-3.131.802-4.797l.008-.557v-2.001h-2v2.001l-.003.315c-.0397 2.1808-.5268 4.3301-1.431 6.315-1.1584.3423-2.3736.449-3.574.314 1.2383-1.9552 1.9293-4.2068 2.001-6.52l.007-.424v-7h-2v7l-.004.288c-.0543 2.2197-.7822 4.3705-2.08699 6.167-.95411-.3492-1.84205-.8577-2.626-1.504 1.04484-1.3212 1.64357-2.9399 1.71-4.623l.007-.328v-6l.005-.2c.0275-.56648.17582-1.12054.435-1.625l.114-.207-1.445-1.445c-.66475.93236-1.04729 2.03624-1.102 3.18l-.007.297v6l-.004.225c-.04231 1.1778-.43237 2.3166-1.121 3.273-1.21835-1.5735-1.87805-3.5079-1.875-5.498v-4c0-2.38695.94821-4.67613 2.63604-6.36396s3.97701-2.63604 6.36395-2.63604zm0 3c-1.196 0-2.30999.35-3.24599.953l-.23.156 1.444 1.445c.54379-.32169 1.15639-.5092 1.78699-.547l.245-.007.2.005c.9895.04946 1.9254.46436 2.6265 1.16435s1.1175 1.63525 1.1685 2.62465l.005.206v2h2v-2c0-1.5913-.6321-3.11742-1.7573-4.24264-1.1253-1.12522-2.6514-1.75736-4.2427-1.75736z" /></svg>