<svg fill="currentColor" height="24" viewBox="0 0 24 24" width="24" xmlns="http://www.w3.org/2000/svg"><path d="m16.9996 13v1c0 2.77-.664 5.445-1.915 7.846l-.227.42-1.747-.974c1.16-2.08 1.81-4.41 1.882-6.836l.007-.456v-1zm-6-3h2v4l-.005.379c-.0756 2.7377-1.0178 5.3808-2.691 7.549l-.231.29-1.54997-1.264c1.52637-1.8641 2.39497-4.1799 2.47097-6.588l.006-.366zm1-3.99999c1.3261 0 2.5979.52678 3.5356 1.46447.9376.93768 1.4644 2.20945 1.4644 3.53552h-2c0-.7956-.316-1.5587-.8786-2.12131-.5627-.56261-1.3257-.87868-2.1214-.87868-.7956 0-1.5587.31607-2.12129.87868-.56261.56261-.87868 1.32571-.87868 2.12131v3c0 2.235-.82 4.344-2.271 5.977l-.212.23-1.448-1.38c1.16996-1.2241 1.85424-2.8322 1.925-4.524l.006-.303v-3c0-1.32607.52679-2.59784 1.46447-3.53552.93768-.93769 2.2095-1.46447 3.5355-1.46447zm0-4c2.387 0 4.6762.94821 6.364 2.63604s2.636 3.97701 2.636 6.36395v3c0 1.698-.202 3.37-.597 4.99l-.139.539-1.93-.526c.392-1.437.613-2.922.658-4.435l.008-.568v-3c0-1.29913-.3615-2.57263-1.0441-3.67799-.6826-1.10535-1.6593-1.99894-2.8209-2.58076s-2.4621-.82892-3.7561-.71363c-1.294.11528-2.53045.58839-3.57087 1.36639l-1.425-1.426c1.59348-1.27672 3.57515-1.97103 5.61697-1.968zm-7.03197 3.383 1.426 1.425c-.85766 1.14323-1.34294 2.52259-1.39 3.95099l-.004.241.004 2c0 1.12-.264 2.203-.762 3.177l-.156.29-1.737-.992c.38-.665.602-1.407.646-2.183l.009-.292v-2c-.00593-2.04166.68715-4.02385 1.964-5.61699z" /></svg>