<svg fill="currentColor" height="24" viewBox="0 0 24 24" width="24" xmlns="http://www.w3.org/2000/svg"><path d="m12 1.00001c2.387 0 4.6761.94821 6.364 2.63604 1.6878 1.68783 2.636 3.97701 2.636 6.36395v4c.0005 1.4483-.3486 2.8754-1.0176 4.16-.669 1.2845-1.6381 2.3887-2.8251 3.2186-1.1869.8299-2.5566 1.3612-3.9928 1.5486-1.4361.1874-2.8963.0254-4.25649-.4722.128-.177.251-.357.369-.542l.17-.28c.96969-1.6179 1.50369-3.4593 1.54999-5.345l.003-.288v-6.99999h2v6.99999c.0022 1.7166-.3367 3.4165-.997 5.001.7723-.0004 1.5393-.1281 2.27-.378.442-1.361.693-2.808.724-4.31l.003-.313v-3.001h2v3.001c0 1.088-.102 2.153-.298 3.185.6945-.628 1.2556-1.3894 1.6497-2.2388.3941-.8493.6132-1.7693.6443-2.7052l.004-.241v-4c0-1.29913-.3615-2.57263-1.0441-3.67799-.6826-1.10535-1.6594-1.99894-2.8209-2.58076-1.1616-.58182-2.4622-.82892-3.7562-.71363-1.294.11528-2.53037.58839-3.57079 1.36639l-1.425-1.426c1.59347-1.27672 3.57515-1.971028 5.61699-1.968zm-4.99999 8.99999c0-1.32607.52678-2.59784 1.46447-3.53552.93768-.93769 2.20942-1.46447 3.53552-1.46447s2.5979.52678 3.5355 1.46447c.9377.93768 1.4645 2.20945 1.4645 3.53552v1h-2v-1c.0008-.7809-.303-1.53132-.8468-2.09181-.5437-.56049-1.2846-.88686-2.0652-.90978-.7805-.02292-1.5393.25944-2.11496.78706-.5757.52763-.92297 1.25894-.96803 2.03854l-.005.17599v6c0 1.567-.4 3.04-1.104 4.323l-.024.04c-.23.414-.491.808-.782 1.179-.43975-.2868-.85365-.6113-1.237-.97l-.309-.3c-1.63448-1.6782-2.54755-3.9293-2.544-6.272v-4c0-2.12499.736-4.07799 1.968-5.61699l1.426 1.425c-.85767 1.14323-1.34294 2.52259-1.39 3.951l-.004.24099v4c0 1.675.588 3.212 1.57 4.417.25821-.6977.40206-1.4325.426-2.176l.004-.241z" /></svg>