<svg fill="currentColor" height="24" viewBox="0 0 24 24" width="24" xmlns="http://www.w3.org/2000/svg"><path d="m12.0003 23c1.9892 0 3.8968-.7902 5.3033-2.1967 1.4066-1.4065 2.1967-3.3142 2.1967-5.3033 0-.866-.23-1.697-.5-2.47-1.667 1.647-2.933 2.47-3.8 2.47 3.995-7 1.8-10-4.2-14 .5 5-2.79596 7.274-4.13796 8.537-1.09468 1.0297-1.85477 2.3645-2.18172 3.8313-.32695 1.4669-.20569 2.9981.34806 4.3952.55376 1.3971 1.51447 2.5957 2.75756 3.4402 1.2431.8446 2.71126 1.2962 4.21406 1.2963zm.71-17.765c3.241 2.75 3.257 4.887.753 9.274-.761 1.333.202 2.991 1.737 2.991.688 0 1.384-.2 2.119-.595-.2178.823-.6238 1.5842-1.1858 2.2236-.5621.6394-1.2649 1.1396-2.0531 1.4613-.7882.3216-1.6404.4559-2.4893.3922-.849-.0637-1.67152-.3236-2.40296-.7592-.73143-.4356-1.35175-1.0351-1.81212-1.7512s-.74821-1.5293-.84086-2.3756c-.09266-.8463.0124-1.7025.30691-2.5013.29451-.7987.77042-1.5182 1.39027-2.1018.126-.118.765-.685.793-.71.424-.38.773-.717 1.11796-1.086 1.23-1.318 2.114-2.78 2.566-4.462z" /></svg>