<svg fill="currentColor" height="24" viewBox="0 0 24 24" width="24" xmlns="http://www.w3.org/2000/svg"><path d="m12 2c5.523 0 10 4.477 10 10s-4.477 10-10 10-10-4.477-10-10c0-1.464.314-2.854.88-4.106.466-.939 1.233-1.874 1.85-2.194-.653 1.283-.973 2.54-1.04 3.383.454-1.5 1.315-2.757 2.52-3.644 2.066-1.519 4.848-1.587 5.956-.62-2.056.707-4.296 3.548-3.803 6.876.08.55.245 1.084.489 1.582-.384-1.01-.418-2.433.202-3.358.692-1.03 1.678-1.248 2.206-1.136-.208-.044-.668.836-.736.991-.173.394-.259.82-.251 1.25.0149.8984.3853 1.7542 1.03 2.38 1.922 1.871 5.023 1.135 6.412-1.002.953-1.471 1.069-3.968-.155-5.952-.3054-.48311-.6695-.92649-1.084-1.32-1.85-1.766-4.48-2.57-6.982-2.205-1.106.177-2.047.496-2.824.956 1.085-1.083 3.24-1.881 5.33-1.881zm-5.125 5.705c-2.253.781-3.501 3.17-2.579 6.46.46124 1.6383 1.4327 3.0869 2.7733 4.1355 1.34061 1.0485 2.9806 1.6425 4.6817 1.6955l.249.004c2.0359.0001 3.9953-.776 5.4789-2.1703 1.4837-1.3942 2.3799-3.3017 2.5061-5.3337l.009-.212c-.13.349-.283.674-.463.98l-.14.227c-2.104 3.239-6.681 4.075-9.48 1.348-.38076-.3694-.70491-.793-.962-1.257l-.106-.201c-1.736-.387-2.584-1.326-2.543-2.817.027-.991.23-1.96.575-2.86z" /></svg>