<svg fill="currentColor" height="24" viewBox="0 0 24 24" width="24" xmlns="http://www.w3.org/2000/svg"><path d="m15.9998 2v2h-1v3.243c0 1.158.251 2.301.736 3.352l4.2819 9.276c.347.753.0181 1.644-.7339 1.99-.197.092-.411.139-.628.139h-13.31205c-.828 0-1.5-.672-1.5-1.5 0-.217.047-.432.138-.629l4.282-9.276c.485-1.05.736-2.194.736-3.352v-3.243h-1v-2zm-2.6121 8.001h-2.7759c-.104.363-.23.721-.374 1.071l-.158.361-3.95505 8.567h11.74905l-3.954-8.567c-.214-.464-.3921-.943-.5321-1.432zm-2.3879-2.758c0 .253-.0101.506-.0291.758h2.0581c-.01-.121-.016-.242-.021-.364l-.008-.394v-3.243h-2z" /></svg>