<svg fill="currentColor" height="24" viewBox="0 0 24 24" width="24" xmlns="http://www.w3.org/2000/svg"><path d="m10.4778 11.632-4.50998-7.07201 1.931-.518 6.95098 6.42001 5.262-1.41001c.3843-.1029.7938-.04893 1.1383.15005.3445.19897.5958.52665.6987.91096.1029.3843.049.7937-.15 1.1382s-.5267.5959-.911.6988l-14.97198 4.01-.776-2.898.241-.065 2.467 2.445-2.626.704c-.21533.0577-.44379.0419-.64907-.0451s-.37561-.2401-.48393-.4349l-2.623-4.726 1.449-.388 2.466 2.445 5.09698-1.366zm-6.47798 7.368h15.99998v2h-15.99998z" /></svg>