<svg fill="currentColor" height="24" viewBox="0 0 24 24" width="24" xmlns="http://www.w3.org/2000/svg"><path d="m10.2542 10.4699-.36997-8.38201 1.93297.518 2.81 9.03501 5.261 1.41c.1903.0509.3687.1389.525.2588s.2875.2694.386.44c.0985.1705.1625.3588.1882.5541.0258.1953.0128.3938-.0382.5841-.0509.1903-.1389.3687-.2588.525-.1198.1563-.2693.2874-.4399.3859-.1706.0986-.3589.1625-.5542.1883-.1953.0257-.3938.0127-.5841-.0382l-14.97197-4.012.776-2.89801.242.065.914 3.35001-2.627-.703c-.21527-.0579-.405-.1861-.53908-.3642-.13407-.1781-.20479-.3959-.20092-.6188l.09-5.40301 1.449.388.914 3.351zm-6.25397 8.53h15.99997v2h-15.99997z" /></svg>