<svg fill="currentColor" height="24" viewBox="0 0 24 24" width="24" xmlns="http://www.w3.org/2000/svg"><path d="m16 17.472c1.0989.9857 2.5237 1.53 4 1.528h2v2h-2c-1.4044.0023-2.7843-.3669-4-1.07-1.2156.7033-2.5956 1.0724-4 1.07-1.4044.0023-2.78435-.3669-4-1.07-1.2156.7033-2.59562 1.0724-4 1.07h-2v-2h2c1.537 0 2.94-.578 4-1.528 1.09893.9857 2.5237 1.53 4 1.528 1.537 0 2.94-.578 4-1.528zm-3.427-15.94003.1.08 10.327 9.38803h-3v6c-.6812.0009-1.3576-.1145-2-.341v-7.50203l-6-5.455-6 5.454.001 7.50203c-.54803.1938-1.1214.3066-1.702.335l-.299.007v-6h-3l10.327-9.38803c.1678-.15271.3826-.24381.609-.25835s.451.04835.637.17835z" /></svg>