<svg fill="currentColor" height="24" viewBox="0 0 24 24" width="24" xmlns="http://www.w3.org/2000/svg"><path d="m16 17.472c1.0989.9858 2.5237 1.5301 4 1.528h2v2h-2c-1.4044.0023-2.7843-.3668-4-1.07-1.2156.7033-2.5956 1.0725-4 1.07-1.4044.0023-2.78435-.3668-4-1.07-1.2156.7033-2.59562 1.0725-4 1.07h-2v-2h2c1.537 0 2.94-.578 4-1.528 1.09893.9858 2.5237 1.5301 4 1.528 1.537 0 2.94-.578 4-1.528zm-3.427-15.93996.1.08 10.327 9.38796h-3v6c-.7763.0007-1.5421-.1798-2.2365-.527s-1.2982-.8515-1.7635-1.473c-.4652.6216-1.069 1.126-1.7634 1.4732s-1.4602.5276-2.2366.5268c-.7763.0007-1.5421-.1798-2.23649-.527-.69438-.3472-1.29821-.8515-1.76351-1.473-.46519.6216-1.069 1.126-1.7634 1.4732s-1.46024.5276-2.2366.5268l-.001-6h-2.999l10.327-9.38796c.1521-.13845.3431-.22666.5471-.25261.204-.02594.411.01163.5929.10761z" /></svg>