<svg fill="currentColor" height="24" viewBox="0 0 24 24" width="24" xmlns="http://www.w3.org/2000/svg"><path d="m13 1 .001 3.062c1.7622.22279 3.4003 1.02543 4.6562 2.28151 1.2559 1.25609 2.0583 2.89424 2.2808 4.65649h3.062v2l-3.062.001c-.2227 1.7621-1.0252 3.4-2.2811 4.6559s-2.8938 2.0584-4.6559 2.2811l-.001 3.062h-2v-3.062c-1.76225-.2225-3.4004-1.0249-4.65649-2.2808-1.25608-1.2559-2.05872-2.894-2.28151-4.6562l-3.062-.001v-2h3.062c.22259-1.76239 1.02513-3.40066 2.28124-4.65676 1.2561-1.25611 2.89437-2.05865 4.65676-2.28124v-3.062zm-1 9c-.5304 0-1.0391.2107-1.4142.5858s-.5858.8838-.5858 1.4142.2107 1.0391.5858 1.4142.8838.5858 1.4142.5858 1.0391-.2107 1.4142-.5858.5858-.8838.5858-1.4142-.2107-1.0391-.5858-1.4142-.8838-.5858-1.4142-.5858z" /></svg>