<svg fill="currentColor" height="24" viewBox="0 0 24 24" width="24" xmlns="http://www.w3.org/2000/svg"><path d="m1.58378 13.007c-.783447-1.9723-.751322-4.17501.08931-6.12361.84063-1.9486 2.42091-3.48344 4.39319-4.26689 1.97229-.78345 4.17502-.75133 6.12362.0893 1.9486.84064 3.4834 2.42092 4.2669 4.3932.8381-.16196 1.7025-.1266 2.5246.10327.8221.22988 1.5794.64797 2.212 1.22117s1.123 1.28578 1.4326 2.08136c.3095.7955.4296 1.6522.3508 2.5022h-2.013c.1074-.7311-.0194-1.4775-.3621-2.1321-.3428-.6547-.884-1.18408-1.546-1.51234-.6621-.32825-1.4111-.43854-2.1396-.31505-.7286.12349-1.3994.47441-1.9163 1.00249v-.05c-.0003-.92053-.2123-1.82866-.6197-2.65411-.4075-.82545-.9994-1.54608-1.7299-2.10613-.7306-.56005-1.5802-.94449-2.4831-1.12358-.90298-.17908-1.83502-.14801-2.72402.09083-.889.23883-1.71113.67901-2.40277 1.28647-.69163.60747-1.23421 1.36593-1.58576 2.21669-.35154.85075-.50262 1.77099-.44154 2.68953.06107.9185.33267 1.8106.79377 2.6073zm2.416 5.993h17.00002v2h-17.00002zm-2-4h21.00002v2h-21.00002z" /></svg>