<svg fill="currentColor" height="24" viewBox="0 0 24 24" width="24" xmlns="http://www.w3.org/2000/svg"><path d="m1.58378 13.007c-.783447-1.9723-.751322-4.17501.08931-6.12361.84063-1.9486 2.42091-3.48344 4.39319-4.26689 1.97229-.78345 4.17502-.75133 6.12362.0893 1.9486.84064 3.4834 2.42092 4.2669 4.3932.8381-.16196 1.7025-.1266 2.5246.10327.8221.22988 1.5794.64797 2.212 1.22117s1.123 1.28578 1.4326 2.08136c.3095.7955.4296 1.6522.3508 2.5022zm2.416 5.993h17.00002v2h-17.00002zm-2-4h21.00002v2h-21.00002z" /></svg>