<svg fill="currentColor" height="24" viewBox="0 0 24 24" width="24" xmlns="http://www.w3.org/2000/svg"><path d="m22 10h-10v7.382c0 1.409.632 2.734 1.705 3.618h-10.705c-.26522 0-.51957-.1054-.70711-.2929-.18753-.1875-.29289-.4419-.29289-.7071v-16c0-.26522.10536-.51957.29289-.70711.18754-.18753.44189-.29289.70711-.29289h7.414l2 2h8.586c.2652 0 .5196.10536.7071.29289.1875.18754.2929.44189.2929.70711zm-8 2h8v5.382c0 .897-.446 1.734-1.187 2.23l-2.813 1.887-2.813-1.885c-.3658-.2459-.6654-.578-.8724-.9671s-.315-.8232-.3146-1.2639z" /></svg>