<svg fill="currentColor" height="24" viewBox="0 0 24 24" width="24" xmlns="http://www.w3.org/2000/svg"><path d="m12.414 5h8.586c.2652 0 .5196.10536.7071.29289.1875.18754.2929.44189.2929.70711v14c0 .2652-.1054.5196-.2929.7071s-.4419.2929-.7071.2929h-18c-.26522 0-.51957-.1054-.70711-.2929-.18753-.1875-.29289-.4419-.29289-.7071v-16c0-.26522.10536-.51957.29289-.70711.18754-.18753.44189-.29289.70711-.29289h7.414zm-.414 8c.663 0 1.2989-.2634 1.7678-.7322.4688-.4689.7322-1.1048.7322-1.7678 0-.66304-.2634-1.29893-.7322-1.76777-.4689-.46884-1.1048-.73223-1.7678-.73223s-1.2989.26339-1.7678.73223c-.46881.46884-.7322 1.10473-.7322 1.76777 0 .663.26339 1.2989.7322 1.7678.4689.4688 1.1048.7322 1.7678.7322zm-4 5h8c0-1.0609-.4214-2.0783-1.1716-2.8284-.7501-.7502-1.7675-1.1716-2.8284-1.1716s-2.07828.4214-2.82843 1.1716c-.75014.7501-1.17157 1.7675-1.17157 2.8284z" /></svg>