<svg fill="currentColor" height="24" viewBox="0 0 24 24" width="24" xmlns="http://www.w3.org/2000/svg"><path d="m12.414 5h8.586c.2652 0 .5196.10536.7071.29289.1875.18754.2929.44189.2929.70711v14c0 .2652-.1054.5196-.2929.7071s-.4419.2929-.7071.2929h-18c-.26522 0-.51957-.1054-.70711-.2929-.18753-.1875-.29289-.4419-.29289-.7071v-16c0-.26522.10536-.51957.29289-.70711.18754-.18753.44189-.29289.70711-.29289h7.414zm-8.414 0v14h16v-12h-8.414l-2-2zm11 8h1v4h-8v-4h1v-1c0-.7956.31607-1.5587.87868-2.12132.56262-.56261 1.32572-.87868 2.12132-.87868s1.5587.31607 2.1213.87868c.5626.56262.8787 1.32572.8787 2.12132zm-2 0v-1c0-.2652-.1054-.5196-.2929-.7071s-.4419-.2929-.7071-.2929-.5196.1054-.7071.2929-.2929.4419-.2929.7071v1z" /></svg>