<svg fill="currentColor" height="24" viewBox="0 0 24 24" width="24" xmlns="http://www.w3.org/2000/svg"><path d="m12.414 5h8.586c.2652 0 .5196.10536.7071.29289.1875.18754.2929.44189.2929.70711v14c0 .2652-.1054.5196-.2929.7071s-.4419.2929-.7071.2929h-18c-.26522 0-.51957-.1054-.70711-.2929-.18753-.1875-.29289-.4419-.29289-.7071v-16c0-.26522.10536-.51957.29289-.70711.18754-.18753.44189-.29289.70711-.29289h7.414zm-1.414 11v2h2v-2zm-2.433-5.187 1.962.393c.0557-.2786.1893-.5356.3854-.7412.196-.2056.4464-.3513.722-.4201.2756-.06883.5651-.05799.8348.0313.2697.0892.5085.2532.6886.4729.1802.2197.2942.486.3289.7679.0347.282-.0114.568-.1329.8248s-.3135.4738-.5535.6257c-.24.152-.5182.2327-.8023.2327h-1v2h1c.6628-.0002 1.3119-.1886 1.8718-.5432.5599-.3547 1.0076-.861 1.291-1.4601s.3909-1.2664.3099-1.9242-.347-1.27913-.7672-1.79165c-.4203-.51252-.9774-.89518-1.6066-1.10349-.6291-.2083-1.3045-.23368-1.9476-.07318-.643.1605-1.22727.50029-1.68477.97982-.4575.47954-.76944 1.0791-.89953 1.729z" /></svg>