<svg fill="currentColor" height="24" viewBox="0 0 24 24" width="24" xmlns="http://www.w3.org/2000/svg"><path d="m12.414 5h8.586c.2652 0 .5196.10536.7071.29289.1875.18754.2929.44189.2929.70711v14c0 .2652-.1054.5196-.2929.7071s-.4419.2929-.7071.2929h-18c-.26522 0-.51957-.1054-.70711-.2929-.18753-.1875-.29289-.4419-.29289-.7071v-16c0-.26522.10536-.51957.29289-.70711.18754-.18753.44189-.29289.70711-.29289h7.414zm-8.414 0v14h16v-12h-8.414l-2-2zm4 4h8v4.904c0 .892-.446 1.724-1.187 2.219l-2.813 1.875-2.813-1.875c-.3652-.2436-.66461-.5736-.87168-.9607-.20706-.3871-.31537-.8193-.31532-1.2583zm2 4.904c0 .223.111.431.297.555l1.703 1.135 1.703-1.135c.0914-.0609.1663-.1434.2181-.2403.0518-.0968.0789-.2049.0789-.3147v-2.904h-4z" /></svg>