<svg fill="currentColor" height="24" viewBox="0 0 24 24" width="24" xmlns="http://www.w3.org/2000/svg"><path d="m10.414 3 2 2h8.586c.2652 0 .5196.10536.7071.29289.1875.18754.2929.44189.2929.70711v14c0 .2652-.1054.5196-.2929.7071s-.4419.2929-.7071.2929h-18c-.26522 0-.51957-.1054-.70711-.2929-.18753-.1875-.29289-.4419-.29289-.7071v-16c0-.26522.10536-.51957.29289-.70711.18754-.18753.44189-.29289.70711-.29289zm-.828 2h-5.586v14h16v-12h-8.414zm2.414 4c.4403-.0002.8684.14492 1.2179.41286.3494.26794.6007.64374.7147 1.06904.1141.4253.0846.8763-.0838 1.2832-.1685.4068-.4665.7467-.8478.9669l-.001 4.268h-2v-4.268c-.3813-.2201-.6792-.5599-.8477-.9667-.16846-.4067-.19801-.8577-.0841-1.2829.114-.4253.3651-.80107.7143-1.06908.3493-.26802.7772-.4133 1.2175-.41332z" /></svg>