<svg fill="currentColor" height="24" viewBox="0 0 24 24" width="24" xmlns="http://www.w3.org/2000/svg"><path d="m12.414 5h8.586c.2652 0 .5196.10536.7071.29289.1875.18754.2929.44189.2929.70711v14c0 .2652-.1054.5196-.2929.7071s-.4419.2929-.7071.2929h-18c-.26522 0-.51957-.1054-.70711-.2929-.18753-.1875-.29289-.4419-.29289-.7071v-16c0-.26522.10536-.51957.29289-.70711.18754-.18753.44189-.29289.70711-.29289h7.414zm-8.414 0v14h16v-12h-8.414l-2-2zm4.591 8.809c-.12671-.5332-.12671-1.0888 0-1.622l-.991-.572 1-1.732.991.573c.39785-.377.8788-.65517 1.404-.812v-1.144h2v1.144c.532.159 1.01.44 1.403.812l.992-.573 1 1.731-.991.573c.1267.5332.1267 1.0888 0 1.622l.991.572-1 1.731-.991-.572c-.398.3767-.8789.6545-1.404.811v1.145h-2v-1.146c-.5251-.1565-1.00604-.4343-1.404-.811l-.991.572-1-1.73.991-.573zm3.404.688c.2015.0074.4023-.026.5906-.098s.3602-.1812.5053-.3212c.1451-.1399.2605-.3076.3394-.4931.0788-.1856.1195-.3851.1195-.5867s-.0407-.4011-.1195-.5867c-.0789-.1855-.1943-.3532-.3394-.4931-.1451-.14-.317-.2492-.5053-.3212s-.3891-.1054-.5906-.098c-.3881.0142-.7555.1783-1.0251.4579-.2695.2795-.4201.6528-.4201 1.0411s.1506.7616.4201 1.0411c.2696.2796.637.4437 1.0251.4579z" /></svg>