<svg fill="currentColor" height="24" viewBox="0 0 24 24" width="24" xmlns="http://www.w3.org/2000/svg"><path d="m12.414 5h8.586c.2652 0 .5196.10536.7071.29289.1875.18754.2929.44189.2929.70711v14c0 .2652-.1054.5196-.2929.7071s-.4419.2929-.7071.2929h-18c-.26522 0-.51957-.1054-.70711-.2929-.18753-.1875-.29289-.4419-.29289-.7071v-16c0-.26522.10536-.51957.29289-.70711.18754-.18753.44189-.29289.70711-.29289h7.414zm-8.414 0v14h16v-12h-8.414l-2-2zm8 4v4h4c0 .7911-.2346 1.5645-.6741 2.2223s-1.0643 1.1705-1.7952 1.4732c-.7309.3028-1.5351.382-2.3111.2276-.7759-.1543-1.48862-.5353-2.04803-1.0947s-.94037-1.2721-1.09471-2.048c-.15434-.776-.07513-1.5802.22762-2.3111s.81544-1.3557 1.47324-1.79518c.65778-.43952 1.43118-.67412 2.22228-.67412z" /></svg>