<svg fill="currentColor" height="24" viewBox="0 0 24 24" width="24" xmlns="http://www.w3.org/2000/svg"><path d="m22 9h-2v-2h-8.414l-2-2h-5.586v14h7.447c.3672.8026.9416 1.4929 1.664 2h-10.111c-.26522 0-.51957-.1054-.70711-.2929-.18753-.1875-.29289-.4419-.29289-.7071v-16c0-.26522.10536-.51957.29289-.70711.18754-.18753.44189-.29289.70711-.29289h7.414l2 2h8.586c.2652 0 .5196.10536.7071.29289.1875.18754.2929.44189.2929.70711zm-9 2h9v5.949c0 .99-.501 1.916-1.336 2.465l-3.164 2.084-3.164-2.084c-.4094-.2679-.7458-.6333-.979-1.0634s-.3559-.9114-.357-1.4006zm2 5.949c0 .316.162.614.436.795l2.064 1.36 2.064-1.36c.1329-.0859.2424-.2036.3185-.3424s.1165-.2943.1175-.4526v-3.949h-5z" /></svg>