<svg fill="currentColor" height="24" viewBox="0 0 24 24" width="24" xmlns="http://www.w3.org/2000/svg"><path d="m3.08736 9h17.82604c.1383-.00006.2752.02859.4019.08413.1267.05555.2405.13679.3342.23858s.1653.22192.2102.35278c.0449.13087.0621.26963.0507.40751l-.834 10c-.0208.2499-.1348.4828-.3193.6527-.1844.1698-.426.2642-.6767.2643h-16.16004c-.25075-.0001-.4923-.0945-.67677-.2643-.18448-.1699-.29841-.4028-.31923-.6527l-.834-10c-.01148-.13788.00577-.27664.05067-.40751.0449-.13086.11646-.25099.21017-.35278s.20752-.18303.33423-.23858c.12672-.05554.26358-.08419.40193-.08413zm1.753 10h14.32004l.666-8h-15.65204zm8.57404-14h6.586c.2652 0 .5195.10536.7071.29289.1875.18754.2929.44189.2929.70711v1h-18.00004v-3c0-.26522.10536-.51957.2929-.70711.18753-.18753.44189-.29289.7071-.29289h7.41404z" /></svg>