<svg fill="currentColor" height="24" viewBox="0 0 24 24" width="24" xmlns="http://www.w3.org/2000/svg"><path d="m12.414 5h8.586c.2652 0 .5196.10536.7071.29289.1875.18754.2929.44189.2929.70711v14c0 .2652-.1054.5196-.2929.7071s-.4419.2929-.7071.2929h-18c-.26522 0-.51957-.1054-.70711-.2929-.18753-.1875-.29289-.4419-.29289-.7071v-16c0-.26522.10536-.51957.29289-.70711.18754-.18753.44189-.29289.70711-.29289h7.414zm-8.414 0v14h16v-12h-8.414l-2-2zm7 11h2v2h-2zm-2.433-5.187c.12992-.6502.44182-1.25015.8994-1.73002.45757-.47987 1.042-.81994 1.6853-.98062.6433-.16069 1.319-.13539 1.9485.07296.6295.20834 1.1868.59115 1.6073 1.1039.4204.51274.6865 1.13438.7675 1.79248.0809.6581-.0267 1.3256-.3104 1.9249-.2836.5994-.7316 1.1058-1.2919 1.4605-.5602.3547-1.2096.5429-1.8727.5429h-1v-2h1c.2841 0 .5623-.0807.8023-.2327.24-.1519.432-.3689.5535-.6257s.1676-.5428.1329-.8248c-.0347-.2819-.1487-.5482-.3289-.7679-.1801-.2197-.4189-.3837-.6886-.4729-.2697-.08929-.5592-.10013-.8348-.0313-.2756.0688-.526.2145-.722.4201-.1961.2056-.3297.4626-.3854.7412z" /></svg>