<svg fill="currentColor" height="24" viewBox="0 0 24 24" width="24" xmlns="http://www.w3.org/2000/svg"><path d="m12.414 5h8.586c.2652 0 .5196.10536.7071.29289.1875.18754.2929.44189.2929.70711v14c0 .2652-.1054.5196-.2929.7071s-.4419.2929-.7071.2929h-18c-.26522 0-.51957-.1054-.70711-.2929-.18753-.1875-.29289-.4419-.29289-.7071v-16c0-.26522.10536-.51957.29289-.70711.18754-.18753.44189-.29289.70711-.29289h7.414zm-1.414 8.05c-.5055-.1032-1.03047-.0475-1.50302.1595s-.86949.5551-1.13639.9966c-.26691.4415-.39069.9547-.35439 1.4693s.23091 1.0054.55715 1.405c.32623.3997.76811.6886 1.26504.8272.49691.1386 1.02451.12 1.51051-.0531s.9065-.4923 1.2039-.9138c.2974-.4216.4571-.9248.4572-1.4407v-4.5h3v-2h-5z" /></svg>