<svg fill="currentColor" height="24" viewBox="0 0 24 24" width="24" xmlns="http://www.w3.org/2000/svg"><path d="m8 21v-10h14v9c0 .2652-.1054.5196-.2929.7071s-.4419.2929-.7071.2929zm-2 0h-3c-.26522 0-.51957-.1054-.70711-.2929-.18753-.1875-.29289-.4419-.29289-.7071v-16c0-.26522.10536-.51957.29289-.70711.18754-.18753.44189-.29289.70711-.29289h7.414l2 2h8.586c.2652 0 .5196.10536.7071.29289.1875.18754.2929.44189.2929.70711v3h-15c-.26522 0-.51957.10536-.70711.29289-.18753.18754-.29289.44189-.29289.70711z" /></svg>