<svg fill="currentColor" height="24" viewBox="0 0 24 24" width="24" xmlns="http://www.w3.org/2000/svg"><path d="m22 13.126c-1.1142-.8009-2.4694-1.1957-3.8394-1.1186-1.3701.0772-2.6723.6217-3.6896 1.5427s-1.6881 2.1628-1.9006 3.5185c-.2126 1.3557.046 2.7433.7326 3.9314h-10.303c-.26522 0-.51957-.1054-.70711-.2929-.18753-.1875-.29289-.4419-.29289-.7071v-16c0-.26522.10536-.51957.29289-.70711.18754-.18753.44189-.29289.70711-.29289h7.414l2 2h8.586c.2652 0 .5196.10536.7071.29289.1875.18754.2929.44189.2929.70711zm-4 3.874v-3.5l5 4.5-5 4.5v-3.5h-3v-2z" /></svg>