<svg fill="currentColor" height="24" viewBox="0 0 24 24" width="24" xmlns="http://www.w3.org/2000/svg"><path d="m10.414 3 2 2h8.586c.2652 0 .5196.10536.7071.29289.1875.18754.2929.44189.2929.70711v14c0 .2652-.1054.5196-.2929.7071s-.4419.2929-.7071.2929h-18c-.26522 0-.51957-.1054-.70711-.2929-.18753-.1875-.29289-.4419-.29289-.7071v-16c0-.26522.10536-.51957.29289-.70711.18754-.18753.44189-.29289.70711-.29289zm1.586 6c-.4403.00002-.8682.1453-1.2175.41332-.3492.26801-.6003.64378-.7143 1.06908-.11391.4252-.08436.8762.0841 1.2829.1685.4068.4664.7466.8477.9667v4.268h2l.001-4.268c.3813-.2202.6793-.5601.8478-.9669.1684-.4069.1979-.8579.0838-1.2832-.114-.4253-.3653-.8011-.7147-1.06904-.3495-.26794-.7776-.41306-1.2179-.41286z" /></svg>