<svg fill="currentColor" height="24" viewBox="0 0 24 24" width="24" xmlns="http://www.w3.org/2000/svg"><path d="m12.414 5h8.586c.2652 0 .5196.10536.7071.29289.1875.18754.2929.44189.2929.70711v14c0 .2652-.1054.5196-.2929.7071s-.4419.2929-.7071.2929h-18c-.26522 0-.51957-.1054-.70711-.2929-.18753-.1875-.29289-.4419-.29289-.7071v-16c0-.26522.10536-.51957.29289-.70711.18754-.18753.44189-.29289.70711-.29289h7.414zm-3.823 8.809-.991.572 1 1.731.991-.572c.393.371.872.653 1.405.811v1.145h1.999v-1.146c.5251-.1565 1.006-.4343 1.404-.811l.991.572 1-1.73-.991-.573c.1267-.5332.1267-1.0888 0-1.622l.99-.573-.999-1.73-.992.572c-.3979-.377-.8788-.65517-1.404-.812v-1.143h-1.999v1.144c-.5252.15683-1.00615.435-1.404.812l-.991-.573-1 1.732.991.572c-.12671.5332-.12671 1.0888 0 1.622zm3.404.688c-.2015.0074-.4023-.026-.5906-.098s-.3602-.1812-.5053-.3212c-.1451-.1399-.2605-.3076-.3394-.4931-.0788-.1856-.1195-.3851-.1195-.5867s.0407-.4011.1195-.5867c.0789-.1855.1943-.3532.3394-.4931.1451-.14.317-.2492.5053-.3212s.3891-.1054.5906-.098c.3881.0142.7555.1783 1.0251.4579.2695.2795.4201.6528.4201 1.0411s-.1506.7616-.4201 1.0411c-.2696.2796-.637.4437-1.0251.4579z" /></svg>