<svg fill="currentColor" height="24" viewBox="0 0 24 24" width="24" xmlns="http://www.w3.org/2000/svg"><path d="m12.414 5h8.586c.2652 0 .5196.10536.7071.29289.1875.18754.2929.44189.2929.70711v14c0 .2652-.1054.5196-.2929.7071s-.4419.2929-.7071.2929h-18c-.26522 0-.51957-.1054-.70711-.2929-.18753-.1875-.29289-.4419-.29289-.7071v-16c0-.26522.10536-.51957.29289-.70711.18754-.18753.44189-.29289.70711-.29289h7.414zm-.414 4c-.7911 0-1.5645.2346-2.22228.67412-.6578.43948-1.17049 1.06428-1.47324 1.79518s-.38196 1.5351-.22762 2.3111c.15434.7759.5353 1.4886 1.09471 2.048s1.27213.9404 2.04803 1.0947c.776.1544 1.5802.0752 2.3111-.2276.7309-.3027 1.3557-.8154 1.7952-1.4732s.6741-1.4312.6741-2.2223h-4z" /></svg>