<svg fill="currentColor" height="24" viewBox="0 0 24 24" width="24" xmlns="http://www.w3.org/2000/svg"><path d="m3 21c-.26522 0-.51957-.1054-.70711-.2929-.18753-.1875-.29289-.4419-.29289-.7071v-16c0-.26522.10536-.51957.29289-.70711.18754-.18753.44189-.29289.70711-.29289h7.414l2 2h7.586c.2652 0 .5196.10536.7071.29289.1875.18754.2929.44189.2929.70711v3h-2v-2h-7.414l-2-2h-5.586v11.998l1.5-5.998h17l-2.31 9.243c-.0542.2162-.179.4082-.3548.5453-.1757.1372-.3923.2117-.6152.2117zm16.938-8h-12.876l-1.5 6h12.876z" /></svg>