<svg fill="currentColor" height="24" viewBox="0 0 24 24" width="24" xmlns="http://www.w3.org/2000/svg"><path d="m22 11.255c-.6108-.4265-1.2861-.7523-2-.965v-3.29h-8.414l-2-2h-5.586v14h7.29c.215.722.543 1.396.965 2h-9.255c-.26522 0-.51957-.1054-.70711-.2929-.18753-.1875-.29289-.4419-.29289-.7071v-16c0-.26522.10536-.51957.29289-.70711.18754-.18753.44189-.29289.70711-.29289h7.414l2 2h8.586c.2652 0 .5196.10536.7071.29289.1875.18754.2929.44189.2929.70711zm-4 10.745c-1.3261 0-2.5979-.5268-3.5355-1.4645-.9377-.9376-1.4645-2.2094-1.4645-3.5355s.5268-2.5979 1.4645-3.5355c.9376-.9377 2.2094-1.4645 3.5355-1.4645s2.5979.5268 3.5355 1.4645c.9377.9376 1.4645 2.2094 1.4645 3.5355s-.5268 2.5979-1.4645 3.5355c-.9376.9377-2.2094 1.4645-3.5355 1.4645zm-1.293-2.292c.56.2679 1.1892.3555 1.8011.2508.6118-.1048 1.1761-.3967 1.615-.8357.439-.4389.7309-1.0032.8357-1.615.1047-.6119.0171-1.2411-.2508-1.8011l-4.001 4zm-1.415-1.415 4.001-4c-.56-.2679-1.1892-.3555-1.8011-.2508-.6118.1048-1.1761.3967-1.615.8357-.439.4389-.7309 1.0032-.8357 1.615-.1047.6119-.0171 1.2411.2508 1.8011z" /></svg>