<svg fill="currentColor" height="24" viewBox="0 0 24 24" width="24" xmlns="http://www.w3.org/2000/svg"><path d="m12.414 5h8.586c.2652 0 .5196.10536.7071.29289.1875.18754.2929.44189.2929.70711v14c0 .2652-.1054.5196-.2929.7071s-.4419.2929-.7071.2929h-18c-.26522 0-.51957-.1054-.70711-.2929-.18753-.1875-.29289-.4419-.29289-.7071v-16c0-.26522.10536-.51957.29289-.70711.18754-.18753.44189-.29289.70711-.29289h7.414zm-4.414 4v4.904c0 .892.446 1.724 1.187 2.219l2.813 1.875 2.813-1.875c.3652-.2436.6646-.5736.8717-.9607.207-.3871.3154-.8193.3153-1.2583v-4.904zm2 4.904v-2.904h4v2.904c0 .1098-.0271.2179-.0789.3147-.0518.0969-.1267.1794-.2181.2403l-1.703 1.135-1.703-1.135c-.0914-.0609-.1663-.1434-.2181-.2403-.0518-.0968-.07891-.2049-.0789-.3147z" /></svg>