<svg fill="currentColor" height="24" viewBox="0 0 24 24" width="24" xmlns="http://www.w3.org/2000/svg"><path d="m4 18.0001h5.5v1.25c0 .7293-.28973 1.4288-.80546 1.9445-.51572.5157-1.21519.8055-1.94454.8055s-1.42882-.2898-1.94454-.8055c-.51573-.5157-.80546-1.2152-.80546-1.9445zm4-11.88002c2 0 3 2.88 3 4.88002 0 1-.5 2-1 3.5l-.5 1.5h-5.5c0-1-.5-2.5-.5-5 0-2.50002 1.998-4.88002 4.5-4.88002zm12.054 7.97802-.217 1.231c-.1266.7183-.5335 1.3569-1.1309 1.7753-.5975.4184-1.3368.5823-2.0551.4557-.7183-.1267-1.3569-.5335-1.7753-1.131s-.5823-1.3367-.4557-2.055l.218-1.23zm-1.876-12.39302c2.464.434 4.018 3.124 3.584 5.586-.434 2.463-1.187 3.85302-1.36 4.83802l-5.417-.955-.232-1.56402c-.232-1.564-.55-2.636-.377-3.62.347-1.97 1.832-4.632 3.802-4.285z" /></svg>