<svg fill="currentColor" height="24" viewBox="0 0 24 24" width="24" xmlns="http://www.w3.org/2000/svg"><path d="m12 2c5.523 0 10 4.477 10 10s-4.477 10-10 10-10-4.477-10-10 4.477-10 10-10zm1.67 14h-3.34l-1.38 1.897.554 1.706c.8057.2639 1.6482.3979 2.496.397.871 0 1.71-.14 2.496-.397l.553-1.706-1.38-1.897zm-8.376-5.128-1.292.937-.002.191c0 1.73.549 3.331 1.482 4.64h1.91l1.323-1.82-1.028-3.17zm13.412 0-2.393.778-1.028 3.17 1.322 1.82h1.91c.9668-1.3538 1.4854-2.9764 1.483-4.64l-.003-.191zm-4.416-6.539-1.29.94v2.517l2.694 1.957 2.239-.727.554-1.703c-1.0324-1.42913-2.5072-2.47795-4.196-2.984zm-4.582 0c-1.68896.50631-3.16379 1.5555-4.196 2.985l.554 1.702 2.239.727 2.695-1.957v-2.517l-1.291-.94z" /></svg>