<svg fill="currentColor" height="24" viewBox="0 0 24 24" width="24" xmlns="http://www.w3.org/2000/svg"><path d="m4.40601 14.523 3.402-3.402 2.82799 2.829 3.157-3.157-1.793-1.793h5v5l-1.793-1.793-4.571 4.571-2.82799-2.828-2.475 2.474c1.12341 1.6909 2.84762 2.8914 4.82319 3.3583 1.9756.467 4.0549.1654 5.8164-.8436 1.7616-1.009 3.0736-2.6499 3.6703-4.5903.5968-1.9403.4335-4.035-.4566-5.85947-.8902-1.82447-2.4407-3.2423-4.3372-3.96619-1.8966-.72388-3.9975-.69967-5.87691.06773-1.8794.7674-3.39678 2.22059-4.24465 4.06509-.84787 1.84454-.96281 3.94234-.32153 5.86844zm-1.538 1.558-.01-.01.004-.004c-.57007-1.28-.8638-2.6658-.862-4.067 0-5.523 4.477-10 9.99999-10 5.523 0 10 4.477 10 10s-4.477 10-10 10c-4.06999 0-7.56999-2.43-9.13199-5.919z" /></svg>