<svg fill="currentColor" height="24" viewBox="0 0 24 24" width="24" xmlns="http://www.w3.org/2000/svg"><path d="m20 13c-1.678 0-3.249.46-4.593 1.259 1.1968 1.3986 2.1256 3.0058 2.74 4.741h1.853zm-3.996 6c-1.96-4.698-6.596-8-12.004-8v8zm-12.004-10c3.83 0 7.323 1.435 9.974 3.796 1.7899-1.175 3.8849-1.7994 6.026-1.796v-8h1.008c.548 0 .992.445.992.993v16.014c-.0018.2626-.1069.514-.2925.6998s-.4369.2911-.6995.2932h-18.016c-.26319-.0003-.5155-.105-.70151-.2912s-.29049-.4386-.29049-.7018v-16.014c.00183-.26262.1069-.51398.29251-.69978.18562-.1858.43687-.29113.69949-.29322h3.008v-2h2v4h-4zm14-8v4h-8v-2h6v-2zm-1.5 9c-.3978 0-.7794-.15804-1.0607-.43934s-.4393-.66284-.4393-1.06066.158-.77936.4393-1.06066.6629-.43934 1.0607-.43934.7794.15804 1.0607.43934.4393.66284.4393 1.06066-.158.77936-.4393 1.06066-.6629.43934-1.0607.43934z" /></svg>