<svg fill="currentColor" height="24" viewBox="0 0 24 24" width="24" xmlns="http://www.w3.org/2000/svg"><path d="m17 4c1.5913 0 3.1174.63214 4.2426 1.75736 1.1253 1.12522 1.7574 2.65134 1.7574 4.24264v4c0 1.5913-.6321 3.1174-1.7574 4.2426-1.1252 1.1253-2.6513 1.7574-4.2426 1.7574h-10c-1.5913 0-3.11742-.6321-4.24264-1.7574-1.12522-1.1252-1.75736-2.6513-1.75736-4.2426v-4c0-1.5913.63214-3.11742 1.75736-4.24264s2.65134-1.75736 4.24264-1.75736zm0 2h-10c-1.02624 0-2.01323.39444-2.75681 1.10172-.74359.70729-1.18688 1.67332-1.23819 2.69828l-.005.2v4c0 1.0262.39444 2.0132 1.10172 2.7568.70729.7436 1.67332 1.1869 2.69828 1.2382l.2.005h10c1.0262 0 2.0132-.3944 2.7568-1.1017s1.1869-1.6733 1.2382-2.6983l.005-.2v-4c0-1.02624-.3944-2.01323-1.1017-2.75681-.7073-.74359-1.6733-1.18688-2.6983-1.23819zm-7 3v2h2v2h-2.001l.001 2h-2l-.001-2h-1.999v-2h2v-2zm8 4v2h-2v-2zm-2-4v2h-2v-2z" /></svg>