<svg fill="currentColor" height="24" viewBox="0 0 24 24" width="24" xmlns="http://www.w3.org/2000/svg"><path d="m12 2.00001c1.4822-.00151 2.9462.32717 4.2856.96216 1.3393.63499 2.5204 1.56034 3.4574 2.70884l-6.329 6.32899 6.329 6.329c-.937 1.1485-2.1181 2.0739-3.4574 2.7088-1.3394.635-2.8034.9637-4.2856.9622-5.523 0-10-4.477-10-10 0-5.52299 4.477-9.99999 10-9.99999zm0 3c-.3978 0-.7794.15803-1.0607.43933-.2813.28131-.4393.66284-.4393 1.06067 0 .39782.158.77935.4393 1.06066.2813.2813.6629.43934 1.0607.43934s.7794-.15804 1.0607-.43934c.2813-.28131.4393-.66284.4393-1.06066 0-.39783-.158-.77936-.4393-1.06067-.2813-.2813-.6629-.43933-1.0607-.43933z" /></svg>