<svg fill="currentColor" height="24" viewBox="0 0 24 24" width="24" xmlns="http://www.w3.org/2000/svg"><path d="m12 2.00001c1.4822-.00151 2.9462.32717 4.2856.96216 1.3393.63499 2.5204 1.56034 3.4574 2.70884l-6.329 6.32899 6.329 6.329c-.937 1.1485-2.1181 2.0739-3.4574 2.7088-1.3394.635-2.8034.9637-4.2856.9622-5.523 0-10-4.477-10-10 0-5.52299 4.477-9.99999 10-9.99999zm0 2c-1.2621.00022-2.50619.29904-3.63069.87204s-2.09748 1.40391-2.83943 2.42486c-.74196 1.02095-1.23184 2.20295-1.42962 3.44939-.19778 1.2465-.09784 2.5221.29165 3.7226.38949 1.2004 1.05747 2.2917 1.94937 3.1847.89191.8929 1.98242 1.5622 3.18244 1.953 1.19998.3909 2.47548.4923 3.72218.296s2.4293-.6848 3.4511-1.4256l.208-.157-6.32-6.32 6.32-6.32099-.208-.156c-1.2812-.93139-2.8111-1.45956-4.394-1.517zm0 1c.3978 0 .7794.15803 1.0607.43933.2813.28131.4393.66284.4393 1.06067 0 .39782-.158.77935-.4393 1.06066-.2813.2813-.6629.43934-1.0607.43934s-.7794-.15804-1.0607-.43934c-.2813-.28131-.4393-.66284-.4393-1.06066 0-.39783.158-.77936.4393-1.06067.2813-.2813.6629-.43933 1.0607-.43933z" /></svg>