<svg fill="currentColor" height="24" viewBox="0 0 24 24" width="24" xmlns="http://www.w3.org/2000/svg"><path d="m11.7509 21.997c-5.22097-.128-9.44997-4.257-9.73597-9.438l-.012-.313zm.249-19.997c1.6081-.00116 3.1928.38599 4.6192 1.12853s2.6524 1.81852 3.5738 3.13647l-1.638 1.148c-.8321-1.18838-1.9717-2.12821-3.2968-2.71895-1.325-.59074-2.7857-.81018-4.2259-.63485-1.44014.17533-2.80554.73884-3.95016 1.63026-1.14461.89141-2.02538 2.0772-2.54811 3.43054l10.34597 10.346c1.187-.4593 2.2476-1.1946 3.0941-2.1451s1.4546-2.0888 1.7739-3.3209h-4.248v-2h6.5c0 4.726-3.279 8.686-7.685 9.73l-12.04597-12.044c1.045-4.406 5.005-7.686 9.73097-7.686z" /></svg>