<svg fill="currentColor" height="24" viewBox="0 0 24 24" width="24" xmlns="http://www.w3.org/2000/svg"><path d="m13.0004 7.066c1.8841.25542 3.6009 1.21679 4.8032 2.68969 1.2023 1.47291 1.8004 3.34741 1.6733 5.24451-.127 1.897-.9697 3.6751-2.3576 4.9745-1.388 1.2995-3.2176 2.0233-5.1189 2.0253-1.9036.0018-3.73672-.7203-5.12766-2.0199-1.39094-1.2997-2.23562-3.0796-2.36281-4.979-.12718-1.8994.47265-3.7761 1.67789-5.24956 1.20525-1.4735 2.92571-2.43356 4.81258-2.68554v-6.066h2zm-1 12.934c1.4587 0 2.8576-.5795 3.8891-1.6109 1.0314-1.0315 1.6109-2.4304 1.6109-3.8891s-.5795-2.8576-1.6109-3.8891c-1.0315-1.03144-2.4304-1.6109-3.8891-1.6109s-2.85763.57946-3.88908 1.6109c-1.03145 1.0315-1.61091 2.4304-1.61091 3.8891s.57946 2.8576 1.61091 3.8891c1.03145 1.0314 2.43038 1.6109 3.88908 1.6109z" /></svg>