<svg fill="currentColor" height="24" viewBox="0 0 24 24" width="24" xmlns="http://www.w3.org/2000/svg"><path d="m12 2c2.3869 0 4.6761.94821 6.364 2.63604 1.6878 1.68783 2.636 3.97701 2.636 6.36396v7.5c.0004.7479-.2389 1.4763-.6827 2.0784-.4438.602-1.0687 1.0461-1.7833 1.2671-.7146.2209-1.4811.2072-2.1873-.0393-.7061-.2464-1.3148-.7126-1.7367-1.3302-.2612.4627-.6407.8476-1.0995 1.1155-.4589.2679-.9807.409-1.512.409s-1.0531-.1411-1.512-.409c-.4588-.2679-.83827-.6528-1.0995-1.1155-.41298.6028-1.0043 1.0613-1.69102 1.3111-.68671.2498-1.4344.2784-2.13818.0818-.70379-.1967-1.32839-.6086-1.7862-1.1782-.45781-.5695-.72588-1.2681-.7666-1.9977l-.005-.194v-7.499c0-2.38695.94821-4.67613 2.63604-6.36396s3.97701-2.63604 6.36396-2.63604zm0 10c-1.105 0-2 1.12-2 2.5s.895 2.5 2 2.5 2-1.12 2-2.5-.895-2.5-2-2.5zm-2.5-4c-.39782 0-.77936.15804-1.06066.43934s-.43934.66284-.43934 1.06066.15804.7794.43934 1.0607.66284.4393 1.06066.4393.7794-.158 1.0607-.4393.4393-.66288.4393-1.0607-.158-.77936-.4393-1.06066-.66288-.43934-1.0607-.43934zm5 0c-.3978 0-.7794.15804-1.0607.43934s-.4393.66284-.4393 1.06066.158.7794.4393 1.0607.6629.4393 1.0607.4393.7794-.158 1.0607-.4393.4393-.66288.4393-1.0607-.158-.77936-.4393-1.06066-.6629-.43934-1.0607-.43934z" /></svg>