<svg fill="currentColor" height="24" viewBox="0 0 24 24" width="24" xmlns="http://www.w3.org/2000/svg"><path d="m12 2c3.5 0 6 3 7 6 3 1 4 3.73 4 6l-2.775.793c-.2088.0597-.3925.1858-.5233.3592s-.2016.3846-.2017.6018v1.496c0 .4641-.1844.9092-.5126 1.2374s-.7733.5126-1.2374.5126h-.596c-.3304-.0001-.6557.0818-.9467.2381-.2911.1564-.5389.3824-.7213.6579-.928 1.404-2.09 2.104-3.486 2.104s-2.558-.701-3.486-2.104c-.18238-.2755-.43018-.5015-.72125-.6579-.29107-.1563-.61634-.2382-.94675-.2381h-.596c-.46413 0-.90925-.1844-1.23744-.5126s-.51256-.7733-.51256-1.2374v-1.496c-.0001-.2172-.0709-.4284-.2017-.6018s-.31449-.2995-.5233-.3592l-2.775-.793c0-2.266 1-5 4-6 1-3 3.5-6 7-6zm0 10c-.828 0-1.5 1.12-1.5 2.5s.672 2.5 1.5 2.5 1.5-1.12 1.5-2.5-.672-2.5-1.5-2.5zm-2.5-4c-.39782 0-.77936.15804-1.06066.43934s-.43934.66284-.43934 1.06066.15804.7794.43934 1.0607.66284.4393 1.06066.4393.7794-.158 1.0607-.4393.4393-.66288.4393-1.0607-.158-.77936-.4393-1.06066-.66288-.43934-1.0607-.43934zm5 0c-.3978 0-.7794.15804-1.0607.43934s-.4393.66284-.4393 1.06066.158.7794.4393 1.0607.6629.4393 1.0607.4393.7794-.158 1.0607-.4393.4393-.66288.4393-1.0607-.158-.77936-.4393-1.06066-.6629-.43934-1.0607-.43934z" /></svg>