<svg fill="currentColor" height="24" viewBox="0 0 24 24" width="24" xmlns="http://www.w3.org/2000/svg"><path d="m12 2c3.5 0 6 3 7 6 3 1 4 3.73 4 6l-2.775.793c-.2088.0597-.3925.1858-.5233.3592s-.2016.3846-.2017.6018v1.496c0 .4641-.1844.9092-.5126 1.2374s-.7733.5126-1.2374.5126h-.596c-.3304-.0001-.6557.0818-.9467.2381-.2911.1564-.5389.3824-.7213.6579-.928 1.404-2.09 2.104-3.486 2.104s-2.558-.701-3.486-2.104c-.18238-.2755-.43018-.5015-.72125-.6579-.29107-.1563-.61634-.2382-.94675-.2381h-.596c-.46413 0-.90925-.1844-1.23744-.5126s-.51256-.7733-.51256-1.2374v-1.496c-.0001-.2172-.0709-.4284-.2017-.6018s-.31449-.2995-.5233-.3592l-2.775-.793c0-2.266 1-5 4-6 1-3 3.5-6 7-6zm0 2c-2.11 0-4.065 1.788-5.011 4.371l-.092.261-.316.95-.949.315c-1.255.419-2.067 1.341-2.424 2.56l-.023.086 1.14.327c.59693.1706 1.12622.5223 1.51489 1.0064.38866.4841.61755 1.0769.65511 1.6966l.005.181v1.246h.346c.62098 0 1.23343.1446 1.78885.4223.55543.2777 1.03856.6809 1.41115 1.1777l.136.192c.576.871 1.134 1.208 1.818 1.208.638 0 1.167-.293 1.703-1.04l.115-.168c.3427-.5177.8013-.9485 1.3393-1.2583.5381-.3099 1.1409-.4902 1.7607-.5267l.236-.007h.346v-1.246c-.0001-.621.1925-1.2268.5513-1.7337.3587-.5068.866-.8899 1.4517-1.0963l.173-.054 1.139-.327-.023-.087c-.337-1.151-1.08-2.037-2.22-2.484l-.204-.075-.95-.316-.315-.949c-.908-2.722-2.923-4.632-5.103-4.632zm0 8c.828 0 1.5 1.12 1.5 2.5s-.672 2.5-1.5 2.5-1.5-1.12-1.5-2.5.672-2.5 1.5-2.5zm-2.5-4c.39782 0 .7794.15804 1.0607.43934s.4393.66284.4393 1.06066-.158.7794-.4393 1.0607-.66288.4393-1.0607.4393-.77936-.158-1.06066-.4393-.43934-.66288-.43934-1.0607.15804-.77936.43934-1.06066.66284-.43934 1.06066-.43934zm5 0c.3978 0 .7794.15804 1.0607.43934s.4393.66284.4393 1.06066-.158.7794-.4393 1.0607-.6629.4393-1.0607.4393-.7794-.158-1.0607-.4393-.4393-.66288-.4393-1.0607.158-.77936.4393-1.06066.6629-.43934 1.0607-.43934z" /></svg>