<svg fill="currentColor" height="24" viewBox="0 0 24 24" width="24" xmlns="http://www.w3.org/2000/svg"><path d="m12 2c2.3869 0 4.6761.94821 6.364 2.63604 1.6878 1.68783 2.636 3.97701 2.636 6.36396v7.5c.0004.7479-.2389 1.4763-.6827 2.0784-.4438.602-1.0687 1.0461-1.7833 1.2671-.7146.2209-1.4811.2072-2.1873-.0393-.7061-.2464-1.3148-.7126-1.7367-1.3302-.2612.4627-.6407.8476-1.0995 1.1155-.4589.2679-.9807.409-1.512.409s-1.0531-.1411-1.512-.409c-.4588-.2679-.83827-.6528-1.0995-1.1155-.41298.6028-1.0043 1.0613-1.69102 1.3111-.68671.2498-1.4344.2784-2.13818.0818-.70379-.1967-1.32839-.6086-1.7862-1.1782-.45781-.5695-.72588-1.2681-.7666-1.9977l-.005-.194v-7.499c0-2.38695.94821-4.67613 2.63604-6.36396s3.97701-2.63604 6.36396-2.63604zm4 11h-2c.0023.519-.1972 1.0185-.5564 1.3932-.3592.3746-.8499.5949-1.3685.6143-.5187.0195-1.0245-.1634-1.4108-.51s-.6227-.8298-.6593-1.3475l-.005-.15h-2l.005.2c.0513 1.025.49458 1.991 1.23817 2.6983.74358.7073 1.73053 1.1018 2.75683 1.1018s2.0132-.3945 2.7568-1.1018 1.1869-1.6733 1.2382-2.6983zm-4-6c-.5304 0-1.0391.21071-1.4142.58579-.3751.37507-.5858.88378-.5858 1.41421s.2107 1.0391.5858 1.4142.8838.5858 1.4142.5858 1.0391-.2107 1.4142-.5858.5858-.88377.5858-1.4142-.2107-1.03914-.5858-1.41421c-.3751-.37508-.8838-.58579-1.4142-.58579z" /></svg>