<svg fill="currentColor" height="24" viewBox="0 0 24 24" width="24" xmlns="http://www.w3.org/2000/svg"><path d="m12 2c2.3869 0 4.6761.94821 6.364 2.63604 1.6878 1.68783 2.636 3.97701 2.636 6.36396v7.5c.0004.7479-.2389 1.4763-.6827 2.0784-.4438.602-1.0687 1.0461-1.7833 1.2671-.7146.2209-1.4811.2072-2.1873-.0393-.7061-.2464-1.3148-.7126-1.7367-1.3302-.2612.4627-.6407.8476-1.0995 1.1155-.4589.2679-.9807.409-1.512.409s-1.0531-.1411-1.512-.409c-.4588-.2679-.83827-.6528-1.0995-1.1155-.41298.6028-1.0043 1.0613-1.69102 1.3111-.68671.2498-1.4344.2784-2.13818.0818-.70379-.1967-1.32839-.6086-1.7862-1.1782-.45781-.5695-.72588-1.2681-.7666-1.9977l-.005-.194v-7.499c0-2.38695.94821-4.67613 2.63604-6.36396s3.97701-2.63604 6.36396-2.63604zm0 2c-1.815-.00003-3.55902.70489-4.86423 1.96607-1.30521 1.26119-2.06954 2.98002-2.13177 4.79393l-.004.24v7.446l.002.138c.01723.2998.12404.5875.3066.8259s.43247.4165.71739.5113.59174.1019.88073.0204c.289-.0815.54689-.2479.74028-.4776l.088-.116c.19148-.2808.45136-.5081.75509-.6606.30373-.1524.6413-.225.98085-.2108s.66986.1147.95976.2921c.29.1773.5299.4255.6973.7213.0867.1543.2129.2828.3656.3723.1528.0895.3265.1369.5035.1372s.351-.0464.504-.1354.2796-.2171.3669-.3711c.1601-.2842.3872-.5249.6616-.7011.2745-.1763.5878-.2828.9128-.3102s.6518.0251.9519.1529c.3.1278.5643.3271.7697.5804l.097.13c.1736.2549.4216.4502.7101.5591.2886.1089.6037.1262.9024.0496.2988-.0766.5667-.2435.7672-.4778.2005-.2344.3238-.5249.3533-.8319l.006-.144v-7.5c0-1.85652-.7375-3.63699-2.0503-4.94975-1.3127-1.31275-3.0932-2.05025-4.9497-2.05025zm0 8c1.105 0 2 1.12 2 2.5s-.895 2.5-2 2.5-2-1.12-2-2.5.895-2.5 2-2.5zm-2.5-4c.39782 0 .7794.15804 1.0607.43934s.4393.66284.4393 1.06066-.158.7794-.4393 1.0607-.66288.4393-1.0607.4393-.77936-.158-1.06066-.4393-.43934-.66288-.43934-1.0607.15804-.77936.43934-1.06066.66284-.43934 1.06066-.43934zm5 0c.3978 0 .7794.15804 1.0607.43934s.4393.66284.4393 1.06066-.158.7794-.4393 1.0607-.6629.4393-1.0607.4393-.7794-.158-1.0607-.4393-.4393-.66288-.4393-1.0607.158-.77936.4393-1.06066.6629-.43934 1.0607-.43934z" /></svg>