<svg fill="currentColor" height="24" viewBox="0 0 24 24" width="24" xmlns="http://www.w3.org/2000/svg"><path d="m14.5 2c.5906-.0002 1.1717.14908 1.6892.43393.5174.28486.9543.69602 1.27 1.19521.3157.49918.5 1.07015.5356 1.65972.0357.58957-.0785 1.17857-.3318 1.71214l3.337-.001c.2652 0 .5196.10536.7071.2929.1875.18753.2929.44189.2929.7071v4c0 .2652-.1054.5196-.2929.7071s-.4419.2929-.7071.2929h-1v8c0 .2652-.1054.5196-.2929.7071s-.4419.2929-.7071.2929h-14c-.26522 0-.51957-.1054-.70711-.2929-.18753-.1875-.29289-.4419-.29289-.7071v-8h-1c-.26522 0-.51957-.1054-.70711-.2929-.18753-.1875-.29289-.4419-.29289-.7071v-4c0-.26521.10536-.51957.29289-.7071.18754-.18754.44189-.2929.70711-.2929l3.337.001c-.35624-.74832-.43537-1.59879-.2233-2.4.21207-.8012.70159-1.50115 1.3814-1.97524s1.5058-.69156 2.33093-.61369c.82517.07787 1.59587.44603 2.17497 1.03893.325-.33347.7137-.59832 1.1429-.77885.4293-.18053.8904-.27307 1.3561-.27215zm3.5 11h-12v7h12zm2-4h-16v2h16zm-10.5-5c-.38522.00019-.75559.14858-1.03439.41441-.27879.26584-.44462.62874-.46313 1.01351-.01852.38477.11171.76192.3637 1.05329.25198.29137.6064.47462.98982.51179l.144.007h1.5v-1.5c0-.37288-.1389-.73239-.3896-1.00842-.2507-.27602-.5952-.44878-.9664-.48458zm5 0-.144.007c-.3466.03321-.6709.18598-.9172.43211-.2463.24614-.3993.57029-.4328.91689l-.006.144v1.5h1.5l.144-.007c.371-.03597.7154-.2088.9659-.48481.2506-.27601.3894-.63542.3894-1.00819 0-.37276-.1388-.73217-.3894-1.00818-.2505-.27601-.5949-.44885-.9659-.48482z" /></svg>