<svg fill="currentColor" height="24" viewBox="0 0 24 24" width="24" xmlns="http://www.w3.org/2000/svg"><path d="m15 2.00001c.7023-.00009 1.3922.18473 2.0004.53586s1.1133.8562 1.4643 1.46443c.3511.60823.5359 1.29817.5358 2.00045-.0002.70229-.1852 1.39216-.5365 2.00026l4.536-.001v1.99999h-2v10c0 .2652-.1054.5196-.2929.7071s-.4419.2929-.7071.2929h-16c-.26522 0-.51957-.1054-.70711-.2929-.18753-.1875-.29289-.4419-.29289-.7071v-10h-2v-1.99999l4.536.001c-.49614-.85912-.65531-1.87195-.44662-2.84183.2087-.96988.77037-1.82761 1.57595-2.40662.80559-.57902 1.7976-.838 2.78342-.72668.98585.11133 1.89505.58503 2.55125 1.32913.3746-.42662.8361-.76823 1.3535-1.00193.5174-.23369 1.0788-.35407 1.6465-.35307zm-2 7.99999h-2v10h2zm-4-5.99999c-.51898-.00233-1.01855.19718-1.39315.55638-.37461.35919-.59492.84993-.61439 1.36856-.01947.51862.16342 1.0245.51003 1.41077.34662.38628.82981.62268 1.34751.65929l.15.005h2v-2c0-.47794-.1711-.94009-.4824-1.30275-.3113-.36265-.74218-.60185-1.2146-.67425l-.154-.018zm6 0c-.5046-.00016-.9906.1904-1.3605.53349-.37.34309-.5967.81335-.6345 1.31651l-.005.15v2h2c.5046.00016.9906-.19041 1.3605-.5335.37-.34309.5967-.81335.6345-1.3165l.005-.15c0-.53044-.2107-1.03914-.5858-1.41422-.3751-.37507-.8838-.58578-1.4142-.58578z" /></svg>