<svg fill="currentColor" height="24" viewBox="0 0 24 24" width="24" xmlns="http://www.w3.org/2000/svg"><path d="m13 21v2.5l-3-2-3 2v-2.5h-.5c-.92826 0-1.8185-.3687-2.47487-1.0251-.65638-.6564-1.02513-1.5466-1.02513-2.4749v-12.5c0-.79565.31607-1.55871.87868-2.12132s1.32567-.87868 2.12132-.87868h14c.2652 0 .5196.10536.7071.29289.1875.18754.2929.44189.2929.70711v17c0 .2652-.1054.5196-.2929.7071s-.4419.2929-.7071.2929zm0-2h6v-3h-12.5c-.39782 0-.77936.158-1.06066.4393s-.43934.6629-.43934 1.0607.15804.7794.43934 1.0607.66284.4393 1.06066.4393h.5v-2h6zm6-5v-10h-13v10.035c.16563-.0235.33271-.0352.5-.035zm-12-9h2v2h-2zm0 3h2v2h-2zm0 3h2v2h-2z" /></svg>