<svg fill="currentColor" height="24" viewBox="0 0 24 24" width="24" xmlns="http://www.w3.org/2000/svg"><path d="m15 5h2c.5305 0 1.0392.21071 1.4142.58579.3751.37507.5858.88378.5858 1.41421v8.17c.6675.2359 1.2301.7002 1.5884 1.3108s.4891 1.3282.3694 2.026c-.1196.6978-.4821 1.3307-1.0234 1.7871-.5413.4563-1.2264.7066-1.9344.7066-.7079 0-1.3931-.2503-1.9343-.7066-.5413-.4564-.9038-1.0893-1.0235-1.7871s.0112-1.4154.3695-2.026c.3582-.6106.9208-1.0749 1.5883-1.3108v-8.17h-2v3l-4.5-4 4.5-4zm-9.99997 3.83c-.66749-.23591-1.23009-.7002-1.58836-1.31081s-.48913-1.32821-.36945-2.02598c.11967-.69776.48218-1.33075 1.02344-1.78708s1.22642-.70662 1.93437-.70662 1.39311.25029 1.93437.70662.90377 1.08932 1.02344 1.78708c.11968.69777-.01118 1.41537-.36945 2.02598s-.92087 1.0749-1.58836 1.31081v6.34c.66749.2359 1.23009.7002 1.58836 1.3108s.48913 1.3282.36945 2.026c-.11967.6978-.48218 1.3307-1.02344 1.7871-.54126.4563-1.22642.7066-1.93437.7066s-1.39311-.2503-1.93437-.7066c-.54126-.4564-.90377-1.0893-1.02344-1.7871-.11968-.6978.01118-1.4154.36945-2.026s.92087-1.0749 1.58836-1.3108zm1-1.83c.26522 0 .51957-.10536.70711-.29289.18753-.18754.29289-.44189.29289-.70711s-.10536-.51957-.29289-.70711c-.18754-.18753-.44189-.29289-.70711-.29289s-.51957.10536-.70711.29289c-.18753.18754-.29289.44189-.29289.70711s.10536.51957.29289.70711c.18754.18753.44189.29289.70711.29289zm0 12c.26522 0 .51957-.1054.70711-.2929.18753-.1875.29289-.4419.29289-.7071s-.10536-.5196-.29289-.7071c-.18754-.1875-.44189-.2929-.70711-.2929s-.51957.1054-.70711.2929c-.18753.1875-.29289.4419-.29289.7071s.10536.5196.29289.7071c.18754.1875.44189.2929.70711.2929zm11.99997 0c.2652 0 .5196-.1054.7071-.2929.1876-.1875.2929-.4419.2929-.7071s-.1053-.5196-.2929-.7071c-.1875-.1875-.4419-.2929-.7071-.2929s-.5195.1054-.7071.2929c-.1875.1875-.2929.4419-.2929.7071s.1054.5196.2929.7071c.1876.1875.4419.2929.7071.2929z" /></svg>