<svg fill="currentColor" height="24" viewBox="0 0 24 24" width="24" xmlns="http://www.w3.org/2000/svg"><path d="m15.874 13c-.2224.8582-.7236 1.6183-1.4247 2.1609-.7012.5426-1.5627.837-2.4493.837s-1.7481-.2944-2.44926-.837c-.70117-.5426-1.2023-1.3027-1.42474-2.1609h-5.126v-2h5.126c.22244-.8583.72357-1.61833 1.42474-2.16094.70116-.5426 1.56266-.83702 2.44926-.83702s1.7481.29442 2.4493.83702c.7011.54261 1.2023 1.30264 1.4247 2.16094h5.126v2zm-3.874 1c.5304 0 1.0391-.2107 1.4142-.5858s.5858-.8838.5858-1.4142-.2107-1.0392-.5858-1.4142c-.3751-.3751-.8838-.58581-1.4142-.58581s-1.0391.21071-1.4142.58581c-.3751.375-.5858.8838-.5858 1.4142s.2107 1.0391.5858 1.4142.8838.5858 1.4142.5858z" /></svg>