<svg fill="currentColor" height="24" viewBox="0 0 24 24" width="24" xmlns="http://www.w3.org/2000/svg"><path d="m7.10495 8.79001c.17346.63484.5508 1.19505 1.0739 1.59439.52311.3993 1.16299.6156 1.8211.6156h3.99995c1.1781.0001 2.3183.416 3.2196 1.1745.9014.7585 1.506 1.8108 1.7074 2.9715.6787.2214 1.2563.6776 1.6289 1.2865.3727.6089.5161 1.3308.4044 2.0359-.1116.7051-.471 1.3473-1.0136 1.8113-.5425.464-1.2327.7194-1.9467.7203-.6984.0006-1.3752-.2426-1.9136-.6876-.5383-.445-.9046-1.0639-1.0355-1.75s-.0184-1.3964.3183-2.0083c.3366-.612.8763-1.0874 1.5258-1.3441-.1734-.6348-.5508-1.195-1.0739-1.5944-.5231-.3993-1.1629-.6156-1.8211-.6156h-3.99995c-1.08211.0016-2.13527-.3494-3-1v3.17c.66749.2359 1.23009.7002 1.58836 1.3108.35826.6106.48912 1.3282.36945 2.026-.11968.6978-.48218 1.3308-1.02344 1.7871s-1.22642.7066-1.93437.7066c-.70796 0-1.39312-.2503-1.93438-.7066s-.90376-1.0893-1.02344-1.7871c-.11967-.6978.01119-1.4154.36946-2.026.35826-.6106.92086-1.0749 1.58836-1.3108v-6.33999c-.66303-.23409-1.2228-.69356-1.58165-1.29823s-.49398-1.31615-.38182-2.01028c.11216-.69414.4645-1.32685.99552-1.78773.53103-.46088 1.20703-.72066 1.91004-.73402s1.38839.22056 1.93654.66093.92427 1.05924 1.06272 1.74861.03045 1.40547-.30517 2.02334c-.33562.61786-.87753 1.09827-1.53118 1.35738z" /></svg>