<svg fill="currentColor" height="24" viewBox="0 0 24 24" width="24" xmlns="http://www.w3.org/2000/svg"><path d="m7.10495 15.21c.65365.2591 1.19556.7395 1.53118 1.3574s.44362 1.334.30517 2.0233c-.13845.6894-.51457 1.3083-1.06272 1.7486-.54815.4404-1.23353.6743-1.93654.661-.70301-.0134-1.37901-.2732-1.91004-.7341-.53102-.4608-.88336-1.0935-.99552-1.7877-.11216-.6941.02297-1.4056.38182-2.0103.35885-.6046.91862-1.0641 1.58165-1.2982v-6.33999c-.6675-.2359-1.2301-.70019-1.58836-1.3108-.35827-.61061-.48913-1.32822-.36946-2.02599.11968-.69776.48218-1.33075 1.02344-1.78708s1.22642-.70662 1.93438-.70662c.70795 0 1.39311.25029 1.93437.70662s.90376 1.08932 1.02344 1.78708c.11967.69777-.01119 1.41538-.36945 2.02599-.35827.61061-.92087 1.0749-1.58836 1.3108v3.16999c.836-.628 1.874-1 3-1h3.99995c.6582 0 1.298-.2163 1.8211-.6156.5231-.39933.9005-.95955 1.0739-1.59439-.6568-.26009-1.2008-.74357-1.5362-1.36531-.3354-.62173-.4408-1.34187-.2975-2.03363s.5261-1.3108 1.0809-1.74812 1.2461-.66489 1.9522-.64265 1.3817.29286 1.9079.76423.8692 1.11326.9687 1.81267-.0509 1.41149-.4248 2.01089c-.3739.59939-.9473 1.04768-1.6192 1.26592-.2014 1.16069-.806 2.21299-1.7074 2.97149-.9013.7585-2.0415 1.1744-3.2196 1.1745h-3.99995c-.65811 0-1.29799.2163-1.8211.6156-.5231.3994-.90044.9596-1.0739 1.5944z" /></svg>