<svg fill="currentColor" height="24" viewBox="0 0 24 24" width="24" xmlns="http://www.w3.org/2000/svg"><path d="m5.88322 18.6528c-.3-.2-.558-.455-.86-.816-.15675-.1919-.31209-.3849-.466-.579-.463-.575-.755-.84-1.057-.949-.2497-.0897-.45356-.2748-.56674-.5148-.11318-.2399-.1264-.515-.03676-.7647.08965-.2497.27481-.4536.51477-.5668.23995-.1131.51503-.1264.76473-.0367.752.27 1.261.735 1.947 1.588-.094-.117.34.427.433.539.19.227.33.365.44.438.204.137.587.196 1.15.14.023-.382.094-.753.202-1.095-2.968-.726-4.648-2.64-4.648-6.39602 0-1.24.37-2.356 1.058-3.292-.218-.894-.185-1.975.302-3.192.05527-.13767.14048-.26131.24944-.36197s.23896-.17582.38056-.22003c.081-.024.127-.035.208-.047.803-.123 1.937.17 3.415 1.096.88078-.20592 1.78248-.30927 2.68698-.308.912 0 1.818.104 2.684.308 1.477-.933 2.613-1.226 3.422-1.096.085.013.157.03.218.05.1389.04578.266.12143.3724.22164s.1896.22253.2436.35836c.487 1.216.52 2.297.302 3.19.691.936 1.058 2.045 1.058 3.293 0 3.75702-1.674 5.66502-4.642 6.39202.125.415.19.879.19 1.38.0001.9053-.0039 1.8107-.012 2.716.2246.049.4254.1738.5688.3535.1433.1798.2203.4034.218.6332-.0022.2299-.0835.4519-.2303.6288s-.35.2979-.5755.3425c-1.139.228-1.983-.532-1.983-1.525l.002-.446.005-.705c.005-.708.007-1.338.007-1.998 0-.697-.183-1.152-.425-1.36-.661-.57-.326-1.655.54-1.752 2.967-.333 4.337-1.482 4.337-4.66002 0-.955-.312-1.744-.913-2.404-.1266-.13876-.2116-.31037-.2452-.49519s-.0145-.37536.0552-.54981c.166-.414.237-.957.096-1.614l-.01.003c-.491.139-1.11.44-1.858.949-.1206.08185-.2576.13635-.4015.15967s-.2912.0149-.4315-.02467c-.8441-.23371-1.7161-.35113-2.592-.349-.89 0-1.772.119-2.59198.35-.13978.03926-.28643.0476-.42976.02446-.14334-.02314-.27991-.07721-.40024-.15846-.752-.507-1.374-.807-1.868-.947-.144.653-.073 1.194.092 1.607.06981.17436.08911.36485.05568.54966-.03342.18481-.11822.35648-.24468.49534-.597.654-.913 1.458-.913 2.404 0 3.17202 1.371 4.32802 4.32198 4.66002.865.097 1.201 1.177.544 1.748-.192.168-.429.732-.429 1.364v3.15c0 .986-.83498 1.725-1.95998 1.528-.22823-.0401-.43546-.1582-.58628-.3341-.15081-.1759-.23585-.3988-.24057-.6305-.00473-.2316.07116-.4578.21467-.6397.14352-.1819.34577-.3084.57218-.3577v-.99c-.91.061-1.662-.088-2.254-.485z" /></svg>