<svg fill="currentColor" height="24" viewBox="0 0 24 24" width="24" xmlns="http://www.w3.org/2000/svg"><path d="m5.86798 2.75 2.132 7.25h8.00002l2.132-7.25c.0239-.08225.0737-.15463.1419-.20649s.1512-.08045.2369-.08157c.0856-.00112.1694.02529.2389.07535.0696.05006.1212.12111.1473.20271l3.495 10.924c.0314.0983.0317.204.0007.3024-.0309.0985-.0916.185-.1737.2476l-10.219 7.786-10.22002-7.786c-.08191-.0627-.14241-.1493-.1732-.2477-.0308-.0985-.03038-.2041.0012-.3023l3.495-10.924c.02601-.08162.07753-.15274.14699-.20289.06946-.05014.15318-.07666.23884-.07566.08566.00101.16874.02949.237.08126.06825.05176.11809.12408.14217.20629z" /></svg>