<svg fill="currentColor" height="24" viewBox="0 0 24 24" width="24" xmlns="http://www.w3.org/2000/svg"><path d="m5.6802 7.31379-1.82 5.91401 8.14 6.214 8.14-6.214-1.82-5.91401-1.677 3.68601h-9.287l-1.675-3.68601zm9.677 1.686 2.888-6.354c.0335-.07407.0888-.13618.1585-.17804s.1505-.0615.2316-.05628c.0811.00521.1588.03502.2225.08546.0638.05044.1107.11911.1344.19686l3.367 10.94501c.03.0976.0294.202-.0017.2993-.0311.0972-.0912.1826-.1723.2447l-10.185 7.775-10.184-7.775c-.08107-.0621-.14121-.1475-.17232-.2447-.0311-.0973-.03169-.2017-.00168-.2993l3.367-10.94501c.02375-.07775.07063-.14642.13439-.19686.06377-.05044.14138-.08025.22251-.08546.08114-.00522.16193.01442.23162.05628.0697.04186.12498.10397.15848.17804l2.888 6.354h6.712z" /></svg>