<svg fill="currentColor" height="24" viewBox="0 0 24 24" width="24" xmlns="http://www.w3.org/2000/svg"><path d="m12 22c-5.523 0-10-4.477-10-10s4.477-10 10-10 10 4.477 10 10-4.477 10-10 10zm-2.29-2.333c-.98659-2.0927-1.55813-4.3568-1.683-6.667h-3.965c.19459 1.5389.83192 2.9882 1.83457 4.1717s2.32744 2.0504 3.81343 2.4953zm.32-6.667c.151 2.439.848 4.73 1.97 6.752 1.1523-2.0754 1.8254-4.3825 1.97-6.752zm9.908 0h-3.965c-.1249 2.3102-.6964 4.5743-1.683 6.667 1.486-.4449 2.8108-1.3118 3.8134-2.4953 1.0027-1.1835 1.64-2.6328 1.8346-4.1717zm-15.876-2h3.965c.12487-2.31021.69641-4.57431 1.683-6.667-1.48599.44488-2.81078 1.31175-3.81343 2.4953-1.00265 1.18354-1.63998 2.6328-1.83457 4.1717zm5.969 0h3.938c-.1442-2.3694-.817-4.67647-1.969-6.752-1.1523 2.07545-1.8254 4.38252-1.97 6.752zm4.259-6.667c.9866 2.09269 1.5581 4.35679 1.683 6.667h3.965c-.1946-1.5389-.8319-2.98816-1.8346-4.1717-1.0026-1.18355-2.3274-2.05042-3.8134-2.4953z" /></svg>