<svg fill="currentColor" height="24" viewBox="0 0 24 24" width="24" xmlns="http://www.w3.org/2000/svg"><path d="m13.0004 20.9999h5v2h-11.99999v-2h4.99999v-1.05c-1.58552-.1592-3.11005-.6949-4.44663-1.5625-1.33658-.8677-2.44652-2.0421-3.23736-3.4255l1.737-.992c.61078 1.0673 1.45937 1.9794 2.47985 2.6654 1.02048.6861 2.18538 1.1277 3.40424 1.2905 1.2188.1628 2.4588.0425 3.6236-.3517 1.1648-.3941 2.223-1.0515 3.0925-1.921s1.5269-1.9277 1.921-3.0925c.3942-1.1648.5145-2.4048.3517-3.62361-.1628-1.21884-.6044-2.38374-1.2905-3.40422s-1.5981-1.86907-2.6654-2.47985l.992-1.737c1.531.87454 2.8035 2.1385 3.6883 3.66363s1.3505 3.25716 1.3497 5.02037c0 5.18498-3.947 9.44898-9 9.94998zm-1-4c-.9192 0-1.8295-.181-2.67878-.5328s-1.62095-.8674-2.27096-1.5174-1.16563-1.4217-1.51741-2.271-.53284-1.7595-.53284-2.67878c0-.91926.18106-1.82951.53284-2.67879s.8674-1.62095 1.51741-2.27096 1.42168-1.16563 2.27096-1.51741 1.75958-.53284 2.67878-.53284c1.8565 0 3.637.7375 4.9498 2.05025 1.3127 1.31276 2.0502 3.09323 2.0502 4.94975 0 1.85648-.7375 3.63698-2.0502 4.94978-1.3128 1.3127-3.0933 2.0502-4.9498 2.0502zm0-2c1.3261 0 2.5979-.5268 3.5355-1.4644.9377-.9377 1.4645-2.2095 1.4645-3.53558s-.5268-2.59785-1.4645-3.53554c-.9376-.93768-2.2094-1.46446-3.5355-1.46446s-2.59785.52678-3.53553 1.46446c-.93768.93769-1.46446 2.20946-1.46446 3.53554s.52678 2.59788 1.46446 3.53558c.93768.9376 2.20943 1.4644 3.53553 1.4644z" /></svg>