<svg fill="currentColor" height="24" viewBox="0 0 24 24" width="24" xmlns="http://www.w3.org/2000/svg"><path d="m2.0498 13h5.477c.17112 3.1668 1.18055 6.2314 2.925 8.88-2.18506-.3432-4.1948-1.4009-5.71498-3.0075-1.52018-1.6067-2.4651-3.6718-2.68702-5.8725zm0-2c.22192-2.2007 1.16684-4.26583 2.68702-5.87249 1.52018-1.60667 3.52992-2.66429 5.71498-3.00751-1.74445 2.64861-2.75388 5.71314-2.925 8.88zm19.9 0h-5.477c-.1711-3.16686-1.1805-6.23139-2.925-8.88 2.1851.34322 4.1948 1.40084 5.715 3.00751 1.5202 1.60666 2.4651 3.67179 2.687 5.87249zm0 2c-.2219 2.2007-1.1668 4.2658-2.687 5.8725-1.5202 1.6066-3.5299 2.6643-5.715 3.0075 1.7445-2.6486 2.7539-5.7132 2.925-8.88h5.478zm-12.42 0h4.94c-.1646 2.6995-1.0147 5.3124-2.47 7.592-1.4553-2.2796-2.3054-4.8925-2.47-7.592zm0-2c.1646-2.69949 1.0147-5.31244 2.47-7.592 1.4553 2.27956 2.3054 4.89251 2.47 7.592z" /></svg>