<svg fill="currentColor" height="24" viewBox="0 0 24 24" width="24" xmlns="http://www.w3.org/2000/svg"><path d="m4 1.73389c.17597.00013.34879.0467.501.135l16.004 9.26601c.1515.0879.2773.2141.3648.3659.0874.1518.1334.3239.1334.4991s-.046.3473-.1334.4991c-.0875.1518-.2133.278-.3648.3659l-16.004 9.266c-.15197.088-.32443.1344-.50002.1345-.1756.0002-.34814-.0459-.50029-.1335-.15214-.0877-.27851-.2139-.3664-.3659-.0879-.152-.13421-.3245-.13429-.5001v-18.53201c0-.26522.10536-.51957.29289-.70711.18754-.18754.44189-.29289.70711-.29289zm8.292 11.68001-4.498 4.498 5.699-3.299-1.2-1.2zm-7.292-7.29601v11.76001l5.88-5.88zm10.284 4.30201-1.578 1.58 1.578 1.577 2.724-1.577-2.725-1.579zm-7.49-4.33601 4.5 4.50001 1.199-1.20001z" /></svg>