<svg fill="currentColor" height="24" viewBox="0 0 24 24" width="24" xmlns="http://www.w3.org/2000/svg"><path d="m3.609 1.81396 10.183 10.18604-10.182 10.186c-.18106-.0762-.33557-.2041-.44411-.3678-.10853-.1637-.16625-.3558-.16589-.5522v-18.53204c.00008-.19617.05786-.388.16614-.55158.10829-.16359.2623-.29171.44286-.36842zm10.89 10.89304 2.302 2.302-10.937 6.333zm3.199-3.19804 2.807 1.62604c.1515.0879.2773.214.3648.3659.0874.1518.1334.3239.1334.4991s-.046.3473-.1334.4991c-.0875.1518-.2133.278-.3648.3659l-2.808 1.626-2.491-2.491zm-11.834-6.851 10.938 6.332-2.303 2.30304z" /></svg>