<svg fill="currentColor" height="24" viewBox="0 0 24 24" width="24" xmlns="http://www.w3.org/2000/svg"><path d="m3.064 7.51c.83201-1.65676 2.10837-3.04949 3.68643-4.02253s3.39567-1.48805 5.24957-1.48747c2.695 0 4.959.99 6.69 2.605l-2.867 2.868c-1.037-.991-2.355-1.496-3.823-1.496-2.605 0-4.81 1.76-5.595 4.123-.2.6-.314 1.24-.314 1.9s.114 1.3.314 1.9c.786 2.364 2.99 4.123 5.595 4.123 1.345 0 2.49-.355 3.386-.955.5194-.342.9641-.7858 1.3072-1.3045s.5774-1.1016.6888-1.7135h-5.382v-3.868h9.418c.118.654.182 1.336.182 2.045 0 3.046-1.09 5.61-2.982 7.35-1.654 1.528-3.918 2.423-6.618 2.423-1.3134.0005-2.61396-.2578-3.82746-.7601-1.21349-.5024-2.31609-1.239-3.24478-2.1677-.92869-.9286-1.66526-2.0312-2.16763-3.2447-.50236-1.2135-.76065-2.5141-.76013-3.8275 0-1.614.386-3.14 1.064-4.49z" /></svg>