<svg fill="currentColor" height="24" viewBox="0 0 24 24" width="24" xmlns="http://www.w3.org/2000/svg"><path d="m12 11h8.533c.044.385.067.78.067 1.184 0 2.734-.98 5.036-2.678 6.6-1.485 1.371-3.518 2.175-5.942 2.175-1.1793.0005-2.34721-.2314-3.43689-.6824-1.08967-.451-2.07978-1.1124-2.91375-1.9463-.83396-.8338-1.49542-1.8239-1.94658-2.9135s-.68317-2.2575-.68278-3.4368c-.00052-1.1794.23139-2.34738.68249-3.43712s1.11254-2.0799 1.94652-2.91387c.83397-.83398 1.82413-1.49542 2.91387-1.94652s2.25772-.68301 3.43712-.68249c2.42 0 4.453.89 6.008 2.339l-1.462 1.461c-1.158-1.119-2.723-1.8-4.526-1.8-.9193 0-1.8295.18106-2.67878.53284-.84928.35179-1.62096.8674-2.27097 1.51741s-1.16562 1.42169-1.51741 2.27097c-.35178.84928-.53284 1.75948-.53284 2.67878s.18106 1.8295.53284 2.6788c.35179.8493.8674 1.6209 1.51741 2.2709.65001.6501 1.42169 1.1657 2.27097 1.5175.84928.3517 1.75948.5328 2.67878.5328 3.526 0 6.144-2.608 6.577-6h-6.577z" /></svg>