<svg fill="currentColor" height="24" viewBox="0 0 24 24" width="24" xmlns="http://www.w3.org/2000/svg"><path d="m7.132 20.737c-1.5563-.867-2.85267-2.134-3.75495-3.6701s-1.3777-3.2854-1.37705-5.0669c0-5.523 4.477-10 10-10s10 4.477 10 10c.0006 1.7815-.4748 3.5308-1.377 5.0669-.9023 1.5361-2.1987 2.8031-3.755 3.6701l-.896-1.791c1.531-.8758 2.7296-2.2331 3.4094-3.8606s.8027-3.434.3496-5.13864c-.4531-1.70459-1.4569-3.21165-2.8551-4.28676-1.3983-1.07512-3.1126-1.65801-4.8764-1.65801s-3.47814.58289-4.87638 1.65801c-1.39824 1.07511-2.40199 2.58217-2.85512 4.28676-.45312 1.70464-.33021 3.51114.3496 5.13864.67982 1.6275 1.87843 2.9848 3.4094 3.8606zm1.792-3.584c-1.12766-.6732-2.0033-1.6978-2.49257-2.9165-.48928-1.2188-.56516-2.5644-.216-3.8305.34916-1.26603 1.10406-2.38255 2.14889-3.17824 1.04483-.79568 2.32188-1.22659 3.63518-1.22659s2.5904.43091 3.6352 1.22659c1.0448.79569 1.7997 1.91221 2.1489 3.17824.3491 1.2661.2732 2.6117-.216 3.8305-.4893 1.2187-1.3649 2.2433-2.4926 2.9165l-.898-1.797c.7238-.4696 1.2764-1.1606 1.5753-1.9699.2989-.8094.3281-1.6937.0832-2.521-.2448-.8273-.7506-1.55323-1.4418-2.06953-.6913-.5163-1.5309-.79526-2.3937-.79526s-1.7024.27896-2.39367.79526c-.69124.5163-1.19702 1.24223-1.44187 2.06953s-.21565 1.7116.08326 2.521c.2989.8093.85148 1.5003 1.57528 1.9699zm3.076-1.153 3 6h-6z" /></svg>