<svg fill="currentColor" height="24" viewBox="0 0 24 24" width="24" xmlns="http://www.w3.org/2000/svg"><path d="m12 16 3 6h-6zm-2.627.255c-.92563-.5717-1.63952-1.4298-2.03337-2.4439-.39385-1.0142-.44617-2.1292-.14901-3.1757.29716-1.04664.92758-1.96775 1.79561-2.62363.86804-.65588 1.92627-1.01074 3.01427-1.01074s2.1462.35486 3.0143 1.01074c.868.65588 1.4984 1.57699 1.7956 2.62363.2971 1.0465.2448 2.1615-.149 3.1757-.3939 1.0141-1.1078 1.8722-2.0334 2.4439l-1.356-2.711c.3179-.262.5471-.6158.6564-1.013.1092-.3972.0932-.8184-.046-1.2061s-.3947-.723-.7316-.96c-.337-.2371-.7389-.3643-1.1508-.3643s-.8138.1272-1.1508.3643c-.3369.237-.5924.5723-.7316.96-.13917.3877-.15523.8089-.046 1.2061.1093.3972.3385.751.6564 1.013l-1.355 2.71zm-2.241 4.482c-1.5563-.867-2.85267-2.134-3.75495-3.6701s-1.3777-3.2854-1.37705-5.0669c0-5.523 4.477-10 10-10s10 4.477 10 10c.0006 1.7815-.4748 3.5308-1.377 5.0669-.9023 1.5361-2.1987 2.8031-3.755 3.6701l-1.343-2.688c1.3292-.7747 2.3661-1.9658 2.9504-3.3889.5844-1.4232.6836-2.9992.2823-4.4845-.4012-1.48518-1.2806-2.79685-2.5021-3.73214-1.2215-.9353-2.7171-1.44214-4.2556-1.44214s-3.03408.50684-4.25559 1.44214c-1.22152.93529-2.10088 2.24696-2.50214 3.73214-.40125 1.4853-.30203 3.0613.28231 4.4845.58434 1.4231 1.62126 2.6142 2.95042 3.3889z" /></svg>