<svg fill="currentColor" height="24" viewBox="0 0 24 24" width="24" xmlns="http://www.w3.org/2000/svg"><path d="m2.04983 13h2.012c.24403 1.9331 1.18508 3.7107 2.64657 4.9993 1.4615 1.2886 3.343 1.9996 5.2914 1.9996 1.9485 0 3.83-.711 5.2915-1.9996 1.4614-1.2886 2.4025-3.0662 2.6465-4.9993h2.013c-.502 5.053-4.766 9-9.951 9-5.18497 0-9.44897-3.947-9.94997-9zm0-2c.5-5.053 4.764-9 9.94997-9 5.186 0 9.449 3.947 9.95 9h-2.012c-.244-1.9331-1.1851-3.71073-2.6465-4.99932-1.4615-1.2886-3.343-1.9996-5.2915-1.9996-1.9484 0-3.8299.711-5.2914 1.9996-1.46149 1.28859-2.40254 3.06622-2.64657 4.99932h-2.013zm9.94997 3c-.5304 0-1.0391-.2107-1.4142-.5858s-.58577-.8838-.58577-1.4142.21067-1.0391.58577-1.4142.8838-.5858 1.4142-.5858c.5305 0 1.0392.2107 1.4142.5858.3751.3751.5858.8838.5858 1.4142s-.2107 1.0391-.5858 1.4142c-.375.3751-.8837.5858-1.4142.5858z" /></svg>