<svg fill="currentColor" height="24" viewBox="0 0 24 24" width="24" xmlns="http://www.w3.org/2000/svg"><path clip-rule="evenodd" d="m12.447 3.10575 10 5c.352.178.569.543.552.937-.016.394-.262.741-.627.887l-3.372 1.34895v4.903c0 .379-.214.724-.553.895-.1652.0826-.3309.1669-.498.2521-1.5711.8002-3.2727 1.667-5.949 1.667-2.67766 0-4.3789-.8669-5.9512-1.668-.16638-.0848-.33131-.1689-.4958-.2511-.339-.17-.553-.516-.553-.895v-4.903l-2-.8v4.287c0 .551-.448 1-1 1s-1-.449-1-1v-5.76495c0-.102.047-.31.107-.432.091-.19.244-.363.445-.463l10-5c.282-.141.614-.141.895 0zm3.578 12.94495.975-.487v-3.486l-4.628 1.852c-.12.049-.246.071-.372.071s-.252-.0219-.372-.07l-4.628-1.852v3.485l.975.487c2.52 1.261 5.529 1.261 8.05 0zm-11.586-7.15195 7.561 3.02495 7.561-3.02495-7.561-3.779zm-3.439 9.10225c0-.552.448-1 1-1s1 .448 1 1v2c0 .553-.448 1-1 1s-1-.447-1-1z"  fill-rule="evenodd"/></svg>