<svg fill="currentColor" height="24" viewBox="0 0 24 24" width="24" xmlns="http://www.w3.org/2000/svg"><path d="m12 22c-5.523 0-10-4.477-10-10s4.477-10 10-10 10 4.477 10 10-4.477 10-10 10zm-3.874-11h-4.064c-.08284.6641-.08284 1.3359 0 2h4.064c-.16905-.6559-.16905-1.3441 0-2zm7.748 0c.169.6559.169 1.3441 0 2h4.064c.0828-.6641.0828-1.3359 0-2zm-3.874 3c.5304 0 1.0391-.2107 1.4142-.5858s.5858-.8838.5858-1.4142-.2107-1.0391-.5858-1.4142-.8838-.5858-1.4142-.5858-1.0391.2107-1.4142.5858-.5858.8838-.5858 1.4142.2107 1.0391.5858 1.4142.8838.5858 1.4142.5858z" /></svg>