<svg fill="currentColor" height="24" viewBox="0 0 24 24" width="24" xmlns="http://www.w3.org/2000/svg"><path clip-rule="evenodd" d="m22.447 8.10575-10-5c-.281-.141-.613-.141-.895 0l-10 5c-.201.101-.355.275-.445.463-.061.122-.107.329-.107.432v5.76505c0 .552.448 1 1 1s1-.448 1-1v-4.5981l9.015 3.7561 10.357-3.99405c.365-.146.611-.493.627-.887.017-.394-.2-.76-.552-.937zm-10.447 7.89475c-.131 0-.262-.026-.385-.077l-6.615-2.757v3.014c0 .378.214.725.553.894.16372.0819.32791.1657.49358.2502 1.56971.8007 3.27147 1.6688 5.95342 1.6688 2.6799 0 4.3856-.8696 5.9537-1.6691.1657-.0845.3298-.1681.4933-.2499.339-.168.553-.515.553-.893v-2.801l-6.641 2.554c-.116.044-.237.066-.359.066zm-11 2c0-.552.448-1 1-1s1 .448 1 1v2c0 .552-.448 1-1 1s-1-.448-1-1z"  fill-rule="evenodd"/></svg>