<svg fill="currentColor" height="24" viewBox="0 0 24 24" width="24" xmlns="http://www.w3.org/2000/svg"><path d="m14 10h-4v4h4zm2 0v4h3v-4zm-2 9v-3h-4v3zm2 0h3v-3h-3zm-2-14h-4v3h4zm2 0v3h3v-3zm-8 5h-3v4h3zm0 9v-3h-3v3zm0-14h-3v3h3zm-4-2h16c.2652 0 .5196.10536.7071.29289.1875.18754.2929.44189.2929.70711v16c0 .2652-.1054.5196-.2929.7071s-.4419.2929-.7071.2929h-16c-.26522 0-.51957-.1054-.70711-.2929-.18753-.1875-.29289-.4419-.29289-.7071v-16c0-.26522.10536-.51957.29289-.70711.18754-.18753.44189-.29289.70711-.29289z" /></svg>