<svg fill="currentColor" height="24" viewBox="0 0 24 24" width="24" xmlns="http://www.w3.org/2000/svg"><path d="m14 10v4h-4v-4zm2 0h5v4h-5zm-2 11h-4v-5h4zm2 0v-5h5v4c0 .2652-.1054.5196-.2929.7071s-.4419.2929-.7071.2929zm-2-18v5h-4v-5zm2 0h4c.2652 0 .5196.10536.7071.29289.1875.18754.2929.44189.2929.70711v4h-5zm-8 7v4h-5v-4zm0 11h-4c-.26522 0-.51957-.1054-.70711-.2929-.18753-.1875-.29289-.4419-.29289-.7071v-4h5zm0-18v5h-5v-4c0-.26522.10536-.51957.29289-.70711.18754-.18753.44189-.29289.70711-.29289z" /></svg>