<svg fill="currentColor" height="24" viewBox="0 0 24 24" width="24" xmlns="http://www.w3.org/2000/svg"><path d="m9.55 11.5c-.59674 0-1.16903-.2371-1.59099-.659-.42196-.422-.65901-.99426-.65901-1.591s.23705-1.16903.65901-1.59099.99425-.65901 1.59099-.65901c.5967 0 1.169.23705 1.591.65901.4219.42196.659.99425.659 1.59099s-.2371 1.169-.659 1.591c-.422.4219-.9943.659-1.591.659zm.45 8.248v-3.348c0-.488.144-.937.404-1.338-.89133-.1268-1.79932-.0663-2.66594.1777s-1.67281.6661-2.36706 1.2393c1.09307 1.6176 2.73914 2.7804 4.629 3.27zm-5.547-5.088c1.46049-1.0808 3.23008-1.6629 5.047-1.66 1.043 0 2.043.188 2.967.532.878-.343 1.925-.532 3.033-.532 1.66 0 3.185.424 4.206 1.156.3375-1.2101.3853-2.4827.1395-3.7148-.2458-1.23202-.7784-2.38884-1.5545-3.37676s-1.774-1.77917-2.9128-2.30966c-1.1388-.53048-2.3866-.7853-3.6422-.74381-1.2557.04149-2.4839.37812-3.58523.98263-1.10132.60451-2.0448 1.4599-2.75401 2.4969s-1.16422 2.22645-1.32818 3.472c-.16397 1.2456-.03227 2.5123.38442 3.6975zm14.426 1.426c-.393-.533-1.708-1.086-3.379-1.086-2.006 0-3.5.797-3.5 1.4v3.6c1.3878.0008 2.752-.3597 3.9583-1.046 1.2063-.6862 2.2132-1.6746 2.9217-2.868zm-6.879 5.914c-5.523 0-10-4.477-10-10s4.477-10 10-10 10 4.477 10 10-4.477 10-10 10zm3.5-9.5c-.5304 0-1.0391-.2107-1.4142-.5858s-.5858-.8838-.5858-1.4142c0-.53043.2107-1.03914.5858-1.41421.3751-.37508.8838-.58579 1.4142-.58579s1.0391.21071 1.4142.58579c.3751.37507.5858.88378.5858 1.41421 0 .5304-.2107 1.0391-.5858 1.4142s-.8838.5858-1.4142.5858z" /></svg>