<svg fill="currentColor" height="24" viewBox="0 0 24 24" width="24" xmlns="http://www.w3.org/2000/svg"><path d="m2 22c0-2.1217.84285-4.1566 2.34315-5.6569 1.50029-1.5002 3.53512-2.3431 5.65685-2.3431 2.1217 0 4.1566.8429 5.6569 2.3431 1.5002 1.5003 2.3431 3.5352 2.3431 5.6569zm8-9c-3.315 0-6-2.685-6-6s2.685-6 6-6 6 2.685 6 6-2.685 6-6 6zm7.363 2.233c1.5296.3931 2.8963 1.2588 3.9053 2.4738 1.0091 1.215 1.6091 2.7174 1.7147 4.2932h-2.983c0-2.61-1-4.986-2.637-6.767zm-2.023-2.276c.838-.7495 1.5082-1.6677 1.9666-2.6943.4584-1.02654.6947-2.13841.6934-3.2627.0021-1.36653-.3474-2.71063-1.015-3.903 1.1326.22759 2.1515.84037 2.8835 1.7342.7319.89382 1.1317 2.01353 1.1315 3.1688.0003.71247-.1518 1.41676-.4459 2.0657-.2941.6489-.7236 1.2274-1.2595 1.6968-.536.4694-1.1661.8189-1.8482 1.0249-.682.206-1.4002.2638-2.1064.1696z" /></svg>