<svg fill="currentColor" height="24" viewBox="0 0 24 24" width="24" xmlns="http://www.w3.org/2000/svg"><path d="m2 22c0-2.1217.84285-4.1566 2.34315-5.6569 1.50029-1.5002 3.53512-2.3431 5.65685-2.3431 2.1217 0 4.1566.8429 5.6569 2.3431 1.5002 1.5003 2.3431 3.5352 2.3431 5.6569h-2c0-1.5913-.6321-3.1174-1.7574-4.2426-1.1252-1.1253-2.6513-1.7574-4.2426-1.7574s-3.11742.6321-4.24264 1.7574c-1.12522 1.1252-1.75736 2.6513-1.75736 4.2426zm8-9c-3.315 0-6-2.685-6-6s2.685-6 6-6 6 2.685 6 6-2.685 6-6 6zm0-2c2.21 0 4-1.79 4-4s-1.79-4-4-4-4 1.79-4 4 1.79 4 4 4zm8.284 3.703c1.4053.6329 2.598 1.6582 3.4346 2.9527s1.2816 2.803 1.2814 4.3443h-2c.0002-1.156-.3334-2.2875-.9609-3.2584s-1.522-1.7399-2.5761-2.2146l.82-1.824zm-.688-11.29c1.0075.4153 1.869 1.12054 2.475 2.02623.6061.90569.9294 1.97101.929 3.06077.0004 1.37233-.5123 2.6952-1.4375 3.7088-.9251 1.0136-2.1958 1.6447-3.5625 1.7692v-2.013c.7409-.1061 1.4283-.447 1.9613-.9725.533-.5256.8834-1.20818.9999-1.94757.1164-.73938-.0072-1.49663-.3528-2.16058-.3456-.66394-.895-1.1996-1.5674-1.52835z" /></svg>