<svg fill="currentColor" height="24" viewBox="0 0 24 24" width="24" xmlns="http://www.w3.org/2000/svg"><path d="m10 19.748v-3.348c0-1.283.995-2.292 2.467-2.868-.9493-.3531-1.9542-.5332-2.967-.532-1.89 0-3.636.617-5.047 1.66.43751 1.2373 1.17209 2.3483 2.13925 3.2355.96716.8871 2.13732 1.5232 3.40775 1.8525zm8.88-3.662c-.395-.533-1.71-1.086-3.38-1.086-2.006 0-3.5.797-3.5 1.4v3.6c1.3878.0008 2.752-.3597 3.9583-1.046 1.2063-.6862 2.2132-1.6746 2.9217-2.868zm-9.33-4.586c.5967 0 1.169-.2371 1.591-.659.4219-.422.659-.99426.659-1.591s-.2371-1.16903-.659-1.59099c-.422-.42196-.9943-.65901-1.591-.65901-.59674 0-1.16903.23705-1.59099.65901s-.65901.99425-.65901 1.59099.23705 1.169.65901 1.591c.42196.4219.99425.659 1.59099.659zm5.95 1c.5304 0 1.0391-.2107 1.4142-.5858s.5858-.8838.5858-1.4142c0-.53043-.2107-1.03914-.5858-1.41421-.3751-.37508-.8838-.58579-1.4142-.58579s-1.0391.21071-1.4142.58579c-.3751.37507-.5858.88378-.5858 1.41421 0 .5304.2107 1.0391.5858 1.4142s.8838.5858 1.4142.5858zm-3.5 9.5c-5.523 0-10-4.477-10-10s4.477-10 10-10 10 4.477 10 10-4.477 10-10 10z" /></svg>