<svg fill="currentColor" height="24" viewBox="0 0 24 24" width="24" xmlns="http://www.w3.org/2000/svg"><path d="m13.0005 8v8c0 .7956-.3161 1.5587-.8787 2.1213s-1.3257.8787-2.1213.8787h-2.17001c-.23591.6675-.7002 1.2301-1.31081 1.5884-.61061.3582-1.32822.4891-2.02598.3694-.69777-.1197-1.33076-.4822-1.78709-1.0234-.45633-.5413-.70661-1.2264-.70661-1.9344s.25028-1.3931.70661-1.9344c.45633-.5412 1.08932-.9037 1.78709-1.0234.69776-.1197 1.41537.0112 2.02598.3694.61061.3583 1.0749.9209 1.31081 1.5884h2.17001c.2652 0 .5196-.1054.7071-.2929s.2929-.4419.2929-.7071v-8c0-.79565.3161-1.55871.8787-2.12132s1.3256-.87868 2.1213-.87868h3v-3l5 4-5 4v-3h-3c-.2652 0-.5196.10536-.7071.29289-.1876.18754-.2929.44189-.2929.70711zm-8.00001 11c.26521 0 .51957-.1054.7071-.2929.18754-.1875.2929-.4419.2929-.7071s-.10536-.5196-.2929-.7071c-.18753-.1875-.44189-.2929-.7071-.2929-.26522 0-.51957.1054-.70711.2929s-.29289.4419-.29289.7071.10535.5196.29289.7071.44189.2929.70711.2929z" /></svg>