<svg fill="currentColor" height="24" viewBox="0 0 24 24" width="24" xmlns="http://www.w3.org/2000/svg"><path d="m5.9999 17.418c-1.71908-.698-3.1422-1.9717-4.02594-3.6031s-1.173178-3.5192-.81881-5.34045c.35438-1.82123 1.33054-3.46276 2.76151-4.64378 1.43098-1.18101 3.22785-1.82814 5.08324-1.83067 1.6121-.00009 3.1866.48665 4.5173 1.39648 1.3308.90983 2.3557 2.20034 2.9407 3.70252 1.3953-.27582 2.8432-.00038 4.0398.7685s2.0488 1.97141 2.3777 3.3552c.3289 1.3837.109 2.8411-.6136 4.0662-.7226 1.225-1.8917 2.1226-3.2619 2.5041v-2.13c.4622-.2193.8707-.5373 1.1967-.9315s.5617-.8551.6904-1.3502c.1286-.4952.1472-1.0125.0544-1.5156-.0929-.503-.2949-.9796-.5918-1.3962s-.6816-.76304-1.1268-1.01492c-.4453-.25189-.9404-.4031-1.4504-.443-.51-.03989-1.0226.0325-1.5016.21208-.479.17959-.9128.46199-1.2709.82734v-.051c-.0001-1.05318-.2775-2.08778-.8042-2.99979-.5267-.91202-1.2842-1.66934-2.1964-2.19583-.9121-.5265-1.9467-.80363-2.99993-.80353-1.05318.00009-2.08779.2774-2.99984.80406-.91204.52665-1.6694 1.2841-2.19594 2.19621-.52654.91212-.80373 1.94676-.80369 2.99998.00004 1.0531.27729 2.0878.8039 2.9998.52661.9121 1.28402 1.6695 2.1961 2.1961zm4-.418c-.53043 0-1.03914-.2107-1.41421-.5858-.37508-.3751-.58579-.8838-.58579-1.4142s.21071-1.0391.58579-1.4142c.37507-.3751.88378-.5858 1.41421-.5858.5304 0 1.0391.2107 1.4142.5858s.5858.8838.5858 1.4142-.2107 1.0391-.5858 1.4142-.8838.5858-1.4142.5858zm5 3c-.5304 0-1.0391-.2107-1.4142-.5858s-.5858-.8838-.5858-1.4142.2107-1.0391.5858-1.4142.8838-.5858 1.4142-.5858 1.0391.2107 1.4142.5858.5858.8838.5858 1.4142-.2107 1.0391-.5858 1.4142-.8838.5858-1.4142.5858zm-5 3c-.53043 0-1.03914-.2107-1.41421-.5858-.37508-.3751-.58579-.8838-.58579-1.4142s.21071-1.0391.58579-1.4142c.37507-.3751.88378-.5858 1.41421-.5858.5304 0 1.0391.2107 1.4142.5858s.5858.8838.5858 1.4142-.2107 1.0391-.5858 1.4142-.8838.5858-1.4142.5858z" /></svg>