<svg fill="currentColor" height="24" viewBox="0 0 24 24" width="24" xmlns="http://www.w3.org/2000/svg"><path d="m18.9952 17.794c-.0308-.6003-.1964-1.186-.4846-1.7135-.2883-.5274-.6917-.9832-1.1802-1.3333-.4886-.3501-1.0498-.5857-1.642-.689-.5921-.1034-1.1999-.0721-1.7782.0918-.2104-.9639-.7695-1.8161-1.5699-2.3929s-1.7857-.8376-2.76663-.7322c-.98094.1054-1.88835.5696-2.54793 1.3033s-1.02483 1.6852-1.02558 2.6718c0 1.08.428 2.059 1.122 2.778-1.33685-.3234-2.56776-.9859-3.57388-1.9237-1.00611-.9378-1.75346-2.1192-2.16988-3.43-.416418-1.3109-.487843-2.70692-.20738-4.05342.28047-1.3465.90335-2.59795 1.8085-3.63352.90516-1.03558 2.06202-1.82029 3.35889-2.27839s2.68994-.5741 4.04469-.33681c1.3548.23729 2.6255.81985 3.6895 1.69146 1.064.8716 1.8852 2.00279 2.3846 3.28435 1.3967-.27819 2.8468-.00377 4.0453.76553 1.1985.76929 2.0519 1.97348 2.3806 3.3592.3286 1.3857.107 2.8449-.6183 4.0705s-1.8978 2.122-3.2706 2.5008zm-8.995-.794c-.53048 0-1.03918-.2107-1.41426-.5858-.37507-.3751-.58578-.8838-.58578-1.4142 0-.5305.21071-1.0392.58578-1.4142.37508-.3751.88378-.5858 1.41426-.5858.5304 0 1.0391.2107 1.4142.5858.375.375.5858.8837.5858 1.4142 0 .5304-.2108 1.0391-.5858 1.4142-.3751.3751-.8838.5858-1.4142.5858zm5 3c-.5305 0-1.0392-.2107-1.4143-.5858-.375-.3751-.5857-.8838-.5857-1.4142 0-.5305.2107-1.0392.5857-1.4142.3751-.3751.8838-.5858 1.4143-.5858.5304 0 1.0391.2107 1.4142.5858.375.375.5858.8837.5858 1.4142 0 .5304-.2108 1.0391-.5858 1.4142-.3751.3751-.8838.5858-1.4142.5858zm-5 3c-.53048 0-1.03918-.2107-1.41426-.5858-.37507-.3751-.58578-.8838-.58578-1.4142 0-.5305.21071-1.0392.58578-1.4142.37508-.3751.88378-.5858 1.41426-.5858.5304 0 1.0391.2107 1.4142.5858.375.375.5858.8837.5858 1.4142 0 .5304-.2108 1.0391-.5858 1.4142-.3751.3751-.8838.5858-1.4142.5858z" /></svg>