<svg fill="currentColor" height="24" viewBox="0 0 24 24" width="24" xmlns="http://www.w3.org/2000/svg"><path d="m20 2c.2652 0 .5196.10536.7071.29289.1875.18754.2929.44189.2929.70711v5c0 .26522-.1054.51957-.2929.70711-.1875.18753-.4419.29289-.7071.29289h-5v13c0 .2652-.1054.5196-.2929.7071s-.4419.2929-.7071.2929h-4c-.26522 0-.51957-.1054-.70711-.2929-.18753-.1875-.29289-.4419-.29289-.7071v-13h-5.5c-.26522 0-.51957-.10536-.70711-.29289-.18753-.18754-.29289-.44189-.29289-.70711v-2.382c.0001-.18566.05188-.36763.14955-.52553.09767-.15789.23737-.28548.40345-.36847l5.447-2.724zm-5 2h-6.028l-4.472 2.236v.764h6.5v14h2v-14h2zm4 0h-2v3h2z" /></svg>