<svg fill="currentColor" height="24" viewBox="0 0 24 24" width="24" xmlns="http://www.w3.org/2000/svg"><path d="m9.33 11.5h2.17c1.1935 0 2.3381.4741 3.182 1.318s1.318 1.9885 1.318 3.182h-7.001l.001 1h8v-1c-.0032-1.064-.3106-2.105-.886-3h2.886c.9453-.0003 1.8712.2674 2.6705.772.7993.5047 1.4392 1.2255 1.8455 2.079-2.365 3.121-6.194 5.149-10.516 5.149-2.761 0-5.1-.59-7-1.625v-9.304c1.21661.1743 2.36547.6673 3.33 1.429zm-4.33 7.5c0 .2652-.10536.5196-.29289.7071-.18754.1875-.44189.2929-.70711.2929h-2c-.26522 0-.51957-.1054-.70711-.2929-.18753-.1875-.29289-.4419-.29289-.7071v-9c0-.26522.10536-.51957.29289-.70711.18754-.18753.44189-.29289.70711-.29289h2c.26522 0 .51957.10536.70711.29289.18753.18754.29289.44189.29289.70711zm13-14c.7956 0 1.5587.31607 2.1213.87868s.8787 1.32567.8787 2.12132-.3161 1.55871-.8787 2.1213c-.5626.5626-1.3257.8787-2.1213.8787s-1.5587-.3161-2.1213-.8787c-.5626-.56259-.8787-1.32565-.8787-2.1213s.3161-1.55871.8787-2.12132 1.3257-.87868 2.1213-.87868zm-7-3c.7956 0 1.5587.31607 2.1213.87868s.8787 1.32567.8787 2.12132-.3161 1.55871-.8787 2.12132-1.3257.87868-2.1213.87868-1.55871-.31607-2.12132-.87868-.87868-1.32567-.87868-2.12132.31607-1.55871.87868-2.12132 1.32572-.87868 2.12132-.87868z" /></svg>