<svg fill="currentColor" height="24" viewBox="0 0 24 24" width="24" xmlns="http://www.w3.org/2000/svg"><path d="m5 9c.26522 0 .51957.10536.70711.29289.18753.18754.29289.44189.29289.70711 1.57114-.00231 3.09698.5263 4.33 1.5h2.17c1.333 0 2.53.58 3.354 1.5h3.146c.9453-.0003 1.8712.2674 2.6705.772.7993.5047 1.4392 1.2255 1.8455 2.079-2.365 3.121-6.194 5.149-10.516 5.149-2.79 0-5.15-.603-7.06-1.658-.06996.1931-.19776.3598-.36598.4776-.16823.1178-.36868.1807-.57402.1804h-3c-.26522 0-.51957-.1054-.70711-.2929-.18753-.1875-.29289-.4419-.29289-.7071v-9c0-.26522.10536-.51957.29289-.70711.18754-.18753.44189-.29289.70711-.29289zm1.001 3-.001 5.022.045.032c1.795 1.26 4.133 1.946 6.955 1.946 3.004 0 5.799-1.156 7.835-3.13l.133-.133-.12-.1c-.4722-.3698-1.0446-.5893-1.643-.63l-.205-.007h-2.111c.072.322.111.656.111 1v1h-9v-2l6.79-.001-.034-.078c-.1916-.4005-.4864-.7427-.8541-.9915-.3676-.2489-.7949-.3954-1.2379-.4245l-.164-.005h-2.93c-.46469-.4753-1.01973-.8528-1.63248-1.1104s-1.27083-.3901-1.93552-.3896zm-2.001-1h-1v7h1zm14-6c.7956 0 1.5587.31607 2.1213.87868s.8787 1.32567.8787 2.12132-.3161 1.55871-.8787 2.1213c-.5626.5626-1.3257.8787-2.1213.8787s-1.5587-.3161-2.1213-.8787c-.5626-.56259-.8787-1.32565-.8787-2.1213s.3161-1.55871.8787-2.12132 1.3257-.87868 2.1213-.87868zm0 2c-.2652 0-.5196.10536-.7071.29289-.1875.18754-.2929.44189-.2929.70711s.1054.51957.2929.70711c.1875.18753.4419.29289.7071.29289s.5196-.10536.7071-.29289c.1875-.18754.2929-.44189.2929-.70711s-.1054-.51957-.2929-.70711c-.1875-.18753-.4419-.29289-.7071-.29289zm-7-5c.7956 0 1.5587.31607 2.1213.87868s.8787 1.32567.8787 2.12132-.3161 1.55871-.8787 2.12132-1.3257.87868-2.1213.87868-1.55871-.31607-2.12132-.87868-.87868-1.32567-.87868-2.12132.31607-1.55871.87868-2.12132 1.32572-.87868 2.12132-.87868zm0 2c-.2652 0-.5196.10536-.7071.29289-.1875.18754-.2929.44189-.2929.70711s.1054.51957.2929.70711c.1875.18753.4419.29289.7071.29289s.5196-.10536.7071-.29289c.1875-.18754.2929-.44189.2929-.70711s-.1054-.51957-.2929-.70711c-.1875-.18753-.4419-.29289-.7071-.29289z" /></svg>