<svg fill="currentColor" height="24" viewBox="0 0 24 24" width="24" xmlns="http://www.w3.org/2000/svg"><path d="m12.0001 2c1.8565 0 3.637.7375 4.9497 2.05025 1.3128 1.31276 2.0503 3.09323 2.0503 4.94975h1.074c.2519.00001.4945.09507.6793.26618.1848.17112.2983.40569.3177.65682l.846 11c.0204.2644-.0651.5261-.2376.7275s-.418.3261-.6824.3465l-.077.003h-17.84002c-.26522 0-.51957-.1054-.70711-.2929-.18753-.1875-.29289-.4419-.29289-.7071l.003-.077.846-11c.01939-.25113.13285-.4857.31768-.65682.18483-.17111.42744-.26617.67932-.26618h1.074c0-1.85652.7375-3.63699 2.05025-4.94975 1.31276-1.31275 3.09327-2.05025 4.94977-2.05025zm2 11h-4v2h4zm-2-9c-1.2885.00007-2.52718.49754-3.4578 1.38866-.93061.89112-1.4813 2.10709-1.53722 3.39434l-.005.217h10.00002c-.0001-1.28846-.4976-2.52716-1.3887-3.45778-.8911-.93061-2.1071-1.4813-3.3943-1.53722z" /></svg>