<svg fill="currentColor" height="24" viewBox="0 0 24 24" width="24" xmlns="http://www.w3.org/2000/svg"><path d="m9.33 11.5h2.17c1.1935 0 2.3381.4741 3.182 1.318s1.318 1.9885 1.318 3.182h-7.001l.001 1h8v-1c-.0032-1.0641-.3106-2.105-.886-3h2.886c.9453-.0003 1.8712.2674 2.6705.772s1.4392 1.2255 1.8455 2.079c-2.365 3.121-6.194 5.149-10.516 5.149-2.761 0-5.1-.59-7-1.625v-9.304c1.21661.1742 2.36547.6672 3.33 1.429zm-5.33-2.50004c.24493.00003.48134.08995.66437.25271.18304.16276.29997.38703.32863.63029l.007.117v9.00004c0 .2652-.10536.5195-.29289.7071-.18754.1875-.44189.2929-.70711.2929h-2c-.26522 0-.51957-.1054-.70711-.2929-.18753-.1876-.29289-.4419-.29289-.7071v-9.00004c0-.26522.10536-.51957.29289-.70711.18754-.18754.44189-.29289.70711-.29289zm9.646-5.425.354.355.354-.354c.2318-.23379.5075-.41948.8113-.54642.3037-.12695.6296-.19264.9588-.19332.3292-.00067.6554.06369.9596.18939.3043.1257.5808.31026.8136.54309.2327.23283.4172.50935.5428.81367s.1899.63045.1891.95967c-.0007.32923-.0665.65506-.1936.95879-.127.30373-.3128.57938-.5466.81113l-3.889 3.88804-3.89-3.89004c-.23378-.23181-.41947-.50752-.54642-.81128-.12694-.30377-.19264-.62962-.19331-.95885-.00068-.32922.06368-.65534.18938-.95962.1257-.30429.31027-.58075.54305-.81351.2329-.23276.5094-.41725.8137-.54286.3043-.12562.6305-.18988.9597-.18912.3292.00077.655.06656.9588.19359.3037.12703.5794.3128.8111.54665z" /></svg>