<svg fill="currentColor" height="24" viewBox="0 0 24 24" width="24" xmlns="http://www.w3.org/2000/svg"><path d="m5 8.99996c.26522 0 .51957.10535.70711.29289.18753.18754.29289.44189.29289.70711 1.57114-.00232 3.09698.52624 4.33 1.50004h2.17c1.332 0 2.53.579 3.353 1.499l3.147.001c.9453-.0003 1.8712.2674 2.6705.772s1.4392 1.2255 1.8455 2.079c-2.365 3.121-6.194 5.149-10.516 5.149-2.79 0-5.15-.603-7.06-1.658-.06996.193-.19776.3598-.36598.4776-.16823.1177-.36868.1807-.57402.1804h-3c-.26522 0-.51957-.1054-.70711-.2929-.18753-.1876-.29289-.4419-.29289-.7071v-9.00004c0-.26522.10536-.51957.29289-.70711.18754-.18754.44189-.29289.70711-.29289zm1.001 3.00004-.001 5.021.045.033c1.795 1.26 4.133 1.946 6.955 1.946 3.004 0 5.799-1.156 7.835-3.13l.133-.133-.12-.1c-.4722-.3699-1.0446-.5894-1.643-.63l-.205-.007-2.112-.001c.073.322.112.657.112 1.001v1h-9v-2l6.79-.001-.034-.078c-.1916-.4005-.4864-.7427-.8541-.9916-.3676-.2488-.7949-.3953-1.2379-.4244l-.164-.005h-2.93c-.46469-.4753-1.01973-.8529-1.63248-1.1105s-1.27083-.39-1.93552-.3895zm-2.001-1h-1v7h1zm9.646-7.42504.354.355.354-.354c.2318-.23379.5075-.41948.8113-.54642.3037-.12695.6296-.19264.9588-.19332.3292-.00067.6554.06369.9596.18939.3043.1257.5808.31026.8136.54309.2327.23283.4172.50935.5428.81367s.1899.63045.1891.95967c-.0007.32923-.0665.65506-.1936.95879-.127.30373-.3128.57938-.5466.81113l-3.889 3.88804-3.89-3.89004c-.23378-.23181-.41947-.50752-.54642-.81128-.12694-.30377-.19264-.62962-.19331-.95885-.00068-.32922.06368-.65534.18938-.95962.1257-.30429.31027-.58075.54305-.81351.2329-.23276.5094-.41725.8137-.54286.3043-.12562.6305-.18988.9597-.18912.3292.00077.655.06656.9588.19359.3037.12703.5794.3128.8111.54665zm-2.12 1.415c-.0829.08242-.1343.19127-.1452.30764-.011.11637.0192.23291.0852.32936l.058.069 2.476 2.474 2.476-2.474c.0828-.08274.134-.19191.1446-.3085.0106-.11658-.02-.23319-.0866-.3295l-.058-.07c-.0829-.08268-.1921-.13367-.3087-.14408-.1166-.01042-.2331.0204-.3293.08708l-.07.058-1.769 1.768-1.767-1.77-.068-.056c-.0963-.06656-.2129-.0972-.3295-.0866s-.2258.06177-.3085.1446z" /></svg>