<svg fill="currentColor" height="24" viewBox="0 0 24 24" width="24" xmlns="http://www.w3.org/2000/svg"><path d="m5 10.938c1.76239-.2226 3.40066-1.02513 4.65676-2.28124 1.25614-1.2561 2.05864-2.89437 2.28124-4.65676h-6.938zm0 2.013v7.049h14v-16h-5.05c-.2312 2.29499-1.2484 4.43955-2.8794 6.0706-1.63105 1.631-3.77561 2.6482-6.0706 2.8794zm-1-10.951h16c.2652 0 .5196.10536.7071.29289.1875.18754.2929.44189.2929.70711v18c0 .2652-.1054.5196-.2929.7071s-.4419.2929-.7071.2929h-16c-.26522 0-.51957-.1054-.70711-.2929-.18753-.1875-.29289-.4419-.29289-.7071v-18c0-.26522.10536-.51957.29289-.70711.18754-.18753.44189-.29289.70711-.29289zm11 14h2v2h-2z" /></svg>