<svg fill="currentColor" height="24" viewBox="0 0 24 24" width="24" xmlns="http://www.w3.org/2000/svg"><path d="m13.95 2h6.05c.2652 0 .5196.10536.7071.29289.1875.18754.2929.44189.2929.70711v18c0 .2652-.1054.5196-.2929.7071s-.4419.2929-.7071.2929h-16c-.26522 0-.51957-.1054-.70711-.2929-.18753-.1875-.29289-.4419-.29289-.7071v-8.05c.329.033.663.05 1 .05 5.523 0 10-4.477 10-10 0-.337-.017-.671-.05-1zm1.05 14v2h2v-2zm-3.062-14c.1526 1.21014.0265 2.43914-.3688 3.59306-.3952 1.15391-1.049 2.20218-1.91149 3.06465-.86247.86247-1.91074 1.51629-3.06465 1.91149-1.15392.3953-2.38292.5214-3.59306.3688v-7.938c0-.26522.10536-.51957.29289-.70711.18754-.18753.44189-.29289.70711-.29289z" /></svg>