<svg fill="currentColor" height="24" viewBox="0 0 24 24" width="24" xmlns="http://www.w3.org/2000/svg"><path d="m12 19c.3978 0 .7794.158 1.0607.4393s.4393.6629.4393 1.0607-.158.7794-.4393 1.0607-.6629.4393-1.0607.4393-.7794-.158-1.0607-.4393-.4393-.6629-.4393-1.0607.158-.7794.4393-1.0607.6629-.4393 1.0607-.4393zm7.5 0c.3978 0 .7794.158 1.0607.4393s.4393.6629.4393 1.0607-.158.7794-.4393 1.0607-.6629.4393-1.0607.4393-.7794-.158-1.0607-.4393-.4393-.6629-.4393-1.0607.158-.7794.4393-1.0607.6629-.4393 1.0607-.4393zm-15 0c.39782 0 .77936.158 1.06066.4393s.43934.6629.43934 1.0607-.15804.7794-.43934 1.0607-.66284.4393-1.06066.4393-.77936-.158-1.06066-.4393-.43934-.6629-.43934-1.0607.15804-.7794.43934-1.0607.66284-.4393 1.06066-.4393zm12.5-12c1.3261 0 2.5979.52678 3.5355 1.46447.9377.93768 1.4645 2.20943 1.4645 3.53553s-.5268 2.5979-1.4645 3.5355c-.9376.9377-2.2094 1.4645-3.5355 1.4645-1.844 0-3.51-1.04-5-3.122-1.49 2.082-3.156 3.122-5 3.122-1.32608 0-2.59785-.5268-3.53553-1.4645-.93769-.9376-1.46447-2.2094-1.46447-3.5355s.52678-2.59785 1.46447-3.53553c.93768-.93769 2.20945-1.46447 3.53553-1.46447 1.844 0 3.51 1.04 5 3.122 1.49-2.082 3.156-3.122 5-3.122zm-10 2c-.79565 0-1.55871.31607-2.12132.87868-.56261.56262-.87868 1.32572-.87868 2.12132s.31607 1.5587.87868 2.1213 1.32567.8787 2.12132.8787c1.254 0 2.51-.875 3.759-2.854l.089-.147-.09-.145c-1.197-1.896-2.4-2.78-3.601-2.85zm10 0c-1.254 0-2.51.875-3.759 2.854l-.09.146.09.146c1.198 1.896 2.4 2.78 3.602 2.85l.157.004c.7956 0 1.5587-.3161 2.1213-.8787s.8787-1.3257.8787-2.1213-.3161-1.5587-.8787-2.12132c-.5626-.56261-1.3257-.87868-2.1213-.87868zm-5-7c.197 0 .392.0388.574.11418s.3474.18587.4867.32516c.1392.13929.2497.30465.3251.48663.0754.18199.1142.37705.1142.57403s-.0388.39204-.1142.57403c-.0754.18198-.1859.34734-.3251.48663-.1393.13929-.3047.24978-.4867.32516s-.377.11418-.574.11418c-.3978 0-.7794-.15804-1.0607-.43934s-.4393-.66284-.4393-1.06066.158-.77936.4393-1.06066.6629-.43934 1.0607-.43934zm-7.5 0c.19698 0 .39204.0388.57403.11418.18198.07538.34734.18587.48663.32516s.24978.30465.32516.48663c.07538.18199.11418.37705.11418.57403s-.0388.39204-.11418.57403c-.07538.18198-.18587.34734-.32516.48663s-.30465.24978-.48663.32516c-.18199.07538-.37705.11418-.57403.11418-.39782 0-.77936-.15804-1.06066-.43934s-.43934-.66284-.43934-1.06066.15804-.77936.43934-1.06066.66284-.43934 1.06066-.43934zm15 0c.197 0 .392.0388.574.11418s.3474.18587.4867.32516c.1392.13929.2497.30465.3251.48663.0754.18199.1142.37705.1142.57403s-.0388.39204-.1142.57403c-.0754.18198-.1859.34734-.3251.48663-.1393.13929-.3047.24978-.4867.32516s-.377.11418-.574.11418c-.3978 0-.7794-.15804-1.0607-.43934s-.4393-.66284-.4393-1.06066.158-.77936.4393-1.06066.6629-.43934 1.0607-.43934z" /></svg>