<svg fill="currentColor" height="24" viewBox="0 0 24 24" width="24" xmlns="http://www.w3.org/2000/svg"><path d="m6.083 13c-.14455-.86-.09989-1.7412.13088-2.5822.23076-.84104.64209-1.62163 1.20533-2.28744s1.26485-1.20083 2.05597-1.56781 1.65272-.55709 2.52482-.55709 1.7337.19011 2.5248.55709 1.4927.902 2.056 1.56781c.5632.66581.9746 1.4464 1.2053 2.28744.2308.841.2755 1.7222.1309 2.5822h-2.043c.1519-.5909.1667-1.2087.0431-1.8062s-.3822-1.1588-.7561-1.64095c-.3738-.48216-.8531-.8724-1.4009-1.14087-.5479-.26846-1.15-.40803-1.7601-.40803s-1.2122.13957-1.7601.40803c-.54784.26847-1.02706.65871-1.40093 1.14087-.37387.48215-.63249 1.04345-.75606 1.64095-.12358.5975-.10884 1.2153.04309 1.8062zm-4.083 2h10v2h-10zm12 0h8v2h-8zm2 4h4v2h-4zm-12 0h10v2h-10zm7-18h2v3h-2zm-7.485 3.929 1.414-1.414 2.121 2.121-1.414 1.414-2.121-2.12zm15.555-1.414 1.414 1.414-2.121 2.121-1.414-1.414zm3.93 7.485v2h-3v-2zm-19 0v2h-3v-2z" /></svg>