<svg fill="currentColor" height="24" viewBox="0 0 24 24" width="24" xmlns="http://www.w3.org/2000/svg"><path d="m3 3h18c.2652 0 .5196.10536.7071.29289.1875.18754.2929.44189.2929.70711v16c0 .2652-.1054.5196-.2929.7071s-.4419.2929-.7071.2929h-18c-.26522 0-.51957-.1054-.70711-.2929-.18753-.1875-.29289-.4419-.29289-.7071v-16c0-.26522.10536-.51957.29289-.70711.18754-.18753.44189-.29289.70711-.29289zm4.5 8.25v-2.25h-1.5v6h1.5v-2.25h2v2.25h1.5v-6h-1.5v2.25zm7-.75h1.5c.1326 0 .2598.0527.3536.1464.0937.0938.1464.221.1464.3536v2c0 .1326-.0527.2598-.1464.3536-.0938.0937-.221.1464-.3536.1464h-1.5zm-1.5-1.5v6h3c.5304 0 1.0391-.2107 1.4142-.5858s.5858-.8838.5858-1.4142v-2c0-.5304-.2107-1.03914-.5858-1.41421-.3751-.37508-.8838-.58579-1.4142-.58579z" /></svg>