<svg fill="currentColor" height="24" viewBox="0 0 24 24" width="24" xmlns="http://www.w3.org/2000/svg"><path d="m12 4c-2.12173 0-4.15656.84285-5.65685 2.34315-1.5003 1.50029-2.34315 3.53512-2.34315 5.65685h3c.53043 0 1.03914.2107 1.41421.5858.37508.3751.58579.8838.58579 1.4142v5c0 .5304-.21071 1.0391-.58579 1.4142-.37507.3751-.88378.5858-1.41421.5858h-3c-.53043 0-1.03914-.2107-1.41421-.5858-.37508-.3751-.58579-.8838-.58579-1.4142v-7c0-5.523 4.477-10 10-10s10 4.477 10 10v7c0 .5304-.2107 1.0391-.5858 1.4142s-.8838.5858-1.4142.5858h-3c-.5304 0-1.0391-.2107-1.4142-.5858s-.5858-.8838-.5858-1.4142v-5c0-.5304.2107-1.0391.5858-1.4142s.8838-.5858 1.4142-.5858h3c0-2.12173-.8429-4.15656-2.3431-5.65685-1.5003-1.5003-3.5352-2.34315-5.6569-2.34315zm-8 10v5h3v-5zm13 0v5h3v-5z" /></svg>