<svg fill="currentColor" height="24" viewBox="0 0 24 24" width="24" xmlns="http://www.w3.org/2000/svg"><path d="m20.243 4.75698c2.262 2.268 2.34 5.88002.236 8.23602l-8.48 8.492-8.47799-8.492c-2.104-2.356-2.025-5.97402.236-8.23602 2.265-2.264 5.888-2.34 8.24399-.228 2.349-2.109 5.979-2.039 8.242.228zm-15.07099 1.415c-1.49 1.49-1.565 3.87502-.192 5.45102l7.01999 7.031 7.02-7.03c1.374-1.577 1.299-3.95902-.193-5.45402-1.487-1.49-3.881-1.562-5.453-.186l-4.20199 4.20302-1.415-1.41402 2.82499-2.827-.082-.069c-1.57499-1.265-3.87699-1.157-5.32799.295z" /></svg>