<svg fill="currentColor" height="24" viewBox="0 0 24 24" width="24" xmlns="http://www.w3.org/2000/svg"><path d="m16.5 3c3.038 0 5.5 2.5 5.5 6 0 7-7.5 11-10 12.5-2.5-1.5-10-5.5-10-12.5 0-3.5 2.5-6 5.5-6 1.86 0 3.5 1 4.5 2 1-1 2.64-2 4.5-2zm-3.566 15.604c.881-.556 1.676-1.109 2.42-1.701 2.981-2.37 4.646-4.96 4.646-7.903 0-2.36-1.537-4-3.5-4-1.076 0-2.24.57-3.086 1.414l-1.414 1.414-1.414-1.414c-.846-.844-2.01-1.414-3.086-1.414-1.94 0-3.5 1.656-3.5 4 0 2.944 1.666 5.533 4.645 7.903.745.592 1.54 1.145 2.421 1.7.299.189.595.37.934.572.339-.202.635-.383.934-.571z" /></svg>