<svg fill="currentColor" height="24" viewBox="0 0 24 24" width="24" xmlns="http://www.w3.org/2000/svg"><path d="m12.001 4.52898c2.349-2.109 5.979-2.039 8.242.228 2.262 2.268 2.34 5.88002.236 8.23602l-8.48 8.492-8.47799-8.492c-2.104-2.356-2.025-5.97402.236-8.23602 2.265-2.264 5.888-2.34 8.24399-.228zm6.826 1.641c-1.5-1.502-3.92-1.563-5.49-.153l-1.335 1.198-1.336-1.197c-1.57499-1.412-3.98999-1.35-5.49399.154-1.49 1.49-1.565 3.87502-.192 5.45102l7.01999 7.031 7.02-7.03c1.374-1.577 1.299-3.95902-.193-5.45402z" /></svg>