<svg fill="currentColor" height="24" viewBox="0 0 24 24" width="24" xmlns="http://www.w3.org/2000/svg"><path d="m17.3631 11.045c1.404-1.39302 3.68-1.39302 5.084 0 1.404 1.394 1.404 3.654 0 5.047l-5.447 5.408-5.447-5.408c-1.404-1.393-1.404-3.653 0-5.047 1.404-1.39302 3.68-1.39302 5.084 0l.363.36zm1.88-6.28802c.94.943 1.503 2.118 1.689 3.338-1.333-.248-2.739-.01-3.932.713-2.15-1.303-4.994-1.03-6.856.818-2.13096 2.11502-2.18996 5.51502-.17796 7.70102l.17796.185 2.421 2.404-1.565 1.569-8.47995-8.492c-2.103005-2.356-2.024005-5.97402.237-8.23602 2.265-2.264 5.888-2.34 8.24395-.228 2.349-2.109 5.979-2.039 8.242.228z" /></svg>