<svg fill="currentColor" height="24" viewBox="0 0 24 24" width="24" xmlns="http://www.w3.org/2000/svg"><path d="m19 14v3h3v2h-3.001l.001 3h-2l-.001-3h-2.999v-2h3v-3zm1.243-9.24302c2.262 2.268 2.34 5.88002.236 8.23502l-1.42-1.418c1.331-1.524 1.261-3.91402-.232-5.40402-1.503-1.499-3.92-1.563-5.49-.153l-1.335 1.198-1.336-1.197c-1.57497-1.412-3.99097-1.35-5.49397.154-1.49 1.49-1.565 3.87502-.192 5.45102l8.43197 8.446-1.412 1.416-8.47997-8.492c-2.104-2.356-2.025-5.97402.236-8.23602 2.265-2.264 5.888-2.34 8.24397-.228 2.349-2.109 5.979-2.039 8.242.228z" /></svg>