<svg fill="currentColor" height="24" viewBox="0 0 24 24" width="24" xmlns="http://www.w3.org/2000/svg"><path d="m19.2431 4.75698c1.462 1.466 2.012 3.493 1.65 5.38002.568.16 1.106.463 1.554.908 1.404 1.394 1.404 3.654 0 5.047l-5.447 5.408-3.022-3-2.978 2.985-8.47995-8.492c-2.103005-2.356-2.024005-5.97402.237-8.23602 2.265-2.264 5.888-2.34 8.24395-.228 2.349-2.109 5.979-2.039 8.242.228zm-6.281 7.70802c-.616.611-.616 1.597 0 2.208l4.038 4.009 4.038-4.009c.616-.611.616-1.597 0-2.208-.624-.62-1.642-.62-2.268.002l-1.772 1.754-1.407-1.396-.363-.36c-.624-.62-1.642-.62-2.266 0zm-8.78995-6.29302c-1.49 1.49-1.565 3.87502-.192 5.45102l7.01995 7.031 1.559-1.562-1.006-1c-1.404-1.393-1.404-3.653 0-5.047 1.404-1.39302 3.68-1.39302 5.084 0l.363.36.363-.36c.425-.421.93-.715 1.465-.882.416-1.36702.078-2.91202-1.001-3.99302-1.5-1.502-3.92-1.563-5.49-.153l-1.335 1.198-1.33595-1.197c-1.575-1.412-3.99-1.35-5.494.154z" /></svg>