<svg fill="currentColor" height="24" viewBox="0 0 24 24" width="24" xmlns="http://www.w3.org/2000/svg"><path d="m4.99975 16.93c-1.10661-.6398-2.0438-1.5355-2.73308-2.612-.68928-1.0764-1.11057-2.3024-1.22859-3.5752-.118021-1.2728.07067-2.55534.55026-3.7402.47959-1.18487 1.23612-2.23757 2.20623-3.06992.9701-.83235 2.12554-1.42013 3.36952-1.7141 1.24399-.29397 2.54031-.28557 3.78041.0245 1.24.31006 2.3878.91277 3.347 1.75762.9592.84486 1.7021 1.90727 2.1663 3.09825 1.3953-.27581 2.8432-.00038 4.0397.7685 1.1966.76888 2.0488 1.97141 2.3777 3.35515.329 1.3838.109 2.8411-.6136 4.0662s-1.8917 2.1226-3.2618 2.5042v-2.13c.4621-.2194.8706-.5373 1.1967-.9315.326-.3943.5616-.8552.6903-1.3503s.1473-1.0124.0544-1.5155c-.0928-.5031-.2948-.9797-.5917-1.3963-.297-.4166-.6816-.76299-1.1269-1.01487-.4452-.25188-.9403-.4031-1.4503-.44299-.51-.0399-1.0226.03249-1.5016.21208-.479.17958-.9129.46199-1.2709.82738v-.05105c0-1.00084-.2504-1.98579-.7283-2.86516s-1.1682-1.62522-2.008-2.16964-1.8025-.87011-2.80033-.94741c-.99786-.0773-1.9992.09624-2.91284.50482-.91365.40859-1.71057 1.03923-2.31821 1.83451-.60764.79527-1.00668 1.72992-1.1608 2.71883-.15412.9889-.05841 2.0007.27841 2.9431.33681.9425.90404 1.7857 1.65002 2.453zm2-2.93h2v6h-2zm8.00005 0h2v6h-2zm-4 3h2v6h-2z" /></svg>