<svg fill="currentColor" height="24" viewBox="0 0 24 24" width="24" xmlns="http://www.w3.org/2000/svg"><path d="m21.158 4.25807c.034 3.5.591 4.811.788 6.70103.301 2.894-.657 5.894-2.875 8.112-3.666 3.666-9.47103 3.89-13.40003.673l2.852-2.853c2.34403 1.67 5.61703 1.454 7.72003-.648 2.102-2.103 2.318-5.377.648-7.72003zm-2.83-.002-2.851 2.853c-2.344-1.67-5.61703-1.454-7.72003.648-2.102 2.103-2.318 5.37603-.648 7.72003l-4.267 4.265c-.034-3.5-.591-4.811-.788-6.701-.301-2.894.657-5.89403 2.875-8.11203 3.666-3.666 9.47103-3.89 13.40003-.673zm-6.328 3.744c2.21 0 4 1.79 4 4.00003 0 2.21-1.79 4-4 4-2.21003 0-4.00003-1.79-4.00003-4 0-2.21003 1.79-4.00003 4.00003-4.00003zm0 2.50003c-.828 0-1.5.672-1.5 1.5s.672 1.5 1.5 1.5 1.5-.672 1.5-1.5-.672-1.5-1.5-1.5z" /></svg>