<svg fill="currentColor" height="24" viewBox="0 0 24 24" width="24" xmlns="http://www.w3.org/2000/svg"><path d="m18.328 4.25607-1.423 1.423c-3.138-2.442-7.67703-2.22-10.56203.664-2.374 2.374-2.944 5.86803-1.71 8.78003l2.417-2.417c-.213-1.503.258-3.08503 1.414-4.24203 1.71003-1.71 4.35203-1.922 6.29303-.636l-1.464 1.464c-1.115-.532-2.49-.337-3.41403.587-.924.92303-1.12 2.29903-.587 3.41403l-6.45 6.45c-.034-3.5-.591-4.812-.788-6.702-.301-2.894.657-5.89403 2.875-8.11203 3.666-3.666 9.47103-3.89 13.40003-.673zm2.83.002c.034 3.5.591 4.811.788 6.70103.301 2.894-.657 5.894-2.875 8.112-3.666 3.666-9.47103 3.89-13.40003.673l1.424-1.423c3.13803 2.442 7.67703 2.22 10.56203-.664 2.374-2.374 2.944-5.868 1.71-8.78003l-2.417 2.41703c.213 1.503-.258 3.085-1.414 4.242-1.71 1.71-4.352 1.922-6.29303.636l1.46403-1.464c1.115.532 2.49.337 3.414-.587.924-.923 1.12-2.299.587-3.414l6.45-6.45003z" /></svg>