<svg fill="currentColor" height="24" viewBox="0 0 24 24" width="24" xmlns="http://www.w3.org/2000/svg"><path d="m22 11v9h-2v-3h-16v3h-2v-16h2v10h8v-7h6c1.0609 0 2.0783.42143 2.8284 1.17157.7502.75015 1.1716 1.76756 1.1716 2.82843zm-14 2c-.79565 0-1.55871-.3161-2.12132-.8787s-.87868-1.3257-.87868-2.1213c0-.79565.31607-1.55871.87868-2.12132s1.32567-.87868 2.12132-.87868 1.55871.31607 2.1213.87868c.5626.56261.8787 1.32567.8787 2.12132 0 .7956-.3161 1.5587-.8787 2.1213-.56259.5626-1.32565.8787-2.1213.8787z" /></svg>