<svg fill="currentColor" height="24" viewBox="0 0 24 24" width="24" xmlns="http://www.w3.org/2000/svg"><path d="m22 11v9h-2v-3h-16v3h-2v-16h2v10h8v-7h6c1.0609 0 2.0783.42143 2.8284 1.17157.7502.75015 1.1716 1.76756 1.1716 2.82843zm-2 3v-3c0-.5304-.2107-1.03914-.5858-1.41421-.3751-.37508-.8838-.58579-1.4142-.58579h-4v5zm-12-3c.26522 0 .51957-.1054.70711-.2929.18753-.1875.29289-.4419.29289-.7071 0-.26522-.10536-.51957-.29289-.70711-.18754-.18753-.44189-.29289-.70711-.29289s-.51957.10536-.70711.29289c-.18753.18754-.29289.44189-.29289.70711 0 .2652.10536.5196.29289.7071.18754.1875.44189.2929.70711.2929zm0 2c-.79565 0-1.55871-.3161-2.12132-.8787s-.87868-1.3257-.87868-2.1213c0-.79565.31607-1.55871.87868-2.12132s1.32567-.87868 2.12132-.87868 1.55871.31607 2.1213.87868c.5626.56261.8787 1.32567.8787 2.12132 0 .7956-.3161 1.5587-.8787 2.1213-.56259.5626-1.32565.8787-2.1213.8787z" /></svg>