<svg fill="currentColor" height="24" viewBox="0 0 24 24" width="24" xmlns="http://www.w3.org/2000/svg"><path d="m4 5v14h16v-14zm-1-2h18c.2652 0 .5196.10536.7071.29289.1875.18754.2929.44189.2929.70711v16c0 .2652-.1054.5196-.2929.7071s-.4419.2929-.7071.2929h-18c-.26522 0-.51957-.1054-.70711-.2929-.18753-.1875-.29289-.4419-.29289-.7071v-16c0-.26522.10536-.51957.29289-.70711.18754-.18753.44189-.29289.70711-.29289zm4.5 8.25h2v-2.25h1.5v6h-1.5v-2.25h-2v2.25h-1.5v-6h1.5zm8.75 3.75v1.5h-1.5v-1.5h-.75c-.2652 0-.5196-.1054-.7071-.2929s-.2929-.4419-.2929-.7071v-4c0-.26522.1054-.51957.2929-.70711.1875-.18753.4419-.29289.7071-.29289h3c.2652 0 .5196.10536.7071.29289.1875.18754.2929.44189.2929.70711v4c0 .2652-.1054.5196-.2929.7071s-.4419.2929-.7071.2929zm-1.75-4.5v3h2v-3z" /></svg>