<svg fill="currentColor" height="24" viewBox="0 0 24 24" width="24" xmlns="http://www.w3.org/2000/svg"><path d="m18.159 10.0001c-.4135-1.17074-1.1798-2.18445-2.1934-2.90146s-2.2246-1.10205-3.4661-1.10205c-1.2416 0-2.4526.38504-3.46623 1.10205-1.0136.71701-1.7799 1.73072-2.19331 2.90146h11.32004zm-11.57604 3c.20565 1.2117.77834 2.3311 1.64068 3.2069.86234.8757 1.97276 1.4656 3.18116 1.69 1.2084.2243 2.4566.0723 3.5758-.4356s2.0555-1.3471 2.6824-2.4043h3.304c-.4273 1.1832-1.0978 2.2638-1.9683 3.172-.8705.9083-1.9217 1.624-3.0858 2.101s-2.4152.7048-3.6727.6686c-1.2575-.0361-2.49351-.3355-3.62824-.8786-2.744 1.491-5.113 1.8-6.422.491-1.344002-1.34-.628-4.851 1.313-8.373.7162-1.2974 1.55289-2.52444 2.499-3.66502.359-.433.735-.852 1.125-1.252-.275.055-1.88.851-3.412 2.71402.47306-2.11077 1.69019-3.98067 3.42875-5.2677s3.88239-1.90516 6.03929-1.74132c3.095-1.402 5.974-1.726 7.192-.51 1.125 1.123 1.062 2.995.125 5.242-.01.021-.018.043-.027.064.6765 1.28859 1.029 2.72262 1.027 4.17802 0 .338-.019.672-.055 1zm1.422 6.799c-1.84099-1.0638-3.24757-2.743-3.972-4.742-1.161 2.282-1.46 4.19-.469 5.18.813.812 2.438.624 4.438-.436zm12.16704-12.50702c.0049-.01135.0099-.02268.015-.034.75-1.622.813-2.994.125-3.806-.869-.868-2.54-.75-4.522.168 1.8197.71722 3.3574 2.0058 4.382 3.672z" /></svg>