<svg fill="currentColor" height="24" viewBox="0 0 24 24" width="24" xmlns="http://www.w3.org/2000/svg"><path d="m8.61196 20.1201c-2.744 1.49-5.113 1.799-6.422.49-1.344002-1.34-.628-4.851 1.313-8.373.98605-1.7915 2.20461-3.44485 3.624-4.917.187-.187 1.125-1.124 1.187-1.124 0 0-.5.313-.562.313-1.95 1.095-3.663 3.08-4.037 3.525.47306-2.11075 1.69019-3.98065 3.42875-5.26767 1.73856-1.28703 3.88239-1.90516 6.03929-1.74133 3.095-1.402 5.974-1.726 7.192-.51 1.125 1.123 1.062 2.995.125 5.242-.01.021-.018.043-.027.064.6767 1.28889 1.0292 2.7233 1.027 4.179 0 .38-.023.753-.069 1.12h-.804c-.0474.0018-.0947.0028-.142.003h-11.79604v.187c.062 1.997 1.81204 3.744 3.93704 3.744 1.5 0 2.937-.811 3.562-1.997h4.78c-.4273 1.1834-1.0978 2.2641-1.9684 3.1724s-1.9219 1.6241-3.0861 2.1011c-1.1642.4771-2.4154.7048-3.6731.6686-1.2576-.0363-2.49366-.3358-3.62844-.8791zm-.607-.321c-1.84099-1.0637-3.24757-2.743-3.972-4.742-1.161 2.282-1.46 4.19-.469 5.18.813.812 2.438.624 4.438-.436zm12.16704-12.507c.0049-.01134.0099-.02268.015-.034.75-1.622.813-2.994.125-3.806-.869-.868-2.54-.75-4.522.168 1.8197.71723 3.3574 2.0058 4.382 3.672zm-3.609 3.46v-.061c-.125-2.06-1.75-3.62-3.75-3.62-2.125 0-3.93604 1.685-4.06104 3.62v.062h7.81104z" /></svg>