<svg fill="currentColor" height="24" viewBox="0 0 24 24" width="24" xmlns="http://www.w3.org/2000/svg"><path d="m21 15v3h3v2h-3v3h-2v-3h-3v-2h3v-3zm.008-12c.548 0 .992.445.992.993v9.007h-2v-8h-16v13.999l10-9.999 3 3v2.829l-3-3-7.173 7.171h7.173v2h-11.008c-.26319-.0003-.5155-.105-.70151-.2912s-.29049-.4386-.29049-.7018v-16.014c.00183-.26262.1069-.51398.29251-.69978.18562-.1858.43687-.29113.69949-.29322zm-13.008 4c.53043 0 1.03914.21071 1.41421.58579.37508.37507.58579.88378.58579 1.41421s-.21071 1.0391-.58579 1.4142c-.37507.3751-.88378.5858-1.41421.5858s-1.03914-.2107-1.41421-.5858c-.37508-.3751-.58579-.88377-.58579-1.4142s.21071-1.03914.58579-1.41421c.37507-.37508.88378-.58579 1.41421-.58579z" /></svg>