<svg fill="currentColor" height="24" viewBox="0 0 24 24" width="24" xmlns="http://www.w3.org/2000/svg"><path d="m5 11.1 2-2 5.5 5.5 3.5-3.5 3 3v-9.1h-14zm0 2.829v5.071h3.1l2.986-2.985-4.086-4.086zm5.929 5.071h8.071v-2.071l-3-3zm-6.929-16h16c.2652 0 .5196.10536.7071.29289.1875.18754.2929.44189.2929.70711v16c0 .2652-.1054.5196-.2929.7071s-.4419.2929-.7071.2929h-16c-.26522 0-.51957-.1054-.70711-.2929-.18753-.1875-.29289-.4419-.29289-.7071v-16c0-.26522.10536-.51957.29289-.70711.18754-.18753.44189-.29289.70711-.29289zm11.5 7c-.3978 0-.7794-.15804-1.0607-.43934s-.4393-.66284-.4393-1.06066.158-.77936.4393-1.06066.6629-.43934 1.0607-.43934.7794.15804 1.0607.43934.4393.66284.4393 1.06066-.158.77936-.4393 1.06066-.6629.43934-1.0607.43934z" /></svg>