<svg fill="currentColor" height="24" viewBox="0 0 24 24" width="24" xmlns="http://www.w3.org/2000/svg"><path d="m4.828 21-.02.02-.021-.02h-1.795c-.26319-.0003-.5155-.105-.70151-.2912s-.29049-.4386-.29049-.7018v-16.014c.00183-.26262.1069-.51398.29251-.69978.18562-.1858.43687-.29113.69949-.29322h18.016c.548 0 .992.445.992.993v16.014c-.0018.2626-.1069.514-.2925.6998s-.4369.2911-.6995.2932zm15.172-6v-10h-16v14l10-10zm0 2.828-6-6-7.172 7.172h13.172zm-12-6.828c-.53043 0-1.03914-.2107-1.41421-.5858-.37508-.3751-.58579-.88377-.58579-1.4142s.21071-1.03914.58579-1.41421c.37507-.37508.88378-.58579 1.41421-.58579s1.03914.21071 1.41421.58579c.37508.37507.58579.88378.58579 1.41421s-.21071 1.0391-.58579 1.4142c-.37507.3751-.88378.5858-1.41421.5858z" /></svg>