<svg fill="currentColor" height="24" viewBox="0 0 24 24" width="24" xmlns="http://www.w3.org/2000/svg"><path d="m21 15v3h3v2h-3v3h-2v-3h-3v-2h3v-3zm.008-12c.548 0 .992.445.992.993v9.349c-.6424-.2269-1.3187-.3426-2-.342v-8h-16l.001 14 9.292-9.293c.172-.17252.401-.27627.6441-.29174s.4835.05841.6759.20774l.093.085 3.546 3.55c-.7754.2363-1.4948.6271-2.1151 1.149-.6202.5218-1.1283 1.1639-1.4937 1.8874-.3653.7235-.5804 1.5136-.6321 2.3225-.0518.8089.0608 1.6199.3309 2.3841l-11.35-.001c-.26319-.0003-.5155-.105-.70151-.2912s-.29049-.4386-.29049-.7018v-16.014c.00183-.26262.1069-.51398.29251-.69978.18562-.1858.43687-.29113.69949-.29322zm-13.008 4c.53043 0 1.03914.21071 1.41421.58579.37508.37507.58579.88378.58579 1.41421s-.21071 1.0391-.58579 1.4142c-.37507.3751-.88378.5858-1.41421.5858s-1.03914-.2107-1.41421-.5858c-.37508-.3751-.58579-.88377-.58579-1.4142s.21071-1.03914.58579-1.41421c.37507-.37508.88378-.58579 1.41421-.58579z" /></svg>