<svg fill="currentColor" height="24" viewBox="0 0 24 24" width="24" xmlns="http://www.w3.org/2000/svg"><path d="m9 2v2h-4l-.001 10h14l.001-10h-4v-2h5c.2652 0 .5196.10536.7071.29289.1875.18754.2929.44189.2929.70711v18c0 .2652-.1054.5196-.2929.7071s-.4419.2929-.7071.2929h-16c-.26522 0-.51957-.1054-.70711-.2929-.18753-.1875-.29289-.4419-.29289-.7071v-18c0-.26522.10536-.51957.29289-.70711.18754-.18753.44189-.29289.70711-.29289zm9.999 14h-14l.001 4h14zm-1.999 1v2h-2v-2zm-4-15v5h3l-4 4-4-4h3v-5z" /></svg>