<svg fill="currentColor" height="24" viewBox="0 0 24 24" width="24" xmlns="http://www.w3.org/2000/svg"><path d="m12 2c2.717 0 3.056.01 4.122.06 1.065.05 1.79.217 2.428.465.66.254 1.216.598 1.772 1.153.5085.4999.902 1.10459 1.153 1.772.247.637.415 1.363.465 2.428.047 1.066.06 1.405.06 4.122s-.01 3.056-.06 4.122c-.05 1.065-.218 1.79-.465 2.428-.2503.6678-.6439 1.2726-1.153 1.772-.5.5083-1.1047.9018-1.772 1.153-.637.247-1.363.415-2.428.465-1.066.047-1.405.06-4.122.06s-3.056-.01-4.122-.06c-1.065-.05-1.79-.218-2.428-.465-.66767-.2505-1.27247-.6441-1.772-1.153-.50859-.4998-.90207-1.1045-1.153-1.772-.248-.637-.415-1.363-.465-2.428-.047-1.066-.06-1.405-.06-4.122s.01-3.056.06-4.122.217-1.79.465-2.428c.25024-.66782.6438-1.27268 1.153-1.772.49967-.50877 1.10443-.90227 1.772-1.153.638-.248 1.362-.415 2.428-.465 1.066-.047 1.405-.06 4.122-.06zm0 5c-1.3261 0-2.59785.52678-3.53553 1.46447-.93769.93768-1.46447 2.20943-1.46447 3.53553s.52678 2.5979 1.46447 3.5355c.93768.9377 2.20943 1.4645 3.53553 1.4645s2.5979-.5268 3.5355-1.4645c.9377-.9376 1.4645-2.2094 1.4645-3.5355s-.5268-2.59785-1.4645-3.53553c-.9376-.93769-2.2094-1.46447-3.5355-1.46447zm6.5-.25c0-.33152-.1317-.64946-.3661-.88388s-.5524-.36612-.8839-.36612-.6495.1317-.8839.36612-.3661.55236-.3661.88388.1317.64946.3661.88388.5524.36612.8839.36612.6495-.1317.8839-.36612.3661-.55236.3661-.88388zm-6.5 2.25c.7956 0 1.5587.31607 2.1213.87868.5626.56262.8787 1.32572.8787 2.12132s-.3161 1.5587-.8787 2.1213-1.3257.8787-2.1213.8787-1.5587-.3161-2.12132-.8787c-.56261-.5626-.87868-1.3257-.87868-2.1213s.31607-1.5587.87868-2.12132c.56262-.56261 1.32572-.87868 2.12132-.87868z" /></svg>