<svg fill="currentColor" height="24" viewBox="0 0 24 24" width="24" xmlns="http://www.w3.org/2000/svg"><path d="m4 3h16c.2652 0 .5196.10536.7071.29289.1875.18754.2929.44189.2929.70711v16c0 .2652-.1054.5196-.2929.7071s-.4419.2929-.7071.2929h-16c-.26522 0-.51957-.1054-.70711-.2929-.18753-.1875-.29289-.4419-.29289-.7071v-16c0-.26522.10536-.51957.29289-.70711.18754-.18753.44189-.29289.70711-.29289zm1 2v14h14v-14zm1.988 9.065.77-3.271h-1.194l.362-1.39h2.868l-1.132 4.67c-.06375.235-.09933.4766-.106.72 0 .298.141.386.362.437.135.032 1.208.01 1.791-1.34l.744-3.097h-1.208l.363-1.39h2.58l-.331 1.578c.452-.88 1.358-1.715 2.248-1.715.95 0 1.736.704 1.736 2.055 0 .345-.046.721-.166 1.145l-.483 1.805c-.0438.1589-.0693.3223-.076.487 0 .314.121.47.347.47.227 0 .514-.172.846-1.13l.664.267c-.393 1.429-1.102 2.025-1.993 2.025-1.041 0-1.539-.643-1.539-1.523 0-.25.03-.518.106-.785l.498-1.853c.06-.204.075-.392.075-.565 0-.596-.347-.958-.905-.958-.71 0-1.178.53-1.419 1.55l-.966 4.032h-1.69l.303-1.267c-.497.85-1.187 1.375-2.038 1.375-1.026 0-1.509-.615-1.509-1.542 0-.235.03-.523.09-.79zm1.637-5.44c-.29837 0-.58452-.11853-.7955-.3295-.21097-.21098-.3295-.49713-.3295-.7955s.11853-.58452.3295-.7955c.21098-.21097.49713-.3295.7955-.3295s.58452.11853.7955.3295c.21097.21098.3295.49713.3295.7955s-.11853.58452-.3295.7955c-.21098.21097-.49713.3295-.7955.3295z" /></svg>