<svg fill="currentColor" height="24" viewBox="0 0 24 24" width="24" xmlns="http://www.w3.org/2000/svg"><path d="m4 3h16c.2652 0 .5196.10536.7071.29289.1875.18754.2929.44189.2929.70711v16c0 .2652-.1054.5196-.2929.7071s-.4419.2929-.7071.2929h-16c-.26522 0-.51957-.1054-.70711-.2929-.18753-.1875-.29289-.4419-.29289-.7071v-16c0-.26522.10536-.51957.29289-.70711.18754-.18753.44189-.29289.70711-.29289zm2.988 11.065c-.06.267-.09.555-.09.79 0 .927.482 1.542 1.508 1.542.851 0 1.541-.526 2.038-1.375l-.303 1.267h1.69l.966-4.031c.241-1.02.71-1.55 1.419-1.55.558 0 .905.36.905.957 0 .173-.015.361-.075.565l-.498 1.853c-.0712.2556-.1069.5197-.106.785 0 .88.498 1.523 1.54 1.523.89 0 1.6-.596 1.992-2.025l-.664-.267c-.332.958-.62 1.13-.846 1.13s-.347-.156-.347-.47c0-.141.03-.298.076-.487l.483-1.805c.12-.424.166-.8.166-1.145 0-1.35-.785-2.055-1.736-2.055-.89 0-1.796.835-2.248 1.715l.331-1.579h-2.58l-.363 1.39h1.208l-.744 3.098c-.583 1.35-1.656 1.372-1.79 1.34-.222-.051-.363-.139-.363-.438 0-.172.03-.42.106-.718l1.132-4.672h-2.868l-.362 1.39h1.192l-.77 3.272zm1.637-5.44c.29837 0 .58452-.11853.7955-.3295.21097-.21098.3295-.49713.3295-.7955s-.11853-.58452-.3295-.7955c-.21098-.21097-.49713-.3295-.7955-.3295s-.58452.11853-.7955.3295c-.21097.21098-.3295.49713-.3295.7955s.11853.58452.3295.7955c.21098.21097.49713.3295.7955.3295z" /></svg>