<svg fill="currentColor" height="24" viewBox="0 0 24 24" width="24" xmlns="http://www.w3.org/2000/svg"><path d="m5.678 18.123c-2.586-1.557-4.178-4.011-4.178-6.718 0-4.704 4.748-8.405 10.5-8.405s10.5 3.701 10.5 8.405-4.748 8.405-10.5 8.405c-.442 0-.882-.022-1.318-.065l-3.765 2.458c-.615.326-.957.425-1.485.066-.62-.424-.596-.892-.381-1.56zm-2.178-6.718c0 2.132 1.418 4.123 3.781 5.32l.706.359-.186.77-.401 1.648 2.8-1.83.366.046c.473.061.952.092 1.434.092 4.741 0 8.5-2.93 8.5-6.405s-3.759-6.405-8.5-6.405-8.5 2.93-8.5 6.405zm14.407-.346 1.514 2.155c.0357.0508.061.108.0745.1686.0135.0605.015.1231.0043.1842s-.0333.1195-.0666.1719c-.0332.0523-.0764.0976-.1272.1333s-.108.061-.1686.0745c-.0605.0135-.1231.015-.1842.0043s-.1195-.0333-.1719-.0666c-.0523-.0332-.0976-.0764-.1333-.1272l-1.428-2.033-.427.413v1.363c0 .1252-.0497.2452-.1382.3338-.0886.0885-.2086.1382-.3338.1382s-.2452-.0497-.3338-.1382c-.0885-.0886-.1382-.2086-.1382-.3338v-1.439c-.0177-.0729-.0177-.1491 0-.222v-2.557c0-.12518.0497-.24524.1382-.33375.0886-.08852.2086-.13825.3338-.13825s.2452.04973.3338.13825c.0885.08851.1382.20857.1382.33375v1.542l1.928-1.866c.0908-.08187.2099-.12529.3321-.12111s.2381.05563.3231.14352c.085.08788.1326.20534.1328.32763.0001.12229-.0472.23987-.132.32796zm-2.958 1.925c.1252 0 .2452.0497.3338.1382.0885.0886.1382.2086.1382.3338s-.0497.2452-.1382.3338c-.0886.0885-.2086.1382-.3338.1382h-1.932c-.125-.0003-.2448-.0501-.3331-.1386s-.1379-.2084-.1379-.3334v-4.159c-.0029-.06375.0071-.12742.0295-.18719.0223-.05976.0566-.11437.1007-.16051.044-.04615.097-.08289.1557-.10798.0586-.0251.1218-.03804.1856-.03804s.127.01294.1856.03804c.0587.02509.1117.06183.1557.10798.0441.04614.0784.10075.1007.16051.0224.05977.0324.12344.0295.18719v3.687zm-5.857-1.092h1.334l-.638-1.707zm2.523.488.345.925c.0238.0585.0357.1212.0348.1843-.0008.0632-.0143.1255-.0397.1834-.0253.0578-.062.11-.1079.1534-.0459.0433-.1001.0771-.1592.0992-.0592.0221-.1222.0321-.1853.0293-.0631-.0027-.125-.018-.1821-.0451-.0571-.027-.1081-.0653-.1501-.1124-.042-.0472-.0742-.1023-.0945-.1621l-.298-.799h-2.07l-.331.813c-.02344.0574-.05796.1096-.10157.1536-.04362.0441-.09549.0791-.15264.1031-.05716.024-.11848.0365-.18047.0368s-.12343-.0116-.18082-.035-.1096-.058-.15365-.1016c-.04404-.0436-.07907-.0955-.10307-.1526-.02401-.0572-.03652-.1185-.03682-.1805-.00031-.062.0116-.1234.03504-.1808l1.66-4.075c.05063-.13217.14035-.24576.2572-.32562s.25527-.12221.3968-.12138c.14033.0058.2756.0543.3876.13899.112.0847.1956.20158.2394.33501l1.046 2.8c.0814.0867.1268.2011.127.32zm-3.322-3.078c0 .26-.21.472-.471.472h-1.14v3.736c0 .1253-.04978.2455-.13839.3341s-.2088.1384-.33411.1384-.2455-.0498-.33411-.1384-.13839-.2088-.13839-.3341v-3.736h-1.16c-.12518 0-.24524-.04973-.33375-.13825-.08852-.08851-.13825-.20857-.13825-.33375s.04973-.24524.13825-.33375c.08851-.08852.20857-.13825.33375-.13825h3.245c.26 0 .471.211.471.472z" /></svg>