<svg fill="currentColor" height="24" viewBox="0 0 24 24" width="24" xmlns="http://www.w3.org/2000/svg"><path d="m12 3c5.799 0 10.5 3.664 10.5 8.185 0 4.52-4.701 8.184-10.5 8.184-.5774.0003-1.1543-.0364-1.727-.11l-4.408 2.883c-.501.265-.678.236-.472-.413l.892-3.678c-2.88-1.46-4.785-3.99-4.785-6.866 0-4.52 4.701-8.185 10.5-8.185zm5.907 8.06 1.47-1.424c.0848-.08809.1321-.20567.132-.32796-.0002-.12229-.0478-.23975-.1328-.32763-.085-.08789-.2009-.13934-.3231-.14352s-.2413.03924-.3321.12111l-1.928 1.866v-1.542c0-.12518-.0497-.24524-.1382-.33375-.0886-.08852-.2086-.13825-.3338-.13825s-.2452.04973-.3338.13825c-.0885.08851-.1382.20857-.1382.33375v2.557c-.0177.0729-.0177.1491 0 .222v1.439c0 .1252.0497.2452.1382.3338.0886.0885.2086.1382.3338.1382s.2452-.0497.3338-.1382c.0885-.0886.1382-.2086.1382-.3338v-1.363l.427-.413 1.428 2.033c.0357.0508.081.094.1333.1272.0524.0333.1108.0559.1719.0666s.1237.0092.1842-.0043c.0606-.0135.1178-.0388.1686-.0745s.094-.081.1272-.1333c.0333-.0524.0559-.1108.0666-.1719s.0092-.1237-.0043-.1842c-.0135-.0606-.0388-.1178-.0745-.1686l-1.514-2.155zm-2.958 1.924h-1.46v-3.687c-.0056-.12129-.0577-.23577-.1455-.31963s-.2046-.13065-.326-.13065-.2382.04679-.326.13065-.1399.19834-.1455.31963v4.159c0 .26.21.472.471.472h1.932c.1252 0 .2452-.0497.3338-.1382.0885-.0886.1382-.2086.1382-.3338s-.0497-.2452-.1382-.3338c-.0886-.0885-.2086-.1382-.3338-.1382zm-5.857-1.092.696-1.707.638 1.707zm2.523.488.002-.016c-.0002-.1189-.0456-.2333-.127-.32l-1.046-2.8c-.0438-.13343-.1274-.25031-.2394-.33501-.112-.08469-.24727-.13319-.3876-.13899-.14136-.00062-.27956.04182-.39621.12167s-.20622.19332-.25679.32533l-1.661 4.075c-.02344.0574-.03535.1188-.03504.1808.0003.062.01281.1233.03682.1805.024.0571.05903.109.10307.1526.04405.0436.09626.0782.15365.1016s.11883.0353.18082.035.12331-.0128.18047-.0368c.05715-.024.10902-.059.15264-.1031.04361-.044.07813-.0962.10157-.1536l.33-.813h2.07l.299.8c.0203.0598.0525.1149.0945.1621.042.0471.093.0854.1501.1124.0571.0271.119.0424.1821.0452.0631.0027.1261-.0073.1853-.0294.0591-.0221.1133-.0559.1592-.0992.0459-.0434.0826-.0956.1079-.1534.0254-.0579.0389-.1202.0397-.1834.0009-.0631-.011-.1258-.0348-.1843zm-3.322-3.078c0-.12501-.04959-.24491-.13789-.3334s-.2081-.13834-.33311-.1386h-3.245c-.12518 0-.24524.04973-.33375.13825-.08852.08851-.13825.20857-.13825.33375s.04973.24524.13825.33375c.08851.08852.20857.13825.33375.13825h1.16v3.736c0 .1252.04973.2452.13825.3338.08851.0885.20857.1382.33375.1382s.24524-.0497.33375-.1382c.08852-.0886.13825-.2086.13825-.3338v-3.736h1.14c.261 0 .472-.212.472-.472z" /></svg>