<svg fill="currentColor" height="24" viewBox="0 0 24 24" width="24" xmlns="http://www.w3.org/2000/svg"><path d="m12.917 13.0001c-.2547 1.4801-1.0551 2.8109-2.2431 3.7297-1.18797.9188-2.67724 1.3588-4.17381 1.2332s-2.89168-.8076-3.90993-1.9116c-1.01825-1.1039-1.58564-2.5495-1.59016-4.0513-.001371-1.5054.56319-2.95628 1.58168-4.06483s2.41648-1.79374 3.9166-1.91962 2.99275.31675 4.18172 1.24006c1.189.92331 1.9875 2.25984 2.237 3.74439h10.083v2h-2v4h-2v-4h-2v4h-2v-4zm-5.917 3c1.06087 0 2.07828-.4214 2.82843-1.1716.75017-.7501 1.17157-1.7675 1.17157-2.8284s-.4214-2.07827-1.17157-2.82841c-.75015-.75015-1.76756-1.17157-2.82843-1.17157-1.06086 0-2.07828.42142-2.82842 1.17157-.75015.75014-1.17158 1.76751-1.17158 2.82841s.42143 2.0783 1.17158 2.8284c.75014.7502 1.76756 1.1716 2.82842 1.1716z" /></svg>