<svg fill="currentColor" height="24" viewBox="0 0 24 24" width="24" xmlns="http://www.w3.org/2000/svg"><path d="m10.7583 11.828 7.849-7.849 1.414 1.414-1.414 1.415 2.474 2.474-1.414 1.415-2.475-2.475-1.414 1.414 2.121 2.121-1.414 1.415-2.121-2.122-2.192 2.192c.6804 1.034.9533 2.2836.7659 3.5071-.1874 1.2236-.8219 2.3341-1.7806 3.117-.9588.7829-2.17383 1.1825-3.41014 1.1215-1.23631-.0609-2.4061-.5782-3.28318-1.4516-.87897-.8757-1.40097-2.0469-1.46454-3.286-.06358-1.2391.33582-2.4575 1.12055-3.4186.78474-.961 1.89876-1.596 3.12555-1.7814s2.47871.0919 3.51246.778zm-.637 6.293c.2913-.2755.5244-.6067.6856-.9739.1611-.3672.247-.7629.2526-1.1639.0056-.4009-.0693-.7989-.2202-1.1704-.1508-.3716-.3747-.7091-.6582-.9926-.28355-.2835-.62105-.5074-.99258-.6582-.37152-.1509-.76952-.2258-1.17046-.2202-.40095.0056-.79671.0915-1.1639.2526-.36718.1612-.69833.3943-.97388.6856-.54647.5658-.84885 1.3236-.84202 2.1102.00684.7866.32234 1.539.87857 2.0953.55622.5562 1.30866.8717 2.09525.8785.78659.0069 1.5444-.2955 2.11022-.842z" /></svg>