<svg fill="currentColor" height="24" viewBox="0 0 24 24" width="24" xmlns="http://www.w3.org/2000/svg"><path d="m16.9998 14h-4.341c-.4718 1.3344-1.4001 2.4591-2.621 3.1753-1.22077.7161-2.65547.9776-4.05046.7383s-2.66046-.9641-3.57274-2.0463c-.91229-1.0821-1.41265-2.4519-1.41265-3.8673s.50036-2.78517 1.41265-3.86731c.91228-1.08214 2.17775-1.80693 3.57274-2.04627s2.82969.02218 4.05046.73833c1.2209.71615 2.1492 1.84083 2.621 3.17525h10.341v4h-2v4h-4zm-9.99999 0c.53043 0 1.03914-.2107 1.41421-.5858.37507-.375.58579-.8838.58579-1.4142s-.21072-1.0391-.58579-1.4142-.88378-.5858-1.41421-.5858c-.53044 0-1.03914.2107-1.41422.5858-.37507.3751-.58578.8838-.58578 1.4142s.21071 1.0392.58578 1.4142c.37508.3751.88378.5858 1.41422.5858z" /></svg>