<svg fill="currentColor" height="24" viewBox="0 0 24 24" width="24" xmlns="http://www.w3.org/2000/svg"><path d="m10.3134 11.566 7.94-7.94002 2.121 2.121-1.414 1.414 2.121 2.121-3.535 3.53602-2.121-2.121-2.99 2.99c.5505 1.0593.7041 2.2805.4328 3.4432-.2712 1.1626-.9493 2.1898-1.9117 2.8962-.9625.7063-2.14585 1.0451-3.33628.9551-1.19043-.0899-2.30945-.6026-3.15487-1.4455-.84584-.8445-1.36118-1.9641-1.45264-3.1558-.09145-1.1918.24703-2.3768.95412-3.3405s1.736-1.6421 2.90027-1.9125 2.38687-.1147 3.4463.4388zm-.89905 5.848c.19102-.1845.34339-.4052.44821-.6492.10481-.244.15994-.5065.16234-.772.0023-.2656-.04834-.5289-.1489-.7747s-.24907-.4691-.43686-.6569c-.18778-.1878-.41109-.3363-.65688-.4369-.24579-.1005-.50915-.1511-.77471-.1488s-.528.0575-.77201.1623c-.244.1048-.46469.2572-.64919.4482-.36431.3772-.5659.8824-.56134 1.4068.00455.5244.21489 1.026.58571 1.3968.37081.3708.87244.5812 1.39683.5857.52439.0046 1.0296-.197 1.4068-.5613z" /></svg>