<svg fill="currentColor" height="24" viewBox="0 0 24 24" width="24" xmlns="http://www.w3.org/2000/svg"><path d="m4.34159 1.4082 18.03101 18.032c.2814.2813.4395.6628.4396 1.0607.0001.3978-.1578.7794-.4391 1.0608s-.6628.4395-1.0607.4396c-.3978.0001-.7794-.1578-1.0608-.4391l-4.596-4.597-3.536 3.535-7.77801-7.778c-1.46993-1.4697-2.31009-3.45386-2.34257-5.53225-.03247-2.07839.74528-4.08782 2.16857-5.60275zm.241 3.07-.051.11c-.48491 1.07206-.64419 2.26295-.45805 3.42476.18613 1.16181.70949 2.24334 1.50505 3.11024l.177.185 6.36301 6.363 2.829-2.828z" /></svg>