<svg fill="currentColor" height="24" viewBox="0 0 24 24" width="24" xmlns="http://www.w3.org/2000/svg"><path d="m4.34163 1.4082 18.03097 18.032c.2814.2813.4396.6628.4397 1.0607 0 .3978-.1579.7794-.4392 1.0608-.2812.2814-.6628.4395-1.0606.4396-.3979.0001-.7795-.1578-1.0609-.4391l-4.596-4.597-3.536 3.535-4.11997-4.12v2.62c0 .2652-.10536.5196-.2929.7071-.18753.1875-.44189.2929-.7071.2929-.26522 0-.51957-.1054-.70711-.2929-.18753-.1875-.29289-.4419-.29289-.7071v-4c-.00028-.2549-.09788-.5-.27285-.6854-.17497-.1853-.4141-.2968-.66855-.3118-.25444-.0149-.50498.0679-.70043.2315-.19546.1636-.32107.3956-.35117.6487l-.007.117v1c0 .2652-.10536.5196-.29289.7071-.18754.1875-.4419.2929-.70711.2929-.26522 0-.51957-.1054-.70711-.2929s-.29289-.4419-.29289-.7071v-8.786c-.04154-2.0871.73681-4.10731 2.168-5.627z" /></svg>