<svg fill="currentColor" height="24" viewBox="0 0 24 24" width="24" xmlns="http://www.w3.org/2000/svg"><path d="m21 3v2c0 9.627-5.373 14-12 14h-3.757c-.163.912-.243 1.907-.243 3h-2c0-1.363.116-2.6.346-3.732-.23-1.294-.346-3.05-.346-5.268 0-5.523 4.477-10 10-10 2 0 4 1 8 0zm-8 2c-4.418 0-8 3.582-8 8 0 .362.003.711.01 1.046 1.254-1.978 3.091-3.541 5.494-4.914l.992 1.736c-2.855 1.632-4.749 3.486-5.72 6.132h3.224c6.015 0 9.871-3.973 9.997-11.612-1.372.133-2.647.048-4.22-.188-1.15-.173-1.376-.2-1.777-.2z" /></svg>