<svg fill="currentColor" height="24" viewBox="0 0 24 24" width="24" xmlns="http://www.w3.org/2000/svg"><path d="m12 2c5.523 0 10 4.477 10 10s-4.477 10-10 10-10-4.477-10-10 4.477-10 10-10zm-4.803 12.682-2.175 2.174c.50446.7229 1.11771 1.3635 1.818 1.899l.305.223 2.173-2.175c-.80719-.4521-1.488-1.0995-1.98-1.883l-.14-.238zm9.606 0c-.4521.8072-1.0995 1.488-1.883 1.98l-.238.14 2.174 2.176c.7229-.5045 1.3635-1.1177 1.899-1.818l.223-.304zm-4.803-6.682c-1.0609 0-2.07828.42143-2.82843 1.17157-.75014.75015-1.17157 1.76753-1.17157 2.82843s.42143 2.0783 1.17157 2.8284c.75015.7502 1.76753 1.1716 2.82843 1.1716s2.0783-.4214 2.8284-1.1716c.7502-.7501 1.1716-1.7675 1.1716-2.8284s-.4214-2.07828-1.1716-2.82843c-.7501-.75014-1.7675-1.17157-2.8284-1.17157zm-4.855-2.978c-.7233.50438-1.36422 1.11764-1.9 1.818l-.223.305 2.175 2.173c.45206-.80719 1.09951-1.488 1.883-1.98l.238-.14zm9.71 0-2.173 2.175c.8072.45206 1.488 1.09951 1.98 1.883l.14.238 2.176-2.173c-.5044-.7233-1.1176-1.36422-1.818-1.9l-.304-.223z" /></svg>