<svg fill="currentColor" height="24" viewBox="0 0 24 24" width="24" xmlns="http://www.w3.org/2000/svg"><path d="m12 2c5.523 0 10 4.477 10 10s-4.477 10-10 10-10-4.477-10-10 4.477-10 10-10zm0 15c-.6256.0007-1.2457-.1164-1.828-.345l-2.236 2.237c1.23065.7274 2.6344 1.1102 4.064 1.108 1.4296.0022 2.8333-.3806 4.064-1.108l-2.236-2.237c-.5823.2286-1.2024.3457-1.828.345zm-8-5c0 1.484.404 2.873 1.108 4.064l2.237-2.236c-.22864-.5823-.34567-1.2024-.345-1.828 0-.645.122-1.261.345-1.828l-2.237-2.236c-.72743 1.23065-1.11016 2.6344-1.108 4.064zm14.892-4.064-2.237 2.236c.223.567.345 1.183.345 1.828s-.122 1.261-.345 1.828l2.237 2.236c.7274-1.2307 1.1102-2.6344 1.108-4.064.0022-1.4296-.3806-2.83335-1.108-4.064zm-6.892 1.064c-.7956 0-1.5587.31607-2.12132.87868-.56261.56262-.87868 1.32572-.87868 2.12132s.31607 1.5587.87868 2.1213c.56262.5626 1.32572.8787 2.12132.8787s1.5587-.3161 2.1213-.8787.8787-1.3257.8787-2.1213-.3161-1.5587-.8787-2.12132c-.5626-.56261-1.3257-.87868-2.1213-.87868zm0-5c-1.4296-.00216-2.83335.38057-4.064 1.108l2.236 2.237c.5823-.22864 1.2024-.34567 1.828-.345.645 0 1.261.122 1.828.345l2.236-2.237c-1.2307-.72743-2.6344-1.11016-4.064-1.108z" /></svg>