<svg fill="currentColor" height="24" viewBox="0 0 24 24" width="24" xmlns="http://www.w3.org/2000/svg"><path d="m11.0002 18h-3.059c-.297-1.273-1.637-2.314-2.187-3-.94181-1.1767-1.53205-2.5956-1.70273-4.0931-.17069-1.49746.08513-3.01272.73799-4.37118.65285-1.35847 1.67618-2.50487 2.9521-3.30716s2.75254-1.22782 4.25974-1.22758 2.9837.42624 4.2593 1.22894c1.2757.8027 2.2986 1.94943 2.9511 3.30811.6524 1.35867.9077 2.87401.7365 4.37147-.1711 1.4974-.7618 2.9161-1.704 4.0925-.55.685-1.888 1.726-2.185 2.998h-3.059v-5h-2zm5 2v1c0 .5304-.2107 1.0391-.5858 1.4142s-.8838.5858-1.4142.5858h-4c-.53043 0-1.03914-.2107-1.41421-.5858s-.58579-.8838-.58579-1.4142v-1z" /></svg>