<svg fill="currentColor" height="24" viewBox="0 0 24 24" width="24" xmlns="http://www.w3.org/2000/svg"><path d="m9.9732 18h4.054c.132-1.202.745-2.194 1.74-3.277.113-.122.832-.867.917-.973.7063-.8824 1.149-1.9463 1.2771-3.0693.1282-1.12289-.0635-2.25919-.5528-3.27799-.4894-1.01879-1.2566-1.87865-2.2132-2.48056-.9566-.6019-2.0638-.92137-3.194-.92161s-2.23756.31875-3.19444.92025c-.95687.60149-1.7244 1.46103-2.21419 2.47961-.48979 1.01859-.68193 2.15481-.55427 3.2778.12765 1.123.56989 2.1871 1.2758 3.0698.086.107.807.853.918.974.996 1.084 1.609 2.076 1.741 3.278zm4.027 2h-4v1h4zm-8.246-5c-.94181-1.1767-1.53205-2.5956-1.70273-4.0931-.17069-1.49746.08513-3.01272.73799-4.37118.65285-1.35847 1.67618-2.50487 2.9521-3.30716s2.75254-1.22782 4.25974-1.22758 2.9837.42624 4.2593 1.22894c1.2757.8027 2.2986 1.94943 2.9511 3.30811.6524 1.35867.9077 2.87401.7365 4.37147-.1711 1.4974-.7618 2.9161-1.704 4.0925-.62.772-2.244 1.998-2.244 3.498v2.5c0 .5304-.2107 1.0391-.5858 1.4142s-.8838.5858-1.4142.5858h-4c-.53043 0-1.03914-.2107-1.41421-.5858s-.58579-.8838-.58579-1.4142v-2.5c0-1.5-1.625-2.726-2.246-3.5zm7.246-4.996h2.5l-4.5 6v-4h-2.5l4.5-6.00403v4.00503z" /></svg>