<svg fill="currentColor" height="24" viewBox="0 0 24 24" width="24" xmlns="http://www.w3.org/2000/svg"><path d="m22 10.118c0 1.787-.687 3.4-2.123 4.974-2.1 2.414-6.788 5.363-7.864 5.812-1.074.451-.911-.287-.874-.537l.137-.85c.034-.262.068-.65-.032-.9-.112-.277-.556-.424-.881-.492-4.805-.638-8.363-3.997-8.363-8.007 0-4.475 4.487-8.118 10-8.118 5.512 0 10 3.643 10 8.118zm-3.6 3.625c1.113-1.22 1.6-2.361 1.6-3.625 0-3.268-3.51-6.118-8-6.118s-8 2.85-8 6.118c0 2.905 2.728 5.507 6.626 6.024l.147.026c1.078.226 1.884.614 2.329 1.708l.036.096c1.806-1.176 4.174-2.98 5.261-4.229zm-.262-4c.1336.00825.2591.06716.3508.16471.0917.09759.1428.22639.1428.36029s-.0511.2627-.1428.3603c-.0917.0975-.2172.1564-.3508.1647h-1.463v.938h1.462c.0708-.0031.1415.0082.2078.0331.0664.025.127.0631.1781.1122.0512.049.092.1078.1198.173.0279.0652.0422.1353.0422.2062s-.0143.141-.0422.2062c-.0278.0652-.0686.124-.1198.173-.0511.0491-.1117.0872-.1781.1122-.0663.0249-.137.0362-.2078.0331h-1.987c-.1385-.0011-.2709-.0567-.3687-.1548-.0977-.0981-.1528-.2307-.1533-.3692v-3.976c0-.287.235-.525.525-.525h1.988c.1392.0004.2726.05609.3708.15483s.1531.23243.1527.37167-.0561.27262-.1548.37079c-.0988.09818-.2325.15311-.3717.15271h-1.462v.938zm-3.213 2.513c-.0003.0688-.0141.1369-.0407.2004-.0265.0634-.0653.1211-.1142.1695-.0488.0485-.1067.0869-.1704.113s-.1319.0394-.2007.0391c-.0823.0018-.1639-.0161-.2378-.0523s-.1381-.0896-.1872-.1557l-2.036-2.764v2.45c-.01.132-.0695.2553-.1666.3453-.097.09-.2245.14-.3569.14s-.2599-.05-.3569-.14c-.0971-.09-.1566-.2133-.1666-.3453v-3.976c-.0003-.13827.0543-.271.1518-.36905s.2299-.15342.3682-.15395c.162 0 .312.086.412.211l2.052 2.775v-2.463c0-.287.235-.525.525-.525.287 0 .525.238.525.525zm-4.784 0c-.0008.1391-.0565.2722-.15506.3704-.09853.0981-.23186.1533-.37094.1536-.13864-.0008-.27136-.0563-.3693-.1544s-.15318-.231-.1537-.3696v-3.976c0-.287.236-.525.525-.525s.524.238.524.525zm-2.055.524h-1.989c-.13882-.0008-.27175-.0562-.37001-.1543s-.15394-.2309-.15499-.3697v-3.976c.01147-.13133.07175-.25359.16894-.34265.09719-.08907.22423-.13848.35606-.13848s.25887.04941.35606.13848c.09719.08906.15747.21132.16894.34265v3.45h1.464c.13924 0 .27277.0553.37123.1538.09846.0984.15377.232.15377.3712s-.05531.2728-.15377.3712c-.09846.0985-.23199.1538-.37123.1538z" /></svg>