<svg fill="currentColor" height="24" viewBox="0 0 24 24" width="24" xmlns="http://www.w3.org/2000/svg"><path d="m18.663 10.8398c-.0003.1393-.0558.2728-.1544.3713-.0986.0984-.2323.1537-.3716.1537h-1.462v.938h1.462c.0708-.0031.1415.0082.2078.0331.0664.025.127.0631.1781.1121.0512.049.092.1079.1198.1731.0279.0652.0422.1353.0422.2062s-.0143.141-.0422.2062c-.0278.0651-.0686.124-.1198.173-.0511.049-.1117.0872-.1781.1121-.0663.025-.137.0363-.2078.0332h-1.987c-.1385-.0011-.2709-.0567-.3687-.1548-.0977-.0981-.1528-.2308-.1533-.3692v-3.97602c0-.287.235-.525.525-.525h1.988c.1392.00039.2726.05609.3708.15483.0982.09873.1531.23243.1527.37167s-.0561.27261-.1548.37079c-.0988.09817-.2325.1531-.3717.15271h-1.462v.93802h1.462c.291 0 .526.237.526.525zm-4.098 2.485c-.0537.0169-.1097.0254-.166.025-.0823.0018-.1639-.0161-.2378-.0523s-.1381-.0896-.1872-.1557l-2.036-2.764v2.45c-.01.132-.0695.2553-.1666.3453-.097.09-.2245.14-.3569.14s-.2599-.05-.3569-.14c-.0971-.09-.1566-.2133-.1666-.3453v-3.97602c-.0003-.13827.0543-.271.1518-.36905.0975-.09806.2299-.15342.3682-.15395.162 0 .312.086.412.211l2.052 2.77502v-2.46302c0-.287.235-.525.525-.525.287 0 .525.238.525.525v3.97602c-.0001.1101-.035.2175-.0996.3067-.0647.0892-.1558.1558-.2604.1903zm-4.95.027c-.13864-.0008-.27136-.0563-.3693-.1544-.09794-.0982-.15318-.231-.1537-.3696v-3.97602c0-.287.236-.525.525-.525s.524.238.524.525v3.97602c-.0008.1391-.0565.2722-.15506.3703-.09853.0982-.23186.1534-.37094.1537zm-1.53 0h-1.987c-.13882-.0008-.27175-.0562-.37001-.1543s-.15394-.2309-.15499-.3697v-3.97602c.01147-.13133.07175-.25359.16894-.34266s.22423-.13847.35606-.13847.25887.0494.35606.13847.15747.21133.16894.34266v3.45002h1.464c.13924 0 .27277.0553.37123.1537.09846.0985.15377.232.15377.3713 0 .1392-.05531.2728-.15377.3712-.09846.0985-.23199.1538-.37123.1538zm3.915-10.78002c-5.513 0-10 3.643-10 8.11802 0 4.01 3.558 7.369 8.363 8.007.325.068.769.215.881.492.1.25.066.638.032.9l-.137.85c-.037.25-.2.988.874.537 1.076-.449 5.764-3.398 7.864-5.812 1.436-1.575 2.123-3.187 2.123-4.974 0-4.47502-4.488-8.11802-10-8.11802z" /></svg>