<svg fill="currentColor" height="24" viewBox="0 0 24 24" width="24" xmlns="http://www.w3.org/2000/svg"><path d="m12 9.55c.917-.937 2.111-1.55 3.5-1.55 1.4587 0 2.8576.57946 3.8891 1.61091 1.0314 1.03149 1.6109 2.43039 1.6109 3.88909v7.5h-2v-7.5c0-.9283-.3687-1.8185-1.0251-2.4749s-1.5466-1.0251-2.4749-1.0251-1.8185.3687-2.4749 1.0251-1.0251 1.5466-1.0251 2.4749v7.5h-2v-12.5h2zm-7-3.05c-.39782 0-.77936-.15804-1.06066-.43934s-.43934-.66284-.43934-1.06066.15804-.77936.43934-1.06066.66284-.43934 1.06066-.43934.77936.15804 1.06066.43934.43934.66284.43934 1.06066-.15804.77936-.43934 1.06066-.66284.43934-1.06066.43934zm-1 2h2v12.5h-2z" /></svg>