<svg fill="currentColor" height="24" viewBox="0 0 24 24" width="24" xmlns="http://www.w3.org/2000/svg"><path d="m18.335 18.339h-2.665v-4.177c0-.996-.02-2.278-1.39-2.278-1.389 0-1.601 1.084-1.601 2.205v4.25h-2.666v-8.589h2.56v1.17h.035c.358-.674 1.228-1.387 2.528-1.387 2.7 0 3.2 1.778 3.2 4.091v4.715zm-11.332-9.764c-.20344.00026-.40494-.03963-.59294-.11739-.18799-.07777-.35879-.19187-.5026-.33577-.14381-.14391-.25781-.31478-.33545-.50283-.07764-.18804-.11741-.38957-.11701-.59301.0002-.30617.09118-.6054.26144-.85985.17026-.25446.41215-.45272.69509-.5697s.59421-.14743.89445-.08751.57598.20753.79233.42417c.21635.21663.3636.49255.42314.79287s.02868.61155-.08867.89434c-.11734.28278-.31591.52442-.57059.69435s-.55402.26053-.86019.26033zm1.336 9.764h-2.673v-8.589h2.674v8.589zm11.331-15.339h-15.341c-.736 0-1.329.58-1.329 1.297v15.406c0 .717.594 1.297 1.328 1.297h15.338c.734 0 1.334-.58 1.334-1.297v-15.406c0-.717-.6-1.297-1.334-1.297h.003z" /></svg>