<svg fill="currentColor" height="24" viewBox="0 0 24 24" width="24" xmlns="http://www.w3.org/2000/svg"><path d="m13.0603 8.10999 1.415 1.415c.65.65001 1.1657 1.42171 1.5175 2.27101.3519.8494.533 1.7597.533 2.679s-.1811 1.8296-.533 2.6789c-.3518.8494-.8675 1.6211-1.5175 2.2711l-.354.353c-1.3129 1.3128-3.0934 2.0503-4.95004 2.0503-1.85661 0-3.63718-.7375-4.95-2.0503-1.31283-1.3128-2.05036-3.0934-2.05036-4.95s.73753-3.6372 2.05036-4.95001l1.415 1.41501c-.46763.4635-.8391 1.0149-1.09308 1.6224-.25397.6075-.38545 1.2592-.3869 1.9176-.00144.6585.12719 1.3107.3785 1.9193s.62036 1.1616 1.08596 1.6272c.46559.4656 1.01857.8346 1.62717 1.086.60861.2513 1.26086.3799 1.91931.3785.65845-.0015 1.31018-.133 1.91768-.3869.6075-.254 1.1588-.6255 1.6224-1.0931l.354-.354c.9373-.9376 1.4639-2.2092 1.4639-3.535s-.5266-2.5974-1.4639-3.535l-1.415-1.41501 1.415-1.414zm6.718 6.01101-1.414-1.414c.4676-.4636.8391-1.0149 1.093-1.6224.254-.6075.3855-1.2592.3869-1.91765.0015-.65845-.1272-1.3107-.3785-1.9193-.2513-.60861-.6203-1.16158-1.0859-1.62718s-1.0186-.83464-1.6272-1.08596c-.6086-.25131-1.2609-.37994-1.9193-.37849-.6585.00144-1.3101.13292-1.9176.3869-.6075.25397-1.1589.62544-1.6224 1.09307l-.354.354c-.9374.93764-1.46398 2.20918-1.46398 3.535 0 1.32581.52658 2.59731 1.46398 3.53501l1.415 1.415-1.415 1.414-1.41404-1.414c-.65009-.65-1.16577-1.4217-1.5176-2.2711-.35183-.8493-.53291-1.7596-.53291-2.67891 0-.91932.18108-1.82963.53291-2.67895.35183-.84933.86751-1.62103 1.5176-2.27105l.354-.353c1.31284-1.31282 3.09334-2.05036 4.95004-2.05036 1.8566 0 3.6371.73754 4.95 2.05036 1.3128 1.31282 2.0503 3.09339 2.0503 4.95s-.7375 3.63721-2.0503 4.95001z" /></svg>