<svg fill="currentColor" height="24" viewBox="0 0 24 24" width="24" xmlns="http://www.w3.org/2000/svg"><path d="m6.94043 5.00002c-.00027.53044-.21123 1.03904-.58649 1.41392-.37526.37489-.88408.58535-1.41451.58508-.53043-.00026-1.03904-.21123-1.41392-.58649-.37489-.37526-.58535-.88407-.58508-1.41451.00027-.53043.21123-1.03903.58649-1.41392.37526-.37488.88408-.58534 1.41451-.58508.53043.00027 1.03904.21124 1.41392.5865.37489.37526.58535.88407.58508 1.4145zm.06 3.48h-4v12.51998h4zm6.31997 0h-3.97997v12.51998h3.93997v-6.57c0-3.66 4.77-4 4.77 0v6.57h3.95v-7.93c0-6.16998-7.06-5.93998-8.72-2.91z" /></svg>