<svg fill="currentColor" height="24" viewBox="0 0 24 24" width="24" xmlns="http://www.w3.org/2000/svg"><path d="m2 18h7v2h-7zm0-7h9v2h-9zm0-7h20v2h-20zm18.674 9.025 1.156-.391 1 1.732-.916.805c.1153.5467.1153 1.1113 0 1.658l.916.805-1 1.732-1.156-.391c-.41.37-.898.655-1.435.83l-.239 1.195h-2l-.24-1.196c-.5307-.1734-1.0192-.4562-1.434-.83l-1.156.392-1-1.732.916-.805c-.1153-.5467-.1153-1.1113 0-1.658l-.916-.805 1-1.732 1.156.391c.41-.37.898-.655 1.435-.83l.239-1.195h2l.24 1.196c.536.174 1.024.46 1.434.83zm-2.674 4.975c.5304 0 1.0391-.2107 1.4142-.5858s.5858-.8838.5858-1.4142-.2107-1.0391-.5858-1.4142-.8838-.5858-1.4142-.5858-1.0391.2107-1.4142.5858-.5858.8838-.5858 1.4142.2107 1.0391.5858 1.4142.8838.5858 1.4142.5858z" /></svg>