<svg fill="currentColor" height="24" viewBox="0 0 24 24" width="24" xmlns="http://www.w3.org/2000/svg"><path d="m16 4c.2652 0 .5196.10536.7071.29289.1875.18754.2929.44189.2929.70711v4.2l5.213-3.65c.075-.05254.1629-.0835.2542-.0895.0914-.006.1826.0132.2638.05549.0812.0423.1492.10607.1966.18436.0475.0783.0725.16811.0724.25965v12.08c.0001.0915-.0249.1814-.0724.2596-.0474.0783-.1154.1421-.1966.1844s-.1724.0615-.2638.0555c-.0913-.006-.1792-.037-.2542-.0895l-5.213-3.65v4.2c0 .2652-.1054.5196-.2929.7071s-.4419.2929-.7071.2929h-14c-.26522 0-.51957-.1054-.70711-.2929-.18753-.1875-.29289-.4419-.29289-.7071v-14c0-.26522.10536-.51957.29289-.70711.18754-.18753.44189-.29289.70711-.29289zm-1 2h-12v12h12zm-7.6 2.829c.07611-.00021.15069.0213.215.062l4.355 2.772c.0566.0362.1031.086.1354.1449.0322.0589.0491.125.0491.1921s-.0169.1332-.0491.1921c-.0323.0589-.0788.1087-.1354.1449l-4.355 2.773c-.06066.0387-.13062.0603-.20252.0625-.07189.0023-.14307-.0149-.20602-.0497s-.11536-.086-.15169-.1481c-.03634-.062-.05526-.1328-.05477-.2047v-5.54c0-.221.18-.4.4-.4zm13.6.011-4 2.8v.718l4 2.8z" /></svg>