<svg fill="currentColor" height="24" viewBox="0 0 24 24" width="24" xmlns="http://www.w3.org/2000/svg"><path d="m16 4c.2652 0 .5196.10536.7071.29289.1875.18754.2929.44189.2929.70711v4.2l5.213-3.65c.075-.05254.1629-.0835.2542-.0895.0914-.006.1826.0132.2638.05549.0812.0423.1492.10607.1966.18436.0475.0783.0725.16811.0724.25965v12.08c.0001.0915-.0249.1814-.0724.2596-.0474.0783-.1154.1421-.1966.1844s-.1724.0615-.2638.0555c-.0913-.006-.1792-.037-.2542-.0895l-5.213-3.65v4.2c0 .2652-.1054.5196-.2929.7071s-.4419.2929-.7071.2929h-14c-.26522 0-.51957-.1054-.70711-.2929-.18753-.1875-.29289-.4419-.29289-.7071v-14c0-.26522.10536-.51957.29289-.70711.18754-.18753.44189-.29289.70711-.29289zm-8.6 4.829c-.09221-.00002-.1816.03182-.25303.09014-.07144.05831-.12053.13951-.13897.22986l-.008.079v5.542c-.00001.0648.01572.1286.04582.1859.0301.0574.07369.1066.127.1434.05332.0368.11477.0601.17908.0679.0643.0077.12954-.0002.1901-.0232l.073-.036 4.355-2.772c.0508-.0325.0936-.0761.1252-.1275s.0512-.1092.0572-.1693c.0061-.06-.0015-.1206-.0222-.1773-.0207-.0566-.0539-.1079-.0972-.1499l-.063-.05-4.355-2.772c-.06452-.04-.13909-.06081-.215-.06z" /></svg>