<svg fill="currentColor" height="24" viewBox="0 0 24 24" width="24" xmlns="http://www.w3.org/2000/svg"><path d="m12 2c.2652 0 .5196.10536.7071.29289.1875.18754.2929.44189.2929.70711v3c0 .26522-.1054.51957-.2929.70711-.1875.18753-.4419.29289-.7071.29289s-.5196-.10536-.7071-.29289c-.1875-.18754-.2929-.44189-.2929-.70711v-3c0-.26522.1054-.51957.2929-.70711.1875-.18753.4419-.29289.7071-.29289zm0 15c.2652 0 .5196.1054.7071.2929s.2929.4419.2929.7071v3c0 .2652-.1054.5196-.2929.7071s-.4419.2929-.7071.2929-.5196-.1054-.7071-.2929-.2929-.4419-.2929-.7071v-3c0-.2652.1054-.5196.2929-.7071s.4419-.2929.7071-.2929zm10-5c0 .2652-.1054.5196-.2929.7071s-.4419.2929-.7071.2929h-3c-.2652 0-.5196-.1054-.7071-.2929s-.2929-.4419-.2929-.7071.1054-.5196.2929-.7071.4419-.2929.7071-.2929h3c.2652 0 .5196.1054.7071.2929s.2929.4419.2929.7071zm-15 0c0 .2652-.10536.5196-.29289.7071-.18754.1875-.44189.2929-.70711.2929h-3c-.26522 0-.51957-.1054-.70711-.2929-.18753-.1875-.29289-.4419-.29289-.7071s.10536-.5196.29289-.7071c.18754-.1875.44189-.2929.70711-.2929h3c.26522 0 .51957.1054.70711.2929.18753.1875.29289.4419.29289.7071zm12.071 7.071c-.1875.1875-.4418.2928-.707.2928s-.5195-.1053-.707-.2928l-2.121-2.121c-.1822-.1886-.283-.4412-.2807-.7034s.1075-.513.2929-.6984.4362-.2906.6984-.2929.5148.0985.7034.2807l2.121 2.12c.093.0929.1667.2032.2171.3246.0503.1214.0762.2515.0762.3829s-.0259.2615-.0762.3829c-.0504.1214-.1241.2317-.2171.3246zm-10.607-10.607c-.18753.18747-.44184.29279-.707.29279s-.51947-.10532-.707-.29279l-2.12-2.12c-.18764-.18751-.29311-.44188-.2932-.70715-.0001-.26527.10519-.51971.2927-.70735s.44188-.29311.70715-.2932c.26527-.0001.51971.10519.70735.2927l2.12 2.121c.18747.18753.29279.44184.29279.707s-.10532.51947-.29279.707zm-3.534 10.607c-.18747-.1875-.29279-.4418-.29279-.707s.10532-.5195.29279-.707l2.121-2.121c.09225-.0955.20259-.1717.3246-.2241.122-.0524.25322-.08.386-.0812.13278-.0011.26446.0242.38735.0745.1229.0503.23455.1245.32845.2184.09389.0939.16814.2055.21842.3284s.07558.2546.07443.3874-.02874.264-.08115.386-.12859.2324-.2241.3246l-2.12 2.121c-.09287.093-.20316.1667-.32456.2171-.1214.0503-.25152.0762-.38294.0762s-.26154-.0259-.38294-.0762c-.1214-.0504-.23169-.1241-.32456-.2171zm10.606-10.607c-.1875-.18753-.2928-.44184-.2928-.707s.1053-.51947.2928-.707l2.12-2.121c.1875-.18764.4419-.29311.7071-.2932.2653-.0001.5198.10519.7074.2927s.2931.44188.2932.70715-.1052.51971-.2927.70735l-2.121 2.121c-.1875.18747-.4418.29279-.707.29279s-.5195-.10532-.707-.29279z" /></svg>