<svg fill="currentColor" height="24" viewBox="0 0 24 24" width="24" xmlns="http://www.w3.org/2000/svg"><path d="m18.364 5.63609-1.414 1.414c-1.1451-1.1452-2.6518-1.85794-4.2635-2.01676s-3.22856.24609-4.57516 1.14575-2.3396 2.2384-2.8098 3.78812c-.4702 1.5497-.38852 3.2145.23114 4.7108.61966 1.4962 1.73894 2.7313 3.16715 3.4948 1.42817.7635 3.07697 1.0082 4.66537.6924 1.5884-.3159 3.0181-1.1727 4.0456-2.4245 1.0274-1.2518 1.5891-2.8211 1.5892-4.4406h2c0 2.0822-.722 4.1-2.043 5.7095-1.3209 1.6096-3.1591 2.7113-5.2013 3.1175-2.0421.4062-4.162.0917-5.99833-.8898-1.83633-.9816-3.2755-2.5695-4.07231-4.4932s-.90195-4.0642-.2975-6.05671c.60444-1.99253 1.88107-3.71384 3.61236-4.87064 1.73129-1.15679 3.81008-1.6775 5.88228-1.47339 2.0722.2041 4.0095 1.12039 5.4818 2.59273z" /></svg>