<svg fill="currentColor" height="24" viewBox="0 0 24 24" width="24" xmlns="http://www.w3.org/2000/svg"><path d="m11.9999 2c.2653 0 .5196.10536.7071.29289.1876.18754.2929.44189.2929.70711v3c0 .26522-.1053.51957-.2929.70711-.1875.18753-.4418.29289-.7071.29289-.2652 0-.5195-.10536-.7071-.29289-.1875-.18754-.2929-.44189-.2929-.70711v-3c0-.26522.1054-.51957.2929-.70711.1876-.18753.4419-.29289.7071-.29289zm0 15c.2653 0 .5196.1054.7071.2929.1876.1875.2929.4419.2929.7071v3c0 .2652-.1053.5196-.2929.7071-.1875.1875-.4418.2929-.7071.2929-.2652 0-.5195-.1054-.7071-.2929-.1875-.1875-.2929-.4419-.2929-.7071v-3c0-.2652.1054-.5196.2929-.7071.1876-.1875.4419-.2929.7071-.2929zm8.66-10c.1326.22968.1686.50263.0999.7588-.0686.25617-.2362.47459-.4659.6072l-2.598 1.5c-.1137.0667-.2396.11023-.3702.1281-.1307.0179-.2636.0097-.3911-.024-.1275-.03371-.2471-.0923-.3518-.17241-.1048-.08011-.1927-.18015-.2586-.29436-.066-.11421-.1087-.24034-.1257-.37112s-.0079-.26363.0266-.3909c.0346-.12728.094-.24646.1748-.35068.0808-.10423.1814-.19145.296-.25663l2.598-1.5c.2297-.1326.5027-.16854.7588-.0999.2562.06864.4746.23623.6072.4659zm-12.98996 7.5c.1326.2297.16854.5026.0999.7588s-.23623.4746-.4659.6072l-2.598 1.5c-.11377.0667-.23961.1102-.37028.1281-.13066.0179-.26357.0097-.39107-.024s-.24707-.0923-.35183-.1724-.19264-.1802-.25858-.2944c-.06595-.1142-.10864-.2403-.12564-.3711s-.00796-.2636.02659-.3909.09394-.2464.17474-.3507c.0808-.1042.18142-.1914.29607-.2566l2.598-1.5c.22968-.1326.50263-.1685.7588-.0999s.47459.2362.6072.4659zm12.98996 2.5c-.1326.2297-.351.3973-.6072.4659-.2561.0686-.5291.0327-.7588-.0999l-2.598-1.5c-.2278-.1336-.3935-.3518-.461-.6071s-.0313-.5269.1008-.7556c.132-.2287.3491-.3959.604-.465.2548-.0692.5267-.0348.7562.0957l2.598 1.5c.2297.1326.3973.351.4659.6072.0687.2562.0327.5291-.0999.7588zm-12.98996-7.5c-.13261.22967-.35103.39726-.6072.4659-.25617.0686-.52912.0327-.7588-.0999l-2.598-1.5c-.11465-.06518-.21527-.1524-.29607-.25663-.0808-.10422-.14019-.2234-.17474-.35068-.03455-.12727-.04359-.26012-.02659-.3909s.05969-.25691.12564-.37112c.06594-.11421.15382-.21425.25858-.29436.10476-.0801.22433-.1387.35183-.17241s.26041-.04186.39107-.024c.13067.01787.25651.0614.37028.1281l2.598 1.5c.22967.13261.39726.35103.4659.6072s.0327.52912-.0999.7588z" /></svg>