<svg fill="currentColor" height="24" viewBox="0 0 24 24" width="24" xmlns="http://www.w3.org/2000/svg"><path d="m3.05471 13h2.015c.24229 1.6648 1.07587 3.1867 2.34823 4.2872 1.27237 1.1006 2.89846 1.7063 4.58076 1.7063s3.3084-.6057 4.5808-1.7063c1.2723-1.1005 2.1059-2.6224 2.3482-4.2872h2.016c-.2465 2.1998-1.2951 4.2317-2.9452 5.7072-1.6502 1.4756-3.7862 2.2913-5.9998 2.2913-2.21362 0-4.34963-.8157-5.99977-2.2913-1.65013-1.4755-2.69868-3.5074-2.94522-5.7072zm0-2c.24654-2.19988 1.29509-4.23175 2.94522-5.70728 1.65014-1.47554 3.78615-2.29126 5.99977-2.29126 2.2136 0 4.3496.81572 5.9998 2.29126 1.6501 1.47553 2.6987 3.5074 2.9452 5.70728h-2.015c-.2423-1.6648-1.0759-3.1867-2.3482-4.28729-1.2724-1.10059-2.8985-1.70628-4.5808-1.70628s-3.30839.60569-4.58076 1.70628c-1.27236 1.10059-2.10594 2.62249-2.34823 4.28729z" /></svg>