<svg fill="currentColor" height="24" viewBox="0 0 24 24" width="24" xmlns="http://www.w3.org/2000/svg"><path d="m19 10h1c.2652 0 .5196.1054.7071.2929s.2929.4419.2929.7071v10c0 .2652-.1054.5196-.2929.7071s-.4419.2929-.7071.2929h-16c-.26522 0-.51957-.1054-.70711-.2929-.18753-.1875-.29289-.4419-.29289-.7071v-10c0-.2652.10536-.5196.29289-.7071.18754-.1875.44189-.2929.70711-.2929h1v-1c0-.91925.18106-1.8295.53284-2.67878.35179-.84928.8674-1.62096 1.51741-2.27097s1.42169-1.16562 2.27097-1.51741c.84928-.35178 1.75948-.53284 2.67878-.53284s1.8295.18106 2.6788.53284c.8493.35179 1.6209.8674 2.2709 1.51741.6501.65001 1.1657 1.42169 1.5175 2.27097.3517.84928.5328 1.75953.5328 2.67878zm-14 2v8h14v-8zm6 2h2v4h-2zm6-4v-1c0-1.32608-.5268-2.59785-1.4645-3.53553-.9376-.93769-2.2094-1.46447-3.5355-1.46447s-2.59785.52678-3.53553 1.46447c-.93769.93768-1.46447 2.20945-1.46447 3.53553v1z" /></svg>