<svg fill="currentColor" height="24" viewBox="0 0 24 24" width="24" xmlns="http://www.w3.org/2000/svg"><path d="m7 10.0001h13c.2652 0 .5196.1053.7071.2929.1875.1875.2929.4419.2929.7071v10c0 .2652-.1054.5196-.2929.7071s-.4419.2929-.7071.2929h-16c-.26522 0-.51957-.1054-.70711-.2929-.18753-.1875-.29289-.4419-.29289-.7071v-10c0-.2652.10536-.5196.29289-.7071.18754-.1876.44189-.2929.70711-.2929h1v-1.00001c-.00057-1.5773.53158-3.10856 1.51019-4.34557.97861-1.237 2.34631-2.10725 3.88141-2.46967s3.1476-.19576 4.5761.47295c1.4286.66871 2.5894 1.80029 3.2943 3.21129l-1.789.894c-.5035-1.00798-1.3327-1.81635-2.3532-2.29405-1.0204-.4777-2.1723-.59672-3.2689-.33777s-2.07357.88069-2.77254 1.76443c-.69897.88373-1.07896 1.97765-1.07836 3.10439zm3 5v2h4v-2z" /></svg>