<svg fill="currentColor" height="24" viewBox="0 0 24 24" width="24" xmlns="http://www.w3.org/2000/svg"><path d="m6 8v-1c0-1.5913.63214-3.11742 1.75736-4.24264s2.65134-1.75736 4.24264-1.75736 3.1174.63214 4.2426 1.75736c1.1253 1.12522 1.7574 2.65134 1.7574 4.24264v1h2c.2652 0 .5196.10536.7071.29289.1875.18754.2929.44189.2929.70711v12c0 .2652-.1054.5196-.2929.7071s-.4419.2929-.7071.2929h-16c-.26522 0-.51957-.1054-.70711-.2929-.18753-.1875-.29289-.4419-.29289-.7071v-12c0-.26522.10536-.51957.29289-.70711.18754-.18753.44189-.29289.70711-.29289zm13 2h-14v10h14zm-8 5.732c-.3813-.2201-.6793-.5599-.8478-.9667-.16844-.4067-.198-.8577-.0841-1.283.114-.4253.3651-.801.7144-1.0691.3493-.268.7772-.4133 1.2175-.4133s.8682.1453 1.2175.4133c.3493.2681.6004.6438.7144 1.0691.1139.4253.0843.8763-.0841 1.283-.1685.4068-.4665.7466-.8478.9667v2.268h-2zm-3-7.732h8v-1c0-1.06087-.4214-2.07828-1.1716-2.82843-.7501-.75014-1.7675-1.17157-2.8284-1.17157s-2.07828.42143-2.82843 1.17157c-.75014.75015-1.17157 1.76756-1.17157 2.82843z" /></svg>