<svg fill="currentColor" height="24" viewBox="0 0 24 24" width="24" xmlns="http://www.w3.org/2000/svg"><path d="m10 11v-3l5 4-5 4v-3h-9v-2zm-7.542 4h2.124c.69804 1.7191 1.97171 3.1422 3.60312 4.0259 1.6314.8838 3.51918 1.1732 5.34038.8188 1.8213-.3543 3.4628-1.3305 4.6438-2.7615 1.181-1.4309 1.8282-3.2278 1.8307-5.0832.001-1.8573-.6442-3.65717-1.8251-5.09078s-2.8238-2.41166-4.6469-2.76641c-1.8232-.35474-3.71295-.06407-5.34522.82217-1.63227.88623-2.90531 2.3128-3.60078 4.03502h-2.124c1.274-4.057 5.064-7 9.542-7 5.523 0 10 4.477 10 10s-4.477 10-10 10c-4.478 0-8.268-2.943-9.542-7z" /></svg>