<svg fill="currentColor" height="24" viewBox="0 0 24 24" width="24" xmlns="http://www.w3.org/2000/svg"><path d="m5 11h8v2h-8v3l-5-4 5-4zm-1 7h2.708c1.15469 1.0183 2.57869 1.6819 4.1011 1.9109 1.5225.2291 3.0787.014 4.4819-.6194s2.5939-1.6583 3.4291-2.9517c.8352-1.2933 1.2794-2.8002 1.2794-4.3398s-.4442-3.04646-1.2794-4.33981c-.8352-1.29336-2.0259-2.31825-3.4291-2.95169s-2.9594-.84852-4.4819-.61944c-1.52241.22909-2.94641.89261-4.1011 1.91094h-2.708c.93066-1.24282 2.13833-2.25149 3.52707-2.94586 1.38874-.69436 2.92023-1.0553 4.47293-1.05414 5.523 0 10 4.477 10 10s-4.477 10-10 10c-1.5527.0012-3.08419-.3598-4.47293-1.0541-1.38874-.6944-2.59641-1.7031-3.52707-2.9459z" /></svg>