<svg fill="currentColor" height="24" viewBox="0 0 24 24" width="24" xmlns="http://www.w3.org/2000/svg"><path d="m5.49986 20.0001c.828 0 1.5.672 1.5 1.5s-.672 1.5-1.5 1.5-1.5-.672-1.5-1.5.672-1.5 1.5-1.5zm13.00004 0c.828 0 1.5.672 1.5 1.5s-.672 1.5-1.5 1.5-1.5-.672-1.5-1.5.672-1.5 1.5-1.5zm-16.32804-18.24302 3.827 3.828v11.41502h14.00104v2h-15.00004c-.552 0-1-.448-1-1v-11.58702l-3.244001-3.241 1.415001-1.415zm13.82804 1.243c.552 0 1 .448 1 1v2h2.993c.557 0 1.007.456 1.007.995v8.01002c0 .55-.45.995-1.007.995h-11.98604c-.557 0-1.007-.456-1.007-.995v-8.01002c0-.55.45-.995 1.007-.995h2.99204l.001-2c0-.552.448-1 1-1zm-5 5h-1.00004v6.00002h1.00004zm7 0h-1v6.00002h1zm-3-3h-2v1h2z" /></svg>