<svg fill="currentColor" height="24" viewBox="0 0 24 24" width="24" xmlns="http://www.w3.org/2000/svg"><path d="m22.001 17c-.001 4-.001 4-4 4-4 0-5-3-5-6 0-.378-.018-.918-.026-1.55l2.023 1.169.002.381c0 2.776.816 4 3 4 1.14 0 1.61-.007 1.963-.038.03-.351.037-.822.037-1.962 0-3.205-.703-6.033-1.835-7.9-.838-1.382-1.613-1.843-2.032-1.703-.293.098-.605.65-.831 1.623l-1.79-1.033c.369-1.197.982-2.151 1.988-2.487 3-1 6.503 4 6.5 11.5zm-13.501-11.5c1.007.336 1.62 1.29 1.989 2.487l-1.79 1.033c-.226-.973-.539-1.525-.831-1.623-.42-.14-1.195.32-2.032 1.702-1.133 1.868-1.836 4.696-1.836 7.901 0 1.14.007 1.61.038 1.962.351.031.822.038 1.962.038 2.184 0 3-1.224 3-4l.004-.382 2.023-1.168c-.01.633-.027 1.172-.027 1.55 0 3-1 6-5 6s-4 0-4-4c0-7.5 3.5-12.5 6.5-11.5zm4.5-3.5v7.422l4.696 2.712-1 1.732-4.696-2.711-4.696 2.711-1-1.732 4.696-2.712v-7.422z" /></svg>