<svg fill="currentColor" height="24" viewBox="0 0 24 24" width="24" xmlns="http://www.w3.org/2000/svg"><path d="m15.1995 9.945c-.4337-.41088-.7127-.95859-.79-1.551l-.403-3.083-2.73 1.486c-.5249.28602-1.1324.38243-1.72004.273l-3.056-.57.57 3.056c.10943.5877.01302 1.1951-.273 1.72l-1.486 2.73 3.083.403c.59206.0775 1.13938.3565 1.55.79l2.13804 2.257 1.336-2.807c.2564-.5394.6907-.9741 1.23-1.231l2.808-1.336zm.025 5.563-2.213 4.65c-.0419.0879-.1045.1643-.1825.2226s-.1691.0968-.2652.112c-.0962.0153-.1947.0069-.2869-.0244s-.1754-.0846-.2424-.1552l-3.54204-3.739c-.09462-.0998-.22066-.164-.357-.182l-5.107-.668c-.09649-.0127-.18843-.0487-.26791-.1049-.07948-.0561-.1441-.1308-.18829-.2175s-.06663-.1829-.06537-.2802c.00125-.0973.02616-.1929.07257-.2784l2.462-4.524c.06545-.121.08734-.2608.062-.396l-.943-5.063c-.01791-.09583-.01219-.19459.01665-.28771.02884-.09313.07994-.17783.14888-.24676.06894-.06894.15363-.12004.24676-.14888s.19188-.03456.28771-.01665l5.063.943c.13524.02534.27504.00345.39604-.062l4.524-2.462c.0856-.04643.1812-.07131.2786-.07252.0974-.0012.1936.02133.2803.06563s.1614.10905.2175.18865.092.17166.1046.26824l.668 5.106c.0179.13634.0822.26237.182.357l3.739 3.542c.0706.067.1239.1502.1552.2425.0313.0922.0397.1906.0244.2868s-.0537.1872-.112.2652-.1347.1406-.2226.1825l-4.65 2.213c-.1245.0592-.2248.1595-.284.284zm.797 1.927 1.414-1.414 4.243 4.242-1.415 1.415z" /></svg>