<svg fill="currentColor" height="24" viewBox="0 0 24 24" width="24" xmlns="http://www.w3.org/2000/svg"><path d="m22 12.803c-1.1439-.661-2.4741-.926-3.784-.7538s-2.5264.7719-3.4606 1.7062c-.9343.9342-1.534 2.1507-1.7062 3.4606s.0928 2.6401.7538 3.784h-10.803c-.26522 0-.51957-.1054-.70711-.2929-.18753-.1875-.29289-.4419-.29289-.7071v-16c0-.26522.10536-.51957.29289-.70711.18754-.18753.44189-.29289.70711-.29289h18c.2652 0 .5196.10536.7071.29289.1875.18754.2929.44189.2929.70711zm-9.94-1.12-6.412-5.445-1.295 1.524 7.72 6.555 7.581-6.56-1.308-1.513-6.285 5.439zm7.94 6.317h3l-4 4-4-4h3v-4h2z" /></svg>