<svg fill="currentColor" height="24" viewBox="0 0 24 24" width="24" xmlns="http://www.w3.org/2000/svg"><path d="m22 13.341c-1.0683-.3784-2.2219-.4465-3.3273-.1964-1.1053.25-2.1173.8081-2.9187 1.6094-.8013.8014-1.3594 1.8134-1.6094 2.9187-.2501 1.1054-.182 2.259.1964 3.3273h-11.341c-.26522 0-.51957-.1054-.70711-.2929-.18753-.1875-.29289-.4419-.29289-.7071v-16c0-.26522.10536-.51957.29289-.70711.18754-.18753.44189-.29289.70711-.29289h18c.2652 0 .5196.10536.7071.29289.1875.18754.2929.44189.2929.70711zm-9.94-1.658-6.412-5.445-1.295 1.524 7.72 6.555 7.581-6.56-1.308-1.513-6.285 5.439zm8.94 6.317h3v2h-3v3h-2v-3h-3v-2h3v-3h2z" /></svg>