<svg fill="currentColor" height="24" viewBox="0 0 24 24" width="24" xmlns="http://www.w3.org/2000/svg"><path d="m22 14h-2v-6.762l-7.928 7.1-8.072-7.122v11.784h11v2h-12c-.26522 0-.51957-.1054-.70711-.2929-.18753-.1875-.29289-.4419-.29289-.7071v-16c0-.26522.10536-.51957.29289-.70711.18754-.18753.44189-.29289.70711-.29289h18c.2652 0 .5196.10536.7071.29289.1875.18754.2929.44189.2929.70711zm-17.489-9 7.55 6.662 7.441-6.662zm16.903 14 2.122 2.121-1.415 1.415-2.121-2.122-2.121 2.122-1.415-1.415 2.122-2.121-2.122-2.121 1.415-1.415 2.121 2.122 2.121-2.122 1.415 1.415z" /></svg>