<svg fill="currentColor" height="24" viewBox="0 0 24 24" width="24" xmlns="http://www.w3.org/2000/svg"><path d="m22 14.044c-1.0312-.4732-2.1754-.6442-3.2999-.4934-1.1245.1509-2.1832.6174-3.0533 1.3456-.87.7282-1.5158 1.6882-1.8623 2.7686-.3465 1.0803-.3796 2.2368-.0955 3.3352h-10.689c-.26522 0-.51957-.1054-.70711-.2929-.18753-.1875-.29289-.4419-.29289-.7071v-16c0-.26522.10536-.51957.29289-.70711.18754-.18753.44189-.29289.70711-.29289h18c.2652 0 .5196.10536.7071.29289.1875.18754.2929.44189.2929.70711zm-9.94-2.361-6.412-5.445-1.295 1.524 7.72 6.555 7.581-6.56-1.308-1.513-6.285 5.439zm7.44 10.067-2.645 1.39.505-2.945-2.14-2.086 2.957-.43 1.323-2.679 1.323 2.68 2.957.43-2.14 2.085.505 2.946z" /></svg>