<svg fill="currentColor" height="24" viewBox="0 0 24 24" width="24" xmlns="http://www.w3.org/2000/svg"><path d="m20 7.238-7.928 7.1-8.072-7.122v11.784h7.07c.0994.6933.303 1.3676.604 2h-8.674c-.26522 0-.51957-.1054-.70711-.2929-.18753-.1875-.29289-.4419-.29289-.7071v-16c0-.26522.10536-.51957.29289-.70711.18754-.18753.44189-.29289.70711-.29289h18c.2652 0 .5196.10536.7071.29289.1875.18754.2929.44189.2929.70711v8.255c-.6108-.4265-1.2861-.7523-2-.965zm-.499-2.238h-14.99l7.55 6.662 7.441-6.662zm-2.794 15.708c.56.2679 1.1892.3555 1.8011.2508.6118-.1048 1.1761-.3967 1.615-.8357.439-.4389.7309-1.0032.8357-1.615.1047-.6119.0171-1.2411-.2508-1.8011l-4.001 4zm-1.415-1.415 4.001-4c-.56-.2679-1.1892-.3555-1.8011-.2508-.6118.1048-1.1761.3967-1.615.8357-.439.4389-.7309 1.0032-.8357 1.615-.1047.6119-.0171 1.2411.2508 1.8011zm2.708 3.707c-1.3261 0-2.5979-.5268-3.5355-1.4645-.9377-.9376-1.4645-2.2094-1.4645-3.5355s.5268-2.5979 1.4645-3.5355c.9376-.9377 2.2094-1.4645 3.5355-1.4645s2.5979.5268 3.5355 1.4645c.9377.9376 1.4645 2.2094 1.4645 3.5355s-.5268 2.5979-1.4645 3.5355c-.9376.9377-2.2094 1.4645-3.5355 1.4645z" /></svg>