<svg fill="currentColor" height="24" viewBox="0 0 24 24" width="24" xmlns="http://www.w3.org/2000/svg"><path d="m2.243 6.85399 9.247-5.544c.1554-.09325.3333-.14251.5145-.14251s.3591.04926.5145.14251l9.238 5.545c.0741.04441.1355.10728.1781.18247.0425.07518.0649.16012.0649.24653v12.71601c0 .2652-.1054.5196-.2929.7071s-.4419.2929-.7071.2929h-18c-.26522 0-.51957-.1054-.70711-.2929-.18753-.1875-.29289-.4419-.29289-.7071v-12.71701c-.00002-.08641.02236-.17135.06495-.24653.04258-.07519.10393-.13806.17805-.18247zm16.103 1.39-6.285 5.43901-6.414-5.44501-1.294 1.524 7.72 6.55501 7.581-6.56001z" /></svg>