<svg fill="currentColor" height="24" viewBox="0 0 24 24" width="24" xmlns="http://www.w3.org/2000/svg"><path d="m18.803 8.493c.992.48313 2.1156.62617 3.197.407v11.1c0 .2652-.1054.5196-.2929.7071s-.4419.2929-.7071.2929h-18c-.26522 0-.51957-.1054-.70711-.2929-.18753-.1875-.29289-.4419-.29289-.7071v-16c0-.26522.10536-.51957.29289-.70711.18754-.18753.44189-.29289.70711-.29289h13.1c-.066.323-.1.658-.1 1-.0017 1.18805.4215 2.33756 1.193 3.241l-5.132 4.442-6.414-5.445-1.294 1.524 7.72 6.555zm2.197-1.493c-.394 0-.7841-.0776-1.1481-.22836-.3639-.15077-.6946-.37174-.9732-.65032s-.4996-.60929-.6503-.97327c-.1508-.36398-.2284-.75408-.2284-1.14805s.0776-.78407.2284-1.14805c.1507-.36398.3717-.69469.6503-.97327s.6093-.49955.9732-.65032c.364-.15076.7541-.22836 1.1481-.22836.7956 0 1.5587.31607 2.1213.87868s.8787 1.32567.8787 2.12132-.3161 1.55871-.8787 2.12132-1.3257.87868-2.1213.87868z" /></svg>