<svg fill="currentColor" height="24" viewBox="0 0 24 24" width="24" xmlns="http://www.w3.org/2000/svg"><path d="m20 14.5v9l-3.333-2.5h-2.667v-4h2.667zm1-11.5c.2652 0 .5196.10536.7071.29289.1875.18754.2929.44189.2929.70711v9h-2v-5.763l-7.928 7.101-8.072-7.123v11.785h8v2h-9c-.26522 0-.51957-.1054-.70711-.2929-.18753-.1875-.29289-.4419-.29289-.7071v-16c0-.26522.10536-.51957.29289-.70711.18754-.18753.44189-.29289.70711-.29289zm0 14c.519-.0023 1.0185.1972 1.3932.5564.3746.3592.5949.8499.6143 1.3685.0195.5187-.1634 1.0245-.51 1.4108s-.8298.6227-1.3475.6593l-.15.005zm-1.5-12h-14.989l7.55 6.662z" /></svg>