<svg fill="currentColor" height="24" viewBox="0 0 24 24" width="24" xmlns="http://www.w3.org/2000/svg"><path d="m20 14.5v9l-3.333-2.5h-2.667v-4h2.667zm1-11.5c.2652 0 .5195.10536.7071.29289.1875.18754.2929.44189.2929.70711v10.529c-.9928-.8895-2.2535-1.4232-3.5832-1.5167s-2.6527.2585-3.7601 1.0003c-1.1075.7419-1.9364 1.8314-2.3559 3.0967-.4195 1.2652-.4057 2.6341.0392 3.8907h-9.33805c-.26521 0-.51957-.1054-.7071-.2929-.18754-.1875-.2929-.4419-.2929-.7071v-16c0-.26522.10536-.51957.2929-.70711.18753-.18753.44189-.29289.7071-.29289h18.00005zm0 14c.5189-.0023 1.0185.1972 1.3931.5564s.5949.8499.6144 1.3685c.0195.5187-.1634 1.0245-.51 1.4108-.3467.3863-.8299.6227-1.3475.6593l-.15.005zm-15.35305-10.762-1.294 1.524 7.72005 6.555 7.581-6.56-1.308-1.513-6.286 5.438z" /></svg>