<svg fill="currentColor" height="24" viewBox="0 0 24 24" width="24" xmlns="http://www.w3.org/2000/svg"><path d="m22 12c-.6747-.5056-1.4663-.8324-2.3012-.9502-.8348-.1177-1.6859-.0225-2.4741.2769-.7882.2993-1.488.793-2.0343 1.4352s-.9214 1.4121-1.0904 2.2381h-1.1v6h-10c-.26522 0-.51957-.1054-.70711-.2929-.18753-.1875-.29289-.4419-.29289-.7071v-16c0-.26522.10536-.51957.29289-.70711.18754-.18753.44189-.29289.70711-.29289h18c.2652 0 .5196.10536.7071.29289.1875.18754.2929.44189.2929.70711zm-9.94-.317-6.412-5.445-1.295 1.524 7.72 6.555 7.581-6.56-1.308-1.513-6.285 5.439zm9.94 5.317h1v5h-8v-5h1v-1c0-.7956.3161-1.5587.8787-2.1213s1.3257-.8787 2.1213-.8787 1.5587.3161 2.1213.8787.8787 1.3257.8787 2.1213zm-2 0v-1c0-.2652-.1054-.5196-.2929-.7071s-.4419-.2929-.7071-.2929-.5196.1054-.7071.2929-.2929.4419-.2929.7071v1z" /></svg>