<svg fill="currentColor" height="24" viewBox="0 0 24 24" width="24" xmlns="http://www.w3.org/2000/svg"><path d="m2.243 6.85399 9.247-5.544c.1554-.09325.3333-.14251.5145-.14251s.3591.04926.5145.14251l9.238 5.545c.0741.04441.1355.10728.1781.18247.0425.07518.0649.16012.0649.24653v12.71601c0 .2652-.1054.5196-.2929.7071s-.4419.2929-.7071.2929h-18c-.26522 0-.51957-.1054-.70711-.2929-.18753-.1875-.29289-.4419-.29289-.7071v-12.71701c-.00002-.08641.02236-.17135.06495-.24653.04258-.07519.10393-.13806.17805-.18247zm1.757 1.279v10.86701h16v-10.86801l-7.996-4.8-8.004 4.8zm8.06 5.56501 5.296-4.46301 1.288 1.53001-6.57 5.537-6.71-5.53 1.272-1.54401z" /></svg>