<svg fill="currentColor" height="24" viewBox="0 0 24 24" width="24" xmlns="http://www.w3.org/2000/svg"><path d="m20 7.238-7.928 7.1-8.072-7.122v11.784h10v2h-11c-.26522 0-.51957-.1054-.70711-.2929-.18753-.1875-.29289-.4419-.29289-.7071v-16c0-.26522.10536-.51957.29289-.70711.18754-.18753.44189-.29289.70711-.29289h18c.2652 0 .5196.10536.7071.29289.1875.18754.2929.44189.2929.70711v9h-2zm-.499-2.238h-14.99l7.55 6.662 7.441-6.662zm-2.451 14.548c-.0669-.3623-.0669-.7337 0-1.096l-1.014-.586 1-1.732 1.014.586c.278-.238.599-.425.95-.55v-1.17h2v1.17c.351.125.672.312.95.55l1.014-.586 1 1.732-1.014.586c.0669.3623.0669.7337 0 1.096l1.014.586-1 1.732-1.014-.586c-.2801.2403-.6022.4267-.95.55v1.17h-2v-1.17c-.3478-.1233-.6699-.3097-.95-.55l-1.014.586-1-1.732zm2.95.452c.2652 0 .5196-.1054.7071-.2929s.2929-.4419.2929-.7071-.1054-.5196-.2929-.7071-.4419-.2929-.7071-.2929-.5196.1054-.7071.2929-.2929.4419-.2929.7071.1054.5196.2929.7071.4419.2929.7071.2929z" /></svg>