<svg fill="currentColor" height="24" viewBox="0 0 24 24" width="24" xmlns="http://www.w3.org/2000/svg"><path d="m15.266 11.554 4.388-3.798-1.308-1.512-6.285 5.439-6.414-5.445-1.294 1.524 7.702 6.54c-.6916 1.1093-1.0572 2.3908-1.055 3.698 0 1.074.242 2.09.674 3h-8.674c-.26522 0-.51957-.1054-.70711-.2929-.18753-.1875-.29289-.4419-.29289-.7071v-16c0-.26522.10536-.51957.29289-.70711.18754-.18753.44189-.29289.70711-.29289h18c.2652 0 .5196.10536.7071.29289.1875.18754.2929.44189.2929.70711v8.255c-1.1729-.819-2.5695-1.2572-4-1.255-.97 0-1.894.197-2.734.554zm1.44 9.154c.56.2679 1.1892.3555 1.8011.2508.6118-.1048 1.1761-.3967 1.615-.8357.439-.4389.7309-1.0032.8357-1.615.1047-.6119.0171-1.2411-.2508-1.8011l-4 4zm-1.414-1.415 4.001-4c-.56-.2679-1.1892-.3555-1.8011-.2508-.6118.1048-1.1761.3967-1.615.8357-.439.4389-.7309 1.0032-.8357 1.615-.1047.6119-.0171 1.2411.2508 1.8011zm2.708 3.707c-1.3261 0-2.5979-.5268-3.5355-1.4645-.9377-.9376-1.4645-2.2094-1.4645-3.5355s.5268-2.5979 1.4645-3.5355c.9376-.9377 2.2094-1.4645 3.5355-1.4645s2.5979.5268 3.5355 1.4645c.9377.9376 1.4645 2.2094 1.4645 3.5355s-.5268 2.5979-1.4645 3.5355c-.9376.9377-2.2094 1.4645-3.5355 1.4645z" /></svg>