<svg fill="currentColor" height="24" viewBox="0 0 24 24" width="24" xmlns="http://www.w3.org/2000/svg"><path d="m11.0004 19.945c-2.28396-.2583-4.38263-1.3805-5.86563-3.1367-1.48301-1.7561-2.23796-4.0131-2.11007-6.3081.12789-2.29502 1.12894-4.45414 2.79788-6.03465 1.66894-1.58052 3.87931-2.46266 6.17782-2.46555 2.3014-.00167 4.516.87834 6.1886 2.45914s2.676 3.74228 2.8041 6.04006c.128 2.2979-.6291 4.5575-2.1156 6.3143-1.4866 1.7569-3.5897 2.8775-5.8771 3.1315v4.055h-2zm1-1.945c.9193 0 1.8296-.1811 2.6788-.5328.8493-.3518 1.621-.8674 2.271-1.5175.65-.65 1.1656-1.4216 1.5174-2.2709s.5328-1.7595.5328-2.6788-.181-1.8295-.5328-2.67878-.8674-1.62096-1.5174-2.27097-1.4217-1.16562-2.271-1.5174c-.8492-.35179-1.7595-.53285-2.6788-.53285-1.8565 0-3.63694.7375-4.9497 2.05025-1.31275 1.31276-2.05025 3.09324-2.05025 4.94975 0 1.8565.7375 3.637 2.05025 4.9497 1.31276 1.3128 3.0932 2.0503 4.9497 2.0503z" /></svg>