<svg fill="currentColor" height="24" viewBox="0 0 24 24" width="24" xmlns="http://www.w3.org/2000/svg"><path d="m18.364 17.3639-6.364 6.364-6.364-6.364c-1.25866-1.2587-2.11581-2.8623-2.46307-4.6081-.34726-1.7459-.16902-3.55545.51217-5.19998s1.83474-3.05013 3.31478-4.03905c1.48004-.98893 3.22012-1.51677 5.00012-1.51677s3.5201.52784 5.0001 1.51677c1.4801.98892 2.6336 2.39452 3.3148 4.03905s.8594 3.45408.5122 5.19998c-.3473 1.7458-1.2044 3.3494-2.4631 4.6081zm-7.364-7.36398h-3v1.99998h3v3h2v-3h3v-1.99998h-3v-3h-2z" /></svg>