<svg fill="currentColor" height="24" viewBox="0 0 24 24" width="24" xmlns="http://www.w3.org/2000/svg"><path d="m10.9999 17.938c-2.01731-.2567-3.86116-1.2719-5.15683-2.8392-1.29567-1.5674-1.94591-3.5693-1.81857-5.59883.12734-2.02956 1.02271-3.93448 2.50413-5.32759 1.48141-1.39311 3.4377-2.16986 5.47127-2.17238 2.036-.00151 3.996.77334 5.4806 2.16668 1.4847 1.39334 2.3821 3.30032 2.5096 5.33236.1275 2.03206-.5246 4.03626-1.8234 5.60426-1.2988 1.5679-3.1466 2.5817-5.1668 2.8347v3.062h-2zm1-1.938c1.5913 0 3.1174-.6321 4.2426-1.7574 1.1252-1.1252 1.7574-2.6513 1.7574-4.2426s-.6322-3.11742-1.7574-4.24264-2.6513-1.75736-4.2426-1.75736-3.11744.63214-4.24266 1.75736-1.75736 2.65134-1.75736 4.24264.63214 3.1174 1.75736 4.2426c1.12522 1.1253 2.65136 1.7574 4.24266 1.7574zm-7.00002 6h14.00002v2h-14.00002z" /></svg>