<svg fill="currentColor" height="24" viewBox="0 0 24 24" width="24" xmlns="http://www.w3.org/2000/svg"><path d="m11 17.938c-2.01729-.2567-3.86115-1.2719-5.15681-2.8392-1.29567-1.5674-1.94591-3.5693-1.81857-5.59883.12734-2.02956 1.02271-3.93448 2.50412-5.32759 1.48142-1.39311 3.43771-2.16986 5.47126-2.17238 2.036-.00151 3.9961.77334 5.4807 2.16668s2.3821 3.30032 2.5096 5.33236c.1275 2.03206-.5246 4.03626-1.8234 5.60426-1.2989 1.5679-3.1466 2.5817-5.1669 2.8347v2.074c3.946.092 7 .723 7 1.488 0 .828-3.582 1.5-8 1.5s-8-.672-8-1.5c0-.765 3.054-1.396 7-1.488zm1-5.938c.5304 0 1.0391-.2107 1.4142-.5858s.5858-.8838.5858-1.4142c0-.53043-.2107-1.03914-.5858-1.41421s-.8838-.58579-1.4142-.58579-1.0391.21072-1.4142.58579-.5858.88378-.5858 1.41421c0 .5304.2107 1.0391.5858 1.4142s.8838.5858 1.4142.5858z" /></svg>