<svg fill="currentColor" height="24" viewBox="0 0 24 24" width="24" xmlns="http://www.w3.org/2000/svg"><path d="m17.084 15.8119c.9404-.9936 1.569-2.241 1.8082-3.588s.0784-2.73458-.4625-3.9912c-.5409-1.25661-1.4381-2.3272-2.5808-3.07942s-2.4808-1.15311-3.8489-1.15311-2.70616.40089-3.84888 1.15311c-1.14271.75222-2.03995 1.82281-2.58082 3.07942-.54087 1.25662-.70167 2.6442-.4625 3.9912.23916 1.347.8678 2.5944 1.8082 3.588.53967-.8611 1.28936-1.571 2.17867-2.0629s1.88903-.7496 2.90533-.7491c1.0163-.0005 2.016.2572 2.9053.7491s1.639 1.2018 2.1787 2.0629zm-8.699 1.473 3.615 3.614 3.615-3.614c-.3242-.6844-.836-1.2628-1.476-1.6677-.6399-.405-1.3817-.62-2.139-.62s-1.4991.215-2.13904.62c-.63995.4049-1.15177.9833-1.47596 1.6677zm3.615 6.443-6.364-6.364c-1.25866-1.2587-2.11581-2.8623-2.46307-4.6081-.34726-1.7459-.16902-3.55545.51217-5.19998s1.83474-3.05013 3.31478-4.03905c1.48004-.98893 3.22012-1.51677 5.00012-1.51677s3.5201.52784 5.0001 1.51677c1.4801.98892 2.6336 2.39452 3.3148 4.03905s.8594 3.45408.5122 5.19998c-.3473 1.7458-1.2044 3.3494-2.4631 4.6081zm0-13.72798c.2652 0 .5196-.10536.7071-.29289.1875-.18754.2929-.44189.2929-.70711 0-.26521-.1054-.51957-.2929-.7071-.1875-.18754-.4419-.2929-.7071-.2929s-.5196.10536-.7071.2929c-.1875.18753-.2929.44189-.2929.7071 0 .26522.1054.51957.2929.70711.1875.18753.4419.29289.7071.29289zm0 1.99998c-.7956 0-1.5587-.316-2.12132-.8787-.56261-.5626-.87868-1.32563-.87868-2.12128s.31607-1.55871.87868-2.12132c.56262-.56261 1.32572-.87868 2.12132-.87868.7957 0 1.5587.31607 2.1213.87868s.8787 1.32567.8787 2.12132-.3161 1.55868-.8787 2.12128c-.5626.5627-1.3256.8787-2.1213.8787z" /></svg>