<svg fill="currentColor" height="24" viewBox="0 0 24 24" width="24" xmlns="http://www.w3.org/2000/svg"><path d="m12 20.8999 4.95-4.95c.9789-.979 1.6455-2.2263 1.9156-3.5841.27-1.3579.1313-2.76528-.3985-4.04432s-1.4271-2.37225-2.5782-3.14139-2.5045-1.17966-3.8889-1.17966-2.73778.41052-3.88891 1.17966-2.04834 1.86235-2.57817 3.14139c-.52984 1.27904-.6685 2.68642-.39847 4.04432.27004 1.3578.93666 2.6051 1.91555 3.5841zm0 2.828-6.364-6.364c-1.25866-1.2587-2.11581-2.8623-2.46307-4.6081-.34726-1.7459-.16902-3.55545.51217-5.19998s1.83474-3.05013 3.31478-4.03905c1.48004-.98893 3.22012-1.51677 5.00012-1.51677s3.5201.52784 5.0001 1.51677c1.4801.98892 2.6336 2.39452 3.3148 4.03905s.8594 3.45408.5122 5.19998c-.3473 1.7458-1.2044 3.3494-2.4631 4.6081zm0-10.728c.5304 0 1.0391-.2107 1.4142-.5858.3751-.375.5858-.8837.5858-1.4142 0-.5304-.2107-1.03912-.5858-1.41419s-.8838-.58579-1.4142-.58579-1.0391.21072-1.4142.58579-.5858.88379-.5858 1.41419c0 .5305.2107 1.0392.5858 1.4142.3751.3751.8838.5858 1.4142.5858zm0 2c-1.0609 0-2.07828-.4214-2.82842-1.1716-.75015-.7501-1.17158-1.7675-1.17158-2.8284 0-1.06084.42143-2.07826 1.17158-2.82841.75014-.75014 1.76752-1.17157 2.82842-1.17157s2.0783.42143 2.8284 1.17157c.7502.75015 1.1716 1.76757 1.1716 2.82841 0 1.0609-.4214 2.0783-1.1716 2.8284-.7501.7502-1.7675 1.1716-2.8284 1.1716z" /></svg>