<svg fill="currentColor" height="24" viewBox="0 0 24 24" width="24" xmlns="http://www.w3.org/2000/svg"><path d="m18.364 17.3639-6.364 6.364-6.364-6.364c-1.25866-1.2587-2.11581-2.8623-2.46307-4.6081-.34726-1.7459-.16902-3.55545.51217-5.19998s1.83474-3.05013 3.31478-4.03905c1.48004-.98893 3.22012-1.51677 5.00012-1.51677s3.5201.52784 5.0001 1.51677c1.4801.98892 2.6336 2.39452 3.3148 4.03905s.8594 3.45408.5122 5.19998c-.3473 1.7458-1.2044 3.3494-2.4631 4.6081zm-6.364-4.364c.5304 0 1.0391-.2107 1.4142-.5858.3751-.375.5858-.8837.5858-1.4142 0-.5304-.2107-1.03912-.5858-1.41419s-.8838-.58579-1.4142-.58579-1.0391.21072-1.4142.58579-.5858.88379-.5858 1.41419c0 .5305.2107 1.0392.5858 1.4142.3751.3751.8838.5858 1.4142.5858z" /></svg>