<svg fill="currentColor" height="24" viewBox="0 0 24 24" width="24" xmlns="http://www.w3.org/2000/svg"><path d="m12 18.485 4.243-4.242c.839-.8392 1.4104-1.9083 1.6418-3.0722.2314-1.1638.1125-2.37017-.3416-3.46646-.4542-1.0963-1.2232-2.03331-2.2099-2.69256-.9867-.65924-2.1467-1.01111-3.3333-1.01111s-2.34664.35187-3.33331 1.01111c-.98667.65925-1.75571 1.59626-2.20987 2.69256-.45415 1.09629-.57303 2.30266-.3416 3.46646.23143 1.1639.80277 2.233 1.64178 3.0722zm5.657-2.828-5.657 5.657-5.657-5.657c-1.11878-1.1189-1.88066-2.5443-2.18931-4.0962-.30865-1.5518-.1502-3.16033.45532-4.62212.60551-1.46178 1.63089-2.71119 2.94647-3.59022 1.31559-.87903 2.86232-1.34822 4.44452-1.34822s3.1289.46919 4.4445 1.34822 2.341 2.12844 2.9465 3.59022c.6055 1.46179.764 3.07032.4553 4.62212-.3086 1.5519-1.0705 2.9773-2.1893 4.0962zm-12.657 6.343h14v2h-14z" /></svg>