<svg fill="currentColor" height="24" viewBox="0 0 24 24" width="24" xmlns="http://www.w3.org/2000/svg"><path d="m12 22c-5.523 0-10-4.477-10-10s4.477-10 10-10 10 4.477 10 10-4.477 10-10 10zm5.051-3.796-.862-3.447c-.0542-.2162-.179-.4082-.3548-.5453-.1757-.1372-.3923-.2117-.6152-.2117h-6.438c-.22293 0-.43946.0745-.61521.2117-.17574.1371-.30062.3291-.35479.5453l-.862 3.447c1.42566 1.1641 3.2104 1.7988 5.051 1.796 1.8406.0028 3.6253-.6319 5.051-1.796zm-7.051-6.204h4v-1.5l-1.038-3.635c-.0594-.20934-.1855-.39358-.3591-.52478-.1736-.13119-.3853-.20217-.6029-.20217s-.4293.07098-.6029.20217c-.1736.1312-.2997.31544-.3591.52478l-1.038 3.635z" /></svg>