<svg fill="currentColor" height="24" viewBox="0 0 24 24" width="24" xmlns="http://www.w3.org/2000/svg"><path d="m15.2431 4.515-6.738 6.737-.707 2.121-1.04 1.041 2.828 2.829 1.04-1.041 2.122-.707 6.737-6.738zm6.364 3.535c.1875.18753.2928.44183.2928.707 0 .26516-.1053.51947-.2928.707l-7.779 7.779-2.12.707-1.415 1.414c-.1875.1875-.44183.2928-.707.2928-.26516 0-.51947-.1053-.707-.2928l-4.243-4.243c-.18747-.1875-.29278-.4418-.29278-.707s.10531-.5195.29278-.707l1.414-1.414.707-2.121 7.779-7.779c.1875-.18747.4418-.29279.707-.29279s.5195.10532.707.29279zm-6.364-.707 1.414 1.414-4.95 4.95-1.414-1.414zm-10.96 9.547 2.828 2.829-1.414 1.414-4.243-1.414 2.828-2.829z" /></svg>