<svg fill="currentColor" height="24" viewBox="0 0 24 24" width="24" xmlns="http://www.w3.org/2000/svg"><path d="m10 10.5 1.038-3.635c.0594-.20934.1855-.39358.3591-.52478.1736-.13119.3853-.20217.6029-.20217s.4293.07098.6029.20217c.1736.1312.2997.31544.3591.52478l1.038 3.635v1.5h.72c.2229 0 .4395.0745.6152.2117.1758.1371.3006.3291.3548.5453l1.361 5.447c1.281-1.0429 2.2077-2.4569 2.6529-4.0476.4453-1.5907.3872-3.2803-.1663-4.83665-.5535-1.55639-1.5752-2.90329-2.9248-3.85576s-2.9609-1.46381-4.6128-1.46381-3.26323.51134-4.61284 1.46381-2.37129 2.29937-2.92475 3.85576c-.55346 1.55635-.61157 3.24595-.16635 4.83665.44523 1.5907 1.37196 3.0047 2.65294 4.0476l1.362-5.447c.05413-.2161.17886-.4079.3544-.545.17554-.1372.39184-.2118.6146-.212h.72zm2 9.5c1.1252.0023 2.238-.2343 3.265-.694l-1.327-5.306h-3.876l-1.327 5.306c1.02696.4598 2.1398.6963 3.265.694zm0 2c-5.523 0-10-4.477-10-10s4.477-10 10-10 10 4.477 10 10-4.477 10-10 10z" /></svg>