<svg fill="currentColor" height="24" viewBox="0 0 24 24" width="24" xmlns="http://www.w3.org/2000/svg"><path d="m3.01817 12.008c-.032-1.26-.012-2.448-.012-3.442 0-4.338 2.843-5.61 2.843-5.61 1.433-.658 3.892-.935 6.45003-.956h.062c2.557.02 5.018.298 6.451.956 0 0 2.843 1.272 2.843 5.61 0 0 .036 3.201-.396 5.424-.275 1.41-2.457 2.955-4.963 3.254-1.306.156-2.593.3-3.965.236-2.243-.103-4.01403-.535-4.01403-.535 0 .218.014.426.04.62.084.633.299 1.095.605 1.435.766.85 2.10603.93 3.39503.974 1.82.063 3.44-.449 3.44-.449l.076 1.646s-1.274.684-3.542.81c-1.25.068-2.80303-.032-4.61203-.51-1.532-.406-2.568-1.29-3.27-2.471-1.093-1.843-1.368-4.406-1.431-6.992zm3.3 4.937v-2.548l2.474.605c.43159.0957.86615.1774 1.30303.245.753.116 1.538.2 2.328.235 1.019.047 1.901-.017 3.636-.224 1.663-.199 3.148-1.196 3.236-1.65.082-.422.151-.922.206-1.482.0707-.7466.1164-1.4953.137-2.245.015-.51.02-.945.017-1.256v-.059c0-1.43-.369-2.438-.963-3.158-.1694-.20788-.3658-.39218-.584-.548-.09-.064-.135-.089-.13-.087-1.013-.465-3.093-.752-5.617-.773h-.046c-2.54003.02-4.62003.308-5.65003.782.023-.01-.021.014-.112.078-.21822.15582-.41463.34012-.584.548-.594.72-.963 1.729-.963 3.158 0 .232 0 .397-.003.875-.00897.8394-.0043 1.6788.014 2.518.054 2.197.264 3.835.7 5.041.212.587.472 1.07.78 1.45-.12673-.4914-.18726-.9976-.18-1.505zm1.766-10.575c.30328 0 .59413.12048.80858.33492.21445.21445.33492.50531.33492.80858 0 .30328-.12047.59413-.33492.80858-.21445.21444-.5053.33492-.80858.33492-.30327 0-.59413-.12048-.80857-.33492-.21445-.21445-.33493-.5053-.33493-.80858 0-.30327.12048-.59413.33493-.80858.21444-.21444.5053-.33492.80857-.33492z" /></svg>