<svg fill="currentColor" height="24" viewBox="0 0 24 24" width="24" xmlns="http://www.w3.org/2000/svg"><path d="m11.9996 6.65404c.8097.63554 1.4642 1.44695 1.9139 2.3728.4498.92585.6831 1.94186.6821 2.97116.0007 1.029-.2327 2.0447-.6825 2.9701-.4497.9255-1.1041 1.7366-1.9135 2.3719-.8095-.6354-1.4639-1.4466-1.9137-2.3723-.44971-.9257-.68303-1.9415-.68226-2.9707-.00077-1.0291.23255-2.04494.68226-2.97061.4498-.92566 1.1042-1.73691 1.9137-2.37235zm-.87-.582c-.857.73157-1.54498 1.64052-2.01633 2.66402-.47136 1.02351-.71484 2.13714-.71363 3.26394-.00117 1.1264.24215 2.2395.71314 3.2627.47099 1.0231 1.15842 1.9318 2.01482 2.6633-1.0346.5808-2.20319.8807-3.38962.8699-1.18644-.0108-2.34939-.332-3.37324-.9315-1.02385-.5996-1.87296-1.4567-2.4629-2.4861s-.90019-2.1953-.89989-3.3818.31114-2.35226.9016-3.38139c.59047-1.02912 1.44-1.88579 2.46416-2.48484 1.02415-.59904 2.18726-.91961 3.37371-.92982 1.18644-.01022 2.35488.29027 3.38918.87159zm1.742 11.85396c.8565-.7315 1.5439-1.6402 2.0149-2.6633.471-1.0232.7143-2.1363.7131-3.2627.0012-1.1268-.2422-2.24043-.7136-3.26394-.4713-1.0235-1.1593-1.93245-2.0164-2.66402 1.0344-.58132 2.2028-.88181 3.3893-.87159 1.1864.01021 2.3495.33078 3.3737.92982 1.0241.59905 1.8737 1.45572 2.4641 2.48484.5905 1.02913.9013 2.19489.9016 3.38139s-.3099 2.3524-.8999 3.3818c-.5899 1.0294-1.439 1.8865-2.4629 2.4861-1.0238.5995-2.1868.9207-3.3732.9315s-2.355-.2891-3.3897-.8699z" /></svg>