<svg fill="currentColor" height="24" viewBox="0 0 24 24" width="24" xmlns="http://www.w3.org/2000/svg"><path d="m12 18.2942c-1.1089.6515-2.37023.9985-3.65634 1.0059-1.28611.0073-2.55134-.3252-3.6676-.9641-1.11627-.6388-2.04394-1.5612-2.68913-2.6738s-.98498-2.3759-.98498-3.662.33979-2.54944.98498-3.66204c.64519-1.11259 1.57286-2.03499 2.68913-2.67381 1.11626-.63881 2.38149-.97138 3.6676-.96404 1.28611.00735 2.54744.35435 3.65634 1.00589 1.1089-.65154 2.3702-.99854 3.6563-1.00589 1.2862-.00734 2.5514.32523 3.6676.96404 1.1163.63882 2.044 1.56122 2.6892 2.67381.6452 1.1126.985 2.37594.985 3.66204s-.3398 2.5494-.985 3.662-1.5729 2.035-2.6892 2.6738c-1.1162.6389-2.3814.9714-3.6676.9641-1.2861-.0074-2.5474-.3544-3.6563-1.0059zm1.702-1.384c.8047.327 1.6774.4513 2.5414.3618s1.6927-.3899 2.4133-.8749c.7206-.4849 1.3109-1.1396 1.7191-1.9063s.6217-1.622.6217-2.4906-.2135-1.7239-.6217-2.4906c-.4082-.76671-.9985-1.42136-1.7191-1.90633-.7206-.48498-1.5493-.78542-2.4133-.87489-.864-.08946-1.7367.03479-2.5414.36182 1.2235 1.34226 1.9006 3.0938 1.898 4.91 0 1.89-.719 3.614-1.898 4.91zm-3.404-9.82c-.80468-.32703-1.6774-.45128-2.54138-.36182-.86397.08947-1.69272.38991-2.41331.87489-.7206.48497-1.31095 1.13962-1.71913 1.90633-.40817.7667-.62165 1.622-.62165 2.4906s.21348 1.7239.62165 2.4906c.40818.7667.99853 1.4214 1.71913 1.9063.72059.485 1.54934.7854 2.41331.8749.86398.0895 1.7367-.0348 2.54138-.3618-1.22354-1.3423-1.9006-3.0938-1.898-4.91 0-1.89.719-3.614 1.898-4.91zm1.702 1.115c-.5072.49324-.9101 1.0833-1.185 1.73519-.2748.65191-.4159 1.35231-.415 2.05981 0 1.488.613 2.832 1.6 3.795.5072-.4932.9101-1.0833 1.185-1.7352.2748-.6519.4159-1.3523.415-2.0598.0009-.7075-.1402-1.4079-.415-2.05981-.2749-.65189-.6778-1.24195-1.185-1.73519z" /></svg>