<svg fill="currentColor" height="24" viewBox="0 0 24 24" width="24" xmlns="http://www.w3.org/2000/svg"><path d="m12 7.00002c2.1217 0 4.1566.84286 5.6569 2.34315 1.5002 1.50033 2.3431 3.53513 2.3431 5.65683 0 2.1218-.8429 4.1566-2.3431 5.6569-1.5003 1.5003-3.5352 2.3431-5.6569 2.3431-2.12173 0-4.15656-.8428-5.65685-2.3431-1.5003-1.5003-2.34315-3.5351-2.34315-5.6569 0-2.1217.84285-4.1565 2.34315-5.65683 1.50029-1.50029 3.53512-2.34315 5.65685-2.34315zm0 3.49998-1.323 2.68-2.957.43 2.14 2.085-.505 2.946 2.645-1.391 2.645 1.39-.505-2.945 2.14-2.086-2.957-.43zm1-8.50098 5 .001v3l-1.363 1.138c-1.1311-.59341-2.3659-.96316-3.637-1.089v-3.049zm-2 0v3.05c-1.27065.12565-2.50518.49506-3.636 1.088l-1.364-1.137v-3z" /></svg>