<svg fill="currentColor" height="24" viewBox="0 0 24 24" width="24" xmlns="http://www.w3.org/2000/svg"><path d="m4 3h16c.2652 0 .5196.10536.7071.29289.1875.18754.2929.44189.2929.70711v16c0 .2652-.1054.5196-.2929.7071s-.4419.2929-.7071.2929h-16c-.26522 0-.51957-.1054-.70711-.2929-.18753-.1875-.29289-.4419-.29289-.7071v-16c0-.26522.10536-.51957.29289-.70711.18754-.18753.44189-.29289.70711-.29289zm13.3 12.94c-.1-.05-.15-.2-.15-.301v-7.633c0-.1.05-.25.15-.351l.955-1.105v-.05h-3.415l-2.56 6.478-2.914-6.478h-3.514v.05l.903 1.256c.201.2.251.502.251.753v5.523c.05.302 0 .653-.15.954l-1.356 1.858v.05h3.616v-.05l-1.356-1.807c-.15-.302-.201-.603-.15-.954v-5.023c.05.1.1.1.15.301l3.414 7.633h.05l3.316-8.284c-.05.3-.05.652-.05.904v5.925c0 .15-.05.25-.15.351l-1.005.954v.05h4.921v-.05l-.954-.954z" /></svg>