<svg fill="currentColor" height="24" viewBox="0 0 24 24" width="24" xmlns="http://www.w3.org/2000/svg"><path d="m4 3h16c.2652 0 .5196.10536.7071.29289.1875.18754.2929.44189.2929.70711v16c0 .2652-.1054.5196-.2929.7071s-.4419.2929-.7071.2929h-16c-.26522 0-.51957-.1054-.70711-.2929-.18753-.1875-.29289-.4419-.29289-.7071v-16c0-.26522.10536-.51957.29289-.70711.18754-.18753.44189-.29289.70711-.29289zm1 2v14h14v-14zm12.3 10.94.955.954v.05h-4.921v-.05l1.004-.954c.1-.1.15-.2.15-.351v-5.925c0-.252 0-.603.051-.904l-3.314 8.285h-.05l-3.415-7.633c-.05-.2-.1-.2-.15-.3v5.02c-.051.352 0 .653.15.955l1.356 1.807v.05h-3.616v-.05l1.356-1.858c.15-.3.2-.652.15-.954v-5.522c0-.251-.05-.553-.25-.753l-.905-1.257v-.05h3.515l2.912 6.478 2.562-6.478h3.415v.05l-.954 1.105c-.1.1-.15.251-.15.351v7.633c0 .1.05.251.15.301z" /></svg>