<svg fill="currentColor" height="24" viewBox="0 0 24 24" width="24" xmlns="http://www.w3.org/2000/svg"><path d="m15.05 8.537 3.535-3.537h-4.585v-2h8v8h-2v-4.586l-3.537 3.537c1.1538 1.5125 1.6898 3.407 1.4993 5.2998-.1904 1.8929-1.0931 3.6426-2.5251 4.8949-1.4321 1.2523-3.2865 1.9137-5.1879 1.8501-1.90129-.0636-3.7074-.8473-5.0526-2.1925-1.34519-1.3452-2.12893-3.1513-2.19251-5.0527-.06358-1.9013.59775-3.7557 1.85007-5.1878 1.25232-1.43205 3.00205-2.3347 4.89488-2.52516 1.89286-.19045 3.78726.34551 5.29986 1.49936zm-4.55 11.463c1.4587 0 2.8576-.5795 3.8891-1.6109 1.0314-1.0315 1.6109-2.4304 1.6109-3.8891s-.5795-2.8576-1.6109-3.8891c-1.0315-1.03144-2.4304-1.6109-3.8891-1.6109-1.45872 0-2.85767.57946-3.88912 1.6109-1.03145 1.0315-1.61091 2.4304-1.61091 3.8891s.57946 2.8576 1.61091 3.8891c1.03145 1.0314 2.4304 1.6109 3.88912 1.6109z" /></svg>