<svg fill="currentColor" height="24" viewBox="0 0 24 24" width="24" xmlns="http://www.w3.org/2000/svg"><path d="m11 2c4.068 0 7.426 3.036 7.934 6.965l2.25 3.539c.148.233.118.58-.225.728l-1.959.838v2.93c0 1.105-.895 2-2 2h-1.999l-.001 3h-9v-3.694c0-1.18-.436-2.297-1.244-3.305-1.099-1.37-1.756-3.109-1.756-5.001 0-4.418 3.582-8 8-8zm-.53 5.763c-.684-.684-1.792-.684-2.475 0-.684.683-.684 1.791 0 2.474l3.005 3.006 3.005-3.006c.684-.683.684-1.791 0-2.474-.683-.684-1.791-.684-2.475 0l-.53.53z" /></svg>