<svg fill="currentColor" height="24" viewBox="0 0 24 24" width="24" xmlns="http://www.w3.org/2000/svg"><path d="m12 2c5.634 0 10 4.127 10 9.7s-4.366 9.7-10 9.7c-.9779.0025-1.9516-.1266-2.895-.384-.1772-.0487-.36576-.0349-.534.039l-1.984.876c-.11987.053-.25092.0757-.38163.0662-.1307-.0096-.25706-.0511-.36797-.1209s-.20296-.1658-.26807-.2796c-.06511-.1137-.10128-.2417-.10533-.3727l-.055-1.78c-.0036-.1082-.02923-.2146-.0753-.3126-.04608-.098-.11165-.1856-.1927-.2574-1.946-1.739-3.141-4.257-3.141-7.174 0-5.573 4.367-9.7 10-9.7zm-6.005 12.537c-.282.447.268.951.689.631l3.155-2.394c.10413-.0786.231-.1211.3615-.1211s.2574.0425.3615.1211l2.337 1.75c.1658.1243.3555.213.5572.2604.2018.0473.4111.0524.6149.0148s.3976-.117.5692-.2332.3172-.2667.4277-.442l2.937-4.66c.282-.448-.268-.952-.689-.633l-3.155 2.396c-.1041.0786-.231.1211-.3615.1211s-.2574-.0425-.3615-.1211l-2.337-1.75c-.1658-.12435-.3555-.213-.5572-.26036-.2018-.04737-.4111-.05242-.61493-.01484-.20379.03758-.39758.11698-.56916.23319-.17157.11621-.3172.26671-.42771.44201z" /></svg>