<svg fill="currentColor" height="24" viewBox="0 0 24 24" width="24" xmlns="http://www.w3.org/2000/svg"><path d="m2 8.99401c-.00053-.7878.15435-1.56796.45577-2.29582.30141-.72785.74344-1.3891 1.30078-1.94588.55733-.55678 1.21903-.99815 1.94718-1.29883.72816-.30069 1.50848-.45479 2.29627-.45347h8c3.313 0 6 2.695 6 5.994v12.00599h-14c-3.313 0-6-2.695-6-5.994zm18 10.00599v-10.00599c-.0026-1.0595-.4251-2.07476-1.1749-2.82338-.7497-.74862-1.7656-1.16957-2.8251-1.17062h-8c-.52515-.00132-1.0454.10105-1.5309.30122-.48551.20018-.92672.49423-1.29834.86529s-.66633.81183-.86723 1.29704c-.20091.4852-.30406 1.0053-.30353 1.53045v6.01199c.00265 1.0595.42511 2.0748 1.17486 2.8234.74974.7486 1.76564 1.1696 2.82514 1.1706zm-6-8h2v2h-2zm-6 0h2v2h-2z" /></svg>