<svg fill="currentColor" height="24" viewBox="0 0 24 24" width="24" xmlns="http://www.w3.org/2000/svg"><path d="m7.764 19.225c.59-.26 1.25-.309 1.868-.139.77.21 1.565.316 2.368.314 4.585 0 8-3.287 8-7.7s-3.415-7.7-8-7.7-8 3.287-8 7.7c0 2.27.896 4.272 2.466 5.676.28526.2527.51594.5609.67791.9058.16198.345.25184.7193.26409 1.1002zm4.236-17.225c5.634 0 10 4.127 10 9.7s-4.366 9.7-10 9.7c-.9779.0025-1.9516-.1266-2.895-.384-.1772-.0487-.36576-.0349-.534.039l-1.984.876c-.11987.053-.25092.0757-.38163.0662-.1307-.0096-.25706-.0511-.36797-.1209s-.20296-.1658-.26807-.2796c-.06511-.1137-.10128-.2417-.10533-.3727l-.055-1.78c-.0036-.1082-.02923-.2146-.0753-.3126-.04608-.098-.11165-.1856-.1927-.2574-1.946-1.739-3.141-4.257-3.141-7.174 0-5.573 4.367-9.7 10-9.7zm-6.005 12.537 2.937-4.66c.1105-.17545.25618-.32608.42784-.44238.17165-.11631.36556-.19576.56947-.23335.20389-.03759.41339-.03249.61519.01497.2019.04746.3917.13625.5575.26076l2.336 1.75c.1041.0786.231.1211.3615.1211s.2574-.0425.3615-.1211l3.155-2.396c.421-.319.971.185.689.633l-2.937 4.66c-.1105.1754-.2562.3261-.4278.4424-.1717.1163-.3656.1957-.5695.2333s-.4134.0325-.6152-.0149c-.2019-.0475-.3917-.1363-.5575-.2608l-2.336-1.75c-.1041-.0786-.231-.1211-.3615-.1211s-.25737.0425-.3615.1211l-3.155 2.395c-.421.319-.971-.185-.689-.633z" /></svg>