<svg fill="currentColor" height="24" viewBox="0 0 24 24" width="24" xmlns="http://www.w3.org/2000/svg"><path d="m21 1v12c-.0002 1.5736-.413 3.1197-1.1973 4.484-.7842 1.3643-1.9125 2.4991-3.2722 3.2912-1.3597.7922-2.9033 1.214-4.4769 1.2234-1.5736.0093-3.12218-.3941-4.49122-1.17s-2.51072-1.8972-3.31114-3.252c-.80043-1.3549-1.23163-2.8959-1.25059-4.4694-.01896-1.5736.37498-3.12455 1.14253-4.4983.76755-1.37374 1.88187-2.52223 3.23182-3.3309l6.625-3.825v2.77zm-9 7c-1.3261 0-2.59785.52678-3.53553 1.46447-.93769.93763-1.46447 2.20943-1.46447 3.53553s.52678 2.5979 1.46447 3.5355c.93768.9377 2.20943 1.4645 3.53553 1.4645s2.5979-.5268 3.5355-1.4645c.9377-.9376 1.4645-2.2094 1.4645-3.5355s-.5268-2.5979-1.4645-3.53553c-.9376-.93769-2.2094-1.46447-3.5355-1.46447z" /></svg>