<svg fill="currentColor" height="24" viewBox="0 0 24 24" width="24" xmlns="http://www.w3.org/2000/svg"><path d="m21 1v12c-.0002 1.5736-.413 3.1197-1.1973 4.484-.7842 1.3643-1.9125 2.4991-3.2722 3.2912-1.3597.7922-2.9033 1.214-4.4769 1.2234-1.5736.0093-3.12218-.3941-4.49122-1.17s-2.51072-1.8972-3.31114-3.252c-.80043-1.3549-1.23163-2.8959-1.25059-4.4694-.01896-1.5736.37498-3.12455 1.14253-4.4983.76755-1.37374 1.88187-2.52223 3.23182-3.3309l6.625-3.825v2.77zm-2 3.122-7 3.224v-2.43l-3.403 1.965c-1.05022.58385-1.93239 1.42831-2.56152 2.45205-.62914 1.02375-.98402 2.19225-1.03048 3.39295l-.005.274c-.0009 1.8363.71983 3.5995 2.0068 4.9093 1.28698 1.3099 3.0371 2.0616 4.8732 2.0931 1.836.0315 3.6109-.6598 4.9421-1.9248 1.3311-1.2649 2.1118-3.0023 2.1739-4.8376l.004-.24zm-7 3.878c1.3261 0 2.5979.52678 3.5355 1.46447.9377.93763 1.4645 2.20943 1.4645 3.53553s-.5268 2.5979-1.4645 3.5355c-.9376.9377-2.2094 1.4645-3.5355 1.4645s-2.59785-.5268-3.53553-1.4645c-.93769-.9376-1.46447-2.2094-1.46447-3.5355s.52678-2.5979 1.46447-3.53553c.93768-.93769 2.20943-1.46447 3.53553-1.46447zm0 2c-.7956 0-1.5587.3161-2.12132.8787-.56261.5626-.87868 1.3257-.87868 2.1213s.31607 1.5587.87868 2.1213c.56262.5626 1.32572.8787 2.12132.8787s1.5587-.3161 2.1213-.8787.8787-1.3257.8787-2.1213-.3161-1.5587-.8787-2.1213-1.3257-.8787-2.1213-.8787z" /></svg>