<svg fill="currentColor" height="24" viewBox="0 0 24 24" width="24" xmlns="http://www.w3.org/2000/svg"><path d="m16.4246 17.8391c-1.0549.597-2.2202.9733-3.425 1.106v4.055h-2v-4.055c-2.02889-.2275-3.92024-1.1376-5.36385-2.5812-1.4436-1.4436-2.35376-3.335-2.58117-5.3638h2.015c.1559 1.0794.56179 2.1074 1.18531 3.0022.62353.8948 1.44746 1.6316 2.40611 2.1516s2.0255.8089 3.1156.8437c1.09.0347 2.1732-.1856 3.163-.6435l-1.551-1.55c-.7448.2153-1.5295.2546-2.2921.1145-.7626-.14-1.48213-.4555-2.10182-.9214-.61969-.466-1.12253-1.0697-1.46879-1.7634-.34625-.6937-.52644-1.4584-.52631-2.2337v-1.58605l-5.607-5.606 1.415-1.415 19.79902 19.80005-1.415 1.414zm-7.39202-7.392 2.52002 2.52c-.6341-.0958-1.2209-.3922-1.67442-.8456-.45349-.4535-.74982-1.0403-.8456-1.6744zm10.34202 4.713-1.443-1.442c.509-.81.856-1.73.997-2.718h2.016c-.1651 1.4966-.7051 2.9274-1.57 4.16zm-2.91-2.909-1.548-1.548c.054-.226.083-.46.083-.703v-4.00005c.0007-.70529-.2471-1.38828-.6999-1.92903-.4529-.54074-1.0817-.90466-1.7762-1.02784-.6944-.12319-1.4101.00225-2.0212.35426-.6112.35202-1.0788.90811-1.32072 1.57061l-1.496-1.497c.5551-.94738 1.40664-1.68569 2.42312-2.10094 1.0165-.415249 2.1414-.484343 3.2011-.19662 1.0596.28773 1.9951.91628 2.662 1.78861s1.0281 1.93992 1.0278 3.03795v4.00005c.0011.7818-.1818 1.5529-.534 2.251z" /></svg>