<svg fill="currentColor" height="24" viewBox="0 0 24 24" width="24" xmlns="http://www.w3.org/2000/svg"><path d="m11.9997 1c.6566 0 1.3068.12933 1.9134.3806.6066.25128 1.1578.61957 1.6221 1.08387.4643.46429.8326 1.01548 1.0839 1.62211s.3806 1.25681.3806 1.91342v4c0 1.3261-.5268 2.5979-1.4645 3.5355-.9377.9377-2.2094 1.4645-3.5355 1.4645s-2.59786-.5268-3.53555-1.4645c-.93768-.9376-1.46446-2.2094-1.46446-3.5355v-4c0-1.32608.52678-2.59785 1.46446-3.53553.93769-.93769 2.20945-1.46447 3.53555-1.46447zm-8.94501 10h2.015c.24229 1.6648 1.07587 3.1867 2.34823 4.2873s2.89848 1.7063 4.58078 1.7063 3.3084-.6057 4.5808-1.7063c1.2723-1.1006 2.1059-2.6225 2.3482-4.2873h2.016c-.2274 2.0287-1.1374 3.9199-2.5808 5.3635s-3.3345 2.3539-5.3632 2.5815v4.055h-2v-4.055c-2.02888-.2274-3.92023-1.1376-5.36384-2.5812-1.4436-1.4436-2.35376-3.3349-2.58117-5.3638z" /></svg>