<svg fill="currentColor" height="24" viewBox="0 0 24 24" width="24" xmlns="http://www.w3.org/2000/svg"><path d="m18.4997 2c1.1171-.0006 2.1945.41432 3.0226 1.16405s1.3478 1.78067 1.4579 2.89232c.1101 1.11164-.1971 2.22451-.8621 3.12215-.6649.89768-1.6399 1.51588-2.7354 1.73448l.011.027c.4952 1.1962.6926 2.4946.5755 3.7839-.1172 1.2892-.5455 2.5308-1.2482 3.6181s-1.6587 1.9878-2.786 2.6243c-1.1274.6364-2.3923.9898-3.6863 1.0297l-.249.004c-1.3182.0003-2.61606-.3251-3.77818-.9473-1.16211-.6222-2.15246-1.522-2.88299-2.6193-.73052-1.0972-1.17859-2.358-1.30434-3.6702s.0747-2.6351.58352-3.8512c-1.09626-.2175-2.07234-.8352-2.73813-1.73287s-.973628-2.01102-.86356-3.12322c.11007-1.1122.63017-2.14361 1.45901-2.89336.82883-.74976 1.90706-1.16418 3.02468-1.16255 1.15085.00007 2.25792.44106 3.09362 1.2323.83569.79124 1.33647 1.87258 1.39938 3.0217l.07299-.019c.6327-.15665 1.2822-.23557 1.934-.235l.25.004c.5928.01799 1.1818.10184 1.756.25.0629-1.14929.5639-2.23078 1.3998-3.02204.8359-.79127 1.9432-1.23214 3.0942-1.23196zm-6.5 6c-.7879 0-1.5681.1552-2.29609.45673-.72795.30153-1.38939.74348-1.94654 1.30063-.55715.55714-.99911 1.21864-1.30063 1.94654-.30153.728-.45673 1.5082-.45673 2.2961s.1552 1.5682.45673 2.2961c.30152.728.74348 1.3894 1.30063 1.9465.55715.5572 1.21859.9992 1.94654 1.3007.72799.3015 1.50819.4567 2.29609.4567 1.5913 0 3.1174-.6321 4.2427-1.7574 1.1252-1.1252 1.7573-2.6513 1.7573-4.2426s-.6321-3.1174-1.7573-4.24264c-1.1253-1.12521-2.6514-1.75736-4.2427-1.75736zm-6.49999-4c-.66304 0-1.29892.2634-1.76776.73224s-.73224 1.10472-.73224 1.76776c0 .66305.2634 1.29893.73224 1.76777s1.10472.73223 1.76776.73223l.164-.005.103-.01c.51958-.64581 1.13586-1.20744 1.827-1.665l.33-.206c.09349-.36897.10148-.75442.02338-1.12696-.0781-.37253-.24023-.72232-.47404-1.02268-.2338-.30036-.53311-.54336-.87509-.71049-.34198-.16712-.71761-.25395-1.09825-.25387zm12.99999 0c-.3636-.00012-.7228.07906-1.0526.23203-.3299.15296-.6224.37603-.8572.65365-.2347.27761-.4061.6031-.5022.95376s-.1145.71805-.054 1.07656l.043.2.028.016c.813.4871 1.5334 1.11408 2.128 1.852.3387.03845.6816.00724 1.0078-.0917.3261-.09894.6286-.26353.8888-.48365s.4727-.49112.6243-.79636c.1517-.30523.2393-.63825.2575-.97859.0183-.34034-.0333-.68082-.1515-1.00051-.1181-.31969-.3004-.61184-.5356-.8585s-.5184-.44262-.8321-.57584-.6514-.20089-.9922-.19885z" /></svg>