<svg fill="currentColor" height="24" viewBox="0 0 24 24" width="24" xmlns="http://www.w3.org/2000/svg"><path d="m18.4997 2c1.1171-.0006 2.1945.41432 3.0226 1.16405s1.3478 1.78067 1.4579 2.89232c.1101 1.11164-.1971 2.22451-.8621 3.12215-.6649.89768-1.6399 1.51588-2.7354 1.73448.5075 1.2158.7068 2.5382.5803 3.8496-.1264 1.3114-.5749 2.5712-1.3054 3.6677-.7305 1.0964-1.7205 1.9954-2.882 2.6172s-2.4586.9471-3.7761.947-2.6146-.3256-3.77605-.9475c-1.16144-.622-2.15131-1.5211-2.88167-2.6176-.73036-1.0966-1.17861-2.3565-1.30492-3.6679-.12632-1.3114.07321-2.6337.58085-3.8495-1.09626-.2175-2.07234-.8352-2.73813-1.73287s-.973628-2.01102-.86356-3.12322c.11007-1.1122.63017-2.14361 1.45901-2.89336.82883-.74976 1.90706-1.16418 3.02468-1.16255 1.15085.00007 2.25792.44106 3.09362 1.2323.83569.79124 1.33647 1.87258 1.39938 3.0217.65559-.16927 1.32999-.25462 2.00699-.254.693 0 1.365.088 2.006.254.0629-1.14929.5639-2.23078 1.3998-3.02204.8359-.79127 1.9432-1.23214 3.0942-1.23196z" /></svg>