<svg fill="currentColor" height="24" viewBox="0 0 24 24" width="24" xmlns="http://www.w3.org/2000/svg"><path d="m13.196 2.26784 3.25 5.63c.276.477.112 1.089-.366 1.365l-1.3.74996 1.001 1.732-1.732 1-1-1.733-1.299.751c-.478.276-1.09.112-1.366-.366l-1.838-3.18196c-2.052.622-3.546 2.52996-3.546 4.78496 0 .625.115 1.224.324 1.776.776-.492 1.692-.776 2.676-.776 1.684 0 3.174.833 4.08 2.109l7.688-4.439 1 1.732-7.878 4.549c.072.338.11.69.11 1.049 0 .343-.034.677-.1 1h8.1v2l-17 .001c-.628-.836-1-1.875-1-3.001 0-1.007.298-1.945.81-2.73-.517-.975-.81-2.088-.81-3.27 0-2.995 1.881-5.55096 4.527-6.54996l-.393-.682c-.552-.957-.225-2.18.732-2.732l2.598-1.5c.957-.552002 2.18-.225 2.732.732z" /></svg>