<svg fill="currentColor" height="24" viewBox="0 0 24 24" width="24" xmlns="http://www.w3.org/2000/svg"><path d="m12 22c-5.523 0-10-4.477-10-10s4.477-10 10-10 10 4.477 10 10-4.477 10-10 10zm0-2c2.1217 0 4.1566-.8429 5.6569-2.3431 1.5002-1.5003 2.3431-3.5352 2.3431-5.6569 0-2.12173-.8429-4.15656-2.3431-5.65685-1.5003-1.5003-3.5352-2.34315-5.6569-2.34315-2.12173 0-4.15656.84285-5.65685 2.34315-1.5003 1.50029-2.34315 3.53512-2.34315 5.65685 0 2.1217.84285 4.1566 2.34315 5.6569 1.50029 1.5002 3.53512 2.3431 5.65685 2.3431zm1-6c-.0002.6274-.169 1.2432-.4887 1.783-.3198.5398-.7788.9837-1.329 1.2852-.5501.3016-1.1712.4498-1.79828.429-.62705-.0208-1.23698-.2098-1.76596-.5471-.52898-.3374-.95755-.8107-1.24087-1.3705s-.41096-1.1854-.36956-1.8114c.04139-.6261.2503-1.2295.60485-1.7471.35456-.5176.84173-.9303 1.41052-1.1951.11904-.0555.24785-.087.37906-.0927.13122-.0057.26227.0145.38568.0595.12341.0449.23676.1137.33357.2025.09682.0887.17521.1957.23069.3147s.08698.2478.09268.3791c.0057.1312-.01449.2622-.05943.3856-.04495.1234-.11376.2368-.20251.3336s-.1957.1752-.31474.2307c-.24388.1133-.45282.2901-.60494.5118-.15212.2218-.24183.4804-.25973.7487s.03666.5365.15797.7765.30491.443.53158.5877.48808.2258.75684.2348c.26877.009.53502-.0544.77088-.1836.2359-.1292.4326-.3194.5698-.5507.1371-.2313.2095-.4953.2096-.7642v-4c.0002-.62739.169-1.24321.4887-1.78299.3198-.53978.7788-.98369 1.329-1.28526.5501-.30156 1.1712-.4497 1.7983-.42891.627.02079 1.237.20974 1.7659.54709.529.33735.9576.81068 1.2409 1.37046s.411 1.18542.3696 1.81141c-.0414.6261-.2503 1.2295-.6049 1.7471-.3545.5176-.8417.9303-1.4105 1.1951-.119.0555-.2478.087-.3791.0927-.1312.0057-.2622-.0145-.3856-.0595-.1234-.0449-.2368-.1137-.3336-.2025-.0968-.0887-.1752-.1957-.2307-.3147-.1121-.2404-.124-.5155-.0332-.7647.0907-.2493.2768-.4522.5172-.5643.2439-.1133.4528-.2901.6049-.5118.1522-.2218.2419-.4804.2598-.7487.0179-.26832-.0367-.53653-.158-.77653s-.3049-.44297-.5316-.58767-.4881-.2258-.7568-.23482c-.2688-.00901-.535.0544-.7709.18358-.2359.12919-.4326.31941-.5698.55074-.1371.23134-.2095.49528-.2096.7642z" /></svg>