<svg fill="currentColor" height="24" viewBox="0 0 24 24" width="24" xmlns="http://www.w3.org/2000/svg"><path d="m3 3h18c.2652 0 .5196.10536.7071.29289.1875.18754.2929.44189.2929.70711v16c0 .2652-.1054.5196-.2929.7071s-.4419.2929-.7071.2929h-18c-.26522 0-.51957-.1054-.70711-.2929-.18753-.1875-.29289-.4419-.29289-.7071v-16c0-.26522.10536-.51957.29289-.70711.18754-.18753.44189-.29289.70711-.29289zm6 10v2h-1v2h8v-2h-5v-2h3v-2h-3v-1c-.0002-.32389.1044-.63916.2982-.89867s.4664-.44932.777-.54104c.3106-.09173.6426-.08045.9463.03216.3037.1126.5628.32048.7385.59255l1.986-.496c-.3048-.7527-.8618-1.37603-1.5757-1.76324-.7138-.38722-1.54-.51424-2.3372-.35932s-1.5157.58214-2.03251 1.20852c-.51685.62638-.79986 1.41296-.80059 2.22504v1h-1v2z" /></svg>