<svg fill="currentColor" height="24" viewBox="0 0 24 24" width="24" xmlns="http://www.w3.org/2000/svg"><path d="m12 22c-5.523 0-10-4.477-10-10s4.477-10 10-10 10 4.477 10 10-4.477 10-10 10zm0-2c2.1217 0 4.1566-.8429 5.6569-2.3431 1.5002-1.5003 2.3431-3.5352 2.3431-5.6569 0-2.12173-.8429-4.15656-2.3431-5.65685-1.5003-1.5003-3.5352-2.34315-5.6569-2.34315-2.12173 0-4.15656.84285-5.65685 2.34315-1.5003 1.50029-2.34315 3.53512-2.34315 5.65685 0 2.1217.84285 4.1566 2.34315 5.6569 1.50029 1.5002 3.53512 2.3431 5.65685 2.3431zm-3-7h-1v-2h1v-1c-.00046-.81273.28193-1.6003.79872-2.22756.51678-.62726 1.23578-1.05512 2.03358-1.21016.7978-.15505 1.6247-.02761 2.3388.36044s1.2709 1.01253 1.5749 1.76628l-1.986.496c-.1753-.27278-.4344-.48135-.7383-.59443s-.6362-.12456-.9472-.03273-.5838.28202-.7776.54205c-.1937.26002-.2979.57585-.2969.90011v1h3v2h-3v2h5v2h-8v-2h1z" /></svg>