<svg fill="currentColor" height="24" viewBox="0 0 24 24" width="24" xmlns="http://www.w3.org/2000/svg"><path d="m3 3h18c.2652 0 .5196.10536.7071.29289.1875.18754.2929.44189.2929.70711v16c0 .2652-.1054.5196-.2929.7071s-.4419.2929-.7071.2929h-18c-.26522 0-.51957-.1054-.70711-.2929-.18753-.1875-.29289-.4419-.29289-.7071v-16c0-.26522.10536-.51957.29289-.70711.18754-.18753.44189-.29289.70711-.29289zm1 2v14h16v-14zm6.05 6h4.95v2h-4.95c.0866.4253.2825.8208.5684 1.1474.2858.3267.6518.5733 1.0619.7155.41.1423.8501.1754 1.2768.096.4268-.0795.8255-.2686 1.1569-.5489l1.7 1.133c-.5842.6359-1.3389 1.0903-2.1743 1.309s-1.716.1925-2.5368-.0756c-.8209-.2681-1.54722-.7667-2.09245-1.4363-.54522-.6696-.88627-1.482-.98245-2.3401h-1.028v-2h1.027c.09585-.8586.43682-1.67139.98216-2.3414.54535-.67001 1.27204-1.16888 2.09324-1.43703s1.7023-.29425 2.538-.07518c.8356.21907 1.5905.67406 2.1746 1.31061l-1.701 1.133c-.3314-.28028-.7301-.46944-1.1569-.54886-.4267-.07942-.8668-.04636-1.2768.09592-.4101.14227-.7761.38887-1.0619.71552-.2859.32662-.4818.72212-.5684 1.14742z" /></svg>