<svg fill="currentColor" height="24" viewBox="0 0 24 24" width="24" xmlns="http://www.w3.org/2000/svg"><path d="m3 3h18c.2652 0 .5196.10536.7071.29289.1875.18754.2929.44189.2929.70711v16c0 .2652-.1054.5196-.2929.7071s-.4419.2929-.7071.2929h-18c-.26522 0-.51957-.1054-.70711-.2929-.18753-.1875-.29289-.4419-.29289-.7071v-16c0-.26522.10536-.51957.29289-.70711.18754-.18753.44189-.29289.70711-.29289zm1 2v14h16v-14zm5 8h-1v-2h1v-1c-.00046-.81273.28193-1.6003.79872-2.22756.51678-.62726 1.23578-1.05512 2.03358-1.21016.7978-.15505 1.6247-.02761 2.3388.36044s1.2709 1.01253 1.5749 1.76628l-1.986.496c-.1753-.27278-.4344-.48135-.7383-.59443s-.6362-.12456-.9472-.03273-.5838.28202-.7776.54205c-.1937.26002-.2979.57585-.2969.90011v1h3v2h-3v2h5v2h-8v-2h1z" /></svg>