<svg fill="currentColor" height="24" viewBox="0 0 24 24" width="24" xmlns="http://www.w3.org/2000/svg"><path d="m12 22c-5.523 0-10-4.477-10-10s4.477-10 10-10 10 4.477 10 10-4.477 10-10 10zm-1.95-11c.0866-.4253.2825-.8208.5684-1.14742.2858-.32665.6518-.57325 1.0619-.71552.41-.14228.8501-.17534 1.2768-.09592.4268.07942.8255.26858 1.1569.54886l1.701-1.133c-.5841-.63624-1.339-1.09094-2.1745-1.30983-.8355-.21888-1.7163-.1927-2.5374.07542-.821.26813-1.54751.76686-2.09279 1.43667-.54529.66981-.88629 1.48244-.98231 2.34074h-1.028v2h1.027c.09585.8586.43682 1.6714.98216 2.3414.54535.67 1.27204 1.1689 2.09324 1.437.8212.2682 1.7023.2943 2.538.0752.8356-.2191 1.5905-.674 2.1746-1.3106l-1.701-1.134c-.3314.2803-.73.4695-1.1567.5489-.4266.0795-.8666.0465-1.2767-.0956-.4101-.1422-.776-.3887-1.062-.7152-.2859-.3265-.4818-.7219-.5686-1.1471l4.95.001v-2h-4.95z" /></svg>