<svg fill="currentColor" height="24" viewBox="0 0 24 24" width="24" xmlns="http://www.w3.org/2000/svg"><path d="m3 3h18c.2652 0 .5196.10536.7071.29289.1875.18754.2929.44189.2929.70711v16c0 .2652-.1054.5196-.2929.7071s-.4419.2929-.7071.2929h-18c-.26522 0-.51957-.1054-.70711-.2929-.18753-.1875-.29289-.4419-.29289-.7071v-16c0-.26522.10536-.51957.29289-.70711.18754-.18753.44189-.29289.70711-.29289zm1 2v14h16v-14zm9 8h3v2h-3v2h-2v-2h-3v-2h3v-1h-3v-2h2.586l-2.122-2.121 1.416-1.415 2.12 2.122 2.121-2.122 1.415 1.415-2.122 2.121h2.586v2h-3z" /></svg>