<svg fill="currentColor" height="24" viewBox="0 0 24 24" width="24" xmlns="http://www.w3.org/2000/svg"><path d="m12 22c-5.523 0-10-4.477-10-10s4.477-10 10-10 10 4.477 10 10-4.477 10-10 10zm-3-9v2h-1v2h8v-2h-5v-2h3v-2h-3v-1c-.0002-.32389.1044-.63916.2982-.89867s.4664-.44932.777-.54104c.3106-.09173.6426-.08045.9463.03216.3037.1126.5628.32048.7385.59255l1.986-.496c-.3048-.7527-.8618-1.37603-1.5757-1.76324-.7138-.38722-1.54-.51424-2.3372-.35932s-1.5157.58214-2.03251 1.20852c-.51685.62638-.79986 1.41296-.80059 2.22504v1h-1v2z" /></svg>