<svg fill="currentColor" height="24" viewBox="0 0 24 24" width="24" xmlns="http://www.w3.org/2000/svg"><path d="m3 3h18c.2652 0 .5196.10536.7071.29289.1875.18754.2929.44189.2929.70711v16c0 .2652-.1054.5196-.2929.7071s-.4419.2929-.7071.2929h-18c-.26522 0-.51957-.1054-.70711-.2929-.18753-.1875-.29289-.4419-.29289-.7071v-16c0-.26522.10536-.51957.29289-.70711.18754-.18753.44189-.29289.70711-.29289zm1 2v14h16v-14zm4.5 9h5.5c.1326 0 .2598-.0527.3536-.1464.0937-.0938.1464-.221.1464-.3536s-.0527-.2598-.1464-.3536c-.0938-.0937-.221-.1464-.3536-.1464h-4c-.66304 0-1.29893-.2634-1.76777-.7322-.46884-.4689-.73223-1.1048-.73223-1.7678 0-.66304.26339-1.29893.73223-1.76777s1.10473-.73223 1.76777-.73223h1v-2h2v2h2.5v2h-5.5c-.13261 0-.25979.0527-.35355.1464-.09377.0938-.14645.221-.14645.3536s.05268.2598.14645.3536c.09376.0937.22094.1464.35355.1464h4c.663 0 1.2989.2634 1.7678.7322.4688.4689.7322 1.1048.7322 1.7678s-.2634 1.2989-.7322 1.7678c-.4689.4688-1.1048.7322-1.7678.7322h-1v2h-2v-2h-2.5z" /></svg>