<svg fill="currentColor" height="24" viewBox="0 0 24 24" width="24" xmlns="http://www.w3.org/2000/svg"><path d="m12 22c-5.523 0-10-4.477-10-10s4.477-10 10-10 10 4.477 10 10-4.477 10-10 10zm0-2c2.1217 0 4.1566-.8429 5.6569-2.3431 1.5002-1.5003 2.3431-3.5352 2.3431-5.6569 0-2.12173-.8429-4.15656-2.3431-5.65685-1.5003-1.5003-3.5352-2.34315-5.6569-2.34315-2.12173 0-4.15656.84285-5.65685 2.34315-1.5003 1.50029-2.34315 3.53512-2.34315 5.65685 0 2.1217.84285 4.1566 2.34315 5.6569 1.50029 1.5002 3.53512 2.3431 5.65685 2.3431zm-1.95-9h4.95v2h-4.95c.0866.4253.2825.8208.5684 1.1474.2858.3267.6518.5733 1.0619.7155.41.1423.8501.1754 1.2768.096.4268-.0795.8255-.2686 1.1569-.5489l1.7 1.133c-.5842.6359-1.3389 1.0903-2.1743 1.309s-1.716.1925-2.5368-.0756c-.8209-.2681-1.54722-.7667-2.09245-1.4363-.54522-.6696-.88627-1.482-.98245-2.3401h-1.028v-2h1.027c.09585-.8586.43682-1.67139.98216-2.3414.54535-.67001 1.27204-1.16888 2.09324-1.43703s1.7023-.29425 2.538-.07518c.8356.21907 1.5905.67406 2.1746 1.31061l-1.701 1.133c-.3314-.28028-.7301-.46944-1.1569-.54886-.4267-.07942-.8668-.04636-1.2768.09592-.4101.14227-.7761.38887-1.0619.71552-.2859.32662-.4818.72212-.5684 1.14742z" /></svg>