<svg fill="currentColor" height="24" viewBox="0 0 24 24" width="24" xmlns="http://www.w3.org/2000/svg"><path d="m11.38 2.01904c-.7369.68662-1.3279 1.51463-1.73781 2.43462-.40992.92-.63034 1.91313-.64811 2.92016-.01776 1.00703.16748 2.00732.54469 2.94118.37721.9339.93863 1.7822 1.65083 2.4944s1.5605 1.2737 2.4944 1.6509 1.9342.5624 2.9412.5447c1.0071-.0178 2.0002-.2382 2.9202-.6481.92-.41 1.748-1.001 2.4346-1.7379-.318 5.235-4.664 9.381-9.979 9.381-5.524 0-10.001-4.477-10.001-10 0-5.31496 4.146-9.66096 9.38-9.98096z" /></svg>