<svg fill="currentColor" height="24" viewBox="0 0 24 24" width="24" xmlns="http://www.w3.org/2000/svg"><path d="m8.67033 5.00706c.6563-1.38837 1.75097-2.52239 3.11527-3.22732s2.9226-.941649 4.4347-.67368c-.2577.78988-.2918 1.6357-.0983 2.44374.1934.80804.6068 1.54674 1.1943 2.13426.5875.58751 1.3262 1.0009 2.1343 1.19435.808.19345 1.6538.15941 2.4437-.09835.07.396.106.804.106 1.22.0018 1.17942-.2959 2.33994-.865 3.37304.8385.7386 1.432 1.715 1.7018 2.7994.2697 1.0843.2027 2.2251-.192 3.2704s-1.0984 1.9457-2.0175 2.5811c-.9191.6355-2.0099.9759-3.1273.9761h-8.49997c-2.09237-.0012-4.10099-.8221-5.59527-2.2867-1.49429-1.4646-2.35531-3.4564-2.39847-5.5483-.043167-2.0919.73495-4.11749 2.16755-5.64249 1.43261-1.525 3.40565-2.42805 5.49619-2.51555zm2.17697.207c1.2603.3003 2.429.90159 3.406 1.75235.977.85077 1.7333 1.92567 2.204 3.13269.9906-.18988 2.0142-.10515 2.96.245.226-.42504.393-.88504.488-1.37004-1.5122-.13938-2.9279-.80371-4.0016-1.87773s-1.7375-2.48999-1.8764-4.00227c-1.2988.25799-2.4423 1.02035-3.18 2.12zm6.653 13.78604c.5771-.0001 1.1451-.1429 1.6537-.4156.5085-.2727.9417-.6669 1.261-1.1475.3194-.4807.5149-1.0328.5693-1.6073.0543-.5744-.0342-1.1534-.2577-1.6854-.2236-.532-.5751-1.0005-1.0235-1.3637-.4484-.3633-.9796-.61-1.5463-.7183-.5668-.1083-1.1516-.0748-1.7023.0975s-1.0502.4782-1.4542.8903v-.05c0-1.1867-.3519-2.3468-1.0112-3.33346-.6592-.9867-1.5963-1.75573-2.6927-2.20986-1.0963-.45412-2.30273-.57294-3.46662-.34143-1.16388.23151-2.23298.80295-3.0721 1.64207-.83911.83912-1.41056 1.90818-1.64207 3.07208s-.11269 2.3703.34144 3.4667c.45412 1.0963 1.22316 2.0334 2.20985 2.6927.9867.6593 2.14674 1.0112 3.33343 1.0112z" /></svg>