<svg fill="currentColor" height="24" viewBox="0 0 24 24" width="24" xmlns="http://www.w3.org/2000/svg"><path d="m16 20.334v-2.199c1.7144-.9066 3.0124-2.4403 3.623-4.281-1.3092.24-2.6553.1867-3.9413-.1562-1.2861-.3428-2.4801-.9666-3.496-1.8265-1.016-.8598-1.8286-1.9343-2.37927-3.14601-.55069-1.21171-.82577-2.53048-.80543-3.8613-.98103.51885-1.83503 1.24846-2.50068 2.13646s-1.12645 1.91236-1.34932 2.99954h-2.034c.33463-2.08792 1.35593-4.00463 2.90232-5.44687 1.54638-1.44224 3.52954-2.32765 5.63568-2.51613-.6516 1.39271-.8266 2.96123-.4978 4.46329.3287 1.50207 1.1429 2.85409 2.3168 3.84722 1.1738.9932 2.642 1.5722 4.1778 1.6477 1.5358.0754 3.0537-.3569 4.3192-1.2302.1573 2.0237-.3375 4.0446-1.412 5.7667s-2.6722 3.055-4.559 3.8033zm-9-.334h7v2h-7zm-3-8h6v2h-6zm-2 4h10v2h-10z" /></svg>