<svg fill="currentColor" height="24" viewBox="0 0 24 24" width="24" xmlns="http://www.w3.org/2000/svg"><path d="m16 20.3341v-2.334h-2v-4h-10.668c-.22115-.8149-.3328-1.6557-.332-2.5 0-4.56004 3.213-8.37004 7.5-9.28904-.57443 1.54263-.65901 3.2249-.2422 4.81737.4168 1.59246 1.3147 3.01757 2.5712 4.08097 1.2566 1.0634 2.8105 1.7133 4.45 1.8611 1.6395.1477 3.2846-.2138 4.711-1.0354-.0838 1.8282-.6936 3.5933-1.7561 5.0834-1.0626 1.4901-2.5328 2.6417-4.2339 3.3166zm-9-.334h7v2h-7zm-5-4h10v2h-10z" /></svg>