<svg fill="currentColor" height="24" viewBox="0 0 24 24" width="24" xmlns="http://www.w3.org/2000/svg"><path d="m9.822 2.238c-.76981 1.67106-1.00897 3.53791-.68528 5.34906s1.19468 3.47964 2.49568 4.78054c1.3009 1.301 2.9694 2.172 4.7805 2.4957 1.8112.3237 3.678.0845 5.3491-.6853-.994 4.476-4.987 7.822-9.762 7.822-5.523 0-10-4.477-10-10 0-4.775 3.346-8.768 7.822-9.762zm8.342.053.836.209v1l-.836.209c-.3516.08793-.6727.26975-.929.52603-.2562.25627-.4381.57737-.526.92897l-.209.836h-1l-.209-.836c-.0879-.3516-.2698-.6727-.526-.92897-.2563-.25628-.5774-.4381-.929-.52603l-.836-.209v-1l.836-.209c.3514-.08809.6723-.26998.9284-.52625.2561-.25626.4377-.57727.5256-.92875l.21-.836h1l.209.836c.0879.3516.2698.6727.526.92897.2563.25628.5774.4381.929.52603zm5 5 .836.209v1l-.836.209c-.3516.08793-.6727.26975-.929.52603-.2562.25627-.4381.57737-.526.92897l-.209.836h-1l-.209-.836c-.0879-.3516-.2698-.6727-.526-.92897-.2563-.25628-.5774-.4381-.929-.52603l-.836-.209v-1l.836-.209c.3516-.08793.6727-.26975.929-.52603.2562-.25627.4381-.57737.526-.92897l.209-.836h1l.209.836c.0879.3516.2698.6727.526.92897.2563.25628.5774.4381.929.52603z" /></svg>