<svg fill="currentColor" height="24" viewBox="0 0 24 24" width="24" xmlns="http://www.w3.org/2000/svg"><path d="m10 7c-.0002 1.39064.4138 2.74983 1.1892 3.9042.7754 1.1544 1.8771 2.0517 3.1646 2.5774 1.2874.5257 2.7023.656 4.0641.3743s2.6089-.9626 3.5821-1.9559v.1c0 5.523-4.477 10-10 10s-10-4.477-10-10 4.477-10 10-10h.1c-.666.65113-1.1949 1.42896-1.5555 2.28768-.3607.85872-.54581 1.78094-.5445 2.71232zm-6 5c-.00073 1.785.59553 3.5189 1.69389 4.926 1.09837 1.407 2.63574 2.4063 4.36751 2.8388 1.7318.4326 3.5585.2735 5.1894-.4518 1.631-.7254 2.9725-1.9753 3.8112-3.551-1.4926.3516-3.0502.3161-4.5252-.1033-1.4749-.4193-2.8183-1.2086-3.9026-2.2929-1.08428-1.0843-1.87355-2.4277-2.29292-3.90262-.41936-1.47497-.45492-3.03262-.10328-4.52518-1.28042.68214-2.35122 1.69966-3.09774 2.94364-.74653 1.24398-1.14068 2.66756-1.14026 4.11836z" /></svg>