<svg fill="currentColor" height="24" viewBox="0 0 24 24" width="24" xmlns="http://www.w3.org/2000/svg"><path d="m8.67033 5.00706c.6563-1.38837 1.75097-2.52239 3.11527-3.22732s2.9226-.941649 4.4347-.67368c-.2577.78988-.2918 1.6357-.0983 2.44374.1934.80804.6068 1.54674 1.1943 2.13426.5875.58751 1.3262 1.0009 2.1343 1.19435.808.19345 1.6538.15941 2.4437-.09835.07.396.106.804.106 1.22.0018 1.17942-.2959 2.33994-.865 3.37304.8385.7386 1.432 1.715 1.7018 2.7994.2697 1.0843.2027 2.2251-.192 3.2704s-1.0984 1.9457-2.0175 2.5811c-.9191.6355-2.0099.9759-3.1273.9761h-8.49997c-2.09237-.0012-4.10099-.8221-5.59527-2.2867-1.49429-1.4646-2.35531-3.4564-2.39847-5.5483-.043167-2.0919.73495-4.11749 2.16755-5.64249 1.43261-1.525 3.40565-2.42805 5.49619-2.51555zm2.17697.207c1.2603.3003 2.429.90159 3.406 1.75235.977.85077 1.7333 1.92567 2.204 3.13269.9906-.18988 2.0142-.10515 2.96.245.226-.42504.393-.88504.488-1.37004-1.5122-.13938-2.9279-.80371-4.0016-1.87773s-1.7375-2.48999-1.8764-4.00227c-1.2988.25799-2.4423 1.02035-3.18 2.12z" /></svg>