<svg fill="currentColor" height="24" viewBox="0 0 24 24" width="24" xmlns="http://www.w3.org/2000/svg"><path d="m8.36501 10 2.83499-2h5.8v2h-5.144l-2.85599 2h-7v-2zm.916 5.06 2.92499-1.065.684 1.88-2.92499 1.064c.13769 1.0977-.13381 2.2077-.76266 3.1179-.62885.9103-1.57097 1.5569-2.6464 1.8165-1.07544.2596-2.20882.114-3.18367-.4091-.97484-.5231-1.72283-1.387-2.10109-2.4267-.378254-1.0396-.360272-2.1822.05052-3.2094.41078-1.0272 1.18558-1.8672 2.17641-2.3593.99082-.4922 2.12823-.6021 3.19496-.3088 1.06674.2933 1.98804.9693 2.58793 1.8989zm-3.781 4.94c.66304 0 1.29893-.2634 1.76777-.7322.46884-.4689.73223-1.1048.73223-1.7678s-.26339-1.2989-.73223-1.7678c-.46884-.4688-1.10473-.7322-1.76777-.7322s-1.29893.2634-1.76777.7322c-.46884.4689-.73223 1.1048-.73223 1.7678s.26339 1.2989.73223 1.7678c.46884.4688 1.10473.7322 1.76777.7322zm12.99999 2c-.5909 0-1.1761-.1164-1.7221-.3425-.5459-.2262-1.042-.5577-1.4599-.9755-.4178-.4179-.7493-.914-.9754-1.4599-.2262-.546-.3426-1.1312-.3426-1.7221s.1164-1.1761.3426-1.7221c.2261-.5459.5576-1.042.9754-1.4599.4179-.4178.914-.7493 1.4599-.9755.546-.2261 1.1312-.3425 1.7221-.3425 1.1935 0 2.3381.4741 3.182 1.318s1.318 1.9885 1.318 3.182-.4741 2.3381-1.318 3.182-1.9885 1.318-3.182 1.318zm0-2c.6631 0 1.2989-.2634 1.7678-.7322.4688-.4689.7322-1.1048.7322-1.7678s-.2634-1.2989-.7322-1.7678c-.4689-.4688-1.1047-.7322-1.7678-.7322-.663 0-1.2989.2634-1.7678.7322-.4688.4689-.7322 1.1048-.7322 1.7678s.2634 1.2989.7322 1.7678c.4689.4688 1.1048.7322 1.7678.7322zm-14.49999-9h5.99999l2.6-1.733.28-1.046 1.932.518-1.922 7.131-1.822-.888.118-.44-2.18599 1.458-1-2h-4zm12.09199-5h3.908v3h-2.816l1.92 5.276-1.88.684-2.168-5.96h-.056v-.152l-1.4-3.848h-2.6v-2h4z" /></svg>