<svg fill="currentColor" height="24" viewBox="0 0 24 24" width="24" xmlns="http://www.w3.org/2000/svg"><path d="m4.00006 13.256v-1.256h-2v-2h6.365l2.83504-2h3.491l-1.091-3h-2.6v-2h4l1.092 3h3.908v3h-2.816l1.456 4.002c1.1047.0351 2.1579.4756 2.9587 1.2375s1.2932 1.7918 1.3833 2.8935c.0901 1.1016-.2284 2.1979-.8948 3.0797-.6664.8819-1.634 1.4876-2.7184 1.7018-1.0844.2141-2.2096.0217-3.1612-.5407-.9516-.5623-1.6629-1.4552-1.9984-2.5084-.3354-1.0532-.2715-2.193.1795-3.2021.4511-1.0091 1.2578-1.8169 2.2663-2.2693l-1.236-3.394h-.947l-1.582 5.87-.002-.001.002.006-2.92503 1.064c.10553.8422-.02924 1.6972-.38884 2.4661s-.92934 1.4204-1.64344 1.8793c-.71409.4589-1.54342.7064-2.39221.7141-.8488.0076-1.68245-.2249-2.40471-.6709-.72225-.4459-1.30365-1.0871-1.67706-1.8493-.37341-.7623-.5236-1.6147-.43324-2.4587.09037-.844.41761-1.6452.94393-2.3112.52633-.666 1.23027-1.1695 2.03056-1.4524zm2-.229c.66345.0743 1.30206.2952 1.86954.6469.56748.3516 1.04962.8251 1.41146 1.3861l1.95704-.713 1.165-4.347h-.547l-2.85604 2h-3zm-.5 6.973c.66305 0 1.29893-.2634 1.76777-.7322.46884-.4689.73223-1.1048.73223-1.7678s-.26339-1.2989-.73223-1.7678c-.46884-.4688-1.10472-.7322-1.76777-.7322-.66304 0-1.29892.2634-1.76776.7322-.46884.4689-.73224 1.1048-.73224 1.7678s.2634 1.2989.73224 1.7678c.46884.4688 1.10472.7322 1.76776.7322zm13.00004 0c.663 0 1.2989-.2634 1.7677-.7322.4689-.4689.7323-1.1048.7323-1.7678s-.2634-1.2989-.7323-1.7678c-.4688-.4688-1.1047-.7322-1.7677-.7322-.6631 0-1.299.2634-1.7678.7322-.4688.4689-.7322 1.1048-.7322 1.7678s.2634 1.2989.7322 1.7678c.4688.4688 1.1047.7322 1.7678.7322z" /></svg>