<svg fill="currentColor" height="24" viewBox="0 0 24 24" width="24" xmlns="http://www.w3.org/2000/svg"><path d="m11.141 2h1.718c2.014 0 3.094.278 4.072.801.9663.51149 1.7565 1.30169 2.268 2.268.523.978.801 2.058.801 4.072v5.718c0 2.014-.278 3.094-.801 4.072-.5115.9663-1.3017 1.7565-2.268 2.268-.978.523-2.058.801-4.072.801h-1.719c-2.014 0-3.094-.278-4.072-.801-.96631-.5115-1.75651-1.3017-2.268-2.268-.522-.978-.8-2.058-.8-4.072v-5.719c0-2.014.278-3.094.801-4.072.51192-.96608 1.30247-1.75594 2.269-2.267.977-.523 2.057-.801 4.071-.801zm-.141 4v5h2v-5z" /></svg>