<svg fill="currentColor" height="24" viewBox="0 0 24 24" width="24" xmlns="http://www.w3.org/2000/svg"><path d="m11.141 4c-1.582 0-2.387.169-3.128.565-.61798.32515-1.12285.83002-1.448 1.448-.396.74-.565 1.546-.565 3.127v5.718c0 1.582.169 2.387.565 3.128.337.63.818 1.111 1.448 1.448.74.396 1.546.565 3.128.565h1.718c1.582 0 2.387-.169 3.128-.565.618-.3251 1.1228-.83 1.448-1.448.396-.74.565-1.546.565-3.128v-5.718c0-1.582-.169-2.387-.565-3.128-.3252-.61798-.83-1.12285-1.448-1.448-.74-.395-1.546-.564-3.127-.564h-1.72zm0-2h1.718c2.014 0 3.094.278 4.072.801.9663.51149 1.7565 1.30169 2.268 2.268.523.978.801 2.058.801 4.072v5.718c0 2.014-.278 3.094-.801 4.072-.5115.9663-1.3017 1.7565-2.268 2.268-.978.523-2.058.801-4.072.801h-1.719c-2.014 0-3.094-.278-4.072-.801-.96631-.5115-1.75651-1.3017-2.268-2.268-.522-.978-.8-2.058-.8-4.072v-5.719c0-2.014.278-3.094.801-4.072.51192-.96608 1.30247-1.75594 2.269-2.267.977-.523 2.057-.801 4.071-.801zm-.141 4h2v5h-2z" /></svg>