<svg fill="currentColor" height="24" viewBox="0 0 24 24" width="24" xmlns="http://www.w3.org/2000/svg"><path d="m12 20h8v2h-8c-5.523 0-10-4.477-10-10s4.477-10 10-10 10 4.477 10 10c.0032 2.1642-.6989 4.2705-2 6h-2.708c1.4043-1.2384 2.3297-2.9302 2.615-4.7807.2854-1.8504-.0873-3.74238-1.0532-5.34634-.9659-1.60397-2.4638-2.81833-4.2329-3.43162-1.769-.61329-3.6972-.58666-5.4486.07526-1.75144.66192-3.21523 1.91719-4.13646 3.54722-.92124 1.63003-1.24156 3.53158-.90518 5.37338.33638 1.8419 1.30814 3.5075 2.74607 4.7067 1.43793 1.1991 3.25097 1.856 5.12327 1.8561zm0-10c-.5304 0-1.0391-.21071-1.4142-.58579-.3751-.37507-.5858-.88378-.5858-1.41421s.2107-1.03914.5858-1.41421c.3751-.37508.8838-.58579 1.4142-.58579s1.0391.21071 1.4142.58579c.3751.37507.5858.88378.5858 1.41421s-.2107 1.03914-.5858 1.41421c-.3751.37508-.8838.58579-1.4142.58579zm-4 4c-.53043 0-1.03914-.2107-1.41421-.5858-.37508-.3751-.58579-.8838-.58579-1.4142s.21071-1.0391.58579-1.4142c.37507-.3751.88378-.5858 1.41421-.5858s1.03914.2107 1.41421.5858c.37508.3751.58579.8838.58579 1.4142s-.21071 1.0391-.58579 1.4142c-.37507.3751-.88378.5858-1.41421.5858zm8 0c-.5304 0-1.0391-.2107-1.4142-.5858s-.5858-.8838-.5858-1.4142.2107-1.0391.5858-1.4142.8838-.5858 1.4142-.5858 1.0391.2107 1.4142.5858.5858.8838.5858 1.4142-.2107 1.0391-.5858 1.4142-.8838.5858-1.4142.5858zm-4 4c-.5304 0-1.0391-.2107-1.4142-.5858s-.5858-.8838-.5858-1.4142.2107-1.0391.5858-1.4142.8838-.5858 1.4142-.5858 1.0391.2107 1.4142.5858.5858.8838.5858 1.4142-.2107 1.0391-.5858 1.4142-.8838.5858-1.4142.5858z" /></svg>