<svg fill="currentColor" height="24" viewBox="0 0 24 24" width="24" xmlns="http://www.w3.org/2000/svg"><path d="m18.001 20h1.999v2h-8c-5.523 0-10-4.477-10-10s4.477-10 10-10 10 4.477 10 10c.0013 1.5526-.3595 3.0841-1.0537 4.4728s-1.7027 2.5964-2.9453 3.5272zm-6.001-10c.5304 0 1.0391-.21071 1.4142-.58579.3751-.37507.5858-.88378.5858-1.41421s-.2107-1.03914-.5858-1.41421c-.3751-.37508-.8838-.58579-1.4142-.58579s-1.0391.21071-1.4142.58579c-.3751.37507-.5858.88378-.5858 1.41421s.2107 1.03914.5858 1.41421c.3751.37508.8838.58579 1.4142.58579zm-4 4c.53043 0 1.03914-.2107 1.41421-.5858.37508-.3751.58579-.8838.58579-1.4142s-.21071-1.0391-.58579-1.4142c-.37507-.3751-.88378-.5858-1.41421-.5858s-1.03914.2107-1.41421.5858c-.37508.3751-.58579.8838-.58579 1.4142s.21071 1.0391.58579 1.4142c.37507.3751.88378.5858 1.41421.5858zm8 0c.5304 0 1.0391-.2107 1.4142-.5858s.5858-.8838.5858-1.4142-.2107-1.0391-.5858-1.4142-.8838-.5858-1.4142-.5858-1.0391.2107-1.4142.5858-.5858.8838-.5858 1.4142.2107 1.0391.5858 1.4142.8838.5858 1.4142.5858zm-4 4c.5304 0 1.0391-.2107 1.4142-.5858s.5858-.8838.5858-1.4142-.2107-1.0391-.5858-1.4142-.8838-.5858-1.4142-.5858-1.0391.2107-1.4142.5858-.5858.8838-.5858 1.4142.2107 1.0391.5858 1.4142.8838.5858 1.4142.5858z" /></svg>