<svg fill="currentColor" height="24" viewBox="0 0 24 24" width="24" xmlns="http://www.w3.org/2000/svg"><path d="m2 3.993c.00183-.26262.1069-.51398.29251-.69978.18562-.1858.43687-.29113.69949-.29322h18.016c.548 0 .992.445.992.993v16.014c-.0018.2626-.1069.514-.2925.6998s-.4369.2911-.6995.2932h-18.016c-.26319-.0003-.5155-.105-.70151-.2912s-.29049-.4386-.29049-.7018zm2 1.007v14h16v-14zm6.622 3.415 4.879 3.252c.0549.0365.0999.086.131.1441s.0474.123.0474.1889-.0163.1308-.0474.1889-.0761.1076-.131.1441l-4.88 3.252c-.0602.0399-.13.0627-.2021.0662-.0721.0034-.1438-.0128-.2075-.0469-.0637-.034-.1169-.0846-.1541-.1465-.0373-.0618-.057-.1326-.0573-.2048v-6.506c.0001-.07235.0199-.14331.0572-.20532.0372-.06201.0906-.11275.1544-.14682.0639-.03407.1357-.05019.208-.04664s.1422.02663.2024.06678z" /></svg>