<svg fill="currentColor" height="24" viewBox="0 0 24 24" width="24" xmlns="http://www.w3.org/2000/svg"><path d="m12 13.535v-10.535h8v2h-6v12c-.0002.8805-.2909 1.7363-.8271 2.4348-.5361.6984-1.2877 1.2004-2.1383 1.4282-.8505.2277-1.75242.1685-2.56585-.1686-.81342-.3371-1.49291-.9331-1.93307-1.6957s-.61641-1.6491-.50141-2.522c.115-.873.51483-1.6836 1.13747-2.3062s1.4333-1.0223 2.30627-1.1372c.87299-.1149 1.75949.0615 2.52199.5017zm-2 5.465c.5304 0 1.0391-.2107 1.4142-.5858s.5858-.8838.5858-1.4142-.2107-1.0391-.5858-1.4142-.8838-.5858-1.4142-.5858c-.53043 0-1.03913.2107-1.41421.5858-.37507.3751-.58578.8838-.58578 1.4142s.21071 1.0391.58578 1.4142c.37508.3751.88378.5858 1.41421.5858z" /></svg>