<svg fill="currentColor" height="24" viewBox="0 0 24 24" width="24" xmlns="http://www.w3.org/2000/svg"><path d="m20 3v14c-.0002.8805-.2909 1.7363-.8271 2.4348-.5361.6984-1.2877 1.2004-2.1383 1.4282-.8505.2277-1.7524.1685-2.5658-.1686-.8135-.3371-1.493-.9331-1.9331-1.6957-.4402-.7626-.6164-1.6491-.5014-2.522.115-.873.5148-1.6836 1.1374-2.3062.6227-.6226 1.4333-1.0223 2.3063-1.1372s1.7595.0615 2.522.5017v-8.535h-8.99999v12c-.0002.8805-.29092 1.7363-.82707 2.4348-.53615.6984-1.28777 1.2004-2.13831 1.4282-.85053.2277-1.75245.1685-2.56588-.1686-.81342-.3371-1.49291-.9331-1.93307-1.6957s-.616411-1.6491-.50141-2.522c.115-.873.51483-1.6836 1.13747-2.3062s1.4333-1.0223 2.30627-1.1372 1.75946.0615 2.522.5017v-10.535zm-14.99999 16c.53043 0 1.03914-.2107 1.41421-.5858s.58579-.8838.58579-1.4142-.21072-1.0391-.58579-1.4142-.88378-.5858-1.41421-.5858c-.53044 0-1.03915.2107-1.41422.5858s-.58578.8838-.58578 1.4142.21071 1.0391.58578 1.4142.88378.5858 1.41422.5858zm10.99999 0c.5304 0 1.0391-.2107 1.4142-.5858s.5858-.8838.5858-1.4142-.2107-1.0391-.5858-1.4142-.8838-.5858-1.4142-.5858-1.0391.2107-1.4142.5858-.5858.8838-.5858 1.4142.2107 1.0391.5858 1.4142.8838.5858 1.4142.5858z" /></svg>