<svg fill="currentColor" height="24" viewBox="0 0 24 24" width="24" xmlns="http://www.w3.org/2000/svg"><path d="m2 3.993c.00183-.26262.1069-.51398.29251-.69978.18562-.1858.43687-.29113.69949-.29322h18.016c.548 0 .992.445.992.993v16.014c-.0018.2626-.1069.514-.2925.6998s-.4369.2911-.6995.2932h-18.016c-.26319-.0003-.5155-.105-.70151-.2912s-.29049-.4386-.29049-.7018zm10 8.178c-.6004-.2123-1.2527-.228-1.8626-.0449-.60996.1831-1.14578.5556-1.52996 1.0634-.38418.5079-.59679 1.1248-.60705 1.7616-.01026.6367.18235 1.2602.54996 1.7801.3676.52.89114.9095 1.49485 1.1122.6037.2027 1.2562.208 1.8631.0152s1.1367-.5737 1.5128-1.0876c.376-.5139.5788-1.1342.5789-1.771v-7.001h3v-1.999h-5v6.17z" /></svg>