<svg fill="currentColor" height="24" viewBox="0 0 24 24" width="24" xmlns="http://www.w3.org/2000/svg"><path d="m2 3.993c.00183-.26262.1069-.51398.29251-.69978.18562-.1858.43687-.29113.69949-.29322h18.016c.548 0 .992.445.992.993v16.014c-.0018.2626-.1069.514-.2925.6998s-.4369.2911-.6995.2932h-18.016c-.26319-.0003-.5155-.105-.70151-.2912s-.29049-.4386-.29049-.7018zm2 1.007v14h16v-14zm8 7.17v-6.17h5v2h-3v7c-.0003.6368-.2033 1.2569-.5794 1.7707-.3762.5137-.9061.8945-1.513 1.0871-.6069.1927-1.2594.1872-1.863-.0156-.60362-.2028-1.12705-.5924-1.49454-1.1124-.3675-.52-.56001-1.1434-.54966-1.7801.01034-.6367.223-1.2536.60719-1.7614.3842-.5077.92001-.8801 1.52991-1.0632.6098-.1831 1.2622-.1674 1.8625.0449z" /></svg>