<svg fill="currentColor" height="24" viewBox="0 0 24 24" width="24" xmlns="http://www.w3.org/2000/svg"><path d="m4.96535 5.09593 3.546 12.40997 3.03995-6.08 5.637-2.25497zm-2.066-2.796 18.80595 6.268c.0974.03226.1824.09367.2437.1759s.0958.18131.0988.2838c.0031.1025-.0255.20345-.0817.28919-.0563.08573-.1375.1521-.2328.19011l-8.733 3.49297-4.42495 8.85c-.04503.0901-.11623.1646-.20428.2135-.08804.049-.18882.0702-.28914.0609-.10031-.0093-.19547-.0487-.27302-.113s-.13386-.1505-.16156-.2474l-5.387-18.85297c-.02496-.08759-.02552-.18033-.00162-.26821s.07134-.16756.13722-.23045c.06587-.06288.14766-.10659.23656-.12638.08889-.0198.1815-.01495.26784.01404z" /></svg>