<svg fill="currentColor" height="24" viewBox="0 0 24 24" width="24" xmlns="http://www.w3.org/2000/svg"><path d="m11.29 3.814 2.02 5.707.395 1.116.007-4.81.01-4.818h4.27l.008 10.862c.003 5.98-.003 10.89-.015 10.9-.012.009-.209 0-.436-.027-.989-.118-2.29-.236-3.34-.282-.2123-.008-.4243-.0207-.636-.038-.003-.004-.273-.762-.776-2.184v-.004l-2.144-6.061-.34-.954-.008 4.586c-.006 4.365-.01 4.61-.057 4.61-.163 0-1.57.09-2.04.136-.308.027-.926.09-1.37.145-.446.051-.816.085-.823.078-.009-.006-.015-4.909-.015-10.893v-10.881h.005v-.002h4.288l.028.08c.007.016.065.176.157.437l.641 1.778.173.496-.001.023z" /></svg>