<svg fill="currentColor" height="24" viewBox="0 0 24 24" width="24" xmlns="http://www.w3.org/2000/svg"><path d="m16 20v-16h-12v15c0 .2652.10536.5196.29289.7071.18754.1875.44189.2929.70711.2929zm3 2h-14c-.79565 0-1.55871-.3161-2.12132-.8787s-.87868-1.3257-.87868-2.1213v-16c0-.26522.10536-.51957.29289-.70711.18754-.18753.44189-.29289.70711-.29289h14c.2652 0 .5196.10536.7071.29289.1875.18754.2929.44189.2929.70711v7h4v9c0 .7956-.3161 1.5587-.8787 2.1213s-1.3257.8787-2.1213.8787zm-1-10v7c0 .2652.1054.5196.2929.7071s.4419.2929.7071.2929.5196-.1054.7071-.2929.2929-.4419.2929-.7071v-7zm-12-6h6v6h-6zm2 2v2h2v-2zm-2 5h8v2h-8zm0 3h8v2h-8z" /></svg>