<svg fill="currentColor" height="24" viewBox="0 0 24 24" width="24" xmlns="http://www.w3.org/2000/svg"><path d="m18.5856 19.9999h-14.58602c-.09286 0-.18388-.0258-.26287-.0746s-.14282-.1187-.18435-.2017c-.04152-.0831-.0591-.1761-.05076-.2686.00834-.0924.04226-.1808.09798-.2551l.4-.533v-8.66696c0-1.33.324-2.584.899-3.687l-3.506-3.505 1.415-1.415 19.79902 19.79996-1.415 1.414zm1.414-4.214-12.44102-12.44096c1.20474-.80405 2.60522-1.26594 4.05192-1.33639s2.8854.25318 4.1625.93637c1.2772.68319 2.3449 1.7003 3.0893 2.94281s1.1374 2.6638 1.1373 4.11221zm-10.50002 5.214h5.00002c0 .6631-.2634 1.299-.7323 1.7678-.4688.4689-1.1047.7322-1.7677.7322-.6631 0-1.2989-.2633-1.7678-.7322-.46883-.4688-.73222-1.1047-.73222-1.7678z" /></svg>