<svg fill="currentColor" height="24" viewBox="0 0 24 24" width="24" xmlns="http://www.w3.org/2000/svg"><path d="m18.5856 19.9999h-14.58602c-.09286 0-.18388-.0258-.26287-.0746s-.14282-.1187-.18435-.2017c-.04152-.0831-.0591-.1761-.05076-.2686.00834-.0924.04226-.1808.09798-.2551l.4-.533v-8.66696c0-1.33.324-2.584.899-3.687l-3.506-3.505 1.415-1.415 19.79902 19.79996-1.415 1.414zm-12.17802-12.17796c-.27039.69428-.40876 1.43294-.408 2.178v7.99996h10.58602zm13.59202 7.96396-2-2v-3.78596c.0002-1.05233-.2764-2.08621-.802-2.99788s-1.2818-1.66907-2.1926-2.1962c-.9107-.52712-1.9442-.80543-2.9965-.807-1.0523-.00156-2.08656.27367-2.99892.79808l-1.45-1.452c1.20473-.80378 2.60502-1.26545 4.05162-1.33576 1.4465-.07031 2.8851.25338 4.1621.93654 1.277.68315 2.3446 1.70015 3.0889 2.94251.7443 1.24235 1.1374 2.66346 1.1374 4.11171zm-10.50002 5.214h5.00002c0 .6631-.2634 1.299-.7323 1.7678-.4688.4689-1.1047.7322-1.7677.7322-.6631 0-1.2989-.2633-1.7678-.7322-.46883-.4688-.73222-1.1047-.73222-1.7678z" /></svg>