<svg fill="currentColor" height="24" viewBox="0 0 24 24" width="24" xmlns="http://www.w3.org/2000/svg"><path d="m18 10c0-1.5913-.6321-3.11742-1.7574-4.24264-1.1252-1.12522-2.6513-1.75736-4.2426-1.75736s-3.11742.63214-4.24264 1.75736-1.75736 2.65134-1.75736 4.24264v8h12zm2 8.667.4.533c.0557.0743.0896.1626.098.2551.0083.0925-.0093.1855-.0508.2685-.0415.0831-.1053.1529-.1843.2017s-.17.0747-.2629.0747h-16c-.09286 0-.18388-.0259-.26287-.0747-.07898-.0488-.14282-.1186-.18434-.2017-.04153-.083-.05911-.176-.05077-.2685s.04227-.1808.09798-.2551l.4-.533v-8.667c0-2.12173.84286-4.15656 2.34315-5.65685 1.50029-1.5003 3.53512-2.34315 5.65685-2.34315 2.1217 0 4.1566.84285 5.6569 2.34315 1.5002 1.50029 2.3431 3.53512 2.3431 5.65685zm-10.5 2.333h5c0 .663-.2634 1.2989-.7322 1.7678-.4689.4688-1.1048.7322-1.7678.7322s-1.2989-.2634-1.7678-.7322c-.46881-.4689-.7322-1.1048-.7322-1.7678z" /></svg>