<svg fill="currentColor" height="24" viewBox="0 0 24 24" width="24" xmlns="http://www.w3.org/2000/svg"><path d="m5.5672 17.4901 1.65316-.8927c.22672-.1246.41573-.3079.5472-.5307s.20056-.4769.20003-.7356v-6.49692c.0003-.29594.09147-.58465.26118-.82709s.40977-.42692.68773-.5285l5.3331-1.92759v12.0681h-6.30516c-.2329.0025-.45855.0813-.64237.2244-.18383.143-.31567.3423-.37534.5675-.05966.2251-.04384.4636.04503.6789.08886.2153.24588.3955.44698.513l3.75596 2.1293c.3094.1758.6592.2681 1.0151.2678.1914-.0001.3819-.028.5653-.0827l5.6505-1.6101c.4215-.1211.7922-.3759 1.0564-.7259s.4075-.7764.4083-1.2149v-12.73598c.0002-.43966-.143-.86737-.4079-1.21824-.265-.35086-.6372-.60571-1.0601-.72588l-5.6575-1.60325-.0128-.00368c-.186-.0534-.3785-.08012-.572-.07935-.3639.00083-.7214.09534-1.0382.27442l-6.10345 3.48155c-.30929.17624-.56642.43119-.74528.73897s-.27307.65741-.27307 1.01338v9.04606c-.00046.1841.04698.3652.13767.5255.09069.1602.2215.2941.37959.3885s.33801.146.52209.1498.36599-.0403.52785-.1281z" /></svg>