<svg fill="currentColor" height="24" viewBox="0 0 24 24" width="24" xmlns="http://www.w3.org/2000/svg"><path d="m9.07 7-3.07 4.606v8.394h12v-13zm-1.07-2h11c.2652 0 .5196.10536.7071.29289.1875.18754.2929.44189.2929.70711v15c0 .2652-.1054.5196-.2929.7071s-.4419.2929-.7071.2929h-14c-.26522 0-.51957-.1054-.70711-.2929-.18753-.1875-.29289-.4419-.29289-.7071v-10zm5-4h5c.2652 0 .5196.10536.7071.29289.1875.18754.2929.44189.2929.70711v2h-7v-2c0-.26522.1054-.51957.2929-.70711.1875-.18753.4419-.29289.7071-.29289zm-5 11h2v6h-2z" /></svg>