<svg fill="currentColor" height="24" viewBox="0 0 24 24" width="24" xmlns="http://www.w3.org/2000/svg"><path d="m12 2c5.523 0 10 4.477 10 10 0 4.4-2.841 8.136-6.789 9.473l-.226.074-2.904-7.55c1.069-.047 1.919-.943 1.919-1.997 0-1.105-.895-2-2-2s-2 .895-2 2c0 1.077.851 1.955 1.917 1.998l-2.903 7.549-.225-.074c-3.949-1.337-6.789-5.073-6.789-9.473 0-5.523 4.477-10 10-10zm0 2c-4.418 0-8 3.582-8 8 0 2.92 1.564 5.475 3.901 6.872l1.48-3.849c-.847-.733-1.381-1.816-1.381-3.023 0-2.21 1.79-4 4-4s4 1.79 4 4c0 1.207-.535 2.29-1.38 3.023.565 1.474 1.059 2.757 1.479 3.85 2.336-1.398 3.901-3.953 3.901-6.873 0-4.418-3.582-8-8-8z" /></svg>