<svg fill="currentColor" height="24" viewBox="0 0 24 24" width="24" xmlns="http://www.w3.org/2000/svg"><path d="m11.9996 12c-1.3261 0-2.59784-.5268-3.53552-1.4645-.93769-.93765-1.46447-2.20942-1.46447-3.5355s.52678-2.59785 1.46447-3.53553c.93768-.93769 2.20942-1.46447 3.53552-1.46447s2.5979.52678 3.5355 1.46447c.9377.93768 1.4645 2.20945 1.4645 3.53553s-.5268 2.59785-1.4645 3.5355c-.9376.9377-2.2094 1.4645-3.5355 1.4645zm6 5v5h-2v-5c0-4.451 2.644-8.285 6.447-10.016l.828 1.82c-1.5733.71558-2.9073 1.8689-3.8427 3.3223s-1.4326 3.1453-1.4323 4.8737zm-9.99999 0v5h-2v-5c.00015-1.7282-.49717-3.4199-1.43256-4.8731s-2.26931-2.60639-3.842441-3.3219l.828001-1.821c1.92269.87449 3.553 2.28396 4.69622 4.0601 1.14322 1.776 1.75101 3.8437 1.75078 5.9559z" /></svg>