<svg fill="currentColor" height="24" viewBox="0 0 24 24" width="24" xmlns="http://www.w3.org/2000/svg"><path d="m14.766 19.51c1.5364-.5658 2.8623-1.5891 3.7988-2.932.9366-1.3429 1.4387-2.9408 1.4387-4.578s-.5021-3.23507-1.4387-4.57798c-.9365-1.34291-2.2624-2.36626-3.7988-2.93202 1.944 1.487 3.234 4.445 3.234 7.51s-1.289 6.024-3.234 7.51zm-5.532-15.02c-1.53637.56576-2.86227 1.58911-3.79882 2.93202s-1.43869 2.94078-1.43869 4.57798.50214 3.2351 1.43869 4.578 2.26245 2.3662 3.79882 2.932c-1.944-1.487-3.234-4.445-3.234-7.51s1.289-6.024 3.234-7.51zm2.766 17.51c-5.523 0-10-4.477-10-10s4.477-10 10-10 10 4.477 10 10-4.477 10-10 10zm0-3.5c2 0 4-3.033 4-6.5s-2-6.5-4-6.5-4 3.033-4 6.5 2 6.5 4 6.5z" /></svg>