<svg fill="currentColor" height="24" viewBox="0 0 24 24" width="24" xmlns="http://www.w3.org/2000/svg"><path d="m8.71 6.365c-1.108 1.305-1.823 3.236-1.873 5.4v.47c.051 2.165.766 4.093 1.872 5.4 1.434 1.862 3.566 3.044 5.95 3.044 1.4269-.0032 2.8208-.4299 4.005-1.226-1.9517 1.7542-4.518 2.6655-7.139 2.535-2.56708-.1216-4.98875-1.227-6.76236-3.0868-1.77362-1.8599-2.76295-4.3312-2.76264-6.9012 0-5.524 4.478-10 10-10h.037c2.4469.00656 4.806.91274 6.628 2.546-1.1859-.79495-2.5803-1.2215-4.008-1.226-2.382 0-4.514 1.183-5.95 3.045h.002zm13.29 5.635c.0018 1.4075-.2944 2.7994-.8693 4.0841-.5748 1.2848-1.4151 2.4333-2.4657 3.3699-2.565 1.25-4.955.376-5.747-.17 2.52-.554 4.423-3.6 4.423-7.284 0-3.685-1.903-6.73-4.423-7.283.791-.545 3.182-1.42 5.747-.171 1.0507.93654 1.8911 2.085 2.4659 3.36978.5748 1.28477.871 2.67672.8691 4.08422z" /></svg>