<svg fill="currentColor" height="24" viewBox="0 0 24 24" width="24" xmlns="http://www.w3.org/2000/svg"><g ><path d="m7 9c-1.64004 0-2.75 1.4728-2.75 3s1.10996 3 2.75 3 2.75-1.4728 2.75-3-1.10996-3-2.75-3z"/><path clip-rule="evenodd" d="m4.77588 18.5v2.6033c0 1.1046.89543 2 2 2h14.72412c1.1046 0 2-.8954 2-2v-10.3103c0-.2896-.1252-.5614-.3376-.7492-.0745-.08419-.1638-.1564-.2653-.21245l-.8971-.49527v-6.52619c0-.25082-.0542-.49669-.1566-.72272-.1023-.2257-.2495-.42466-.4283-.5881-.1786-.16328-.3859-.28856-.6081-.37264-.222-.08407-.4573-.12643-.6931-.12643h-12.22778c-.23582 0-.47111.04236-.69316.12643-.22211.08408-.42943.20937-.60807.37264-.17882.16344-.32597.36239-.42827.5881-.10243.22603-.15662.4719-.15662.72272v2.69011h-3.58954c-1.05512 0-1.91046.85534-1.91046 1.91046v9.17904c0 1.0552.85534 1.9105 1.91046 1.9105zm3.22412-13h3.5895c1.0552 0 1.9105.85534 1.9105 1.91046v6.53804l.6379.3551 5.8621-3.2634v-8.0402h-12zm-5.5 11v-9h9v9z" fill-rule="evenodd"/></g></svg>