<svg fill="currentColor" height="24" viewBox="0 0 24 24" width="24" xmlns="http://www.w3.org/2000/svg"><g clip-rule="evenodd"  fill-rule="evenodd"><path d="m7 9c-1.64004 0-2.75 1.4728-2.75 3s1.10996 3 2.75 3 2.75-1.4728 2.75-3-1.10996-3-2.75-3zm-.75 3c0-.6819.45704-1 .75-1s.75.3181.75 1-.45704 1-.75 1-.75-.3181-.75-1z"/><path d="m4.77588 21.1033v-2.6033h-2.36542c-1.05512 0-1.91046-.8553-1.91046-1.9105v-9.17904c0-1.05512.85534-1.91046 1.91046-1.91046h3.58954v-2.69011c0-.25082.05419-.49669.15662-.72272.1023-.22571.24945-.42466.42827-.5881.17864-.16327.38596-.28856.60807-.37264.22205-.08407.45734-.12643.69316-.12643h12.22778c.2358 0 .4711.04236.6931.12643.2222.08408.4295.20936.6081.37264.1788.16344.326.3624.4283.5881.1024.22603.1566.4719.1566.72272v6.52619l.8971.49527c.1015.05605.1908.12826.2653.21245.2124.1878.3376.4596.3376.7492v10.3103c0 1.1046-.8954 2-2 2h-14.72412c-1.10457 0-2-.8954-2-2zm6.81362-15.6033h-3.5895v-2.5h12v8.0402l-5.8621 3.2634-.6379-.3551v-6.53804c0-1.05512-.8553-1.91046-1.9105-1.91046zm1.9105 11.0895v-.352l.1515.0844c.3025.1683.6704.1683.9729 0l6.8756-3.8277v8.6091h-14.72412v-2.6033h4.81362c1.0552 0 1.9105-.8553 1.9105-1.9105zm-11-9.0895v9h9v-9z"/></g></svg>