<svg fill="currentColor" height="24" viewBox="0 0 24 24" width="24" xmlns="http://www.w3.org/2000/svg"><path d="m4 3h16c.2652 0 .5196.10536.7071.29289.1875.18754.2929.44189.2929.70711v5c0 .26522-.1054.51957-.2929.70711-.1875.18753-.4419.29289-.7071.29289h-16c-.26522 0-.51957-.10536-.70711-.29289-.18753-.18754-.29289-.44189-.29289-.70711v-5c0-.26522.10536-.51957.29289-.70711.18754-.18753.44189-.29289.70711-.29289zm2 9h6c.2652 0 .5196.1054.7071.2929s.2929.4419.2929.7071v3h1v6h-4v-6h1v-2h-6c-.26522 0-.51957-.1054-.70711-.2929-.18753-.1875-.29289-.4419-.29289-.7071v-2h2zm11.732 1.732 1.768-1.768 1.768 1.768c.3496.3497.5876.7951.684 1.2801.0964.4849.0469.9875-.1424 1.4443-.1892.4568-.5096.8472-.9207 1.1219-.4112.2746-.8945.4212-1.3889.4212s-.9777-.1466-1.3889-.4212c-.4111-.2747-.7315-.6651-.9207-1.1219-.1893-.4568-.2388-.9594-.1424-1.4443.0964-.485.3344-.9304.684-1.2801z" /></svg>