<svg fill="currentColor" height="24" viewBox="0 0 24 24" width="24" xmlns="http://www.w3.org/2000/svg"><path d="m19.2279 18.732 1.768-1.768 1.767 1.768c.3497.3496.5879.7951.6844 1.28.0966.485.0471.9877-.1421 1.4446-.1892.4568-.5096.8473-.9208 1.1221-.4111.2747-.8945.4213-1.389.4213-.4944 0-.9778-.1466-1.389-.4213-.4111-.2748-.7315-.6653-.9207-1.1221-.1892-.4569-.2387-.9596-.1422-1.4446.0966-.4849.3347-.9304.6844-1.28zm-10.34996-17.652 11.31396 11.313c.093.0929.1668.2032.2171.3246s.0762.2515.0762.3829-.0259.2615-.0762.3829-.1241.2317-.2171.3246l-8.485 8.485c-.1875.1875-.4418.2928-.707.2928-.2651 0-.5194-.1053-.707-.2928l-8.48496-8.485c-.09298-.0929-.16674-.2032-.21706-.3246-.05033-.1214-.07623-.2515-.07623-.3829s.0259-.2615.07623-.3829c.05032-.1214.12408-.2317.21706-.3246l7.778-7.778-2.122-2.121 1.416-1.414zm2.12196 4.95-7.07096 7.07h14.14096z" /></svg>