<svg fill="currentColor" height="24" viewBox="0 0 24 24" width="24" xmlns="http://www.w3.org/2000/svg"><path d="m12 2c5.522 0 10 3.978 10 8.889-.0008 1.4732-.5864 2.8858-1.6283 3.9275-1.0418 1.0416-2.4545 1.627-3.9277 1.6275h-1.966c-.922 0-1.667.745-1.667 1.667 0 .422.167.811.422 1.1.267.3.434.689.434 1.122 0 .923-.767 1.667-1.667 1.667-5.522 0-10-4.478-10-10s4.478-10 10-10zm-4.5 10c.39782 0 .77936-.158 1.06066-.4393s.43934-.6629.43934-1.0607-.15804-.77936-.43934-1.06066-.66284-.43934-1.06066-.43934-.77936.15804-1.06066.43934-.43934.66286-.43934 1.06066.15804.7794.43934 1.0607.66284.4393 1.06066.4393zm9 0c.3978 0 .7794-.158 1.0607-.4393s.4393-.6629.4393-1.0607-.158-.77936-.4393-1.06066-.6629-.43934-1.0607-.43934-.7794.15804-1.0607.43934-.4393.66286-.4393 1.06066.158.7794.4393 1.0607.6629.4393 1.0607.4393zm-4.5-3c.3978 0 .7794-.15804 1.0607-.43934s.4393-.66284.4393-1.06066-.158-.77936-.4393-1.06066-.6629-.43934-1.0607-.43934-.7794.15804-1.0607.43934-.4393.66284-.4393 1.06066.158.77936.4393 1.06066.6629.43934 1.0607.43934z" /></svg>