<svg fill="currentColor" height="24" viewBox="0 0 24 24" width="24" xmlns="http://www.w3.org/2000/svg"><path d="m12 2c5.522 0 10 3.978 10 8.889-.0008 1.4732-.5864 2.8858-1.6283 3.9275-1.0418 1.0416-2.4545 1.627-3.9277 1.6275h-1.966c-.922 0-1.667.745-1.667 1.667 0 .422.167.811.422 1.1.267.3.434.689.434 1.122 0 .923-.767 1.667-1.667 1.667-5.522 0-10-4.478-10-10s4.478-10 10-10zm-1.189 16.111c-.0004-.4817.0942-.9587.2783-1.4038.1842-.445.4543-.8494.7949-1.19s.745-.6107 1.19-.7949c.4451-.1841.9221-.2787 1.4038-.2783h1.966c.9426-.0005 1.8465-.3751 2.5132-1.0414s1.0417-1.57 1.0428-2.5126c0-3.751-3.532-6.89-8-6.89-2.06442-.00188-4.04966.79436-5.54062 2.22225-1.49097 1.42789-2.37223 3.37688-2.45952 5.43945-.0873 2.0626.62613 4.0791 1.99111 5.6278 1.36498 1.5488 3.27583 2.5099 5.33303 2.6825-.3348-.5627-.512-1.2052-.513-1.86zm-3.311-6.111c-.39782 0-.77936-.158-1.06066-.4393s-.43934-.6629-.43934-1.0607.15804-.77936.43934-1.06066.66284-.43934 1.06066-.43934.77936.15804 1.06066.43934.43934.66286.43934 1.06066-.15804.7794-.43934 1.0607-.66284.4393-1.06066.4393zm9 0c-.3978 0-.7794-.158-1.0607-.4393s-.4393-.6629-.4393-1.0607.158-.77936.4393-1.06066.6629-.43934 1.0607-.43934.7794.15804 1.0607.43934.4393.66286.4393 1.06066-.158.7794-.4393 1.0607-.6629.4393-1.0607.4393zm-4.5-3c-.3978 0-.7794-.15804-1.0607-.43934s-.4393-.66284-.4393-1.06066.158-.77936.4393-1.06066.6629-.43934 1.0607-.43934.7794.15804 1.0607.43934.4393.66284.4393 1.06066-.158.77936-.4393 1.06066-.6629.43934-1.0607.43934z" /></svg>