<svg fill="currentColor" height="24" viewBox="0 0 24 24" width="24" xmlns="http://www.w3.org/2000/svg"><path d="m4.00036 18.922-1.35-.545c-.24585-.0995-.44212-.2925-.54564-.5367s-.10581-.5194-.00636-.7653l1.902-4.708zm4.86 2.078h-1.86c-.26522 0-.51957-.1054-.70711-.2929-.18753-.1875-.29289-.4419-.29289-.7071v-6.078zm-2.838-15.032 9.27204-3.746c.2457-.09914.5207-.09669.7647.00681.2439.1035.4368.29958.5363.54519l5.62 13.908c.0492.1218.0739.2521.0728.3835-.0012.1313-.0282.2612-.0796.3821-.0513.1209-.126.2305-.2197.3225-.0938.0921-.2047.1647-.3265.2139l-9.272 3.746c-.1218.0492-.2521.0739-.3835.0728-.1314-.0012-.2612-.0282-.3821-.0796-.1209-.0513-.2305-.126-.3226-.2197-.092-.0937-.1647-.2047-.2138-.3265l-5.61804-13.907c-.09908-.24587-.09649-.52101.00721-.76497.10369-.24395.3-.43675.54579-.53603zm2.978 3.032c.26522 0 .51957-.10536.70711-.29289.18753-.18754.29293-.44189.29293-.70711s-.1054-.51957-.29293-.70711c-.18754-.18753-.44189-.29289-.70711-.29289s-.51957.10536-.70711.29289c-.18753.18754-.29289.44189-.29289.70711s.10536.51957.29289.70711c.18754.18753.44189.29289.70711.29289z" /></svg>