<svg fill="currentColor" height="24" viewBox="0 0 24 24" width="24" xmlns="http://www.w3.org/2000/svg"><path d="m5.76436 8-.295-.73c-.04921-.1218-.07395-.2521-.07279-.38346s.02819-.2612.07954-.38211c.05136-.12091.12603-.23052.21976-.32256.09372-.09204.20467-.16472.32649-.21387l9.27204-3.746c.2457-.09914.5207-.09669.7647.00681.2439.1035.4368.29958.5363.54519l5.62 13.908c.0492.1218.0739.2521.0728.3835-.0012.1313-.0282.2612-.0796.3821-.0513.1209-.126.2305-.2197.3225-.0938.0921-.2047.1647-.3265.2139l-9.272 3.746c-.1218.0492-.2521.0739-.3835.0728-.1314-.0012-.2612-.0282-.3821-.0796-.1209-.0513-.2305-.126-.3226-.2197-.092-.0937-.1647-.2047-.2138-.3265l-.088-.217v.04h-4.00004c-.26522 0-.51957-.1054-.70711-.2929-.18753-.1875-.29289-.4419-.29289-.7071v-.27l-3.35-1.353c-.24585-.0995-.44212-.2925-.54564-.5367s-.10581-.5194-.00636-.7653zm2.236 11h2.20904l-2.20904-5.467zm-2-6.244-1.673 4.141 1.673.711zm1.698-5.309 4.87004 12.054 7.418-2.997-4.87-12.053zm2.97804 2.033c-.246.09932-.5214.09686-.76557-.00685s-.43715-.30016-.53647-.54615-.09686-.52136.00685-.76553.30016-.43715.54615-.53647c.24594-.09946.52144-.09712.76564.00649.2443.10362.4374.30002.5369.54601.0994.24599.0971.52141-.0065.76568-.1036.24426-.3001.43736-.546.53682z" /></svg>