<svg fill="currentColor" height="24" viewBox="0 0 24 24" width="24" xmlns="http://www.w3.org/2000/svg"><path d="m7 11c-.59095 0-1.17611-.1164-1.72208-.3425-.54596-.2262-1.04204-.5577-1.4599-.97552-.41786-.41786-.74933-.91394-.97548-1.4599-.22614-.54597-.34254-1.13113-.34254-1.72208s.1164-1.17611.34254-1.72208c.22615-.54596.55762-1.04204.97548-1.4599s.91394-.74933 1.4599-.97548c.54597-.22614 1.13113-.34254 1.72208-.34254 1.19347 0 2.33807.47411 3.182 1.31802.8439.84391 1.318 1.98851 1.318 3.18198s-.4741 2.33807-1.318 3.18198c-.84393.84392-1.98853 1.31802-3.182 1.31802zm10.5 4c-1.0609 0-2.0783-.4214-2.8284-1.1716-.7502-.7501-1.1716-1.7675-1.1716-2.8284 0-1.06087.4214-2.07828 1.1716-2.82843.7501-.75014 1.7675-1.17157 2.8284-1.17157s2.0783.42143 2.8284 1.17157c.7502.75015 1.1716 1.76756 1.1716 2.82843 0 1.0609-.4214 2.0783-1.1716 2.8284-.7501.7502-1.7675 1.1716-2.8284 1.1716zm0 1c1.1935 0 2.3381.4741 3.182 1.318s1.318 1.9885 1.318 3.182v.5h-9v-.5c0-1.1935.4741-2.3381 1.318-3.182s1.9885-1.318 3.182-1.318zm-10.5-4c.65661 0 1.30679.1293 1.91342.3806.60662.2513 1.15778.6196 1.62208 1.0839s.8326 1.0155 1.0839 1.6221.3806 1.2568.3806 1.9134v4h-10v-4c0-1.3261.52678-2.5979 1.46447-3.5355.93768-.9377 2.20945-1.4645 3.53553-1.4645z" /></svg>