<svg fill="currentColor" height="24" viewBox="0 0 24 24" width="24" xmlns="http://www.w3.org/2000/svg"><path d="m7 9c.66304 0 1.29893-.26339 1.76777-.73223s.73223-1.10473.73223-1.76777-.26339-1.29893-.73223-1.76777-1.10473-.73223-1.76777-.73223-1.29893.26339-1.76777.73223-.73223 1.10473-.73223 1.76777.26339 1.29893.73223 1.76777 1.10473.73223 1.76777.73223zm0 2c-.59095 0-1.17611-.1164-1.72208-.3425-.54596-.2262-1.04204-.5577-1.4599-.97552-.41786-.41786-.74933-.91394-.97548-1.4599-.22614-.54597-.34254-1.13113-.34254-1.72208s.1164-1.17611.34254-1.72208c.22615-.54596.55762-1.04204.97548-1.4599s.91394-.74933 1.4599-.97548c.54597-.22614 1.13113-.34254 1.72208-.34254 1.19347 0 2.33807.47411 3.182 1.31802.8439.84391 1.318 1.98851 1.318 3.18198s-.4741 2.33807-1.318 3.18198c-.84393.84392-1.98853 1.31802-3.182 1.31802zm10.5 2c.5304 0 1.0391-.2107 1.4142-.5858s.5858-.8838.5858-1.4142-.2107-1.03914-.5858-1.41421c-.3751-.37508-.8838-.58579-1.4142-.58579s-1.0391.21071-1.4142.58579c-.3751.37507-.5858.88381-.5858 1.41421s.2107 1.0391.5858 1.4142.8838.5858 1.4142.5858zm0 2c-1.0609 0-2.0783-.4214-2.8284-1.1716-.7502-.7501-1.1716-1.7675-1.1716-2.8284 0-1.06087.4214-2.07828 1.1716-2.82843.7501-.75014 1.7675-1.17157 2.8284-1.17157s2.0783.42143 2.8284 1.17157c.7502.75015 1.1716 1.76756 1.1716 2.82843 0 1.0609-.4214 2.0783-1.1716 2.8284-.7501.7502-1.7675 1.1716-2.8284 1.1716zm2.5 6v-.5c0-.663-.2634-1.2989-.7322-1.7678-.4689-.4688-1.1048-.7322-1.7678-.7322s-1.2989.2634-1.7678.7322c-.4688.4689-.7322 1.1048-.7322 1.7678v.5h-2v-.5c0-.5909.1164-1.1761.3425-1.7221.2262-.5459.5577-1.042.9755-1.4599.4179-.4178.914-.7493 1.4599-.9755.546-.2261 1.1312-.3425 1.7221-.3425s1.1761.1164 1.7221.3425c.5459.2262 1.042.5577 1.4599.9755.4178.4179.7493.914.9755 1.4599.2261.546.3425 1.1312.3425 1.7221v.5zm-10 0v-4c0-.7956-.31607-1.5587-.87868-2.1213s-1.32567-.8787-2.12132-.8787-1.55871.3161-2.12132.8787-.87868 1.3257-.87868 2.1213v4h-2v-4c0-1.3261.52678-2.5979 1.46447-3.5355.93768-.9377 2.20945-1.4645 3.53553-1.4645s2.59785.5268 3.5355 1.4645c.9377.9376 1.4645 2.2094 1.4645 3.5355v4z" /></svg>