<svg fill="currentColor" height="24" viewBox="0 0 24 24" width="24" xmlns="http://www.w3.org/2000/svg"><path d="m4 3h16c.2652 0 .5196.10536.7071.29289.1875.18754.2929.44189.2929.70711v16c0 .2652-.1054.5196-.2929.7071s-.4419.2929-.7071.2929h-16c-.26522 0-.51957-.1054-.70711-.2929-.18753-.1875-.29289-.4419-.29289-.7071v-16c0-.26522.10536-.51957.29289-.70711.18754-.18753.44189-.29289.70711-.29289zm1 2v14h14v-14zm4 2h3.5c.9283 0 1.8185.36875 2.4749 1.02513.6564.65637 1.0251 1.54661 1.0251 2.47487 0 .9283-.3687 1.8185-1.0251 2.4749s-1.5466 1.0251-2.4749 1.0251h-1.5v3h-2zm2 2v3h1.5c.3978 0 .7794-.158 1.0607-.4393s.4393-.6629.4393-1.0607-.158-.77936-.4393-1.06066-.6629-.43934-1.0607-.43934z" /></svg>