<svg fill="currentColor" height="24" viewBox="0 0 24 24" width="24" xmlns="http://www.w3.org/2000/svg"><path d="m11 14h1.5c.9283 0 1.8185-.3687 2.4749-1.0251s1.0251-1.5466 1.0251-2.4749c0-.92826-.3687-1.8185-1.0251-2.47487-.6564-.65638-1.5466-1.02513-2.4749-1.02513h-3.5v10h2zm-7-11h16c.2652 0 .5196.10536.7071.29289.1875.18754.2929.44189.2929.70711v16c0 .2652-.1054.5196-.2929.7071s-.4419.2929-.7071.2929h-16c-.26522 0-.51957-.1054-.70711-.2929-.18753-.1875-.29289-.4419-.29289-.7071v-16c0-.26522.10536-.51957.29289-.70711.18754-.18753.44189-.29289.70711-.29289zm7 6h1.5c.3978 0 .7794.15804 1.0607.43934s.4393.66286.4393 1.06066-.158.7794-.4393 1.0607-.6629.4393-1.0607.4393h-1.5z" /></svg>