<svg fill="currentColor" height="24" viewBox="0 0 24 24" width="24" xmlns="http://www.w3.org/2000/svg"><path d="m20 2c.2652 0 .5196.10536.7071.29289.1875.18754.2929.44189.2929.70711v18c0 .2652-.1054.5196-.2929.7071s-.4419.2929-.7071.2929h-16c-.26522 0-.51957-.1054-.70711-.2929-.18753-.1875-.29289-.4419-.29289-.7071v-18c0-.26522.10536-.51957.29289-.70711.18754-.18753.44189-.29289.70711-.29289zm-4 14h-8v2h8zm-4-10c-1.0609 0-2.07828.42143-2.82843 1.17157-.75014.75015-1.17157 1.76756-1.17157 2.82843 0 1.0609.42143 2.0783 1.17157 2.8284.75015.7502 1.76753 1.1716 2.82843 1.1716s2.0783-.4214 2.8284-1.1716c.7502-.7501 1.1716-1.7675 1.1716-2.8284 0-1.06087-.4214-2.07828-1.1716-2.82843-.7501-.75014-1.7675-1.17157-2.8284-1.17157zm0 2c.5304 0 1.0391.21071 1.4142.58579.3751.37507.5858.88378.5858 1.41421 0 .5304-.2107 1.0391-.5858 1.4142s-.8838.5858-1.4142.5858-1.0391-.2107-1.4142-.5858-.5858-.8838-.5858-1.4142c0-.53043.2107-1.03914.5858-1.41421.3751-.37508.8838-.58579 1.4142-.58579z" /></svg>