<svg fill="currentColor" height="24" viewBox="0 0 24 24" width="24" xmlns="http://www.w3.org/2000/svg"><path d="m15 17c-1.9891 0-3.8968-.7902-5.3033-2.1967-1.40652-1.4065-2.1967-3.3142-2.1967-5.3033 0-1.98912.79018-3.89678 2.1967-5.3033 1.4065-1.40652 3.3142-2.1967 5.3033-2.1967s3.8968.79018 5.3033 2.1967 2.1967 3.31418 2.1967 5.3033c0 1.9891-.7902 3.8968-2.1967 5.3033s-3.3142 2.1967-5.3033 2.1967zm0-2c1.4587 0 2.8576-.5795 3.8891-1.6109 1.0314-1.0315 1.6109-2.4304 1.6109-3.8891 0-1.45869-.5795-2.85764-1.6109-3.88909-1.0315-1.03145-2.4304-1.61091-3.8891-1.61091s-2.8576.57946-3.8891 1.61091c-1.0314 1.03145-1.6109 2.4304-1.6109 3.88909 0 1.4587.5795 2.8576 1.6109 3.8891 1.0315 1.0314 2.4304 1.6109 3.8891 1.6109zm-13-13h5v20h-5zm2 2v16h1v-16z" /></svg>