<svg fill="currentColor" height="24" viewBox="0 0 24 24" width="24" xmlns="http://www.w3.org/2000/svg"><path d="m15 7c0-.26522.1054-.51957.2929-.70711.1875-.18753.4419-.29289.7071-.29289s.5196.10536.7071.29289c.1875.18754.2929.44189.2929.70711v10c0 .2652-.1054.5196-.2929.7071s-.4419.2929-.7071.2929-.5196-.1054-.7071-.2929-.2929-.4419-.2929-.7071zm-8 0c0-.26522.10536-.51957.29289-.70711.18754-.18753.44189-.29289.70711-.29289s.51957.10536.70711.29289c.18753.18754.29289.44189.29289.70711v10c0 .2652-.10536.5196-.29289.7071-.18754.1875-.44189.2929-.70711.2929s-.51957-.1054-.70711-.2929c-.18753-.1875-.29289-.4419-.29289-.7071z" /></svg>