<svg fill="currentColor" height="24" viewBox="0 0 24 24" width="24" xmlns="http://www.w3.org/2000/svg"><path d="m8.49475 20.667h1.55105l.538-3.376c.1045-.6595.4408-1.2602.9486-1.6939s1.1536-.672 1.8214-.6721h.5c2.677 0 4.06-.983 4.55-3.503.208-1.066.117-1.73-.171-2.102-1.207 3.054-3.79 4.16-6.962 4.16h-.884c-.384 0-.79405.209-.85205.58zm-4.944-.294c-.07961 0-.15827-.0173-.23055-.0507-.07229-.0333-.1365-.0819-.1882-.1425-.0517-.0605-.08967-.1315-.11129-.2082-.02162-.0766-.02638-.157-.01396-.2356l2.673-16.96c.03432-.21657.14487-.41376.31171-.55603.16685-.14228.37902-.22029.59829-.21997h6.42405c2.212 0 3.942.467 4.899 1.558.87.99 1.123 2.084.871 3.692.36.191.668.425.916.706.818.933.978 2.26.668 3.85-.74 3.805-3.276 5.12-6.514 5.12h-.5c-.1915.0003-.3766.0688-.5222.1932-.1455.1244-.2419.2967-.2718.4858l-.702 4.383c-.0298.1892-.1262.3616-.2717.486-.1456.1245-.3308.1929-.5223.193h-4.34405c-.06976 0-.13868-.0151-.20204-.0443-.06335-.0293-.11963-.0718-.16495-.1249-.04533-.053-.07864-.1152-.09763-.1823s-.02321-.1376-.01238-.2065l.274-1.736h-2.967zm6.83605-8.894h.884c3.19 0 4.895-1.212 5.483-4.229.02-.101.037-.203.053-.309.166-1.06.05-1.553-.398-2.063-.465-.53-1.603-.878-3.396-.878h-5.50005l-2.267 14.373h1.561l.73-4.628.007.001c.14686-.6441.50817-1.2192 1.0247-1.6311s1.15766-.6361 1.81835-.6359z" /></svg>