<svg fill="currentColor" height="24" viewBox="0 0 24 24" width="24" xmlns="http://www.w3.org/2000/svg"><path d="m20.0671 8.478c.492.88.556 2.014.3 3.327-.74 3.806-3.276 5.12-6.514 5.12h-.5c-.1916.0003-.3768.0689-.5224.1936-.1455.1246-.2418.2971-.2716.4864l-.04.22-.63 3.993-.032.17c-.0298.1892-.1261.3616-.2717.486-.1455.1245-.3308.1929-.5223.193h-3.34299c-.06976 0-.13868-.0152-.20204-.0444-.06335-.0292-.11963-.0717-.16495-.1248-.04533-.053-.07864-.1152-.09763-.1823s-.02321-.1376-.01238-.2065l.175-1.109h1.518l.95-6.02h1.38499c4.678 0 7.75-2.203 8.796-6.502zm-2.96-5.09c.762.868.983 1.81.752 3.285-.019.123-.04.24-.062.36-.735 3.773-3.089 5.446-6.956 5.446h-1.88399c-.63 0-1.174.414-1.354 1.002l-.014-.002-.93 5.894h-3.538c-.00744 0-.01479-.0017-.02152-.0049-.00673-.0031-.01269-.0077-.01746-.0134-.00476-.0058-.00822-.0125-.01012-.0197s-.00221-.0147-.0009-.022l2.598-16.51c.03503-.22366.14878-.42745.32075-.57467.17198-.14723.39087-.2282.61725-.22833h5.97599c2.183 0 3.716.469 4.523 1.388z" /></svg>