<svg fill="currentColor" height="24" viewBox="0 0 24 24" width="24" xmlns="http://www.w3.org/2000/svg"><path d="m4.92908 21.485 5.84602-5.846c.4252.114.8763.0845 1.283-.084.4068-.1685.7466-.4664.9668-.8477s.3083-.8246.2509-1.2611c-.0575-.4365-.2574-.8419-.5687-1.1532s-.7167-.5112-1.1532-.5687-.8798.0307-1.2611.2509c-.38128.2201-.67926.56-.84772.9667-.16847.4068-.19799.8578-.084 1.2831l-5.846 5.846-1.06-1.06c2.827-3.3 3.888-6.954 5.302-13.082l6.36402-.707 5.657 5.657-.707 6.364c-6.128 1.414-9.78202 2.475-13.08102 5.303l-1.061-1.06zm11.66702-19.445 6.347 6.346c.0654.06529.1114.14743.1329.2373.0216.08987.0178.18396-.0109.2718-.0287.08785-.0812.16603-.1516.22585s-.1561.09896-.2474.11305l-1.474.23-5.656-5.656.212-1.485c.0132-.09183.0516-.17818.1111-.2494.0594-.07121.1375-.12448.2255-.15385s.1825-.03367.2728-.01244c.0903.02124.1729.06718.2386.13269z" /></svg>