<svg fill="currentColor" height="24" viewBox="0 0 24 24" width="24" xmlns="http://www.w3.org/2000/svg"><path d="m16.142 2.14597 6.347 6.346c.0654.06529.1114.14743.133.2373.0215.08987.0177.18395-.011.2718-.0287.08784-.0811.16602-.1516.22584-.0704.05983-.1561.09896-.2474.11306l-1.474.23-5.656-5.656.212-1.485c.0132-.09183.0516-.17819.1111-.2494.0595-.07122.1375-.12449.2255-.15386.088-.02936.1825-.03367.2728-.01243.0903.02123.1729.06718.2386.13269zm-12.001 19.11003c3.722-3.331 7.995-4.328 12.643-5.52l.446-4.018-4.297-4.29703-4.018.446c-1.192 4.64803-2.189 8.92003-5.52 12.64303l-1.395-1.394c2.828-3.3 3.89-6.953 5.303-13.08103l6.364-.707 5.657 5.65703-.707 6.364c-6.128 1.414-9.782 2.475-13.081 5.303zm5.284-6.03c-.19102-.1845-.34338-.4052-.4482-.6492s-.15999-.5065-.1623-.772c-.00231-.2656.04829-.5289.14886-.7747.10056-.2458.24906-.4691.43685-.6569s.41109-.3363.65689-.4369c.2458-.1005.5091-.1511.7747-.1488s.528.0574.772.1623c.244.1048.4647.2571.6492.4482.3593.378.5567.8815.5501 1.403s-.2166 1.0199-.5853 1.3887c-.3688.3689-.867.5791-1.3886.5859-.5215.0068-1.02501-.1905-1.4032-.5496z" /></svg>