<svg fill="currentColor" height="24" viewBox="0 0 24 24" width="24" xmlns="http://www.w3.org/2000/svg"><path d="m7.04996 14.121-2.12 2.122 2.828 2.828 11.31304-11.314-2.828-2.827-2.123 2.12 1.415 1.414-1.415 1.416-1.414-1.415-1.414 1.415 1.414 1.414-1.414 1.414-1.41404-1.414-1.415 1.414 1.415 1.414-1.415 1.415-1.413-1.417zm9.90004-11.313 4.242 4.242c.1874.18753.2927.44184.2927.707s-.1053.51947-.2927.707l-12.72804 12.728c-.18753.1875-.44184.2928-.707.2928-.26517 0-.51947-.1053-.707-.2928l-4.242-4.242c-.18747-.1875-.29279-.4418-.29279-.707s.10532-.5195.29279-.707l12.72804-12.728c.1875-.18747.4418-.29279.707-.29279.2651 0 .5194.10532.707.29279zm-2.83 15.555 1.415-1.414 2.242 2.243h1.414v-1.414l-2.242-2.243 1.414-1.414 2.637 2.636v4.243h-4.242l-2.637-2.637zm-8.48404-8.485-2.829-2.828c-.09298-.09287-.16674-.20316-.21706-.32456-.05033-.1214-.07623-.25152-.07623-.38294s.0259-.26154.07623-.38294c.05032-.1214.12408-.23169.21706-.32456l2.829-2.828c.18753-.18747.44183-.29279.707-.29279.26516 0 .51947.10532.707.29279l2.83 2.828-1.416 1.415-2.121-2.122-1.414 1.415 2.121 2.12z" /></svg>