<svg fill="currentColor" height="24" viewBox="0 0 24 24" width="24" xmlns="http://www.w3.org/2000/svg"><path d="m5.63596 12.707 1.828 1.829 1.416-1.416-1.83-1.827 1.414-1.414 1.82904 1.828 1.414-1.414-1.82704-1.829 1.41404-1.414 1.826 1.83 1.415-1.415-1.829-1.828 2.829-2.828c.1875-.18747.4418-.29279.707-.29279.2651 0 .5194.10532.707.29279l4.242 4.242c.1874.18753.2927.44184.2927.707s-.1053.51947-.2927.707l-12.72704 12.727c-.18753.1875-.44184.2928-.707.2928-.26517 0-.51947-.1053-.707-.2928l-4.242-4.242c-.18747-.1875-.29279-.4418-.29279-.707s.10532-.5195.29279-.707zm8.48504 5.656 4.243-4.242 2.636 2.636v4.243h-4.242zm-8.48504-8.485-2.829-2.828c-.09298-.09287-.16674-.20316-.21706-.32456-.05033-.1214-.07623-.25152-.07623-.38294s.0259-.26154.07623-.38294c.05032-.1214.12408-.23169.21706-.32456l2.829-2.828c.18753-.18747.44183-.29279.707-.29279.26516 0 .51947.10532.707.29279l2.83 2.828z" /></svg>