<svg fill="currentColor" height="24" viewBox="0 0 24 24" width="24" xmlns="http://www.w3.org/2000/svg"><path d="m17.5 21c-.9283 0-1.8185-.3687-2.4749-1.0251s-1.0251-1.5466-1.0251-2.4749.3687-1.8185 1.0251-2.4749 1.5466-1.0251 2.4749-1.0251 1.8185.3687 2.4749 1.0251 1.0251 1.5466 1.0251 2.4749-.3687 1.8185-1.0251 2.4749-1.5466 1.0251-2.4749 1.0251zm-11-11c-.45963 0-.91475-.09053-1.33939-.26642s-.81048-.4337-1.13548-.75871c-.32501-.325-.58282-.71084-.75871-1.13548s-.26642-.87976-.26642-1.33939.09053-.91475.26642-1.33939.4337-.81048.75871-1.13548c.325-.32501.71084-.58282 1.13548-.75871s.87976-.26642 1.33939-.26642c.92826 0 1.8185.36875 2.47487 1.02513.65638.65637 1.02513 1.54661 1.02513 2.47487s-.36875 1.8185-1.02513 2.47487c-.65637.65638-1.54661 1.02513-2.47487 1.02513zm12.571-6.485 1.414 1.414-15.555 15.556-1.414-1.414 15.554-15.556z" /></svg>