<svg fill="currentColor" height="24" viewBox="0 0 24 24" width="24" xmlns="http://www.w3.org/2000/svg" xmlns:xlink="http://www.w3.org/1999/xlink"><clipPath id="a"><path d="m0 0h24v24h-24z"/></clipPath><g clip-path="url(#a)"><path d="m2.51132 15.2382-2.5003311-2.5003c-.1791049-.179-.2836699-.4192-.2925939-.6722s.078457-.5.2445101-.6911c.2877929-.3302.5289159-.594.7240779-.7891 6.248707-6.24875 16.378717-6.24875 22.627417 0 .1952.1951.437.4582.7241.7891.166.1911.2534.4381.2445.6911s-.1135.4932-.2926.6722l-2.5003 2.5003c-.0877.0878-.2048.1399-.3287.1462-.1238.0063-.2456-.0337-.3417-.1122-.1789-.1464-.3231-.261-.4356-.3451-1.1212-.8402-2.363-1.506-3.6833-1.975-.2086-.0742-.3337-.287-.297-.5048l.4356-2.61633c-3.1069-1.24097-6.5719-1.24097-9.67885 0l.43416 2.61203c.01771.1068-.00259.2163-.05738.3096s-.14059.1644-.24244.201c-1.31938.4696-2.56022 1.1359-3.68049 1.9763-.11243.0842-.25738.198-.43416.3437-.09608.0782-.21776.1179-.34148.1115s-.23995-.0592-.32744-.1469z" /></g></svg>