<svg fill="currentColor" height="24" viewBox="0 0 24 24" width="24" xmlns="http://www.w3.org/2000/svg"><path d="m18 2c.2652 0 .5196.10536.7071.29289.1875.18754.2929.44189.2929.70711v8h-2v-7h-10v16h4v2h-5c-.26522 0-.51957-.1054-.70711-.2929-.18753-.1875-.29289-.4419-.29289-.7071v-18c0-.26522.10536-.51957.29289-.70711.18754-.18753.44189-.29289.70711-.29289zm-3 10c.7053-.0001 1.3982.1863 2.0082.5403.6101.354 1.1157.8631 1.4656 1.4755.3498.6125.5316 1.3065.5267 2.0118-.0049.7054-.1962 1.3969-.5545 2.0044l2.21 2.21-1.413 1.415-2.212-2.21c-.5299.312-1.1246.4976-1.7379.5424s-1.2286-.0524-1.7982-.2841c-.5696-.2316-1.0782-.5914-1.4861-1.0515-.408-.4601-.7044-1.0081-.8662-1.6013-.1618-.5933-.1846-1.2158-.0667-1.8193.1178-.6036.3733-1.1718.7464-1.6605.3732-.4888.854-.8849 1.4051-1.1577.5511-.2727 1.1577-.4147 1.7726-.415zm0 2c-.5304 0-1.0391.2107-1.4142.5858s-.5858.8838-.5858 1.4142.2107 1.0391.5858 1.4142.8838.5858 1.4142.5858 1.0391-.2107 1.4142-.5858.5858-.8838.5858-1.4142-.2107-1.0391-.5858-1.4142-.8838-.5858-1.4142-.5858z" /></svg>