<svg fill="currentColor" height="24" viewBox="0 0 24 24" width="24" xmlns="http://www.w3.org/2000/svg" xmlns:xlink="http://www.w3.org/1999/xlink"><clipPath id="a"><path d="m0 0h24v24h-24z"/></clipPath><g clip-path="url(#a)"><path d="m14.7941 11.0695c-1.8291-.5022-3.7598-.5022-5.58894 0l.25032 1.5004c.04024.2413-.00936.489-.1394.6962s-.33151.3595-.56629.4281c-1.54662.4536-2.97974 1.2293-4.20517 2.2762-.19138.1633-.43726.2484-.68863.2385-.25136-.01-.48974-.1143-.6676-.2922l-3.1551087-3.1551c-.1751133-.1751-.2790653-.4088-.2917353-.6561-.012671-.2473.066843-.4905.2231472-.6825.3358758-.4136.6943778-.8103 1.0747968-1.1907 6.05284-6.05288 15.86751-6.05288 21.92031 0 .3804.3804.7389.7771 1.0748 1.1907.1563.192.2358.4352.2232.6825-.0127.2473-.1167.481-.2918.6561l-3.1551 3.1551c-.1779.1779-.4162.2822-.6676.2922-.2514.0099-.4972-.0752-.6886-.2385-1.2255-1.0469-2.6586-1.8226-4.2052-2.2762-.2348-.0686-.4362-.2209-.5663-.4281-.13-.2072-.1796-.4549-.1394-.6962zm2.2479-1.31879-.3839 2.30309c1.2043.4417 2.3389 1.0539 3.3693 1.8179l1.8647-1.8646c-.1132-.1216-.2291-.2418-.3472-.3599-5.2715-5.27292-13.819-5.27292-19.09119-.0007-.11809.1181-.23405.2383-.34648.3606l1.86464 1.8646c1.03039-.764 2.16507-1.3762 3.36936-1.8179l-.38396-2.30309c.53643-.23621 1.08888-.43422 1.65322-.59255l.06434-.01768c2.17627-.5976 4.47337-.5976 6.64967 0l.0643.01768c.5644.15833 1.1168.35634 1.6532.59255z" /></g></svg>