<svg fill="currentColor" height="24" viewBox="0 0 24 24" width="24" xmlns="http://www.w3.org/2000/svg"><path d="m18 2c.2652 0 .5196.10536.7071.29289.1875.18754.2929.44189.2929.70711v7h-2v-6h-10v16h5v2h-6c-.26522 0-.51957-.1054-.70711-.2929-.18753-.1875-.29289-.4419-.29289-.7071v-18c0-.26522.10536-.51957.29289-.70711.18754-.18753.44189-.29289.70711-.29289zm0 10c.7956 0 1.5587.3161 2.1213.8787s.8787 1.3257.8787 2.1213v1h1v5c0 .2652-.1054.5196-.2929.7071s-.4419.2929-.7071.2929h-6c-.2652 0-.5196-.1054-.7071-.2929s-.2929-.4419-.2929-.7071v-5h1v-1c0-.7956.3161-1.5587.8787-2.1213s1.3257-.8787 2.1213-.8787zm2 6h-4v2h4zm-2-4c-.508 0-1 .45-1 1v1h2v-1c0-.2652-.1054-.5196-.2929-.7071s-.4419-.2929-.7071-.2929z" /></svg>