<svg fill="currentColor" height="24" viewBox="0 0 24 24" width="24" xmlns="http://www.w3.org/2000/svg"><path d="m14.803 4c-.661 1.14394-.926 2.47408-.7538 3.78402.1722 1.30993.7719 2.52638 1.7062 3.46058.9342.9343 2.1507 1.534 3.4606 1.7062s2.6401-.0928 3.784-.7538v6.803c0 .553-.44 1.001-1.002 1.001h-19.996c-.13157.0003-.26191-.0254-.38353-.0756s-.23214-.1239-.32522-.2169c-.09309-.093-.1669-.2035-.21723-.325-.05032-.1216-.076151-.2519-.07602-.3835v-14c0-.552.44-1 1.002-1h12.8zm5.197 7c-1.0609 0-2.0783-.4214-2.8284-1.17157-.7502-.75015-1.1716-1.76756-1.1716-2.82843s.4214-2.07828 1.1716-2.82843c.7501-.75014 1.7675-1.17157 2.8284-1.17157s2.0783.42143 2.8284 1.17157c.7502.75015 1.1716 1.76756 1.1716 2.82843s-.4214 2.07828-1.1716 2.82843c-.7501.75017-1.7675 1.17157-2.8284 1.17157zm0-2c.5304 0 1.0391-.21071 1.4142-.58579.3751-.37507.5858-.88378.5858-1.41421s-.2107-1.03914-.5858-1.41421c-.3751-.37508-.8838-.58579-1.4142-.58579s-1.0391.21071-1.4142.58579c-.3751.37507-.5858.88378-.5858 1.41421s.2107 1.03914.5858 1.41421c.3751.37508.8838.58579 1.4142.58579zm-1 6v3h2v-3z" /></svg>