<svg fill="currentColor" height="24" viewBox="0 0 24 24" width="24" xmlns="http://www.w3.org/2000/svg"><path d="m21 16.42v3.536c.0001.2532-.0958.497-.2684.6822s-.409.2981-.6616.3158c-.437.03-.794.046-1.07.046-8.837 0-16-7.163-16-16 0-.276.015-.633.046-1.07.01772-.25256.13058-.48899.3158-.66159.18523-.1726.42902-.26852.6822-.26841h3.536c.12404-.00013.2437.04586.33573.12902s.14987.19756.16227.32098c.023.23.044.413.064.552.19873 1.38692.606 2.73583 1.208 4.001.095.2.033.439-.147.567l-2.158 1.542c1.31945 3.0745 3.7695 5.5245 6.844 6.844l1.54-2.154c.0629-.088.1548-.1511.2595-.1783.1047-.0273.2157-.0169.3135.0293 1.265.6009 2.6136 1.0071 4 1.205.139.02.322.042.55.064.1232.0126.2374.0706.3204.1626.0829.092.1288.2115.1286.3354z" /></svg>