<svg fill="currentColor" height="24" viewBox="0 0 24 24" width="24" xmlns="http://www.w3.org/2000/svg"><path d="m9.366 10.682c.9383 1.6485 2.3035 3.0137 3.952 3.952l.884-1.238c.1422-.1991.3524-.3391.5908-.3937.2385-.0545.4886-.0198.7032.0977 1.4143.7729 2.9762 1.2378 4.583 1.364.2508.0199.4848.1335.6555.3183s.2655.4271.2655.6787v4.462c.0001.2476-.0917.4864-.2576.6702s-.3941.2995-.6404.3248c-.53.055-1.064.082-1.602.082-8.56 0-15.5-6.94-15.5-15.5 0-.538.027-1.072.082-1.602.02525-.2463.14098-.47448.32479-.64037.18381-.16588.42262-.25768.67021-.25763h4.462c.25156-.00003.4939.09475.67868.26545.18479.1707.29845.40477.31832.65555.12622 1.60679.5911 3.16868 1.364 4.583.1175.21456.1522.46474.0977.7032-.0546.23845-.1946.44864-.3937.5908zm-2.522-.657 1.9-1.357c-.53922-1.16391-.90865-2.39916-1.097-3.668h-2.637c-.006.166-.009.333-.009.5-.001 7.456 6.043 13.5 13.499 13.5.167 0 .334-.003.5-.01v-2.637c-1.2688-.1884-2.5041-.5578-3.668-1.097l-1.357 1.9c-.5463-.2123-1.077-.4629-1.588-.75l-.058-.033c-1.9614-1.1163-3.58572-2.7406-4.702-4.702l-.033-.058c-.28709-.511-.53772-1.0417-.75-1.588z" /></svg>