<svg fill="currentColor" height="24" viewBox="0 0 24 24" width="24" xmlns="http://www.w3.org/2000/svg"><path d="m18 2c.2652 0 .5196.10536.7071.29289.1875.18754.2929.44189.2929.70711v8.529c-.8632-.7721-1.9315-1.2779-3.0758-1.4563-1.1444-.17835-2.3159-.0217-3.3732.451s-1.9552 1.2413-2.58526 2.2131c-.63011.9717-.96552 2.105-.96574 3.2632 0 3.238 2.76 6 6 6h-9c-.26522 0-.51957-.1054-.70711-.2929-.18753-.1875-.29289-.4419-.29289-.7071v-18c0-.26522.10536-.51957.29289-.70711.18754-.18753.44189-.29289.70711-.29289zm-3 10c.7053-.0001 1.3982.1863 2.0082.5403.6101.354 1.1157.8631 1.4656 1.4755.3498.6125.5316 1.3065.5267 2.0118-.0049.7054-.1962 1.3969-.5545 2.0044l2.21 2.21-1.413 1.415-2.211-2.21c-.5299.3119-1.1245.4975-1.7377.5424-.6133.0448-1.2286-.0524-1.7982-.284-.5696-.2315-1.0781-.5913-1.4861-1.0514-.408-.46-.7044-1.0079-.8663-1.601-.1618-.5932-.1847-1.2157-.067-1.8192.1178-.6035.3732-1.1717.7462-1.6605s.8537-.885 1.4047-1.1579c.551-.2728 1.1575-.415 1.7724-.4154zm0 2c-.5304 0-1.0391.2107-1.4142.5858s-.5858.8838-.5858 1.4142.2107 1.0391.5858 1.4142.8838.5858 1.4142.5858 1.0391-.2107 1.4142-.5858.5858-.8838.5858-1.4142-.2107-1.0391-.5858-1.4142-.8838-.5858-1.4142-.5858z" /></svg>