<svg fill="currentColor" height="24" viewBox="0 0 24 24" width="24" xmlns="http://www.w3.org/2000/svg"><path d="m11 .543c.33-.029.663-.043 1-.043 6.351 0 11.5 5.149 11.5 11.5 0 .337-.014.67-.043 1h-1.506c-.502 5.053-4.766 9-9.951 9-5.523 0-10-4.477-10-10 0-5.185 3.947-9.449 9-9.95v-1.508zm0 12.457v-8.938c-2.01729.25668-3.86115 1.27187-5.15681 2.83922-1.29567 1.56735-1.94591 3.56928-1.81857 5.59878.12734 2.0296 1.02271 3.9345 2.50412 5.3276 1.48142 1.3931 3.43771 2.1699 5.47126 2.1724 1.9486 0 3.8302-.7112 5.2917-2 1.4616-1.2888 2.4025-3.0667 2.6463-5zm10.448-2c-.2293-2.1621-1.193-4.18021-2.7304-5.71761-1.5374-1.53741-3.5555-2.50113-5.7176-2.73039v8.448z" /></svg>