<svg fill="currentColor" height="24" viewBox="0 0 24 24" width="24" xmlns="http://www.w3.org/2000/svg"><path d="m3 3h18c.2652 0 .5196.10536.7071.29289.1875.18754.2929.44189.2929.70711v16c0 .2652-.1054.5196-.2929.7071s-.4419.2929-.7071.2929h-18c-.26522 0-.51957-.1054-.70711-.2929-.18753-.1875-.29289-.4419-.29289-.7071v-16c0-.26522.10536-.51957.29289-.70711.18754-.18753.44189-.29289.70711-.29289zm13.9 10h-5.9v-5.9c-1.21135.25092-2.28675.94182-3.01849 1.93926-.73175.99744-1.06792 2.23064-.9436 3.46144.12433 1.2308.70033 2.3719 1.61676 3.2028.91643.831 2.10823 1.2929 3.34533 1.2965 1.1526-.0001 2.2697-.3983 3.1625-1.1271.8929-.7289 1.5066-1.7437 1.7375-2.8729zm0-2c-.1967-.9606-.6711-1.84222-1.3645-2.53554-.6933-.69332-1.5749-1.16777-2.5355-1.36446v3.9z" /></svg>