<svg fill="currentColor" height="24" viewBox="0 0 24 24" width="24" xmlns="http://www.w3.org/2000/svg"><path d="m12 22c-5.523 0-10-4.477-10-10 0-4.478 2.943-8.268 7-9.542v2.124c-1.71908.69804-3.1422 1.97171-4.02594 3.60312-.88374 1.6314-1.17318 3.51918-.81881 5.34038.35438 1.8213 1.33054 3.4628 2.76151 4.6438 1.43098 1.181 3.22784 1.8282 5.08324 1.8307 1.5938 0 3.1513-.476 4.4728-1.3668 1.3216-.8908 2.3472-2.1559 2.9452-3.6332h2.124c-1.274 4.057-5.064 7-9.542 7zm9.95-9h-10.95v-10.95c.329-.033.663-.05 1-.05 5.523 0 10 4.477 10 10 0 .337-.017.671-.05 1zm-8.95-8.938v6.938h6.938c-.2226-1.76239-1.0251-3.40066-2.2812-4.65676-1.2561-1.25611-2.8944-2.05865-4.6568-2.28124z" /></svg>