<svg fill="currentColor" height="24" viewBox="0 0 24 24" width="24" xmlns="http://www.w3.org/2000/svg"><path d="m3 3h18c.2652 0 .5196.10536.7071.29289.1875.18754.2929.44189.2929.70711v16c0 .2652-.1054.5196-.2929.7071s-.4419.2929-.7071.2929h-18c-.26522 0-.51957-.1054-.70711-.2929-.18753-.1875-.29289-.4419-.29289-.7071v-16c0-.26522.10536-.51957.29289-.70711.18754-.18753.44189-.29289.70711-.29289zm1 2v14h16v-14zm12.9 8c-.2509 1.2114-.9418 2.2867-1.9393 3.0185-.9974.7317-2.2306 1.0679-3.4614.9436s-2.37189-.7003-3.20285-1.6168c-.83096-.9164-1.29284-2.1082-1.29645-3.3453.00014-1.1526.3983-2.2697 1.12714-3.16253.72885-.89284 1.74367-1.50659 2.87286-1.73747v5.9zm0-2h-3.9v-3.9c.9606.19669 1.8422.67114 2.5355 1.36446.6934.69332 1.1678 1.57494 1.3645 2.53554z" /></svg>