<svg fill="currentColor" height="24" viewBox="0 0 24 24" width="24" xmlns="http://www.w3.org/2000/svg"><path d="m9.975 8.97488c.4895-.48949.8228-1.11314.9578-1.79206s.0657-1.38264-.1993-2.02216c-.2649-.63952-.7135-1.18612-1.28904-1.57069-.57556-.38457-1.25224-.58983-1.94446-.58983s-1.36889.20526-1.94446.58983c-.57556.38457-1.02416.93117-1.28908 1.57069s-.33425 1.34324-.19923 2.02216.46832 1.30257.95777 1.79206l2.475 2.47502zm-2.475 5.30302-3.89-3.888c-.76893-.76931-1.2925-1.74932-1.50451-2.81614-.212-1.06683-.10294-2.17256.31342-3.17741.41636-1.00484 1.12131-1.86367 2.02572-2.4679.90442-.60424 1.96769-.92674 3.05537-.92674 1.08769 0 2.15096.3225 3.0554.92674.9044.60423 1.6093 1.46306 2.0257 2.4679.4164 1.00485.5254 2.11058.3134 3.17741-.212 1.06682-.7356 2.04683-1.5045 2.81614l-3.89 3.89zm0-6.27802c-.39782 0-.77935-.15803-1.06066-.43934-.2813-.2813-.43934-.66283-.43934-1.06066 0-.39782.15804-.77935.43934-1.06066.28131-.2813.66284-.43934 1.06066-.43934.39783 0 .77936.15804 1.06066.43934.28131.28131.43934.66284.43934 1.06066 0 .39783-.15803.77936-.43934 1.06066-.2813.28131-.66283.43934-1.06066.43934zm9 12.45002 2.475-2.475c.4895-.4895.8228-1.1132.9578-1.7921s.0657-1.3826-.1993-2.0221c-.2649-.6396-.7135-1.1862-1.289-1.5707-.5756-.3846-1.2523-.5899-1.9445-.5899s-1.3689.2053-1.9445.5899c-.5755.3845-1.0241.9311-1.289 1.5707-.265.6395-.3343 1.3432-.1993 2.0221s.4684 1.3026.9578 1.7921zm3.89-1.06-3.89 3.888-3.89-3.889c-.7689-.7693-1.2925-1.7493-1.5045-2.8161-.212-1.0669-.1029-2.1726.3134-3.1774.4164-1.0049 1.1213-1.8637 2.0257-2.468.9044-.6042 1.9677-.9267 3.0554-.9267s2.151.3225 3.0554.9267c.9044.6043 1.6093 1.4631 2.0257 2.468.4164 1.0048.5254 2.1105.3134 3.1774-.212 1.0668-.7356 2.0468-1.5045 2.8161zm-3.89-2.39c-.3978 0-.7794-.1581-1.0607-.4394s-.4393-.6628-.4393-1.0606.158-.7794.4393-1.0607.6629-.4393 1.0607-.4393.7794.158 1.0607.4393.4393.6629.4393 1.0607-.158.7793-.4393 1.0606-.6629.4394-1.0607.4394z" /></svg>