<svg fill="currentColor" height="24" viewBox="0 0 24 24" width="24" xmlns="http://www.w3.org/2000/svg"><path d="m11.39 10.3899-3.89 3.887-3.89-3.887c-.76893-.76931-1.2925-1.74932-1.50451-2.81614-.212-1.06683-.10294-2.17256.31342-3.17741.41636-1.00484 1.12131-1.86367 2.02572-2.4679.90442-.60424 1.96769-.92674 3.05537-.92674 1.08769 0 2.15096.3225 3.0554.92674.9044.60423 1.6093 1.46306 2.0257 2.4679.4164 1.00485.5254 2.11058.3134 3.17741-.212 1.06682-.7356 2.04683-1.5045 2.81614zm-3.89-1.89002c.53044 0 1.03914-.21071 1.41422-.58578.37507-.37508.58578-.88378.58578-1.41422 0-.53043-.21071-1.03914-.58578-1.41421-.37508-.37507-.88378-.58579-1.41422-.58579-.53043 0-1.03914.21072-1.41421.58579s-.58579.88378-.58579 1.41421c0 .53044.21072 1.03914.58579 1.41422.37507.37507.88378.58578 1.41421.58578zm12.89 10.89002-3.89 3.888-3.89-3.889c-.7689-.7693-1.2925-1.7493-1.5045-2.8161-.212-1.0669-.1029-2.1726.3134-3.1774.4164-1.0049 1.1213-1.8637 2.0257-2.468.9044-.6042 1.9677-.9267 3.0554-.9267s2.151.3225 3.0554.9267c.9044.6043 1.6093 1.4631 2.0257 2.468.4164 1.0048.5254 2.1105.3134 3.1774-.212 1.0668-.7356 2.0468-1.5045 2.8161zm-3.89-1.89c.5304 0 1.0391-.2107 1.4142-.5858s.5858-.8838.5858-1.4142-.2107-1.0392-.5858-1.4142c-.3751-.3751-.8838-.5858-1.4142-.5858s-1.0391.2107-1.4142.5858c-.3751.375-.5858.8838-.5858 1.4142s.2107 1.0391.5858 1.4142.8838.5858 1.4142.5858z" /></svg>