<svg fill="currentColor" height="24" viewBox="0 0 24 24" width="24" xmlns="http://www.w3.org/2000/svg"><path d="m11.5 2c2.5196 0 4.9359 1.00089 6.7175 2.78249 1.7816 1.78159 2.7825 4.19795 2.7825 6.71751.0023 1.4769-.3412 2.9337-1.003 4.254l2.463 2.464c.1875.1875.2928.4418.2928.707s-.1053.5195-.2928.707l-2.828 2.828c-.1875.1875-.4418.2928-.707.2928s-.5195-.1053-.707-.2928l-2.464-2.463c-1.3203.6618-2.7771 1.0053-4.254 1.003-2.51956 0-4.93592-1.0009-6.71751-2.7825-1.7816-1.7816-2.78249-4.1979-2.78249-6.7175 0-2.51956 1.00089-4.93592 2.78249-6.71751 1.78159-1.7816 4.19795-2.78249 6.71751-2.78249zm5.303 13.388-1.414 1.414 3.536 3.535 1.414-1.414zm1.864-6.105-9.384 9.384c.7.216 1.445.333 2.217.333.9376.0012 1.8671-.1738 2.74-.516l-.972-.974c-.1875-.1875-.2928-.4418-.2928-.707s.1053-.5195.2928-.707l2.828-2.828c.1875-.1875.4418-.2928.707-.2928s.5195.1053.707.2928l.974.972c.3422-.8729.5172-1.8024.516-2.74 0-.772-.117-1.516-.333-2.217zm-7.167-5.283c-1.61232-.00017-3.18178.51925-4.47567 1.48124s-2.24333 2.31534-2.70754 3.85939c-.46421 1.54407-.41849 3.19657.1304 4.71257.54888 1.5161 1.5717 2.8148 2.91681 3.7038l10.393-10.393c-.6832-1.03462-1.6125-1.88353-2.7045-2.47064s-2.3127-.89407-3.5525-.89336z" /></svg>