<svg fill="currentColor" height="24" viewBox="0 0 24 24" width="24" xmlns="http://www.w3.org/2000/svg"><path d="m13.3701 2.09383c-2.3927-.32914-4.82376.21855-6.84418 1.54196s-3.49378 3.33314-4.14802 5.65811c-.65425 2.325-.4452 4.8081.58856 6.991 1.03375 2.1828 2.82239 3.918 5.03564 4.8849-.05986-.7682-.00492-1.541.163-2.293.185-.839 1.296-5.463 1.296-5.463-.22124-.4959-.3318-1.034-.324-1.577 0-1.485.857-2.59297 1.923-2.59297.1915-.00278.3814.0357.5567.11283.1753.07714.3319.19112.4592.3342.1274.14307.2224.31184.2787.49494.0562.1831.0724.3761.0474.566 0 .9-.578 2.262-.88 3.54-.0597.2344-.0635.4795-.0111.7157.0525.2361.1596.4566.3129.6437.1532.1871.3483.3356.5694.4335.2212.0979.4623.1425.7038.1301 1.898 0 3.17-2.431 3.17-5.301 0-2.19997-1.457-3.84797-4.143-3.84797-.6426-.02497-1.2836.08093-1.8841.31126-.60042.23033-1.14779.58029-1.60885 1.02863-.46107.44834-.8262.98572-1.07323 1.57949-.24703.59379-.37081 1.23159-.36382 1.87459-.02864.7134.2015 1.413.648 1.97.08343.0623.14435.15.17357.25.02922.0999.02516.2066-.01157.304-.046.184-.162.623-.208.784-.00957.0546-.03183.1062-.06498.1506-.03315.0445-.07628.0805-.12589.1052-.04962.0247-.10435.0374-.15978.0371s-.11001-.0136-.15935-.0389c-1.384-.554-2.036-2.077-2.036-3.816 0-2.84697 2.384-6.25497 7.154-6.25497 3.796 0 6.32 2.777 6.32 5.74697 0 3.909-2.177 6.848-5.394 6.848-.4808.0154-.9577-.0907-1.3867-.3085-.4289-.2178-.796-.5402-1.0673-.9375 0 0-.578 2.316-.692 2.754-.23271.7567-.5761 1.4748-1.019 2.131.923.28 1.882.42 2.846.416 1.3136.0011 2.6145-.257 3.8282-.7594s2.3163-1.2393 3.2449-2.1685c.9285-.9291 1.6646-2.0323 2.1662-3.2464.5015-1.214.7587-2.5151.7567-3.8287-.0012-2.41497-.8762-4.74797-2.4634-6.56819-1.5871-1.82021-3.7793-3.00471-6.1716-3.33478z" /></svg>