<svg fill="currentColor" height="24" viewBox="0 0 24 24" width="24" xmlns="http://www.w3.org/2000/svg"><path d="m8.49 19.191c.024-.336.072-.671.144-1.001.063-.295.254-1.13.534-2.34l.007-.03.387-1.668c.079-.34.14-.604.181-.692-.19418-.4489-.29098-.9339-.284-1.423 0-1.337.756-2.373 1.736-2.373.36-.006.704.15.942.426.238.275.348.644.302.996 0 .453-.085.798-.453 2.035-.071.238-.12.404-.166.571-.051.188-.095.358-.132.522-.096.386-.008.797.237 1.106.1189.151.2723.2713.4474.3506.1751.0794.3667.1155.5586.1054 1.492 0 2.6-1.985 2.6-4.548 0-1.97-1.29-3.274-3.432-3.274-.5362-.01993-1.0707.07163-1.5697.26889s-.95166.49592-1.3293.87711c-.38574.38954-.69006.85197-.89523 1.3603-.20517.5084-.30707 1.0525-.29977 1.6007-.02486.5908.15611 1.1718.512 1.644.181.14.25.383.175.59-.041.168-.14.552-.176.68-.01044.0629-.03539.1225-.07289.174-.03749.0516-.08649.0937-.14311.123-.05474.0286-.11551.0436-.17726.044-.06174.0003-.12268-.0141-.17774-.042-1.16-.479-1.796-1.778-1.796-3.44 0-2.985 2.491-5.584 6.192-5.584 3.135 0 5.481 2.329 5.481 5.14 0 3.532-1.932 6.104-4.69 6.104-.3923.0114-.7818-.0695-1.1371-.236-.3554-.1666-.6667-.4142-.9089-.723l-.043.177-.207.852-.002.007c-.146.6-.248 1.017-.288 1.174-.106.355-.24.703-.4 1.04 1.9899.4737 4.0856.1672 5.8565-.8565 1.7709-1.0238 3.0824-2.6869 3.6649-4.6477s.3919-4.0702-.5328-5.89479c-.9247-1.82455-2.5131-3.2256-4.4389-3.9152-1.9257-.68959-4.0425-.61534-5.91517.2075-1.87269.82284-3.35906 2.33174-4.15362 4.21661-.79456 1.88488-.83695 4.00248-.11846 5.91758.71849 1.9152 2.14329 3.4824 3.98155 4.3795zm3.51 2.809c-5.523 0-10-4.477-10-10s4.477-10 10-10 10 4.477 10 10-4.477 10-10 10z" /></svg>