<svg fill="currentColor" height="24" viewBox="0 0 24 24" width="24" xmlns="http://www.w3.org/2000/svg"><g clip-rule="evenodd"  fill-rule="evenodd"><path d="m8 3.875c-.10951 0-.21786.00425-.32491.01256-.4818.03743-.90272-.3228-.94014-.80459-.03743-.4818.3228-.90272.80459-.94015.1521-.01181.30567-.01782.46046-.01782h.4c.48325 0 .875.39175.875.875s-.39175.875-.875.875zm2.725-.875c0-.48325.3918-.875.875-.875h.8c.4832 0 .875.39175.875.875s-.3918.875-.875.875h-.8c-.4832 0-.875-.39175-.875-.875zm4 0c0-.48325.3918-.875.875-.875h.4c.1548 0 .3084.00601.4605.01782.4818.03743.842.45835.8046.94015-.0375.48179-.4584.84202-.9402.80459-.107-.00831-.2154-.01256-.3249-.01256h-.4c-.4832 0-.875-.39175-.875-.875zm-9.30719.6293c.31402.36732.27081.91965-.09651 1.23367-.16445.14059-.31774.29388-.45833.45833-.31402.36732-.86635.41053-1.23367.09651-.36732-.31401-.41053-.86634-.09651-1.23366.1998-.23373.41763-.45156.65136-.65136.36732-.31402.91965-.27081 1.23366.09651zm13.16439 0c.314-.36732.8663-.41053 1.2337-.09651.2337.1998.4515.41763.6513.65136.314.36732.2708.91965-.0965 1.23366-.3673.31402-.9197.27081-1.2337-.09651-.1406-.16445-.2938-.31774-.4583-.45833-.3673-.31402-.4105-.86635-.0965-1.23367zm2.3348 3.10565c.4818-.03743.9027.3228.9402.80459.0118.1521.0178.30567.0178.46046v.4c0 .48325-.3918.875-.875.875s-.875-.39175-.875-.875v-.4c0-.10951-.0042-.21786-.0126-.32491-.0374-.4818.3228-.90272.8046-.94014zm-17.83403 0c.48179.03742.84202.45834.80459.94014-.00831.10705-.01256.2154-.01256.32491v.4c0 .48325-.39175.875-.875.875s-.875-.39175-.875-.875v-.4c0-.15479.00601-.30836.01782-.46046.03743-.48179.45835-.84202.94015-.80459zm-.08297 3.99005c.48325 0 .875.3918.875.875v.8c0 .4832-.39175.875-.875.875s-.875-.3918-.875-.875v-.8c0-.4832.39175-.875.875-.875zm18 0c.4832 0 .875.3918.875.875v.8c0 .4832-.3918.875-.875.875s-.875-.3918-.875-.875v-.8c0-.4832.3918-.875.875-.875zm-18 4c.48325 0 .875.3918.875.875v.4c0 .1095.00425.2179.01256.3249.03743.4818-.3228.9027-.80459.9402-.4818.0374-.90272-.3228-.94015-.8046-.01181-.1521-.01782-.3057-.01782-.4605v-.4c0-.4832.39175-.875.875-.875zm18 0c.4832 0 .875.3918.875.875v.4c0 .1548-.006.3084-.0178.4605-.0375.4818-.4584.842-.9402.8046-.4818-.0375-.842-.4584-.8046-.9402.0084-.107.0126-.2154.0126-.3249v-.4c0-.4832.3918-.875.875-.875zm-17.3707 3.8572c.36732-.314.91965-.2708 1.23367.0965.14059.1645.29388.3177.45833.4583.36732.314.41053.8664.09651 1.2337-.31401.3673-.86634.4105-1.23366.0965-.23373-.1998-.45156-.4176-.65136-.6513-.31402-.3674-.27081-.9197.09651-1.2337zm16.7414 0c.3673.314.4105.8663.0965 1.2337-.1998.2337-.4176.4515-.6513.6513-.3674.314-.9197.2708-1.2337-.0965s-.2708-.9197.0965-1.2337c.1645-.1406.3177-.2938.4583-.4583.314-.3673.8664-.4105 1.2337-.0965zm-13.63575 2.3348c.03742-.4818.45834-.842.94014-.8046.10705.0084.2154.0126.32491.0126h.4c.48325 0 .875.3918.875.875s-.39175.875-.875.875h-.4c-.15479 0-.30836-.006-.46046-.0178-.48179-.0375-.84202-.4584-.80459-.9402zm10.53015 0c.0374.4818-.3228.9027-.8046.9402-.1521.0118-.3057.0178-.4605.0178h-.4c-.4832 0-.875-.3918-.875-.875s.3918-.875.875-.875h.4c.1095 0 .2179-.0042.3249-.0126.4818-.0374.9027.3228.9402.8046zm-6.5401.083c0-.4832.3918-.875.875-.875h.8c.4832 0 .875.3918.875.875s-.3918.875-.875.875h-.8c-.4832 0-.875-.3918-.875-.875z"/><path d="m12 8.375c-.2072 0-.4101.01619-.6075.04721-.4774.07502-.9252-.25116-1.0002-.72855s.2512-.92521.7285-1.00023c.287-.0451.5807-.06843.8792-.06843s.5922.02333.8792.06843c.4773.07502.8035.52284.7285 1.00023s-.5228.80357-1.0002.72855c-.1974-.03102-.4003-.04721-.6075-.04721zm-4.55634 2.2673c.47739.075.80357.5228.72855 1.0002-.03102.1974-.04721.4003-.04721.6075s.01619.4101.04721.6075c.07502.4774-.25116.9252-.72855 1.0002s-.92521-.2512-1.00023-.7285c-.0451-.287-.06843-.5807-.06843-.8792s.02333-.5922.06843-.8792c.07502-.4773.52284-.8035 1.00023-.7285zm9.11264 0c.4774-.075.9252.2512 1.0003.7285.0451.287.0684.5807.0684.8792s-.0233.5922-.0684.8792c-.0751.4773-.5229.8035-1.0003.7285s-.8035-.5228-.7285-1.0002c.031-.1974.0472-.4003.0472-.6075s-.0162-.4101-.0472-.6075c-.075-.4774.2511-.9252.7285-1.0002zm-6.164 6.164c.075-.4774.5228-.8035 1.0002-.7285.1974.031.4003.0472.6075.0472s.4101-.0162.6075-.0472c.4774-.075.9252.2511 1.0002.7285s-.2512.9252-.7285 1.0003c-.287.0451-.5807.0684-.8792.0684s-.5922-.0233-.8792-.0684c-.4773-.0751-.8035-.5229-.7285-1.0003z"/><path d="m5.61872 5.88128c.34171-.34171.89573-.34171 1.23744 0l.37123.37123c.3417.34171.3417.89573 0 1.23744-.34171.34171-.89573.34171-1.23744 0l-.37123-.37123c-.34171-.34171-.34171-.89573 0-1.23744zm3.34108 3.34108c.34171-.34171.89573-.34171 1.2374 0l.7425.74246c.3417.34168.3417.89578 0 1.23748s-.8957.3417-1.23744 0l-.74246-.7425c-.34171-.3417-.34171-.89573 0-1.23744zm3.7123 3.71234c.3417-.3417.8957-.3417 1.2374 0l.7425.7424c.3417.3417.3417.8958 0 1.2375s-.8957.3417-1.2374 0l-.7425-.7425c-.3417-.3417-.3417-.8957 0-1.2374zm3.7123 3.7123c.3417-.3417.8957-.3417 1.2375 0l.3712.3712c.3417.3417.3417.8957 0 1.2374-.3417.3418-.8957.3418-1.2375 0l-.3712-.3712c-.3417-.3417-.3417-.8957 0-1.2374z"/><path d="m18.3813 5.88128c-.3417-.34171-.8957-.34171-1.2375 0l-.3712.37123c-.3417.34171-.3417.89573 0 1.23744s.8957.34171 1.2375 0l.3712-.37123c.3417-.34171.3417-.89573 0-1.23744zm-3.3411 3.34108c-.3417-.34171-.8957-.34171-1.2374 0l-.7425.74246c-.3417.34168-.3417.89578 0 1.23748s.8957.3417 1.2374 0l.7425-.7425c.3417-.3417.3417-.89573 0-1.23744zm-3.7123 3.71234c-.3417-.3417-.8957-.3417-1.2374 0l-.74251.7424c-.34171.3417-.34171.8958 0 1.2375s.89571.3417 1.23741 0l.7425-.7425c.3417-.3417.3417-.8957 0-1.2374zm-3.71232 3.7123c-.34171-.3417-.89573-.3417-1.23744 0l-.37123.3712c-.34171.3417-.34171.8957 0 1.2374.34171.3418.89573.3418 1.23744 0l.37123-.3712c.34171-.3417.34171-.8957 0-1.2374z"/></g></svg>