<svg fill="currentColor" height="24" viewBox="0 0 24 24" width="24" xmlns="http://www.w3.org/2000/svg"><path d="m9.00001 8.482v7.036l6.02999-3.518zm-1.248-3.042 10.50799 6.13c.0753.0441.1378.1071.1812.1828s.0662.1614.0662.2487-.0228.173-.0662.2487-.1059.1387-.1812.1828l-10.50799 6.13c-.07621.0445-.16282.068-.25106.0682-.08823.0001-.17493-.0231-.25131-.0672-.07637-.0442-.1397-.1078-.18354-.1844-.04385-.0766-.06665-.1634-.06609-.2516v-12.257c-.00003-.08798.02316-.17441.06722-.25055.04406-.07615.10743-.13933.18372-.18315.07628-.04383.16278-.06675.25076-.06645.08797.0003.17431.02381.2503.06815z" /></svg>