<svg fill="currentColor" height="24" viewBox="0 0 24 24" width="24" xmlns="http://www.w3.org/2000/svg"><path d="m22.5843 17.011c-.43.543-1.482.93-1.482.93l-7.833 2.817v-2.078l5.764-2.057c.655-.234.755-.566.223-.74-.53-.175-1.491-.125-2.146.111l-3.84 1.354v-2.155l.22-.075s1.11-.394 2.671-.567c1.56-.172 3.472.024 4.972.593 1.69.535 1.88 1.323 1.451 1.866zm-8.57-3.537v-5.312c0-.624-.114-1.198-.699-1.36-.447-.144-.725.272-.725.895v13.303l-3.58401-1.139v-15.861c1.52401.283 3.74401.953 4.93701 1.355 3.035 1.043 4.064 2.342 4.064 5.267 0 2.851-1.758 3.932-3.992 2.852zm-11.58301 4.99c-1.734999-.49-2.023999-1.51-1.233-2.097.731-.542 1.974-.95 1.974-.95l5.138-1.83v2.086l-3.697 1.325c-.653.234-.754.566-.223.74.531.175 1.493.125 2.147-.11l1.773-.644v1.865l-.353.06c-1.774.29-3.664.169-5.526-.445z" /></svg>