<svg fill="currentColor" height="24" viewBox="0 0 24 24" width="24" xmlns="http://www.w3.org/2000/svg"><path d="m2 18h10v2h-10zm0-7h14v2h-14zm0-7h20v2h-20zm17 11.17v-6.17h5v2h-3v7c-.0003.6368-.2033 1.2569-.5794 1.7707-.3762.5137-.9061.8945-1.513 1.0871-.6069.1927-1.2594.1872-1.863-.0156s-1.127-.5924-1.4945-1.1124-.56-1.1434-.5497-1.7801.223-1.2536.6072-1.7614.92-.8801 1.5299-1.0632c.6098-.1831 1.2622-.1674 1.8625.0449zm-1 3.83c.2652 0 .5196-.1054.7071-.2929s.2929-.4419.2929-.7071-.1054-.5196-.2929-.7071-.4419-.2929-.7071-.2929-.5196.1054-.7071.2929-.2929.4419-.2929.7071.1054.5196.2929.7071.4419.2929.7071.2929z" /></svg>