<svg fill="currentColor" height="24" viewBox="0 0 24 24" width="24" xmlns="http://www.w3.org/2000/svg"><path d="m12 22c-5.523 0-10-4.477-10-10s4.477-10 10-10 10 4.477 10 10-4.477 10-10 10zm-1.378-13.585c-.0602-.04015-.1301-.06323-.2024-.06678s-.1441.01257-.208.04664c-.0638.03407-.1172.08481-.1544.14682-.0373.06201-.0571.13297-.0572.20532v6.506c.0001.0723.0199.1433.0572.2053.0372.062.0906.1128.1544.1468.0639.0341.1357.0502.208.0467.0723-.0036.1422-.0266.2024-.0668l4.879-3.252c.0549-.0365.0999-.086.131-.1441s.0474-.123.0474-.1889-.0163-.1308-.0474-.1889-.0761-.1076-.131-.1441l-4.88-3.252z" /></svg>