<svg fill="currentColor" height="24" viewBox="0 0 24 24" width="24" xmlns="http://www.w3.org/2000/svg"><path d="m12 22c-5.523 0-10-4.477-10-10s4.477-10 10-10 10 4.477 10 10-4.477 10-10 10zm0-2c2.1217 0 4.1566-.8429 5.6569-2.3431 1.5002-1.5003 2.3431-3.5352 2.3431-5.6569 0-2.12173-.8429-4.15656-2.3431-5.65685-1.5003-1.5003-3.5352-2.34315-5.6569-2.34315-2.12173 0-4.15656.84285-5.65685 2.34315-1.5003 1.50029-2.34315 3.53512-2.34315 5.65685 0 2.1217.84285 4.1566 2.34315 5.6569 1.50029 1.5002 3.53512 2.3431 5.65685 2.3431zm-1.378-11.585 4.879 3.252c.0549.0365.0999.086.131.1441s.0474.123.0474.1889-.0163.1308-.0474.1889-.0761.1076-.131.1441l-4.88 3.252c-.0602.0399-.13.0627-.2021.0662-.0721.0034-.1438-.0128-.2075-.0469-.0637-.034-.1169-.0846-.1541-.1465-.0373-.0618-.057-.1326-.0573-.2048v-6.506c.0001-.07235.0199-.14331.0572-.20532.0372-.06201.0906-.11275.1544-.14682.0639-.03407.1357-.05019.208-.04664s.1422.02663.2024.06678z" /></svg>