<svg fill="currentColor" height="24" viewBox="0 0 24 24" width="24" xmlns="http://www.w3.org/2000/svg"><path d="m7.752 5.439 10.508 6.13c.0753.0441.1378.1071.1812.1828s.0662.1614.0662.2487-.0228.173-.0662.2487-.1059.1387-.1812.1828l-10.508 6.13c-.07613.0444-.16265.0679-.2508.0681-.08815.0003-.17478-.0228-.25113-.0669-.07634-.0441-.13968-.1075-.1836-.1839-.04391-.0765-.06684-.1632-.06647-.2513v-12.257c-.00002-.08798.02317-.17441.06723-.25055.04406-.07615.10743-.13933.18371-.18315.07629-.04383.16279-.06675.25076-.06645.08798.0003.17432.02381.2503.06815z" /></svg>