<svg fill="currentColor" height="24" viewBox="0 0 24 24" width="24" xmlns="http://www.w3.org/2000/svg"><path d="m13 18v2h6v2h-6c-.5304 0-1.0391-.2107-1.4142-.5858s-.5858-.8838-.5858-1.4142v-2h-3c-1.06087 0-2.07828-.4214-2.82843-1.1716-.75014-.7501-1.17157-1.7675-1.17157-2.8284v-7c0-.26522.10536-.51957.29289-.70711.18754-.18753.44189-.29289.70711-.29289h2v-4h2v4h6v-4h2v4h2c.2652 0 .5196.10536.7071.29289.1875.18754.2929.44189.2929.70711v7c0 1.0609-.4214 2.0783-1.1716 2.8284-.7501.7502-1.7675 1.1716-2.8284 1.1716zm-5-2h8c.5304 0 1.0391-.2107 1.4142-.5858s.5858-.8838.5858-1.4142v-3h-12v3c0 .5304.21071 1.0391.58579 1.4142.37507.3751.88378.5858 1.41421.5858zm10-8h-12v1h12zm-6 6.5c-.2652 0-.5196-.1054-.7071-.2929s-.2929-.4419-.2929-.7071.1054-.5196.2929-.7071.4419-.2929.7071-.2929.5196.1054.7071.2929.2929.4419.2929.7071-.1054.5196-.2929.7071-.4419.2929-.7071.2929zm-1-12.5h2v3h-2z" /></svg>