<svg fill="currentColor" height="24" viewBox="0 0 24 24" width="24" xmlns="http://www.w3.org/2000/svg"><path d="m21 6h-2v-1h-14v14h14v-1h2v2c0 .2652-.1054.5196-.2929.7071s-.4419.2929-.7071.2929h-16c-.26522 0-.51957-.1054-.70711-.2929-.18753-.1875-.29289-.4419-.29289-.7071v-16c0-.26522.10536-.51957.29289-.70711.18754-.18753.44189-.29289.70711-.29289h16c.2652 0 .5196.10536.7071.29289.1875.18754.2929.44189.2929.70711zm-15 0h2v3h-2zm9 10c1.0609 0 2.0783-.4214 2.8284-1.1716.7502-.7501 1.1716-1.7675 1.1716-2.8284s-.4214-2.07828-1.1716-2.82843c-.7501-.75014-1.7675-1.17157-2.8284-1.17157s-2.0783.42143-2.8284 1.17157c-.7502.75015-1.1716 1.76753-1.1716 2.82843s.4214 2.0783 1.1716 2.8284c.7501.7502 1.7675 1.1716 2.8284 1.1716zm0 2c-1.5913 0-3.1174-.6321-4.2426-1.7574-1.12526-1.1252-1.7574-2.6513-1.7574-4.2426s.63214-3.11742 1.7574-4.24264c1.1252-1.12522 2.6513-1.75736 4.2426-1.75736s3.1174.63214 4.2426 1.75736c1.1253 1.12522 1.7574 2.65134 1.7574 4.24264s-.6321 3.1174-1.7574 4.2426c-1.1252 1.1253-2.6513 1.7574-4.2426 1.7574zm0-4c-.5304 0-1.0391-.2107-1.4142-.5858s-.5858-.8838-.5858-1.4142.2107-1.0391.5858-1.4142.8838-.5858 1.4142-.5858 1.0391.2107 1.4142.5858.5858.8838.5858 1.4142-.2107 1.0391-.5858 1.4142-.8838.5858-1.4142.5858z" /></svg>