<svg fill="currentColor" height="24" viewBox="0 0 24 24" width="24" xmlns="http://www.w3.org/2000/svg"><path d="m3 3.993c0-.548.445-.993.993-.993h16.014c.548 0 .993.445.993.993v16.014c-.0003.2633-.105.5157-.2911.7019-.1862.1861-.4386.2908-.7019.2911h-16.014c-.26328-.0003-.5157-.105-.70186-.2911-.18617-.1862-.29088-.4386-.29114-.7019zm3 13.007v2h12v-2zm-1-12v2h2v-2zm7 7c-.5304 0-1.0391-.2107-1.4142-.5858s-.5858-.8838-.5858-1.4142c0-.53043.2107-1.03914.5858-1.41421.3751-.37508.8838-.58579 1.4142-.58579s1.0391.21071 1.4142.58579c.3751.37507.5858.88378.5858 1.41421 0 .5304-.2107 1.0391-.5858 1.4142s-.8838.5858-1.4142.5858zm0 2c1.0609 0 2.0783-.4214 2.8284-1.1716.7502-.7501 1.1716-1.7675 1.1716-2.8284 0-1.06087-.4214-2.07828-1.1716-2.82843-.7501-.75014-1.7675-1.17157-2.8284-1.17157s-2.07828.42143-2.82843 1.17157c-.75014.75015-1.17157 1.76756-1.17157 2.82843 0 1.0609.42143 2.0783 1.17157 2.8284.75015.7502 1.76753 1.1716 2.82843 1.1716z" /></svg>