<svg fill="currentColor" height="24" viewBox="0 0 24 24" width="24" xmlns="http://www.w3.org/2000/svg"><path d="m20.659 10c-.4718-1.33443-1.4001-2.45911-2.621-3.17526-1.2208-.71616-2.6555-.97767-4.0505-.73833s-2.6604.96413-3.5727 2.04627c-.91229 1.08214-1.41265 2.45192-1.41265 3.86732s.50036 2.7852 1.41265 3.8673c.9123 1.0822 2.1777 1.8069 3.5727 2.0463 1.395.2393 2.8297-.0222 4.0505-.7383 1.2209-.7162 2.1492-1.8409 2.621-3.1753h.341v6c0 .2652-.1054.5196-.2929.7071s-.4419.2929-.7071.2929h-16c-.26522 0-.51957-.1054-.70711-.2929-.18753-.1875-.29289-.4419-.29289-.7071v-16c0-.26522.10536-.51957.29289-.70711.18754-.18753.44189-.29289.70711-.29289h16c.2652 0 .5196.10536.7071.29289.1875.18754.2929.44189.2929.70711v6zm-15.659-4v3h2v-3zm10 10c-1.0609 0-2.0783-.4214-2.8284-1.1716-.7502-.7501-1.1716-1.7675-1.1716-2.8284s.4214-2.07828 1.1716-2.82843c.7501-.75014 1.7675-1.17157 2.8284-1.17157s2.0783.42143 2.8284 1.17157c.7502.75015 1.1716 1.76753 1.1716 2.82843s-.4214 2.0783-1.1716 2.8284c-.7501.7502-1.7675 1.1716-2.8284 1.1716zm0-2c.5304 0 1.0391-.2107 1.4142-.5858s.5858-.8838.5858-1.4142-.2107-1.0391-.5858-1.4142-.8838-.5858-1.4142-.5858-1.0391.2107-1.4142.5858-.5858.8838-.5858 1.4142.2107 1.0391.5858 1.4142.8838.5858 1.4142.5858z" /></svg>