<svg fill="currentColor" height="24" viewBox="0 0 24 24" width="24" xmlns="http://www.w3.org/2000/svg"><path d="m22 13.5v7.5c0 .2652-.1054.5196-.2929.7071s-.4419.2929-.7071.2929h-1c-.2652 0-.5196-.1054-.7071-.2929s-.2929-.4419-.2929-.7071v-1h-14v1c0 .2652-.10536.5196-.29289.7071-.18754.1875-.44189.2929-.70711.2929h-1c-.26522 0-.51957-.1054-.70711-.2929-.18753-.1875-.29289-.4419-.29289-.7071v-7.5l-1.243-.31c-.216247-.0542-.408191-.179-.545345-.3548-.1371528-.1757-.21164914-.3923-.211655-.6152v-.72c0-.1326.0526784-.2598.146447-.3536.093768-.0937.220945-.1464.353553-.1464h1.929l2.051-4.788c.15426-.35984.41074-.6665.73764-.88195.3269-.21544.70985-.3302 1.10136-.33005h1.681v-2h3v2h2v-2h3v2h1.681c.3913.00004.7741.1149 1.1008.33033s.583.52198.7372.88167l2.052 4.788h1.929c.1326 0 .2598.0527.3536.1464.0937.0938.1464.221.1464.3536v.72c0 .2229-.0745.4395-.2117.6152-.1371.1758-.3291.3006-.5453.3548zm-18 1.5v2c0 .2652.10536.5196.29289.7071.18754.1875.44189.2929.70711.2929h3.245c.08634-.0001.17118-.0226.24625-.0653.07506-.0427.1378-.104.18211-.1781.0443-.0741.06866-.1585.0707-.2448s-.01831-.1717-.05906-.2478c-.805-1.51-2.367-2.264-4.685-2.264zm16 0c-2.317 0-3.879.755-4.686 2.264-.0408.0762-.0611.1617-.0591.2481.0021.0864.0266.1708.071.2449s.1073.1355.1825.1781.1602.0649.2466.0649h3.245c.2652 0 .5196-.1054.7071-.2929s.2929-.4419.2929-.7071zm-14-8-1.451 3.629c-.0606.1517-.08312.3159-.0656.4783s.07455.318.16611.4532c.09155.1353.21484.2461.35909.3227s.30507.1167.4684.1168h13.046c.1633-.0001.3241-.0402.4684-.1168s.2675-.1874.3591-.3227c.0915-.1352.1486-.2908.1661-.4532s-.005-.3266-.0656-.4783l-1.451-3.629z" /></svg>