<svg fill="currentColor" height="24" viewBox="0 0 24 24" width="24" xmlns="http://www.w3.org/2000/svg"><path d="m4 13v5h16v-5zm1.618-2h12.764c.1704-.0001.3379-.0437.4867-.1267.1488-.0831.2739-.2027.3635-.3477s.1406-.3104.1483-.4806c.0076-.17023-.0283-.33958-.1045-.492l-1.276-2.553h-12l-1.276 2.553c-.07616.15242-.11212.32177-.10445.492.00766.1702.0587.3356.14826.4806.08955.145.21467.2646.36346.3477.1488.083.31634.1266.48673.1267zm16.382 2.5v7.5c0 .2652-.1054.5196-.2929.7071s-.4419.2929-.7071.2929h-1c-.2652 0-.5196-.1054-.7071-.2929s-.2929-.4419-.2929-.7071v-1h-14v1c0 .2652-.10536.5196-.29289.7071-.18754.1875-.44189.2929-.70711.2929h-1c-.26522 0-.51957-.1054-.70711-.2929-.18753-.1875-.29289-.4419-.29289-.7071v-7.5l-1.243-.31c-.216247-.0542-.408191-.179-.545345-.3548-.1371528-.1757-.21164914-.3923-.211655-.6152v-.72c0-.1326.0526784-.2598.146447-.3536.093768-.0937.220945-.1464.353553-.1464h1.5l2.447-4.894c.16613-.33247.42162-.61206.7378-.80742s.68054-.29875 1.0522-.29858h1.763v-2h3v2h2v-2h3v2h1.764c.3715.00001.7356.10349 1.0516.29884s.5713.47485.7374.80716l2.447 4.894h1.5c.1326 0 .2598.0527.3536.1464.0937.0938.1464.221.1464.3536v.72c0 .2229-.0745.4395-.2117.6152-.1371.1758-.3291.3006-.5453.3548zm-17 .5c2.317 0 3.879.755 4.686 2.264.04079.0762.06114.1617.05906.2481-.00209.0864-.02654.1708-.07096.2449s-.1073.1355-.18251.1781c-.0752.0426-.16016.0649-.24659.0649h-3.245c-.26522 0-.51957-.1054-.70711-.2929-.18753-.1875-.29289-.4419-.29289-.7071zm14 0v2c0 .2652-.1054.5196-.2929.7071s-.4419.2929-.7071.2929h-3.245c-.0863-.0001-.1712-.0226-.2462-.0653-.0751-.0427-.1379-.104-.1822-.1781s-.0686-.1585-.0707-.2448c-.002-.0863.0183-.1717.0591-.2478.805-1.51 2.367-2.264 4.685-2.264z" /></svg>