<svg fill="currentColor" height="24" viewBox="0 0 24 24" width="24" xmlns="http://www.w3.org/2000/svg"><path d="m10.8998 2.09998 9.899 1.415 1.414 9.90002-9.192 9.192c-.1875.1874-.4418.2928-.707.2928-.2651 0-.5194-.1054-.707-.2928l-9.89995-9.9c-.18747-.1876-.29279-.4419-.29279-.707 0-.2652.10532-.5195.29279-.707zm.707 2.122-7.77895 7.77802 8.48595 8.485 7.778-7.778-1.06-7.42502zm2.12 6.36402c-.3751-.3753-.5858-.88424-.5857-1.41488 0-.26274.0518-.5229.1524-.76563.1006-.24272.248-.46326.4338-.64901.1859-.18576.4065-.3331.6492-.4336.2428-.1005.503-.15221.7657-.15216.5306.00009 1.0395.21097 1.4146.58626.3752.37528.5859.88422.5858 1.41485s-.211 1.03947-.5863 1.41467c-.3752.3751-.8842.5858-1.4148.5857s-1.0395-.2109-1.4147-.5862z" /></svg>