<svg fill="currentColor" height="24" viewBox="0 0 24 24" width="24" xmlns="http://www.w3.org/2000/svg"><path d="m3 7.00005 8.445-5.63c.1643-.10963.3575-.16815.555-.16815s.3907.05852.555.16815l8.445 5.63v14.00005c0 .2652-.1054.5195-.2929.7071-.1875.1875-.4419.2929-.7071.2929h-16c-.26522 0-.51957-.1054-.70711-.2929-.18753-.1876-.29289-.4419-.29289-.7071zm2 1.07v11.93005h14v-11.93005l-7-4.666zm7 2.93005c-.5304 0-1.0391-.2108-1.4142-.5858-.3751-.3751-.5858-.88381-.5858-1.41425 0-.53043.2107-1.03914.5858-1.41421s.8838-.58579 1.4142-.58579 1.0391.21072 1.4142.58579.5858.88378.5858 1.41421c0 .53044-.2107 1.03915-.5858 1.41425-.3751.375-.8838.5858-1.4142.5858z" /></svg>