<svg fill="currentColor" height="24" viewBox="0 0 24 24" width="24" xmlns="http://www.w3.org/2000/svg"><path d="m10.8998 2.09998 9.899 1.415 1.414 9.90002-9.192 9.192c-.1875.1874-.4418.2928-.707.2928-.2651 0-.5194-.1054-.707-.2928l-9.89995-9.9c-.18747-.1876-.29279-.4419-.29279-.707 0-.2652.10532-.5195.29279-.707zm2.828 8.48602c.1858.1857.4063.3329.649.4334s.5028.1522.7654.1521c.2627 0 .5227-.0518.7654-.1524.2426-.1005.4631-.2479.6487-.4336.1857-.1858.333-.4063.4335-.64896.1005-.24268.1521-.50277.1521-.76542s-.0518-.52272-.1524-.76536c-.1005-.24264-.2479-.4631-.4337-.64878-.1857-.18569-.4062-.33298-.6489-.43345s-.5028-.15215-.7654-.15211c-.5305.0001-1.0391.21091-1.4142.58606-.375.37514-.5856.8839-.5855 1.41435s.2109 1.03917.586 1.41417z" /></svg>