<svg fill="currentColor" height="24" viewBox="0 0 24 24" width="24" xmlns="http://www.w3.org/2000/svg"><path d="m17 2c.2652 0 .5196.10536.7071.29289.1875.18754.2929.44189.2929.70711v4h3c.2652 0 .5196.10536.7071.29289.1875.18754.2929.44189.2929.70711l.001 5.346c-.5147-.7358-1.2012-1.3348-2-1.745l-.001-2.601h-16v8h2v-1c0-.2652.10536-.5196.29289-.7071.18754-.1875.44189-.2929.70711-.2929h5.207l-.071.283-.03.02c-.6434.432-1.1717 1.0145-1.539 1.697h-2.567v3h2.06c.1144.7208.394 1.4053.817 2h-3.877c-.26522 0-.51957-.1054-.70711-.2929-.18753-.1875-.29289-.4419-.29289-.7071v-2h-3c-.26522 0-.51957-.1054-.70711-.2929-.18753-.1875-.29289-.4419-.29289-.7071v-10c0-.26522.10536-.51957.29289-.70711.18754-.18753.44189-.29289.70711-.29289h3v-4c0-.26522.10536-.51957.29289-.70711.18754-.18753.44189-.29289.70711-.29289zm.5 11c.9283 0 1.8185.3687 2.4749 1.0251s1.0251 1.5466 1.0251 2.4749l-.001.103c.6256.1763 1.1685.5684 1.5325 1.1069s.5255 1.1884.4559 1.8347c-.0696.6462-.3659 1.2468-.8363 1.6954-.4703.4486-1.0843.7161-1.7331.755l-.168.005h-5.5l-.168-.005c-.6487-.0393-1.2624-.3071-1.7325-.7558-.47-.4487-.766-1.0494-.8353-1.6955-.0694-.6462.0922-1.296.4563-1.8343s.907-.9302 1.5325-1.1064l-.003-.103c0-.9283.3687-1.8185 1.0251-2.4749s1.5466-1.0251 2.4749-1.0251zm0 2c-.3484-.0001-.686.1211-.9548.3429-.2688.2217-.452.53-.5182.8721l-.02.14-.007.145v1.62l-1.444.406c-.1664.0444-.3124.1448-.4136.2842-.1011.1394-.1512.3093-.1419.4813.0094.172.0777.3355.1934.463.1158.1276.2719.2115.4421.2375l.109.008h5.51c.1813-.0014.356-.0684.4917-.1887.1357-.1202.2233-.2856.2465-.4654.0231-.1798-.0196-.362-.1204-.5127-.1008-.1508-.2528-.2599-.4278-.3072l-1.013-.283-.432-.123v-1.62l-.007-.144c-.0358-.3712-.2086-.7157-.4846-.9664s-.6355-.3896-1.0084-.3896zm-9.5-5v2h-3v-2zm8-6h-8v3h8z" /></svg>