<svg fill="currentColor" height="24" viewBox="0 0 24 24" width="24" xmlns="http://www.w3.org/2000/svg"><path d="m10.566 17c-.3723.6915-.56676 1.4647-.566 2.25 0 1.023.324 1.973.877 2.75h-3.877v-5zm6.934-4c.9283 0 1.8185.3687 2.4749 1.0251s1.0251 1.5466 1.0251 2.4749l-.001.103c.6256.1763 1.1685.5684 1.5325 1.1069s.5255 1.1884.4559 1.8347c-.0696.6462-.3659 1.2468-.8363 1.6954-.4703.4486-1.0843.7161-1.7331.755l-.168.005h-5.5l-.168-.005c-.6487-.0393-1.2624-.3071-1.7325-.7558-.47-.4487-.766-1.0494-.8353-1.6955-.0694-.6462.0922-1.296.4563-1.8343s.907-.9302 1.5325-1.1064l-.003-.103c0-.9283.3687-1.8185 1.0251-2.4749s1.5466-1.0251 2.4749-1.0251zm3.5-5c.2652 0 .5196.10536.7071.29289.1875.18754.2929.44189.2929.70711l.001 4.346c-.5056-.7249-1.1789-1.3168-1.9626-1.7253-.7838-.4085-1.6546-.6214-2.5384-.6207l-.221.004c-1.1586.0468-2.2729.4583-3.1837 1.1759s-1.5717 1.7046-1.8883 2.8201h-7.207v5h-2c-.26522 0-.51957-.1054-.70711-.2929-.18753-.1875-.29289-.4419-.29289-.7071v-10c0-.26522.10536-.51957.29289-.70711.18754-.18753.44189-.29289.70711-.29289zm-13 2h-3v2h3zm9-8c.2652 0 .5196.10536.7071.29289.1875.18754.2929.44189.2929.70711v3h-12v-3c0-.26522.10536-.51957.29289-.70711.18754-.18753.44189-.29289.70711-.29289z" /></svg>