<svg fill="currentColor" height="24" viewBox="0 0 24 24" width="24" xmlns="http://www.w3.org/2000/svg"><path d="m6 19h-3c-.26522 0-.51957-.1054-.70711-.2929-.18753-.1875-.29289-.4419-.29289-.7071v-10c0-.26522.10536-.51957.29289-.70711.18754-.18753.44189-.29289.70711-.29289h3v-4c0-.26522.10536-.51957.29289-.70711.18754-.18753.44189-.29289.70711-.29289h10c.2652 0 .5196.10536.7071.29289.1875.18754.2929.44189.2929.70711v4h3c.2652 0 .5196.10536.7071.29289.1875.18754.2929.44189.2929.70711v10c0 .2652-.1054.5196-.2929.7071s-.4419.2929-.7071.2929h-3v2c0 .2652-.1054.5196-.2929.7071s-.4419.2929-.7071.2929h-10c-.26522 0-.51957-.1054-.70711-.2929-.18753-.1875-.29289-.4419-.29289-.7071zm0-2v-1c0-.2652.10536-.5196.29289-.7071.18754-.1875.44189-.2929.70711-.2929h10c.2652 0 .5196.1054.7071.2929s.2929.4419.2929.7071v1h2v-8h-16v8zm2-13v3h8v-3zm0 13v3h8v-3zm-3-7h3v2h-3z" /></svg>