<svg fill="currentColor" height="24" viewBox="0 0 24 24" width="24" xmlns="http://www.w3.org/2000/svg"><path d="m12 22c-5.523 0-10-4.477-10-10s4.477-10 10-10 10 4.477 10 10-4.477 10-10 10zm0-2c2.1217 0 4.1566-.8429 5.6569-2.3431 1.5002-1.5003 2.3431-3.5352 2.3431-5.6569 0-2.12173-.8429-4.15656-2.3431-5.65685-1.5003-1.5003-3.5352-2.34315-5.6569-2.34315-2.12173 0-4.15656.84285-5.65685 2.34315-1.5003 1.50029-2.34315 3.53512-2.34315 5.65685 0 2.1217.84285 4.1566 2.34315 5.6569 1.50029 1.5002 3.53512 2.3431 5.65685 2.3431zm1.334-8c.3978 0 .7794-.158 1.0607-.4393s.4393-.6629.4393-1.0607-.158-.77936-.4393-1.06066-.6629-.43934-1.0607-.43934h-2.834v3zm0-5c.9283 0 1.8185.36875 2.4749 1.02513.6564.65637 1.0251 1.54661 1.0251 2.47487 0 .9283-.3687 1.8185-1.0251 2.4749s-1.5466 1.0251-2.4749 1.0251h-2.834v3h-2v-10z" /></svg>