<svg fill="currentColor" height="24" viewBox="0 0 24 24" width="24" xmlns="http://www.w3.org/2000/svg"><path d="m22 19v2h-2v-2h-16v2h-2v-2c-.26522 0-.51957-.1054-.70711-.2929-.18753-.1875-.29289-.4419-.29289-.7071v-12c0-.26521.10536-.51957.29289-.7071.18754-.18754.44189-.2929.70711-.2929h10.528c.5622-.62994 1.2513-1.13381 2.022-1.4785.7707-.3447 1.6057-.52242 2.45-.5215 1.777 0 3.374.773 4.472 2h.528c.2652 0 .5196.10536.7071.2929.1875.18753.2929.44189.2929.7071v12c0 .2652-.1054.5196-.2929.7071s-.4419.2929-.7071.2929zm-10.659-12h-8.341v10h18v-3.528c-.9929.8893-2.2536 1.4226-3.5832 1.5159s-2.6524-.2588-3.7597-1.0008c-1.1073-.7419-1.9361-1.8314-2.3554-3.0966-.4194-1.26523-.4056-2.63404.0393-3.8905zm5.659 6c1.0609 0 2.0783-.4214 2.8284-1.1716.7502-.7501 1.1716-1.7675 1.1716-2.8284 0-1.06086-.4214-2.07828-1.1716-2.82842-.7501-.75015-1.7675-1.17158-2.8284-1.17158s-2.0783.42143-2.8284 1.17158c-.7502.75014-1.1716 1.76756-1.1716 2.82842 0 1.0609.4214 2.0783 1.1716 2.8284.7501.7502 1.7675 1.1716 2.8284 1.1716zm-12 0h2v2h-2zm3 0h2v2h-2z" /></svg>