<svg fill="currentColor" height="24" viewBox="0 0 24 24" width="24" xmlns="http://www.w3.org/2000/svg"><path d="m22 19v2h-2v-2h-16v2h-2v-2c-.26522 0-.51957-.1054-.70711-.2929-.18753-.1875-.29289-.4419-.29289-.7071v-12c0-.26521.10536-.51957.29289-.7071.18754-.18754.44189-.2929.70711-.2929h9.81c.6059-.63313 1.3339-1.13681 2.1401-1.48057.8061-.34376 1.6735-.52047 2.5499-.51943 1.843 0 3.507.767 4.69 2h.81c.2652 0 .5196.10536.7071.2929.1875.18753.2929.44189.2929.7071v12c0 .2652-.1054.5196-.2929.7071s-.4419.2929-.7071.2929zm-5.5-5c.5909 0 1.1761-.1164 1.7221-.3425.5459-.2262 1.042-.5577 1.4599-.9755.4178-.4179.7493-.914.9755-1.4599.2261-.546.3425-1.1311.3425-1.7221 0-.59094-.1164-1.17611-.3425-1.72207-.2262-.54597-.5577-1.04204-.9755-1.45991-.4179-.41786-.914-.74933-1.4599-.97547-.546-.22615-1.1312-.34255-1.7221-.34255-1.1935 0-2.3381.47411-3.182 1.31802-.8439.84392-1.318 1.98851-1.318 3.18198 0 1.1935.4741 2.3381 1.318 3.182s1.9885 1.318 3.182 1.318zm0-2c-.663 0-1.2989-.2634-1.7678-.7322-.4688-.4689-.7322-1.1048-.7322-1.7678 0-.66304.2634-1.29892.7322-1.76776.4689-.46884 1.1048-.73224 1.7678-.73224s1.2989.2634 1.7678.73224c.4688.46884.7322 1.10472.7322 1.76776 0 .663-.2634 1.2989-.7322 1.7678-.4689.4688-1.1048.7322-1.7678.7322zm-12.5 1v2h2v-2zm4 0v2h2v-2z" /></svg>