<svg fill="currentColor" height="24" viewBox="0 0 24 24" width="24" xmlns="http://www.w3.org/2000/svg"><path d="m11.112 12c.2279.9932.786 1.8798 1.583 2.5147.7971.6349 1.786.9806 2.805.9806s2.0079-.3457 2.805-.9806c.797-.6349 1.3551-1.5215 1.583-2.5147h2.112v8c0 .2652-.1054.5196-.2929.7071s-.4419.2929-.7071.2929h-18c-.26522 0-.51957-.1054-.70711-.2929-.18753-.1875-.29289-.4419-.29289-.7071v-8zm-6.112 4h2v2h-2zm10.5-2.5c-.663 0-1.2989-.2634-1.7678-.7322-.4688-.4689-.7322-1.1048-.7322-1.7678s.2634-1.29893.7322-1.76777c.4689-.46884 1.1048-.73223 1.7678-.73223s1.2989.26339 1.7678.73223c.4688.46884.7322 1.10477.7322 1.76777s-.2634 1.2989-.7322 1.7678c-.4689.4688-1.1048.7322-1.7678.7322zm-4.388-3.5h-9.112v-6c0-.26522.10536-.51957.29289-.70711.18754-.18753.44189-.29289.70711-.29289h18c.2652 0 .5196.10536.7071.29289.1875.18754.2929.44189.2929.70711v6h-2.112c-.2279-.99322-.786-1.87976-1.583-2.51467-.7971-.63491-1.786-.98062-2.805-.98062s-2.0079.34571-2.805.98062c-.797.63491-1.3551 1.52145-1.583 2.51467z" /></svg>