<svg fill="currentColor" height="24" viewBox="0 0 24 24" width="24" xmlns="http://www.w3.org/2000/svg"><path d="m3 3h18c.2652 0 .5196.10536.7071.29289.1875.18754.2929.44189.2929.70711v16c0 .2652-.1054.5196-.2929.7071s-.4419.2929-.7071.2929h-18c-.26522 0-.51957-.1054-.70711-.2929-.18753-.1875-.29289-.4419-.29289-.7071v-16c0-.26522.10536-.51957.29289-.70711.18754-.18753.44189-.29289.70711-.29289zm8.126 9h-7.126v7h16v-7h-1.126c-.2224.8582-.7236 1.6183-1.4247 2.1609-.7012.5426-1.5627.837-2.4493.837s-1.7481-.2944-2.4493-.837c-.7011-.5426-1.2023-1.3027-1.4247-2.1609zm0-2c.2224-.85824.7236-1.61832 1.4247-2.16093.7012-.5426 1.5627-.83701 2.4493-.83701s1.7481.29441 2.4493.83701c.7011.54261 1.2023 1.30269 1.4247 2.16093h1.126v-5h-16v5zm3.874 3c.5304 0 1.0391-.2107 1.4142-.5858s.5858-.8838.5858-1.4142-.2107-1.03914-.5858-1.41421c-.3751-.37508-.8838-.58579-1.4142-.58579s-1.0391.21071-1.4142.58579c-.3751.37507-.5858.88381-.5858 1.41421s.2107 1.0391.5858 1.4142.8838.5858 1.4142.5858zm-9 2h2v2h-2z" /></svg>