<svg fill="currentColor" height="24" viewBox="0 0 24 24" width="24" xmlns="http://www.w3.org/2000/svg"><path d="m11 2c4.068 0 7.426 3.036 7.934 6.965l2.25 3.539c.148.233.118.58-.225.728l-1.959.838v2.93c0 1.105-.895 2-2 2h-1.999l-.001 3h-9v-3.694c0-1.18-.436-2.297-1.244-3.305-1.099-1.37-1.756-3.109-1.756-5.001 0-4.418 3.582-8 8-8zm0 5c-.552 0-1 .448-1 1v.999l-1 .001c-.552 0-1 .448-1 1s.448 1 1 1l1-.001v1.001c0 .552.448 1 1 1s1-.448 1-1v-1h1c.552 0 1-.448 1-1s-.448-1-1-1h-1v-1c0-.552-.448-1-1-1z" /></svg>