<svg fill="currentColor" height="24" viewBox="0 0 24 24" width="24" xmlns="http://www.w3.org/2000/svg"><path d="m11 2c4.068 0 7.426 3.036 7.934 6.965l2.25 3.539c.148.233.118.58-.225.728l-1.959.838v2.93c0 1.105-.895 2-2 2h-1.999l-.001 3h-9v-3.694c0-1.18-.436-2.297-1.244-3.305-1.099-1.37-1.756-3.109-1.756-5.001 0-4.418 3.582-8 8-8zm0 2c-3.314 0-6 2.686-6 6 0 1.385.468 2.693 1.316 3.75 1.094 1.364 1.684 2.917 1.684 4.556v1.694h5l.002-3h3.998v-4.248l1.55-.664-1.543-2.425-.057-.442c-.384-2.97-2.926-5.221-5.95-5.221zm0 3c.552 0 1 .448 1 1v1h1c.552 0 1 .448 1 1s-.448 1-1 1h-1v1c0 .552-.448 1-1 1s-1-.448-1-1v-1.001l-1 .001c-.552 0-1-.448-1-1s.448-1 1-1l1-.001v-.999c0-.552.448-1 1-1z" /></svg>