<svg fill="currentColor" height="24" viewBox="0 0 24 24" width="24" xmlns="http://www.w3.org/2000/svg"><path d="m17.5353 12.514-.696-1.796c0-.021.01-.375.01-.558-.001-3.072-1.403-6.16-4.849-6.16-3.44595 0-4.84795 3.088-4.84795 6.16 0 .183.009.537.01.558l-.696 1.796c-.19.515-.38 1.05-.517 1.51-.657 2.189-.444 3.095-.282 3.115.348.043 1.354-1.648 1.354-1.648 0 .98.488 2.258 1.542 3.18-.394.127-.878.32-1.188.557-.28.214-.245.431-.194.52.22.385 3.78995.245 4.81995.125 1.03.12 4.599.26 4.82-.126.05-.088.085-.305-.194-.519-.311-.237-.795-.43-1.19-.556 1.055-.923 1.542-2.202 1.542-3.181 0 0 1.007 1.691 1.355 1.648.162-.02.378-.928-.283-3.116-.14-.463-.325-.994-.516-1.509zm1.021 8.227c-.373.652-.833.892-1.438 1.057-.24.065-.498.108-.794.138-.44.045-.986.065-1.613.064-.9045-.0018-1.8086-.0405-2.71-.116-.692.065-1.785.114-2.70995.116-.53873.0057-1.07741-.0156-1.614-.064-.26766-.0243-.53287-.0705-.793-.138-.605-.164-1.065-.405-1.44-1.059-.2862-.5005-.37163-1.0909-.239-1.652-.592-.132-1.001-.483-1.279-.911-.14029-.2186-.24461-.4583-.309-.71-.08962-.3615-.12866-.7337-.116-1.106.013-.785.187-1.762.532-2.912.14-.466.327-1.008.568-1.655l.553-1.43c-.00111-.0677-.00178-.1353-.002-.203 0-4.555 2.436-8.16 6.84795-8.16 4.413 0 6.848 3.605 6.848 8.16l-.001.203.553 1.43.01.026c.225.606.413 1.153.556 1.626.348 1.15.522 2.129.535 2.916.007.407-.03.776-.118 1.108-.066.246-.161.48-.31.708-.276.427-.684.776-1.277.91.13.554.055 1.14-.24 1.654z" /></svg>