<svg fill="currentColor" height="24" viewBox="0 0 24 24" width="24" xmlns="http://www.w3.org/2000/svg"><path d="m9.92988 17.9527h3.23052v3.0473h-3.23052zm3.23052-4.5064v1.9828h-3.23052v-3.2855c0-.4041.17022-.7916.47312-1.0774.3029-.2857.7137-.4462 1.1421-.4462.4589-.0001.9083-.123 1.296-.3546.3876-.2315.6976-.56213.8939-.95337s.2707-.82701.2147-1.25661-.2402-.83535-.5312-1.17006c-.2909-.3347-.6766-.58459-1.1123-.72059-.4356-.136-.9032-.15252-1.3483-.04764-.4452.10489-.8497.32686-1.16634.6401-.31667.31324-.53253.70487-.62246 1.1293l-3.1691-.59879c.19646-.92625.65015-1.78667 1.31468-2.49331.66452-.70665 1.51605-1.23416 2.46754-1.52862.95148-.29447 1.96878-.34531 2.94798-.14735.9791.19797 1.885.63764 2.625 1.27409.7399.63644 1.2875 1.44682 1.5866 2.3483s.3391 1.86171.1159 2.78255c-.2232.9208-.7017 1.7692-1.3864 2.4585-.6848.6892-1.5513 1.1946-2.5109 1.4644z" /></svg>