<svg fill="currentColor" height="24" viewBox="0 0 24 24" width="24" xmlns="http://www.w3.org/2000/svg"><path d="m6.455 19-4.455 3.5v-18.5c0-.26522.10536-.51957.29289-.70711.18754-.18753.44189-.29289.70711-.29289h18c.2652 0 .5196.10536.7071.29289.1875.18754.2929.44189.2929.70711v14c0 .2652-.1054.5196-.2929.7071s-.4419.2929-.7071.2929zm4.545-5v2h2v-2zm-2.433-5.187 1.962.393c.0557-.27857.1893-.5356.3854-.74118.196-.20559.4464-.35128.722-.42011.2756-.06884.5651-.058.8348.03126s.5085.25327.6886.47294c.1802.21967.2942.48598.3289.76793.0347.28196-.0114.56796-.1329.82476s-.3135.4738-.5535.6257c-.24.152-.5182.2327-.8023.2327h-1v2h1c.6628-.0002 1.3119-.1886 1.8718-.5432.5599-.3547 1.0076-.861 1.291-1.4601s.3909-1.26642.3099-1.92422c-.081-.65781-.347-1.27911-.7672-1.79163-.4203-.51252-.9774-.89518-1.6066-1.10349-.6291-.2083-1.3045-.23368-1.9476-.07318-.643.1605-1.22727.50029-1.68477.97982-.4575.47954-.76944 1.07912-.89953 1.729z" /></svg>