<svg fill="currentColor" height="24" viewBox="0 0 24 24" width="24" xmlns="http://www.w3.org/2000/svg"><path d="m5.763 17h14.237v-12h-16v13.385zm.692 2-4.455 3.5v-18.5c0-.26522.10536-.51957.29289-.70711.18754-.18753.44189-.29289.70711-.29289h18c.2652 0 .5196.10536.7071.29289.1875.18754.2929.44189.2929.70711v14c0 .2652-.1054.5196-.2929.7071s-.4419.2929-.7071.2929zm4.545-5h2v2h-2zm-2.433-5.187c.12992-.65021.44182-1.25015.8994-1.73002.45757-.47987 1.042-.81994 1.6853-.98062.6433-.16069 1.319-.13539 1.9485.07296.6295.20834 1.1868.59115 1.6073 1.1039.4204.51274.6865 1.13433.7675 1.79244.0809.6581-.0267 1.32564-.3104 1.92494-.2836.5994-.7316 1.1058-1.2919 1.4605-.5602.3547-1.2096.5429-1.8727.5429h-1v-2h1c.2841 0 .5623-.0807.8023-.2327.24-.1519.432-.3689.5535-.6257s.1676-.5428.1329-.82476c-.0347-.28195-.1487-.54826-.3289-.76793-.1801-.21967-.4189-.38368-.6886-.47294s-.5592-.1001-.8348-.03126c-.2756.06883-.526.21452-.722.42011-.1961.20558-.3297.46261-.3854.74118z" /></svg>