<svg fill="currentColor" height="24" viewBox="0 0 24 24" width="24" xmlns="http://www.w3.org/2000/svg"><path d="m12 22c-5.523 0-10-4.477-10-10s4.477-10 10-10 10 4.477 10 10-4.477 10-10 10zm-1-7v2h2v-2zm2-1.645c.8037-.2422 1.4936-.765 1.9442-1.4733.4505-.7082.6317-1.5546.5105-2.38523-.1211-.83059-.5366-1.59003-1.1707-2.14001-.6341-.54999-1.4446-.85392-2.284-.85646-.8091-.00006-1.5933.28015-2.21921.79299-.62587.51284-1.05478 1.22664-1.21379 2.02001l1.962.393c.0557-.27857.1893-.5356.3854-.74118.196-.20559.4464-.35128.722-.42011.2756-.06884.5651-.058.8348.03126s.5085.25327.6886.47294c.1802.21967.2942.48598.3289.76793.0347.28196-.0114.56796-.1329.82476s-.3135.4738-.5535.6257c-.24.152-.5182.2327-.8023.2327-.2652 0-.5196.1054-.7071.2929s-.2929.4419-.2929.7071v1.5h2z" /></svg>