<svg fill="currentColor" height="24" viewBox="0 0 24 24" width="24" xmlns="http://www.w3.org/2000/svg"><path d="m12.5059 3.62301-1.023 1.772c-2.91-.879-5.514-.45-6.411 1.105-1.178 2.04.79 5.65199 4.678 7.89699s8 2.142 9.178.103c.898-1.555-.033-4.024-2.249-6.10499l1.023-1.772c3.082 2.709 4.463 6.26999 2.958 8.87699-1.86 3.222-7.189 3.355-11.91.63-4.721-2.728-7.27-7.40899-5.41-10.62999 1.505-2.607 5.28-3.192 9.166-1.877zm3.378-1.85 1.732 1-5 8.65999-1.732-1zm-9.152 18.22699h10.268v2h-11.983c-.1785.0036-.35467-.041-.51003-.129-.15536-.0879-.28418-.2161-.37297-.371-.08728-.1522-.1332-.3246-.1332-.5s.04592-.3478.1332-.5l2.25-3.897 1.732 1z" /></svg>