<svg fill="currentColor" height="24" viewBox="0 0 24 24" width="24" xmlns="http://www.w3.org/2000/svg"><path d="m14.3679 4.39801-3.484 6.03499 1.732 1 3.484-6.03499c4.17 2.772 6.306 7.07999 4.56 10.10199-1.86 3.222-7.189 3.355-11.91.63-4.721-2.728-7.27-7.40899-5.41-10.62999 1.745-3.023 6.543-3.327 11.028-1.102zm1.516-2.625 1.732 1-1.5 2.598-1.732-1zm-9.152 18.22699h10.268v2h-11.983c-.1785.0036-.35467-.041-.51003-.129-.15536-.0879-.28418-.2161-.37297-.371-.08728-.1522-.1332-.3246-.1332-.5s.04592-.3478.1332-.5l2.25-3.897 1.732 1z" /></svg>