<svg fill="currentColor" height="24" viewBox="0 0 24 24" width="24" xmlns="http://www.w3.org/2000/svg"><path d="m17 10v-2h-2v2h-10v-4h14v4zm-11-7v-2h2v2h13.008c.548 0 .992.445.992.993v16.014c-.0018.2626-.1069.514-.2925.6998s-.4369.2911-.6995.2932h-18.016c-.26319-.0003-.5155-.105-.70151-.2912s-.29049-.4386-.29049-.7018v-16.014c.00183-.26262.1069-.51398.29251-.69978.18562-.1858.43687-.29113.69949-.29322zm-2 2v14h16v-14zm4 13c-.79565 0-1.55871-.3161-2.12132-.8787s-.87868-1.3257-.87868-2.1213.31607-1.5587.87868-2.1213 1.32567-.8787 2.12132-.8787 1.55871.3161 2.1213.8787c.5626.5626.8787 1.3257.8787 2.1213s-.3161 1.5587-.8787 2.1213c-.56259.5626-1.32565.8787-2.1213.8787z" /></svg>