<svg fill="currentColor" height="24" viewBox="0 0 24 24" width="24" xmlns="http://www.w3.org/2000/svg"><path d="m12 22c-5.523 0-10-4.477-10-10s4.477-10 10-10 10 4.477 10 10-4.477 10-10 10zm0-6c1.0609 0 2.0783-.4214 2.8284-1.1716.7502-.7501 1.1716-1.7675 1.1716-2.8284s-.4214-2.07828-1.1716-2.82843c-.7501-.75014-1.7675-1.17157-2.8284-1.17157s-2.07828.42143-2.82843 1.17157c-.75014.75015-1.17157 1.76753-1.17157 2.82843s.42143 2.0783 1.17157 2.8284c.75015.7502 1.76753 1.1716 2.82843 1.1716z" /></svg>