<svg fill="currentColor" height="24" viewBox="0 0 24 24" width="24" xmlns="http://www.w3.org/2000/svg"><path d="m6 3v-2h2v2h13.008c.548 0 .992.445.992.993v16.014c-.0018.2626-.1069.514-.2925.6998s-.4369.2911-.6995.2932h-18.016c-.26319-.0003-.5155-.105-.70151-.2912s-.29049-.4386-.29049-.7018v-16.014c.00183-.26262.1069-.51398.29251-.69978.18562-.1858.43687-.29113.69949-.29322zm3 12c.79565 0 1.5587-.3161 2.1213-.8787s.8787-1.3257.8787-2.1213-.3161-1.5587-.8787-2.12132c-.5626-.56261-1.32565-.87868-2.1213-.87868s-1.55871.31607-2.12132.87868c-.56261.56262-.87868 1.32572-.87868 2.12132s.31607 1.5587.87868 2.1213 1.32567.8787 2.12132.8787zm5-6v2h4v-2zm0 4v2h4v-2z" /></svg>