<svg fill="currentColor" height="24" viewBox="0 0 24 24" width="24" xmlns="http://www.w3.org/2000/svg"><path d="m15.9999 18v-2h1c.6211-.0003 1.2336-.1453 1.789-.4234.5553-.2782 1.0383-.6818 1.4106-1.179.3723-.4971.6237-1.0742.7343-1.6853.1106-.6112.0773-1.2398-.0971-1.8359-.1745-.5961-.4854-1.14334-.9081-1.59845-.4226-.45511-.9455-.80553-1.5271-1.02351-.5816-.21799-1.2059-.29753-1.8236-.23235-.6177.06519-1.2117.27332-1.735.60791-.248-1.05638-.7778-2.02574-1.533-2.80487-.7553-.77913-1.7077-1.33886-2.7558-1.61961-1.04818-.28074-2.15284-.27199-3.19641.02533s-1.98698.87208-2.72978 1.66307c-.74281.791-1.2572 1.76864-1.48841 2.82881-.23122 1.06018-.1706 2.16317.1754 3.19167s.96442 1.9438 1.78943 2.6487c.82501.7048 1.82572 1.1727 2.89558 1.3539v2.022c-2.01889-.2549-3.86481-1.2694-5.16212-2.8372-1.29731-1.5677-1.94852-3.5709-1.8211-5.60179.12742-2.03092 1.02389-3.93698 2.50697-5.3303 1.48309-1.39331 3.44134-2.16918 5.47625-2.16971 1.42169-.00061 2.81789.37774 4.04469 1.0961 1.2269.71837 2.2401 1.75077 2.9353 2.9909.8189-.14098 1.6581-.11035 2.4645.08996s1.5624.56593 2.2201 1.07369c.6577.50777 1.2028 1.14661 1.6007 1.87605.3979.72943.64 1.5336.7109 2.3614.0709.8279-.031 1.6615-.2991 2.448-.2681.7864-.6966 1.5086-1.2585 2.1208-.5618.6122-1.2446 1.101-2.0053 1.4355-.7606.3345-1.5824.5073-2.4133.5076zm-5.768.732 1.768-1.768 1.768 1.768c.3496.3497.5876.7951.684 1.2801.0964.4849.0469.9875-.1423 1.4443-.1893.4568-.5097.8472-.9208 1.1219-.4111.2746-.8945.4212-1.3889.4212s-.9777-.1466-1.3888-.4212c-.4112-.2747-.73158-.6651-.92082-1.1219s-.23879-.9594-.14238-1.4443c.09641-.485.33445-.9304.684-1.2801z" /></svg>