<svg fill="currentColor" height="24" viewBox="0 0 24 24" width="24" xmlns="http://www.w3.org/2000/svg"><path d="m12 4c6.075 0 11 4.925 11 11v5h-2v-5c0-2.341-.9122-4.59-2.5431-6.26951-1.6308-1.67955-3.8519-2.65756-6.1919-2.72649l-.265-.004c-2.34104.00003-4.58995.91224-6.26951 2.54306-1.67955 1.63084-2.65756 3.85194-2.72649 6.19194l-.004.265v5h-2v-5c0-6.075 4.925-11 11-11zm0 4c1.8565 0 3.637.7375 4.9497 2.0503 1.3128 1.3127 2.0503 3.0932 2.0503 4.9497v5h-2v-5c-.0001-1.2885-.4975-2.5272-1.3887-3.4578-.8911-.9306-2.1071-1.4813-3.3943-1.5372l-.217-.005c-1.2885.0001-2.52716.4975-3.45778 1.3887-.93061.8911-1.4813 2.1071-1.53722 3.3943l-.005.217v5h-2v-5c0-1.8565.7375-3.637 2.05025-4.9497 1.31276-1.3128 3.09325-2.0503 4.94975-2.0503zm0 4c.7956 0 1.5587.3161 2.1213.8787s.8787 1.3257.8787 2.1213v5h-2v-5c0-.2449-.09-.4813-.2527-.6644-.1628-.183-.387-.2999-.6303-.3286l-.117-.007c-.2449 0-.4813.09-.6644.2527-.183.1628-.2999.387-.3286.6303l-.007.117v5h-2v-5c0-.7956.31607-1.5587.87868-2.1213.56262-.5626 1.32572-.8787 2.12132-.8787z" /></svg>