<svg fill="currentColor" height="24" viewBox="0 0 24 24" width="24" xmlns="http://www.w3.org/2000/svg"><path d="m12 4c6.075 0 11 4.925 11 11v5h-3v-5c0-2.0784-.8089-4.0753-2.2555-5.56771-1.4465-1.49244-3.4171-2.36334-5.4945-2.42829l-.25-.004c-2.07843.00002-4.07526.80894-5.5677 2.25547-1.49245 1.44653-2.36335 3.41713-2.4283 5.49453l-.004.25v5h-3v-5c0-6.075 4.925-11 11-11zm0 4c1.8565 0 3.637.7375 4.9497 2.0503 1.3128 1.3127 2.0503 3.0932 2.0503 4.9497v5h-3v-5c0-1.0262-.3944-2.0132-1.1017-2.7568s-1.6733-1.1869-2.6983-1.2382l-.2-.005c-1.0262 0-2.01323.3944-2.75681 1.1017-.74359.7073-1.18688 1.6733-1.23819 2.6983l-.005.2v5h-3v-5c0-1.8565.7375-3.637 2.05025-4.9497 1.31276-1.3128 3.09325-2.0503 4.94975-2.0503zm0 4c.7956 0 1.5587.3161 2.1213.8787s.8787 1.3257.8787 2.1213v5h-6v-5c0-.7956.31607-1.5587.87868-2.1213.56262-.5626 1.32572-.8787 2.12132-.8787z" /></svg>