<svg fill="currentColor" height="24" viewBox="0 0 24 24" width="24" xmlns="http://www.w3.org/2000/svg"><path d="m15.8601 18-3.153-3.153c-.1875-.1874-.4418-.2927-.707-.2927s-.5195.1053-.707.2927l-3.11301 3.113c-1.36651-.1411-2.67367-.6317-3.79559-1.4245s-2.0208-1.8612-2.61008-3.1022c-.58927-1.2409-.849088-2.6127-.75442-3.98326.09466-1.37052.54062-2.69358 1.29492-3.84176.75429-1.14818 1.79152-2.08279 3.01179-2.71384s2.58247-.93727 3.95541-.88917c1.37298.0481 2.71038.4489 3.88348 1.1638s2.1424 1.71982 2.8145 2.91797c.8189-.14098 1.6581-.11035 2.4645.08996s1.5624.56593 2.2201 1.07369c.6577.50777 1.2028 1.14661 1.6007 1.87605.3979.72943.64 1.53356.7109 2.36146s-.031 1.6615-.2991 2.4479c-.2681.7865-.6967 1.5087-1.2585 2.1209-.5618.6121-1.2447 1.101-2.0053 1.4354-.7606.3345-1.5824.5074-2.4133.5076h-1.139zm-5.628.732 1.768-1.768 1.768 1.768c.3496.3497.5876.7952.684 1.2801s.0469.9876-.1424 1.4443c-.1892.4568-.5096.8472-.9208 1.1219-.4111.2747-.8944.4213-1.3888.4213s-.9778-.1466-1.3889-.4213-.73151-.6651-.92074-1.1219c-.18924-.4567-.23879-.9594-.14238-1.4443s.33445-.9304.68402-1.2801z" /></svg>