<svg fill="currentColor" height="24" viewBox="0 0 24 24" width="24" xmlns="http://www.w3.org/2000/svg"><path d="m12 13.5002c-.3978 0-.7794-.1581-1.0607-.4394s-.4393-.6628-.4393-1.0606.158-.7794.4393-1.0607.6629-.4393 1.0607-.4393.7794.158 1.0607.4393.4393.6629.4393 1.0607-.158.7793-.4393 1.0606-.6629.4394-1.0607.4394zm-.528 2.994c.175.21.351.414.528.609.177-.195.353-.398.528-.609-.352.0074-.704.0074-1.056 0zm-1.995-.125c-.76794-.0799-1.5308-.2028-2.285-.368-.075.35-.132.69-.17 1.016-.19 1.583.075 2.545.478 2.777.403.233 1.368-.019 2.645-.974.263-.197.528-.416.794-.655-.5205-.5709-1.0086-1.1705-1.462-1.796zm7.331-.368c-.717.16-1.483.284-2.285.368-.4534.6255-.9415 1.2251-1.462 1.796.266.24.531.458.794.655 1.277.955 2.242 1.207 2.645.974.403-.232.667-1.194.479-2.777-.0413-.3411-.098-.6801-.17-1.016zm1.45-.387c.577 2.639.274 4.74-1.008 5.48s-3.253-.048-5.25-1.867c-1.997 1.819-3.968 2.606-5.25 1.866s-1.585-2.84-1.009-5.48c-2.574-.819-4.241-2.133-4.241-3.613s1.667-2.79303 4.241-3.61403c-.576-2.639-.273-4.73999 1.009-5.47999s3.253.04799 5.25 1.867c1.997-1.81901 3.968-2.606 5.25-1.866s1.585 2.83999 1.009 5.48c2.574.819 4.241 2.13302 4.241 3.61302s-1.667 2.793-4.241 3.614zm-7.32-9.77902c-.2543-.2302-.5189-.44876-.793-.655-1.277-.955-2.242-1.207-2.645-.974-.403.232-.667 1.19399-.479 2.77699.04.327.096.66601.17 1.01601.75453-.16527 1.51773-.28813 2.286-.368.475-.653.965-1.254 1.462-1.796zm3.585 1.796c.802.084 1.568.209 2.285.368.075-.35.132-.69001.17-1.01601.19-1.583-.075-2.54499-.478-2.77699-.403-.233-1.368.019-2.645.974-.2744.20622-.5394.42478-.794.655.497.542.987 1.143 1.462 1.796zm-1.995-.125c-.175-.21-.351-.41401-.528-.60901-.177.195-.353.39801-.528.60901.352-.00747.704-.00747 1.056 0zm-4.156 7.19802c-.18244-.3009-.35848-.6057-.528-.914-.095.257-.183.51-.263.761.257.056.521.107.79.153zm1.932.234c1.1291.0838 2.2629.0838 3.392 0 .6372-.9361 1.2041-1.9181 1.696-2.938-.4919-1.0199-1.0588-2.00198-1.696-2.93802-1.1291-.08387-2.2629-.08387-3.392 0-.6372.93604-1.20409 1.91812-1.696 2.93802.49191 1.0199 1.0588 2.0019 1.696 2.938zm5.852-4.728c.095-.25702.183-.51002.263-.76102-.2622-.05689-.5256-.10791-.79-.15301.1821.30091.3578.60565.527.91403zm-10.026-.37303c-.34.11-.662.23003-.964.36003-1.465.628-2.166 1.338-2.166 1.803s.7 1.175 2.166 1.803c.302.13.624.25.964.36.222-.7.497-1.426.825-2.163-.31518-.7051-.59061-1.4272-.825-2.16303zm1.45-.38799c.081.25.169.50399.264.76002.16953-.30805.34557-.61246.528-.91303-.27.046-.534.09701-.791.15301zm10.29 4.71402c.34-.11.662-.23.964-.36 1.465-.628 2.166-1.338 2.166-1.803s-.7-1.175-2.166-1.803c-.3157-.1345-.6374-.25465-.964-.36003-.222.70003-.497 1.42603-.825 2.16303.328.737.603 1.462.825 2.163zm-1.45.388c-.081-.25-.169-.504-.264-.76-.1695.308-.3456.6124-.528.913.27-.046.534-.097.791-.153z" /></svg>