<svg fill="currentColor" height="24" viewBox="0 0 24 24" width="24" xmlns="http://www.w3.org/2000/svg"><path d="m14.448 16.2398c-.5355.7615-1.119 1.4879-1.747 2.175 1.672 1.623 3.228 2.383 4.09 1.884.864-.498.983-2.225.414-4.484-.853.19-1.78.334-2.757.425zm-1.31.087c-.7583.0314-1.5177.0314-2.276 0 .377.492.758.948 1.138 1.364.38-.416.76-.872 1.138-1.364zm5.04-7.89396c2.665.764 4.405 2.03396 4.405 3.56696s-1.74 2.803-4.405 3.567c.67 2.69.441 4.832-.886 5.598-1.328.767-3.298-.105-5.292-2.03-1.994 1.925-3.96401 2.797-5.29201 2.03-1.327-.766-1.557-2.908-.886-5.598-2.665-.764-4.405-2.034-4.405-3.567s1.74-2.80296 4.405-3.56696c-.67-2.69-.441-4.832.886-5.598 1.328-.767 3.29801.105 5.29201 2.03 1.994-1.925 3.964-2.797 5.292-2.03 1.327.766 1.557 2.908.886 5.598zm-.973-.248c.57-2.26.45-3.986-.413-4.484-.863-.499-2.419.261-4.09 1.884.591.643 1.179 1.374 1.746 2.175.978.09 1.904.234 2.757.425zm-10.41001 7.62996c-.57 2.26-.45 3.986.413 4.484.863.499 2.419-.261 4.09001-1.884-.6277-.6871-1.2109-1.4136-1.74601-2.175-.9271-.0828-1.84797-.2248-2.757-.425zm4.06701-8.14196c.7583-.0314 1.5177-.0314 2.276 0-.3595-.47054-.7392-.9253-1.138-1.363-.38.416-.76.872-1.138 1.364zm-1.31001.087c.53581-.76146 1.11961-1.48794 1.74801-2.175-1.67301-1.623-3.23001-2.383-4.09101-1.884-.864.498-.983 2.225-.414 4.484.853-.19 1.78-.334 2.757-.425zm4.34201 7.51996c.7118-1.0446 1.3446-2.141 1.893-3.28-.5484-1.1389-1.1812-2.23532-1.893-3.27996-1.2609-.09441-2.5271-.09441-3.788 0-.71185 1.04464-1.34461 2.14106-1.89301 3.27996.5484 1.139 1.18116 2.2354 1.89301 3.28 1.2609.0944 2.5271.0944 3.788 0zm1.284-.131c.615-.08 1.2-.183 1.75-.304-.1799-.5642-.3841-1.1204-.612-1.667-.352.6721-.7317 1.3293-1.138 1.97zm-6.35601-6.29896c-.615.08-1.2.183-1.75.304.17.536.374 1.09396.612 1.66696.35201-.672.73167-1.32927 1.138-1.96996zm-1.75 5.99396c.55.121 1.135.223 1.75.304-.40633-.6407-.78599-1.2979-1.138-1.97-.238.572-.442 1.13-.612 1.666zm-.978-.245c.261-.834.6-1.708 1.01-2.6-.41-.892-.749-1.766-1.01-2.59996-2.242.63696-3.677 1.60396-3.677 2.59996s1.435 1.963 3.677 2.6zm10.83401-5.44496c-.55-.121-1.135-.223-1.75-.304.4063.64069.786 1.29796 1.138 1.96996.238-.572.442-1.12996.612-1.66596zm.978.245c-.261.83396-.6 1.70796-1.01 2.59996.41.892.749 1.766 1.01 2.6 2.242-.637 3.677-1.604 3.677-2.6s-1.435-1.963-3.677-2.59996zm-5.906 4.48096c-.2469 0-.4914-.0486-.7195-.1431-.228-.0944-.4353-.2329-.6099-.4075-.1745-.1746-.313-.3818-.4075-.6099s-.1431-.4726-.1431-.7195c0-.2468.0486-.4913.1431-.7194s.233-.4353.4075-.6099c.1746-.1746.3819-.3131.6099-.4076.2281-.0944.4726-.1431.7195-.1431.4986 0 .9768.1981 1.3294.5507.3525.3525.5506.8307.5506 1.3293s-.1981.9768-.5506 1.3294c-.3526.3526-.8308.5506-1.3294.5506z" /></svg>