<svg fill="currentColor" height="24" viewBox="0 0 24 24" width="24" xmlns="http://www.w3.org/2000/svg"><path d="m14.2566 15c-.7953-.9641-1.2386-2.1704-1.2567-3.4202-.0182-1.2497.3899-2.46838 1.157-3.45519.767-.98682 1.8473-1.68295 3.0629-1.97371s2.494-.15882 3.6245.37409c1.1306.53291 2.046 1.43501 2.5953 2.5577.5493 1.12271.6999 2.39901.4269 3.61871s-.9533 2.31-1.9289 3.0914c-.9755.7813-2.1881 1.2071-3.438 1.2072h-12.99995c-1.24988-.0001-2.46245-.4259-3.43799-1.2072-.97553-.7814-1.65583-1.8717-1.928842-3.0914s-.1224489-2.496.426888-3.61871c.549334-1.12269 1.464684-2.02479 2.595254-2.5577s2.40894-.66485 3.62453-.37409c1.21558.29076 2.29588.98689 3.06294 1.97371.76707.98681 1.17517 2.20549 1.15697 3.45519-.0181 1.2498-.4614 2.4561-1.25675 3.4202zm-8.75695 0c.92825 0 1.81849-.3687 2.47487-1.0251s1.02513-1.5466 1.02513-2.4749-.36875-1.81849-1.02513-2.47487-1.54662-1.02513-2.47487-1.02513c-.92826 0-1.8185.36875-2.47488 1.02513-.65637.65638-1.02512 1.54657-1.02512 2.47487s.36875 1.8185 1.02512 2.4749c.65638.6564 1.54662 1.0251 2.47488 1.0251zm12.99995 0c.9283 0 1.8185-.3687 2.4749-1.0251s1.0251-1.5466 1.0251-2.4749-.3687-1.81849-1.0251-2.47487-1.5466-1.02513-2.4749-1.02513c-.9282 0-1.8185.36875-2.4748 1.02513-.6564.65638-1.0252 1.54657-1.0252 2.47487s.3688 1.8185 1.0252 2.4749c.6563.6564 1.5466 1.0251 2.4748 1.0251z" /></svg>