<svg fill="currentColor" height="24" viewBox="0 0 24 24" width="24" xmlns="http://www.w3.org/2000/svg"><path d="m9.74265 15h4.51395c-.7953-.9641-1.2386-2.1704-1.2567-3.4202-.0182-1.2497.3899-2.46838 1.157-3.45519.767-.98682 1.8473-1.68295 3.0629-1.97371s2.494-.15882 3.6245.37409c1.1306.53291 2.046 1.43501 2.5953 2.5577.5493 1.12271.6999 2.39901.4269 3.61871s-.9533 2.31-1.9289 3.0914c-.9755.7813-2.1881 1.2071-3.438 1.2072h-12.99995c-1.24988-.0001-2.46245-.4259-3.43799-1.2072-.97553-.7814-1.65583-1.8717-1.928842-3.0914s-.1224489-2.496.426888-3.61871c.549334-1.12269 1.464684-2.02479 2.595254-2.5577s2.40894-.66485 3.62453-.37409c1.21558.29076 2.29588.98689 3.06294 1.97371.76707.98681 1.17517 2.20549 1.15697 3.45519-.0181 1.2498-.4614 2.4561-1.25675 3.4202zm-4.243-2c.39782 0 .77935-.158 1.06066-.4393.2813-.2813.43934-.6629.43934-1.0607s-.15804-.7794-.43934-1.0607c-.28131-.2813-.66284-.4393-1.06066-.4393-.39783 0-.77936.158-1.06066.4393-.28131.2813-.43934.6629-.43934 1.0607s.15803.7794.43934 1.0607c.2813.2813.66283.4393 1.06066.4393zm12.99995 0c.3979 0 .7794-.158 1.0607-.4393s.4393-.6629.4393-1.0607-.158-.7794-.4393-1.0607-.6628-.4393-1.0607-.4393c-.3978 0-.7793.158-1.0606.4393s-.4394.6629-.4394 1.0607.1581.7794.4394 1.0607.6628.4393 1.0606.4393z" /></svg>