<svg fill="currentColor" height="24" viewBox="0 0 24 24" width="24" xmlns="http://www.w3.org/2000/svg"><path d="m12 22c-5.523 0-10-4.477-10-10s4.477-10 10-10 10 4.477 10 10-4.477 10-10 10zm0-2c2.1217 0 4.1566-.8429 5.6569-2.3431 1.5002-1.5003 2.3431-3.5352 2.3431-5.6569 0-2.12173-.8429-4.15656-2.3431-5.65685-1.5003-1.5003-3.5352-2.34315-5.6569-2.34315-2.12173 0-4.15656.84285-5.65685 2.34315-1.5003 1.50029-2.34315 3.53512-2.34315 5.65685 0 2.1217.84285 4.1566 2.34315 5.6569 1.50029 1.5002 3.53512 2.3431 5.65685 2.3431zm0-5c-.7956 0-1.5587-.3161-2.12132-.8787-.56261-.5626-.87868-1.3257-.87868-2.1213s.31607-1.5587.87868-2.12132c.56262-.56261 1.32572-.87868 2.12132-.87868s1.5587.31607 2.1213.87868c.5626.56262.8787 1.32572.8787 2.12132s-.3161 1.5587-.8787 2.1213-1.3257.8787-2.1213.8787z" /></svg>