<svg fill="currentColor" height="24" viewBox="0 0 24 24" width="24" xmlns="http://www.w3.org/2000/svg"><path d="m19.5621 12.0978 1.531 2.652c.967 1.674.393 3.815-1.28 4.781-.533.307-1.136.469-1.75.469h-2.063v2l-5-3.5 5-3.5v2h2.062c.088 0 .174-.023.25-.067.213-.123.301-.378.221-.601l-.038-.082-1.531-2.652zm-11.82505-2.71404.53 6.08004-1.72999-1-1.03201 1.786c-.044.076-.067.162-.067.25 0 .245.177.45.41.492l.09.008h3.062v3h-3.062c-1.933 0-3.5-1.567-3.5-3.5 0-.614.162-1.218.469-1.75l1.031-1.786-1.732-1 5.53-2.58004zm6.01305-6.415c.532.307.974.749 1.281 1.281l1.03 1.786 1.733-1-.53 6.08004-5.532-2.58004 1.732-1-1.031-1.786c-.044-.076-.107-.14-.183-.183-.213-.123-.478-.072-.631.11l-.052.073-1.53 2.652-2.59904-1.5 1.52999-2.652c.967-1.674 3.10805-2.248 4.78205-1.281z" /></svg>