<svg fill="currentColor" height="24" viewBox="0 0 24 24" width="24" xmlns="http://www.w3.org/2000/svg"><path d="m19.5624 12.0968 1.531 2.653c.967 1.674.393 3.815-1.28 4.781-.533.307-1.136.469-1.75.469h-2.063v2.5l-5-3.5 5-3.5v2.5h2.062c.263 0 .522-.07.75-.201.718-.414.963-1.332.55-2.049l-1.532-2.653zm-12.25796-2.96304.53 6.08004-2.164-1.25-1.031 1.786c-.132.228-.201.487-.201.75 0 .828.671 1.5 1.5 1.5h3.062v2h-3.062c-1.933 0-3.5-1.567-3.5-3.5 0-.614.162-1.218.469-1.75l1.03-1.787-2.164-1.249 5.53-2.58004zm6.44596-6.165c.532.307.974.749 1.281 1.281l1.03 1.785 2.166-1.25-.53 6.08104-5.532-2.58004 2.165-1.25-1.031-1.786c-.132-.228-.321-.417-.549-.549-.717-.414-1.635-.168-2.049.549l-1.53196 2.653-1.732-1 1.533-2.653c.966-1.674 3.10696-2.248 4.78096-1.281z" /></svg>