<svg fill="currentColor" height="24" viewBox="0 0 24 24" width="24" xmlns="http://www.w3.org/2000/svg"><path d="m21 5.937c-1.7725 2.01295-4.169 3.37316-6.806 3.863-.2152-.39392-.5325-.72265-.9185-.95166-.3861-.22901-.8266-.34986-1.2755-.34986s-.8894.12085-1.2755.34986c-.386.22901-.7033.55774-.9185.95166-2.63701-.48984-5.03349-1.85005-6.806-3.863v-2.937c0-.26522.10536-.51957.29289-.70711.18754-.18753.44189-.29289.70711-.29289h16c.2652 0 .5196.10536.7071.29289.1875.18754.2929.44189.2929.70711zm0 2.787v12.276c0 .2652-.1054.5196-.2929.7071s-.4419.2929-.7071.2929h-16c-.26522 0-.51957-.1054-.70711-.2929-.18753-.1875-.29289-.4419-.29289-.7071v-12.276c1.89719 1.5966 4.18581 2.6584 6.63 3.076.1672.4961.4858.9272.911 1.2325.4252.3054.9355.4697 1.459.4697s1.0338-.1643 1.459-.4697c.4252-.3053.7438-.7364.911-1.2325 2.4442-.4176 4.7328-1.4794 6.63-3.076z" /></svg>