<svg fill="currentColor" height="24" viewBox="0 0 24 24" width="24" xmlns="http://www.w3.org/2000/svg"><path d="m14.173 9.763c1.8226-.40526 3.4949-1.31368 4.827-2.622v-3.141h-14v3.141c1.33205 1.30832 3.00441 2.21674 4.827 2.622.2183-.38379.5344-.70292.9161-.92491s.8154-.33894 1.2569-.33894.8752.11695 1.2569.33894.6978.54112.9161.92491zm.208 2c-.162.5041-.4799.9437-.9078 1.2556s-.9437.48-1.4732.48-1.0453-.1681-1.4732-.48-.74575-.7515-.9078-1.2556c-1.66541-.3351-3.24014-1.0217-4.619-2.014v10.251h14v-10.252c-1.3787.993-2.9534 1.6803-4.619 2.016zm-10.381-9.763h16c.2652 0 .5196.10536.7071.29289.1875.18754.2929.44189.2929.70711v18c0 .2652-.1054.5196-.2929.7071s-.4419.2929-.7071.2929h-16c-.26522 0-.51957-.1054-.70711-.2929-.18753-.1875-.29289-.4419-.29289-.7071v-18c0-.26522.10536-.51957.29289-.70711.18754-.18753.44189-.29289.70711-.29289z" /></svg>