<svg fill="currentColor" height="24" viewBox="0 0 24 24" width="24" xmlns="http://www.w3.org/2000/svg"><path d="m12 22c-5.523 0-10-4.477-10-10s4.477-10 10-10 10 4.477 10 10-4.477 10-10 10zm6.67-10c-.0103-.2815-.1018-.554-.2634-.7846-.1617-.2307-.3866-.4097-.6477-.5154s-.5472-.1336-.8238-.0804c-.2766.0533-.5319.1854-.7351.3804-1.1376-.7733-2.4748-1.2005-3.85-1.23l.65-3.12 2.14.45c.0254.23648.1343.45615.3071.61958s.3982.25992.6358.27214c.2375.01222.4716-.06062.6603-.20546.1887-.14483.3195-.35216.3691-.58479.0496-.23262.0146-.4753-.0986-.68446-.1132-.20917-.2973-.37114-.5192-.45682-.2219-.08569-.467-.08949-.6914-.01071-.2245.07877-.4135.23496-.5331.44052l-2.45-.49c-.0401-.00879-.0815-.00954-.1218-.00221-.0404.00734-.0789.02261-.1133.04493-.0344.02233-.0641.05126-.0872.08512-.0232.03387-.0394.07199-.0477.11216l-.74 3.47c-1.3921.02099-2.74773.4485-3.9 1.23-.15416-.145-.33801-.2548-.53882-.3218-.20081-.0669-.41377-.0894-.62413-.0658-.21035.0235-.41307.0926-.5941.2022-.18103.1097-.33605.2575-.45431.433-.11826.1756-.19693.3747-.23056.5837-.03364.209-.02143.4228.03577.6266.05721.2038.15804.3927.29551.5536.13747.161.3083.2901.50064.3785-.01126.1465-.01126.2935 0 .44 0 2.24 2.61 4.06 5.83 4.06s5.83-1.82 5.83-4.06c.0113-.1465.0113-.2935 0-.44.2468-.1227.4538-.3126.5971-.548.1434-.2353.2172-.5065.2129-.782zm-10 1c0-.2652.10536-.5196.29289-.7071.18754-.1875.44189-.2929.70711-.2929s.5196.1054.7071.2929.2929.4419.2929.7071-.1054.5196-.2929.7071-.44188.2929-.7071.2929-.51957-.1054-.70711-.2929c-.18753-.1875-.29289-.4419-.29289-.7071zm5.81 2.75c-.7095.5347-1.5824.8068-2.47.77-.8876.0368-1.7605-.2353-2.47-.77-.04252-.0518-.06425-.1176-.06097-.1845.00329-.067.03136-.1303.07876-.1777s.11073-.0755.17767-.0788c.06695-.0033.13273.0185.18454.061.6012.441 1.3351.6633 2.08.63.7458.0406 1.4831-.1746 2.09-.61.0256-.0286.0568-.0517.0916-.0678.0349-.0161.0727-.0248.1111-.0257.0384-.0008.0766.0063.1121.0208.0356.0145.0677.0362.0945.0637.0269.0275.0477.0602.0613.0961.0137.0359.0198.0743.018.1126-.0019.0384-.0115.0759-.0285.1104s-.0408.0651-.0701.0899zm-.18-1.71c-.1978 0-.3911-.0586-.5556-.1685-.1644-.1099-.2926-.2661-.3683-.4488s-.0955-.3838-.0569-.5778.1338-.3722.2737-.512c.1398-.1399.318-.2351.512-.2737s.3951-.0188.5778.0569.3389.2039.4488.3683c.1099.1645.1685.3578.1685.5556.0054.1355-.0168.2707-.0652.3973-.0484.1267-.1221.2422-.2166.3394-.0945.0973-.2078.1744-.3329.2265-.1252.0521-.2597.0783-.3953.0768z" /></svg>