<svg fill="currentColor" height="24" viewBox="0 0 24 24" width="24" xmlns="http://www.w3.org/2000/svg"><path d="m11.1018 7.81522.751-3.536c.0546-.25696.1594-.50062.3082-.71709.1489-.21647.3389-.40149.5593-.5445.2203-.143.4667-.2412.725-.28897.2584-.04777.5236-.04418.7805.01056l3.196.68c.2946-.32718.689-.548 1.1219-.62821s.8802-.01532 1.2724.18459c.3923.19992.7077.52369.8972.9211s.2426.84625.151 1.2769-.3228.81904-.6576 1.10493c-.3348.2859-.7546.45331-1.1943.47629-.4397.02297-.8747-.09978-1.2375-.34922s-.6331-.61162-.7691-1.03038l-3.196-.68-.666 3.135c1.784.137 3.557.73 5.163 1.7.4772-.26535 1.0146-.40384 1.5606-.40222.546.00163 1.0825.1433 1.5582.41147.4757.26818.8746.65393 1.1586 1.12023.284.4664.4436.9978.4636 1.5435v.021c.0076.4891-.0972.9735-.3065 1.4156s-.5174.8303-.9005 1.1344c-.0018.0411-.0045.0821-.008.123 0 3.998-4.45 7.03-9.799 7.03-5.33201 0-9.70801-3.024-9.70501-6.953-.00436-.0603-.00769-.1206-.01-.181-.64588-.4848-1.084-1.1964-1.22605-1.9914-.142045-.795.02253-1.6143.46056-2.2928.43803-.67843 1.11695-1.16566 1.89995-1.36344.78299-.19778 1.61185-.09142 2.31954.29766 1.61511-.97336 3.44568-1.5326 5.32901-1.628zm9.286 5.52598c.408-.203.664-.62.661-1.075-.0104-.2288-.0865-.4498-.2192-.6364-.1327-.1867-.3164-.3312-.5291-.4163-.2126-.085-.4453-.1069-.6701-.0632-.2249.0438-.4323.1513-.5976.3099l-.585.56-.67-.455c-1.615-1.098-3.452-1.72498-5.23-1.76398h-1.006c-1.87501.029-3.65101.59998-5.23701 1.67498l-.663.45-.584-.55c-.12594-.1182-.27606-.2076-.43998-.2621-.16392-.0544-.33772-.0726-.50936-.0533-.17164.0194-.33702.0758-.4847.1654s-.27412.2102-.37058.3535c-.09645.1433-.16062.3058-.18804.4764-.02743.1705-.01747.345.0292.5113.04666.1663.12891.3204.24105.4518s.25149.2368.40841.309l.633.29-.054.695c-.013.17-.013.339.003.584 0 2.71 3.356 5.03 7.70801 5.03 4.371 0 7.799-2.336 7.802-5.106.013-.1691.013-.3389 0-.508l-.052-.672zm-13.38801.159c0-.3978.15804-.7793.43934-1.0606.28131-.2813.66284-.4394 1.06066-.4394.39783 0 .77936.1581 1.06066.4394.28131.2813.43934.6628.43934 1.0606s-.15803.7794-.43934 1.0607c-.2813.2813-.66283.4393-1.06066.4393-.39782 0-.77935-.158-1.06066-.4393-.2813-.2813-.43934-.6629-.43934-1.0607zm7.00001 0c0-.3978.158-.7793.4393-1.0606s.6629-.4394 1.0607-.4394.7793.1581 1.0607.4394c.2813.2813.4393.6628.4393 1.0606s-.158.7794-.4393 1.0607c-.2814.2813-.6629.4393-1.0607.4393s-.7794-.158-1.0607-.4393-.4393-.6629-.4393-1.0607zm-1.984 5.103c-1.397 0-2.76701-.37-3.88201-1.21-.06735-.0813-.10194-.1848-.097-.2903s.04906-.2053.12372-.28c.07466-.0746.1745-.1187.27997-.1237.10547-.0049.209.0297.29031.097.945.693 2.12301.99 3.26901.99s2.33-.275 3.284-.959c.0552-.0538.1235-.0921.1982-.1112.0747-.019.1531-.018.2273.0029s.1415.0609.1954.1161c.0538.0552.0921.1235.1111.1982.0162.0749.0138.1526-.0069.2263-.0207.0738-.0592.1413-.1121.1967-.684.797-2.484 1.147-3.881 1.147z" /></svg>