<svg fill="currentColor" height="24" viewBox="0 0 24 24" width="24" xmlns="http://www.w3.org/2000/svg"><path d="m5.463 4.43301c1.81456-1.57234 4.13599-2.43635 6.537-2.433 5.523 0 10 4.477 10 9.99999 0 2.136-.67 4.116-1.81 5.74l-3.19-5.74h3c.0001-1.5684-.4608-3.10219-1.3253-4.41073-.8646-1.30855-2.0948-2.3341-3.5375-2.94914-1.4428-.61503-3.0345-.79242-4.5772-.5101-1.5428.28231-2.96855 1.01188-4.1 2.09798zm13.074 15.13399c-1.8146 1.5723-4.136 2.4364-6.537 2.433-5.523 0-10-4.477-10-10 0-2.13599.67-4.11599 1.81-5.73999l3.19 5.73999h-3c-.00013 1.5684.46075 3.1022 1.32534 4.4108.86458 1.3085 2.09473 2.3341 3.53748 2.9491 1.44278.615 3.03448.7924 4.57718.5101 1.5428-.2823 2.9685-1.0119 4.1-2.098z" /></svg>