<svg fill="currentColor" height="24" viewBox="0 0 24 24" width="24" xmlns="http://www.w3.org/2000/svg"><path d="m12 22c-5.523 0-10-4.477-10-10s4.477-10 10-10 10 4.477 10 10-4.477 10-10 10zm4.82-4.924c1.2071-1.1441 1.9674-2.6807 2.1447-4.3344.1772-1.6537-.2401-3.3165-1.1773-4.69049-.9371-1.374-2.3329-2.36941-3.9372-2.80792-1.6044-.43851-3.3124-.29146-4.8182.41481l.975 1.755c.7609-.33071 1.5922-.46687 2.4189-.39621.8266.07067 1.6227.34594 2.3165.801.6937.45507 1.2633 1.07562 1.6575 1.80572.3941.73009.6003 1.54679.6001 2.37649h-3zm-1.852 1.266-.975-1.755c-.7609.3307-1.5922.4669-2.4189.3962-.8266-.0707-1.62273-.3459-2.31648-.801-.69376-.4551-1.26337-1.0756-1.65749-1.8057s-.60036-1.5468-.60013-2.3765h3l-2.82-5.076c-1.20711 1.14414-1.9674 2.68069-2.14468 4.3344-.17727 1.6537.24007 3.3165 1.17724 4.6905.93718 1.374 2.33296 2.3694 3.93724 2.8079 1.6044.4385 3.3124.2915 4.8182-.4148z" /></svg>