<svg fill="currentColor" height="24" viewBox="0 0 24 24" width="24" xmlns="http://www.w3.org/2000/svg"><path d="m5.67077 4.25706c3.928-3.219 9.73303-2.995 13.40003.672 3.905 3.905 3.905 10.23704 0 14.14204s-10.23703 3.905-14.14203 0c-1.19837-1.1968-2.07292-2.6785-2.54154-4.3059-.46862-1.6275-.51592-3.3474-.13746-4.99814l.077-.313 1.934.51c-.47946 1.82224-.30031 3.75524.50588 5.45834.80618 1.7032 2.18766 3.067 3.90095 3.8513 1.7133.7843 3.6485.9387 5.4644.4359 1.816-.5027 3.3962-1.6304 4.4622-3.1841 1.066-1.5538 1.5493-3.434 1.3648-5.3092-.1845-1.87521-1.025-3.62513-2.3734-4.94134-1.3483-1.31621-3.118-2.11424-4.9972-2.25344-1.8791-.1392-3.74704.38937-5.27463 1.49254l-.221.166 1.017 1.017-4.596 1.06 1.06-4.596 1.096 1.096zm7.32903 1.743v2h2.5v2.00004h-5.50003c-.12495-.00027-.24545.0463-.33778.1305-.09234.0841-.14981.1998-.1611.3243-.01129.1244.02442.2486.1001.348s.18583.1669.30878.1892l.09.008h4.00003c.663 0 1.2989.2634 1.7677.7322.4689.4688.7323 1.1047.7323 1.7678 0 .663-.2634 1.2989-.7323 1.7677-.4688.4689-1.1047.7323-1.7677.7323h-1v2h-2v-2h-2.50003v-2h5.50003c.1249.0002.2454-.0464.3378-.1306.0923-.0841.1498-.1998.161-.3243.0113-.1244-.0244-.2486-.1-.348-.0757-.0994-.1859-.1669-.3088-.1891l-.09-.008h-4.00003c-.66304 0-1.29893-.2634-1.76777-.7323-.46884-.4688-.73223-1.1047-.73223-1.7677 0-.66308.26339-1.29897.73223-1.76781s1.10473-.73223 1.76777-.73223h1.00003v-2z" /></svg>