<svg fill="currentColor" height="24" viewBox="0 0 24 24" width="24" xmlns="http://www.w3.org/2000/svg"><path d="m12 2c5.523 0 10 4.477 10 10s-4.477 10-10 10c-2.33151.0034-4.59034-.8112-6.38299-2.302l-.244-.209.902-1.902c1.28798 1.3201 2.99252 2.1546 4.82509 2.3623 1.8326.2077 3.6807-.2241 5.2315-1.2225 1.5507-.9983 2.7089-2.5018 3.2785-4.256.5695-1.7542.5155-3.6513-.153-5.3702-.6685-1.71891-1.9103-3.15406-3.5154-4.06253s-3.4747-1.23445-5.2925-.92277c-1.81785.31167-3.47213 1.24187-4.68288 2.63313-1.21076 1.39127-1.90362 3.15814-1.96131 5.00157l-.005.25h2.5l-2.706 5.716c-1.17079-1.6759-1.79716-3.6716-1.794-5.716 0-5.523 4.477-10 9.99999-10zm1 4v2h2.5v2h-5.5c-.12493-.00023-.24544.0463-.33777.1305s-.1498.1999-.16109.3243c-.01129.1245.02442.2486.10009.348.07568.0995.18583.1669.30878.1892l.08999.008h4c.6631 0 1.2989.2634 1.7678.7322.4688.4689.7322 1.1048.7322 1.7678s-.2634 1.2989-.7322 1.7678c-.4689.4688-1.1047.7322-1.7678.7322h-1v2h-2v-2h-2.49999v-2h5.49999c.125.0002.2455-.0463.3378-.1305s.1498-.1999.1611-.3243c.0113-.1245-.0244-.2486-.1001-.348-.0757-.0995-.1858-.1669-.3088-.1892l-.09-.008h-4c-.66303 0-1.29891-.2634-1.76776-.7322-.46884-.4689-.73223-1.1048-.73223-1.7678 0-.66304.26339-1.29893.73223-1.76777.46885-.46884 1.10473-.73223 1.76776-.73223h1v-2z" /></svg>