<svg fill="currentColor" height="24" viewBox="0 0 24 24" width="24" xmlns="http://www.w3.org/2000/svg"><path d="m12 2c5.523 0 10 4.477 10 10s-4.477 10-10 10-10-4.477-10-10 4.477-10 10-10zm.5 5h-4.5v10h2v-3h2.217l2.18 3h2.472l-2.55-3.51c.6388-.3881 1.1366-.9706 1.4204-1.6621.2839-.6914.3389-1.4556.1571-2.18067-.1819-.72501-.5911-1.37276-1.1677-1.8484-.5767-.47563-1.2904-.75417-2.0368-.79483zm0 2c.3729.00002.7324.13892 1.0084.38962s.4488.59522.4846.96638l.007.144-.007.144c-.0332.3466-.186.6709-.4321.9172s-.5703.3993-.9169.4328l-.144.006h-2.5v-3z" /></svg>