<svg fill="currentColor" height="24" viewBox="0 0 24 24" width="24" xmlns="http://www.w3.org/2000/svg"><path d="m12 2c5.523 0 10 4.477 10 10s-4.477 10-10 10-10-4.477-10-10 4.477-10 10-10zm0 2c-2.12173 0-4.15656.84285-5.65685 2.34315-1.5003 1.50029-2.34315 3.53512-2.34315 5.65685 0 2.1217.84285 4.1566 2.34315 5.6569 1.50029 1.5002 3.53512 2.3431 5.65685 2.3431 2.1217 0 4.1566-.8429 5.6569-2.3431 1.5002-1.5003 2.3431-3.5352 2.3431-5.6569 0-2.12173-.8429-4.15656-2.3431-5.65685-1.5003-1.5003-3.5352-2.34315-5.6569-2.34315zm.5 3c.7636-.00015 1.5064.24945 2.1149.71073.6086.46129 1.0496 1.10895 1.2558 1.84422.2062.73525.1662 1.51775-.1137 2.22825-.28.7105-.7846 1.3099-1.437 1.7068l2.548 3.51h-2.472l-2.18-3h-2.216v3h-2v-10zm0 2h-2.5v3h2.5c.3729 0 .7324-.1389 1.0084-.3896s.4488-.5952.4846-.9664l.007-.144c0-.3978-.158-.77936-.4393-1.06066s-.6629-.43934-1.0607-.43934z" /></svg>