<svg fill="currentColor" height="24" viewBox="0 0 24 24" width="24" xmlns="http://www.w3.org/2000/svg"><path d="m6.364 6 8.784 9.663.72-.283c1.685-.661 2.864-2.156 3.092-3.896-1.6258.115-3.2356-.3849-4.5103-1.4005-1.2748-1.01569-2.1216-2.47307-2.3727-4.0835h-5.714zm7.636-1c-.0001.78643.206 1.55914.5976 2.24113s.9551 1.24945 1.6343 1.64582c.6793.39637 1.4505.60782 2.2369.61326.7864.00545 1.5605-.19529 2.2452-.58221.186.618.286 1.271.286 1.947 0 2.891-1.822 5.364-4.4 6.377l3.4 3.758h-17v-17h11.111c-.0741.32816-.1114.66357-.111 1zm4.5 2.5c-.663 0-1.2989-.26339-1.7678-.73223-.4688-.46884-.7322-1.10473-.7322-1.76777s.2634-1.29893.7322-1.76777c.4689-.46884 1.1048-.73223 1.7678-.73223s1.2989.26339 1.7678.73223c.4688.46884.7322 1.10473.7322 1.76777s-.2634 1.29893-.7322 1.76777c-.4689.46884-1.1048.73223-1.7678.73223zm-13.5-.03v11.53h10.48z" /></svg>