<svg fill="currentColor" height="24" viewBox="0 0 24 24" width="24" xmlns="http://www.w3.org/2000/svg"><path d="m16.53 17.53 3.47 3.47h-17v-17h10.667v.008c.1562-.00782.3126-.01049.469-.008-.089.37-.136.76-.136 1.166 0 2.319 2.015 4.334 4.667 4.334.724 0 1.419-.197 2.032-.538.514 1.6907.3699 3.5131-.4035 5.102-.7734 1.5888-2.1188 2.8266-3.7665 3.465zm1.97-10.03c-.663 0-1.2989-.26339-1.7678-.73223-.4688-.46884-.7322-1.10473-.7322-1.76777s.2634-1.29893.7322-1.76777c.4689-.46884 1.1048-.73223 1.7678-.73223s1.2989.26339 1.7678.73223c.4688.46884.7322 1.10473.7322 1.76777s-.2634 1.29893-.7322 1.76777c-.4689.46884-1.1048.73223-1.7678.73223z" /></svg>