<svg fill="currentColor" height="24" viewBox="0 0 24 24" width="24" xmlns="http://www.w3.org/2000/svg"><path d="m16.9997 12c.2653 0 .5196.1054.7071.2929.1876.1875.2929.4419.2929.7071v9h-11.99997v-9c0-.2652.10536-.5196.2929-.7071.18753-.1875.44189-.2929.7071-.2929zm-6.99997 2h-2v2h2zm1.99997-8c1.1145-.00033 2.207.30972 3.1551.89541s1.7144 1.42387 2.2129 2.42059l-1.79.895c-.332-.66484-.8427-1.22403-1.4748-1.61487-.6321-.39083-1.3605-.59786-2.1037-.59786-.7431 0-1.4716.20703-2.10364.59786-.63208.39084-1.14277.95003-1.47483 1.61487l-1.789-.895c.49853-.99672 1.2648-1.8349 2.21293-2.42059.94812-.58569 2.04064-.89574 3.15504-.89541zm0-4c1.8574-.0004 3.6781.51647 5.2582 1.49267 1.5801.97621 2.8571 2.37317 3.6878 4.03433l-1.789.895c-.6645-1.32903-1.6862-2.44671-2.9503-3.22775s-2.7207-1.19457-4.2067-1.19425c-1.4859-.00032-2.94256.41321-4.20667 1.19425s-2.28571 1.89872-2.9503 3.22775l-1.79-.895c.83086-1.66131 2.10801-3.05838 3.68829-4.03459 1.58028-.97622 3.40118-1.493 5.25868-1.49241z" /></svg>