<svg fill="currentColor" height="24" viewBox="0 0 24 24" width="24" xmlns="http://www.w3.org/2000/svg"><path d="m8 20v1.932c.00015.095-.02681.1882-.07773.2685-.05093.0803-.12369.1444-.20977.1849-.08608.0404-.18189.0554-.27621.0433s-.18322-.0509-.25629-.1117l-4.12-3.433c-.07902-.0659-.13579-.1546-.16256-.254-.02677-.0993-.02224-.2045.01298-.3012.03521-.0967.0994-.1801.18379-.239.0844-.0588.1849-.0902.28779-.0898h14.618c.5304 0 1.0391-.2108 1.4142-.5858.3751-.3751.5858-.8838.5858-1.4142v-8.00005h2v8.00005c0 1.0608-.4214 2.0782-1.1716 2.8284-.7501.7501-1.7675 1.1716-2.8284 1.1716zm8-16.00005v-1.932c-.0002-.09509.0268-.18825.0777-.26856.051-.08031.1237-.14443.2098-.18485.0861-.04041.1819-.05544.2762-.04333.0943.01212.1832.05088.2563.11174l4.12 3.433c.079.06584.1357.15442.1625.25368.0268.09925.0223.20435-.0127.30098-.0351.09663-.0992.1801-.1834.23903-.0842.05894-.1846.09047-.2874.09031h-14.619c-.53043 0-1.03914.21072-1.41421.58579-.37508.37507-.58579.88378-.58579 1.41421v8.00005h-2v-8.00005c0-1.06086.42143-2.07828 1.17157-2.82843.75015-.75014 1.76756-1.17157 2.82843-1.17157z" /></svg>