<svg fill="currentColor" height="24" viewBox="0 0 24 24" width="24" xmlns="http://www.w3.org/2000/svg"><path d="m12 22c-5.523 0-10-4.477-10-10s4.477-10 10-10 10 4.477 10 10-4.477 10-10 10zm4.82-4.924c1.2744-1.2126 2.0455-2.8606 2.1599-4.616s-.4363-3.48947-1.5426-4.85721c-1.1062-1.36774-2.6869-2.26882-4.4274-2.52394s-3.51327.15443-4.96551 1.14716c-1.45223.99272-2.47746 2.49583-2.87165 4.21019-.3942 1.7144-.12847 3.5144.74432 5.0417.87278 1.5273 2.28862 2.67 3.96577 3.2008 1.67717.5307 3.49267.4105 5.08517-.3367l-.975-1.755c-.9871.429-2.0863.5281-3.1342.2824-1.04792-.2457-1.98858-.8229-2.68217-1.6459-.6936-.8231-1.1031-1.8479-1.16763-2.9223-.06454-1.0744.21933-2.1409.80942-3.04106.59008-.90013 1.45487-1.58583 2.46588-1.95517 1.0109-.36933 2.1141-.40259 3.1454-.09482 1.0314.30777 1.9359.94013 2.5792 1.80309.6432.86296.9908 1.91046.9911 2.98676h-3z" /></svg>