<svg fill="currentColor" height="24" viewBox="0 0 24 24" width="24" xmlns="http://www.w3.org/2000/svg"><path d="m18.537 19.567c-1.8146 1.5723-4.136 2.4363-6.537 2.433-5.523 0-10-4.477-10-10s4.477-10 10-10 10 4.477 10 10c0 2.136-.67 4.116-1.81 5.74l-3.19-5.74h3c-.0002-1.8438-.6372-3.63094-1.8033-5.05911-1.1662-1.42817-2.7898-2.4097-4.5964-2.77853-1.8065-.36884-3.68497-.10234-5.31762.75441-1.63266.85674-2.91926 2.25114-3.64216 3.94731-.7229 1.69622-.83771 3.59002-.32503 5.36102.51269 1.7711 1.6214 3.3107 3.13859 4.3585 1.51719 1.0477 3.34972 1.5392 5.18752 1.3913 1.8379-.1479 3.5683-.9261 4.8984-2.2029z" /></svg>