<svg fill="currentColor" height="24" viewBox="0 0 24 24" width="24" xmlns="http://www.w3.org/2000/svg"><path d="m14.268 12.146-.8541.854 7.0711 7.071-1.4141 1.414-7.0709-7.07-7.07105 7.07-1.414-1.414 9.33905-9.339c-.588-1.457.02-3.555 1.62-5.157 1.953-1.952 4.644-2.427 6.011-1.06s.8919 4.058-1.0601 6.01c-1.602 1.602-3.6999 2.21-5.1569 1.621zm-10.04605-8.338 6.71705 6.717-2.82805 2.829-3.89-3.89c-.74988-.75011-1.17115-1.76734-1.17115-2.828s.42127-2.07789 1.17115-2.828zm13.78805 5.302c1.258-1.257 1.5169-2.726 1.0609-3.182s-1.9249-.197-3.1819 1.06c-1.257 1.258-1.516 2.727-1.06 3.183.455.455 1.924.196 3.181-1.061z" /></svg>