<svg fill="currentColor" height="24" viewBox="0 0 24 24" width="24" xmlns="http://www.w3.org/2000/svg"><path d="m12 10.6669 9.223-6.14895c.0753-.05011.1627-.07885.2531-.08317.0903-.00433.1801.01594.2599.05863.0797.04268.1464.1062.1929.18378s.071.16631.0711.25676v14.13195c-.0001.0905-.0246.1792-.0711.2568s-.1132.1411-.1929.1838c-.0798.0427-.1696.0629-.2599.0586-.0904-.0043-.1778-.033-.2531-.0832l-9.223-6.149v5.733c-.0001.0905-.0246.1792-.0711.2568s-.1132.1411-.1929.1838c-.0798.0427-.1696.0629-.2599.0586-.0904-.0043-.1778-.033-.2531-.0832l-10.599021-7.066c-.068478-.0456-.124626-.1075-.16346-.18-.038833-.0726-.059152-.1536-.059152-.236 0-.0823.020319-.1633.059152-.2359.038834-.0725.094982-.1344.16346-.1801l10.599021-7.06595c.0753-.05011.1627-.07885.2531-.08317.0903-.00433.1801.01594.2599.05863.0797.04268.1464.1062.1929.18378s.071.16631.0711.25676z" /></svg>