<svg fill="currentColor" height="24" viewBox="0 0 24 24" width="24" xmlns="http://www.w3.org/2000/svg"><path d="m9.00014 9.86-3.032 2.14 3.032 2.14zm1.90796 7.463c-.0764.1081-.1927.1814-.3232.2039-.1304.0225-.2645-.0077-.3728-.0839l-7.13296-5.035c-.06521-.0462-.1184-.1074-.15511-.1783-.03671-.071-.05587-.1498-.05587-.2297s.01916-.1587.05587-.2297.0899-.1321.15511-.1783l7.13296-5.036c.0749-.05278.1629-.08396.2543-.09014s.1828.01287.2641.05508.1495.10594.197.18426c.0476.07831.0727.16818.0726.2598v10.07c-.0002.1032-.0323.2038-.092.288zm7.092-3.183v-4.28l-3.032 2.14zm-5.921-1.732c-.0652-.0462-.1184-.1074-.1551-.1783-.0367-.071-.0558-.1498-.0558-.2297s.0191-.1587.0558-.2297.0899-.1321.1551-.1783l7.133-5.036c.0749-.05278.1629-.08396.2543-.09014s.1828.01287.2641.05508.1495.10594.197.18426c.0476.07831.0727.16818.0726.2598v10.07c.0001.0916-.025.1815-.0726.2598-.0475.0783-.1157.142-.197.1843-.0813.0422-.1727.0612-.2641.055-.0914-.0061-.1794-.0373-.2543-.0901z" /></svg>