<svg fill="currentColor" height="24" viewBox="0 0 24 24" width="24" xmlns="http://www.w3.org/2000/svg"><path d="m11.0001 17.035c.0001.0916-.025.1815-.0726.2598-.0475.0783-.1157.142-.197.1843-.0813.0422-.1727.0612-.2641.055-.0914-.0061-.1794-.0373-.2543-.0901l-7.13296-5.036c-.06521-.0462-.1184-.1074-.15511-.1783-.03671-.071-.05587-.1498-.05587-.2297s.01916-.1587.05587-.2297.0899-.1321.15511-.1783l7.13296-5.036c.0749-.05278.1629-.08396.2543-.09014s.1828.01287.2641.05508.1495.10594.197.18426c.0476.07831.0727.16818.0726.2598zm1.079-4.627c-.0652-.0462-.1184-.1074-.1551-.1783-.0367-.071-.0558-.1498-.0558-.2297s.0191-.1587.0558-.2297.0899-.1321.1551-.1783l7.133-5.036c.0749-.05278.1629-.08396.2543-.09014s.1828.01287.2641.05508.1495.10594.197.18426c.0476.07831.0727.16818.0726.2598v10.07c.0001.0916-.025.1815-.0726.2598-.0475.0783-.1157.142-.197.1843-.0813.0422-.1727.0612-.2641.055-.0914-.0061-.1794-.0373-.2543-.0901z" /></svg>