<svg fill="currentColor" height="24" viewBox="0 0 24 24" width="24" xmlns="http://www.w3.org/2000/svg"><path d="m5.5 21c-.59095 0-1.17611-.1164-1.72208-.3425-.54596-.2262-1.04204-.5577-1.4599-.9755-.41786-.4179-.74933-.914-.97548-1.4599-.22614-.546-.34254-1.1312-.34254-1.7221s.1164-1.1761.34254-1.7221c.22615-.5459.55762-1.042.97548-1.4599.41786-.4178.91394-.7493 1.4599-.9755.54597-.2261 1.13113-.3425 1.72208-.3425 1.19347 0 2.33807.4741 3.18198 1.318s1.31802 1.9885 1.31802 3.182-.47411 2.3381-1.31802 3.182-1.98851 1.318-3.18198 1.318zm0-3c.39782 0 .77936-.158 1.06066-.4393s.43934-.6629.43934-1.0607-.15804-.7794-.43934-1.0607-.66284-.4393-1.06066-.4393-.77936.158-1.06066.4393-.43934.6629-.43934 1.0607.15804.7794.43934 1.0607.66284.4393 1.06066.4393zm13 3c-.5909 0-1.1761-.1164-1.7221-.3425-.5459-.2262-1.042-.5577-1.4599-.9755-.4178-.4179-.7493-.914-.9755-1.4599-.2261-.546-.3425-1.1312-.3425-1.7221s.1164-1.1761.3425-1.7221c.2262-.5459.5577-1.042.9755-1.4599.4179-.4178.914-.7493 1.4599-.9755.546-.2261 1.1312-.3425 1.7221-.3425 1.1935 0 2.3381.4741 3.182 1.318s1.318 1.9885 1.318 3.182-.4741 2.3381-1.318 3.182-1.9885 1.318-3.182 1.318zm0-3c.3978 0 .7794-.158 1.0607-.4393s.4393-.6629.4393-1.0607-.158-.7794-.4393-1.0607-.6629-.4393-1.0607-.4393-.7794.158-1.0607.4393-.4393.6629-.4393 1.0607.158.7794.4393 1.0607.6629.4393 1.0607.4393zm-6.969-8.203 1.469 2.203v6h-2v-5l-2.719-2.266c-.24196-.1663-.44434-.3838-.59278-.6371-.14845-.25327-.2393-.53614-.26612-.82849-.02682-.29236.01105-.58704.11093-.86311.09987-.27607.2593-.52677.46697-.7343l2.828-2.828c.1857-.1858.4062-.33319.6489-.43375s.5029-.15232.7656-.15232.5228.05176.7656.15232c.2427.10056.4632.24795.6489.43375l1.414 1.414c1.059 1.06282 2.4328 1.75548 3.917 1.975l-.01 2.015c-2.0138-.2318-3.8896-1.13958-5.321-2.575l-2.127 2.125zm4.469-4.797c-.5304 0-1.0391-.21071-1.4142-.58579-.3751-.37507-.5858-.88378-.5858-1.41421s.2107-1.03914.5858-1.41421c.3751-.37508.8838-.58579 1.4142-.58579s1.0391.21071 1.4142.58579c.3751.37507.5858.88378.5858 1.41421s-.2107 1.03914-.5858 1.41421c-.3751.37508-.8838.58579-1.4142.58579z" /></svg>