<svg fill="currentColor" height="24" viewBox="0 0 24 24" width="24" xmlns="http://www.w3.org/2000/svg"><path d="m22 13.5v7.5c0 .2652-.1054.5196-.2929.7071s-.4419.2929-.7071.2929h-1c-.2652 0-.5196-.1054-.7071-.2929s-.2929-.4419-.2929-.7071v-1h-14v1c0 .2652-.10536.5196-.29289.7071-.18754.1875-.44189.2929-.70711.2929h-1c-.26522 0-.51957-.1054-.70711-.2929-.18753-.1875-.29289-.4419-.29289-.7071v-7.5l-1.243-.31c-.216247-.0542-.408191-.179-.545345-.3548-.1371528-.1757-.21164914-.3923-.211655-.6152v-.72c0-.1326.0526784-.2598.146447-.3536.093768-.0937.220945-.1464.353553-.1464h1.875l2.138-5.702c.14293-.38131.39886-.7099.73356-.94185s.73222-.3562 1.13944-.35615h11.228c.4072-.00005.8047.1242 1.1394.35615s.5907.56054.7336.94185l2.138 5.702h1.875c.1326 0 .2598.0527.3536.1464.0937.0938.1464.221.1464.3536v.72c0 .2229-.0745.4395-.2117.6152-.1371.1758-.3291.3006-.5453.3548zm-18 1.5v2c0 .2652.10536.5196.29289.7071.18754.1875.44189.2929.70711.2929h3.245c.08634-.0001.17118-.0226.24625-.0653.07506-.0427.1378-.104.18211-.1781.0443-.0741.06866-.1585.0707-.2448s-.01831-.1717-.05906-.2478c-.805-1.51-2.367-2.264-4.685-2.264zm16 0c-2.317 0-3.879.755-4.686 2.264-.0408.0762-.0611.1617-.0591.2481.0021.0864.0266.1708.071.2449s.1073.1355.1825.1781.1602.0649.2466.0649h3.245c.2652 0 .5196-.1054.7071-.2929s.2929-.4419.2929-.7071zm-14-9-1.561 4.684c-.05004.1503-.06369.3102-.03981.4668.02389.1566.08461.3052.17717.4337.09257.1285.21433.2332.35526.3054.14094.0722.29701.11.45538.1101h13.226c.1584-.0001.3144-.0379.4554-.1101.1409-.0722.2627-.1769.3552-.3054.0926-.1285.1533-.2771.1772-.4337s.0102-.3165-.0398-.4668l-1.561-4.684z" /></svg>