<svg fill="currentColor" height="24" viewBox="0 0 24 24" width="24" xmlns="http://www.w3.org/2000/svg"><path d="m19 20h-14v1c0 .2652-.10536.5196-.29289.7071-.18754.1875-.44189.2929-.70711.2929h-1c-.26522 0-.51957-.1054-.70711-.2929-.18753-.1875-.29289-.4419-.29289-.7071v-7.5l-1.243-.31c-.216247-.0542-.408191-.179-.545345-.3548-.1371528-.1757-.21164914-.3923-.211655-.6152v-.72c0-.1326.0526784-.2598.146447-.3536.093768-.0937.220945-.1464.353553-.1464h1.5l2.48-5.788c.15432-.36.41096-.66676.73805-.88222.3271-.21546.71027-.33013 1.10195-.32978h11.36c.3913.00004.7741.1149 1.1008.33033.3267.21544.583.52198.7372.88167l2.482 5.788h1.5c.1326 0 .2598.0527.3536.1464.0937.0938.1464.221.1464.3536v.72c0 .2229-.0745.4395-.2117.6152-.1371.1758-.3291.3006-.5453.3548l-1.243.31v7.5c0 .2652-.1054.5196-.2929.7071s-.4419.2929-.7071.2929h-1c-.2652 0-.5196-.1054-.7071-.2929s-.2929-.4419-.2929-.7071zm1-2v-5h-16v5zm-14.523-7h13.046c.1633-.0001.3241-.0402.4684-.1168s.2675-.1874.3591-.3227c.0915-.1352.1486-.2908.1661-.4532.0175-.16242-.005-.32663-.0656-.4783l-1.451-3.629h-12l-1.451 3.629c-.0606.15167-.08312.31588-.0656.4783.01752.1624.07455.318.16611.4532.09155.1353.21484.2461.35909.3227s.30507.1167.4684.1168zm-.477 3c2.317 0 3.879.755 4.686 2.264.04079.0762.06114.1617.05906.2481-.00209.0864-.02654.1708-.07096.2449s-.1073.1355-.18251.1781c-.0752.0426-.16016.0649-.24659.0649h-3.245c-.26522 0-.51957-.1054-.70711-.2929-.18753-.1875-.29289-.4419-.29289-.7071zm14 0v2c0 .2652-.1054.5196-.2929.7071s-.4419.2929-.7071.2929h-3.245c-.0863-.0001-.1712-.0226-.2462-.0653-.0751-.0427-.1379-.104-.1822-.1781s-.0686-.1585-.0707-.2448c-.002-.0863.0183-.1717.0591-.2478.805-1.51 2.367-2.264 4.685-2.264z" /></svg>