<svg fill="currentColor" height="24" viewBox="0 0 24 24" width="24" xmlns="http://www.w3.org/2000/svg"><path d="m4 6.14301v12.82399l5.065-2.17 6 3 4.935-2.117v-12.82299l1.303-.558c.0761-.03261.1591-.04583.2415-.03845.0825.00737.1618.0351.2309.0807s.1258.10764.165.18055c.0392.07292.0597.15442.0596.2372v14.24099l-7 3-6-3-6.303 2.701c-.07609.0326-.15908.0458-.24153.0385-.08246-.0074-.16179-.0351-.23088-.0807s-.12578-.1077-.16498-.1806-.05968-.1544-.05961-.2372v-14.24099zm12.243 5.09999-4.243 4.242-4.243-4.242c-.83901-.8391-1.41036-1.90824-1.64179-3.0721s-.11255-2.37021.34161-3.4665c.45416-1.0963 1.22319-2.03331 2.20986-2.69256.98668-.65924 2.14672-1.01111 3.33332-1.01111s2.3466.35187 3.3333 1.01111c.9867.65925 1.7557 1.59626 2.2099 2.69256.4541 1.09629.573 2.30264.3416 3.4665s-.8028 2.233-1.6418 3.0721zm-4.243 1.414 2.828-2.82899c.5595-.55936.9406-1.27209 1.0951-2.04804.1544-.77596.0752-1.58029-.2275-2.31127-.3027-.73097-.8154-1.35576-1.4732-1.79533-.6578-.43958-1.4312-.67421-2.2224-.67421s-1.5646.23463-2.22241.67421c-.65782.43957-1.17051 1.06436-1.47322 1.79533-.30272.73098-.38186 1.53531-.22742 2.31127.15444.77595.53552 1.48868 1.09505 2.04804z" /></svg>