<svg fill="currentColor" height="24" viewBox="0 0 24 24" width="24" xmlns="http://www.w3.org/2000/svg"><path d="m16.95 11.9501c.8471-.8464 1.4628-1.8961 1.7881-3.04851.3253-1.15245.3494-2.36911.0699-3.53352l2.495-1.07c.0761-.03262.1591-.04583.2415-.03846.0825.00737.1618.0351.2309.0807s.1258.10764.165.18056c.0392.07291.0597.15441.0596.2372v14.24203l-7 3-6-3-6.303 2.701c-.07609.0326-.15908.0458-.24153.0384-.08246-.0073-.16179-.0351-.23088-.0807s-.12578-.1076-.16498-.1805-.05968-.1545-.05961-.2372v-14.24103l3.129-1.341c-.22016 1.12558-.16009 2.28803.17491 3.38492.33499 1.09691.93464 2.09451 1.74609 2.90511l4.95 4.951zm-1.414-1.414-3.536 3.534-3.536-3.535c-.69913-.69935-1.1752-1.59026-1.36802-2.56013s-.09373-1.97514.28475-2.88869c.37848-.91356 1.01934-1.69437 1.84156-2.24372.82221-.54935 1.78881-.84256 2.77771-.84256s1.9555.29321 2.7777.84256 1.4631 1.33016 1.8416 2.24372c.3784.91355.4775 1.91882.2847 2.88869s-.6689 1.86078-1.368 2.56013z" /></svg>