<svg fill="currentColor" height="24" viewBox="0 0 24 24" width="24" xmlns="http://www.w3.org/2000/svg"><path d="m5.32972 15.9291c-.22014-.9607-.33084-1.9433-.33-2.929 0-5.08798 2.903-9.43598 6.99998-11.18198 4.097 1.746 7 6.094 7 11.18198 0 1.01-.114 1.991-.33 2.929l2.02 1.796c.087.0773.1442.1826.1619.2976s-.0052.2325-.0649.3324l-2.458 4.096c-.0391.0651-.0925.1204-.1562.1618-.0637.0413-.136.0676-.2114.0769-.0753.0092-.1518.0012-.2236-.0235-.0718-.0248-.1371-.0655-.1908-.1192l-2.254-2.254c-.1875-.1875-.4418-.2929-.707-.293h-5.17198c-.26519.0001-.5195.1055-.707.293l-2.254 2.254c-.0537.0537-.11893.0944-.19074.1192-.0718.0247-.14829.0327-.22366.0235-.07537-.0093-.14765-.0356-.21134-.0769-.06369-.0414-.11713-.0967-.15626-.1618l-2.458-4.095c-.05992-.1-.08302-.2178-.06531-.333s.07512-.2206.16231-.298zm6.66998-2.929c.5305 0 1.0392-.2107 1.4142-.5858.3751-.375.5858-.8838.5858-1.4142s-.2107-1.03913-.5858-1.4142c-.375-.37507-.8837-.58578-1.4142-.58578-.5304 0-1.0391.21071-1.4142.58578s-.58578.8838-.58578 1.4142.21068 1.0392.58578 1.4142c.3751.3751.8838.5858 1.4142.5858z" /></svg>