<svg fill="currentColor" height="24" viewBox="0 0 24 24" width="24" xmlns="http://www.w3.org/2000/svg"><path d="m8.498 20.0001h7.004c-.6616 1.5823-1.9197 2.8404-3.502 3.502-1.5823-.6616-2.84044-1.9197-3.502-3.502zm9.502-5.195 2 2.268v1.927h-16v-1.927l2-2.268v-5.80502c0-3.483 2.504-6.447 6-7.545 3.496 1.098 6 4.062 6 7.545zm-6-3.805c.5304 0 1.0391-.2107 1.4142-.5858s.5858-.88379.5858-1.41422-.2107-1.03914-.5858-1.41422c-.3751-.37507-.8838-.58578-1.4142-.58578s-1.0391.21071-1.4142.58578c-.3751.37508-.5858.88379-.5858 1.41422s.2107 1.03912.5858 1.41422.8838.5858 1.4142.5858z" /></svg>