<svg fill="currentColor" height="24" viewBox="0 0 24 24" width="24" xmlns="http://www.w3.org/2000/svg"><path d="m5.00032 13.0001c0-5.08798 2.903-9.43598 6.99998-11.18198 4.097 1.746 7 6.094 7 11.18198 0 .823-.076 1.626-.22 2.403l1.94 1.832c.0802.0759.133.1763.1502.2853.0172.1091-.0022.2208-.0552.3177l-2.495 4.575c-.0372.0683-.0898.127-.1537.1714s-.1372.0733-.2142.0843c-.077.0111-.1555.0041-.2293-.0205s-.1408-.0661-.1958-.1212l-2.234-2.234c-.1875-.1875-.4418-.2929-.707-.293h-5.17198c-.2652.0001-.51951.1055-.707.293l-2.234 2.234c-.05495.0551-.12198.0966-.19577.1212s-.15231.0316-.2293.0205c-.07699-.011-.15034-.0399-.21422-.0843-.06387-.0444-.1165-.1031-.15371-.1714l-2.495-4.575c-.05298-.0969-.07239-.2086-.0552-.3177.01718-.109.07-.2094.1502-.2853l1.94-1.832c-.143-.777-.22-1.58-.22-2.403zm1.476 6.696.817-.817c.56248-.5626 1.32541-.8788 2.121-.879h5.17198c.7956.0002 1.5585.3164 2.121.879l.817.817.982-1.8-1.1-1.04c-.2431-.2296-.4248-.5165-.5284-.8344-.1036-.318-.1258-.6568-.0646-.9856.124-.664.187-1.345.187-2.036 0-3.86998-1.995-7.29998-5-8.95998-3.00498 1.66-4.99998 5.09-4.99998 8.95998 0 .691.063 1.372.187 2.037.06119.3288.03897.6676-.06463.9856-.10359.3179-.28526.6048-.52837.8344l-1.1 1.039zm5.52398-6.696c-.5304 0-1.0391-.2107-1.4142-.5858-.3751-.375-.5858-.8838-.5858-1.4142s.2107-1.03913.5858-1.4142.8838-.58578 1.4142-.58578c.5305 0 1.0392.21071 1.4142.58578.3751.37507.5858.8838.5858 1.4142s-.2107 1.0392-.5858 1.4142c-.375.3751-.8837.5858-1.4142.5858z" /></svg>