<svg fill="currentColor" height="24" viewBox="0 0 24 24" width="24" xmlns="http://www.w3.org/2000/svg"><path d="m12 2c5.523 0 10 4.477 10 10 0 2.136-.67 4.116-1.811 5.741l-3.189-5.741h3c-.0002-1.8438-.6372-3.63094-1.8033-5.05911-1.1662-1.42817-2.7898-2.4097-4.5964-2.77853-1.8065-.36884-3.68497-.10234-5.31762.75441-1.63266.85674-2.91926 2.25114-3.64216 3.94731-.7229 1.69622-.83771 3.59002-.32503 5.36102.51269 1.7711 1.6214 3.3107 3.13859 4.3585 1.51719 1.0477 3.34972 1.5392 5.18752 1.3913 1.8379-.1479 3.5683-.9261 4.8984-2.2029l.998 1.795c-1.8148 1.5726-4.1366 2.4366-6.538 2.433-5.523 0-10-4.477-10-10s4.477-10 10-10zm0 5c.7956 0 1.5587.31607 2.1213.87868s.8787 1.32567.8787 2.12132v1h1v5h-8v-5h1v-1c0-.79565.31607-1.55871.87868-2.12132.56262-.56261 1.32572-.87868 2.12132-.87868zm0 2c-.2449.00003-.4813.08996-.6644.25272-.183.16275-.2999.38703-.3286.63028l-.007.117v1h2v-1c0-.24493-.09-.48134-.2527-.66437-.1628-.18304-.387-.29997-.6303-.32863z" /></svg>