<svg fill="currentColor" height="24" viewBox="0 0 24 24" width="24" xmlns="http://www.w3.org/2000/svg"><path d="m10.9998 14v-3h2v3h5c.2652 0 .5195.1054.7071.2929.1875.1875.2929.4419.2929.7071v6c0 .2652-.1054.5196-.2929.7071-.1876.1875-.4419.2929-.7071.2929h-12.00003c-.26522 0-.51957-.1054-.70711-.2929s-.29289-.4419-.29289-.7071v-6c0-.2652.10535-.5196.29289-.7071s.44189-.2929.70711-.2929zm-8.49003-5.163c1.325-3.973 5.074-6.837 9.49003-6.837 4.416 0 8.166 2.864 9.49 6.837l-1.898.632c-.5313-1.59327-1.5504-2.979-2.913-3.96095s-2.9995-1.51034-4.679-1.51034c-1.6796 0-3.31651.52839-4.67907 1.51034s-2.38166 2.36768-2.91296 3.96095l-1.897-.632zm3.796 1.265c.39885-1.19459 1.16332-2.23347 2.18519-2.96961 1.02188-.73614 2.24944-1.13224 3.50884-1.13224s2.4869.3961 3.5088 1.13224c1.0218.73614 1.7863 1.77502 2.1852 2.96961l-1.898.633c-.2659-.79639-.7756-1.48898-1.4568-1.97974-.6813-.49076-1.4996-.75483-2.3392-.75483s-1.658.26407-2.33924.75483c-.68125.49076-1.19089 1.18335-1.45679 1.97974z" /></svg>