<svg fill="currentColor" height="24" viewBox="0 0 24 24" width="24" xmlns="http://www.w3.org/2000/svg"><path d="m4 15v-6.5c0-1.19347.47411-2.33807 1.31802-3.18198s1.98851-1.31802 3.18198-1.31802 2.3381.47411 3.182 1.31802 1.318 1.98851 1.318 3.18198v7c0 .663.2634 1.2989.7322 1.7678.4689.4688 1.1048.7322 1.7678.7322s1.2989-.2634 1.7678-.7322c.4688-.4689.7322-1.1048.7322-1.7678v-6.67c-.6675-.23591-1.2301-.7002-1.5884-1.31081-.3582-.61061-.4891-1.32821-.3694-2.02598.1197-.69776.4822-1.33075 1.0234-1.78708.5413-.45633 1.2264-.70662 1.9344-.70662s1.3931.25029 1.9344.70662c.5412.45633.9037 1.08932 1.0234 1.78708.1197.69777-.0112 1.41537-.3694 2.02598-.3583.61061-.9209 1.0749-1.5884 1.31081v6.67c0 1.1935-.4741 2.3381-1.318 3.182s-1.9885 1.318-3.182 1.318-2.3381-.4741-3.182-1.318-1.318-1.9885-1.318-3.182v-7c0-.66304-.2634-1.29893-.7322-1.76777-.46887-.46884-1.10476-.73223-1.7678-.73223s-1.29893.26339-1.76777.73223-.73223 1.10473-.73223 1.76777v6.5h3l-4 5-4-5zm15-8c.2652 0 .5196-.10536.7071-.29289.1875-.18754.2929-.44189.2929-.70711s-.1054-.51957-.2929-.70711c-.1875-.18753-.4419-.29289-.7071-.29289s-.5196.10536-.7071.29289c-.1875.18754-.2929.44189-.2929.70711s.1054.51957.2929.70711c.1875.18753.4419.29289.7071.29289z" /></svg>