<svg fill="currentColor" height="24" viewBox="0 0 24 24" width="24" xmlns="http://www.w3.org/2000/svg"><path d="m17 19h2v-5h-9v-9h-5v2h2v2h-2v2h3v2h-3v2h2v2h-2v2h2v-2h2v2h2v-3h2v3h2v-2h2zm-5-7h8c.2652 0 .5196.1054.7071.2929s.2929.4419.2929.7071v7c0 .2652-.1054.5196-.2929.7071s-.4419.2929-.7071.2929h-16c-.26522 0-.51957-.1054-.70711-.2929-.18753-.1875-.29289-.4419-.29289-.7071v-16c0-.26522.10536-.51957.29289-.70711.18754-.18753.44189-.29289.70711-.29289h7c.2652 0 .5196.10536.7071.29289.1875.18754.2929.44189.2929.70711z" /></svg>