<svg fill="currentColor" height="24" viewBox="0 0 24 24" width="24" xmlns="http://www.w3.org/2000/svg"><path d="m4.92937 13.207 2.121 2.121 1.414-1.414-2.12-2.121 2.12-2.121 2.82903 2.828 1.414-1.414-2.82703-2.829 2.12003-2.121 2.121 2.121 1.415-1.414-2.122-2.121 2.829-2.829c.1875-.18747.4418-.29279.707-.29279.2651 0 .5194.10532.707.29279l4.95 4.95c.1874.18753.2928.44183.2928.707 0 .26516-.1054.51947-.2928.707l-14.85003 14.85c-.18753.1875-.44183.2928-.707.2928-.26516 0-.51947-.1053-.707-.2928l-4.95-4.95c-.18747-.1875-.29278-.4418-.29278-.707s.10531-.5195.29278-.707z" /></svg>