<svg fill="currentColor" height="24" viewBox="0 0 24 24" width="24" xmlns="http://www.w3.org/2000/svg"><path d="m15 21h-2v-3h-2v3h-2v-2h-2v2h-3c-.26522 0-.51957-.1054-.70711-.2929-.18753-.1875-.29289-.4419-.29289-.7071v-3h2v-2h-2v-2h3v-2h-3v-2h2v-2h-2v-3c0-.26522.10536-.51957.29289-.70711.18754-.18753.44189-.29289.70711-.29289h6c.2652 0 .5196.10536.7071.29289.1875.18754.2929.44189.2929.70711v9h9c.2652 0 .5196.1054.7071.2929s.2929.4419.2929.7071v6c0 .2652-.1054.5196-.2929.7071s-.4419.2929-.7071.2929h-3v-2h-2z" /></svg>