<svg fill="currentColor" height="24" viewBox="0 0 24 24" width="24" xmlns="http://www.w3.org/2000/svg"><path d="m9.83037 8.79-1.83.666v3.544h-1.99999v-4.95h.01499l5.26803-1.918c.244-.093.51-.14.782-.131.5435.01355 1.0693.19611 1.5042.52228.435.32618.7575.77977.9228 1.29772.186.583.356.977.51 1.182.4654.62062 1.069 1.1242 1.763 1.4709.694.3466 1.4592.5268 2.235.5261v2c-1.0327.0011-2.0528-.2267-2.9869-.6671s-1.7589-1.0825-2.4151-1.8799l-.697 3.956 2.099 1.761v6.83h-2v-5.898l-2.27-1.904-.727 4.127-6.89402-1.215.348-1.97 4.92399.868zm3.67003-3.29c-.5305 0-1.0392-.21071-1.4142-.58579-.3751-.37507-.5858-.88378-.5858-1.41421s.2107-1.03914.5858-1.41421c.375-.37508.8837-.58579 1.4142-.58579.5304 0 1.0391.21071 1.4142.58579.3751.37507.5858.88378.5858 1.41421s-.2107 1.03914-.5858 1.41421c-.3751.37508-.8838.58579-1.4142.58579z" /></svg>