<svg fill="currentColor" height="24" viewBox="0 0 24 24" width="24" xmlns="http://www.w3.org/2000/svg"><path d="m16.7 6.8-6.114 3.786-3.786 6.114-.104-.104-1.415 1.414.708.708 1.414-1.415-.103-.103 6.114-3.785 3.786-6.115.104.104 1.415-1.414-.708-.708-1.414 1.415.104.104zm-4.7 15.2c-5.523 0-10-4.477-10-10s4.477-10 10-10 10 4.477 10 10-4.477 10-10 10zm-.5-19v2h1v-2zm0 16v2h1v-2zm-3.406-15.124.765 1.848.924-.382-.765-1.848zm6.123 14.782.765 1.848.924-.382-.765-1.848zm.765-15.164-.765 1.848.924.382.765-1.848zm-6.122 14.782-.765 1.848.924.382.765-1.848zm12.14-6.776h-2v1h2zm-16 0h-2v1h2zm15.458 3.615-1.835-.794-.397.918 1.835.794zm-14.684-6.354-1.834-.794-.397.918 1.835.794.397-.918zm14.35-.667-1.848.765.382.924 1.848-.765zm-14.782 6.123-1.848.765.382.924 1.848-.765zm13.376 3.793-1.415-1.414-.707.707 1.414 1.415zm-11.314-11.313-1.414-1.415-.708.708 1.415 1.414zm3.908 4.615 3.611-2.235-2.235 3.61z" /></svg>