<svg fill="currentColor" height="24" viewBox="0 0 24 24" width="24" xmlns="http://www.w3.org/2000/svg"><path d="m17.812 6.503-4.398 6.911-6.911 4.398c1.23392 1.1701 2.80964 1.915 4.497 2.126v-1.938h2v1.938c1.424-.1774 2.7737-.7364 3.906-1.618l-1.37-1.37 1.414-1.414 1.37 1.37c.8816-1.1323 1.4406-2.482 1.618-3.906h-1.938v-2h1.938c-.211-1.68736-.9559-3.26308-2.126-4.497zm-.315-.315c-1.2339-1.1701-2.8096-1.91503-4.497-2.126v1.938h-2v-1.938c-1.42405.17738-2.77365.73643-3.906 1.618l1.37 1.37-1.414 1.414-1.37-1.37c-.88157 1.13235-1.44062 2.48195-1.618 3.906h1.938v2h-1.938c.21097 1.6874.9559 3.2631 2.126 4.497l4.398-6.911zm-5.497 15.812c-5.523 0-10-4.477-10-10s4.477-10 10-10 10 4.477 10 10-4.477 10-10 10z" /></svg>