<svg fill="currentColor" height="24" viewBox="0 0 24 24" width="24" xmlns="http://www.w3.org/2000/svg"><path d="m10 20h-4v2h-2v-2h-1c-.26522 0-.51957-.1054-.70711-.2929-.18753-.1875-.29289-.4419-.29289-.7071v-15.00002c0-.26522.10536-.51957.29289-.70711.18754-.18753.44189-.29289.70711-.29289h7v-1.41c0-.07258.0159-.14428.0464-.21013.0305-.06584.075-.12425.1304-.17116s.1203-.0812.1903-.1005c.07-.01929.1433-.02311.2149-.01121l10.582 1.764c.2335.03882.4457.15921.5987.33976.1531.18054.2372.40953.2373.64624v2.153h1v2h-1v7.00002h1v2h-1v2.153c-.0001.2367-.0842.4657-.2373.6462-.153.1806-.3652.301-.5987.3398l-1.164.194v1.667h-2v-1.333l-7.418 1.236c-.0716.0119-.1449.0081-.2149-.0112s-.1349-.0536-.1903-.1005-.0999-.1054-.1304-.1712-.0464-.1375-.0464-.2101zm2-.36 8-1.334v-13.61202l-8-1.333v16.27802zm4.5-5.64c-.828 0-1.5-1.12-1.5-2.5s.672-2.50002 1.5-2.50002 1.5 1.12002 1.5 2.50002-.672 2.5-1.5 2.5z" /></svg>