<svg fill="currentColor" height="24" viewBox="0 0 24 24" width="24" xmlns="http://www.w3.org/2000/svg"><path d="m18 20h-12v2h-2v-2h-1c-.26522 0-.51957-.1054-.70711-.2929-.18753-.1875-.29289-.4419-.29289-.7071v-15c0-.26522.10536-.51957.29289-.70711.18754-.18753.44189-.29289.70711-.29289h18c.2652 0 .5196.10536.7071.29289.1875.18754.2929.44189.2929.70711v15c0 .2652-.1054.5196-.2929.7071s-.4419.2929-.7071.2929h-1v2h-2zm-14-2h16v-13h-16zm9-4.126v3.126h-2v-3.126c-.9405-.2457-1.75939-.8254-2.3038-1.6307s-.7771-1.7812-.65464-2.74552c.12247-.96432.59173-1.85109 1.32016-2.49475.72838-.64366 1.66618-1.00019 2.63828-1.00303.9743-.00096 1.9154.35368 2.6467.99737.7314.64369 1.2026 1.53217 1.3254 2.49868.1227.96645-.1115 1.94455-.6587 2.75065s-1.3698 1.3847-2.3134 1.6273zm-1-1.874c.5304 0 1.0391-.2107 1.4142-.5858s.5858-.8838.5858-1.4142c0-.53043-.2107-1.03914-.5858-1.41421-.3751-.37508-.8838-.58579-1.4142-.58579s-1.0391.21071-1.4142.58579c-.3751.37507-.5858.88378-.5858 1.41421 0 .5304.2107 1.0391.5858 1.4142s.8838.5858 1.4142.5858z" /></svg>