<svg fill="currentColor" height="24" viewBox="0 0 24 24" width="24" xmlns="http://www.w3.org/2000/svg"><path d="m3 17.9999h18c.0929 0 .1839.0259.2629.0747s.1428.1186.1843.2017c.0415.083.0591.176.0508.2685-.0084.0925-.0423.1808-.098.2551l-2.1 2.8c-.0931.1242-.2139.225-.3528.2944-.1388.0694-.292.1056-.4472.1056h-13c-.15524 0-.30836-.0362-.44721-.1056-.13886-.0694-.25964-.1702-.35279-.2944l-2.1-2.8c-.05571-.0743-.08964-.1626-.09798-.2551s.00924-.1855.05077-.2685c.04152-.0831.10536-.1529.18434-.2017.07899-.0488.17001-.0747.26287-.0747zm12-15.57501v12.57501c0 .2652-.1054.5196-.2929.7071s-.4419.2929-.7071.2929h-9.96c-.09408-.0001-.18622-.0268-.26583-.077-.0796-.0501-.14343-.1217-.18417-.2065-.04073-.0848-.05671-.1794-.0461-.2729.01062-.0935.04739-.1821.1061-.2556l10.46-13.07501c.0648-.08071.1529-.13934.2524-.16781s.2054-.02538.303.00885c.0977.03424.1823.09792.2422.18227s.0922.18522.0924.28869z" /></svg>