<svg fill="currentColor" height="24" viewBox="0 0 24 24" width="24" xmlns="http://www.w3.org/2000/svg"><path d="m4 3h13l3.707 3.707c.1876.18749.2929.44181.293.707v12.586c0 .2652-.1054.5196-.2929.7071s-.4419.2929-.7071.2929h-16c-.26522 0-.51957-.1054-.70711-.2929-.18753-.1875-.29289-.4419-.29289-.7071v-16c0-.26522.10536-.51957.29289-.70711.18754-.18753.44189-.29289.70711-.29289zm8 15c.7956 0 1.5587-.3161 2.1213-.8787s.8787-1.3257.8787-2.1213-.3161-1.5587-.8787-2.1213-1.3257-.8787-2.1213-.8787-1.5587.3161-2.12132.8787c-.56261.5626-.87868 1.3257-.87868 2.1213s.31607 1.5587.87868 2.1213c.56262.5626 1.32572.8787 2.12132.8787zm-7-13v4h10v-4z" /></svg>