<svg fill="currentColor" height="24" viewBox="0 0 24 24" width="24" xmlns="http://www.w3.org/2000/svg" xmlns:xlink="http://www.w3.org/1999/xlink"><clipPath id="a"><path d="m0 0h24v24h-24z"/></clipPath><g clip-path="url(#a)"><path d="m18 50.5556h1v-33.1349l-1.828-4.9763h-1.172v10.8889h-9v-10.8889h-2v38.1112h1v-19.0556h12zm-14-43.5556h14l2.707 7.3691c.1876.5104.2929 1.2026.293 1.9246v36.9841c0 .722-.1054 1.4144-.2929 1.9249s-.4419.7973-.7071.7973h-16c-.26522 0-.51957-.2868-.70711-.7973-.18753-.5105-.29289-1.2029-.29289-1.9249v-43.55558c0-.72198.10536-1.41438.29289-1.9249.18754-.51052.44189-.79732.70711-.79732zm4 29.9444v13.6112h8v-13.6112z" /></g></svg>