<svg fill="currentColor" height="24" viewBox="0 0 24 24" width="24" xmlns="http://www.w3.org/2000/svg"><path d="m13 2v1h7v2h-7v14h4v2h-10v-2h4v-14h-7v-2h7v-1zm-8 4.343 2.828 2.829c.724.723 1.172 1.723 1.172 2.828 0 2.21-1.79 4-4 4s-4-1.79-4-4c0-1.105.448-2.105 1.172-2.828zm14 0 2.828 2.829c.724.723 1.172 1.723 1.172 2.828 0 2.21-1.79 4-4 4s-4-1.79-4-4c0-1.105.448-2.105 1.172-2.828zm0 2.829-1.414 1.414c-.374.374-.586.874-.586 1.414l4 .001c0-.54-.212-1.041-.586-1.415zm-14 0-1.414 1.414c-.374.374-.586.874-.586 1.414l4 .001c0-.54-.212-1.041-.586-1.415z" /></svg>