<svg fill="currentColor" height="24" viewBox="0 0 24 24" width="24" xmlns="http://www.w3.org/2000/svg"><path d="m12.9999 2v1.278l5 1.668 3.632-1.21.633 1.896-3.032 1.011 3.096 8.512c-1.092 1.137-2.629 1.845-4.329 1.845-1.701 0-3.237-.708-4.329-1.845l3.094-8.512-3.765-1.256v13.613h4v2h-10v-2h4v-13.613l-3.768 1.256 3.096 8.512c-1.091 1.137-2.628 1.845-4.328 1.845-1.701 0-3.237-.708-4.329-1.845l3.094-8.512-3.03-1.01.633-1.898 3.632 1.21 5-1.667v-1.278zm5 7.103-1.418 3.897h2.835zm-12 0-1.418 3.897h2.835z" /></svg>