<svg fill="currentColor" height="24" viewBox="0 0 24 24" width="24" xmlns="http://www.w3.org/2000/svg"><path d="m5.67101 4.25701 7.74299 7.74299-1.414 1.414-6.31999-6.31999c-1.17781 1.51896-1.76937 3.41119-1.66644 5.33059.10293 1.9193.89345 3.7374 2.22695 5.1217s3.12082 2.2422 5.03498 2.4168c1.9142.1746 3.8272-.3459 5.3891-1.4661s2.6683-2.7653 3.1167-4.6344c.4485-1.8691.209-3.8371-.6746-5.54407-.8836-1.70696-2.3523-3.03874-4.1373-3.75168-1.785-.71295-3.767-.75939-5.5834-.13084l-1.53599-1.536c1.30258-.59475 2.71809-.90172 4.14999-.9 5.523 0 10 4.477 10 9.99999 0 5.523-4.477 10-10 10-5.52299 0-9.99999-4.477-9.99999-10-.00151-1.4822.32717-2.94621.96216-4.28555s1.56034-2.52042 2.70884-3.45744z" /></svg>