<svg fill="currentColor" height="24" viewBox="0 0 24 24" width="24" xmlns="http://www.w3.org/2000/svg"><path d="m4.257 5.67101 2.137 2.137c-1.05983 1.41732-1.54347 3.18349-1.3536 4.94299.18987 1.7596 1.03917 3.3819 2.37696 4.5405 1.3378 1.1585 3.06474 1.7674 4.83344 1.704 1.7686-.0634 3.4475-.7943 4.6989-2.0457s1.9824-2.9304 2.0458-4.699-.5455-3.49563-1.7041-4.83342c-1.1585-1.3378-2.7809-2.1871-4.5404-2.37697s-3.52568.29378-4.943 1.3536l-2.138-2.137c1.78476-1.46302 4.02223-2.26081 6.33-2.257 5.523 0 10 4.477 10 9.99999 0 5.523-4.477 10-10 10s-10-4.477-10-10c0-2.40099.846-4.60499 2.257-6.32899zm3.571 3.572 4.172 4.17099 1.414-1.414-4.171-4.17199c1.0337-.68326 2.2842-.95837 3.5092-.77198 1.225.18638 2.3372.82099 3.1209 1.78077.7836.95978 1.183 2.1764 1.1207 3.4139s-.582 2.4078-1.4581 3.284c-.8762.8761-2.0465 1.3958-3.284 1.4581s-2.45413-.337-3.41391-1.1207c-.95979-.7837-1.59439-1.8959-1.78078-3.1209-.18638-1.2249.08873-2.4755.77199-3.50919z" /></svg>