<svg fill="currentColor" height="24" viewBox="0 0 24 24" width="24" xmlns="http://www.w3.org/2000/svg"><path d="m5.67101 4.25701 7.74299 7.74299-1.414 1.414-3.44599-3.44599c-.44267.75049-.62815 1.62509-.52824 2.49069.0999.8656.47972 1.6749 1.08172 2.3049.60199.63 1.39321 1.0461 2.25341 1.1852s1.7422-.0065 2.5121-.4147c.7699-.4081 1.3854-1.0565 1.753-1.8465s.4672-1.6784.2836-2.5302-.6403-1.62037-1.3006-2.18884c-.6604-.56846-1.4884-.90574-2.358-.96055l-1.805-1.805c1.3642-.36584 2.8138-.23867 4.0935.35913s2.3075 1.62791 2.9024 2.90895c.5949 1.28101.7188 2.73091.3499 4.09431s-1.207 2.553-2.3667 3.3592c-1.1597.8063-2.5667 1.1776-3.9732 1.0486-1.4066-.1291-2.72248-.7502-3.71611-1.7541-.99362-1.0038-1.60125-2.326-1.7159-3.7338s.27102-2.81089 1.08912-3.96229l-1.429-1.429c-1.19252 1.53735-1.78391 3.45659-1.66347 5.39849.12043 1.9419.94444 3.7734 2.31777 5.1516 1.37334 1.3783 3.20187 2.2088 5.14339 2.3361 1.9414.1273 3.8628-.4573 5.4043-1.6443 1.5416-1.1871 2.5978-2.8952 2.9708-4.8048.373-1.9095.0374-3.88958-.9442-5.56951-.9815-1.67994-2.5416-2.94459-4.3882-3.55727-1.8467-.61268-3.8533-.53137-5.64439.22869l-1.502-1.501c1.42772-.74598 3.01509-1.13442 4.62599-1.132 5.523 0 10 4.477 10 9.99999 0 5.523-4.477 10-10 10-5.52299 0-9.99999-4.477-9.99999-10-.00151-1.4822.32717-2.9462.96216-4.28554.63499-1.33935 1.56034-2.52043 2.70884-3.45745z" /></svg>