<svg fill="currentColor" height="24" viewBox="0 0 24 24" width="24" xmlns="http://www.w3.org/2000/svg"><path d="m9.879 12-2.317-2.317c-.85463.3624-1.8087.4163-2.69869.15238-.89-.26389-1.6605-.82912-2.17945-1.5988-.51896-.76968-.75405-1.6959-.665-2.61991.08906-.92402.49672-1.78828 1.15313-2.44469.6564-.6564 1.52067-1.06406 2.44468-1.15312s1.85023.14604 2.61991.66499c.76969.51896 1.33491 1.28946 1.5988 2.17945.26392.89.21002 1.84407-.15238 2.6987l2.317 2.318 6.374-6.375c.1857-.18581.4062-.3332.6489-.43376s.5029-.15232.7656-.15232.5229.05176.7656.15232.4632.24795.6489.43376l.707.707-12.227 12.226c.3624.8546.4163 1.8087.15238 2.6987-.26389.89-.82911 1.6605-1.5988 2.1794-.76968.519-1.6959.7541-2.61991.665-.92401-.089-1.78828-.4967-2.44468-1.1531-.65641-.6564-1.06407-1.5207-1.15313-2.4447-.08905-.924.14604-1.8502.665-2.6199.51895-.7697 1.28945-1.3349 2.17945-1.5988.88999-.2639 1.84406-.21 2.69869.1524l2.318-2.317zm-3.879-4c.53043 0 1.03914-.21072 1.41421-.58579.37508-.37507.58579-.88378.58579-1.41421 0-.53044-.21071-1.03914-.58579-1.41422-.37507-.37507-.88378-.58578-1.41421-.58578s-1.03914.21071-1.41421.58578c-.37508.37508-.58579.88378-.58579 1.41422 0 .53043.21071 1.03914.58579 1.41421.37507.37507.88378.58579 1.41421.58579zm0 12c.53043 0 1.03914-.2107 1.41421-.5858.37508-.3751.58579-.8838.58579-1.4142s-.21071-1.0391-.58579-1.4142c-.37507-.3751-.88378-.5858-1.41421-.5858s-1.03914.2107-1.41421.5858c-.37508.3751-.58579.8838-.58579 1.4142s.21071 1.0391.58579 1.4142c.37507.3751.88378.5858 1.41421.5858zm9.535-6.587 6.375 6.376-.707.707c-.1857.1858-.4062.3332-.6489.4338-.2427.1005-.5029.1523-.7656.1523s-.5229-.0518-.7656-.1523c-.2427-.1006-.4632-.248-.6489-.4338l-4.96-4.961 2.12-2.122zm.465-2.413h2v2h-2zm4 0h2v2h-2zm-14 0h2v2h-2zm-4 0h2v2h-2z" /></svg>