<svg fill="currentColor" height="24" viewBox="0 0 24 24" width="24" xmlns="http://www.w3.org/2000/svg"><path d="m10 6c0 .732-.19699 1.419-.53999 2.01l2.53999 2.575 6.728-6.728c.3751-.37494.8837-.58557 1.414-.58557s1.039.21063 1.414.58557l-12.10999 12.11c.49449.8387.66609 1.8289.48276 2.785-.18337.9562-.70918 1.8127-1.47885 2.4089-.76968.5962-1.73038.8912-2.70203.8298-.97164-.0615-1.88752-.4752-2.57595-1.1636-.68843-.6885-1.10215-1.6043-1.1636-2.576-.06145-.9716.23358-1.9323.8298-2.702.59621-.7697 1.45267-1.2955 2.40883-1.4789.95616-.1833 1.94638-.0117 2.78504.4828l2.55399-2.553-2.55399-2.554c-.75981.44811-1.64642.6325-2.52188.52446-.87546-.10803-1.69066-.50241-2.31873-1.12178-.62808-.61937-1.03381-1.42898-1.15406-2.30284-.12024-.87386.05175-1.76297.4892-2.52895.43745-.76599 1.11583-1.36589 1.92958-1.70636.81374-.34046 1.71721-.4024 2.5698-.17616s1.60649.72796 2.14437 1.42709c.53789.69913.82959 1.55644.82971 2.43854zm-1.99999 0c0-.53043-.21072-1.03914-.58579-1.41421s-.88378-.58579-1.41421-.58579c-.53044 0-1.03915.21072-1.41422.58579s-.58578.88378-.58578 1.41421.21071 1.03914.58578 1.41422c.37507.37507.88378.58578 1.41422.58578.53043 0 1.03914-.21071 1.41421-.58578.37507-.37508.58579-.88379.58579-1.41422zm13.55599 14.142c-.375.3749-.8837.5856-1.414.5856s-1.0389-.2107-1.414-.5856l-5.317-5.316 1.415-1.415zm-5.556-9.142h2v2h-2zm4 0h2v2h-2zm-13.99999 0h2v2h-2zm-4 0h2v2h-2zm4 9c.53043 0 1.03914-.2107 1.41421-.5858s.58579-.8838.58579-1.4142-.21072-1.0391-.58579-1.4142-.88378-.5858-1.41421-.5858c-.53044 0-1.03915.2107-1.41422.5858s-.58578.8838-.58578 1.4142.21071 1.0391.58578 1.4142.88378.5858 1.41422.5858z" /></svg>