<svg fill="currentColor" height="24" viewBox="0 0 24 24" width="24" xmlns="http://www.w3.org/2000/svg"><path d="m9.68259 7.562 2.31701 2.318 6.374-6.375c.1857-.18581.4062-.3332.6489-.43376s.5029-.15232.7656-.15232.5228.05176.7655.15232c.2428.10056.4633.24795.649.43376l.707.707-12.22701 12.226c.36241.8546.41631 1.8087.15239 2.6987-.2639.89-.82912 1.6605-1.5988 2.1794-.76969.519-1.69591.7541-2.61992.665-.92401-.089-1.78828-.4967-2.44468-1.1531s-1.06407-1.5207-1.15312-2.4447c-.08906-.924.14603-1.8502.66499-2.6199.51895-.7697 1.28946-1.3349 2.17945-1.5988s1.84406-.21 2.69869.1524l2.318-2.317-2.318-2.317c-.85463.3624-1.8087.4163-2.69869.15238-.88999-.26389-1.6605-.82912-2.17945-1.5988-.51896-.76968-.75405-1.6959-.66499-2.61991.08905-.92402.49672-1.78828 1.15312-2.44469.6564-.6564 1.52067-1.06406 2.44468-1.15312s1.85023.14604 2.61992.66499c.76968.51896 1.3349 1.28946 1.5988 2.17945.26392.89.21002 1.84407-.15239 2.6987zm-3.683.438c.53044 0 1.03914-.21072 1.41422-.58579.37507-.37507.58578-.88378.58578-1.41421 0-.53044-.21071-1.03914-.58578-1.41422-.37508-.37507-.88378-.58578-1.41422-.58578-.53043 0-1.03914.21071-1.41421.58578-.37507.37508-.58579.88378-.58579 1.41422 0 .53043.21072 1.03914.58579 1.41421s.88378.58579 1.41421.58579zm0 12c.53044 0 1.03914-.2107 1.41422-.5858.37507-.3751.58578-.8838.58578-1.4142s-.21071-1.0391-.58578-1.4142c-.37508-.3751-.88378-.5858-1.41422-.5858-.53043 0-1.03914.2107-1.41421.5858s-.58579.8838-.58579 1.4142.21072 1.0391.58579 1.4142.88378.5858 1.41421.5858zm9.53501-6.587 6.375 6.376-.707.707c-.1857.1858-.4062.3332-.649.4338-.2427.1005-.5028.1523-.7655.1523s-.5229-.0518-.7656-.1523c-.2427-.1006-.4632-.248-.6489-.4338l-4.96-4.961 2.12-2.122z" /></svg>