<svg fill="currentColor" height="24" viewBox="0 0 24 24" width="24" xmlns="http://www.w3.org/2000/svg"><path d="m11.9996 13.414-2.55395 2.554c.49449.8387.66615 1.8289.48276 2.785-.18337.9562-.70918 1.8127-1.47885 2.4089-.76968.5962-1.73038.8912-2.70203.8298-.97164-.0615-1.88752-.4752-2.57595-1.1636-.68843-.6885-1.10215-1.6043-1.1636-2.576-.06145-.9716.23358-1.9323.82979-2.702.59622-.7697 1.45268-1.2955 2.40884-1.4789.95616-.1833 1.94638-.0117 2.78503.4828l2.55396-2.554-6.02095-6.02c-.18596-.18574-.33348-.40632-.43412-.64912-.10065-.24279-.15246-.50305-.15246-.76588s.05181-.52308.15246-.76588c.10064-.2428.24816-.46337.43412-.64912l7.43495 7.437 7.435-7.435c.375.37506.5856.88367.5856 1.414s-.2106 1.03895-.5856 1.414l-6.02 6.02 2.553 2.554c.8387-.4945 1.8289-.6661 2.7851-.4828.9561.1834 1.8126.7092 2.4088 1.4789s.8913 1.7304.8298 2.702c-.0614.9717-.4752 1.8875-1.1636 2.576-.6884.6884-1.6043 1.1021-2.5759 1.1636-.9717.0614-1.9324-.2336-2.7021-.8298-.7696-.5962-1.2954-1.4527-1.4788-2.4089-.1834-.9561-.0117-1.9463.4827-2.785zm-5.99995 6.586c.53043 0 1.03914-.2107 1.41421-.5858s.58579-.8838.58579-1.4142-.21072-1.0391-.58579-1.4142-.88378-.5858-1.41421-.5858c-.53044 0-1.03915.2107-1.41422.5858s-.58578.8838-.58578 1.4142.21071 1.0391.58578 1.4142.88378.5858 1.41422.5858zm11.99995 0c.5305 0 1.0392-.2107 1.4143-.5858.375-.3751.5857-.8838.5857-1.4142s-.2107-1.0391-.5857-1.4142c-.3751-.3751-.8838-.5858-1.4143-.5858-.5304 0-1.0391.2107-1.4142.5858-.375.3751-.5858.8838-.5858 1.4142s.2108 1.0391.5858 1.4142c.3751.3751.8838.5858 1.4142.5858z" /></svg>