<svg fill="currentColor" height="24" viewBox="0 0 24 24" width="24" xmlns="http://www.w3.org/2000/svg"><path d="m11.9996 14.121-2.31701 2.317c.36241.8546.41631 1.8087.15239 2.6987-.2639.89-.82912 1.6605-1.5988 2.1794-.76969.519-1.69591.7541-2.61992.665-.92401-.089-1.78828-.4967-2.44468-1.1531s-1.06407-1.5207-1.15312-2.4447c-.08906-.924.14603-1.8502.66499-2.6199.51895-.7697 1.28946-1.3349 2.17945-1.5988s1.84406-.21 2.69869.1524l2.318-2.317-5.67-5.667c-.1858-.18573-.33319-.40624-.43375-.64895-.10056-.2427-.15232-.50284-.15232-.76555s.05176-.52285.15232-.76556c.10056-.2427.24795-.46322.43375-.64894l.708-.707 7.08201 7.083 7.081-7.082.708.707c.1858.18572.3332.40624.4337.64894.1006.24271.1524.50285.1524.76556s-.0518.52285-.1524.76555c-.1005.2427-.2479.46322-.4337.64895l-5.669 5.666 2.317 2.317c.8546-.3624 1.8087-.4163 2.6987-.1524s1.6605.8291 2.1794 1.5988c.519.7697.7541 1.6959.665 2.6199-.089.924-.4967 1.7883-1.1531 2.4447s-1.5207 1.0641-2.4447 1.1531c-.924.0891-1.8502-.146-2.6199-.665-.7697-.5189-1.3349-1.2894-1.5988-2.1794s-.21-1.8441.1524-2.6987l-2.316-2.318zm-6.00001 5.879c.53044 0 1.03914-.2107 1.41422-.5858.37507-.3751.58578-.8838.58578-1.4142s-.21071-1.0391-.58578-1.4142c-.37508-.3751-.88378-.5858-1.41422-.5858-.53043 0-1.03914.2107-1.41421.5858s-.58579.8838-.58579 1.4142.21072 1.0391.58579 1.4142.88378.5858 1.41421.5858zm12.00001 0c.5304 0 1.0391-.2107 1.4142-.5858s.5858-.8838.5858-1.4142-.2107-1.0391-.5858-1.4142-.8838-.5858-1.4142-.5858-1.0391.2107-1.4142.5858-.5858.8838-.5858 1.4142.2107 1.0391.5858 1.4142.8838.5858 1.4142.5858z" /></svg>