<svg fill="currentColor" height="24" viewBox="0 0 24 24" width="24" xmlns="http://www.w3.org/2000/svg"><path d="m9.44565 8.032 2.55395 2.554 6.728-6.728c.3751-.37494.8837-.58557 1.414-.58557.5304 0 1.039.21063 1.414.58557l-12.10995 12.11c.49449.8387.66615 1.8289.48276 2.785-.18337.9562-.70918 1.8127-1.47885 2.4089-.76968.5962-1.73038.8912-2.70203.8298-.97164-.0615-1.88752-.4752-2.57595-1.1636-.68843-.6885-1.10215-1.6043-1.1636-2.576-.06145-.9716.23358-1.9323.82979-2.702.59622-.7697 1.45268-1.2955 2.40884-1.4789.95616-.1833 1.94638-.0117 2.78503.4828l2.55396-2.554-2.55396-2.554c-.83865.49449-1.82887.6661-2.78503.48277-.95616-.18338-1.81262-.70918-2.40884-1.47886-.59621-.76968-.89124-1.73038-.82979-2.70202.06145-.97165.47517-1.88753 1.1636-2.57596s1.60431-1.10214 2.57595-1.16359c.97165-.06146 1.93235.23358 2.70203.82979.76967.59621 1.29548 1.45267 1.47885 2.40883.18339.95616.01173 1.94638-.48276 2.78504zm5.37995 5.38 6.73 6.73c-.375.3749-.8836.5856-1.414.5856-.5303 0-1.0389-.2107-1.414-.5856l-5.317-5.316 1.415-1.415zm-7.41195 3.174c-.1845-.191-.40519-.3434-.6492-.4482-.244-.1048-.50644-.16-.772-.1623s-.52892.0483-.77471.1489c-.2458.1005-.4691.249-.65688.4368-.18779.1878-.3363.4111-.43686.6569s-.15116.5091-.14886.7747c.00231.2656.05748.528.1623.772s.25718.4647.44821.6492c.3772.3643.8824.5659 1.4068.5613.52439-.0045 1.02602-.2148 1.39683-.5857.37082-.3708.58116-.8724.58571-1.3968.00456-.5244-.19703-1.0296-.56134-1.4068zm0-9.172c.19102-.18449.34338-.40518.4482-.64919s.15999-.50645.1623-.77201c.0023-.26556-.0483-.52892-.14886-.77471s-.24907-.46909-.43685-.65688c-.18779-.18779-.41109-.33629-.65689-.43685-.24579-.10057-.50915-.15117-.77471-.14886s-.528.05748-.772.1623c-.24401.10482-.4647.25718-.64919.4482-.36432.3772-.56591.88241-.56135 1.4068.00455.5244.21489 1.02602.58571 1.39684.37081.37081.87244.58115 1.39683.58571.5244.00455 1.0296-.19703 1.40681-.56135z" /></svg>