<svg fill="currentColor" height="24" viewBox="0 0 24 24" width="24" xmlns="http://www.w3.org/2000/svg"><path d="m3 3h2v2h-2zm4 0h2v2h-2zm4 0h2v2h-2zm4 0h2v2h-2zm4 0h2v2h-2zm0 4h2v2h-2zm-16 12h2v2h-2zm0-4h2v2h-2zm0-4h2v2h-2zm0-4h2v2h-2zm7.667 4 1.036-1.555c.0913-.13692.2151-.24917.3602-.32679.1452-.07763.3072-.11823.4718-.11821h2.93c.1646-.00002.3266.04058.4718.11821.1451.07762.2689.18987.3602.32679l1.036 1.555h2.667c.2652 0 .5196.1054.7071.2929s.2929.4419.2929.7071v8c0 .2652-.1054.5196-.2929.7071s-.4419.2929-.7071.2929h-12c-.26522 0-.51957-.1054-.70711-.2929-.18753-.1875-.29289-.4419-.29289-.7071v-8c0-.2652.10536-.5196.29289-.7071.18754-.1875.44189-.2929.70711-.2929zm3.333 7c.5304 0 1.0391-.2107 1.4142-.5858s.5858-.8838.5858-1.4142-.2107-1.0391-.5858-1.4142-.8838-.5858-1.4142-.5858-1.0391.2107-1.4142.5858-.5858.8838-.5858 1.4142.2107 1.0391.5858 1.4142.8838.5858 1.4142.5858z" /></svg>