<svg fill="currentColor" height="24" viewBox="0 0 24 24" width="24" xmlns="http://www.w3.org/2000/svg"><path d="m11.993 14.407-1.552 1.552c.4969.8373.6713 1.827.4906 2.7837-.1806.9566-.704 1.8146-1.472 2.413-.76798.5984-1.72785.8961-2.69966.8374-.97182-.0587-1.88886-.4698-2.57924-1.1563-.69037-.6865-1.10668-1.6012-1.17088-2.5727-.0642-.9714.22812-1.933.82215-2.7043.59403-.7714 1.449-1.2996 2.40464-1.4857s1.94634-.0172 2.78639.4749l1.555-1.556-4.185-4.185 1.415-1.415 4.185 4.185 4.189-4.189 1.414 1.414-4.19 4.19 1.562 1.56c.8387-.4945 1.8289-.6661 2.785-.4828.9562.1834 1.8127.7092 2.4089 1.4789s.8912 1.7304.8298 2.702c-.0615.9717-.4752 1.8875-1.1636 2.576-.6885.6884-1.6043 1.1021-2.576 1.1636-.9716.0614-1.9323-.2336-2.702-.8298s-1.2955-1.4527-1.4789-2.4089c-.1833-.9561-.0117-1.9463.4828-2.785zm-4.993 5.593c.53043 0 1.03914-.2107 1.41421-.5858.37508-.3751.58579-.8838.58579-1.4142s-.21071-1.0391-.58579-1.4142c-.37507-.3751-.88378-.5858-1.41421-.5858s-1.03914.2107-1.41421.5858c-.37508.3751-.58579.8838-.58579 1.4142s.21071 1.0391.58579 1.4142c.37507.3751.88378.5858 1.41421.5858zm10 0c.5304 0 1.0391-.2107 1.4142-.5858s.5858-.8838.5858-1.4142-.2107-1.0391-.5858-1.4142-.8838-.5858-1.4142-.5858-1.0391.2107-1.4142.5858-.5858.8838-.5858 1.4142.2107 1.0391.5858 1.4142.8838.5858 1.4142.5858zm2-7v-8h-14v8h-2v-9c0-.26522.10536-.51957.29289-.70711.18754-.18753.44189-.29289.70711-.29289h16c.2652 0 .5196.10536.7071.29289.1875.18754.2929.44189.2929.70711v9z" /></svg>