<svg fill="currentColor" height="24" viewBox="0 0 24 24" width="24" xmlns="http://www.w3.org/2000/svg"><path d="m8 4v5.793c-.00014.6618-.26266 1.2965-.73 1.765l-1.27 1.275v7.167h12v-16zm-1-2h12c.2652 0 .5196.10536.7071.29289.1875.18754.2929.44189.2929.70711v18c0 .2652-.1054.5196-.2929.7071s-.4419.2929-.7071.2929h-14c-.26522 0-.51957-.1054-.70711-.2929-.18753-.1875-.29289-.4419-.29289-.7071v-8.58c.00006-.2647.10506-.5186.292-.706l1.562-1.568c.09347-.0937.14597-.22065.146-.353v-6.793c0-.26522.10536-.51957.29289-.70711.18754-.18753.44189-.29289.70711-.29289zm8 3h2v4h-2zm-3 0h2v4h-2zm-3 0h2v4h-2z" /></svg>