<svg fill="currentColor" height="24" viewBox="0 0 24 24" width="24" xmlns="http://www.w3.org/2000/svg"><path d="m18.031 16.617 4.283 4.282-1.415 1.415-4.282-4.283c-1.5933 1.2772-3.575 1.9719-5.617 1.969-4.968 0-9-4.032-9-9s4.032-9 9-9 9 4.032 9 9c.0029 2.042-.6918 4.0237-1.969 5.617zm-5.853-9.44c-.8536-.2628-1.7706-.23234-2.60495.08652-.8343.31886-1.53789.90778-1.99865 1.67292-.46075.76514-.65217 1.66246-.54376 2.54906.10842.8865.51044 1.7113 1.142 2.3429.63156.6315 1.45632 1.0335 2.34286 1.142.8866.1084 1.7839-.083 2.5491-.5438.7651-.4608 1.354-1.1643 1.6729-1.9987.3188-.8343.3493-1.7513.0865-2.6049-.1334.2947-.3362.5527-.5912.7517-.2549.1991-.5544.3334-.8726.3914-.3182.0579-.6458.0378-.9546-.0586-.3087-.0965-.5895-.2664-.8182-.4951-.2287-.2288-.3985-.50964-.4948-.81845-.0963-.3088-.1163-.63635-.0582-.95457s.1924-.61761.3916-.87249c.1992-.25487.4572-.45763.752-.59089z" /></svg>