<svg fill="currentColor" height="24" viewBox="0 0 24 24" width="24" xmlns="http://www.w3.org/2000/svg"><path d="m18.031 16.617 4.283 4.282-1.415 1.415-4.282-4.283c-1.5933 1.2772-3.575 1.9719-5.617 1.969-4.968 0-9-4.032-9-9s4.032-9 9-9 9 4.032 9 9c.0029 2.042-.6918 4.0237-1.969 5.617zm-2.006-.742c1.2691-1.3051 1.9779-3.0546 1.975-4.875 0-3.868-3.133-7-7-7-3.868 0-7 3.132-7 7 0 3.867 3.132 7 7 7 1.8204.0029 3.5699-.7059 4.875-1.975zm-3.847-8.699c-.2949.1332-.553.33595-.7523.59086-.1993.2549-.3338.55435-.3919.87265s-.0381.64595.0583.95482c.0964.30888.2662.58977.495.81857s.5097.3986.8186.495c.3088.0964.6365.1164.9548.0583s.6177-.1926.8726-.3919c.255-.1993.4577-.4574.5909-.7523.2628.8536.2323 1.7706-.0865 2.605-.3189.8343-.9078 1.5378-1.6729 1.9986-.7652.4608-1.6625.6522-2.5491.5438-.88654-.1085-1.7113-.5105-2.34286-1.142-.63156-.6316-1.03358-1.4564-1.142-2.3429-.10841-.8866.08301-1.78392.54376-2.54906.46076-.76514 1.16435-1.35406 1.99865-1.67292.83435-.31886 1.75135-.34932 2.60495-.08652z" /></svg>