<svg fill="currentColor" height="24" viewBox="0 0 24 24" width="24" xmlns="http://www.w3.org/2000/svg"><path d="m11 2 7.298 2.28c.2035.06354.3814.19048.5077.36229.1263.1718.1944.37948.1943.59271v1.765h2c.2652 0 .5196.10536.7071.29289.1875.18754.2929.44189.2929.70711v8c0 .2652-.1054.5196-.2929.7071s-.4419.2929-.7071.2929l-3.22.001c-.387.51-.857.96-1.4 1.33l-5.38 3.669-5.38-3.668c-.80748-.5505-1.46825-1.29-1.92486-2.1541s-.69524-1.8266-.69514-2.8039v-8.139c.00012-.21306.06829-.42051.19456-.59211.12628-.17161.30406-.2984.50744-.36189zm0 2.094-6 1.876v7.404c-.00014.6122.14025 1.2163.41036 1.7657.27012.5495.66275 1.0295 1.14764 1.4033l.189.136 4.253 2.901 3.782-2.58h-4.782c-.26522 0-.51957-.1054-.70711-.2929-.18753-.1875-.29289-.4419-.29289-.7071v-8c0-.26522.10536-.51957.29289-.70711.18754-.18753.44189-.29289.70711-.29289h7v-1.03zm0 7.906v3h9v-3zm0-2h9v-1h-9z" /></svg>