<svg fill="currentColor" height="24" viewBox="0 0 24 24" width="24" xmlns="http://www.w3.org/2000/svg"><path d="m3.741 1.40798 18.462 10.15402c.0784.0431.1438.1066.1893.1836s.0695.1649.0695.2544-.024.1773-.0695.2544c-.0455.077-.1109.1404-.1893.1836l-18.462 10.154c-.07613.0419-.16185.0632-.24873.0618-.08687-.0013-.1719-.0253-.24669-.0695-.0748-.0442-.13678-.1071-.17985-.1826-.04306-.0755-.06572-.1608-.06573-.2477v-20.30802c.00001-.08688.02267-.17226.06573-.24773.04307-.07546.10505-.1384.17985-.18261.07479-.04421.15982-.06817.24669-.06951.08688-.00134.1726.01998.24873.06185zm1.259 11.59202v6.617l13.85-7.617-13.85-7.61702v6.61702h5v2z" /></svg>