<svg fill="currentColor" height="24" viewBox="0 0 24 24" width="24" xmlns="http://www.w3.org/2000/svg"><path d="m3.16104 4.46898c1.16007-1.16027 2.716-1.83891 4.3556-1.89975 1.6396-.06083 3.24156.50064 4.48436 1.57175 1.2418-1.06933 2.8416-1.63017 4.4793-1.57024 1.6376.05993 3.1921.73621 4.3524 1.89345 1.1603 1.15723 1.8406 2.71002 1.9048 4.34748.0643 1.63743-.4924 3.23873-1.5585 4.48333l-7.765 7.79c-.3567.3569-.8352.5657-1.3394.5846-.5043.0189-.9971-.1535-1.3796-.4826l-.11-.101-7.76396-7.791c-1.06551-1.2435-1.62242-2.8433-1.55938-4.47964.06303-1.63632.74137-3.18856 1.89938-4.34638zm1.414 1.414c-.81776.81799-1.28914 1.91944-1.31633 3.07577-.02719 1.15635.39192 2.27875 1.17033 3.13425l.146.154 7.42496 7.425 5.303-5.304-3.535-3.535-1.06 1.06c-.2785.2786-.6092.4997-.9732.6506-.3639.1508-.7541.2285-1.148.2286-.79577.0002-1.55897-.3157-2.12176-.8782s-.87906-1.3256-.87925-2.12131c-.00019-.79572.31573-1.55892.87825-2.12171l2.10196-2.103c-.83649-.66762-1.88355-1.01531-2.95327-.98067s-2.0921.44933-2.88369 1.16967zm8.48596 2.828c.1876-.18747.4419-.29278.707-.29278.2652 0 .5195.10531.707.29278l4.242 4.24202.708-.706c.8315-.8309 1.3049-1.9541 1.3189-3.12946.014-1.17535-.4324-2.30954-1.2438-3.16-.8114-.85047-1.9234-1.34969-3.0981-1.39091-1.1747-.04121-2.3189.37885-3.188 1.17035l-.153.146-3.18196 3.182c-.17333.17322-.27702.40404-.2914.64867-.01438.24462.06156.48605.2134.67835l.078.087c.17326.1733.40406.277.64866.2914s.486-.0616.6783-.2134l.087-.078z" /></svg>