<svg fill="currentColor" height="24" viewBox="0 0 24 24" width="24" xmlns="http://www.w3.org/2000/svg"><path d="m14.1214 10.48c-.1875-.1875-.4418-.2928-.707-.2928-.2651 0-.5194.1053-.707.2928l-.707.706c-.1844.191-.4051.3434-.6491.4482-.2441.1048-.5065.16-.772.1623-.2656.0023-.529-.0483-.77476-.1489-.24579-.1005-.4691-.249-.65688-.4368-.18779-.1878-.33629-.4111-.43686-.6569-.10056-.2458-.15116-.5092-.14885-.77471.0023-.26556.05748-.528.16229-.77201.10482-.24401.25719-.4647.44821-.64919l5.62995-5.632c1.333-.30318 2.7276-.1784 3.9855.35657 1.2579.53498 2.3152 1.45293 3.0214 2.62332.7063 1.17039 1.0256 2.53365.9125 3.89594-.1131 1.36228-.6528 2.65428-1.5424 3.69218l-2.108 2.135-4.95-4.95zm-10.95995-6.01201c1.03476-1.03462 2.38822-1.69002 3.84156-1.86024 1.45334-.17021 2.92161.15471 4.16739.92224l-3.41295 3.414c-.7392.73773-1.16057 1.7353-1.17406 2.77956-.0135 1.04425.38195 2.05235 1.10184 2.80895s1.70713 1.2016 2.75077 1.24c1.0436.0384 2.0609-.3329 2.8344-1.0345l.144-.137 4.243 4.242-4.243 4.243c-.375.3749-.8836.5856-1.414.5856-.5303 0-1.0389-.2107-1.414-.5856l-7.42595-7.426c-1.21887-1.219-1.90361-2.8722-1.90361-4.59601s.68474-3.37703 1.90361-4.596z" /></svg>