<svg fill="currentColor" height="24" viewBox="0 0 24 24" width="24" xmlns="http://www.w3.org/2000/svg"><path d="m9.95405 2.20997c1.34895-.28287 2.74175-.28355 4.09095-.002.0899.59329.3124 1.15869.6508 1.65418.3385.49549.7843.90833 1.3042 1.20782.5196.30053 1.1002.48007 1.6987.52525.5986.04519 1.1996-.04513 1.7583-.26425.9183 1.02806 1.6139 2.23504 2.043 3.545-.4686.37458-.8468.84995-1.1065 1.39083-.2597.5408-.3942 1.1332-.3935 1.7332 0 1.264.586 2.391 1.502 3.124-.4316 1.3088-1.1281 2.5149-2.046 3.543-.5586-.219-1.1594-.3092-1.7577-.264-.5984.0451-1.1788.2246-1.6983.525-.5195.2994-.9649.7119-1.3032 1.2071-.3383.4951-.5607 1.06-.6508 1.6529-1.3487.2835-2.7416.2849-4.09095.004-.08946-.5938-.3117-1.1598-.65018-1.6559-.33848-.496-.78449-.9093-1.30482-1.2091-.51964-.3004-1.1003-.4798-1.69881-.5248-.59852-.045-1.19948.0455-1.75819.2648-.9184-1.0284-1.614-2.2357-2.043-3.546.46839-.3744.84646-.8494 1.10613-1.3899.25968-.5405.3943-1.1325.39387-1.7321.00049-.6001-.1343-1.1927-.39434-1.7335-.26003-.54087-.63864-1.01615-1.10766-1.39053.43167-1.30888 1.12811-2.5149 2.046-3.543.55865.21896 1.15947.3092 1.75779.26401.59833-.04518 1.17877-.22463 1.69821-.52501.51954-.2994.96498-.71198 1.30326-1.20709.33827-.49512.56069-1.06007.65074-1.65291zm2.04595 12.79003c.7957 0 1.5588-.3161 2.1214-.8787s.8786-1.3257.8786-2.1213c0-.7957-.316-1.5587-.8786-2.12135-.5626-.56261-1.3257-.87868-2.1214-.87868-.7956 0-1.5587.31607-2.12127.87868-.56261.56265-.87868 1.32565-.87868 2.12135 0 .7956.31607 1.5587.87868 2.1213.56257.5626 1.32567.8787 2.12127.8787z" /></svg>