<svg fill="currentColor" height="24" viewBox="0 0 24 24" width="24" xmlns="http://www.w3.org/2000/svg"><path d="m3.3403 17.0001c-.42272-.731-.75133-1.5126-.978-2.326.49331-.2509.9076-.6334 1.19703-1.1051.28944-.4718.44274-1.0144.44295-1.5678.0002-.5535-.15269-1.0962-.44177-1.5681-.28908-.47198-.70309-.85476-1.19621-1.10603.45204-1.63452 1.31273-3.12705 2.501-4.337.4641.30172 1.00262.46916 1.55598.48378s1.09998-.12415 1.57935-.40095c.47938-.2768.87283-.68083 1.1368-1.16739s.38818-1.03667.35887-1.58944c1.6421-.42438 3.3652-.42369 5.007.002-.029.55276.0954 1.10279.3596 1.58921.2642.48641.6578.89026 1.1372 1.16685.4795.27658 1.0261.41512 1.5795.40029.5533-.01484 1.0917-.18247 1.5557-.48435.579.59 1.093 1.261 1.525 2.01.433.749.757 1.53.978 2.326-.4933.2509-.9076.63337-1.197 1.10513-.2895.4717-.4428 1.0143-.443 1.5678-.0002.5534.1527 1.0961.4418 1.5681.2891.4719.7031.8547 1.1962 1.106-.452 1.6345-1.3127 3.127-2.501 4.337-.4641-.3018-1.0026-.4692-1.556-.4838-.5533-.0146-1.0999.1241-1.5793.4009s-.8728.6809-1.1368 1.1674c-.264.4866-.3882 1.0367-.3589 1.5895-1.6421.4243-3.3652.4237-5.007-.002.02905-.5528-.0954-1.1028-.35957-1.5892-.26418-.4865-.65778-.8903-1.13725-1.1669s-1.02612-.4151-1.57945-.4003c-.55333.0149-1.09176.1825-1.55573.4844-.591-.6031-1.1034-1.2784-1.525-2.01zm5.66.196c1.0656.6146 1.8669 1.601 2.25 2.77.499.047 1 .048 1.499.001.3834-1.1692 1.185-2.1556 2.251-2.77 1.0652-.6163 2.3205-.8176 3.525-.565.29-.408.54-.843.748-1.298-.8206-.9166-1.2739-2.1038-1.273-3.334 0-1.26.47-2.43703 1.273-3.33403-.2095-.45485-.4605-.88937-.75-1.298-1.2037.25231-2.4582.05147-3.523-.564-1.0656-.61463-1.8668-1.60102-2.25-2.77-.499-.047-1-.048-1.499-.001-.3834 1.16914-1.185 2.15556-2.251 2.77-1.06521.61631-2.32052.81752-3.525.565-.28943.40828-.53986.84286-.748 1.298.82058.91656 1.27389 2.10383 1.273 3.33403 0 1.26-.47 2.437-1.273 3.334.20948.4548.46054.8893.75 1.298 1.20372-.2523 2.45821-.0515 3.523.564zm3-2.196c-.7956 0-1.5587-.3161-2.12132-.8787-.56261-.5626-.87868-1.3257-.87868-2.1213 0-.7957.31607-1.5587.87868-2.12135.56262-.56261 1.32572-.87868 2.12132-.87868.7957 0 1.5587.31607 2.1213.87868.5626.56265.8787 1.32565.8787 2.12135 0 .7956-.3161 1.5587-.8787 2.1213s-1.3256.8787-2.1213.8787zm0-2c.2652 0 .5196-.1054.7071-.2929.1875-.1876.2929-.4419.2929-.7071s-.1054-.5196-.2929-.7071c-.1875-.1876-.4419-.2929-.7071-.2929s-.5196.1053-.7071.2929c-.1875.1875-.2929.4419-.2929.7071s.1054.5195.2929.7071c.1875.1875.4419.2929.7071.2929z" /></svg>