<svg fill="currentColor" height="24" viewBox="0 0 24 24" width="24" xmlns="http://www.w3.org/2000/svg"><path d="m7.83021 20c-.16905.4779-.45639.9052-.83522 1.242-.37882.3368-.83679.5721-1.33118.6841-.49438.112-1.00907.0969-1.49604-.0439-.48698-.1407-.93036-.4025-1.2888-.761-.35843-.3584-.62023-.8018-.76098-1.2888-.14074-.4869-.15584-1.0016-.04388-1.496s.34732-.9524.68413-1.3312c.3368-.3788.76408-.6662 1.24197-.8352v-8.34c-.47789-.16904-.90517-.45638-1.24197-.83521-.33681-.37883-.57217-.8368-.68413-1.33119-.11196-.49438-.09686-1.00907.04388-1.49604.14075-.48697.40255-.93036.76098-1.28879.35844-.35844.80182-.62024 1.2888-.76098.48697-.14074 1.00166-.15584 1.49604-.04389.49439.11196.95236.34732 1.33118.68413.37883.33681.66617.76409.83522 1.24197h8.33999c.1691-.47788.4564-.90516.8352-1.24197.3789-.33681.8368-.57217 1.3312-.68413.4944-.11195 1.0091-.09685 1.496.04389.487.14074.9304.40254 1.2888.76098.3585.35843.6203.80182.761 1.28879.1408.48697.1559 1.00166.0439 1.49604-.112.49439-.3473.95236-.6841 1.33119s-.7641.66617-1.242.83521v8.34c.4779.169.9052.4564 1.242.8352s.5721.8368.6841 1.3312.0969 1.0091-.0439 1.496c-.1407.487-.4025.9304-.761 1.2888-.3584.3585-.8018.6203-1.2888.761-.4869.1408-1.0016.1559-1.496.0439s-.9523-.3473-1.3312-.6841c-.3788-.3368-.6661-.7641-.8352-1.242zm0-2h8.33999c.1496-.422.3915-.8053.7081-1.1219s.6999-.5585 1.1219-.7081v-8.34c-.422-.14961-.8053-.39153-1.1219-.70813-.3166-.31659-.5585-.69987-.7081-1.12187h-8.33999c-.14961.422-.39154.80528-.70813 1.12187-.3166.3166-.69987.55852-1.12187.70813v8.34c.422.1496.80527.3915 1.12187.7081.31659.3166.55852.6999.70813 1.1219zm-2.83-12c.26521 0 .51957-.10536.7071-.29289.18754-.18754.2929-.44189.2929-.70711 0-.26521-.10536-.51957-.2929-.7071-.18753-.18754-.44189-.2929-.7071-.2929-.26522 0-.51957.10536-.70711.2929-.18754.18753-.29289.44189-.29289.7071 0 .26522.10535.51957.29289.70711.18754.18753.44189.29289.70711.29289zm13.99999 0c.2652 0 .5196-.10536.7071-.29289.1876-.18754.2929-.44189.2929-.70711 0-.26521-.1053-.51957-.2929-.7071-.1875-.18754-.4419-.2929-.7071-.2929s-.5196.10536-.7071.2929c-.1875.18753-.2929.44189-.2929.7071 0 .26522.1054.51957.2929.70711.1875.18753.4419.29289.7071.29289zm0 14c.2652 0 .5196-.1054.7071-.2929.1876-.1875.2929-.4419.2929-.7071s-.1053-.5196-.2929-.7071c-.1875-.1875-.4419-.2929-.7071-.2929s-.5196.1054-.7071.2929-.2929.4419-.2929.7071.1054.5196.2929.7071.4419.2929.7071.2929zm-13.99999 0c.26521 0 .51957-.1054.7071-.2929.18754-.1875.2929-.4419.2929-.7071s-.10536-.5196-.2929-.7071c-.18753-.1875-.44189-.2929-.7071-.2929-.26522 0-.51957.1054-.70711.2929s-.29289.4419-.29289.7071.10535.5196.29289.7071.44189.2929.70711.2929z" /></svg>