<svg fill="currentColor" height="24" viewBox="0 0 24 24" width="24" xmlns="http://www.w3.org/2000/svg"><path d="m5 8c-.79565 0-1.55871-.31607-2.12132-.87868s-.87868-1.32567-.87868-2.12132.31607-1.55871.87868-2.12132 1.32567-.87868 2.12132-.87868 1.55871.31607 2.12132.87868.87868 1.32567.87868 2.12132-.31607 1.55871-.87868 2.12132-1.32567.87868-2.12132.87868zm14 0c-.7956 0-1.5587-.31607-2.1213-.87868s-.8787-1.32567-.8787-2.12132.3161-1.55871.8787-2.12132 1.3257-.87868 2.1213-.87868 1.5587.31607 2.1213.87868.8787 1.32567.8787 2.12132-.3161 1.55871-.8787 2.12132-1.3257.87868-2.1213.87868zm0 14c-.7956 0-1.5587-.3161-2.1213-.8787s-.8787-1.3257-.8787-2.1213.3161-1.5587.8787-2.1213 1.3257-.8787 2.1213-.8787 1.5587.3161 2.1213.8787.8787 1.3257.8787 2.1213-.3161 1.5587-.8787 2.1213-1.3257.8787-2.1213.8787zm-14 0c-.79565 0-1.55871-.3161-2.12132-.8787s-.87868-1.3257-.87868-2.1213.31607-1.5587.87868-2.1213 1.32567-.8787 2.12132-.8787 1.55871.3161 2.12132.8787.87868 1.3257.87868 2.1213-.31607 1.5587-.87868 2.1213-1.32567.8787-2.12132.8787zm4-18h6v2h-6zm0 14h6v2h-6zm-5-9h2v6h-2zm14 0h2v6h-2z" /></svg>