<svg fill="currentColor" height="24" viewBox="0 0 24 24" width="24" xmlns="http://www.w3.org/2000/svg"><path d="m9 2.99999v2h-5v14.00001h16v-9.00001h2v10.00001c0 .2652-.1054.5196-.2929.7071s-.4419.2929-.7071.2929h-18c-.26522 0-.51957-.1054-.70711-.2929-.18753-.1875-.29289-.4419-.29289-.7071v-16.00001c0-.26522.10536-.51957.29289-.70711.18754-.18754.44189-.29289.70711-.29289zm9.95 2-2.95-2.95 1.414-1.414004 5.34 5.340004c.0838.08391.1409.19077.164.30709s.0112.23687-.0342.34645c-.0453.10957-.1222.20323-.2207.26917-.0986.06594-.2145.10118-.3331.10129h-8.33c-.5304 0-1.0391.21071-1.4142.58578-.3751.37508-.5858.88378-.5858 1.41422v6.00001h-2v-6.00001c0-1.06087.4214-2.07829 1.1716-2.82843.7501-.75015 1.7675-1.17157 2.8284-1.17157z" /></svg>