<svg fill="currentColor" height="24" viewBox="0 0 24 24" width="24" xmlns="http://www.w3.org/2000/svg"><path d="m13.5757 17.2711-5.10999-2.787c-.4905.4869-1.11418.8177-1.79241.9506-.67822.133-1.38063.0622-2.01866-.2035-.63804-.2657-1.18314-.7143-1.56658-1.2893s-.58806-1.2507-.58806-1.9418.20462-1.3668.58806-1.9418c.38344-.57501.92854-1.02362 1.56658-1.28929.63803-.26566 1.34044-.33648 2.01866-.20353.67823.13296 1.30191.46373 1.79241.95063l5.10999-2.787c-.1752-.82226-.0487-1.68014.3566-2.41675.4053-.7366 1.0622-1.30272 1.8505-1.59482.7884-.29209 1.6555-.29066 2.4429.00406.7874.29471 1.4424.863 1.8452 1.60095s.5266 1.59624.3486 2.41791c-.178.82168-.6458 1.55184-1.3179 2.05695s-1.5035.75143-2.3423.6939c-.8387-.05753-1.6288-.41506-2.2256-1.0072l-5.10999 2.78699c.10194.4807.10194.9774 0 1.458l5.10999 2.787c.5968-.5921 1.3869-.9497 2.2256-1.0072.8388-.0575 1.6702.1888 2.3423.6939s1.1399 1.2353 1.3179 2.057c.178.8216.0542 1.6799-.3486 2.4179-.4028.7379-1.0578 1.3062-1.8452 1.6009s-1.6545.2962-2.4429.0041c-.7883-.2921-1.4452-.8582-1.8505-1.5948-.4053-.7367-.5318-1.5945-.3566-2.4168z" /></svg>