<svg fill="currentColor" height="24" viewBox="0 0 24 24" width="24" xmlns="http://www.w3.org/2000/svg"><path d="m13.1202 17.023-4.19899-2.29c-.54821.586-1.26002.9936-2.04293 1.1698s-1.60072.1129-2.34715-.1818-1.38696-.8071-1.83836-1.4706c-.45139-.6635-.69277-1.4474-.69277-2.2499s.24138-1.5865.69277-2.24999c.4514-.6635 1.09193-1.1759 1.83836-1.47059s1.56424-.35805 2.34715-.18185c.78291.17621 1.49472.58383 2.04293 1.16989l4.19999-2.29c-.2384-.94393-.1244-1.94241.3206-2.8083.4451-.86588 1.1907-1.53972 2.0971-1.8952.9063-.35548 1.9112-.3682 2.8263-.03577s1.6775.98719 2.1443 1.84153c.4669.85435.6061 1.84963.3916 2.79928-.2145.94966-.7679 1.7885-1.5567 2.35927-.7887.57077-1.7585.83433-2.7276.74118-.9691-.09311-1.871-.53648-2.5366-1.24699l-4.19999 2.29004c.16119.6413.16119 1.3126 0 1.954l4.19899 2.29c.6656-.7106 1.5675-1.1539 2.5366-1.247.9691-.0932 1.9389.1704 2.7276.7411.7888.5708 1.3422 1.4097 1.5567 2.3593.2145.9497.0753 1.945-.3916 2.7993-.4668.8543-1.2292 1.5091-2.1443 1.8415-.9151.3325-1.92.3197-2.8263-.0357-.9064-.3555-1.652-1.0294-2.0971-1.8952-.445-.8659-.559-1.8644-.3206-2.8083zm-7.11999-3.023c.53043 0 1.03914-.2108 1.41421-.5858.37507-.3751.58579-.8838.58579-1.4142 0-.5305-.21072-1.0392-.58579-1.4143-.37507-.375-.88378-.58574-1.41421-.58574-.53044 0-1.03914.21074-1.41422.58574-.37507.3751-.58578.8838-.58578 1.4143 0 .5304.21071 1.0391.58578 1.4142.37508.375.88378.5858 1.41422.5858zm10.99999-6.00004c.5304 0 1.0391-.21071 1.4142-.58579.3751-.37507.5858-.88378.5858-1.41421s-.2107-1.03914-.5858-1.41421c-.3751-.37508-.8838-.58579-1.4142-.58579s-1.0391.21071-1.4142.58579c-.3751.37507-.5858.88378-.5858 1.41421s.2107 1.03914.5858 1.41421c.3751.37508.8838.58579 1.4142.58579zm0 12.00004c.5304 0 1.0391-.2108 1.4142-.5858.3751-.3751.5858-.8838.5858-1.4142 0-.5305-.2107-1.0392-.5858-1.4143-.3751-.375-.8838-.5857-1.4142-.5857s-1.0391.2107-1.4142.5857c-.3751.3751-.5858.8838-.5858 1.4143 0 .5304.2107 1.0391.5858 1.4142.3751.375.8838.5858 1.4142.5858z" /></svg>