<svg fill="currentColor" height="24" viewBox="0 0 24 24" width="24" xmlns="http://www.w3.org/2000/svg"><path d="m3.783 2.826 8.217-1.826 8.217 1.826c.2221.04936.4207.17297.563.3504.1424.17744.22.39812.22.6256v9.987c-.0001.9877-.244 1.9602-.7101 2.831s-1.14 1.6131-1.9619 2.161l-6.328 4.219-6.328-4.219c-.82173-.5478-1.49554-1.2899-1.96165-2.1605-.46611-.8707-.71011-1.8429-.71035-2.8305v-9.988c.00004-.22748.07764-.44816.21999-.6256.14235-.17743.34095-.30104.56301-.3504zm8.217 8.174c.663 0 1.2989-.2634 1.7678-.7322.4688-.46887.7322-1.10476.7322-1.7678s-.2634-1.29893-.7322-1.76777c-.4689-.46884-1.1048-.73223-1.7678-.73223s-1.2989.26339-1.7678.73223c-.46881.46884-.7322 1.10473-.7322 1.76777s.26339 1.29893.7322 1.7678c.4689.4688 1.1048.7322 1.7678.7322zm-4.473 5h8.946c-.1212-1.1016-.6447-2.1197-1.4701-2.8593-.8254-.7395-1.8947-1.1485-3.0029-1.1485s-2.17752.409-3.00292 1.1485c-.8254.7396-1.34886 1.7577-1.47008 2.8593z" /></svg>