<svg fill="currentColor" height="24" viewBox="0 0 24 24" width="24" xmlns="http://www.w3.org/2000/svg"><path d="m12 1 8.217 1.826c.2221.04936.4207.17297.563.3504.1424.17744.22.39812.22.6256v9.987c-.0001.9877-.244 1.9602-.7101 2.831s-1.14 1.6131-1.9619 2.161l-6.328 4.219-6.328-4.219c-.82173-.5478-1.49554-1.2899-1.96165-2.1605-.46611-.8707-.71011-1.8429-.71035-2.8305v-9.988c.00004-.22748.07764-.44816.21999-.6256.14235-.17743.34095-.30104.56301-.3504zm0 6c-.4403.00002-.8682.1453-1.2175.41332-.3492.26801-.6003.64378-.7143 1.06904-.11391.42525-.08436.87621.0841 1.28296.1685.40678.4664.74658.8477.96668v4.268h2l.001-4.268c.3813-.2202.6793-.5601.8478-.96691.1684-.40685.1979-.85791.0838-1.28322-.114-.4253-.3653-.80107-.7147-1.06901-.3495-.26794-.7776-.41306-1.2179-.41286z" /></svg>