<svg fill="currentColor" height="24" viewBox="0 0 24 24" width="24" xmlns="http://www.w3.org/2000/svg"><path d="m12 1 8.217 1.826c.457.102.783.507.783.976v9.987c0 2.006-1.003 3.88-2.672 4.992l-6.328 4.219-6.328-4.219c-1.67-1.113-2.672-2.986-2.672-4.991v-9.988c0-.469.326-.874.783-.976zm0 2.049-7 1.555v9.185c0 1.337.668 2.586 1.781 3.328l5.219 3.48 5.219-3.48c1.113-.742 1.781-1.99 1.781-3.327v-9.186l-7-1.554zm4.452 5.173 1.415 1.414-6.364 6.364-4.243-4.243 1.414-1.414 2.828 2.828 4.95-4.95z" /></svg>