<svg fill="currentColor" height="24" viewBox="0 0 24 24" width="24" xmlns="http://www.w3.org/2000/svg"><path d="m3.783 2.826 8.217-1.826 8.217 1.826c.2221.04936.4207.17297.563.3504.1424.17744.22.39812.22.6256v9.987c-.0001.9877-.244 1.9602-.7101 2.831s-1.14 1.6131-1.9619 2.161l-6.328 4.219-6.328-4.219c-.82173-.5478-1.49554-1.2899-1.96165-2.1605-.46611-.8707-.71011-1.8429-.71035-2.8305v-9.988c.00004-.22748.07764-.44816.21999-.6256.14235-.17743.34095-.30104.56301-.3504zm1.217 1.778v9.185c.00001.6585.16257 1.3067.47326 1.8873.31069.5805.75989 1.0754 1.30774 1.4407l5.219 3.48 5.219-3.48c.5477-.3652.9968-.8599 1.3075-1.4403.3107-.5803.4733-1.2284.4735-1.8867v-9.186l-7-1.554zm6 5.396v-3h2v3h3v2h-3v3h-2v-3h-3v-2z" /></svg>