<svg fill="currentColor" height="24" viewBox="0 0 24 24" width="24" xmlns="http://www.w3.org/2000/svg"><path d="m4 10.4v-6.4c0-.26522.10536-.51957.29289-.70711.18754-.18753.44189-.29289.70711-.29289h5v-2h4v2h5c.2652 0 .5196.10536.7071.29289.1875.18754.2929.44189.2929.70711v6.4l1.086.326c.2461.0741.4542.24.5812.4635.127.2234.1631.4872.1008.7365l-1.516 6.068c-.8179.0419-1.6336-.118-2.3751-.4658-.7415-.3477-1.3861-.8725-1.8769-1.5282-.4653.6214-1.0691 1.1258-1.7635 1.473s-1.4602.5276-2.2365.527c-.7763.0006-1.5421-.1798-2.23649-.527-.69438-.3472-1.29821-.8516-1.76351-1.473-.49079.6557-1.13536 1.1805-1.87687 1.5282-.74152.3478-1.5572.5077-2.37513.4658l-1.516-6.068c-.0623-.2493-.02622-.5131.10077-.7365.12699-.2235.33513-.3894.58123-.4635zm2-.6 6-1.8 2.754.826 1.809.543 1.437.431v-4.8h-12zm-2 10.2c1.47626.002 2.90107-.5422 4-1.528 1.09893.9858 2.5237 1.53 4 1.528 1.4763.002 2.9011-.5422 4-1.528 1.0989.9858 2.5237 1.53 4 1.528h2v2h-2c-1.4044.0023-2.7843-.3669-4-1.07-1.2157.7031-2.5956 1.0723-4 1.07-1.4044.0023-2.78435-.3669-4-1.07-1.21565.7031-2.59564 1.0723-4 1.07h-2v-2z" /></svg>