<svg fill="currentColor" height="24" viewBox="0 0 24 24" width="24" xmlns="http://www.w3.org/2000/svg"><path d="m9 4h5.446c.1696 0 .3364.04314.4848.12536.1483.08222.2733.20081.3632.34464l3.456 5.53h4.408c.0868-.00006.1722.0225.2476.0654.0755.043.1385.1048.1828.1795s.0684.1596.0699.2464-.0196.1725-.0613.2487l-3.937 7.217c-.8806.118-1.7768-.0011-2.596-.3452-.8192-.344-1.5317-.9004-2.064-1.6118-.4653.6214-1.0691 1.1258-1.7635 1.473s-1.4602.5276-2.2365.527c-.7763.0006-1.54212-.1798-2.23649-.527-.69438-.3472-1.29821-.8516-1.76351-1.473-.52111.6962-1.21506 1.2443-2.01313 1.5898-.79807.3456-1.67257.4766-2.53687.3802l-1.236-6.791c-.02622-.1441-.02046-.2923.01689-.4339.03734-.1417.10535-.2734.19922-.3859.09387-.1124.2113-.2029.34399-.265s.2774-.09422.4239-.0942h.802v-5c0-.26522.10536-.51957.29289-.70711.18754-.18753.44189-.29289.70711-.29289h1v-3h4zm-4 6h11.392l-2.5-4h-8.892zm-2 10c1.47626.002 2.90107-.5422 4-1.528 1.09893.9858 2.52374 1.53 4 1.528 1.4763.002 2.9011-.5422 4-1.528 1.0989.9858 2.5237 1.53 4 1.528h2v2h-2c-1.4044.0023-2.7843-.3669-4-1.07-1.2157.7031-2.5956 1.0723-4 1.07-1.40436.0023-2.78435-.3669-4-1.07-1.21565.7031-2.59564 1.0723-4 1.07h-2v-2z" /></svg>