<svg fill="currentColor" height="24" viewBox="0 0 24 24" width="24" xmlns="http://www.w3.org/2000/svg"><path d="m9 4h5.446c.1696 0 .3364.04314.4848.12536.1483.08222.2733.20081.3632.34464l3.456 5.53h4.408c.0868-.00006.1722.0225.2476.0654.0755.043.1385.1048.1828.1795s.0684.1596.0699.2464-.0196.1725-.0613.2487l-3.96 7.26h-.637c-.5181.0004-1.034-.0661-1.535-.198l3.165-5.802h-17.23l1.048 5.824c-.47374.1172-.95998.1763-1.448.176h-.545l-1.24-6.821c-.02619-.144-.02047-.2919.01676-.4334s.10506-.2732.19871-.3856.21083-.2029.34327-.2651c.13245-.0622.27693-.0946.42326-.0949h.803v-5c0-.26522.10536-.51957.29289-.70711.18754-.18753.44189-.29289.70711-.29289h1v-3h4zm-4 6h11.392l-2.5-4h-8.892zm-2 10c1.47626.002 2.90107-.5422 4-1.528 1.09893.9858 2.52374 1.53 4 1.528 1.4763.002 2.9011-.5422 4-1.528 1.0989.9858 2.5237 1.53 4 1.528h2v2h-2c-1.4044.0023-2.7843-.3669-4-1.07-1.2157.7031-2.5956 1.0723-4 1.07-1.40436.0023-2.78435-.3669-4-1.07-1.21565.7031-2.59564 1.0723-4 1.07h-2v-2z" /></svg>