<svg fill="currentColor" height="24" viewBox="0 0 24 24" width="24" xmlns="http://www.w3.org/2000/svg"><path d="m15.366 3.43799 3.211 5.562h3.423v2.00001h-1.167l-.757 9.083c-.0208.2499-.1347.4828-.3192.6527-.1845.1698-.426.2642-.6768.2643h-14.16c-.25075-.0001-.4923-.0945-.67678-.2643-.18447-.1699-.29841-.4028-.31922-.6527l-.758-9.083h-1.166v-2.00001h3.422l3.212-5.562 1.732 1-2.634 4.562h8.535l-2.633-4.562zm3.46 7.56201h-13.653l.667 8h12.319zm-5.826 2v4h-2v-4zm-4 0v4h-2v-4zm8 0v4h-2v-4z" /></svg>