<svg fill="currentColor" height="24" viewBox="0 0 24 24" width="24" xmlns="http://www.w3.org/2000/svg"><path d="m12 2c1.5913 0 3.1174.63214 4.2426 1.75736 1.1253 1.12522 1.7574 2.65134 1.7574 4.24264v1h4v2h-1.167l-.757 9.083c-.0208.2499-.1347.4828-.3192.6527-.1845.1698-.426.2642-.6768.2643h-14.16c-.25075-.0001-.4923-.0945-.67678-.2643-.18447-.1699-.29841-.4028-.31922-.6527l-.758-9.083h-1.166v-2h4v-1c0-1.5913.63214-3.11742 1.75736-4.24264s2.65134-1.75736 4.24264-1.75736zm1 11h-2v4h2zm-4 0h-2v4h2zm8 0h-2v4h2zm-5-9c-1.0262 0-2.01323.39444-2.75681 1.10172-.74359.70729-1.18688 1.67332-1.23819 2.69828l-.005.2v1h8v-1c0-1.02624-.3944-2.01323-1.1017-2.75681-.7073-.74359-1.6733-1.18688-2.6983-1.23819z" /></svg>