<svg fill="currentColor" height="24" viewBox="0 0 24 24" width="24" xmlns="http://www.w3.org/2000/svg"><path d="m6.5 2h11c.1552 0 .3084.03614.4472.10557.1389.06943.2597.17023.3528.29443l2.7 3.6v15c0 .2652-.1054.5196-.2929.7071s-.4419.2929-.7071.2929h-16c-.26522 0-.51957-.1054-.70711-.2929-.18753-.1875-.29289-.4419-.29289-.7071v-15l2.7-3.6c.09315-.1242.21393-.225.35279-.29443.13885-.06943.29196-.10557.44721-.10557zm12 4-1.5-2h-10l-1.5 2zm-9.5 4h-2v2c0 1.3261.52678 2.5979 1.46447 3.5355.93768.9377 2.20943 1.4645 3.53553 1.4645s2.5979-.5268 3.5355-1.4645c.9377-.9376 1.4645-2.2094 1.4645-3.5355v-2h-2v2c0 .7956-.3161 1.5587-.8787 2.1213s-1.3257.8787-2.1213.8787-1.5587-.3161-2.12132-.8787c-.56261-.5626-.87868-1.3257-.87868-2.1213z" /></svg>