<svg fill="currentColor" height="24" viewBox="0 0 24 24" width="24" xmlns="http://www.w3.org/2000/svg"><path d="m3.99984 6.41396-3.243004-3.242 1.415004-1.415 3.242 3.243h15.24196c.1559-.00001.3096.03641.4489.10637.1393.06995.2603.17149.3534.29652.093.12504.1556.27009.1826.42359.0271.15351.0179.31121-.0269.46052l-2.4 8.00004c-.0617.206-.1883.3867-.3608.5152-.1726.1284-.382.1978-.5972.1978h-12.25596v2h10.99996v2h-11.99996c-.26522 0-.51957-.1054-.70711-.2929-.18754-.1876-.29289-.4419-.29289-.7071zm1.5 16.58604c-.39783 0-.77936-.1581-1.06066-.4394-.28131-.2813-.43934-.6628-.43934-1.0606 0-.3979.15803-.7794.43934-1.0607.2813-.2813.66283-.4393 1.06066-.4393.39782 0 .77935.158 1.06066.4393.2813.2813.43934.6628.43934 1.0607 0 .3978-.15804.7793-.43934 1.0606-.28131.2813-.66284.4394-1.06066.4394zm11.99996 0c-.3978 0-.7793-.1581-1.0606-.4394s-.4394-.6628-.4394-1.0606c0-.3979.1581-.7794.4394-1.0607s.6628-.4393 1.0606-.4393c.3979 0 .7794.158 1.0607.4393s.4393.6628.4393 1.0607c0 .3978-.158.7793-.4393 1.0606s-.6628.4394-1.0607.4394z" /></svg>