<svg fill="currentColor" height="24" viewBox="0 0 24 24" width="24" xmlns="http://www.w3.org/2000/svg"><path d="m7 8v-2c0-1.32608.52678-2.59785 1.46447-3.53553.93768-.93769 2.20943-1.46447 3.53553-1.46447s2.5979.52678 3.5355 1.46447c.9377.93768 1.4645 2.20945 1.4645 3.53553v2h3c.2652 0 .5196.10536.7071.29289.1875.18754.2929.44189.2929.70711v12c0 .2652-.1054.5196-.2929.7071s-.4419.2929-.7071.2929h-16c-.26522 0-.51957-.1054-.70711-.2929-.18753-.1875-.29289-.4419-.29289-.7071v-12c0-.26522.10536-.51957.29289-.70711.18754-.18753.44189-.29289.70711-.29289zm0 2h-2v10h14v-10h-2v2h-2v-2h-6v2h-2zm2-2h6v-2c0-.79565-.3161-1.55871-.8787-2.12132s-1.3257-.87868-2.1213-.87868-1.5587.31607-2.12132.87868c-.56261.56261-.87868 1.32567-.87868 2.12132z" /></svg>