<svg fill="currentColor" height="24" viewBox="0 0 24 24" width="24" xmlns="http://www.w3.org/2000/svg"><path d="m20 22h-16c-.26522 0-.51957-.1054-.70711-.2929-.18753-.1875-.29289-.4419-.29289-.7071v-18c0-.26522.10536-.51957.29289-.70711.18754-.18753.44189-.29289.70711-.29289h16c.2652 0 .5196.10536.7071.29289.1875.18754.2929.44189.2929.70711v18c0 .2652-.1054.5196-.2929.7071s-.4419.2929-.7071.2929zm-11-16h-2v2c0 1.32608.52678 2.5979 1.46447 3.5355.93768.9377 2.20943 1.4645 3.53553 1.4645s2.5979-.5268 3.5355-1.4645c.9377-.9376 1.4645-2.20942 1.4645-3.5355v-2h-2v2c0 .79565-.3161 1.55871-.8787 2.1213-.5626.5626-1.3257.8787-2.1213.8787s-1.5587-.3161-2.12132-.8787c-.56261-.56259-.87868-1.32565-.87868-2.1213z" /></svg>