<svg fill="currentColor" height="24" viewBox="0 0 24 24" width="24" xmlns="http://www.w3.org/2000/svg"><path d="m12 1c.6566 0 1.3068.12933 1.9134.3806.6066.25128 1.1578.61957 1.6221 1.08387.4643.46429.8326 1.01548 1.0839 1.62211s.3806 1.25681.3806 1.91342v2h3c.2652 0 .5196.10536.7071.29289.1875.18754.2929.44189.2929.70711v12c0 .2652-.1054.5196-.2929.7071s-.4419.2929-.7071.2929h-16c-.26522 0-.51957-.1054-.70711-.2929-.18753-.1875-.29289-.4419-.29289-.7071v-12c0-.26522.10536-.51957.29289-.70711.18754-.18753.44189-.29289.70711-.29289h3v-2c0-1.32608.52678-2.59785 1.46447-3.53553.93768-.93769 2.20943-1.46447 3.53553-1.46447zm5 10h-2v1c.0003.2549.0979.5.2728.6854.175.1853.4142.2968.6686.3118.2544.0149.505-.0679.7004-.2315.1955-.1636.3211-.3956.3512-.6487l.007-.117zm-8 0h-2v1c.00028.2549.09788.5.27285.6854.17497.1853.4141.2968.66854.3118.25445.0149.50499-.0679.70044-.2315.19546-.1636.32107-.3956.35117-.6487l.007-.117zm3-8c-.7652-.00004-1.5015.29233-2.05826.81728-.55675.52496-.89185 1.24283-.93674 2.00672l-.005.176v2h6v-2c0-.76521-.2923-1.50151-.8173-2.05826-.5249-.55675-1.2428-.89185-2.0067-.93674z" /></svg>