<svg fill="currentColor" height="24" viewBox="0 0 24 24" width="24" xmlns="http://www.w3.org/2000/svg"><path d="m6 9h13.938l.5-2h-12.438v-2h13.72c.152 0 .302.03466.4386.10134.1366.06667.2562.16361.3497.28345.0936.11983.1585.25941.19.40812s.0286.30264-.0083.45009l-2.5 10c-.0542.2162-.179.4082-.3548.5453-.1757.1372-.3923.2117-.6152.2117h-14.22c-.26522 0-.51957-.1054-.70711-.2929-.18753-.1875-.29289-.4419-.29289-.7071v-12h-2v-2h3c.26522 0 .51957.10536.70711.29289.18753.18754.29289.44189.29289.70711zm0 14c-.53043 0-1.03914-.2107-1.41421-.5858-.37508-.3751-.58579-.8838-.58579-1.4142s.21071-1.0391.58579-1.4142c.37507-.3751.88378-.5858 1.41421-.5858s1.03914.2107 1.41421.5858c.37508.3751.58579.8838.58579 1.4142s-.21071 1.0391-.58579 1.4142c-.37507.3751-.88378.5858-1.41421.5858zm12 0c-.5304 0-1.0391-.2107-1.4142-.5858s-.5858-.8838-.5858-1.4142.2107-1.0391.5858-1.4142.8838-.5858 1.4142-.5858 1.0391.2107 1.4142.5858.5858.8838.5858 1.4142-.2107 1.0391-.5858 1.4142-.8838.5858-1.4142.5858z" /></svg>