<svg fill="currentColor" height="24" viewBox="0 0 24 24" width="24" xmlns="http://www.w3.org/2000/svg"><path d="m14.9998 18h-6.00001v3h-2v-3.252c-1.32629-.3432-2.54222-1.0213-3.5313-1.9692s-1.71815-2.134-2.11737-3.4445c-.399225-1.3105-.455215-2.70158-.16261-4.03994.29261-1.33836.92401-2.57915 1.83371-3.6035.90969-1.02434 2.0672-1.79791 3.36162-2.24659 1.29441-.44868 2.68237-.55743 4.03086-.31584 1.3485.2416 2.6124.82545 3.6705 1.6956 1.0582.87016 1.8751 1.99747 2.3726 3.27393.752-.1439 1.5258-.12918 2.2719.04321.746.17239 1.4478.49865 2.0605.95789.6127.45925 1.1227 1.04136 1.4974 1.70907.3748.66767.606 1.40637.6788 2.16857.0729.7622-.0142 1.5312-.2557 2.2578s-.632 1.3948-1.1466 1.9618-1.1419 1.0203-1.8417 1.3309c-.6999.3106-1.4569.4716-2.2226.4728l-.5.001v3h-2v-3zm-4 2h2v3h-2z" /></svg>