<svg fill="currentColor" height="24" viewBox="0 0 24 24" width="24" xmlns="http://www.w3.org/2000/svg"><path d="m18 17.883v-1.883l5 3-5 3v-2.09c-1.5286-.2189-2.9751-.8274-4.2005-1.767s-2.1884-2.1786-2.7965-3.598l-.003-.005-.003.006c-.6939 1.6187-1.84753 2.9983-3.31791 3.9678-1.47037.9695-3.19288 1.4862-4.95409 1.4862h-.725v-2h.725c1.36998 0 2.70984-.4021 3.85352-1.1563s2.0409-1.8275 2.58048-3.0867l.753-1.757-.753-1.757c-.53958-1.25925-1.4368-2.33248-2.58048-3.0867s-2.48354-1.15626-3.85352-1.1563h-.725v-2h.725c1.76132.00008 3.48391.51698 4.9543 1.48663 1.47038.96965 2.6239 2.34944 3.3177 3.96837l.003.005.003-.006c.6082-1.4192 1.5713-2.65806 2.7967-3.59746s2.6718-1.54774 4.2003-1.76654v-2.09l5 3-5 3v-1.883c-1.1331.20994-2.1969.69639-3.0968 1.41615-.9.71977-1.6083 1.65059-2.0622 2.70985l-.753 1.757.753 1.757c.4539 1.0593 1.1622 1.9901 2.0622 2.7098.8999.7198 1.9637 1.2063 3.0968 1.4162z" /></svg>