<svg fill="currentColor" height="24" viewBox="0 0 24 24" width="24" xmlns="http://www.w3.org/2000/svg" xmlns:xlink="http://www.w3.org/1999/xlink"><clipPath id="a"><path d="m0 0h24v24h-24z"/></clipPath><g clip-path="url(#a)"><path d="m6.265 10.6078 1.147 4.1795c-1.39382 2.4882-2.44024 6.0448-2.98726 10.1531s-.56614 8.5543-.05459 12.6922c.51156 4.1379 1.52714 7.7521 2.89922 10.3177 1.37209 2.5655 3.02923 3.9488 4.73063 3.9488s3.3585-1.3833 4.7306-3.9488c1.3721-2.5656 2.3877-6.1798 2.8993-10.3177.5115-4.1379.4924-8.5839-.0546-12.6922-.5471-4.1083-1.5935-7.6649-2.9873-10.1531l1.147-4.1795c1.318 2.3497 2.3939 5.4761 3.1365 9.1134.7425 3.6374 1.1297 7.6781 1.1285 11.7788 0 14.0836-4.477 25.5-10 25.5s-10-11.4164-10-25.5c-.00116-4.1007.38599-8.1414 1.12853-11.7788.74254-3.6373 1.81852-6.7637 3.13647-9.1134zm4.735 20.8922v-25.5h2v25.5z" /></g></svg>