<svg fill="currentColor" height="24" viewBox="0 0 24 24" width="24" xmlns="http://www.w3.org/2000/svg"><path d="m6.116 20.087c-1.27597-.9271-2.31418-2.1433-3.02961-3.549-.71542-1.4056-1.08772-2.9608-1.08639-4.538 0-5.523 4.477-10 10-10s10 4.477 10 10c.0013 1.5772-.371 3.1324-1.0864 4.538-.7154 1.4057-1.7536 2.6219-3.0296 3.549l-1.015-1.739c1.3264-1.0174 2.3008-2.4248 2.7862-4.0244.4855-1.5996.4577-3.3111-.0795-4.89413-.5372-1.58299-1.5568-2.95794-2.9156-3.93171-1.3588-.97376-2.9884-1.49742-4.6601-1.49742s-3.30133.52366-4.6601 1.49742c-1.35876.97377-2.37836 2.34872-2.91556 3.93171-.5372 1.58303-.56502 3.29453-.07956 4.89413.48547 1.5996 1.45983 3.007 2.78622 4.0244zm2.034-3.485c-.94497-.7906-1.62366-1.8529-1.94384-3.0426-.32019-1.1898-.26636-2.4492.15419-3.6073.42054-1.15807 1.18741-2.1586 2.1964-2.86566 1.00899-.70705 2.21115-1.08634 3.44325-1.08634s2.4343.37929 3.4433 1.08634c1.009.70706 1.7758 1.70759 2.1964 2.86566.4205 1.1581.4743 2.4175.1542 3.6073-.3202 1.1897-.9989 2.252-1.9439 3.0426l-1.03-1.766c.5618-.5585.9451-1.2711 1.1014-2.0477s.0784-1.5821-.2236-2.3144c-.3021-.73225-.8147-1.35838-1.473-1.79895-.6584-.44058-1.4327-.67578-2.2248-.67578s-1.5664.2352-2.22475.67578c-.65831.44057-1.17099 1.0667-1.47304 1.79895-.30205.7323-.37987 1.5378-.2236 2.3144s.5396 1.4892 1.10139 2.0477zm2.85-3.602h2v9h-2z" /></svg>