<svg fill="currentColor" height="24" viewBox="0 0 24 24" width="24" xmlns="http://www.w3.org/2000/svg"><path d="m2.80843 1.39301 17.67697 17.67799-1.414 1.414-3.683-3.682-3.388 4.197-11.30997-14.00299c.914-.74 1.902-1.391 2.95-1.942l-2.246-2.247 1.415-1.415zm.771 5.999 8.42097 10.42499 1.967-2.437-8.83497-8.83599c-.532.254-1.05.536-1.552.848zm8.42097-4.392c4.284 0 8.22 1.49699 11.31 3.996l-5.407 6.69299-1.422-1.422 3.939-4.87599c-2.498-1.55-5.393-2.391-8.42-2.391-.873 0-1.735.07-2.57997.207l-1.695-1.697c1.369-.333 2.80197-.51 4.27497-.51z" /></svg>