<svg fill="currentColor" height="24" viewBox="0 0 24 24" width="24" xmlns="http://www.w3.org/2000/svg"><path d="m6 4v16h12v-12.172l-3.828-3.828zm-1-2h10l4.707 4.707c.1876.18749.2929.44181.293.707v13.586c0 .2652-.1054.5196-.2929.7071s-.4419.2929-.7071.2929h-14c-.26522 0-.51957-.1054-.70711-.2929-.18753-.1875-.29289-.4419-.29289-.7071v-18c0-.26522.10536-.51957.29289-.70711.18754-.18753.44189-.29289.70711-.29289zm8 8v8h-2v-6h-3v-2zm-5 3h2v2h-2zm6 0h2v2h-2zm0-3h2v2h-2zm-6 6h2v2h-2zm6 0h2v2h-2z" /></svg>