<svg fill="currentColor" height="24" viewBox="0 0 24 24" width="24" xmlns="http://www.w3.org/2000/svg"><path d="m12.032 12-3.032-2.14v4.28zm-4.532 5.535c-.13261 0-.25979-.0527-.35355-.1464-.09377-.0938-.14645-.221-.14645-.3536v-10.07c-.00005-.09162.02507-.18149.07263-.2598.04755-.07831.11571-.14205.19703-.18426s.17267-.06126.26408-.05508c.09141.00619.17937.03737.25426.09014l7.133 5.036c.0652.0462.1184.1074.1551.1783.0367.071.0559.1498.0559.2297s-.0192.1587-.0559.2297c-.0367.0709-.0899.1321-.1551.1783l-7.133 5.036c-.08432.0593-.18491.0911-.288.091zm8.5-10.535c0-.26522.1054-.51957.2929-.70711.1875-.18753.4419-.29289.7071-.29289s.5196.10536.7071.29289c.1875.18754.2929.44189.2929.70711v10c0 .2652-.1054.5196-.2929.7071s-.4419.2929-.7071.2929-.5196-.1054-.7071-.2929-.2929-.4419-.2929-.7071z" /></svg>