<svg fill="currentColor" height="24" viewBox="0 0 24 24" width="24" xmlns="http://www.w3.org/2000/svg"><path d="m7 6c.26522 0 .51957.10536.70711.29289.18753.18754.29289.44189.29289.70711v10c0 .2652-.10536.5196-.29289.7071-.18754.1875-.44189.2929-.70711.2929s-.51957-.1054-.70711-.2929c-.18753-.1875-.29289-.4419-.29289-.7071v-10c0-.26522.10536-.51957.29289-.70711.18754-.18753.44189-.29289.70711-.29289zm2.079 6.408c-.06521-.0462-.1184-.1074-.15511-.1783-.03671-.071-.05586-.1498-.05586-.2297s.01915-.1587.05586-.2297c.03671-.0709.0899-.1321.15511-.1783l7.133-5.036c.0749-.05277.1628-.08395.2543-.09014.0914-.00618.1827.01287.264.05508.0814.04221.1495.10595.1971.18426.0475.07831.0727.16818.0726.2598v10.07c.0001.0916-.0251.1815-.0726.2598-.0476.0783-.1157.1421-.1971.1843-.0813.0422-.1726.0612-.264.055-.0915-.0061-.1794-.0373-.2543-.0901z" /></svg>