<svg fill="currentColor" height="24" viewBox="0 0 24 24" width="24" xmlns="http://www.w3.org/2000/svg"><path d="m16 12.667-10.223 6.815c-.07529.0501-.16277.0788-.25311.0832-.09034.0043-.18016-.016-.25989-.0587-.07973-.0426-.1464-.1062-.19289-.1837-.04649-.0776-.07106-.1664-.07111-.2568v-14.132c.00005-.09044.02462-.17918.07111-.25676s.11316-.14109.19289-.18378.16955-.06295.25989-.05863.17782.03307.25311.08317l10.223 6.815v-6.333c0-.26522.1054-.51957.2929-.70711.1875-.18753.4419-.29289.7071-.29289s.5196.10536.7071.29289c.1875.18754.2929.44189.2929.70711v14c0 .2652-.1054.5196-.2929.7071s-.4419.2929-.7071.2929-.5196-.1054-.7071-.2929-.2929-.4419-.2929-.7071zm-9-4.93v8.526l6.394-4.263z" /></svg>