<svg fill="currentColor" height="24" viewBox="0 0 24 24" width="24" xmlns="http://www.w3.org/2000/svg"><path d="m8 11.333 10.223-6.815c.0753-.0501.1628-.07885.2531-.08317s.1802.01594.2599.05863.1464.1062.1929.18378.0711.16632.0711.25676v14.132c0 .0904-.0246.1792-.0711.2568-.0465.0775-.1132.1411-.1929.1837-.0797.0427-.1696.063-.2599.0587-.0903-.0044-.1778-.0331-.2531-.0832l-10.223-6.815v6.333c0 .2652-.10536.5196-.29289.7071-.18754.1875-.44189.2929-.70711.2929s-.51957-.1054-.70711-.2929c-.18753-.1875-.29289-.4419-.29289-.7071v-14c0-.26522.10536-.51957.29289-.70711.18754-.18753.44189-.29289.70711-.29289s.51957.10536.70711.29289c.18753.18754.29289.44189.29289.70711zm9 4.93v-8.526l-6.394 4.263z" /></svg>