<svg fill="currentColor" height="24" viewBox="0 0 24 24" width="24" xmlns="http://www.w3.org/2000/svg"><path d="m20 12c0-2.12173-.8429-4.15656-2.3431-5.65685-1.5003-1.5003-3.5352-2.34315-5.6569-2.34315-2.12173 0-4.15656.84285-5.65685 2.34315-1.5003 1.50029-2.34315 3.53512-2.34315 5.65685v4h3c.26522 0 .51957.1054.70711.2929.18753.1875.29289.4419.29289.7071v3h8v-3c0-.2652.1054-.5196.2929-.7071s.4419-.2929.7071-.2929h3zm-2 6v3c0 .2652-.1054.5196-.2929.7071s-.4419.2929-.7071.2929h-10c-.26522 0-.51957-.1054-.70711-.2929-.18753-.1875-.29289-.4419-.29289-.7071v-3h-3c-.26522 0-.51957-.1054-.70711-.2929-.18753-.1875-.29289-.4419-.29289-.7071v-5c0-5.523 4.477-10 10-10s10 4.477 10 10v5c0 .2652-.1054.5196-.2929.7071s-.4419.2929-.7071.2929zm-10.5-4c-.19698 0-.39204-.0388-.57403-.1142-.18198-.0754-.34734-.1859-.48663-.3251-.13929-.1393-.24978-.3047-.32516-.4867s-.11418-.377-.11418-.574.0388-.392.11418-.574.18587-.3474.32516-.4867c.13929-.1392.30465-.2497.48663-.3251.18199-.0754.37705-.1142.57403-.1142.39782 0 .77936.158 1.06066.4393s.43934.6629.43934 1.0607-.15804.7794-.43934 1.0607-.66284.4393-1.06066.4393zm9 0c-.197 0-.392-.0388-.574-.1142s-.3474-.1859-.4867-.3251c-.1392-.1393-.2497-.3047-.3251-.4867s-.1142-.377-.1142-.574.0388-.392.1142-.574.1859-.3474.3251-.4867c.1393-.1392.3047-.2497.4867-.3251s.377-.1142.574-.1142c.3978 0 .7794.158 1.0607.4393s.4393.6629.4393 1.0607-.158.7794-.4393 1.0607-.6629.4393-1.0607.4393z" /></svg>