<svg fill="currentColor" height="24" viewBox="0 0 24 24" width="24" xmlns="http://www.w3.org/2000/svg"><path d="m12 2c5.523 0 10 4.477 10 10v3.764c0 .3715-.1035.7356-.2988 1.0516-.1954.316-.4749.5713-.8072.7374l-2.894 1.447v1c0 .7652-.2923 1.5015-.8173 2.0583-.5249.5567-1.2428.8918-2.0067.9367l-.226.005c.022-.1089.0367-.2191.044-.33l.006-.17v-.5c.0002-.5046-.1904-.9906-.5335-1.3605-.3431-.37-.8133-.5967-1.3165-.6345l-.15-.005h-2c-.5046-.0002-.9906.1904-1.36055.5335-.36998.3431-.59661.8133-.63445 1.3165l-.005.15v.5c0 .171.017.339.05.5h-.05c-.79565 0-1.55871-.3161-2.12132-.8787s-.87868-1.3257-.87868-2.1213v-1l-2.894-1.447c-.33247-.1661-.61206-.4216-.80742-.7378s-.29875-.6805-.29858-1.0522v-3.763c0-5.523 4.477-10 10-10zm-4 9c-.53043 0-1.03914.2107-1.41421.5858-.37508.3751-.58579.8838-.58579 1.4142s.21071 1.0391.58579 1.4142c.37507.3751.88378.5858 1.41421.5858s1.03914-.2107 1.41421-.5858c.37508-.3751.58579-.8838.58579-1.4142s-.21071-1.0391-.58579-1.4142c-.37507-.3751-.88378-.5858-1.41421-.5858zm8 0c-.5304 0-1.0391.2107-1.4142.5858s-.5858.8838-.5858 1.4142.2107 1.0391.5858 1.4142.8838.5858 1.4142.5858 1.0391-.2107 1.4142-.5858.5858-.8838.5858-1.4142-.2107-1.0391-.5858-1.4142-.8838-.5858-1.4142-.5858z" /></svg>