<svg fill="currentColor" height="24" viewBox="0 0 24 24" width="24" xmlns="http://www.w3.org/2000/svg"><path d="m13.3102 20.4002c-1.3223.2065-2.6747.0979-3.94712-.317-1.27239-.4149-2.42883-1.1244-3.37517-2.0708-.94635-.9463-1.65586-2.1028-2.07078-3.3752s-.52352-2.6247-.31697-3.947c-.52127-.99153-.71175-2.12376-.54359-3.23123.16815-1.10747.68612-2.13213 1.4782-2.9242.79207-.79208 1.81673-1.31005 2.9242-1.4782 1.10747-.16816 2.2397.02232 3.23123.54359 1.3223-.20655 2.6746-.09795 3.947.31697s2.4289 1.12443 3.3752 2.07078c.9464.94634 1.6559 2.10278 2.0708 3.37517.4149 1.27242.5235 2.62482.317 3.94712.5212.9914.7117 2.1237.5435 3.2311-.1681 1.1075-.6861 2.1322-1.4782 2.9242-.792.7921-1.8167 1.3101-2.9242 1.4782-1.1074.1682-2.2397-.0223-3.2311-.5435zm-1.258-3.244h-.04c2.872 0 4.303-1.386 4.303-3.243 0-1.198-.551-2.471-2.726-2.958l-1.983-.44c-.755-.172-1.62204-.4-1.62204-1.11504 0-.715.62004-1.213 1.72404-1.213 2.23 0 2.027 1.528 3.131 1.528.576 0 1.093-.342 1.093-.93 0-1.37-2.197-2.4-4.056-2.4-2.02104 0-4.17304.859-4.17304 3.144 0 1.09804.394 2.27004 2.56004 2.81304l2.689.671c.816.202 1.018.659 1.018 1.072 0 .687-.684 1.358-1.918 1.358-2.41704 0-2.07804-1.857-3.37404-1.857-.58 0-1.003.398-1.003.971 0 1.114 1.352 2.598 4.37704 2.598z" /></svg>