<svg fill="currentColor" height="24" viewBox="0 0 24 24" width="24" xmlns="http://www.w3.org/2000/svg"><path d="m13.0042 18.4232c.4238-.0655.8575.0071 1.237.207.6137.3226 1.3146.4405 2.0002.3364.6855-.1041 1.3198-.4247 1.8101-.9151.4904-.4903.811-1.1246.9151-1.8101.1041-.6856-.0138-1.3865-.3364-2.0002-.1999-.3795-.2725-.8132-.207-1.237.1583-1.0115.0754-2.0461-.2418-3.01945-.3172-.97338-.8599-1.85806-1.5839-2.58198-.7239-.72392-1.6086-1.26661-2.5819-1.58385-.9734-.31725-2.008-.40008-3.0194-.24176-.4239.06541-.8576-.00716-1.23704-.207-.61387-.32291-1.31495-.44095-2.00072-.33687-.68577.10409-1.32024.42485-1.81065.91537s-.81102 1.12507-.91495 1.81086.01427 1.38684.33732 2.00064c.19984.37944.27241.81314.207 1.23704-.15832 1.0114-.07549 2.046.24176 3.0194.31724.9733.85993 1.858 1.58385 2.5819.72392.724 1.6086 1.2667 2.58198 1.5839.97335.3172 2.00795.4001 3.01945.2418zm-1.004 2.077c-1.2272.0002-2.43983-.2653-3.55462-.7783-1.11479-.5129-2.1053-1.2611-2.90344-2.1933-.79815-.9321-1.385-2.026-1.72023-3.2064-.33523-1.1805-.41088-2.4196-.22175-3.632-.52127-.99153-.71175-2.12376-.54359-3.23123.16815-1.10747.68612-2.13213 1.4782-2.9242.79207-.79208 1.81673-1.31005 2.9242-1.4782 1.10747-.16816 2.2397.02232 3.23123.54359 1.3223-.20655 2.6746-.09795 3.947.31697s2.4289 1.12443 3.3752 2.07078c.9464.94634 1.6559 2.10278 2.0708 3.37517.4149 1.27242.5235 2.62482.317 3.94712.5212.9914.7117 2.1237.5435 3.2311-.1681 1.1075-.6861 2.1322-1.4782 2.9242-.792.7921-1.8167 1.3101-2.9242 1.4782-1.1074.1682-2.2397-.0223-3.2311-.5435-.427.066-.865.1-1.31.1zm.053-3.5c-2.80304 0-4.05304-1.38-4.05304-2.414 0-.532.39-.902.928-.902 1.20004 0 .887 1.725 3.12504 1.725 1.143 0 1.776-.624 1.776-1.261 0-.384-.188-.808-.943-.996l-2.49-.623c-2.00604-.504-2.37004-1.592-2.37004-2.61204 0-2.12 1.99204-2.917 3.86404-2.917 1.72 0 3.756.956 3.756 2.228 0 .545-.48.86304-1.012.86304-1.023 0-.835-1.41804-2.9-1.41804-1.023 0-1.596.462-1.596 1.126 0 .66304.803.87604 1.502 1.03504l1.836.409c2.014.452 2.524 1.633 2.524 2.746 0 1.724-1.325 3.011-3.985 3.011z" /></svg>