<svg fill="currentColor" height="24" viewBox="0 0 24 24" width="24" xmlns="http://www.w3.org/2000/svg"><path d="m6.52677 14.5138c-.00184.521-.2097 1.0201-.57822 1.3885-.36851.3683-.86776.5759-1.38878.5775-.52119-.0016-1.02059-.2094-1.38913-.5779s-.57628-.8679-.57787-1.3891c0-1.083.884-1.968 1.967-1.968h1.968v1.968zm.992 0c0-1.083.884-1.968 1.967-1.968 1.08303 0 1.96803.885 1.96803 1.968v4.927c-.0016.5213-.2095 1.0209-.5783 1.3895-.3687.3685-.8684.5762-1.38973.5775-.52119-.0016-1.02059-.2094-1.38913-.5779s-.57628-.8679-.57787-1.3891zm1.967-7.98703c-.52102-.00184-1.02016-.2097-1.38848-.57822-.36833-.36851-.57594-.86776-.57752-1.38878 0-1.083.884-1.967 1.967-1.967 1.08303 0 1.96803.884 1.96803 1.967v1.968h-1.96903zm0 .992c1.08303 0 1.96803.884 1.96803 1.967-.0013.52153-.2091 1.02133-.5779 1.39013s-.8686.5766-1.39013.5779h-4.926c-.52136-.0016-1.02091-.2095-1.38948-.5783-.36857-.3687-.5762-.8684-.57752-1.38973 0-1.083.884-1.967 1.967-1.967h4.927zm7.98703 1.967c0-1.083.885-1.967 1.968-1.967s1.967.884 1.967 1.967c-.0013.52133-.209 1.02103-.5775 1.38973-.3686.3688-.8682.5767-1.3895.5783h-1.968zm-.992 0c-.0013.52133-.209 1.02103-.5775 1.38973-.3686.3688-.8682.5767-1.3895.5783-.5216-.0013-1.0214-.2091-1.3902-.5779-.3687-.3688-.5765-.8686-.5778-1.39013v-4.926c0-1.083.885-1.967 1.968-1.967s1.967.884 1.967 1.967v4.927zm-1.967 7.98703c1.083 0 1.967.885 1.967 1.968-.0016.5212-.2094 1.0206-.5779 1.3891s-.8679.5763-1.3891.5779c-.5214-.0013-1.021-.209-1.3898-.5775-.3688-.3686-.5766-.8682-.5782-1.3895v-1.968zm0-.992c-.5214-.0013-1.021-.209-1.3898-.5775-.3688-.3686-.5766-.8682-.5782-1.3895 0-1.083.885-1.968 1.968-1.968h4.927c1.083 0 1.967.885 1.967 1.968-.0016.5212-.2094 1.0206-.5779 1.3891s-.8679.5763-1.3891.5779z" /></svg>