<svg fill="currentColor" height="24" viewBox="0 0 24 24" width="24" xmlns="http://www.w3.org/2000/svg"><path d="m14.5 3c.3978 0 .7794.15804 1.0607.43934s.4393.66284.4393 1.06066v5c0 .39782-.158.7794-.4393 1.0607s-.6629.4393-1.0607.4393-.7794-.158-1.0607-.4393-.4393-.66288-.4393-1.0607v-5c0-.39782.158-.77936.4393-1.06066s.6629-.43934 1.0607-.43934zm-10 10h1.5v1.5c0 .2967-.08797.5867-.2528.8334-.16482.2466-.39909.4389-.67317.5524-.27409.1136-.57569.1433-.86666.0854-.29098-.0579-.55825-.2008-.76803-.4105-.20978-.2098-.35264-.4771-.41052-.7681-.05788-.2909-.02817-.5925.08536-.8666s.30579-.5084.55247-.6732c.24667-.1648.53668-.2528.83335-.2528zm8.5 5h1.5c.2967 0 .5867.088.8334.2528.2466.1648.4389.3991.5524.6732.1136.2741.1433.5757.0854.8666-.0579.291-.2008.5583-.4105.7681-.2098.2097-.4771.3526-.7681.4105-.2909.0579-.5925.0281-.8666-.0854s-.5084-.3058-.6732-.5524c-.1648-.2467-.2528-.5367-.2528-.8334zm1.5-5h5c.3978 0 .7794.158 1.0607.4393s.4393.6629.4393 1.0607-.158.7794-.4393 1.0607-.6629.4393-1.0607.4393h-5c-.3978 0-.7794-.158-1.0607-.4393s-.4393-.6629-.4393-1.0607.158-.7794.4393-1.0607.6629-.4393 1.0607-.4393zm5-5c.3978 0 .7794.15804 1.0607.43934s.4393.66284.4393 1.06066-.158.7794-.4393 1.0607-.6629.4393-1.0607.4393h-1.5v-1.5c0-.39782.158-.77936.4393-1.06066s.6629-.43934 1.0607-.43934zm-15 0h5c.39783 0 .7794.15804 1.0607.43934s.4393.66284.4393 1.06066-.158.7794-.4393 1.0607-.66287.4393-1.0607.4393h-5c-.39782 0-.77935-.158-1.06066-.4393-.2813-.2813-.43934-.66288-.43934-1.0607s.15804-.77936.43934-1.06066c.28131-.2813.66284-.43934 1.06066-.43934zm5-5c.39783 0 .7794.15804 1.0607.43934s.4393.66284.4393 1.06066v1.5h-1.5c-.39782 0-.77936-.15804-1.06066-.43934s-.43934-.66284-.43934-1.06066.15804-.77936.43934-1.06066.66284-.43934 1.06066-.43934zm0 10c.39783 0 .7794.158 1.0607.4393s.4393.6629.4393 1.0607v5c0 .3978-.158.7794-.4393 1.0607s-.66287.4393-1.0607.4393c-.39782 0-.77936-.158-1.06066-.4393s-.43934-.6629-.43934-1.0607v-5c0-.3978.15804-.7794.43934-1.0607s.66284-.4393 1.06066-.4393z" /></svg>