<svg fill="currentColor" height="24" viewBox="0 0 24 24" width="24" xmlns="http://www.w3.org/2000/svg"><path d="m13 21v2h-2v-2h-8c-.26522 0-.51957-.1054-.70711-.2929-.18753-.1875-.29289-.4419-.29289-.7071v-14h20v14c0 .2652-.1054.5196-.2929.7071s-.4419.2929-.7071.2929zm-9-2h16v-11h-16zm9-9h5v2h-5zm0 4h5v2h-5zm-4-4v3h3c0 .5933-.1759 1.1734-.5056 1.6667-.3296.4934-.7982.8779-1.3463 1.1049-.54823.2271-1.15143.2865-1.73337.1708-.58194-.1158-1.11649-.4015-1.53605-.8211-.41956-.4195-.70528-.9541-.82104-1.536-.11575-.582-.05634-1.1852.17072-1.7334.22706-.5481.61158-1.0167 1.10493-1.3463.49335-.3297 1.07337-.5056 1.66671-.5056zm-7-7h20v2h-20z" /></svg>