<svg fill="currentColor" height="24" viewBox="0 0 24 24" width="24" xmlns="http://www.w3.org/2000/svg"><path d="m8.17 3c.20701-.58507.59032-1.09158 1.09715-1.44976.50682-.35818 1.11225-.550419 1.73285-.55024h2c1.306 0 2.417.835 2.83 2h5.17c.2652 0 .5196.10536.7071.29289.1875.18754.2929.44189.2929.70711v16c0 .2652-.1054.5196-.2929.7071s-.4419.2929-.7071.2929h-18c-.26522 0-.51957-.1054-.70711-.2929-.18753-.1875-.29289-.4419-.29289-.7071v-16c0-.26522.10536-.51957.29289-.70711.18754-.18753.44189-.29289.70711-.29289zm-4.17 2v14h16v-14h-4.17c-.207.58507-.5903 1.09158-1.0971 1.44976-.5069.35818-1.1123.55042-1.7329.55024h-2c-.6206.00018-1.22603-.19206-1.73285-.55024-.50683-.35818-.89014-.86469-1.09715-1.44976zm7-2c-.2652 0-.5196.10536-.7071.29289-.1875.18754-.2929.44189-.2929.70711s.1054.51957.2929.70711c.1875.18753.4419.29289.7071.29289h2c.2652 0 .5196-.10536.7071-.29289.1875-.18754.2929-.44189.2929-.70711s-.1054-.51957-.2929-.70711c-.1875-.18753-.4419-.29289-.7071-.29289zm-1 6 5 3-5 3z" /></svg>