<svg fill="currentColor" height="24" viewBox="0 0 24 24" width="24" xmlns="http://www.w3.org/2000/svg"><path d="m13 21v2h-2v-2h-8c-.26522 0-.51957-.1054-.70711-.2929-.18753-.1875-.29289-.4419-.29289-.7071v-14h20v14c0 .2652-.1054.5196-.2929.7071s-.4419.2929-.7071.2929zm-5-11c-.59334 0-1.17336.1759-1.66671.5056-.49335.3296-.87787.7982-1.10493 1.3463-.22706.5482-.28647 1.1514-.17072 1.7334.11576.5819.40148 1.1165.82104 1.536.41956.4196.95411.7053 1.53605.8211.58194.1157 1.18514.0563 1.73332-.1708.54818-.227 1.01675-.6115 1.34635-1.1049.3297-.4933.5056-1.0734.5056-1.6667h-3zm5 0v2h6v-2zm0 4v2h6v-2zm-11-11h20v2h-20z" /></svg>