<svg fill="currentColor" height="24" viewBox="0 0 24 24" width="24" xmlns="http://www.w3.org/2000/svg"><path d="m11.8708 21.764c-1.19 0-1.98404-.561-2.69304-1.056-.503-.357-.976-.696-1.533-.79-.2652-.0456-.53391-.0677-.803-.066-.472 0-.847.071-1.114.125-.17.03-.312.058-.424.058-.116 0-.263-.032-.32-.228-.05-.16-.081-.312-.112-.459-.08-.37-.147-.597-.286-.62-1.489-.227-2.38-.57-2.554-.976-.014-.044-.031-.09-.031-.125-.01-.125.08-.227.205-.25 1.181-.196 2.242-.824 3.138-1.858.696-.803 1.035-1.579 1.066-1.663 0-.01.009-.01.009-.01.17-.351.205-.65.102-.895-.191-.46-.825-.656-1.257-.79-.111-.03-.205-.066-.285-.093-.37-.147-.986-.46-.905-.892.058-.312.472-.535.811-.535.094 0 .174.014.24.05.38.173.723.262 1.017.262.366 0 .54-.138.584-.182-.00931-.1978-.02098-.3955-.035-.593-.09-1.365-.192-3.059.24-4.03 1.298-2.907 4.05304-3.14 4.86904-3.14l.356-.008h.05c.815 0 3.57.227 4.868 3.139.437.971.33 2.67.24 4.03l-.008.067c-.01.182-.023.356-.032.535.045.035.205.169.535.173.286-.008.598-.102.954-.263.0985-.0426.2046-.0651.312-.066.125 0 .25.03.357.066h.009c.299.112.495.321.495.54.009.205-.152.517-.914.825-.08.03-.174.067-.285.093-.424.13-1.057.335-1.258.79-.111.24-.066.548.103.895 0 .01.009.01.009.01.049.124 1.337 3.049 4.204 3.526.0586.0099.1116.0406.1493.0866s.0575.104.0557.1634c0 .044-.009.089-.031.129-.174.41-1.057.744-2.555.976-.138.022-.205.25-.285.62-.0321.1542-.0694.3073-.112.459-.044.147-.138.227-.298.227h-.023c-.102 0-.24-.013-.423-.049-.3665-.0781-.7403-.117-1.115-.116-.263 0-.535.023-.802.067-.553.09-1.03.433-1.534.79-.717.49-1.515 1.051-2.697 1.051z" /></svg>