<svg fill="currentColor" height="24" viewBox="0 0 24 24" width="24" xmlns="http://www.w3.org/2000/svg"><path d="m6.02669 17.43c-1.72463-.6923-3.15458-1.9632-4.04451-3.5946-.88992-1.6314-1.184342-3.5217-.83274-5.34655.3516-1.82481 1.3273-3.47038 2.75969-4.65437s3.23218-1.83257 5.09056-1.83448c1.61201-.00009 3.18651.48665 4.51731 1.39648s2.3557 2.20034 2.9407 3.70252c1.4075-.13211 2.8119.28286 3.9216 1.15879s1.8395 2.14551 2.0379 3.54531c.1984 1.3997-.1498 2.8221-.9724 3.9719-.8225 1.1498-2.0563 1.9387-3.4451 2.203-.005-1.5404-.6021-3.0199-1.6679-4.132-1.0658-1.1122-2.5185-1.7719-4.0573-1.8425-1.5387-.0705-3.0457.4535-4.20877 1.4634-1.16308 1.01-1.89316 2.4286-2.03904 3.9621zm6.97301-1.163 1.964-1.134 1 1.732-1.964 1.135 1.964 1.134-1 1.732-1.964-1.134v2.268h-2v-2.268l-1.96401 1.134-1-1.732 1.964-1.134-1.964-1.134 1-1.732 1.96401 1.134v-2.268h2v2.268z" /></svg>