<svg fill="currentColor" height="24" viewBox="0 0 24 24" width="24" xmlns="http://www.w3.org/2000/svg"><path d="m12.9998 16.268 1.964-1.134 1 1.732-1.964 1.134 1.964 1.134-1 1.732-1.964-1.134v2.268h-2v-2.268l-1.96401 1.134-1-1.732 1.964-1.134-1.964-1.134 1-1.732 1.96401 1.134v-2.268h2zm4 1.732v-2h.5c.577-.0001 1.1451-.1429 1.6536-.4156.5086-.2727.9418-.6669 1.2611-1.1475.3193-.4807.5149-1.0328.5692-1.6073.0544-.5744-.0341-1.1534-.2577-1.6854-.2235-.532-.5751-1.0005-1.0234-1.36372-.4484-.36325-.9796-.61001-1.5464-.71832s-1.1515-.0748-1.7022.09754-1.0503.47817-1.4542.8903v-.05004c-.0004-1.09991-.3031-2.17854-.8751-3.11802s-1.3912-1.70366-2.3681-2.20902c-.977-.50536-2.07401-.73246-3.17128-.65648-1.09728.07598-2.15255.45211-3.0505 1.0873-.89796.63519-1.60403 1.50499-2.04106 2.51434s-.58821 2.11941-.437 3.20882c.15121 1.0895.59898 2.1164 1.29437 2.9686.6954.8522 1.61167 1.4968 2.64866 1.8635v2.089c-1.32629-.3432-2.54222-1.0213-3.5313-1.9692s-1.71815-2.134-2.11737-3.4445c-.399225-1.3105-.455215-2.70158-.16261-4.03994.29261-1.33836.92401-2.57915 1.83371-3.6035.90969-1.02434 2.0672-1.79791 3.36162-2.24659 1.29441-.44868 2.68237-.55743 4.03086-.31584 1.3485.2416 2.6124.82545 3.6705 1.6956 1.0582.87016 1.8751 1.99747 2.3726 3.27393.752-.1439 1.5258-.12918 2.2719.04321.746.17239 1.4478.49865 2.0605.95789.6127.45925 1.1227 1.04136 1.4974 1.70907.3748.66767.606 1.40637.6788 2.16857.0729.7622-.0142 1.5312-.2557 2.2578s-.632 1.3948-1.1466 1.9618-1.1419 1.0203-1.8417 1.3309c-.6999.3106-1.4569.4716-2.2226.4728l-.5.001z" /></svg>