<svg fill="currentColor" height="24" viewBox="0 0 24 24" width="24" xmlns="http://www.w3.org/2000/svg"><path d="m10.464 8.59606c.265 0 .48 2.10604.48 4.70404l-.001.351c-.019 2.434-.226 4.353-.479 4.353-.256 0-.465-1.965-.48-4.44v-.352c.005-2.558.218-4.61604.48-4.61604zm-1.664.96c.259 0 .47 1.80004.48 4.05404v.34c-.01 2.254-.221 4.054-.48 4.054-.255 0-.464-1.755-.48-3.97v-.34l.002-.34c.025-2.133.23-3.79804.478-3.79804zm-1.664 0c.255 0 .464 1.75504.48 3.97004v.34l-.002.34c-.025 2.133-.23 3.798-.478 3.798-.259 0-.47-1.8-.48-4.054v-.34c.01-2.254.221-4.05404.48-4.05404zm-1.664.57604c.265 0 .48 1.762.48 3.936l-.002.335c-.02 2.017-.227 3.601-.478 3.601-.262 0-.474-1.717-.48-3.852v-.168c.006-2.135.218-3.852.48-3.852zm-1.664 1.728c.265 0 .48 1.375.48 3.072v.158c-.013 1.623-.223 2.914-.48 2.914-.265 0-.48-1.375-.48-3.072v-.158c.013-1.623.223-2.914.48-2.914zm10.784-4.80003c2.58 0 4.72 1.88599 5.118 4.35403.4594-.1319.9417-.1642 1.4147-.0948.4729.0694.9256.2389 1.3277.4972.4022.2583.7447.5995 1.0045 1.0006.2599.4012.4311.8532.5024 1.3259.0712.4727.0408.9551-.0893 1.415-.1301.46-.3568.8869-.665 1.2522-.3082.3654-.6908.6608-1.1223.8665-.4314.2057-.9018.3169-1.3797.3264l-.063.001h-8.16c-.2037 0-.399-.0809-.5431-.225-.144-.144-.2249-.3393-.2249-.543v-9.30303c.8519-.5707 1.8546-.87463 2.88-.873zm-12.448 4.60803c.265 0 .48 1.332.48 2.976v.156c-.014 1.57-.223 2.82-.48 2.82-.26 0-.473-1.29-.48-2.898v-.078c0-1.644.215-2.976.48-2.976zm-1.664.96c.265 0 .48.946.48 2.112v.131c-.016 1.105-.225 1.981-.48 1.981-.265 0-.48-.946-.48-2.112v-.131c.016-1.105.225-1.981.48-1.981z" /></svg>