<svg fill="currentColor" height="24" viewBox="0 0 24 24" width="24" xmlns="http://www.w3.org/2000/svg" xmlns:xlink="http://www.w3.org/1999/xlink"><clipPath id="a"><path d="m0 0h24v24h-24z"/></clipPath><g clip-path="url(#a)"><path d="m4 10c.26522 0 .51957.1054.70711.2929.18753.1875.29289.4419.29289.7071v7c0 .2652-.10536.5196-.29289.7071-.18754.1876-.44189.2929-.70711.2929s-.51957-.1053-.70711-.2929c-.18753-.1875-.29289-.4419-.29289-.7071v-7c0-.2652.10536-.5196.29289-.7071.18754-.1875.44189-.2929.70711-.2929zm3 1c.26522 0 .51957.1054.70711.2929.18753.1875.29289.4419.29289.7071v6c0 .2652-.10536.5196-.29289.7071-.18754.1876-.44189.2929-.70711.2929s-.51957-.1053-.70711-.2929c-.18753-.1875-.29289-.4419-.29289-.7071v-6c0-.2652.10536-.5196.29289-.7071.18754-.1875.44189-.2929.70711-.2929zm3-3.99999c.2652 0 .5196.10536.7071.29289.1875.18754.2929.44189.2929.70711v9.99999c0 .2652-.1054.5196-.2929.7071-.1875.1876-.4419.2929-.7071.2929-.26522 0-.51957-.1053-.70711-.2929-.18753-.1875-.29289-.4419-.29289-.7071v-9.99999c0-.26522.10536-.51957.29289-.70711.18754-.18753.44189-.29289.70711-.29289zm5-1c1.5524-.00006 3.0444.60156 4.1625 1.67846s1.7753 2.54523 1.8335 4.09653l.003.26c.8606.1227 1.6447.5612 2.1998 1.2302s.8413 1.5206.803 2.389c-.0383.8685-.3984 1.6916-1.0102 2.3091s-1.4316.9853-2.2996 1.0317l-.192.005h-3.501c-.2549-.0003-.5-.0979-.6854-.2728-.1853-.175-.2968-.4141-.3118-.6686-.0149-.2544.0679-.505.2315-.7004.1636-.1955.3956-.3211.6487-.3512l.118-.007h3.447l.138-.002c.3601-.0194.7011-.1678.9606-.4181.2596-.2503.4203-.5857.4527-.9448s-.0656-.7179-.2761-1.0107c-.2105-.2927-.5194-.4998-.8702-.5834l-.135-.026-1.77-.252.053-1.787-.004-.176c-.0496-.9906-.4655-1.92748-1.1669-2.62874-.7015-.70127-1.6385-1.11691-2.6291-1.16625l-.2-.005c-.268 0-.531.026-.788.077l-.212.049v9.87399c0 .2449-.09.4813-.2527.6644-.1628.183-.387.3-.6303.3286l-.117.007c-.2652 0-.5196-.1053-.7071-.2929-.1875-.1875-.2929-.4419-.2929-.7071l-.001-11.19699c.912-.52772 1.9473-.80476 3.001-.803zm-14 5.99999c.26522 0 .51957.1054.70711.2929.18753.1875.29289.4419.29289.7071v4c0 .2652-.10536.5196-.29289.7071-.18754.1876-.44189.2929-.70711.2929-.265216 0-.51957-.1053-.707107-.2929-.187536-.1875-.292893-.4419-.292893-.7071v-4c0-.2652.105357-.5196.292893-.7071.187537-.1875.441891-.2929.707107-.2929z" /></g></svg>