<svg fill="currentColor" height="24" viewBox="0 0 24 24" width="24" xmlns="http://www.w3.org/2000/svg"><path d="m2.87988 18.054c1.37619-6.0893 4.31661-11.71439 8.53102-16.32003.0749-.08152.166-.1466.2673-.19112.1014-.04452.211-.06751.3217-.06751s.2202.02299.3216.06751.1925.1096.2674.19112c.166.18.304.332.413.455 3.9965 4.52188 6.7886 9.97833 8.118 15.86503-2.141.451-4.34.747-6.584.874l-2.089 4.178c-.0416.0829-.1054.1527-.1844.2014-.0789.0487-.1698.0745-.2626.0745s-.1837-.0258-.2627-.0745c-.0789-.0487-.1427-.1185-.1843-.2014l-2.08902-4.178c-2.21354-.1251-4.41447-.4173-6.584-.874zm6.698-1.123 1.15702.066 1.265 2.53 1.265-2.53 1.157-.066c1.4157-.0801 2.8265-.2317 4.227-.454-1.3268-4.5481-3.5918-8.76779-6.649-12.38703-3.05726 3.61924-5.32225 7.83893-6.64902 12.38703 1.395.222 2.805.374 4.227.454zm2.42202-1.931c-.7957 0-1.5587-.3161-2.12134-.8787-.56261-.5626-.87868-1.3257-.87868-2.1213 0-.7957.31607-1.5587.87868-2.12135.56264-.56261 1.32564-.87868 2.12134-.87868.7956 0 1.5587.31607 2.1213.87868.5626.56265.8787 1.32565.8787 2.12135 0 .7956-.3161 1.5587-.8787 2.1213s-1.3257.8787-2.1213.8787zm0-2c.2652 0 .5196-.1054.7071-.2929.1875-.1876.2929-.4419.2929-.7071s-.1054-.5196-.2929-.7071c-.1875-.1876-.4419-.2929-.7071-.2929s-.5196.1053-.7071.2929c-.1876.1875-.2929.4419-.2929.7071s.1053.5195.2929.7071c.1875.1875.4419.2929.7071.2929z" /></svg>