<svg fill="currentColor" height="24" viewBox="0 0 24 24" width="24" xmlns="http://www.w3.org/2000/svg"><path d="m2.87988 18.054c1.37619-6.0893 4.31661-11.71439 8.53102-16.32003.0749-.08152.166-.1466.2673-.19112.1014-.04452.211-.06751.3217-.06751s.2202.02299.3216.06751.1925.1096.2674.19112c.166.18.304.332.413.455 3.9965 4.52188 6.7886 9.97833 8.118 15.86503-2.141.451-4.34.747-6.584.874l-2.089 4.178c-.0416.0829-.1054.1527-.1844.2014-.0789.0487-.1698.0745-.2626.0745s-.1837-.0258-.2627-.0745c-.0789-.0487-.1427-.1185-.1843-.2014l-2.08902-4.178c-2.21354-.1251-4.41447-.4173-6.584-.874zm9.12002-3.054c.7956 0 1.5587-.3161 2.1213-.8787s.8787-1.3257.8787-2.1213c0-.7957-.3161-1.5587-.8787-2.12135-.5626-.56261-1.3257-.87868-2.1213-.87868-.7957 0-1.5587.31607-2.12134.87868-.56261.56265-.87868 1.32565-.87868 2.12135 0 .7956.31607 1.5587.87868 2.1213.56264.5626 1.32564.8787 2.12134.8787z" /></svg>