<svg fill="currentColor" height="24" viewBox="0 0 24 24" width="24" xmlns="http://www.w3.org/2000/svg"><path d="m5 5v14h14v-14zm-1-2h16c.2652 0 .5196.10536.7071.29289.1875.18754.2929.44189.2929.70711v16c0 .2652-.1054.5196-.2929.7071s-.4419.2929-.7071.2929h-16c-.26522 0-.51957-.1054-.70711-.2929-.18753-.1875-.29289-.4419-.29289-.7071v-16c0-.26522.10536-.51957.29289-.70711.18754-.18753.44189-.29289.70711-.29289zm3 5c-.26522 0-.51957-.10536-.70711-.29289-.18753-.18754-.29289-.44189-.29289-.70711s.10536-.51957.29289-.70711c.18754-.18753.44189-.29289.70711-.29289s.51957.10536.70711.29289c.18753.18754.29289.44189.29289.70711s-.10536.51957-.29289.70711c-.18754.18753-.44189.29289-.70711.29289zm10 0c-.2652 0-.5196-.10536-.7071-.29289-.1875-.18754-.2929-.44189-.2929-.70711s.1054-.51957.2929-.70711c.1875-.18753.4419-.29289.7071-.29289s.5196.10536.7071.29289c.1875.18754.2929.44189.2929.70711s-.1054.51957-.2929.70711c-.1875.18753-.4419.29289-.7071.29289zm0 10c-.2652 0-.5196-.1054-.7071-.2929s-.2929-.4419-.2929-.7071.1054-.5196.2929-.7071.4419-.2929.7071-.2929.5196.1054.7071.2929.2929.4419.2929.7071-.1054.5196-.2929.7071-.4419.2929-.7071.2929zm-10 0c-.26522 0-.51957-.1054-.70711-.2929-.18753-.1875-.29289-.4419-.29289-.7071s.10536-.5196.29289-.7071c.18754-.1875.44189-.2929.70711-.2929s.51957.1054.70711.2929c.18753.1875.29289.4419.29289.7071s-.10536.5196-.29289.7071c-.18754.1875-.44189.2929-.70711.2929zm5-3c.7956 0 1.5587-.3161 2.1213-.8787s.8787-1.3257.8787-2.1213-.3161-1.5587-.8787-2.12132c-.5626-.56261-1.3257-.87868-2.1213-.87868s-1.5587.31607-2.12132.87868c-.56261.56262-.87868 1.32572-.87868 2.12132s.31607 1.5587.87868 2.1213c.56262.5626 1.32572.8787 2.12132.8787zm0 2c-1.3261 0-2.59785-.5268-3.53553-1.4645-.93769-.9376-1.46447-2.2094-1.46447-3.5355s.52678-2.59785 1.46447-3.53553c.93768-.93769 2.20943-1.46447 3.53553-1.46447s2.5979.52678 3.5355 1.46447c.9377.93768 1.4645 2.20943 1.4645 3.53553s-.5268 2.5979-1.4645 3.5355c-.9376.9377-2.2094 1.4645-3.5355 1.4645zm0-4c-.2652 0-.5196-.1054-.7071-.2929s-.2929-.4419-.2929-.7071.1054-.5196.2929-.7071.4419-.2929.7071-.2929.5196.1054.7071.2929.2929.4419.2929.7071-.1054.5196-.2929.7071-.4419.2929-.7071.2929z" /></svg>