<svg fill="currentColor" height="24" viewBox="0 0 24 24" width="24" xmlns="http://www.w3.org/2000/svg"><path d="m4 3h16c.2652 0 .5196.10536.7071.29289.1875.18754.2929.44189.2929.70711v16c0 .2652-.1054.5196-.2929.7071s-.4419.2929-.7071.2929h-16c-.26522 0-.51957-.1054-.70711-.2929-.18753-.1875-.29289-.4419-.29289-.7071v-16c0-.26522.10536-.51957.29289-.70711.18754-.18753.44189-.29289.70711-.29289zm8 14c-1.3261 0-2.59785-.5268-3.53553-1.4645-.93769-.9376-1.46447-2.2094-1.46447-3.5355s.52678-2.59785 1.46447-3.53553c.93768-.93769 2.20943-1.46447 3.53553-1.46447s2.5979.52678 3.5355 1.46447c.9377.93768 1.4645 2.20943 1.4645 3.53553s-.5268 2.5979-1.4645 3.5355c-.9376.9377-2.2094 1.4645-3.5355 1.4645zm0 2c.9193 0 1.8295-.1811 2.6788-.5328.8493-.3518 1.6209-.8674 2.2709-1.5175.6501-.65 1.1657-1.4216 1.5175-2.2709.3517-.8493.5328-1.7595.5328-2.6788s-.1811-1.8295-.5328-2.67878c-.3518-.84928-.8674-1.62096-1.5175-2.27097-.65-.65001-1.4216-1.16562-2.2709-1.51741-.8493-.35178-1.7595-.53284-2.6788-.53284-1.8565 0-3.63699.7375-4.94975 2.05025-1.31275 1.31276-2.05025 3.09325-2.05025 4.94975s.7375 3.637 2.05025 4.9497c1.31276 1.3128 3.09325 2.0503 4.94975 2.0503zm0-5c.5304 0 1.0391-.2107 1.4142-.5858s.5858-.8838.5858-1.4142-.2107-1.0391-.5858-1.4142-.8838-.5858-1.4142-.5858-1.0391.2107-1.4142.5858-.5858.8838-.5858 1.4142.2107 1.0391.5858 1.4142.8838.5858 1.4142.5858z" /></svg>