<svg fill="currentColor" height="24" viewBox="0 0 24 24" width="24" xmlns="http://www.w3.org/2000/svg"><path d="m5 4v16h14v-16zm-1-2h16c.2652 0 .5196.10536.7071.29289.1875.18754.2929.44189.2929.70711v18c0 .2652-.1054.5196-.2929.7071s-.4419.2929-.7071.2929h-16c-.26522 0-.51957-.1054-.70711-.2929-.18753-.1875-.29289-.4419-.29289-.7071v-18c0-.26522.10536-.51957.29289-.70711.18754-.18753.44189-.29289.70711-.29289zm8 15c.663 0 1.2989-.2634 1.7678-.7322.4688-.4689.7322-1.1048.7322-1.7678s-.2634-1.2989-.7322-1.7678c-.4689-.4688-1.1048-.7322-1.7678-.7322s-1.2989.2634-1.7678.7322c-.46881.4689-.7322 1.1048-.7322 1.7678s.26339 1.2989.7322 1.7678c.4689.4688 1.1048.7322 1.7678.7322zm0 2c-1.1935 0-2.33807-.4741-3.18198-1.318s-1.31802-1.9885-1.31802-3.182.47411-2.3381 1.31802-3.182 1.98848-1.318 3.18198-1.318 2.3381.4741 3.182 1.318 1.318 1.9885 1.318 3.182-.4741 2.3381-1.318 3.182-1.9885 1.318-3.182 1.318zm0-10.5c-.197 0-.392-.0388-.574-.11418s-.3474-.18587-.4867-.32516c-.1392-.13929-.2497-.30465-.3251-.48663-.0754-.18199-.1142-.37705-.1142-.57403s.0388-.39204.1142-.57403c.0754-.18198.1859-.34734.3251-.48663.1393-.13929.3047-.24978.4867-.32516s.377-.11418.574-.11418c.3978 0 .7794.15804 1.0607.43934s.4393.66284.4393 1.06066-.158.77936-.4393 1.06066-.6629.43934-1.0607.43934z" /></svg>