<svg fill="currentColor" height="24" viewBox="0 0 24 24" width="24" xmlns="http://www.w3.org/2000/svg"><path d="m4 2h16c.2652 0 .5196.10536.7071.29289.1875.18754.2929.44189.2929.70711v18c0 .2652-.1054.5196-.2929.7071s-.4419.2929-.7071.2929h-16c-.26522 0-.51957-.1054-.70711-.2929-.18753-.1875-.29289-.4419-.29289-.7071v-18c0-.26522.10536-.51957.29289-.70711.18754-.18753.44189-.29289.70711-.29289zm8 18c1.3261 0 2.5979-.5268 3.5355-1.4645.9377-.9376 1.4645-2.2094 1.4645-3.5355s-.5268-2.5979-1.4645-3.5355c-.9376-.9377-2.2094-1.4645-3.5355-1.4645s-2.59785.5268-3.53553 1.4645c-.93769.9376-1.46447 2.2094-1.46447 3.5355s.52678 2.5979 1.46447 3.5355c.93768.9377 2.20943 1.4645 3.53553 1.4645zm0-12c.3978 0 .7794-.15804 1.0607-.43934s.4393-.66284.4393-1.06066-.158-.77936-.4393-1.06066-.6629-.43934-1.0607-.43934-.7794.15804-1.0607.43934-.4393.66284-.4393 1.06066.158.77936.4393 1.06066.6629.43934 1.0607.43934zm0 10c-.7956 0-1.5587-.3161-2.12132-.8787-.56261-.5626-.87868-1.3257-.87868-2.1213s.31607-1.5587.87868-2.1213c.56262-.5626 1.32572-.8787 2.12132-.8787s1.5587.3161 2.1213.8787.8787 1.3257.8787 2.1213-.3161 1.5587-.8787 2.1213-1.3257.8787-2.1213.8787z" /></svg>