<svg fill="currentColor" height="24" viewBox="0 0 24 24" width="24" xmlns="http://www.w3.org/2000/svg"><path d="m11.388 2.00098 1.811.005.844.014c7.161.164 7.938 1.512 7.957 9.66702l-.006 1.512-.014.844c-.164 7.161-1.512 7.938-9.667 7.957l-1.512-.006-.888-.015c-6.853-.163-7.827-1.428-7.907-8.78l-.006-1.508.006-.89.014-.86502c.165-7.053 1.487-7.897 9.368-7.935zm2.732 2.009-3.238-.01-1.322.01c-5.489.082-5.544.82-5.559 7.40302l.001 2.175.01 1.04c.089 4.982.793 5.343 6.4 5.369l3.454-.002.776-.009c5.108-.091 5.347-.837 5.358-6.877l-.003-2.743-.012-1.05502c-.094-4.796-.785-5.25-5.865-5.303zm-5.87 2.99c2.3206 0 4.5462.92187 6.1872 2.56281 1.6409 1.64091 2.5628 3.86651 2.5628 6.18721v.583c0 .0876-.0173.1743-.0508.2552-.0335.081-.0826.1545-.1446.2164-.0619.062-.1354.1111-.2164.1446-.0809.0335-.1676.0508-.2552.0508h-3.666c-.0876 0-.1743-.0173-.2553-.0508-.0809-.0335-.1544-.0826-.2163-.1446-.062-.0619-.1111-.1354-.1446-.2164-.0335-.0809-.0508-.1676-.0508-.2552v-.583c0-.9946-.3951-1.9484-1.0983-2.6517-.7033-.7032-1.65714-1.0983-2.6517-1.0983h-.583c-.1769 0-.34655-.0703-.47164-.1954s-.19536-.2947-.19536-.4716v-3.66602c0-.368.299-.667.667-.667z" /></svg>