<svg fill="currentColor" height="24" viewBox="0 0 24 24" width="24" xmlns="http://www.w3.org/2000/svg"><path d="m13.2 2.00598c8.04.087 8.8 1.244 8.8 9.99402l-.006 1.2c-.087 8.04-1.244 8.8-9.994 8.8l-1.2-.006c-7.658-.083-8.711-1.136-8.794-8.795l-.006-1.508.006-.89c.085-7.85002 1.19-8.76002 9.382-8.80002l1.811.005zm-4.95 4.994h-.583c-.15981-.0001-.31434.05719-.43547.16144-.12113.10424-.20081.24852-.22453.40656l-.007.099v3.66602c0 .335.247.612.568.66l.099.007h.583c.96-.0001 1.8835.368 2.5802 1.0284.6967.6605 1.1136 1.5629 1.1648 2.5216l.005.2v.583c0 .335.247.612.568.66l.099.007h3.666c.1598.0001.3143-.0572.4355-.1615.1211-.1042.2008-.2485.2245-.4065l.007-.099v-.583c-.0001-2.276-.8869-4.4623-2.4723-6.09518-1.5855-1.63287-3.7448-2.58374-6.0197-2.65084z" /></svg>