<svg fill="currentColor" height="24" viewBox="0 0 24 24" width="24" xmlns="http://www.w3.org/2000/svg"><path d="m12 13.3329-9.223 6.149c-.07529.0502-.16277.0789-.25311.0832s-.18016-.0159-.25989-.0586-.1464-.1062-.19289-.1838-.07106-.1663-.07111-.2568v-14.13195c.00005-.09045.02462-.17918.07111-.25676s.11316-.1411.19289-.18378c.07973-.04269.16955-.06296.25989-.05863.09034.00432.17782.03306.25311.08317l9.223 6.14895v-5.73295c0-.09045.0246-.17918.0711-.25676s.1132-.1411.1929-.18378c.0797-.04269.1696-.06296.2599-.05863.0903.00432.1778.03306.2531.08317l10.599 7.06595c.0685.0457.1246.1076.1635.1801.0388.0726.0591.1536.0591.2359 0 .0824-.0203.1634-.0591.236-.0389.0725-.095.1344-.1635.18l-10.599 7.066c-.0753.0502-.1628.0789-.2531.0832s-.1802-.0159-.2599-.0586-.1464-.1062-.1929-.1838-.0711-.1663-.0711-.2568z" /></svg>