<svg fill="currentColor" height="24" viewBox="0 0 24 24" width="24" xmlns="http://www.w3.org/2000/svg"><path d="m4.788 17.444c-.07489.0528-.16285.084-.25426.0901-.09141.0062-.18276-.0128-.26408-.055-.08132-.0423-.14948-.106-.19703-.1843-.04756-.0783-.07268-.1682-.07263-.2598v-10.07c-.00005-.09162.02507-.18149.07263-.2598.04755-.07832.11571-.14205.19703-.18426s.17267-.06126.26408-.05508.17937.03736.25426.09014l7.133 5.036c.0652.0462.1184.1073.1551.1783s.0559.1498.0559.2297-.0192.1587-.0559.2297c-.0367.0709-.0899.1321-.1551.1783zm8.212-10.479c-.0001-.09162.0251-.18149.0726-.2598.0476-.07832.1157-.14205.1971-.18426.0813-.04221.1726-.06126.264-.05508.0915.00618.1794.03736.2543.09014l7.133 5.036c.0652.0462.1184.1073.1551.1783s.0559.1498.0559.2297-.0192.1587-.0559.2297c-.0367.0709-.0899.1321-.1551.1783l-7.133 5.036c-.0749.0528-.1628.084-.2543.0901-.0914.0062-.1827-.0128-.264-.055-.0814-.0423-.1495-.106-.1971-.1843-.0475-.0783-.0727-.1682-.0726-.2598z" /></svg>