<svg fill="currentColor" height="24" viewBox="0 0 24 24" width="24" xmlns="http://www.w3.org/2000/svg"><path d="m17 13c1.0609 0 2.0783.4214 2.8284 1.1716.7502.7501 1.1716 1.7675 1.1716 2.8284s-.4214 2.0783-1.1716 2.8284c-.7501.7502-1.7675 1.1716-2.8284 1.1716-2.142 0-4-1.79-4-4h-2c-.0004.9704-.3535 1.9077-.9937 2.637-.64013.7294-1.52361 1.2012-2.4858 1.3274-.96219.1263-1.93748-.1015-2.74415-.641s-1.38971-1.3538-1.64049-2.2913c-.25077-.9375-.15218-1.9342.2774-2.8043.42959-.8702 1.16088-1.5546 2.05761-1.9255.89674-.371 1.89776-.4034 2.81656-.091.9188.3123 1.69273.9481 2.17757 1.7887h3.07c.351-.6083.8561-1.1135 1.4643-1.4646.6083-.3511 1.2984-.5358 2.0007-.5354zm-15-1v-2h2v-3c0-1.06087.42143-2.07828 1.17157-2.82843.75015-.75014 1.76756-1.17157 2.82843-1.17157h8c1.0609 0 2.0783.42143 2.8284 1.17157.7502.75015 1.1716 1.76756 1.1716 2.82843v3h2v2z" /></svg>