<svg fill="currentColor" height="24" viewBox="0 0 24 24" width="24" xmlns="http://www.w3.org/2000/svg"><path d="m17 13c.7911 0 1.5645.2346 2.2223.6741s1.1705 1.0643 1.4732 1.7952c.3028.7309.382 1.5351.2276 2.3111-.1543.7759-.5353 1.4886-1.0947 2.048s-1.2721.9404-2.048 1.0947c-.776.1544-1.5802.0752-2.3111-.2276-.7309-.3027-1.3557-.8154-1.7952-1.4732s-.6741-1.4312-.6741-2.2223h-2c-.0004.9704-.3535 1.9077-.9937 2.637-.64013.7294-1.52361 1.2012-2.4858 1.3274-.96219.1263-1.93748-.1015-2.74415-.641s-1.38971-1.3538-1.64049-2.2913c-.25077-.9375-.15218-1.9342.2774-2.8043.42959-.8702 1.16088-1.5546 2.05761-1.9255.89674-.371 1.89776-.4034 2.81656-.091.9188.3123 1.69273.9481 2.17757 1.7887h3.07c.351-.6083.8561-1.1135 1.4643-1.4646.6083-.3511 1.2984-.5358 2.0007-.5354zm-10 2c-.53043 0-1.03914.2107-1.41421.5858-.37508.3751-.58579.8838-.58579 1.4142s.21071 1.0391.58579 1.4142c.37507.3751.88378.5858 1.41421.5858s1.03914-.2107 1.41421-.5858c.37508-.3751.58579-.8838.58579-1.4142s-.21071-1.0391-.58579-1.4142c-.37507-.3751-.88378-.5858-1.41421-.5858zm10 0c-.5304 0-1.0391.2107-1.4142.5858s-.5858.8838-.5858 1.4142.2107 1.0391.5858 1.4142.8838.5858 1.4142.5858 1.0391-.2107 1.4142-.5858.5858-.8838.5858-1.4142-.2107-1.0391-.5858-1.4142-.8838-.5858-1.4142-.5858zm-1-12c1.0609 0 2.0783.42143 2.8284 1.17157.7502.75015 1.1716 1.76756 1.1716 2.82843v3h2v2h-20v-2h2v-3c0-1.06087.42143-2.07828 1.17157-2.82843.75015-.75014 1.76756-1.17157 2.82843-1.17157zm0 2h-8c-1.054 0-2 .95-2 2v3h12v-3c0-1.054-.95-2-2-2z" /></svg>