<svg fill="currentColor" height="24" viewBox="0 0 24 24" width="24" xmlns="http://www.w3.org/2000/svg"><path d="m20.0829 10.5 1.202.721c.0741.0444.1355.1073.1781.1824.0426.0752.065.1602.065.2466s-.0224.1714-.065.2466-.104.138-.1781.1824l-9.285 5.571-9.28505-5.571c-.07415-.0444-.13553-.1072-.17815-.1824s-.06502-.1602-.06502-.2466.0224-.1714.06502-.2466c.04262-.0751.104-.138.17815-.1824l1.202-.721 8.08305 4.85zm0 4.7 1.202.721c.0741.0444.1355.1073.1781.1824.0426.0752.065.1602.065.2466s-.0224.1714-.065.2466-.104.138-.1781.1824l-8.77 5.262c-.1556.0935-.3336.1428-.515.1428-.1815 0-.3595-.0493-.515-.1428l-8.77005-5.262c-.07415-.0444-.13553-.1072-.17815-.1824s-.06502-.1602-.06502-.2466.0224-.1714.06502-.2466c.04262-.0751.104-.138.17815-.1824l1.202-.721 8.08305 4.85zm-7.569-13.89099 8.771 5.262c.0741.04439.1355.10725.1781.18243.0426.07519.065.16014.065.24657 0 .08642-.0224.17138-.065.24656-.0426.07519-.104.13805-.1781.18244l-9.285 5.57099-9.28505-5.57099c-.07415-.04439-.13553-.10725-.17815-.18244-.04262-.07518-.06502-.16014-.06502-.24656 0-.08643.0224-.17138.06502-.24657.04262-.07518.104-.13804.17815-.18243l8.77005-5.262c.1555-.09344.3335-.14281.515-.14281.1814 0 .3594.04937.515.14281z" /></svg>