<svg fill="currentColor" height="24" viewBox="0 0 24 24" width="24" xmlns="http://www.w3.org/2000/svg"><path d="m9.536 13h-2.207c-.412 1.166-1.523 2-2.829 2-1.657 0-3-1.343-3-3s1.343-3 3-3c1.306 0 2.418.835 2.83 2h2.206l3.464-6h3.17c.412-1.165 1.524-2 2.83-2 1.657 0 3 1.343 3 3s-1.343 3-3 3c-1.306 0-2.417-.834-2.829-2h-2.017l-2.886 4.999 2.887 5.001h2.016c.411-1.165 1.523-2 2.829-2 1.657 0 3 1.343 3 3s-1.343 3-3 3c-1.306 0-2.417-.834-2.829-2h-3.171zm9.464 4c-.552 0-1 .448-1 1s.448 1 1 1 1-.448 1-1-.448-1-1-1zm-14.5-6c-.552 0-1 .448-1 1s.448 1 1 1 1-.448 1-1-.448-1-1-1zm14.5-6c-.552 0-1 .448-1 1s.448 1 1 1 1-.448 1-1-.448-1-1-1z" /></svg>