<svg fill="currentColor" height="24" viewBox="0 0 24 24" width="24" xmlns="http://www.w3.org/2000/svg"><path d="m11.9999.5 4.226 6.183 7.187 2.109-4.575 5.93.215 7.486-7.053-2.518-7.05299 2.518.215-7.486-4.574996-5.93 7.186996-2.109zm-1.99999 11.5h-2c-.00001 1.0436.40779 2.0458 1.13641 2.7929.72861.7471 1.72038 1.1798 2.76358 1.2059s2.0553-.3565 2.8204-1.0662c.765-.7098 1.2225-1.6904 1.2746-2.7326l.005-.2h-2c.0023.519-.1972 1.0185-.5564 1.3932-.3592.3746-.8499.5949-1.3685.6143-.5186.0195-1.0245-.1634-1.4108-.51s-.6227-.8298-.6593-1.3475z" /></svg>