<svg fill="currentColor" height="24" viewBox="0 0 24 24" width="24" xmlns="http://www.w3.org/2000/svg"><path d="m11.9999.5 4.226 6.183 7.187 2.109-4.575 5.93.215 7.486-7.053-2.518-7.05299 2.518.215-7.486-4.574996-5.93 7.186996-2.109zm0 3.544-2.97799 4.358-5.065 1.485 3.225 4.178-.153 5.275 4.97099-1.774 4.97 1.774-.152-5.275 3.224-4.178-5.064-1.485zm-1.99999 7.956c0 .5304.21069 1.0391.58579 1.4142s.8838.5858 1.4142.5858 1.0392-.2107 1.4142-.5858c.3751-.3751.5858-.8838.5858-1.4142h2c0 1.0609-.4214 2.0783-1.1716 2.8284-.7501.7502-1.7675 1.1716-2.8284 1.1716s-2.07827-.4214-2.82841-1.1716c-.75015-.7501-1.17158-1.7675-1.17158-2.8284z" /></svg>