<svg fill="currentColor" height="24" viewBox="0 0 24 24" width="24" xmlns="http://www.w3.org/2000/svg"><path d="m12.004 2c-5.24996 0-9.55596 4.05-9.96396 9.197l5.36 2.216c.454-.31 1.002-.492 1.593-.492.053 0 .104.003.157.005l2.38396-3.452v-.049c0-2.08 1.69-3.77 3.77-3.77 2.079 0 3.77 1.692 3.77 3.772s-1.692 3.771-3.77 3.771h-.087l-3.397 2.426c0 .043.003.088.003.133 0 1.562-1.262 2.83-2.82496 2.83-1.362 0-2.513-.978-2.775-2.273l-3.838-1.589c1.188 4.197 5.042 7.275 9.61996 7.275 5.522 0 9.998-4.477 9.998-10 0-5.522-4.477-10-9.999-10zm-4.92596 14.667c.218.452.595.832 1.094 1.041 1.081.45 2.32796-.063 2.77696-1.145.22-.525.22-1.1.004-1.625-.215-.525-.625-.934-1.14696-1.152-.52-.217-1.075-.208-1.565-.025l1.269.525c.79696.333 1.17396 1.25.83996 2.046-.33.797-1.24696 1.175-2.04396.843zm10.73996-7.245c0-1.385-1.128-2.512-2.513-2.512-1.387 0-2.512 1.127-2.512 2.512 0 1.388 1.125 2.513 2.512 2.513 1.386 0 2.512-1.125 2.512-2.513zm-2.508-1.892c1.04 0 1.888.845 1.888 1.888s-.847 1.888-1.888 1.888c-1.044 0-1.888-.845-1.888-1.888s.845-1.888 1.888-1.888z" /></svg>