<svg fill="currentColor" height="24" viewBox="0 0 24 24" width="24" xmlns="http://www.w3.org/2000/svg"><path d="m17 4c2.761 0 5 2.239 5 5s-2.239 5-5 5c-.304 0-.603-.027-.892-.08l-2.651 1.989c.028.193.043.39.043.591 0 2.21-1.79 4-3.99999 4-2.21 0-4-1.79-4-4 0-.177.012-.352.034-.524l-3.826-1.546.75-1.854 3.826 1.545c.729-.983 1.898-1.621 3.216-1.621.163 0 .323.01.48.029l2.04199-3.061c-.015-.154-.022-.31-.022-.468 0-2.761 2.239-5 5-5zm-7.49999 10.5c-.464 0-.892.158-1.231.424l1.606.649c.51199.207.75999.79.55199 1.302-.207.512-.78999.76-1.30199.552l-1.605-.647c.136.972.971 1.721 1.981 1.721 1.10499 0 1.99999-.895 1.99999-2s-.895-2-1.99999-2zm3.36399-2.69-.983 1.476c.284.21.54.458.758.735l1.36-1.02c-.44-.332-.825-.735-1.135-1.191zm4.136-5.81c-1.657 0-3 1.343-3 3s1.343 3 3 3 3-1.343 3-3-1.343-3-3-3zm0 1c1.105 0 2 .895 2 2s-.895 2-2 2-2-.895-2-2 .895-2 2-2z" /></svg>