<svg fill="currentColor" height="24" viewBox="0 0 24 24" width="24" xmlns="http://www.w3.org/2000/svg"><path d="m12 2c5.523 0 10 4.477 10 10s-4.477 10-10 10-10-4.477-10-10 4.477-10 10-10zm-4 11-3.938.001c.22279 1.7622 1.02543 3.4003 2.28151 4.6562 1.25609 1.2559 2.89424 2.0583 4.65649 2.2808v-3.938c-.7956 0-1.55871-.3161-2.12132-.8787s-.87868-1.3257-.87868-2.1213zm11.938.001-3.938-.001c0 .7956-.3161 1.5587-.8787 2.1213s-1.3257.8787-2.1213.8787l.001 3.938c1.7621-.2227 3.4-1.0252 4.6559-2.2811s2.0584-2.8938 2.2811-4.6559zm-5.938-1.001h-4v1c0 .2652.1054.5196.2929.7071s.4419.2929.7071.2929h2c.2652 0 .5196-.1054.7071-.2929s.2929-.4419.2929-.7071zm-2-8c-1.9486.00003-3.83023.71119-5.29175 2-1.46152 1.28882-2.40246 3.0667-2.64625 5h3.938c0-.2652.10536-.5196.29289-.7071.18754-.1875.44189-.2929.70711-.2929h6c.2652 0 .5196.1054.7071.2929s.2929.4419.2929.7071h3.938c-.2438-1.9333-1.1847-3.71118-2.6463-5-1.4615-1.28881-3.3431-1.99997-5.2917-2z" /></svg>