<svg fill="currentColor" height="24" viewBox="0 0 24 24" width="24" xmlns="http://www.w3.org/2000/svg"><path d="m21.7998 14.001c-.4141 2.0227-1.4437 3.8678-2.9475 5.2824-1.5038 1.4147-3.4083 2.3297-5.4525 2.6196v-2.025c1.5098-.2693 2.9106-.9663 4.0359-2.0083 1.1252-1.0419 1.9278-2.385 2.3121-3.8697zm-17.54797 0c.38021 1.4675 1.16907 2.797 2.27489 3.834 1.10583 1.0369 2.48322 1.7388 3.97208 2.024v2.03c-2.02406-.3084-3.9049-1.2301-5.38885-2.6407-1.48396-1.4107-2.49965-3.2424-2.91012-5.2483h2.052zm13.74797-3.001v2h-3c-.5045-.0002-.9905.1904-1.3605.5335s-.5966.8133-.6345 1.3165l-.005.15v3h-2v-3c.0002-.5046-.1904-.9906-.5335-1.3605-.3431-.37-.81332-.5967-1.31647-.6345l-.15-.005h-3v-2zm-6-9c5.185 0 9.449 3.947 9.95 9h-2.012c-.244-1.9331-1.1851-3.71073-2.6465-4.99932-1.4615-1.2886-3.343-1.9996-5.2915-1.9996-1.9484 0-3.8299.711-5.2914 1.9996-1.46149 1.28859-2.40254 3.06622-2.64657 4.99932h-2.013c.502-5.053 4.766-9 9.95097-9z" /></svg>