<svg fill="currentColor" height="24" viewBox="0 0 24 24" width="24" xmlns="http://www.w3.org/2000/svg"><path d="m8 3v2h-2v4c0 2.21 1.79 4 4 4s4-1.79 4-4v-4h-2v-2h3c.552 0 1 .448 1 1v5c0 2.973-2.162 5.44-5 5.917v1.583c0 1.933 1.567 3.5 3.5 3.5 1.497 0 2.775-.94 3.275-2.263-1.047-.467-1.775-1.517-1.775-2.737 0-1.657 1.343-3 3-3s3 1.343 3 3c0 1.371-.92 2.527-2.176 2.885-.614 2.367-2.765 4.115-5.324 4.115-3.038 0-5.5-2.462-5.5-5.5v-1.583c-2.838-.476-5-2.944-5-5.917v-5c0-.552.448-1 1-1zm11 11c-.552 0-1 .448-1 1s.448 1 1 1 1-.448 1-1-.448-1-1-1z" /></svg>