<svg fill="currentColor" height="24" viewBox="0 0 24 24" width="24" xmlns="http://www.w3.org/2000/svg"><path d="m21 13.242v6.758h1v2h-20v-2h1v-6.758c-.61563-.4109-1.12029-.9675-1.46918-1.6202-.34889-.6528-.531228-1.3816-.53082-2.1218 0-.827.224-1.624.633-2.303l2.712-4.697c.08777-.15202.214-.27825.36601-.36602.15202-.08777.32446-.13398.49999-.13398h13.579c.1755 0 .348.04621.5.13398s.2782.214.366.36602l2.702 4.682c.5966.99087.7883 2.17353.5354 3.3021-.2529 1.1286-.931 2.1164-1.8934 2.7579zm-2 .73c-.6876.0771-1.3837-.0055-2.0341-.2413-.6504-.2359-1.2376-.6188-1.7159-1.1187-.4198.4391-.9242.7885-1.4828 1.0273-.5586.2387-1.1597.3617-1.7672.3617-.6073.0003-1.2084-.1224-1.767-.3608-.55855-.2384-1.06304-.5875-1.483-1.0262-.47837.4998-1.06563.8824-1.71605 1.1181s-1.34646.3182-2.03395.2409v6.027h14v-6.027zm-13.211-9.972-2.433 4.213c-.23642.58414-.24352 1.23603-.01987 1.8252.22365.5891.66155 1.0721 1.22605 1.3522s1.21396.3367 1.8184.1584c.60444-.1782 1.11926-.5782 1.44142-1.1198.335-.837 1.52-.837 1.856 0 .1853.4644.5056.8626.9195 1.1431.414.2805.9025.4304 1.4025.4304s.9885-.1499 1.4025-.4304c.4139-.2805.7342-.6787.9195-1.1431.335-.837 1.52-.837 1.856 0 .1298.3194.3242.6086.5711.8493s.541.4277.8636.5492c.3227.1216.667.1751 1.0114.1572.3443-.0179.6812-.1069.9895-.2613s.5813-.3709.8019-.6359.384-.5727.48-.9039c.0959-.33122.1223-.67867.0775-1.02055-.0449-.34187-.1599-.67078-.338-.96605l-2.425-4.197h-12.42z" /></svg>