<svg fill="currentColor" height="24" viewBox="0 0 24 24" width="24" xmlns="http://www.w3.org/2000/svg"><path d="m17.2 20 1.8 1.5v.5h-14v-.5l1.8-1.5h-1.8c-.53043 0-1.03914-.2107-1.41421-.5858-.37508-.3751-.58579-.8838-.58579-1.4142v-11c0-1.06087.42143-2.07828 1.17157-2.82843.75015-.75014 1.76756-1.17157 2.82843-1.17157h10c1.0609 0 2.0783.42143 2.8284 1.17157.7502.75015 1.1716 1.76756 1.1716 2.82843v11c0 .5304-.2107 1.0391-.5858 1.4142s-.8838.5858-1.4142.5858zm-6.2-8v-7h-4c-.53043 0-1.03914.21071-1.41421.58579-.37508.37507-.58579.88378-.58579 1.41421v5zm2 0h6v-5c0-.53043-.2107-1.03914-.5858-1.41421-.3751-.37508-.8838-.58579-1.4142-.58579h-4zm-5.5 6c.39782 0 .77936-.158 1.06066-.4393s.43934-.6629.43934-1.0607-.15804-.7794-.43934-1.0607-.66284-.4393-1.06066-.4393-.77936.158-1.06066.4393-.43934.6629-.43934 1.0607.15804.7794.43934 1.0607.66284.4393 1.06066.4393zm9 0c.3978 0 .7794-.158 1.0607-.4393s.4393-.6629.4393-1.0607-.158-.7794-.4393-1.0607-.6629-.4393-1.0607-.4393-.7794.158-1.0607.4393-.4393.6629-.4393 1.0607.158.7794.4393 1.0607.6629.4393 1.0607.4393z" /></svg>