<svg fill="currentColor" height="24" viewBox="0 0 24 24" width="24" xmlns="http://www.w3.org/2000/svg"><path d="m8 12h2v2h-6v-2h2c0-1.1867.35189-2.34673 1.01118-3.33342.65929-.9867 1.59636-1.75573 2.69272-2.20986 1.0964-.45412 2.3028-.57294 3.4666-.34143 1.1639.23151 2.233.80295 3.0721 1.64207.8392.83911 1.4106 1.90821 1.6421 3.07214.2315 1.1638.1127 2.3702-.3414 3.4666s-1.2232 2.0334-2.2099 2.6927-2.1467 1.0112-3.3334 1.0112v-2c.7911 0 1.5645-.2346 2.2223-.6741s1.1705-1.0643 1.4732-1.7952c.3028-.7309.382-1.5351.2276-2.3111-.1543-.7759-.5353-1.48862-1.0947-2.04803s-1.2721-.94037-2.048-1.09471c-.776-.15434-1.5802-.07513-2.3111.22762-.73094.30275-1.35565.81544-1.79518 1.47324-.43952.65778-.67412 1.43118-.67412 2.22228zm-2 8h9v2h-9zm-4-4h8v2h-8zm9-15h2v3h-2zm-7.485 3.929 1.414-1.414 2.121 2.121-1.414 1.414-2.121-2.12zm13.435 13.435 1.414-1.414 2.121 2.121-1.414 1.414zm2.121-14.85 1.414 1.415-2.121 2.121-1.414-1.414 2.121-2.121zm3.929 7.486v2h-3v-2z" /></svg>