<svg fill="currentColor" height="24" viewBox="0 0 24 24" width="24" xmlns="http://www.w3.org/2000/svg"><path d="m9.9838 5.06001c.4057-.77258.9627-1.45556 1.638-2.00825.6753-.55268 1.4549-.96374 2.2924-1.20867.8376-.24493 1.7158-.31871 2.5825-.21696.8666.10176 1.7039.37698 2.4619.80925.7581.43227 1.4213 1.01274 1.9502 1.7068.5288.69407.9126 1.48752 1.1282 2.33305.2157.84554.2589 1.72584.1271 2.58843-.1318.8626-.436 1.68984-.8943 2.43234.8021.7554 1.3589 1.7342 1.5981 2.8098.2392 1.0755.1499 2.198-.2563 3.2222-.4063 1.0242-1.1108 1.9027-2.0222 2.5218-.9114.619-1.9878.9501-3.0896.9502l-8.5-.001c-1.09158-.0008-2.17145-.225-3.17313-.6588-1.00169-.4338-1.904-1.068-2.65141-1.8636-.7474-.7955-1.32409-1.7357-1.69456-2.7625-.37048-1.0267-.526897-2.1185-.45964-3.208.06726-1.0895.35677-2.1537.85072-3.12715.49395-.97343 1.18188-1.83547 2.02147-2.53308.83958-.6976 1.81304-1.21601 2.86048-1.5233 1.04743-.3073 2.14667-.39699 3.23007-.26356zm2.071.544c.9988.41403 1.9037 1.02561 2.6604 1.79804.7566.77243 1.3493 1.68977 1.7426 2.69695 1.0478-.20082 2.1314-.0942 3.12.307.4636-.98923.5514-2.11332.2472-3.16257-.3042-1.04926-.9798-1.95201-1.9006-2.53986s-2.024-.82065-3.1039-.65496c-1.0798.16568-2.0625.71853-2.7647 1.5554zm5.445 13.39599c.577-.0001 1.1451-.1428 1.6536-.4155.5086-.2727.9418-.667 1.2611-1.1476s.5149-1.0327.5692-1.6072c.0544-.5745-.0341-1.1535-.2577-1.6855-.2235-.5319-.5751-1.0004-1.0234-1.3637-.4484-.3632-.9796-.61-1.5464-.7183s-1.1515-.0748-1.7022.0976c-.5507.1723-1.0503.4781-1.4542.8902v-.05c0-1.1867-.3519-2.3467-1.0112-3.33341-.6593-.98669-1.5963-1.75573-2.6927-2.20985-1.0964-.45413-2.30276-.57295-3.46664-.34144-1.16389.23151-2.23299.80296-3.0721 1.64207-.83912.83912-1.41056 1.90823-1.64207 3.07213s-.11269 2.3703.34143 3.4666c.45413 1.0964 1.22316 2.0334 2.20986 2.6927.98669.6593 2.14673 1.0112 3.33342 1.0112z" /></svg>