<svg fill="currentColor" height="24" viewBox="0 0 24 24" width="24" xmlns="http://www.w3.org/2000/svg"><path d="m12 18c-1.5913 0-3.11742-.6321-4.24264-1.7574-1.12522-1.1252-1.75736-2.6513-1.75736-4.2426s.63214-3.11742 1.75736-4.24264 2.65134-1.75736 4.24264-1.75736 3.1174.63214 4.2426 1.75736c1.1253 1.12522 1.7574 2.65134 1.7574 4.24264s-.6321 3.1174-1.7574 4.2426c-1.1252 1.1253-2.6513 1.7574-4.2426 1.7574zm-1-17h2v3h-2zm0 19h2v3h-2zm-7.485-15.071 1.414-1.414 2.121 2.121-1.414 1.414-2.121-2.12zm13.435 13.435 1.414-1.414 2.121 2.121-1.414 1.414zm2.121-14.85 1.414 1.415-2.121 2.121-1.414-1.414 2.121-2.121zm-13.435 13.436 1.414 1.414-2.121 2.121-1.414-1.414zm17.364-5.95v2h-3v-2zm-19 0v2h-3v-2z" /></svg>