<svg fill="currentColor" height="24" viewBox="0 0 24 24" width="24" xmlns="http://www.w3.org/2000/svg"><g ><path d="m6.083 15c-.14455-.86-.09989-1.7412.13088-2.5822.23076-.841.64209-1.6216 1.20533-2.2874.56324-.66585 1.26485-1.20087 2.05597-1.56785s1.65272-.55709 2.52482-.55709 1.7337.19011 2.5248.55709 1.4927.902 2.056 1.56785c.5632.6658.9746 1.4464 1.2053 2.2874.2308.841.2755 1.7222.1309 2.5822zm4.917-12h2v3h-2zm-7.485 3.929 1.414-1.414 2.121 2.121-1.414 1.414zm15.555-1.414 1.414 1.414-2.121 2.121-1.414-1.414zm3.93 7.485v2h-3v-2zm-19 0v2h-3v-2z"/><path d="m2 19v-2h20v2z"/></g></svg>