<svg fill="currentColor" height="24" viewBox="0 0 24 24" width="24" xmlns="http://www.w3.org/2000/svg"><path d="m9.9838 5.06001c.4057-.77258.9627-1.45556 1.638-2.00825.6753-.55268 1.4549-.96374 2.2924-1.20867.8376-.24493 1.7158-.31871 2.5825-.21696.8666.10176 1.7039.37698 2.4619.80925.7581.43227 1.4213 1.01274 1.9502 1.7068.5288.69407.9126 1.48752 1.1282 2.33305.2157.84554.2589 1.72584.1271 2.58843-.1318.8626-.436 1.68984-.8943 2.43234.8021.7554 1.3589 1.7342 1.5981 2.8098.2392 1.0755.1499 2.198-.2563 3.2222-.4063 1.0242-1.1108 1.9027-2.0222 2.5218-.9114.619-1.9878.9501-3.0896.9502l-8.5-.001c-1.09158-.0008-2.17145-.225-3.17313-.6588-1.00169-.4338-1.904-1.068-2.65141-1.8636-.7474-.7955-1.32409-1.7357-1.69456-2.7625-.37048-1.0267-.526897-2.1185-.45964-3.208.06726-1.0895.35677-2.1537.85072-3.12715.49395-.97343 1.18188-1.83547 2.02147-2.53308.83958-.6976 1.81304-1.21601 2.86048-1.5233 1.04743-.3073 2.14667-.39699 3.23007-.26356zm2.071.544c.9988.41403 1.9037 1.02561 2.6604 1.79804.7566.77243 1.3493 1.68977 1.7426 2.69695 1.0478-.20082 2.1314-.0942 3.12.307.4636-.98923.5514-2.11332.2472-3.16257-.3042-1.04926-.9798-1.95201-1.9006-2.53986s-2.024-.82065-3.1039-.65496c-1.0798.16568-2.0625.71853-2.7647 1.5554z" /></svg>