<svg fill="currentColor" height="24" viewBox="0 0 24 24" width="24" xmlns="http://www.w3.org/2000/svg"><path d="m6.341 14c-.42452-1.2007-.45596-2.5054-.08978-3.7252.36619-1.21976 1.11101-2.29139 2.12667-3.05976 1.01566-.76838 2.24951-1.19365 3.52291-1.21425 1.2734-.02061 2.5203.3645 3.5603 1.09961s1.8191 1.78207 2.2245 2.9894c.4055 1.2073.4163 2.5123.0309 3.7261-.3855 1.2138-1.1472 2.2735-2.1749 3.0258-1.0276.7522-2.268 1.1578-3.5416 1.1583v-4zm-.341 6h9v2h-9zm-5-9h3v2h-3zm1 5h8v2h-8zm9-15h2v3h-2zm-7.485 3.929 1.414-1.414 2.121 2.121-1.414 1.414-2.121-2.12zm13.435 13.435 1.414-1.414 2.121 2.121-1.414 1.414zm2.121-14.85 1.414 1.415-2.121 2.121-1.414-1.414 2.121-2.121zm3.929 7.486v2h-3v-2z" /></svg>