<svg fill="currentColor" height="24" viewBox="0 0 24 24" width="24" xmlns="http://www.w3.org/2000/svg"><path d="m12.485 3.12104 7.758 1.93999c.445.11.757.51001.757.97001v.969h1c1.1 0 2 .9 2 2v2.99996c0 1.657-1.343 3-3 3h-.421c-.535 1.35-1.552 2.486-2.896 3.158l-4.789 2.395c-.563.281-1.225.281-1.788 0l-4.79-2.395c-1.342-.672-2.359-1.808-2.894-3.158h-.422c-1.657 0-3-1.343-3-3v-2.99996c0-1.105.895-2 2-2h1v-.97c0-.458.312-.85801.757-.97001l7.758-1.93899c.318-.08.652-.08.97 0zm-.485 1.93999-7 1.75v5.97997c0 1.516.856 2.9 2.211 3.579l4.789 2.394 4.789-2.394c1.355-.678 2.211-2.063 2.211-3.578v-5.97997l-7-1.75zm-9 3.93901h-1v2.99996c0 .552.448 1 1 1zm19 0h-1v3.99996c.552 0 1-.448 1-1z" /></svg>