<svg fill="currentColor" height="24" viewBox="0 0 24 24" width="24" xmlns="http://www.w3.org/2000/svg"><path d="m3 3h18c.2652 0 .5196.10536.7071.29289.1875.18754.2929.44189.2929.70711v16c0 .2652-.1054.5196-.2929.7071s-.4419.2929-.7071.2929h-18c-.26522 0-.51957-.1054-.70711-.2929-.18753-.1875-.29289-.4419-.29289-.7071v-16c0-.26522.10536-.51957.29289-.70711.18754-.18753.44189-.29289.70711-.29289zm4.05 4.121c-.65097.64934-1.16719 1.42092-1.519 2.27041s-.53227 1.76009-.531 2.67959c0 1.933.784 3.683 2.05 4.95l1.414-1.414c-.46509-.464-.83387-1.0153-1.08512-1.6223-.25124-.6071-.38001-1.2577-.37888-1.9147 0-1.38.56-2.63 1.464-3.535l-1.414-1.415zm9.9 0-1.414 1.415c.4647.46362.8333 1.01449 1.0845 1.621.2513.6064.3802 1.2566.3795 1.913 0 1.38-.56 2.63-1.464 3.536l1.414 1.414c.651-.6493 1.1672-1.4209 1.519-2.2704s.5323-1.7601.531-2.6796c.0013-.9195-.1792-1.8301-.531-2.67959s-.868-1.62107-1.519-2.27041zm-4.95 7.95c.7956 0 1.5587-.3161 2.1213-.8787s.8787-1.3257.8787-2.1213-.3161-1.5587-.8787-2.12132c-.5626-.56261-1.3257-.87868-2.1213-.87868s-1.5587.31607-2.12132.87868c-.56261.56262-.87868 1.32572-.87868 2.12132s.31607 1.5587.87868 2.1213c.56262.5626 1.32572.8787 2.12132.8787zm0-2c-.2652 0-.5196-.1054-.7071-.2929s-.2929-.4419-.2929-.7071.1054-.5196.2929-.7071.4419-.2929.7071-.2929.5196.1054.7071.2929.2929.4419.2929.7071-.1054.5196-.2929.7071-.4419.2929-.7071.2929z" /></svg>