<svg fill="currentColor" height="24" viewBox="0 0 24 24" width="24" xmlns="http://www.w3.org/2000/svg"><path d="m7.51784 13.376c.12169.1121.52491.3238 1.18216.3238s1.06081-.2117 1.18216-.3238c.55064-.5077 1.18594-.7762 1.83764-.7762h.5604c.6517 0 1.2873.2685 1.8376.7762.1217.1121.525.3238 1.1822.3238.6573 0 1.0608-.2117 1.1822-.3238.5108-.4713 1.0958-.726 1.6977-.7617l-3.8788-2.77066.6187-.44206c.1251-.08869.2846-.121.4338-.08972l3.4496.74014c.8906.19 1.7682-.37714 1.9593-1.2678.1908-.891-.3764-1.76825-1.2677-1.95938l-3.4495-.74009c-1.0564-.22619-2.1664.00413-3.0443.63181l-2.7507 1.96522c-.3568.25403-.66549.56513-.91849.92607l-2.35915 3.37017c.18803.111.37193.2382.54518.398zm14.93216 1.4238h-.55c-.8951 0-1.5744-.2894-1.9281-.6153-.3059-.2822-.6758-.4847-1.0921-.4847h-.5603c-.4163 0-.7862.2025-1.0921.4847-.353.3259-1.0323.6153-1.9274.6153s-1.5744-.2894-1.9281-.6153c-.3059-.2822-.6758-.4847-1.0921-.4847h-.5603c-.4163 0-.7862.2025-1.0921.4847-.353.3259-1.03227.6153-1.9274.6153-.89512 0-1.57437-.2894-1.92809-.6153-.30594-.2822-.67582-.4847-1.0921-.4847h-.56031c-.41628 0-.78616.2025-1.09209.4847-.35303.3259-1.03228.6153-1.92741.6153h-.55c-.30387 0-.55.2462-.55.55v1.1c0 .3039.24613.55.55.55h.55c1.32756 0 2.49975-.419 3.3-1.0945.80025.6758 1.97244 1.0945 3.3 1.0945 1.3276 0 2.4998-.419 3.3-1.0945.8003.6758 1.9724 1.0945 3.3 1.0945s2.4998-.419 3.3-1.0945c.8003.6758 1.9724 1.0945 3.3 1.0945h.55c.3039 0 .55-.2461.55-.55v-1.1c0-.3038-.2461-.55-.55-.55zm-17.6-3.3c1.51869 0 2.75-1.2313 2.75-2.74997 0-1.51869-1.23131-2.75001-2.75-2.75001s-2.75 1.23132-2.75 2.75001c0 1.51867 1.23131 2.74997 2.75 2.74997z" fill="#000"/></svg>