<svg fill="currentColor" height="24" viewBox="0 0 24 24" width="24" xmlns="http://www.w3.org/2000/svg"><g ><path clip-rule="evenodd" d="m6.25 5c-1.79495 0-3.25 1.45505-3.25 3.25 0 1.7949 1.45505 3.25 3.25 3.25s3.25-1.4551 3.25-3.25c0-1.79495-1.45505-3.25-3.25-3.25zm0 2c-.68912 0-1.25.56088-1.25 1.25s.56088 1.25 1.25 1.25 1.25-.56088 1.25-1.25-.56088-1.25-1.25-1.25z" fill-rule="evenodd"/><path d="m19.4137 7.37474-3.1708-.55964c-.8364-.1738-1.7141.00382-2.4088.492-2.9373 2.05699-4.6654 4.4484-5.0782 5.0267l-1.16154 1.6265c-.02858.09-.02757.19.02286.2698.03553.0562.07644.1019.13848.1592.16814.1553.6018.3607 1.2443.3607.18541 0 .36728-.0223.54971-.0525l.86629-1.2129c.4152-.582.8732-1.1303 1.3551-1.6617l4.014 2.8109.1271-.0532c.1262-.0529.255-.1201.3323-.1912.3453-.3185.7227-.5173 1.1071-.5978l.5649-.1184-4.7014-3.2923c.5698-.51462 1.1631-1.00163 1.7942-1.44362.2316-.16213.5291-.22449.84-.16017l3.2066.56627.0013.00022c.5452.09333 1.0761-.25862 1.1765-.80669.1005-.54844-.2713-1.06538-.82-1.16217z"/><path d="m5.745 15c-.46311 0-.85709.2253-1.16232.5069-.26511.2447-.81727.4931-1.58268.4931h-.5c-.41432 0-.75.3357-.75.75v.5c0 .4143.33568.75.75.75h.5c1.17275 0 2.23082-.3451 2.99997-.9253.7692.5805 1.82731.9253 3.00003.9253 1.1728 0 2.2308-.3451 3-.9253.7692.5805 1.8273.9253 3 .9253 1.1728 0 2.2308-.3451 3-.9253.7692.5805 1.8273.9253 3 .9253h.5c.4143 0 .75-.3357.75-.75v-.5c0-.4143-.3357-.75-.75-.75h-.5c-.7652 0-1.3174-.2483-1.5833-.4931-.3052-.2816-.6992-.5069-1.1623-.5069h-.5094c-.4631 0-.8572.2254-1.1624.5069-.2651.2447-.8172.4931-1.5826.4931-.7652 0-1.3174-.2483-1.5833-.4931-.3052-.2816-.6992-.5069-1.1623-.5069h-.5094c-.4631 0-.8572.2254-1.1624.5069-.2651.2447-.81719.4931-1.5826.4931-.76522 0-1.31742-.2483-1.5833-.4931-.30523-.2816-.69921-.5069-1.16233-.5069z"/></g></svg>