<svg fill="currentColor" height="24" viewBox="0 0 24 24" width="24" xmlns="http://www.w3.org/2000/svg"><path d="m12 3v18h-4.4c-1.22 0-2.39002-.4846-3.25269-1.3473s-1.34731-2.0327-1.34731-3.2527v-8.8c0-1.22.48464-2.39002 1.34731-3.25269s2.03269-1.34731 3.25269-1.34731zm-2 2h-2.4c-.68956 0-1.35088.27393-1.83848.76152-.48759.4876-.76152 1.14892-.76152 1.83848v8.8c0 .6896.27393 1.3509.76152 1.8385.4876.4876 1.14892.7615 1.83848.7615h2.4zm-2.5 5c-.39782 0-.77936-.15804-1.06066-.43934s-.43934-.66284-.43934-1.06066.15804-.77936.43934-1.06066.66284-.43934 1.06066-.43934.77936.15804 1.06066.43934.43934.66284.43934 1.06066-.15804.77936-.43934 1.06066-.66284.43934-1.06066.43934zm6.5-7h2.4c.6041 0 1.2022.11898 1.7603.35015.5581.23118 1.0652.57001 1.4924.99716.4271.42715.766.93425.9971 1.49235.2312.55809.3502 1.15626.3502 1.76034v8.8c0 .6041-.119 1.2022-.3502 1.7603-.2311.5581-.57 1.0652-.9971 1.4924-.4272.4271-.9343.766-1.4924.9971-.5581.2312-1.1562.3502-1.7603.3502h-2.4zm3 11.7c.2364 0 .4704-.0466.6888-.137.2184-.0905.4168-.2231.584-.3902.1671-.1672.2997-.3656.3902-.584.0904-.2184.137-.4524.137-.6888s-.0466-.4704-.137-.6888c-.0905-.2184-.2231-.4168-.3902-.584-.1672-.1671-.3656-.2997-.584-.3902-.2184-.0904-.4524-.137-.6888-.137-.4774 0-.9352.1896-1.2728.5272s-.5272.7954-.5272 1.2728.1896.9352.5272 1.2728.7954.5272 1.2728.5272z" /></svg>