<svg fill="currentColor" height="24" viewBox="0 0 24 24" width="24" xmlns="http://www.w3.org/2000/svg"><path d="m13.619 21c-.085 0-.141-.057-.127-.127v-17.746c0-.056.042-.113.113-.113h2.785c1.2226 0 2.3952.4857 3.2598 1.35024.8645.86454 1.3502 2.03711 1.3502 3.25976v8.766c0 1.2226-.4857 2.3952-1.3502 3.2598-.8646.8645-2.0372 1.3502-3.2598 1.3502h-2.77zm3.422-9.926c-1.004 0-1.824.82-1.824 1.824s.82 1.824 1.824 1.824 1.824-.82 1.824-1.824-.82-1.824-1.824-1.824zm-11.241-2.674c0-.933.763-1.696 1.696-1.696.934 0 1.697.763 1.697 1.696 0 .934-.763 1.697-1.697 1.697-.44932-.0016-.87979-.18077-1.19751-.49849s-.49691-.74819-.49849-1.19751zm5.74-5.4c.085 0 .142.057.128.127v17.733c0 .07-.057.127-.128.127h-3.93c-.60548 0-1.20503-.1193-1.7644-.351-.55938-.2317-1.06762-.5714-1.49572-.9996-.42809-.4282-.76764-.9365-.99925-1.4959-.23162-.5594-.35076-1.159-.35063-1.7645v-8.766c0-1.22265.4857-2.39522 1.35024-3.25976s2.03711-1.35024 3.25976-1.35024zm-1.315 16.544v-15.102h-2.615c-.849 0-1.64.34-2.235.933-.29811.29044-.53442.63814-.69476 1.02221-.16033.38408-.24137.7966-.23824 1.21279v8.766c0 .849.34 1.64.933 2.234.29035.2983.63802.5348 1.0221.6953s.79664.2417 1.2129.2387z" /></svg>