<svg fill="currentColor" height="24" viewBox="0 0 24 24" width="24" xmlns="http://www.w3.org/2000/svg"><path d="m17.4571 3 3.543.003.002 3.523-5.467 5.466 2.828 2.829 1.415-1.414 1.414 1.414-2.474 2.475 2.828 2.829-1.414 1.414-2.829-2.829-2.475 2.475-1.414-1.414 1.414-1.415-2.829-2.828-2.828 2.828 1.415 1.415-1.414 1.414-2.475-2.475-2.829 2.829-1.414-1.414 2.829-2.83-2.475-2.474 1.414-1.414 1.414 1.413 2.827-2.828-5.46-5.46-.003-3.532 3.546.003 5.453 5.454zm-7.58 10.406-2.827 2.828.708.707 2.827-2.828-.707-.707zm9.124-8.405h-.717l-4.87 4.869.706.707 4.881-4.879zm-14 0v.7l11.241 11.241.707-.707-11.233-11.233z" /></svg>