<svg fill="currentColor" height="24" viewBox="0 0 24 24" width="24" xmlns="http://www.w3.org/2000/svg"><path d="m21.6779 7.97978-1.415 1.413-2.12-2.12-2.122 2.12 3.535 3.53602-1.414 1.414-.707-.707-6.364 6.364h-5.65699l-2.121 2.121-1.414-1.414 2.121-2.121v-5.657l6.36399-6.36402-.70699-.707 1.41399-1.414 3.536 3.535 2.12-2.121-2.12-2.121 1.414-1.415 5.657 5.657zm-5.657 4.24202-4.243-4.24302-1.414 1.414 2.121 2.12202-1.414 1.414-2.12099-2.121-1.414 1.414 2.12 2.121-1.413 1.414-2.122-2.121-.121.121v4.243h4.24299z" /></svg>