<svg fill="currentColor" height="24" viewBox="0 0 24 24" width="24" xmlns="http://www.w3.org/2000/svg"><path d="m12.707 17.793c.827.827 1.588 1.207 2.293 1.207.378 0 .68-.067 1.237-.276l.392-.152c1.05-.422 1.58-.572 2.371-.572 1.214 0 2.379.545 3.486 1.58l.221.213-1.414 1.414c-.827-.827-1.588-1.207-2.293-1.207-.378 0-.68.067-1.237.276l-.392.152c-1.05.421-1.58.572-2.371.572-1.214 0-2.379-.545-3.486-1.58l-.221-.213zm-3.707-14.793c0 .79565.31607 1.55871.87868 2.12132.56262.56261 1.32572.87868 2.12132.87868s1.5587-.31607 2.1213-.87868.8787-1.32567.8787-2.12132h6c.2652 0 .5196.10536.7071.29289.1875.18754.2929.44189.2929.70711v7c0 .2652-.1054.5196-.2929.7071s-.4419.2929-.7071.2929h-9c-.5046-.0002-.9906.1904-1.3605.5335-.37.3431-.5967.8133-.6345 1.3165l-.005.15v7h-4c-.26522 0-.51957-.1054-.70711-.2929-.18753-.1875-.29289-.4419-.29289-.7071l-.001-8.001-1.999.001c-.26522 0-.51957-.1054-.70711-.2929-.18753-.1875-.29289-.4419-.29289-.7071v-7c0-.26522.10536-.51957.29289-.70711.18754-.18753.44189-.29289.70711-.29289zm3.707 10.793c.827.827 1.588 1.207 2.293 1.207.378 0 .68-.067 1.237-.276l.392-.152c1.05-.422 1.58-.572 2.371-.572 1.214 0 2.379.545 3.486 1.58l.221.213-1.414 1.414c-.827-.827-1.588-1.207-2.293-1.207-.378 0-.68.067-1.237.276l-.392.152c-1.05.421-1.58.572-2.371.572-1.214 0-2.379-.545-3.486-1.58l-.221-.213z" /></svg>