<svg fill="currentColor" height="24" viewBox="0 0 24 24" width="24" xmlns="http://www.w3.org/2000/svg"><path d="m14.5155 4.9999 2.606-2.607c.0928-.09298.2031-.16674.3245-.21706.1214-.05033.2516-.07623.383-.07623s.2615.0259.3829.07623c.1214.05032.2317.12408.3246.21706l4.242 4.243c.1874.18752.2928.44183.2928.707 0 .26516-.1054.51947-.2928.707l-3.778 3.778v9.172c0 .2652-.1054.5196-.2929.7071-.1876.1875-.4419.2929-.7071.2929h-12.00003c-.26521 0-.51957-.1054-.7071-.2929-.18754-.1875-.2929-.4419-.2929-.7071v-9.172l-3.778-3.778c-.18747-.18753-.292782-.44184-.292782-.707 0-.26517.105312-.51948.292782-.707l4.242-4.243c.09288-.09298.20317-.16674.32456-.21706.1214-.05033.25153-.07623.38294-.07623.13142 0 .26155.0259.38294.07623.1214.05032.23169.12408.32456.21706l2.606 2.607zm.828 2h-6.68603l-2.485-2.485-2.829 2.828 3.657 3.657v9h10.00003v-9l3.657-3.657-2.829-2.828z" /></svg>