<svg fill="currentColor" height="24" viewBox="0 0 24 24" width="24" xmlns="http://www.w3.org/2000/svg"><path d="m21 3c.2652 0 .5196.10536.7071.29289.1875.18754.2929.44189.2929.70711v7c0 .2652-.1054.5196-.2929.7071s-.4419.2929-.7071.2929h-2.001l.001 8c0 .2652-.1054.5196-.2929.7071s-.4419.2929-.7071.2929h-12c-.26522 0-.51957-.1054-.70711-.2929-.18753-.1875-.29289-.4419-.29289-.7071l-.001-8.001-1.999.001c-.26522 0-.51957-.1054-.70711-.2929-.18753-.1875-.29289-.4419-.29289-.7071v-7c0-.26522.10536-.51957.29289-.70711.18754-.18753.44189-.29289.70711-.29289h6c0 .79565.31607 1.55871.87868 2.12132.56262.56261 1.32572.87868 2.12132.87868s1.5587-.31607 2.1213-.87868.8787-1.32567.8787-2.12132z" /></svg>