<svg fill="currentColor" height="24" viewBox="0 0 24 24" width="24" xmlns="http://www.w3.org/2000/svg"><path d="m12.707 17.793c.827.827 1.588 1.207 2.293 1.207.378 0 .68-.067 1.237-.276l.392-.152c1.05-.422 1.58-.572 2.371-.572 1.214 0 2.379.545 3.486 1.58l.221.213-1.414 1.414c-.827-.827-1.588-1.207-2.293-1.207-.378 0-.68.067-1.237.276l-.392.152c-1.05.421-1.58.572-2.371.572-1.214 0-2.379-.545-3.486-1.58l-.221-.213zm-3.707-14.793c0 .79565.31607 1.55871.87868 2.12132.56262.56261 1.32572.87868 2.12132.87868s1.5587-.31607 2.1213-.87868.8787-1.32567.8787-2.12132h6c.2652 0 .5196.10536.7071.29289.1875.18754.2929.44189.2929.70711v7c0 .2652-.1054.5196-.2929.7071s-.4419.2929-.7071.2929h-4.002v-2l3.002-.001v-5h-3.417l-.017.041c-.3792.84785-.987 1.57337-1.7553 2.09528s-1.6668.8196-2.5947.85972l-.216.005c-.9656.00009-1.9106-.27937-2.72082-.80463-.81024-.52525-1.4511-1.27384-1.84518-2.15537l-.018-.04h-3.416v5l2.999-.001v9.001h3.001v2h-4c-.26522 0-.51957-.1054-.70711-.2929-.18753-.1875-.29289-.4419-.29289-.7071l-.001-8.001-1.999.001c-.26522 0-.51957-.1054-.70711-.2929-.18753-.1875-.29289-.4419-.29289-.7071v-7c0-.26522.10536-.51957.29289-.70711.18754-.18753.44189-.29289.70711-.29289zm3.707 10.793c.827.827 1.588 1.207 2.293 1.207.378 0 .68-.067 1.237-.276l.392-.152c1.05-.422 1.58-.572 2.371-.572 1.214 0 2.379.545 3.486 1.58l.221.213-1.414 1.414c-.827-.827-1.588-1.207-2.293-1.207-.378 0-.68.067-1.237.276l-.392.152c-1.05.421-1.58.572-2.371.572-1.214 0-2.379-.545-3.486-1.58l-.221-.213z" /></svg>