<svg fill="currentColor" height="24" viewBox="0 0 24 24" width="24" xmlns="http://www.w3.org/2000/svg"><path d="m16 1c.5523 0 1 .44772 1 1v.999l5 .001v6l-2.02-.001 2.7667 7.5963c.1638.4367.2533.9098.2533 1.4037 0 2.2092-1.7909 4-4 4-1.8632 0-3.4289-1.2739-3.8735-2.9982h-4.2527c-.4443 1.7248-2.01023 2.9992-3.8738 2.9992-1.94487 0-3.56555-1.388-3.92547-3.2275-.63895-.3335-1.07453-1.0021-1.07453-1.7725v-13c0-.55228.44772-1 1-1h7c.5523 0 1 .44772 1 1v8c0 .5128.386.9355.8834.9933l.1166.0067h2c.5128 0 .9355-.386.9933-.8834l.0067-.1166v-9h-3v-2zm-9 15c-1.10457 0-2 .8954-2 2s.89543 2 2 2 2-.8954 2-2-.89543-2-2-2zm12-.001c-1.1046 0-2 .8954-2 2s.8954 2 2 2 2-.8954 2-2-.8954-2-2-2zm-1.148-7h-.852v3.001c0 1.6569-1.3431 3-3 3h-2c-1.3059 0-2.41689-.8344-2.82898-1.9991l-5.17108-.0009v2.3542c.73295-.8304 1.80534-1.3542 3.00006-1.3542 1.86393 0 3.4301 1.2749 3.874 3.0003h4.2517c.4436-1.7259 2.01-3.0013 3.8743-3.0013.2373 0 .4697.0207.6957.0603zm-8.852-.999h-5v3h5zm11-3h-3v2h3zm-11 0h-5v1h5z" /></svg>