<svg fill="currentColor" height="24" viewBox="0 0 24 24" width="24" xmlns="http://www.w3.org/2000/svg"><path d="m17.1721 14.0002h-2.672v1.375c.55-.221 1.153-.49 1.812-.81l-.082-.238zm.828-.287.12-.042c.641 1.851 1.034 3.012 1.185 3.5l-1.912.59c-.074-.24-.216-.672-.427-1.293-6.081 2.885-8.67101 2.054-9.00801-1.907l1.993-.17c.10001 1.165.34401 1.622.89701 1.752.393.093.94.063 1.652-.104v-2.039h-3.50001v-2h.513l-1.167-1.39c1.043-.87604 1.85801-1.83004 2.44801-2.86404-.518.135-1.03701.28-1.55101.435-.51398.7589-1.10149 1.46531-1.754 2.10904l-1.4-1.42804c1.272-1.248 2.333-2.91 3.176-4.994l1.85401.75c-.1498.37136-.3099.7385-.48 1.101 3.702-.936 7.275-1.317 9.138-.68 1.223.418 1.919 1.391 2.187 2.584.17.756.313 2.68904.313 5.12304 0 2.807-.056 3.77-.34 4.622-.297.89-.696 1.418-1.407 1.984-.657.523-1.553.763-2.645.823-.673.037-1.368.003-2.095-.08-.199-.022-.3977-.047-.596-.075l.264-1.982c.1852.0242.3705.0475.556.07.625.07 1.216.1 1.762.07.714-.04 1.245-.181 1.508-.39.426-.34.591-.558.756-1.054.186-.554.237-1.448.237-3.988 0-2.299-.133-4.10204-.264-4.68304-.13-.577-.41-.97-.883-1.132-1.207-.412-3.801-.194-6.652.417l.615.262c-.13.302-.273.6-.43.89h5.337v2.00004h-3.5v1.5h3.5zm-5.5-3.213h-1.208c-.4585.5378-.958 1.0393-1.49401 1.5h2.70201zm-10.03901-.438 1.079-1.68504c1.062.679 2.935 2.42704 3.338 3.16104 1.239 2.26.197 4.176-3.122 7.997l-1.51-1.311c2.687-3.094 3.5-4.59 2.878-5.724-.214-.39-1.857-1.924-2.662-2.438zm2.68-2.47904c-1.049 0-1.883-.762-1.888-1.693 0-.94.84-1.701 1.887-1.701 1.04 0 1.883.758 1.883 1.701 0 .935-.843 1.693-1.883 1.693z" /></svg>