<svg fill="currentColor" height="24" viewBox="0 0 24 24" width="24" xmlns="http://www.w3.org/2000/svg"><path d="m10.83 13c.2123-.6003.228-1.2527.0449-1.8625-.1831-.6099-.5555-1.14571-1.06325-1.52991-.5078-.38419-1.12467-.59685-1.76134-.60719-.63668-.01035-1.26014.18216-1.78015.54966-.52001.36749-.9096.89094-1.11239 1.49454-.20278.6036-.20826 1.2561-.01562 1.863s.5734 1.1368 1.08718 1.513c.51377.3761 1.13391.5791 1.77067.5794h8c.6368-.0003 1.2569-.2033 1.7707-.5794.5137-.3762.8945-.9061 1.0871-1.513.1927-.6069.1872-1.2594-.0156-1.863s-.5924-1.12705-1.1124-1.49454c-.52-.3675-1.1434-.56001-1.7801-.54966-.6367.01034-1.2536.223-1.7614.60719-.5077.3842-.8801.92001-1.0632 1.52991-.1831.6098-.1674 1.2622.0449 1.8625zm-7.83-10h18c.2652 0 .5196.10536.7071.29289.1875.18754.2929.44189.2929.70711v16c0 .2652-.1054.5196-.2929.7071s-.4419.2929-.7071.2929h-18c-.26522 0-.51957-.1054-.70711-.2929-.18753-.1875-.29289-.4419-.29289-.7071v-16c0-.26522.10536-.51957.29289-.70711.18754-.18753.44189-.29289.70711-.29289zm13 10c-.2652 0-.5196-.1054-.7071-.2929s-.2929-.4419-.2929-.7071.1054-.5196.2929-.7071.4419-.2929.7071-.2929.5196.1054.7071.2929.2929.4419.2929.7071-.1054.5196-.2929.7071-.4419.2929-.7071.2929zm-8 0c-.26522 0-.51957-.1054-.70711-.2929-.18753-.1875-.29289-.4419-.29289-.7071s.10536-.5196.29289-.7071c.18754-.1875.44189-.2929.70711-.2929s.51957.1054.70711.2929c.18753.1875.29289.4419.29289.7071s-.10536.5196-.29289.7071c-.18754.1875-.44189.2929-.70711.2929z" /></svg>