<svg fill="currentColor" height="24" viewBox="0 0 24 24" width="24" xmlns="http://www.w3.org/2000/svg"><path d="m10.83 13h2.34c-.2123-.6003-.228-1.2527-.0449-1.8625.1831-.6099.5555-1.14571 1.0632-1.52991.5078-.38419 1.1247-.59685 1.7614-.60719.6367-.01035 1.2601.18216 1.7801.54966.52.36749.9096.89094 1.1124 1.49454s.2083 1.2561.0156 1.863c-.1926.6069-.5734 1.1368-1.0871 1.513-.5138.3761-1.1339.5791-1.7707.5794h-8c-.63676-.0003-1.2569-.2033-1.77067-.5794-.51378-.3762-.89454-.9061-1.08718-1.513s-.18716-1.2594.01562-1.863c.20279-.6036.59238-1.12705 1.11239-1.49454.52001-.3675 1.14347-.56001 1.78015-.54966.63667.01034 1.25354.223 1.76134.60719.50775.3842.88015.92001 1.06325 1.52991.1831.6098.1674 1.2622-.0449 1.8625zm-6.83-8v14h16v-14zm-1-2h18c.2652 0 .5196.10536.7071.29289.1875.18754.2929.44189.2929.70711v16c0 .2652-.1054.5196-.2929.7071s-.4419.2929-.7071.2929h-18c-.26522 0-.51957-.1054-.70711-.2929-.18753-.1875-.29289-.4419-.29289-.7071v-16c0-.26522.10536-.51957.29289-.70711.18754-.18753.44189-.29289.70711-.29289zm5 10c.26522 0 .51957-.1054.70711-.2929.18753-.1875.29289-.4419.29289-.7071s-.10536-.5196-.29289-.7071c-.18754-.1875-.44189-.2929-.70711-.2929s-.51957.1054-.70711.2929c-.18753.1875-.29289.4419-.29289.7071s.10536.5196.29289.7071c.18754.1875.44189.2929.70711.2929zm8 0c.2652 0 .5196-.1054.7071-.2929s.2929-.4419.2929-.7071-.1054-.5196-.2929-.7071-.4419-.2929-.7071-.2929-.5196.1054-.7071.2929-.2929.4419-.2929.7071.1054.5196.2929.7071.4419.2929.7071.2929z" /></svg>