<svg fill="currentColor" height="24" viewBox="0 0 24 24" width="24" xmlns="http://www.w3.org/2000/svg"><path d="m12 11c1.3261 0 2.5979.5268 3.5355 1.4645.9377.9376 1.4645 2.2094 1.4645 3.5355v6h-2v-6c0-.7652-.2923-1.5015-.8173-2.0583-.5249-.5567-1.2428-.8918-2.0067-.9367l-.176-.005c-.7652 0-1.5015.2923-2.05826.8173-.55675.5249-.89185 1.2428-.93674 2.0067l-.005.176v6h-2v-6c0-1.3261.52678-2.5979 1.46447-3.5355.93768-.9377 2.20943-1.4645 3.53553-1.4645zm-6.5 3c.279 0 .55.033.81.094-.17098.509-.27223 1.0388-.301 1.575l-.009.331v.086c-.11495-.0411-.23451-.068-.356-.08l-.144-.006c-.37288 0-.73239.1389-1.00842.3896s-.44878.5952-.48458.9664l-.007.144v4.5h-2v-4.5c0-.9283.36875-1.8185 1.02513-2.4749.65637-.6564 1.54661-1.0251 2.47487-1.0251zm13 0c.9283 0 1.8185.3687 2.4749 1.0251s1.0251 1.5466 1.0251 2.4749v4.5h-2v-4.5c0-.3729-.1389-.7324-.3896-1.0084s-.5952-.4488-.9664-.4846l-.144-.007c-.175 0-.343.03-.5.085v-.085c0-.666-.108-1.306-.309-1.904.259-.063.53-.096.809-.096zm-13-6c.66304 0 1.29893.26339 1.76777.73223s.73223 1.10473.73223 1.76777c0 .663-.26339 1.2989-.73223 1.7678-.46884.4688-1.10473.7322-1.76777.7322s-1.29893-.2634-1.76777-.7322c-.46884-.4689-.73223-1.1048-.73223-1.7678 0-.66304.26339-1.29893.73223-1.76777s1.10473-.73223 1.76777-.73223zm13 0c.663 0 1.2989.26339 1.7678.73223.4688.46884.7322 1.10473.7322 1.76777 0 .663-.2634 1.2989-.7322 1.7678-.4689.4688-1.1048.7322-1.7678.7322s-1.2989-.2634-1.7678-.7322c-.4688-.4689-.7322-1.1048-.7322-1.7678 0-.66304.2634-1.29893.7322-1.76777.4689-.46884 1.1048-.73223 1.7678-.73223zm-13 2c-.13261 0-.25979.0527-.35355.1464-.09377.0938-.14645.221-.14645.3536s.05268.2598.14645.3536c.09376.0937.22094.1464.35355.1464s.25979-.0527.35355-.1464c.09377-.0938.14645-.221.14645-.3536s-.05268-.2598-.14645-.3536c-.09376-.0937-.22094-.1464-.35355-.1464zm13 0c-.1326 0-.2598.0527-.3536.1464-.0937.0938-.1464.221-.1464.3536s.0527.2598.1464.3536c.0938.0937.221.1464.3536.1464s.2598-.0527.3536-.1464c.0937-.0938.1464-.221.1464-.3536s-.0527-.2598-.1464-.3536c-.0938-.0937-.221-.1464-.3536-.1464zm-6.5-8c1.0609 0 2.0783.42143 2.8284 1.17157.7502.75015 1.1716 1.76756 1.1716 2.82843s-.4214 2.07828-1.1716 2.82843c-.7501.75014-1.7675 1.17157-2.8284 1.17157s-2.07828-.42143-2.82843-1.17157c-.75014-.75015-1.17157-1.76756-1.17157-2.82843s.42143-2.07828 1.17157-2.82843c.75015-.75014 1.76753-1.17157 2.82843-1.17157zm0 2c-.5304 0-1.0391.21071-1.4142.58579-.3751.37507-.5858.88378-.5858 1.41421s.2107 1.03914.5858 1.41421c.3751.37508.8838.58579 1.4142.58579s1.0391-.21071 1.4142-.58579c.3751-.37507.5858-.88378.5858-1.41421s-.2107-1.03914-.5858-1.41421c-.3751-.37508-.8838-.58579-1.4142-.58579z" /></svg>