<svg fill="currentColor" height="24" viewBox="0 0 24 24" width="24" xmlns="http://www.w3.org/2000/svg"><path d="m12 11c1.3261 0 2.5979.5268 3.5355 1.4645.9377.9376 1.4645 2.2094 1.4645 3.5355v6h-10v-6c0-1.3261.52678-2.5979 1.46447-3.5355.93768-.9377 2.20943-1.4645 3.53553-1.4645zm-6.712 3.006c-.15914.5368-.25315 1.0908-.28 1.65l-.008.344v6h-3v-4.5c-.0002-.8624.31803-1.6946.89363-2.3368.57561-.6422 1.36807-1.0493 2.22537-1.1432l.17-.014zm13.424 0c.8899.0542 1.7256.446 2.3366 1.0952.611.6493.9513 1.5072.9514 2.3988v4.5h-3v-6c0-.693-.1-1.362-.288-1.994zm-13.212-6.006c.66304 0 1.29893.26339 1.76777.73223s.73223 1.10473.73223 1.76777c0 .663-.26339 1.2989-.73223 1.7678-.46884.4688-1.10473.7322-1.76777.7322s-1.29893-.2634-1.76777-.7322c-.46884-.4689-.73223-1.1048-.73223-1.7678 0-.66304.26339-1.29893.73223-1.76777s1.10473-.73223 1.76777-.73223zm13 0c.663 0 1.2989.26339 1.7678.73223.4688.46884.7322 1.10473.7322 1.76777 0 .663-.2634 1.2989-.7322 1.7678-.4689.4688-1.1048.7322-1.7678.7322s-1.2989-.2634-1.7678-.7322c-.4688-.4689-.7322-1.1048-.7322-1.7678 0-.66304.2634-1.29893.7322-1.76777.4689-.46884 1.1048-.73223 1.7678-.73223zm-6.5-6c1.0609 0 2.0783.42143 2.8284 1.17157.7502.75015 1.1716 1.76756 1.1716 2.82843s-.4214 2.07828-1.1716 2.82843c-.7501.75014-1.7675 1.17157-2.8284 1.17157s-2.07828-.42143-2.82843-1.17157c-.75014-.75015-1.17157-1.76756-1.17157-2.82843s.42143-2.07828 1.17157-2.82843c.75015-.75014 1.76753-1.17157 2.82843-1.17157z" /></svg>