<svg fill="currentColor" height="24" viewBox="0 0 24 24" width="24" xmlns="http://www.w3.org/2000/svg"><path d="m12 20c2.1217 0 4.1566-.8429 5.6569-2.3431 1.5002-1.5003 2.3431-3.5352 2.3431-5.6569 0-2.12173-.8429-4.15656-2.3431-5.65685-1.5003-1.5003-3.5352-2.34315-5.6569-2.34315-2.12173 0-4.15656.84285-5.65685 2.34315-1.5003 1.50029-2.34315 3.53512-2.34315 5.65685 0 2.1217.84285 4.1566 2.34315 5.6569 1.50029 1.5002 3.53512 2.3431 5.65685 2.3431zm0 2c-5.523 0-10-4.477-10-10s4.477-10 10-10 10 4.477 10 10-4.477 10-10 10zm-3.11-8.83-2.498-.779c-.54-.165-.543-.537.121-.804l9.733-3.76c.565-.23.885.061.702.79l-1.657 7.82c-.116.557-.451.69-.916.433l-2.551-1.888-1.189 1.148c-.122.118-.221.219-.409.244-.187.026-.341-.03-.454-.34l-.87-2.871-.012.008z" /></svg>