<svg fill="currentColor" height="24" viewBox="0 0 24 24" width="24" xmlns="http://www.w3.org/2000/svg"><path d="m8 10.255v-5.255c0-1.06087.42143-2.07828 1.17157-2.82843.75015-.75014 1.76753-1.17157 2.82843-1.17157s2.0783.42143 2.8284 1.17157c.7502.75015 1.1716 1.76756 1.1716 2.82843v5.255c1.223.8516 2.1423 2.0712 2.6241 3.4815.4818 1.4102.5009 2.9374.0547 4.3593-.4463 1.4218-1.3347 2.6642-2.5359 3.5462-1.2013.882-2.6526 1.3576-4.1429 1.3576s-2.94163-.4756-4.14286-1.3576c-1.20124-.882-2.08964-2.1244-2.53591-3.5462-.44627-1.4219-.42711-2.9491.05469-4.3593.4818-1.4103 1.4011-2.6299 2.62408-3.4815zm0 5.745c0 1.0609.42143 2.0783 1.17157 2.8284.75015.7502 1.76753 1.1716 2.82843 1.1716s2.0783-.4214 2.8284-1.1716c.7502-.7501 1.1716-1.7675 1.1716-2.8284z" /></svg>