<svg fill="currentColor" height="24" viewBox="0 0 24 24" width="24" xmlns="http://www.w3.org/2000/svg"><path d="m8 5c0-1.06087.42143-2.07828 1.17157-2.82843.75015-.75014 1.76753-1.17157 2.82843-1.17157s2.0783.42143 2.8284 1.17157c.7502.75015 1.1716 1.76756 1.1716 2.82843v5.255c1.223.8516 2.1423 2.0712 2.6241 3.4815.4818 1.4102.5009 2.9374.0547 4.3593-.4463 1.4218-1.3347 2.6642-2.5359 3.5462-1.2013.882-2.6526 1.3576-4.1429 1.3576s-2.94163-.4756-4.14286-1.3576c-1.20124-.882-2.08964-2.1244-2.53591-3.5462-.44627-1.4219-.42711-2.9491.05469-4.3593.4818-1.4103 1.4011-2.6299 2.62408-3.4815zm1.144 6.895c-.87383.6081-1.53075 1.4792-1.87515 2.4866-.34439 1.0073-.35827 2.0983-.03961 3.1141s.95321 1.9033 1.81129 2.5334c.85808.6302 1.89487.97 2.95947.97s2.1014-.3398 2.9595-.97c.858-.6301 1.4926-1.5176 1.8113-2.5334.3186-1.0158.3047-2.1068-.0397-3.1141-.3443-1.0074-1.0013-1.8785-1.8751-2.4866l-.856-.597v-6.298c0-.53043-.2107-1.03914-.5858-1.41421-.3751-.37508-.8838-.58579-1.4142-.58579s-1.0391.21071-1.4142.58579c-.3751.37507-.5858.88378-.5858 1.41421v6.298zm-1.144 4.105h8c0 1.0609-.4214 2.0783-1.1716 2.8284-.7501.7502-1.7675 1.1716-2.8284 1.1716s-2.07828-.4214-2.82843-1.1716c-.75014-.7501-1.17157-1.7675-1.17157-2.8284z" /></svg>