<svg fill="currentColor" height="24" viewBox="0 0 24 24" width="24" xmlns="http://www.w3.org/2000/svg"><path d="m20.5564 3.44396c1.562 1.562 1.562 4.094 0 5.657l-8.2 8.20004c-.642.642-1.484 1.047-2.38699 1.147l-3.378.374-2.298 2.3c-.39.39-1.024.39-1.414 0-.39-.391-.39-1.024 0-1.415l2.298-2.299.375-3.377c.1-.903.505-1.745 1.147-2.387l8.19999-8.20004c1.563-1.562 4.095-1.562 5.657 0zm-4.242 1.414-8.19999 8.20004c-.322.321-.524.742-.574 1.193l-.276 2.485 2.485-.276c.44999-.05.87199-.252 1.19299-.573l.422-.423-1.41399-1.414 1.41399-1.414 1.414 1.414 1.414-1.414-1.414-1.414 1.414-1.41404 1.415 1.41404 1.414-1.41504-1.414-1.414 1.413-1.413 1.414 1.414.707-.707c.781-.78.781-2.047 0-2.828-.78-.781-2.047-.781-2.828 0z" /></svg>