<svg fill="currentColor" height="24" viewBox="0 0 24 24" width="24" xmlns="http://www.w3.org/2000/svg"><path d="m22 15h-3v-12h3c.2652 0 .5196.10536.7071.29289.1875.18754.2929.44189.2929.70711v10c0 .2652-.1054.5196-.2929.7071s-.4419.2929-.7071.2929zm-5.293 1.293-6.4 6.4c-.0851.0853-.1981.137-.31822.1457-.12016.0086-.23939-.0264-.33578-.0987l-.853-.64c-.2369-.1778-.41584-.4219-.51425-.7013-.09842-.2794-.1119-.5816-.03875-.8687l1.153-4.53h-6.4c-.53043 0-1.03914-.2107-1.41421-.5858-.37508-.3751-.58579-.8838-.58579-1.4142v-2.104c-.000269-.2614.05069-.5202.15-.762l3.096-7.514c.07528-.18325.2033-.34.3678-.45039.16451-.11038.35809-.16941.5562-.16961h10.83c.2652 0 .5196.10536.7071.29289.1875.18754.2929.44189.2929.70711v11.586c-.0001.2652-.1054.5195-.293.707z" /></svg>