<svg fill="currentColor" height="24" viewBox="0 0 24 24" width="24" xmlns="http://www.w3.org/2000/svg"><path d="m14.6 7.9999h6.4c.5304 0 1.0391.21072 1.4142.58579s.5858.88378.5858 1.41421v2.104c.0003.2614-.0507.5202-.15.762l-3.095 7.515c-.0755.1832-.2037.3399-.3684.4501s-.3584.169-.5566.1689h-16.83c-.26522 0-.51957-.1054-.70711-.2929-.18753-.1875-.29289-.4419-.29289-.7071v-10c0-.26521.10536-.51957.29289-.7071.18754-.18754.44189-.2929.70711-.2929h3.482c.1601.00004.31786-.03835.46003-.11196s.26459-.18028.35697-.31104l5.453-7.726996c.0689-.097687.1706-.16744.2865-.19661.116-.02917.2385-.015827.3455.03761l1.814.906996c.5105.25517.9183.67732 1.1557 1.19632s.2901 1.10361.1493 1.65668zm-7.6 2.588v8.412h11.16l2.84-6.896v-2.104h-6.4c-.3046-.00004-.6052-.06966-.8788-.20354s-.513-.32849-.6999-.56897c-.187-.24048-.3165-.52049-.3788-.81866-.0622-.29817-.0556-.60662.0195-.90183l.903-3.548c.0283-.11067.0178-.22768-.0297-.33157-.0475-.10388-.1291-.18838-.2313-.23943l-.661-.33-4.71 6.672c-.25.354-.57.644-.933.858zm-2 .412h-2v8h2z" /></svg>