<svg fill="currentColor" height="24" viewBox="0 0 24 24" width="24" xmlns="http://www.w3.org/2000/svg"><path d="m2 9.00011h3v11.99999h-3c-.26522 0-.51957-.1053-.70711-.2929-.18753-.1875-.29289-.4419-.29289-.7071v-10c0-.2652.10536-.51956.29289-.7071.18754-.18753.44189-.29289.70711-.29289zm5.293-1.293 6.4-6.4c.0851-.0853.1981-.13703.3182-.14567.1202-.00863.2394.02641.3358.09867l.853.64c.2369.17785.4158.42185.5143.70126.0984.2794.1119.58169.0387.86874l-1.153 4.53h6.4c.5304 0 1.0391.21072 1.4142.58579s.5858.88378.5858 1.4142v2.104c.0003.2614-.0507.5203-.15.762l-3.095 7.515c-.0755.1832-.2037.3399-.3684.4501s-.3584.169-.5566.1689h-10.83c-.26522 0-.51957-.1053-.70711-.2929-.18753-.1875-.29289-.4419-.29289-.7071v-11.58599c.00006-.26519.10545-.51951.293-.707z" /></svg>