<svg fill="currentColor" height="24" viewBox="0 0 24 24" width="24" xmlns="http://www.w3.org/2000/svg"><path d="m9.4 16h-6.4c-.53043 0-1.03914-.2107-1.41421-.5858-.37508-.3751-.58579-.8838-.58579-1.4142v-2.104c-.000269-.2614.05069-.5202.15-.762l3.096-7.514c.07528-.18325.2033-.34.3678-.45039.16451-.11038.35809-.16941.5562-.16961h16.83c.2652 0 .5196.10536.7071.29289.1875.18754.2929.44189.2929.70711v10c0 .2652-.1054.5196-.2929.7071s-.4419.2929-.7071.2929h-3.482c-.1601 0-.3179.0384-.46.112-.1422.0736-.2646.1802-.357.311l-5.453 7.726c-.0689.0977-.1706.1674-.2865.1966-.116.0292-.2385.0158-.3455-.0376l-1.814-.908c-.5105-.2552-.91833-.6773-1.15573-1.1963s-.29007-1.1036-.14927-1.6567zm7.6-2.588v-8.412h-11.16l-2.84 6.896v2.104h6.4c.3046 0 .6052.0697.8788.2035.2736.1339.513.3285.6999.569.187.2405.3165.5205.3788.8187.0622.2981.0556.6066-.0195.9018l-.903 3.548c-.0283.1107-.0178.2277.0297.3316s.1291.1884.2313.2394l.661.33 4.71-6.672c.25-.354.57-.644.933-.858zm2-.412h2v-8h-2z" /></svg>