<svg fill="currentColor" height="24" viewBox="0 0 24 24" width="24" xmlns="http://www.w3.org/2000/svg"><path d="m16.9884 18 1.216-1.58c.1709-.222.2762-.4875.304-.7663s-.0231-.5599-.1469-.8113c-.1237-.2513-.3154-.463-.5533-.6111-.238-.148-.5126-.2264-.7928-.2263h-2.015v-3.976c.0002-.31348-.0979-.61914-.2804-.87403-.1824-.25488-.4402-.44619-.737-.54704-.2968-.10086-.6178-.10618-.9178-.01523s-.5639.2736-.7548.5223l-6.36499 8.281c-1.71051-.7078-3.12272-1.9867-3.99603-3.619-.87332-1.6322-1.153707-3.5167-.79341-5.33246.3603-1.81576 1.339-3.45044 2.76936-4.62555 1.43037-1.17511 3.22391-1.81794 5.07508-1.81899 1.61209-.00009 3.18659.48665 4.51729 1.39648 1.3308.90983 2.3558 2.20034 2.9407 3.70252.7524-.14471 1.5266-.13064 2.2732.04131.7466.17194 1.449.49796 2.0623.95718.6132.45921 1.1238 1.04148 1.4989 1.70949.3752.66802.6066 1.40702.6795 2.16972.0729.7626-.0143 1.5321-.2561 2.2591-.2418.7269-.6328 1.3954-1.148 1.9625-.5151.567-1.1431 1.0202-1.8436 1.3305s-1.4581.4708-2.2242.4712zm-3.988-1.995h3l-5 6.5v-4.5h-2.99999l4.99999-6.505z" /></svg>