<svg fill="currentColor" height="24" viewBox="0 0 24 24" width="24" xmlns="http://www.w3.org/2000/svg"><path d="m21 3c.2652 0 .5196.10536.7071.29289.1875.18754.2929.44189.2929.70711v5.5c-.663 0-1.2989.26339-1.7678.7322-.4688.4689-.7322 1.1048-.7322 1.7678s.2634 1.2989.7322 1.7678c.4689.4688 1.1048.7322 1.7678.7322v5.5c0 .2652-.1054.5196-.2929.7071s-.4419.2929-.7071.2929h-18c-.26522 0-.51957-.1054-.70711-.2929-.18753-.1875-.29289-.4419-.29289-.7071v-5.5c.66304 0 1.29893-.2634 1.76777-.7322.46884-.4689.73223-1.1048.73223-1.7678s-.26339-1.2989-.73223-1.7678c-.46884-.46881-1.10473-.7322-1.76777-.7322v-5.5c0-.26522.10536-.51957.29289-.70711.18754-.18753.44189-.29289.70711-.29289z" /></svg>