<svg fill="currentColor" height="24" viewBox="0 0 24 24" width="24" xmlns="http://www.w3.org/2000/svg"><path d="m21 3c.2652 0 .5196.10536.7071.29289.1875.18754.2929.44189.2929.70711v5.5c-.663 0-1.2989.26339-1.7678.7322-.4688.4689-.7322 1.1048-.7322 1.7678s.2634 1.2989.7322 1.7678c.4689.4688 1.1048.7322 1.7678.7322v5.5c0 .2652-.1054.5196-.2929.7071s-.4419.2929-.7071.2929h-18c-.26522 0-.51957-.1054-.70711-.2929-.18753-.1875-.29289-.4419-.29289-.7071v-5.5c.66304 0 1.29893-.2634 1.76777-.7322.46884-.4689.73223-1.1048.73223-1.7678s-.26339-1.2989-.73223-1.7678c-.46884-.46881-1.10473-.7322-1.76777-.7322v-5.5c0-.26522.10536-.51957.29289-.70711.18754-.18753.44189-.29289.70711-.29289zm-1 2h-16v2.968l.156.081c.67832.37005 1.24993.90852 1.65977 1.56357.40984.65503.6441 1.40463.68023 2.17643l.004.211c.00013.8082-.21748 1.6016-.62995 2.2967-.41247.695-1.00456 1.2662-1.71405 1.6533l-.156.082v2.968h16v-2.969l-.156-.08c-.6783-.37-1.2499-.9085-1.6598-1.5636-.4098-.655-.6441-1.4046-.6802-2.1764l-.004-.211c0-1.704.947-3.187 2.344-3.95l.156-.083zm-4 4v6h-8v-6z" /></svg>