<svg fill="currentColor" height="24" viewBox="0 0 24 24" width="24" xmlns="http://www.w3.org/2000/svg"><path d="m17.6176 5.968 1.453-1.453 1.414 1.414-1.453 1.453c1.4357 1.79717 2.1289 4.0759 1.9371 6.3681-.1919 2.2923-1.2541 4.4241-2.9686 5.9576s-3.9512 2.3524-6.2505 2.2884c-2.29942-.064-4.48702-1.006-6.11356-2.6326-1.62653-1.6265-2.56854-3.8141-2.63255-6.1135s.75483-4.53598 2.28836-6.25049 3.66533-2.77676 5.95755-2.96859c2.2923-.19183 4.571.50131 6.3682 1.93708zm-5.618 14.032c.9192 0 1.8295-.1811 2.6788-.5328.8492-.3518 1.6209-.8674 2.2709-1.5175.65-.65 1.1656-1.4216 1.5174-2.2709s.5329-1.7595.5329-2.6788-.1811-1.8295-.5329-2.6788c-.3518-.84926-.8674-1.62094-1.5174-2.27095s-1.4217-1.16562-2.2709-1.51741c-.8493-.35178-1.7596-.53284-2.6788-.53284-1.8565 0-3.63702.7375-4.94978 2.05025-1.31275 1.31276-2.05025 3.09325-2.05025 4.94975s.7375 3.637 2.05025 4.9497c1.31276 1.3128 3.09328 2.0503 4.94978 2.0503zm-1-12h2v6h-2zm-3.00003-7h8.00003v2h-8.00003z" /></svg>