<svg fill="currentColor" height="24" viewBox="0 0 24 24" width="24" xmlns="http://www.w3.org/2000/svg"><path d="m6.382 5.968c1.59375-1.27693 3.57581-1.97126 5.618-1.968 2.125 0 4.078.736 5.618 1.968l1.453-1.453 1.414 1.414-1.453 1.453c1.0577 1.32415 1.7201 2.92 1.9108 4.604.1908 1.6839-.0978 3.3875-.8325 4.9147s-1.8857 2.816-3.3205 3.7179-3.0951 1.3804-4.7898 1.3804-3.35502-.4785-4.7898-1.3804c-1.43479-.9019-2.58577-2.1907-3.32047-3.7179-.73471-1.5272-1.02329-3.2308-.83253-4.9147.19076-1.684.8531-3.27985 1.91081-4.604l-1.453-1.452 1.414-1.414 1.45299 1.453zm5.618 14.032c.9193 0 1.8295-.1811 2.6788-.5328.8493-.3518 1.6209-.8674 2.271-1.5175.65-.65 1.1656-1.4216 1.5174-2.2709.3517-.8493.5328-1.7595.5328-2.6788s-.1811-1.8295-.5328-2.6788c-.3518-.84926-.8674-1.62094-1.5174-2.27095-.6501-.65001-1.4217-1.16562-2.271-1.51741-.8493-.35178-1.7595-.53284-2.6788-.53284-1.8565 0-3.63699.7375-4.94974 2.05025-1.31276 1.31276-2.05025 3.09325-2.05025 4.94975s.73749 3.637 2.05025 4.9497c1.31275 1.3128 3.09324 2.0503 4.94974 2.0503zm1-8h3l-5 6.5v-4.5h-2.99999l4.99999-6.505zm-4.99999-11h7.99999v2h-7.99999z" /></svg>