<svg fill="currentColor" height="24" viewBox="0 0 24 24" width="24" xmlns="http://www.w3.org/2000/svg"><path d="m17.6176 5.968 1.453-1.453 1.414 1.414-1.453 1.453c1.4357 1.79717 2.1289 4.0759 1.9371 6.3681-.1919 2.2923-1.2541 4.4241-2.9686 5.9576s-3.9512 2.3524-6.2505 2.2884c-2.29942-.064-4.48702-1.006-6.11356-2.6326-1.62653-1.6265-2.56854-3.8141-2.63255-6.1135s.75483-4.53598 2.28836-6.25049 3.66533-2.77676 5.95755-2.96859c2.2923-.19183 4.571.50131 6.3682 1.93708zm-6.618 2.032v6h2v-6zm-3.00003-7h8.00003v2h-8.00003z" /></svg>