<svg fill="currentColor" height="24" viewBox="0 0 24 24" width="24" xmlns="http://www.w3.org/2000/svg"><path d="m6.382 5.968c1.59375-1.27693 3.57581-1.97126 5.618-1.968 2.125 0 4.078.736 5.618 1.968l1.453-1.453 1.414 1.414-1.453 1.453c1.0577 1.32415 1.7201 2.92 1.9108 4.604.1908 1.6839-.0978 3.3875-.8325 4.9147s-1.8857 2.816-3.3205 3.7179-3.0951 1.3804-4.7898 1.3804-3.35502-.4785-4.7898-1.3804c-1.43479-.9019-2.58577-2.1907-3.32047-3.7179-.73471-1.5272-1.02329-3.2308-.83253-4.9147.19076-1.684.8531-3.27985 1.91081-4.604l-1.453-1.452 1.414-1.414 1.45299 1.453zm6.618 6.032v-4.505l-4.99999 6.505h2.99999v4.5l5-6.5zm-4.99999-11h7.99999v2h-7.99999z" /></svg>