<svg fill="currentColor" height="24" viewBox="0 0 24 24" width="24" xmlns="http://www.w3.org/2000/svg"><path d="m8 8c-1.32608 0-2.59785.52678-3.53553 1.46447-.93769.93763-1.46447 2.20943-1.46447 3.53553s.52678 2.5979 1.46447 3.5355c.93768.9377 2.20945 1.4645 3.53553 1.4645h8c1.3261 0 2.5979-.5268 3.5355-1.4645.9377-.9376 1.4645-2.2094 1.4645-3.5355s-.5268-2.5979-1.4645-3.53553c-.9376-.93769-2.2094-1.46447-3.5355-1.46447zm0-2h8c1.8565 0 3.637.7375 4.9497 2.05025 1.3128 1.31276 2.0503 3.09325 2.0503 4.94975s-.7375 3.637-2.0503 4.9497c-1.3127 1.3128-3.0932 2.0503-4.9497 2.0503h-8c-1.85652 0-3.63699-.7375-4.94975-2.0503-1.31275-1.3127-2.05025-3.0932-2.05025-4.9497s.7375-3.63699 2.05025-4.94975c1.31276-1.31275 3.09323-2.05025 4.94975-2.05025zm0 10c-.79565 0-1.55871-.3161-2.12132-.8787s-.87868-1.3257-.87868-2.1213.31607-1.5587.87868-2.1213 1.32567-.8787 2.12132-.8787 1.55871.3161 2.1213.8787c.5626.5626.8787 1.3257.8787 2.1213s-.3161 1.5587-.8787 2.1213c-.56259.5626-1.32565.8787-2.1213.8787z" /></svg>