<svg fill="currentColor" height="24" viewBox="0 0 24 24" width="24" xmlns="http://www.w3.org/2000/svg"><path d="m8 5h8c1.8565 0 3.637.7375 4.9497 2.05025 1.3128 1.31276 2.0503 3.09325 2.0503 4.94975s-.7375 3.637-2.0503 4.9497c-1.3127 1.3128-3.0932 2.0503-4.9497 2.0503h-8c-1.85652 0-3.63699-.7375-4.94975-2.0503-1.31275-1.3127-2.05025-3.0932-2.05025-4.9497s.7375-3.63699 2.05025-4.94975c1.31276-1.31275 3.09323-2.05025 4.94975-2.05025zm8 10c.7956 0 1.5587-.3161 2.1213-.8787s.8787-1.3257.8787-2.1213-.3161-1.5587-.8787-2.12132c-.5626-.56261-1.3257-.87868-2.1213-.87868s-1.5587.31607-2.1213.87868c-.5626.56262-.8787 1.32572-.8787 2.12132s.3161 1.5587.8787 2.1213 1.3257.8787 2.1213.8787z" /></svg>