<svg fill="currentColor" height="24" viewBox="0 0 24 24" width="24" xmlns="http://www.w3.org/2000/svg"><path d="m10.9375 4.5h-1.875c-.17188 0-.3125.14062-.3125.3125v.625c0 .17188.14062.3125.3125.3125h1.875c.1719 0 .3125-.14062.3125-.3125v-.625c0-.17188-.1406-.3125-.3125-.3125zm8.4375-.625c.3438 0 .625-.28125.625-.625v-.625c0-.34375-.2812-.625-.625-.625h-13.75c-.34375 0-.625.28125-.625.625v.625c0 .34375.28125.625.625.625h.625v6.12109c-.78906.39451-1.25.86721-1.25 1.37891 0 2.3984 1.12891 4.5273 2.87891 5.8984l-.94922 3.1133c-.2461.8008.35547 1.6133 1.19531 1.6133h8.75c.8398 0 1.4414-.8125 1.1953-1.6133l-.9492-3.1133c1.75-1.3711 2.8789-3.5039 2.8789-5.8984 0-.5117-.4609-.9844-1.25-1.37891v-6.12109zm-11.25 0h8.75v5.47266c-1.2305-.29688-2.7422-.47266-4.375-.47266s-3.14453.17578-4.375.47266zm.84375 16.25.56641-1.8594c.91014.3906 1.91014.6094 2.96484.6094s2.0547-.2188 2.9648-.6094l.5664 1.8594zm3.53125-3.125c-2.4844 0-4.58203-1.625-5.32422-3.8633 1.35938.4571 3.24222.7383 5.32422.7383s3.9648-.2812 5.3242-.7383c-.7422 2.2383-2.8398 3.8633-5.3242 3.8633zm0-4.5312c-3.01172 0-5.45312-.4883-5.45312-1.0938s2.4414-1.0938 5.45312-1.0938c3.0117 0 5.4531.4883 5.4531 1.0938s-2.4414 1.0938-5.4531 1.0938z" /></svg>