<svg fill="currentColor" height="24" viewBox="0 0 24 24" width="24" xmlns="http://www.w3.org/2000/svg"><path d="m19.375 3.875c.3438 0 .625-.28125.625-.625v-.625c0-.34375-.2812-.625-.625-.625h-13.75c-.34375 0-.625.28125-.625.625v.625c0 .34375.28125.625.625.625h.625v6.12109c-.78906.39451-1.25.86721-1.25 1.37891 0 2.625 1.35156 4.9297 3.39063 6.2695l-.83594 2.7422c-.2461.8008.35547 1.6133 1.19531 1.6133h7.5c.8398 0 1.4414-.8125 1.1953-1.6133l-.8359-2.7422c2.039-1.3398 3.3906-3.6445 3.3906-6.2695 0-.5117-.4609-.9844-1.25-1.37891v-6.12109zm-11.25.9375c0-.17188.14062-.3125.3125-.3125h1.875c.1719 0 .3125.14062.3125.3125v.625c0 .17188-.1406.3125-.3125.3125h-1.875c-.17188 0-.3125-.14062-.3125-.3125zm4.375 7.8125c-3.01172 0-5.45312-.5586-5.45312-1.25s2.4414-1.25 5.45312-1.25c3.0117 0 5.4531.5586 5.4531 1.25s-2.4414 1.25-5.4531 1.25z" /></svg>