<svg fill="currentColor" height="24" viewBox="0 0 24 24" width="24" xmlns="http://www.w3.org/2000/svg"><path d="m5.32992 3.271c.62405-.22262 1.29847-.26354 1.94486-.118.64638.14555 1.23818.47158 1.70658.94019.46841.46862.79417 1.06056.93943 1.70701.14521.64645.10401 1.32085-.11887 1.9448l10.84498 10.845-2.122 2.121-10.84498-10.844c-.62405.2226-1.29847.2635-1.94486.118-.64638-.14555-1.23818-.47158-1.70658-.94019s-.79417-1.06055-.93943-1.70701c-.14525-.64645-.10403-1.32085.11887-1.9448l2.236 2.237c.13837.14327.30389.25754.48689.33615.18301.07862.37984.12.57901.12173s.39669-.03622.58103-.11165c.18435-.07542.35182-.1868.49266-.32764s.25222-.30831.32764-.49266c.07543-.18434.11338-.38186.11165-.58103s-.04311-.396-.12173-.57901c-.07861-.183-.19288-.34852-.33615-.48689l-2.236-2.239zm10.36698 1.884 3.182-1.768 1.414 1.414-1.768 3.182-1.768.354-2.12 2.121-1.415-1.414 2.121-2.121zm-7.07098 7.778 2.12098 2.122-4.94998 4.95c-.27296.2704-.63928.4258-1.02342.434-.38413.0083-.75679-.1312-1.04113-.3896-.28433-.2584-.45865-.6161-.48702-.9993-.02836-.3832.09139-.7626.33457-1.0601l.097-.107 4.95-4.95z" /></svg>