<svg fill="currentColor" height="24" viewBox="0 0 24 24" width="24" xmlns="http://www.w3.org/2000/svg"><path d="m5.33003 3.271c.66703-.23801 1.39058-.26807 2.07506-.08619.68448.18187 1.29768.56712 1.75859 1.10485s.74784 1.20263.82289 1.90687c.07503.70424-.06531 1.41469-.40254 2.03747l10.70897 10.71-1.414 1.414-10.70997-10.71c-.62293.3359-1.33301.4752-2.03667.3995-.70366-.07569-1.36788-.36279-1.90512-.82349-.53724-.46069-.9223-1.07335-1.10442-1.75724-.18212-.68388-.15276-1.4069.08421-2.07377l2.237 2.237c.13837.14327.30388.25754.48689.33615.18301.07862.37984.12.57901.12173.19916.00173.39668-.03622.58103-.11165.18434-.07542.35182-.1868.49266-.32764.14084-.14083.25222-.30831.32764-.49266.07542-.18434.11337-.38186.11164-.58103s-.04311-.396-.12172-.579c-.07861-.18301-.19289-.34853-.33615-.4869l-2.236-2.239zm10.36697 1.884 3.182-1.768 1.414 1.414-1.768 3.182-1.768.354-2.12 2.121-1.415-1.414 2.121-2.121zm-6.71797 8.132 1.41397 1.414-5.30297 5.303c-.1803.1808-.42294.2858-.67817.2934-.25523.0077-.50372-.0826-.69452-.2523-.19079-.1697-.30945-.4059-.33163-.6603-.02219-.2544.05378-.5076.21232-.7078l.078-.087z" /></svg>