<svg fill="currentColor" height="24" viewBox="0 0 24 24" width="24" xmlns="http://www.w3.org/2000/svg"><path d="m7 4v-1c0-.26522.10536-.51957.29289-.70711.18754-.18753.44189-.29289.70711-.29289h8c.2652 0 .5196.10536.7071.29289.1875.18754.2929.44189.2929.70711v1h3c0 2.5-2.5 3.5-3 3.5v2.5h3c0 2.5-2.5 3.5-3 3.5v2.5h3c0 2.5-2.5 3.5-3 3.5v1.5c0 .2652-.1054.5196-.2929.7071s-.4419.2929-.7071.2929h-8c-.26522 0-.51957-.1054-.70711-.2929-.18753-.1875-.29289-.4419-.29289-.7071v-1.5c-.5 0-3-1-3-3.5h3v-2.5c-.5 0-3-1-3-3.5h3v-2.5c-.5 0-3-1-3-3.5zm5 16c.5304 0 1.0391-.2107 1.4142-.5858s.5858-.8838.5858-1.4142-.2107-1.0391-.5858-1.4142-.8838-.5858-1.4142-.5858-1.0391.2107-1.4142.5858-.5858.8838-.5858 1.4142.2107 1.0391.5858 1.4142.8838.5858 1.4142.5858zm0-6c.5304 0 1.0391-.2107 1.4142-.5858s.5858-.8838.5858-1.4142-.2107-1.0391-.5858-1.4142-.8838-.5858-1.4142-.5858-1.0391.2107-1.4142.5858-.5858.8838-.5858 1.4142.2107 1.0391.5858 1.4142.8838.5858 1.4142.5858zm0-6c.5304 0 1.0391-.21071 1.4142-.58579.3751-.37507.5858-.88378.5858-1.41421s-.2107-1.03914-.5858-1.41421c-.3751-.37508-.8838-.58579-1.4142-.58579s-1.0391.21071-1.4142.58579c-.3751.37507-.5858.88378-.5858 1.41421s.2107 1.03914.5858 1.41421c.3751.37508.8838.58579 1.4142.58579z" /></svg>