<svg fill="currentColor" height="24" viewBox="0 0 24 24" width="24" xmlns="http://www.w3.org/2000/svg"><path d="m17.2 20 1.8 1.5v.5h-14v-.5l1.8-1.5h-1.8c-.53043 0-1.03914-.2107-1.41421-.5858-.37508-.3751-.58579-.8838-.58579-1.4142v-11c0-1.06087.42143-2.07828 1.17157-2.82843.75015-.75014 1.76756-1.17157 2.82843-1.17157h10c1.0609 0 2.0783.42143 2.8284 1.17157.7502.75015 1.1716 1.76756 1.1716 2.82843v11c0 .5304-.2107 1.0391-.5858 1.4142s-.8838.5858-1.4142.5858zm-10.2-15c-.53043 0-1.03914.21071-1.41421.58579-.37508.37507-.58579.88378-.58579 1.41421v11h14v-11c0-.53043-.2107-1.03914-.5858-1.41421-.3751-.37508-.8838-.58579-1.4142-.58579zm5 12c-.5304 0-1.0391-.2107-1.4142-.5858s-.5858-.8838-.5858-1.4142.2107-1.0391.5858-1.4142.8838-.5858 1.4142-.5858 1.0391.2107 1.4142.5858.5858.8838.5858 1.4142-.2107 1.0391-.5858 1.4142-.8838.5858-1.4142.5858zm-6-10h12v4h-12z" /></svg>