<svg fill="currentColor" height="24" viewBox="0 0 24 24" width="24" xmlns="http://www.w3.org/2000/svg"><path d="m12.498 3c-.526 1.26608-.6394 2.66577-.324 4h-7.174v4h10.035c1.0369.655 2.2386 1.0018 3.465 1 .8581.0012 1.7079-.1681 2.5-.498v6.498c0 .5304-.2107 1.0391-.5858 1.4142s-.8838.5858-1.4142.5858h-1.8l1.8 1.5v.5h-14v-.5l1.8-1.5h-1.8c-.53043 0-1.03914-.2107-1.41421-.5858-.37508-.3751-.58579-.8838-.58579-1.4142v-11c0-1.06087.42143-2.07828 1.17157-2.82843.75015-.75014 1.76756-1.17157 2.82843-1.17157zm-.498 11c-.5304 0-1.0391.2107-1.4142.5858s-.5858.8838-.5858 1.4142.2107 1.0391.5858 1.4142.8838.5858 1.4142.5858 1.0391-.2107 1.4142-.5858.5858-.8838.5858-1.4142-.2107-1.0391-.5858-1.4142-.8838-.5858-1.4142-.5858zm6.5-13c1.1935 0 2.3381.47411 3.182 1.31802s1.318 1.98851 1.318 3.18198-.4741 2.33807-1.318 3.18198-1.9885 1.31802-3.182 1.31802-2.3381-.47411-3.182-1.31802-1.318-1.98851-1.318-3.18198.4741-2.33807 1.318-3.18198 1.9885-1.31802 3.182-1.31802zm0 5.167c-.491 0-.94.177-1.289.47l-.125.115 1.414 1.415 1.413-1.416c-.1855-.18552-.4058-.3326-.6483-.43281s-.5023-.15159-.7647-.15119zm0-2.667c-1.156-.00174-2.2711.42714-3.128 1.203l-.173.165.944.942c.3091-.31011.6765-.55606 1.081-.72373s.8381-.25374 1.276-.25327c.8104-.00123 1.5932.29399 2.201.83l.156.147.943-.943c-.4329-.43404-.9472-.77825-1.5136-1.01285-.5663-.23459-1.1734-.35495-1.7864-.35415z" /></svg>