<svg fill="currentColor" height="24" viewBox="0 0 24 24" width="24" xmlns="http://www.w3.org/2000/svg"><path d="m7.53746 9.94997-2.877-2.874-2.474 2.474-1.413999-1.414 6.363999-6.364 1.414 1.414-2.475 2.475 2.876 2.876c1.51294-1.15341 3.40754-1.68878 5.30034-1.49772s3.6423 1.09429 4.8942 2.52678c1.2518 1.43247 1.9126 3.28717 1.8483 5.18857-.0642 1.9013-.8486 3.7072-2.1943 5.0519s-3.1521 2.1278-5.0535 2.1907-3.75559-.5991-5.18719-1.852c-1.43161-1.2529-2.3336-3.003-2.52332-4.8959-.18973-1.8929.34699-3.7872 1.50147-5.29933z" /></svg>