<svg fill="currentColor" height="24" viewBox="0 0 24 24" width="24" xmlns="http://www.w3.org/2000/svg"><path d="m8.95046 8.53697c1.51244-1.15403 3.40694-1.69017 5.29984-1.49984s3.6428 1.0929 4.8952 2.52494c1.2524 1.43203 1.9138 3.28653 1.8503 5.18793s-.8473 3.7076-2.1925 5.0528-3.1514 2.129-5.0528 2.1925c-1.9014.0636-3.7559-.5979-5.18794-1.8503s-2.33461-3.0023-2.52494-4.8952.34581-3.7874 1.49984-5.29983l-2.875-2.875-2.476 2.475-1.413999-1.414 6.363999-6.364 1.414 1.414-2.475 2.475 2.876 2.876zm4.55004 11.46303c1.4587 0 2.8576-.5795 3.889-1.6109 1.0315-1.0315 1.611-2.4304 1.611-3.8891s-.5795-2.8577-1.611-3.8891c-1.0314-1.03147-2.4303-1.61093-3.889-1.61093s-2.8577.57946-3.88913 1.61093c-1.03145 1.0314-1.61091 2.4304-1.61091 3.8891s.57946 2.8576 1.61091 3.8891c1.03143 1.0314 2.43043 1.6109 3.88913 1.6109z" /></svg>