<svg fill="currentColor" height="24" viewBox="0 0 24 24" width="24" xmlns="http://www.w3.org/2000/svg"><path d="m2 5 7-3 6 3 6.303-2.701c.0761-.03262.1591-.04583.2415-.03846.0825.00738.1618.03511.2309.0807.0691.0456.1258.10764.165.18056.0392.07291.0597.15442.0596.2372v16.241l-7 3-6-3-6.303 2.701c-.07609.0326-.15908.0458-.24153.0385-.08246-.0074-.16179-.0351-.23088-.0807s-.12578-.1077-.16498-.1806-.05968-.1544-.05961-.2372zm4 6v2h2v-2zm4 0v2h2v-2zm6-.06-1.237-1.238-1.061 1.06 1.237 1.238-1.237 1.237 1.06 1.061 1.238-1.237 1.237 1.237 1.061-1.06-1.237-1.238 1.237-1.237-1.06-1.061-1.238 1.237z" /></svg>