<svg fill="currentColor" height="24" viewBox="0 0 24 24" width="24" xmlns="http://www.w3.org/2000/svg"><path d="m5.25 3h13.5c.5967 0 1.169.23705 1.591.65901.4219.42196.659.99425.659 1.59099v13.5c0 .5967-.2371 1.169-.659 1.591-.422.4219-.9943.659-1.591.659h-13.5c-.59674 0-1.16903-.2371-1.59099-.659-.42196-.422-.65901-.9943-.65901-1.591v-13.5c0-.59674.23705-1.16903.65901-1.59099s.99425-.65901 1.59099-.65901zm7.92 3.42v5.76c0 .596.484 1.08 1.08 1.08h3.33c.2864 0 .5611-.1138.7637-.3163.2025-.2026.3163-.4773.3163-.7637v-5.76c0-.28643-.1138-.56114-.3163-.76368-.2026-.20253-.4773-.31632-.7637-.31632h-3.33c-.2864 0-.5611.11379-.7637.31632-.2025.20254-.3163.47725-.3163.76368zm-7.83 0v10.26c0 .596.484 1.08 1.08 1.08h3.33c.2864 0 .5611-.1138.7637-.3163.2025-.2026.3163-.4773.3163-.7637v-10.26c0-.28643-.1138-.56114-.3163-.76368-.2026-.20253-.4773-.31632-.7637-.31632h-3.33c-.28643 0-.56114.11379-.76368.31632-.20253.20254-.31632.47725-.31632.76368z" /></svg>