<svg fill="currentColor" height="24" viewBox="0 0 24 24" width="24" xmlns="http://www.w3.org/2000/svg"><path d="m5 5v14h14v-14zm0-2h14c.5304 0 1.0391.21071 1.4142.58579.3751.37507.5858.88378.5858 1.41421v14c0 .5304-.2107 1.0391-.5858 1.4142s-.8838.5858-1.4142.5858h-14c-.53043 0-1.03914-.2107-1.41421-.5858-.37508-.3751-.58579-.8838-.58579-1.4142v-14c0-.53043.21071-1.03914.58579-1.41421.37507-.37508.88378-.58579 1.41421-.58579zm3 4h2c.2652 0 .5196.10536.7071.29289.1875.18754.2929.44189.2929.70711v8c0 .2652-.1054.5196-.2929.7071s-.4419.2929-.7071.2929h-2c-.26522 0-.51957-.1054-.70711-.2929-.18753-.1875-.29289-.4419-.29289-.7071v-8c0-.26522.10536-.51957.29289-.70711.18754-.18753.44189-.29289.70711-.29289zm6 0h2c.2652 0 .5196.10536.7071.29289.1875.18754.2929.44189.2929.70711v4c0 .2652-.1054.5196-.2929.7071s-.4419.2929-.7071.2929h-2c-.2652 0-.5196-.1054-.7071-.2929s-.2929-.4419-.2929-.7071v-4c0-.26522.1054-.51957.2929-.70711.1875-.18753.4419-.29289.7071-.29289z" /></svg>