<svg fill="currentColor" height="24" viewBox="0 0 24 24" width="24" xmlns="http://www.w3.org/2000/svg"><path d="m17 8h3l3 4.056v5.944h-2.035c-.1189.8343-.5348 1.5977-1.1713 2.1499-.6366.5523-1.451.8564-2.2937.8564s-1.6571-.3041-2.2937-.8564c-.6365-.5522-1.0524-1.3156-1.1713-2.1499h-5.07c-.11888.8343-.53479 1.5977-1.17132 2.1499-.63654.5523-1.45096.8564-2.29368.8564s-1.65714-.3041-2.29368-.8564c-.63653-.5522-1.05244-1.3156-1.17132-2.1499h-1.035v-12c0-.26522.10536-.51957.29289-.70711.18754-.18753.44189-.29289.70711-.29289h14c.2652 0 .5196.10536.7071.29289.1875.18754.2929.44189.2929.70711zm0 2v3h4v-.285l-2.008-2.715z" /></svg>