<svg fill="currentColor" height="24" viewBox="0 0 24 24" width="24" xmlns="http://www.w3.org/2000/svg"><path d="m8.965 18c-.11888.8343-.53479 1.5977-1.17132 2.1499-.63654.5523-1.45096.8564-2.29368.8564s-1.65714-.3041-2.29368-.8564c-.63653-.5522-1.05244-1.3156-1.17132-2.1499h-1.035v-12c0-.26522.10536-.51957.29289-.70711.18754-.18753.44189-.29289.70711-.29289h14c.2652 0 .5196.10536.7071.29289.1875.18754.2929.44189.2929.70711v2h3l3 4.056v5.944h-2.035c-.1189.8343-.5348 1.5977-1.1713 2.1499-.6366.5523-1.451.8564-2.2937.8564s-1.6571-.3041-2.2937-.8564c-.6365-.5522-1.0524-1.3156-1.1713-2.1499zm6.035-11h-12v8.05c.39456-.4028.8806-.7043 1.41675-.8789.53615-.1745 1.10654-.217 1.66263-.1237.55608.0933 1.08139.3195 1.53123.6595.44983.34.81087.7836 1.05239 1.2931h5.674c.168-.353.393-.674.663-.95zm2 6h4v-.285l-2.008-2.715h-1.992zm.5 6c.398 0 .7796-.1581 1.061-.4395s.4395-.663.4395-1.061-.1581-.7796-.4395-1.061-.663-.4395-1.061-.4395-.7796.1581-1.061.4395-.4395.663-.4395 1.061.1581.7796.4395 1.061.663.4395 1.061.4395zm-10.5-1.5c0-.197-.0388-.392-.11418-.574s-.18587-.3474-.32516-.4867c-.13929-.1392-.30465-.2497-.48663-.3251-.18199-.0754-.37705-.1142-.57403-.1142s-.39204.0388-.57403.1142c-.18198.0754-.34734.1859-.48663.3251-.13929.1393-.24978.3047-.32516.4867s-.11418.377-.11418.574c0 .3978.15804.7794.43934 1.0607s.66284.4393 1.06066.4393.77936-.158 1.06066-.4393.43934-.6629.43934-1.0607z" /></svg>