<svg fill="currentColor" height="24" viewBox="0 0 24 24" width="24" xmlns="http://www.w3.org/2000/svg"><path d="m15.2995 5.55011c-.76-.00012-1.4897.29813-2.0321.83057-.5423.53245-.854 1.25653-.8679 2.01643l-.028 1.575c-.0016.08459-.0211.16779-.0572.24429s-.0879.1445-.1521.1996c-.0642.055-.1394.0959-.2205.1199s-.1663.0305-.2502.0192l-1.561-.212c-2.05397-.28-4.02197-1.22599-5.90997-2.79899-.598 3.30999.57 5.60299 3.383 7.37199l1.747 1.098c.08301.0522.15197.1239.20085.2089s.07619.1806.07955.2786c.00335.098-.01735.1953-.06031.2834-.04295.0881-.10684.1644-.18609.2221l-1.592 1.163c.947.059 1.846.017 2.59197-.131 4.718-.942 7.855-4.492 7.855-10.34799 0-.478-1.012-2.141-2.94-2.141zm-4.9 2.81c.0175-.96395.3189-1.90133.8666-2.69477.5477-.79345 1.3172-1.40771 2.2123-1.76586.8952-.35815 1.876-.44429 2.8199-.24762.9438.19667 1.8087.6674 2.4862 1.35325.711-.005 1.316.175 2.669-.645-.335 1.64-.5 2.352-1.214 3.331 0 7.64199-4.697 11.35799-9.463 12.30899-3.26797.652-8.01997-.419-9.38197-1.841.694-.054 3.514-.357 5.144-1.55-1.379-.909-6.867999-4.139-3.261-12.82299 1.693 1.977 3.41 3.323 5.15 4.037 1.158.475 1.442.465 1.97297.538z" /></svg>