<svg fill="currentColor" height="24" viewBox="0 0 24 24" width="24" xmlns="http://www.w3.org/2000/svg"><path d="m22.1623 5.65593c-.7634.33769-1.573.55947-2.402.658.8737-.52257 1.5277-1.34499 1.84-2.314-.82.488-1.719.83-2.656 1.015-.6294-.67342-1.4636-1.12004-2.373-1.27042-.9095-.15038-1.8431.00391-2.6557.43887-.8127.43496-1.4589 1.12623-1.8382 1.96634s-.4704 1.78199-.2591 2.67921c-1.6629-.08335-3.28967-.51548-4.77472-1.26834-1.48504-.75286-2.79516-1.80962-3.84528-3.10166-.37171.63845-.56705 1.36422-.566 2.103 0 1.45.738 2.731 1.86 3.48097-.66399-.0209-1.31337-.20019-1.894-.52297v.052c.0002.96567.33437 1.90157.94584 2.64907.61148.7474 1.46264 1.2604 2.40916 1.4519-.61639.1671-1.2627.1917-1.89.072.26686.8313.787 1.5582 1.48759 2.0791.70058.5209 1.54654.8097 2.41941.8259-.86752.6814-1.86083 1.185-2.92312 1.4822-1.0623.2972-2.17276.3821-3.26788.2498 1.91169 1.2295 4.13709 1.8821 6.41 1.88 7.693 0 11.9-6.373 11.9-11.89997 0-.18-.005-.362-.013-.54.8189-.59184 1.5256-1.32498 2.087-2.165z" /></svg>