<svg fill="currentColor" height="24" viewBox="0 0 24 24" width="24" xmlns="http://www.w3.org/2000/svg"><path d="m17.654 1.69995-2.782 2.533c1.295.39119 2.487 1.06508 3.49 1.973 3.512 3.2 3.512 8.38805 0 11.58805-2.592 2.36-6.598 3.8619-12.01603 4.5059l2.782-2.5329c-1.29505-.3912-2.48707-1.0651-3.49-1.973-3.512-3.2-3.533-8.36905 0-11.58805 2.592-2.36 6.59903-3.862 12.01703-4.506zm-5.654 4.3c-3.86603 0-7.00003 2.686-7.00003 6.00005 0 3.314 3.134 6 7.00003 6 3.866 0 7-2.686 7-6 0-3.31405-3.134-6.00005-7-6.00005zm0 2.3c2.21 0 4 1.657 4 3.70005 0 2.043-1.79 3.7-4 3.7-2.21003 0-4.00003-1.657-4.00003-3.7 0-2.04305 1.79-3.70005 4.00003-3.70005zm0 2.00005c-1.138 0-2.00003.797-2.00003 1.7s.86203 1.7 2.00003 1.7 2-.797 2-1.7-.862-1.7-2-1.7z" /></svg>