<svg fill="currentColor" height="24" viewBox="0 0 24 24" width="24" xmlns="http://www.w3.org/2000/svg"><path d="m17.654 1.69995-2.782 2.533c1.295.39119 2.487 1.06508 3.49 1.973 3.512 3.2 3.512 8.38805 0 11.58805-2.592 2.36-6.598 3.8619-12.01603 4.5059l2.782-2.5329c-1.29505-.3912-2.48707-1.0651-3.49-1.973-3.512-3.2-3.533-8.36905 0-11.58805 2.592-2.36 6.59903-3.862 12.01703-4.506zm-5.654 6.3c-2.48503 0-4.50003 1.79-4.50003 4.00005 0 2.21 2.015 4 4.50003 4 2.485 0 4.5-1.79 4.5-4 0-2.21005-2.015-4.00005-4.5-4.00005z" /></svg>