<svg fill="currentColor" height="24" viewBox="0 0 24 24" width="24" xmlns="http://www.w3.org/2000/svg"><path d="m8.667 19.273 1.006-1.742c.8537.3594 1.7789.5162 2.7033.4583s1.8228-.329 2.625-.7921c.8021-.463 1.4862-1.1055 1.9986-1.877s.8393-1.6512.9551-2.5702h2.012c-.1077 1.1457-.4621 2.2544-1.039 3.25-.3914.6796-.8807 1.2978-1.452 1.835-.3273-.0998-.6717-.1311-1.0116-.0921-.34.0391-.6682.1477-.9644.3191-.2962.1707-.5542.4004-.7579.675-.2037.2745-.3487.5881-.4261.921-1.8671.5669-3.8771.4299-5.65-.385zm-1.3-.75c-1.59111-1.1282-2.71384-2.8002-3.156-4.7.485-.456.789-1.103.789-1.823s-.304-1.369-.791-1.825c.17951-.76334.47029-1.49617.863-2.17496.57387-.99711 1.3568-1.85817 2.295-2.524l1.006 1.742c-.73799.55968-1.33641 1.28258-1.74841 2.11212-.41201.82954-.6264 1.74314-.6264 2.66934 0 .9263.21439 1.8399.6264 2.6694.412.8296 1.01042 1.5525 1.74841 2.1121l-1.005 1.742zm1.3-13.79596c1.7727-.81246 3.781-.95006 5.648-.387.152.65.562 1.238 1.185 1.598s1.337.42 1.976.227c1.4216 1.33519 2.307 3.14332 2.49 5.08496h-2.013c-.115-.9189-.4416-1.79861-.9539-2.57004-.5124-.77143-1.1967-1.41355-1.9991-1.87592-.8016-.46385-1.6998-.7355-2.6241-.79363s-1.8495.09886-2.7029.45863zm7.333.345c-.172-.09777-.3229-.2286-.4441-.38494s-.2103-.33511-.2621-.52602-.0654-.39019-.0399-.58636.0895-.38535.1885-.55667c.0989-.17132.2307-.32138.3878-.44154.1572-.12016.3365-.20805.5278-.25862.1912-.05056.3906-.06279.5866-.036.196.0268.3847.09211.5554.19215.3417.20033.5903.52768.6916.91062.1012.38295.0469.79039-.1512 1.13342-.198.34303-.5237.5938-.906.69758-.3823.10379-.7901.05216-1.1344-.14362zm-12 6.92796c0 .3979-.15804.7794-.43934 1.0607s-.66284.4393-1.06066.4393-.77936-.158-1.06066-.4393-.43934-.6628-.43934-1.0607c0-.3978.15804-.7793.43934-1.0606s.66284-.4394 1.06066-.4394.77936.1581 1.06066.4394.43934.6628.43934 1.0606zm12 6.928c.1707-.1.3594-.1653.5554-.1921s.3954-.0146.5866.036c.1913.0506.3706.1384.5278.2586.1571.1202.2889.2702.3878.4415.099.1714.163.3606.1885.5567.0255.1962.0119.3955-.0399.5864s-.1409.3697-.2621.526-.2721.2872-.4441.3849c-.3443.1958-.7521.2474-1.1344.1437-.3823-.1038-.708-.3546-.906-.6976-.1981-.343-.2524-.7505-.1512-1.1334.1013-.383.3499-.7103.6916-.9107z" /></svg>