<svg fill="currentColor" height="24" viewBox="0 0 24 24" width="24" xmlns="http://www.w3.org/2000/svg"><path d="m22 12c0 5.522-4.477 10-10 10s-10-4.478-10-10c0-5.523 4.477-10 10-10s10 4.477 10 10zm-16.8-1.336c-.35406 0-.69363.1407-.94399.391-.25036.2504-.39101.5899-.39101.944s.14065.6936.39101.944c.25036.2503.58993.391.94399.391s.69363-.1407.94399-.391c.25036-.2504.39101-.5899.39101-.944s-.14065-.6936-.39101-.944c-.25036-.2503-.58993-.391-.94399-.391zm9.533 6.069c-.1552.0857-.2918.2016-.4017.3407s-.191.2988-.2385.4696c-.0475.1709-.0605.3494-.0381.5253.0223.176.0795.3456.1681.4992.0887.1535.2071.2879.3483.3951.1412.1073.3024.1853.4741.2296.1717.0442.3505.0538.5259.0281.1755-.0256.3441-.086.4959-.1776.2992-.1805.5157-.4711.6029-.8095.0871-.3383.0381-.6974-.1366-.9999-.1748-.3026-.4612-.5246-.7979-.6182-.3366-.0936-.6966-.0514-1.0024.1176zm-6.633-4.733c0-1.32.656-2.485 1.659-3.19l-.976-1.636c-1.18603.79142-2.03982 1.99114-2.399 3.371.2163.1758.39069.3976.51046.6493s.18192.527.18192.8057-.06215.554-.18192.8057-.29416.4735-.51046.6493c.35892 1.3797 1.21234 2.5794 2.398 3.371l.977-1.636c-.51267-.3591-.93115-.8366-1.21996-1.3919-.28881-.5554-.43941-1.1722-.43904-1.7981zm3.9-3.9c.9743.00016 1.9133.36501 2.6322 1.02276.7188.65775 1.1654 1.56074 1.2518 2.53124l1.903-.028c-.0905-1.4236-.7042-2.76353-1.723-3.762-.26.09888-.5387.13859-.8159.11623-.2773-.02235-.5461-.1062-.7868-.24545-.2408-.13925-.4475-.33041-.6051-.55957-.1577-.22916-.2623-.49056-.3062-.76521-1.3748-.3783-2.8406-.23955-4.12.39l.927 1.663c.5146-.23957 1.0754-.36348 1.643-.363zm0 7.8c-.587 0-1.143-.13-1.643-.363l-.927 1.662c1.278.6346 2.7457.7735 4.12.39.0439-.2746.1485-.5361.3062-.7652.1576-.2292.3643-.4203.6051-.5596.2407-.1392.5095-.2231.7868-.2454.2772-.0224.5559.0173.8159.1162 1.0187-.9985 1.6324-2.3384 1.723-3.762l-1.903-.027c-.086.9707-.5324 1.8739-1.2514 2.5318-.7189.6578-1.6581 1.0225-2.6326 1.0222zm2.732-8.633c.1519.09052.3203.14995.4954.17483.1751.02489.3534.01475.5245-.02985.1712-.04459.3317-.12275.4724-.22992s.2587-.24122.3471-.39438c.0884-.15315.1456-.32234.1681-.49776.0224-.17541.0099-.35355-.0371-.52405-.0469-.17051-.1272-.33-.2363-.4692s-.2448-.25534-.3991-.34167c-.3063-.1713-.6676-.21513-1.006-.12202-.3383.09312-.6263.3157-.8018.61958s-.2242.66463-.1358 1.0042c.0885.33956.3071.63064.6086.81024z" /></svg>