<svg fill="currentColor" height="24" viewBox="0 0 24 24" width="24" xmlns="http://www.w3.org/2000/svg"><path d="m13 2.05c5.053.501 9 4.765 9 9.95v1h-9v6c0 .5304.2107 1.0391.5858 1.4142s.8838.5858 1.4142.5858 1.0391-.2107 1.4142-.5858.5858-.8838.5858-1.4142v-1h2v1c0 1.0609-.4214 2.0783-1.1716 2.8284-.7501.7502-1.7675 1.1716-2.8284 1.1716s-2.0783-.4214-2.8284-1.1716c-.7502-.7501-1.1716-1.7675-1.1716-2.8284v-6h-9v-1c0-5.185 3.947-9.449 9-9.95v-.05c0-.26522.1054-.51957.2929-.70711.1875-.18753.4419-.29289.7071-.29289s.5196.10536.7071.29289c.1875.18754.2929.44189.2929.70711zm6.938 8.95c-.244-1.9331-1.1851-3.71073-2.6466-4.99932-1.4615-1.2886-3.343-1.9996-5.2914-1.9996s-3.82993.711-5.29143 1.9996c-1.46149 1.28859-2.40254 3.06622-2.64657 4.99932z" /></svg>