<svg fill="currentColor" height="24" viewBox="0 0 24 24" width="24" xmlns="http://www.w3.org/2000/svg"><path d="m7.00042 20.981c-1.36595-.1049-2.66384-.6387-3.70834-1.5251-1.04451-.8865-1.78222-2.0803-2.1078-3.411-.325583-1.3308-.222389-2.7303.29485-3.9989.51723-1.2686 1.42207-2.3413 2.58529-3.06499.24751-1.92991 1.1898-3.7035 2.65052-4.98884 1.46072-1.28535 3.33976-1.99437 5.28546-1.99437s3.8248.70902 5.2855 1.99437c1.4607 1.28534 2.403 3.05893 2.6505 4.98884 1.1632.72369 2.0681 1.79639 2.5853 3.06499.5173 1.2686.6204 2.6681.2949 3.9989-.3256 1.3307-1.0633 2.5245-2.1078 3.411-1.0445.8864-2.3424 1.4202-3.7084 1.5251v.019h-9.99998zm5.99998-7.981h3l-4-4.99999-3.99998 4.99999h2.99998v4h2z" /></svg>