<svg fill="currentColor" height="24" viewBox="0 0 24 24" width="24" xmlns="http://www.w3.org/2000/svg"><path d="m11.9999 12.586 4.243 4.242-1.415 1.415-1.828-1.828v5.585h-2v-5.587l-1.82801 1.83-1.415-1.415zm0-10.586c1.717.00008 3.3741.63111 4.6562 1.77312 1.2821 1.142 2.0999 2.71534 2.2978 4.42088 1.2443.33932 2.3297 1.1051 3.0667 2.1635.7369 1.0585 1.0784 2.3422.9649 3.6269s-.6749 2.4886-1.586 3.4014c-.9112.9128-2.1141 1.4764-3.3986 1.5922v-2.014c.4602-.0657.9026-.2224 1.3016-.461.3989-.2386.7463-.5543 1.022-.9286.2756-.3743.4739-.7998.5833-1.2516.1094-.4517.1277-.9208.0538-1.3797-.0738-.459-.2384-.8986-.484-1.2933-.2456-.3946-.5674-.7364-.9465-1.0053-.3791-.269-.808-.4597-1.2617-.5611-.4536-.10137-.9229-.11137-1.3805-.0294.1566-.72911.1481-1.48403-.0248-2.20945s-.5059-1.40297-.9746-1.98302c-.4687-.58006-1.0612-1.04792-1.7341-1.36934-.673-.32141-1.4093-.48822-2.155-.48822-.7458 0-1.4821.16681-2.15498.48822-.67292.32142-1.26543.78928-1.73412 1.36934-.46869.58005-.8017 1.2576-.97462 1.98302-.17293.72542-.1814 1.48034-.02479 2.20945-.91234-.17133-1.85538.0268-2.62165.5508-.76628.5239-1.29302 1.3309-1.46435 2.2432s.02679 1.8554.55077 2.6217c.52397.7662 1.33089 1.293 2.24323 1.4643l.18.03v2.014c-1.28455-.1157-2.48759-.6791-3.39886-1.5918s-1.47281-2.1166-1.58646-3.4014c-.113655-1.2847.2278-2.5685.96469-3.627.73689-1.05854 1.82234-1.82441 3.06663-2.1638.19771-1.70562 1.01541-3.27909 2.29758-4.42113 1.28218-1.14205 2.93943-1.77301 4.65643-1.77287z" /></svg>