<svg fill="currentColor" height="24" viewBox="0 0 24 24" width="24" xmlns="http://www.w3.org/2000/svg"><path d="m17.841 15.659.176.177.178-.177c.2089-.2089.457-.3747.73-.4877.2729-.1131.5655-.1713.861-.1713s.5881.0582.861.1713c.273.113.5211.2788.73.4877s.3747.457.4877.73c.1131.2729.1713.5655.1713.861s-.0582.5881-.1713.861c-.113.273-.2788.5211-.4877.73l-3.36 3.359-3.358-3.359c-.422-.422-.659-.9943-.659-1.591s.237-1.169.659-1.591.9943-.659 1.591-.659 1.169.237 1.591.659zm-5.841-1.659v8h-8c.00002-2.0784.80894-4.0753 2.25547-5.5677 1.44653-1.4925 3.41712-2.3633 5.49453-2.4283zm0-13c3.315 0 6 2.685 6 6s-2.685 6-6 6-6-2.685-6-6 2.685-6 6-6z" /></svg>