<svg fill="currentColor" height="24" viewBox="0 0 24 24" width="24" xmlns="http://www.w3.org/2000/svg"><path d="m12 14v2c-1.5913 0-3.11742.6321-4.24264 1.7574-1.12522 1.1252-1.75736 2.6513-1.75736 4.2426h-2c0-2.1217.84285-4.1566 2.34315-5.6569 1.50029-1.5002 3.53512-2.3431 5.65685-2.3431zm0-1c-3.315 0-6-2.685-6-6s2.685-6 6-6 6 2.685 6 6-2.685 6-6 6zm0-2c2.21 0 4-1.79 4-4s-1.79-4-4-4-4 1.79-4 4 1.79 4 4 4zm2.595 7.812c-.1268-.5336-.1268-1.0894 0-1.623l-.992-.573 1-1.732.992.573c.3982-.3771.8795-.6553 1.405-.812v-1.145h2v1.145c.532.158 1.012.44 1.405.812l.992-.573 1 1.732-.992.573c.1266.5333.1266 1.0887 0 1.622l.992.573-1 1.732-.992-.573c-.3982.3771-.8795.6553-1.405.812v1.145h-2v-1.145c-.5255-.1567-1.0068-.4349-1.405-.812l-.992.573-1-1.732zm3.405.688c.3978 0 .7794-.158 1.0607-.4393s.4393-.6629.4393-1.0607-.158-.7794-.4393-1.0607-.6629-.4393-1.0607-.4393-.7794.158-1.0607.4393-.4393.6629-.4393 1.0607.158.7794.4393 1.0607.6629.4393 1.0607.4393z" /></svg>