<svg fill="currentColor" height="24" viewBox="0 0 24 24" width="24" xmlns="http://www.w3.org/2000/svg"><path d="m12 14v8h-8c0-2.1217.84285-4.1566 2.34315-5.6569 1.50029-1.5002 3.53512-2.3431 5.65685-2.3431zm0-1c-3.315 0-6-2.685-6-6s2.685-6 6-6 6 2.685 6 6-2.685 6-6 6zm2.595 5.812c-.1268-.5336-.1268-1.0894 0-1.623l-.992-.573 1-1.732.992.573c.3982-.3771.8795-.6553 1.405-.812v-1.145h2v1.145c.532.158 1.012.44 1.405.812l.992-.573 1 1.732-.992.573c.1266.5333.1266 1.0887 0 1.622l.992.573-1 1.732-.992-.573c-.3982.3771-.8795.6553-1.405.812v1.145h-2v-1.145c-.5255-.1567-1.0068-.4349-1.405-.812l-.992.573-1-1.732zm3.405-1.812c-.2652 0-.5196.1054-.7071.2929s-.2929.4419-.2929.7071.1054.5196.2929.7071.4419.2929.7071.2929.5196-.1054.7071-.2929.2929-.4419.2929-.7071-.1054-.5196-.2929-.7071-.4419-.2929-.7071-.2929z" /></svg>