<svg fill="currentColor" height="24" viewBox="0 0 24 24" width="24" xmlns="http://www.w3.org/2000/svg"><path d="m12 14v8h-8c0-2.1217.84285-4.1566 2.34315-5.6569 1.50029-1.5002 3.53512-2.3431 5.65685-2.3431zm0-1c-3.315 0-6-2.685-6-6s2.685-6 6-6 6 2.685 6 6-2.685 6-6 6zm8.828 7.828-2.828 2.829-2.828-2.829c-.5595-.5594-.9406-1.2721-1.0951-2.048-.1544-.776-.0752-1.5803.2275-2.3113s.8154-1.3558 1.4732-1.7953c.6578-.4396 1.4312-.6743 2.2224-.6743s1.5646.2347 2.2224.6743c.6578.4395 1.1705 1.0643 1.4732 1.7953s.3819 1.5353.2275 2.3113c-.1545.7759-.5356 1.4886-1.0951 2.048zm-2.828-3.828c-.2652 0-.5196.1054-.7071.2929s-.2929.4419-.2929.7071.1054.5196.2929.7071.4419.2929.7071.2929.5196-.1054.7071-.2929.2929-.4419.2929-.7071-.1054-.5196-.2929-.7071-.4419-.2929-.7071-.2929z" /></svg>