<svg fill="currentColor" height="24" viewBox="0 0 24 24" width="24" xmlns="http://www.w3.org/2000/svg"><path d="m4 22c0-2.1217.84285-4.1566 2.34315-5.6569 1.50029-1.5002 3.53512-2.3431 5.65685-2.3431 2.1217 0 4.1566.8429 5.6569 2.3431 1.5002 1.5003 2.3431 3.5352 2.3431 5.6569zm9-5.917v3.917h4.659c-.3575-1.0086-.9778-1.9034-1.7969-2.592-.819-.6887-1.8071-1.1461-2.8621-1.325zm-2 3.917v-3.917c-1.055.1789-2.04309.6363-2.86215 1.325-.81906.6886-1.43938 1.5834-1.79685 2.592zm1-7c-3.315 0-6-2.685-6-6s2.685-6 6-6 6 2.685 6 6-2.685 6-6 6zm0-2c2.21 0 4-1.79 4-4s-1.79-4-4-4-4 1.79-4 4 1.79 4 4 4z" /></svg>