<svg fill="currentColor" height="24" viewBox="0 0 24 24" width="24" xmlns="http://www.w3.org/2000/svg"><path d="m1 21.9999c0-2.1217.84285-4.1565 2.34315-5.6568 1.50029-1.5003 3.53512-2.3432 5.65685-2.3432 2.1217 0 4.1566.8429 5.6569 2.3432 1.5002 1.5003 2.3431 3.5351 2.3431 5.6568h-2c0-1.5913-.6321-3.1174-1.7574-4.2426-1.1252-1.1252-2.6513-1.7574-4.2426-1.7574s-3.11742.6322-4.24264 1.7574-1.75736 2.6513-1.75736 4.2426zm8-9c-3.315 0-6-2.685-6-5.99996 0-3.315 2.685-6.000004 6-6.000004s6 2.685004 6 6.000004c0 3.31496-2.685 5.99996-6 5.99996zm0-2c2.21 0 4-1.78996 4-3.99996s-1.79-4-4-4-4 1.79-4 4 1.79 3.99996 4 3.99996zm12.548-10.215964c.9582 1.931824 1.4552 4.059594 1.452 6.216004 0 2.233-.523 4.34396-1.452 6.21596l-1.645-1.196c.7252-1.574 1.0995-3.2869 1.097-5.01996 0-1.792-.393-3.493-1.097-5.02zm-3.302 2.400004c.4994 1.21015.7556 2.50683.754 3.816.0016 1.30916-.2546 2.60584-.754 3.81596l-1.677-1.21997c.2862-.83556.4318-1.71279.431-2.59599.0011-.88316-.1442-1.76038-.43-2.596z" /></svg>