<svg fill="currentColor" height="24" viewBox="0 0 24 24" width="24" xmlns="http://www.w3.org/2000/svg"><path d="m14 14.252v2.09c-.9051-.32-1.8737-.4181-2.8246-.2862s-1.8562.4901-2.63997 1.0444-1.42309 1.2886-1.86427 2.1412-.67134 1.7986-.67116 2.7586l-2-.001c-.00031-1.2211.27892-2.4261.8163-3.5226s1.31864-2.0555 2.28392-2.8034 2.08896-1.2649 3.28498-1.5114c1.1959-.2464 2.4325-.2159 3.6148.0894zm-2-1.252c-3.315 0-6-2.685-6-6s2.685-6 6-6 6 2.685 6 6-2.685 6-6 6zm0-2c2.21 0 4-1.79 4-4s-1.79-4-4-4-4 1.79-4 4 1.79 4 4 4zm7.418 6h3.586v2h-3.586l1.829 1.828-1.414 1.415-4.243-4.243 4.243-4.243 1.414 1.415z" /></svg>