<svg fill="currentColor" height="24" viewBox="0 0 24 24" width="24" xmlns="http://www.w3.org/2000/svg"><path d="m17.841 15.659.176.177.178-.177c.2089-.2089.457-.3747.73-.4877.2729-.1131.5655-.1713.861-.1713s.5881.0582.861.1713c.273.113.5211.2788.73.4877s.3747.457.4877.73c.1131.2729.1713.5655.1713.861s-.0582.5881-.1713.861c-.113.273-.2788.5211-.4877.73l-3.36 3.359-3.358-3.359c-.422-.422-.659-.9943-.659-1.591s.237-1.169.659-1.591.9943-.659 1.591-.659 1.169.237 1.591.659zm-5.841-1.659v2c-1.5913 0-3.11742.6321-4.24264 1.7574-1.12522 1.1252-1.75736 2.6513-1.75736 4.2426h-2c.00002-2.0784.80894-4.0753 2.25547-5.5677 1.44653-1.4925 3.41712-2.3633 5.49453-2.4283zm0-13c3.315 0 6 2.685 6 6 .0006 1.55253-.6009 3.0448-1.6779 4.163s-2.5456 1.7753-4.0971 1.833l-.225.004c-3.315 0-6-2.685-6-6-.00056-1.55253.6009-3.04479 1.67791-4.16301 1.077-1.11822 2.54559-1.77527 4.09709-1.83299zm0 2c-2.21 0-4 1.79-4 4s1.79 4 4 4 4-1.79 4-4-1.79-4-4-4z" /></svg>