<svg fill="currentColor" height="24" viewBox="0 0 24 24" width="24" xmlns="http://www.w3.org/2000/svg"><path d="m12 14v2c-1.5913 0-3.11742.6321-4.24264 1.7574-1.12522 1.1252-1.75736 2.6513-1.75736 4.2426h-2c0-2.1217.84285-4.1566 2.34315-5.6569 1.50029-1.5002 3.53512-2.3431 5.65685-2.3431zm0-1c-3.315 0-6-2.685-6-6s2.685-6 6-6 6 2.685 6 6-2.685 6-6 6zm0-2c2.21 0 4-1.79 4-4s-1.79-4-4-4-4 1.79-4 4 1.79 4 4 4zm9.446 9.032 1.504 1.504-1.414 1.414-1.504-1.504c-.8387.4945-1.8289.6661-2.785.4828-.9562-.1834-1.8127-.7092-2.4089-1.4789s-.8912-1.7304-.8298-2.702c.0615-.9717.4752-1.8875 1.1636-2.576.6885-.6884 1.6043-1.1021 2.576-1.1636.9716-.0614 1.9323.2336 2.702.8298s1.2955 1.4527 1.4789 2.4089c.1833.9561.0117 1.9463-.4828 2.785zm-3.446-.032c.5304 0 1.0391-.2107 1.4142-.5858s.5858-.8838.5858-1.4142-.2107-1.0391-.5858-1.4142-.8838-.5858-1.4142-.5858-1.0391.2107-1.4142.5858-.5858.8838-.5858 1.4142.2107 1.0391.5858 1.4142.8838.5858 1.4142.5858z" /></svg>