<svg fill="currentColor" height="24" viewBox="0 0 24 24" width="24" xmlns="http://www.w3.org/2000/svg"><path d="m12 14v2c-1.5913 0-3.11742.6321-4.24264 1.7574-1.12522 1.1252-1.75736 2.6513-1.75736 4.2426h-2c0-2.1217.84285-4.1566 2.34315-5.6569 1.50029-1.5002 3.53512-2.3431 5.65685-2.3431zm0-1c-3.315 0-6-2.685-6-6s2.685-6 6-6 6 2.685 6 6-2.685 6-6 6zm0-2c2.21 0 4-1.79 4-4s-1.79-4-4-4-4 1.79-4 4 1.79 4 4 4zm8.828 10.071-2.828 2.929-2.828-2.929c-1.563-1.618-1.563-4.24 0-5.858.3647-.3832.8034-.6882 1.2895-.8967.4861-.2084 1.0096-.3159 1.5385-.3159s1.0524.1075 1.5385.3159c.4861.2085.9248.5135 1.2895.8967 1.563 1.618 1.563 4.24 0 5.858zm-1.438-1.39c.813-.842.813-2.236 0-3.078-.1781-.1903-.3934-.3419-.6325-.4456s-.4969-.1572-.7575-.1572-.5184.0535-.7575.1572-.4544.2553-.6325.4456c-.813.842-.813 2.236 0 3.079l1.39 1.438 1.39-1.44z" /></svg>