<svg fill="currentColor" height="24" viewBox="0 0 24 24" width="24" xmlns="http://www.w3.org/2000/svg"><path d="m3 3.993c0-.548.445-.993.993-.993h16.014c.548 0 .993.445.993.993v16.014c-.0003.2633-.105.5157-.2911.7019-.1862.1861-.4386.2908-.7019.2911h-16.014c-.26328-.0003-.5157-.105-.70186-.2911-.18617-.1862-.29088-.4386-.29114-.7019zm7.622 4.422c-.0602-.04015-.1301-.06323-.2024-.06678s-.1441.01257-.208.04664c-.0638.03407-.1172.08481-.1544.14682-.0373.06201-.0571.13297-.0572.20532v6.506c.0001.0723.0199.1433.0572.2053.0372.062.0906.1128.1544.1468.0639.0341.1357.0502.208.0467.0723-.0036.1422-.0266.2024-.0668l4.879-3.252c.0549-.0365.0999-.086.131-.1441s.0474-.123.0474-.1889-.0163-.1308-.0474-.1889-.0761-.1076-.131-.1441l-4.88-3.252z" /></svg>