<svg fill="currentColor" height="24" viewBox="0 0 24 24" width="24" xmlns="http://www.w3.org/2000/svg"><path d="m3 3.993c0-.548.445-.993.993-.993h16.014c.548 0 .993.445.993.993v16.014c-.0003.2633-.105.5157-.2911.7019-.1862.1861-.4386.2908-.7019.2911h-16.014c-.26328-.0003-.5157-.105-.70186-.2911-.18617-.1862-.29088-.4386-.29114-.7019zm2 1.007v14h14v-14zm5.622 3.415 4.879 3.252c.0549.0365.0999.086.131.1441s.0474.123.0474.1889-.0163.1308-.0474.1889-.0761.1076-.131.1441l-4.88 3.252c-.0602.0399-.13.0627-.2021.0662-.0721.0034-.1438-.0128-.2075-.0469-.0637-.034-.1169-.0846-.1541-.1465-.0373-.0618-.057-.1326-.0573-.2048v-6.506c.0001-.07235.0199-.14331.0572-.20532.0372-.06201.0906-.11275.1544-.14682.0639-.03407.1357-.05019.208-.04664s.1422.02663.2024.06678z" /></svg>