<svg fill="currentColor" height="24" viewBox="0 0 24 24" width="24" xmlns="http://www.w3.org/2000/svg"><g ><path clip-rule="evenodd" d="m17 15.5841-2-2v.0017l-7.58579-7.5858h.00165l-2-2h-.00165l-2.60547-2.60547-1.41421 1.41421 1.19126 1.19126h-.58579c-.26522 0-.51957.10536-.70711.29289-.18753.18754-.29289.44189-.29289.70711v14c0 .2652.10536.5196.29289.7071.18754.1875.44189.2929.70711.2929h14c.2652 0 .5196-.1054.7071-.2929s.2929-.4419.2929-.7071v-.5858l4.1914 4.1914 1.4142-1.4142-5.6056-5.6056zm-12.41421-9.5841h-1.58579v12h12v-1.5858l-8-7.99999v1.58579h-2v-2h1.58579z" fill-rule="evenodd"/><path d="m8.24429 4h7.75571c.2652 0 .5196.10536.7071.29289.1875.18754.2929.44189.2929.70711v4.2l5.213-3.65c.075-.05254.1629-.0835.2542-.0895.0914-.006.1826.0132.2638.05549.0812.0423.1492.10607.1966.18436.0475.0783.0725.16811.0724.25965v12.08c.0001.0915-.0249.1814-.0724.2596-.0474.0783-.1154.1421-.1966.1844l-.0018.0009-7.7292-7.7292v-4.7557h-4.7557z"/></g></svg>