<svg fill="currentColor" height="24" viewBox="0 0 24 24" width="24" xmlns="http://www.w3.org/2000/svg"><path d="m17 9.2 5.213-3.65c.075-.05254.1629-.0835.2542-.0895.0914-.006.1826.0132.2638.05549.0812.0423.1492.10607.1966.18436.0475.0783.0725.16811.0724.25965v12.08c.0001.0915-.0249.1814-.0724.2596-.0474.0783-.1154.1421-.1966.1844s-.1724.0615-.2638.0555c-.0913-.006-.1792-.037-.2542-.0895l-5.213-3.65v4.2c0 .2652-.1054.5196-.2929.7071s-.4419.2929-.7071.2929h-14c-.26522 0-.51957-.1054-.70711-.2929-.18753-.1875-.29289-.4419-.29289-.7071v-14c0-.26522.10536-.51957.29289-.70711.18754-.18753.44189-.29289.70711-.29289h14c.2652 0 .5196.10536.7071.29289.1875.18754.2929.44189.2929.70711zm-12-1.2v2h2v-2z" /></svg>