<svg fill="currentColor" height="24" viewBox="0 0 24 24" width="24" xmlns="http://www.w3.org/2000/svg"><path d="m17.993 3.00391c2.433 0 4.005 1.512 4.005 4.496 0 1.72-.998 3.93999-1.832 5.23499-2.789 4.333-6.233 8.74-9.643 8.74-3.70595 0-4.66995-6.831-5.09195-8.432s-.533-2.21-1.17-3.23299c-.317.21999-.76.52899-1.33.92999-.224.157-.533.105-.693-.117l-1.313002-1.81599c-.136-.187-.125-.444.027-.62 2.827002-3.272 5.176002-4.909 7.048002-4.909 2.39195 0 3.12395 2.816 3.32395 4.223.3 2.117.69 4.73799 1.244 5.87199.557-.792 2.18-2.888 1.967-3.98999-.094-.486-1.317.183-1.887.078-.425-.08-.806-.402-.806-1.026 0-1.31 1.852-5.43 6.151-5.43zm.007 2c-2.195 0-3.251 1.533-3.653 2.208 1.25.046 1.97.818 2.133 1.803.389 2.32999-1.916 4.91999-2.339 5.56499-.396.603-3.061 3.328-4.24995-3.36-.112-.629-.367-2.16299-.665-4.18599-.17-1.151-.873-1.763-1.23-1.763-.842 0-1.92.65-3.855 2.515 1.905-.115 2.545 2.27599 2.916 3.63299.816 2.984 1.571 8.056 3.61995 8.056 1.727 0 4.439-2.646 7.37-7.04.209-.311 1.966-3.02399 1.966-5.03599 0-2.395-1.469-2.395-2.013-2.395z" /></svg>