<svg fill="currentColor" height="24" viewBox="0 0 24 24" width="24" xmlns="http://www.w3.org/2000/svg"><path d="m4.87344 3h14.25396c.1578-.00002.3134.0373.454.1089.1406.07161.2623.17547.355.3031l3.823 5.256c.068.09352.1015.2077.0947.32312-.0067.11541-.0533.22491-.1317.30988l-11.355 12.301c-.0468.0506-.1035.091-.1667.1186-.0631.0276-.1313.0418-.2003.0418-.0689 0-.1371-.0142-.2002-.0418-.0632-.0276-.1199-.068-.1668-.1186l-11.354959-12.3c-.078649-.08503-.125335-.19474-.132083-.31037-.006749-.11563.026859-.23002.095083-.32363l3.822999-5.256c.09278-.12763.21445-.23149.35505-.3031.14061-.0716.29616-.10892.45395-.1089z" /></svg>