<svg fill="currentColor" height="24" viewBox="0 0 24 24" width="24" xmlns="http://www.w3.org/2000/svg"><path d="m3.49189 8.06496 1.286 10.93504h14.44401l1.286-10.93504-4.01 2.67304-4.498-6.29704-4.49801 6.29704zm-.691-2.865 4.199 2.8 4.18601-5.86c.0925-.12963.2146-.23529.3562-.3082.1416-.0729.2985-.11093.4578-.11093.1592 0 .3162.03803.4578.11093.1416.07291.2637.17857.3562.3082l4.186 5.86 4.2-2.8c.1589-.10575.3448-.16379.5357-.16726s.3788.04777.5415.14768.2934.2443.3766.41612c.0833.17181.1156.36386.0932.55346l-1.643 13.96704c-.0287.2432-.1456.4675-.3286.6302-.1831.1628-.4195.2527-.6644.2528h-16.22201c-.24494-.0001-.48134-.09-.66438-.2528-.18303-.1627-.29997-.387-.32862-.6302l-1.643-13.96804c-.0222-.18952.01028-.38143.09362-.55308.08333-.17166.21404-.31588.37669-.41566.16264-.09978.35044-.15093.54122-.14744.19079.0035.37658.06151.53547.16718zm9.19901 9.80004c-.5304 0-1.0392-.2108-1.4142-.5858-.3751-.3751-.58581-.8838-.58581-1.4142 0-.5305.21071-1.0392.58581-1.4143.375-.375.8838-.5857 1.4142-.5857s1.0391.2107 1.4142.5857c.3751.3751.5858.8838.5858 1.4143 0 .5304-.2107 1.0391-.5858 1.4142-.3751.375-.8838.5858-1.4142.5858z" /></svg>