<svg fill="currentColor" height="24" viewBox="0 0 24 24" width="24" xmlns="http://www.w3.org/2000/svg"><path d="m4.87303 3h14.25397c.1578-.00002.3134.0373.454.1089.1406.07161.2623.17547.355.3031l3.823 5.256c.068.09352.1015.2077.0947.32312-.0067.11541-.0533.22491-.1317.30988l-11.355 12.301c-.0899.0972-.2148.1548-.3472.1601-.1323.0052-.2614-.0423-.3588-.1321-.007-.006-3.79997-4.115-11.382967-12.329-.078396-.08497-.124927-.19447-.131673-.30988-.006746-.11542.02671-.2296.094673-.32312l3.822997-5.256c.09278-.12763.21445-.23149.35505-.3031.14061-.0716.29616-.10892.45395-.1089zm.51 2-2.8 3.85 9.41697 10.2 9.417-10.2-2.8-3.85z" /></svg>