<svg fill="currentColor" height="24" viewBox="0 0 24 24" width="24" xmlns="http://www.w3.org/2000/svg"><path d="m13.7173 1.94678 3.734 1.434-.717 1.867-.934-.359-.746 1.945c.779.462 1.444 1.094 1.945 1.846l1.903-.847-.407-.914 1.827-.813 1.627 3.654-1.827.81302-.407-.91302-1.902.84702c.122.477.187.978.187 1.493 0 .406-.04.803-.117 1.187l1.944.746.358-.933 1.868.717-1.434 3.734-1.867-.717.358-.933-1.944-.747c-.462.779-1.094 1.444-1.846 1.945l.847 1.903.914-.407.813 1.827-3.654 1.627-.813-1.827.913-.407-.847-1.902c-.477.122-.978.187-1.493.187-.407 0-.804-.04-1.188-.118l-.746 1.945.934.358-.717 1.868-3.73403-1.434.717-1.867.932.358.748-1.944c-.779-.462-1.444-1.094-1.946-1.846l-1.903.847.407.914-1.827.813-1.627-3.654 1.827-.813.406.914 1.903-.848c-.121-.477-.186-.978-.186-1.493 0-.406.04-.803.117-1.187l-1.945-.746-.357.933-1.868-.717 1.434-3.73302 1.867.717-.359.933 1.945.747c.462-.78 1.094-1.445 1.846-1.947l-.847-1.903-.914.407-.813-1.827 3.654-1.626.81303 1.827-.91303.407.84703 1.902c.477-.122.978-.187 1.493-.187.406 0 .803.04 1.187.117l.745-1.945-.932-.357zm-1.717 6.053c-2.21003 0-4.00003 1.79-4.00003 4.00002 0 2.21 1.79 4 4.00003 4 2.21 0 4-1.79 4-4 0-2.21002-1.79-4.00002-4-4.00002zm-.5 4.86602c.478.276.642.888.366 1.366s-.888.642-1.366.366-.64203-.888-.366-1.366c.276-.478.888-.642 1.366-.366zm2.5-1.866c.552 0 1 .448 1 1s-.448 1-1 1-1-.448-1-1 .448-1 1-1zm-2.134-1.23202c.276.47802.112 1.09002-.366 1.36602s-1.09.112-1.366-.366c-.27603-.478-.112-1.09002.366-1.36602s1.09-.112 1.366.366z" /></svg>