<svg fill="currentColor" height="24" viewBox="0 0 24 24" width="24" xmlns="http://www.w3.org/2000/svg"><path d="m1 4h22v2h-22zm0 14h22v2h-22zm18.622-3.086-.174-.87h-1.949l-.31.863-1.562.003c1.005-2.406 1.75-4.19 2.236-5.348.127-.303.353-.457.685-.455.254.002.669.002 1.245 0l1.207 5.805-1.378.003zm-1.684-2.062h1.256l-.47-2.18zm-10.066-3.746 1.57.002-2.427 5.806-1.59-.001c-.537-2.07-.932-3.606-1.184-4.605-.077-.307-.23-.521-.526-.622-.263-.09-.701-.23-1.315-.419v-.16h2.509c.434 0 .687.21.769.64l.62 3.289zm3.727.002-1.24 5.805-1.495-.002 1.24-5.805zm3.032-.108c.446 0 1.01.138 1.334.267l-.262 1.204c-.293-.118-.775-.277-1.18-.27-.59.009-.954.256-.954.493 0 .384.632.578 1.284.999.743.48.84.91.831 1.378-.01.971-.831 1.929-2.564 1.929-.791-.012-1.076-.078-1.72-.306l.272-1.256c.656.274.935.361 1.495.361.515 0 .956-.207.96-.568.002-.257-.155-.384-.732-.702-.577-.317-1.385-.756-1.375-1.64.013-1.13 1.087-1.889 2.61-1.889z" /></svg>