<svg fill="currentColor" height="24" viewBox="0 0 24 24" width="24" xmlns="http://www.w3.org/2000/svg"><path d="m22.222 15.7681-.225-1.125h-2.514l-.4 1.117-2.015.004c.9593-2.3068 1.9206-4.6128 2.884-6.91798.164-.391.455-.59.884-.588.328.003.863.003 1.606.001l1.558 7.50598zm-2.173-2.666h1.62l-.605-2.82zm-12.989-4.84498 2.026.002-3.132 7.50998-2.051-.002c-.51575-1.9837-1.02509-3.969-1.528-5.95598-.1-.396-.298-.673-.679-.804-.339-.117-.904-.297-1.696-.542v-.205h3.237c.56 0 .887.271.992.827.106.557.372 1.97498.8 4.25398zm4.81.002-1.602 7.50798-1.928-.002 1.6-7.50798zm3.91-.139c.577 0 1.304.18 1.722.345l-.338 1.55698c-.378-.15198-1-.35698-1.523-.34998-.76.013-1.23.33198-1.23.63798 0 .498.816.749 1.656 1.293.959.62 1.085 1.177 1.073 1.782-.013 1.256-1.073 2.495-3.309 2.495-1.02-.015-1.388-.101-2.22-.396l.352-1.625c.847.355 1.206.468 1.93.468.663 0 1.232-.268 1.237-.735.004-.332-.2-.497-.944-.907-.744-.411-1.788-.98-1.774-2.122.017-1.46198 1.402-2.44298 3.369-2.44298z" /></svg>