<svg fill="currentColor" height="24" viewBox="0 0 24 24" width="24" xmlns="http://www.w3.org/2000/svg"><path d="m19.3896 3.16098 1.413 1.414-2.475 2.475 2.475 2.475-2.475 2.47502 2.475 2.476-2.475 2.475 2.475 2.475-1.414 1.414-3.889-3.89 2.475-2.474-2.475-2.476 2.475-2.47502-2.475-2.475zm-6.39 16.78402c.0001.0947-.0268.1875-.0774.2675-.0506.0801-.1229.1441-.2085.1847-.0856.0405-.181.0559-.275.0444-.094-.0116-.1828-.0496-.2561-.1096l-5.29298-4.333-3.89.001c-.26522 0-.51957-.1054-.70711-.2929s-.29289-.4419-.29289-.7071v-6.00002c0-.26521.10535-.51957.29289-.7071.18754-.18754.44189-.2929.70711-.2929l2.584-.002-3.776-3.776 1.414-1.414 9.77798 9.77802zm-5.41598-9.94702-3.584.002v4.00002l3.603-.001 3.39698 2.78v-3.365zm5.30298-6.26c.0732.08944.1131.20145.113.317v5.702l-2-2v-.537l-.296.241-1.42098-1.42 2.89998-2.373c.0508-.04166.1093-.0729.1722-.09193s.1289-.02548.1943-.01898.1289.02583.1868.05687.1091.07319.1507.12404z" /></svg>