<svg fill="currentColor" height="24" viewBox="0 0 24 24" width="24" xmlns="http://www.w3.org/2000/svg"><path d="m10 7.22002-3.397 2.77998h-3.603v4h3.603l3.397 2.78zm-4.111 8.77998h-3.889c-.26522 0-.51957-.1053-.70711-.2929-.18753-.1875-.29289-.4419-.29289-.7071v-5.99998c0-.26522.10536-.51957.29289-.70711.18754-.18753.44189-.29289.70711-.29289h3.889l5.294-4.332c.0733-.06005.1621-.09806.2561-.10961.094-.01154.1893.00386.2749.04441s.158.10458.2086.18463c.0506.08006.0775.17285.0774.26757v15.88998c.0001.0947-.0268.1875-.0774.2676-.0506.08-.123.1441-.2086.1846-.0856.0406-.1809.056-.2749.0444-.094-.0115-.1828-.0495-.2561-.1096l-5.293-4.332zm13.517 4.134-1.416-1.416c.948-.8435 1.7064-1.8783 2.2252-3.0363s.7863-2.4128.7848-3.6817c.0012-1.3339-.2946-2.65133-.8661-3.85661s-1.4043-2.26813-2.4379-3.11137l1.42-1.42c1.2185 1.03155 2.1972 2.31648 2.8681 3.7652.6708 1.44871 1.0175 3.02628 1.0159 4.62278 0 3.223-1.386 6.122-3.594 8.134zm-3.543-3.543-1.422-1.422c.4855-.3733.8786-.8532 1.1489-1.4027.2703-.5496.4107-1.1539.4101-1.7663 0-1.43-.75-2.68498-1.88-3.39198l1.439-1.439c.7575.55719 1.3731 1.28485 1.7972 2.12412.424.83926.6446 1.76656.6438 2.70686 0 1.842-.83 3.49-2.137 4.591z" /></svg>