<svg fill="currentColor" height="24" viewBox="0 0 24 24" width="24" xmlns="http://www.w3.org/2000/svg"><path d="m19.39 3.16101 1.413 1.414-2.475 2.475 2.475 2.475-2.475 2.47499 2.475 2.476-2.475 2.475 2.475 2.475-1.414 1.414-3.889-3.89 2.475-2.474-2.475-2.476 2.475-2.47499-2.475-2.475zm-6.503.578c.0729.08917.1129.20079.113.316v15.88999c.0001.0947-.0268.1875-.0774.2676-.0506.08-.123.1441-.2086.1846-.0856.0406-.1809.056-.2749.0444-.094-.0115-.1828-.0495-.2561-.1096l-5.293-4.333-3.89.001c-.26522 0-.51957-.1053-.70711-.2929-.18753-.1875-.29289-.4419-.29289-.7071v-5.99999c0-.26522.10536-.51957.29289-.70711.18754-.18753.44189-.29289.70711-.29289h3.889l5.294-4.332c.0508-.04166.1093-.0729.1722-.09193s.1289-.02548.1943-.01898.1288.02583.1868.05687c.0579.03104.1091.07319.1507.12404z" /></svg>