<svg fill="currentColor" height="24" viewBox="0 0 24 24" width="24" xmlns="http://www.w3.org/2000/svg"><path d="m5.889 16h-3.889c-.26522 0-.51957-.1053-.70711-.2929-.18753-.1875-.29289-.4419-.29289-.7071v-5.99998c0-.26522.10536-.51957.29289-.70711.18754-.18753.44189-.29289.70711-.29289h3.889l5.294-4.332c.0733-.06005.1621-.09806.2561-.10961.094-.01154.1893.00386.2749.04441s.158.10458.2086.18463c.0506.08006.0775.17285.0774.26757v15.88998c.0001.0947-.0268.1875-.0774.2676-.0506.08-.123.1441-.2086.1846-.0856.0406-.1809.056-.2749.0444-.094-.0115-.1828-.0495-.2561-.1096l-5.293-4.332zm14.525-4 3.536 3.536-1.414 1.414-3.536-3.536-3.536 3.536-1.414-1.414 3.536-3.536-3.536-3.53598 1.414-1.414 3.536 3.53598 3.536-3.53598 1.414 1.414z" /></svg>