<svg fill="currentColor" height="24" viewBox="0 0 24 24" width="24" xmlns="http://www.w3.org/2000/svg"><path d="m22 7h1v10h-1v3c0 .2652-.1054.5196-.2929.7071s-.4419.2929-.7071.2929h-18c-.26522 0-.51957-.1054-.70711-.2929-.18753-.1875-.29289-.4419-.29289-.7071v-16c0-.26522.10536-.51957.29289-.70711.18754-.18753.44189-.29289.70711-.29289h18c.2652 0 .5196.10536.7071.29289.1875.18754.2929.44189.2929.70711zm-2 10h-6c-1.3261 0-2.5979-.5268-3.5355-1.4645-.93772-.9376-1.4645-2.2094-1.4645-3.5355s.52678-2.59785 1.4645-3.53553c.9376-.93769 2.2094-1.46447 3.5355-1.46447h6v-2h-16v14h16zm1-2v-6h-7c-.7956 0-1.5587.31607-2.1213.87868-.5626.56262-.8787 1.32572-.8787 2.12132s.3161 1.5587.8787 2.1213 1.3257.8787 2.1213.8787zm-7-4h3v2h-3z" /></svg>