<svg fill="currentColor" height="24" viewBox="0 0 24 24" width="24" xmlns="http://www.w3.org/2000/svg"><path d="m22 6h-7c-1.5913 0-3.1174.63214-4.2426 1.75736-1.12526 1.12522-1.7574 2.65134-1.7574 4.24264s.63214 3.1174 1.7574 4.2426c1.1252 1.1253 2.6513 1.7574 4.2426 1.7574h7v2c0 .2652-.1054.5196-.2929.7071s-.4419.2929-.7071.2929h-18c-.26522 0-.51957-.1054-.70711-.2929-.18753-.1875-.29289-.4419-.29289-.7071v-16c0-.26522.10536-.51957.29289-.70711.18754-.18753.44189-.29289.70711-.29289h18c.2652 0 .5196.10536.7071.29289.1875.18754.2929.44189.2929.70711zm-7 2h8v8h-8c-1.0609 0-2.0783-.4214-2.8284-1.1716-.7502-.7501-1.1716-1.7675-1.1716-2.8284s.4214-2.07828 1.1716-2.82843c.7501-.75014 1.7675-1.17157 2.8284-1.17157zm0 3v2h3v-2z" /></svg>