<svg fill="currentColor" height="24" viewBox="0 0 24 24" width="24" xmlns="http://www.w3.org/2000/svg"><path d="m5.636 6.63597 6.364-6.363997 6.364 6.363997c1.2587 1.25868 2.1158 2.86233 2.4631 4.60813.3472 1.7458.169 3.5554-.5122 5.2-.6812 1.6445-1.8347 3.0501-3.3148 4.039-1.48.989-3.2201 1.5168-5.0001 1.5168s-3.52008-.5278-5.00012-1.5168c-1.48004-.9889-2.63359-2.3945-3.31478-4.039-.68119-1.6446-.85943-3.4542-.51217-5.2s1.20441-3.34945 2.46307-4.60813zm7.364 4.36403v-4.50003l-4.5 6.50003h2.5v4.5l4.5-6.5z" /></svg>