<svg fill="currentColor" height="24" viewBox="0 0 24 24" width="24" xmlns="http://www.w3.org/2000/svg"><path d="m12 3.09997-4.95 4.95c-.97889.979-1.64551 2.22633-1.91555 3.58413-.27003 1.3578-.13137 2.7653.39847 4.0443.52983 1.2791 1.42704 2.3723 2.57817 3.1414s2.50451 1.1797 3.88891 1.1797 2.7378-.4106 3.8889-1.1797 2.0484-1.8623 2.5782-3.1414c.5298-1.279.6685-2.6865.3985-4.0443-.2701-1.3578-.9367-2.60513-1.9156-3.58413zm0-2.827997 6.364 6.363997c1.2587 1.25868 2.1158 2.86233 2.4631 4.60813.3472 1.7458.169 3.5554-.5122 5.2-.6812 1.6445-1.8347 3.0501-3.3148 4.039-1.48.989-3.2201 1.5168-5.0001 1.5168s-3.52008-.5278-5.00012-1.5168c-1.48004-.9889-2.63359-2.3945-3.31478-4.039-.68119-1.6446-.85943-3.4542-.51217-5.2s1.20441-3.34945 2.46307-4.60813zm1 10.728027h2.5l-4.5 6.5v-4.5h-2.5l4.5-6.50003z" /></svg>