<svg fill="currentColor" height="24" viewBox="0 0 24 24" width="24" xmlns="http://www.w3.org/2000/svg"><path d="m11 21v-1.07c-1.66613-.2409-3.18969-1.074-4.2916-2.3467-1.10192-1.2727-1.70842-2.8998-1.7084-4.5833v-5c0-.91925.18106-1.8295.53284-2.67878.35179-.84928.8674-1.62096 1.51741-2.27097s1.42169-1.16562 2.27097-1.51741c.84928-.35178 1.75948-.53284 2.67878-.53284s1.8295.18106 2.6788.53284c.8493.35179 1.6209.8674 2.2709 1.51741.6501.65001 1.1657 1.42169 1.5175 2.27097.3517.84928.5328 1.75953.5328 2.67878v5c0 1.6835-.6065 3.3106-1.7084 4.5833s-2.6255 2.1058-4.2916 2.3467v1.07h4v2h-10v-2zm1-12c-.2652 0-.5196-.10536-.7071-.29289-.1875-.18754-.2929-.44189-.2929-.70711s.1054-.51957.2929-.70711c.1875-.18753.4419-.29289.7071-.29289s.5196.10536.7071.29289c.1875.18754.2929.44189.2929.70711s-.1054.51957-.2929.70711c-.1875.18753-.4419.29289-.7071.29289zm0 2c.7956 0 1.5587-.3161 2.1213-.8787.5626-.56259.8787-1.32565.8787-2.1213s-.3161-1.55871-.8787-2.12132-1.3257-.87868-2.1213-.87868-1.5587.31607-2.12132.87868c-.56261.56261-.87868 1.32567-.87868 2.12132s.31607 1.55871.87868 2.1213c.56262.5626 1.32572.8787 2.12132.8787z" /></svg>