<svg fill="currentColor" height="24" viewBox="0 0 24 24" width="24" xmlns="http://www.w3.org/2000/svg"><path d="m19.1446 8.9932-9.79899 5.608-.07.046c-.09307.0465-.19598.0698-.3.068-.11878.0006-.2355-.031-.33767-.0916s-.18593-.1479-.24233-.2524l-.046-.092-1.83-3.95c-.024-.046-.024-.092-.024-.138 0-.184.139-.321.324-.321.07 0 .14.023.209.069l2.155 1.515c.162.092.348.161.556.161.11933-.0006.23745-.0241.34799-.069l8.275-3.648c-1.429-1.625-3.729-2.698-6.363-2.698-4.41999 0-7.89999 3.022-7.89999 6.6 0 1.366.5 2.673 1.432 3.781.048.057.12.137.214.235.39307.4094.69453.8977.88436 1.4325s.26368 1.1039.21664 1.6695l-.025.297.716-.436c.80963-.4937 1.7683-.6836 2.70499-.536.212.033.386.059.52.076.406.054.82.081 1.237.081 4.42 0 7.9-3.022 7.9-6.6 0-.996-.27-1.95-.755-2.807zm-12.95299 12.95c-.15742.0983-.33907.1508-.52464.1517s-.36772-.0499-.52609-.1466-.2867-.2356-.37064-.4011c-.08393-.1655-.12016-.3511-.10463-.536l.188-2.259c.02358-.2828-.01326-.5673-.10809-.8347-.09482-.2674-.24546-.5116-.44191-.7163-.10489-.1077-.20627-.2188-.304-.333-1.194-1.421-1.9-3.173-1.9-5.068 0-4.75 4.432-8.6 9.89999-8.6 5.468 0 9.9 3.85 9.9 8.6s-4.432 8.6-9.9 8.6c-.51 0-1.01-.033-1.499-.098-.19-.0257-.3797-.0537-.56899-.084-.46851-.0739-.94805.0211-1.353.268l-2.387 1.456z" /></svg>