<svg fill="currentColor" height="24" viewBox="0 0 24 24" width="24" xmlns="http://www.w3.org/2000/svg"><path d="m9.27 14.6692c-.15293.078-.33019.0936-.49438.0434s-.30245-.1622-.38562-.3124l-.043-.095-1.818-3.998c-.00745-.0481-.00745-.097 0-.145-.00015-.0437.00847-.087.02534-.1273.01687-.04035.04166-.07688.07289-.10746.03123-.03057.06827-.05458.10894-.0706.04067-.01601.08413-.02372.12783-.02265.07103-.00149.14035.02185.196.066l2.18 1.52701c.16162.1081.35154.1662.546.167.11722.0006.2334-.0218.342-.066l10.047-4.50001c-1.0304-1.13807-2.2931-2.04176-3.7027-2.65005-1.4096-.60828-2.9334-.90699-4.4683-.87595-5.526 0-10.004 3.73-10.004 8.36801.03238 1.2494.36337 2.4729.96531 3.5682.60194 1.0954 1.45734 2.0307 2.49469 2.7278.11038.0814.19276.195.23575.3253.04299.1302.04448.2706.00425.4017l-.45 1.701c-.02736.0774-.0445.1581-.051.24-.00096.0441.00703.088.02348.1289.01645.041.04101.0782.07222.1094s.06841.0558.10936.0722c.04096.0165.08482.0244.12894.0235.0671-.0036.13231-.0235.19-.058l2.18-1.265c.16-.098.343-.151.531-.152.099 0 .197.014.29.043 1.063.3 2.161.452 3.265.45 5.525 0 10.01-3.729 10.01-8.33.0105-1.3722-.37-2.7191-1.097-3.88301l-11.552 6.65201z" /></svg>