<svg fill="currentColor" height="24" viewBox="0 0 24 24" width="24" xmlns="http://www.w3.org/2000/svg"><path d="m8.66661 11.5112c-.16908.0012-.33672-.0312-.49316-.0954-.15644-.0641-.29858-.1587-.41814-.2783s-.21417-.2617-.27832-.4181c-.06416-.1565-.09658-.3241-.09538-.4932 0-.718.567-1.286 1.285-1.286.717 0 1.285.568 1.285 1.286 0 .717-.568 1.285-1.285 1.285zm6.66599 0c-.1691.0012-.3367-.0312-.4932-.0954-.1564-.0641-.2985-.1587-.4181-.2783s-.2142-.2617-.2783-.4181c-.0642-.1565-.0966-.3241-.0954-.4932 0-.718.568-1.286 1.285-1.286.718 0 1.285.568 1.285 1.286 0 .717-.567 1.285-1.285 1.285zm-8.50999 7.704.715-.436c.80963-.4937 1.7683-.6836 2.70499-.536.212.033.386.059.52.076.406.054.82.081 1.237.081 4.42 0 7.9-3.022 7.9-6.6s-3.48-6.6-7.9-6.6c-4.41999 0-7.89999 3.022-7.89999 6.6 0 1.366.5 2.673 1.432 3.781.048.057.12.137.214.235.39307.4094.69453.8977.88436 1.4325s.26368 1.1039.21664 1.6695l-.025.297zm-.63 2.727c-.15729.0984-.33885.1511-.52438.1522s-.36771-.0494-.52617-.1459-.28694-.2352-.37108-.4005c-.08415-.1654-.12063-.3509-.10537-.5358l.188-2.26c.02358-.2828-.01326-.5673-.10809-.8347-.09482-.2674-.24546-.5116-.44191-.7163-.10489-.1077-.20627-.2188-.304-.333-1.194-1.421-1.9-3.173-1.9-5.068 0-4.75 4.432-8.6 9.89999-8.6 5.468 0 9.9 3.85 9.9 8.6s-4.432 8.6-9.9 8.6c-.51 0-1.01-.033-1.499-.098-.19-.0257-.3797-.0537-.56899-.084-.46851-.0739-.94805.0211-1.353.268l-2.387 1.456z" /></svg>