<svg fill="currentColor" height="24" viewBox="0 0 24 24" width="24" xmlns="http://www.w3.org/2000/svg"><path d="m18.574 13.711c.2372-.0031.4638-.0987.6315-.2665.1678-.1677.2634-.3943.2665-.6315 0-.498-.399-.898-.898-.898s-.898.4-.898.898c0 .5.4.898.898.898zm-4.425 0c.2372-.0031.4638-.0987.6315-.2665.1678-.1677.2634-.3943.2665-.6315 0-.498-.4-.898-.898-.898-.5 0-.898.4-.898.898 0 .5.399.898.898.898zm6.567 5.04c-.0641.0356-.1152.0906-.1461.157-.0309.0665-.04.1411-.0259.213 0 .048 0 .097.025.147.098.417.294 1.081.294 1.106 0 .073.025.122.025.172 0 .029-.0057.0577-.0168.0844-.0112.0268-.0275.0511-.048.0715-.0205.0205-.0449.0366-.0717.0476s-.0555.0166-.0845.0165c-.05 0-.074-.024-.123-.048l-1.449-.836c-.1058-.0582-.2234-.0917-.344-.098-.073 0-.147 0-.196.024-.688.197-1.4.295-2.161.295-3.66 0-6.607-2.457-6.607-5.505 0-3.047 2.947-5.505 6.607-5.505 3.659 0 6.606 2.458 6.606 5.505 0 1.647-.884 3.146-2.284 4.154zm-4.043-10.652c-.0933-.0031-.1866-.00477-.28-.005-4.174 0-7.606 2.86-7.606 6.505 0 .554.08 1.09.228 1.6h-.089c-.87374-.0088-1.74253-.1326-2.584-.368-.074-.025-.148-.025-.222-.025-.14779.0031-.29207.0456-.418.123l-1.748 1.005c-.05.025-.099.05-.148.05-.07137-.0008-.13959-.0295-.19006-.0799-.05046-.0505-.07916-.1187-.07994-.1901 0-.074.024-.123.049-.197.024-.024.246-.834.369-1.324 0-.05.024-.123.024-.172-.00027-.0857-.02036-.1702-.0587-.2469-.03833-.0767-.09388-.1434-.1623-.1951-1.699-1.203-2.757-2.993-2.757-4.981 0-3.653 3.57-6.598 7.95-6.598 3.765 0 6.93 2.169 7.723 5.098zm-5.154.418c.573 0 1.026-.477 1.026-1.026 0-.573-.453-1.026-1.026-1.026s-1.026.453-1.026 1.026.453 1.026 1.026 1.026zm-5.26 0c.573 0 1.027-.477 1.027-1.026 0-.573-.454-1.026-1.027-1.026-.572 0-1.026.453-1.026 1.026s.454 1.026 1.026 1.026z" /></svg>