<svg fill="currentColor" height="24" viewBox="0 0 24 24" width="24" xmlns="http://www.w3.org/2000/svg"><path d="m5.457 18.1851c-2.099-1.508-3.457-3.785-3.457-6.277 0-4.585 4.475-8.308 10-8.308s10 3.723 10 8.308c0 4.584-4.475 8.307-10 8.307-1.1073.0066-2.20963-.1487-3.272-.461-.092-.03-.216-.03-.308-.03-.185 0-.37.06-.525.153l-2.191 1.261c-.05625.0342-.11947.0554-.185.062-.08967-.0005-.17555-.0362-.23914-.0995-.06359-.0632-.09981-.1488-.10086-.2385 0-.093.03-.154.062-.247.03-.03.308-1.046.463-1.661 0-.062.03-.154.03-.216 0-.246-.092-.43-.277-.553zm3.21-7.674c.717 0 1.285-.568 1.285-1.285 0-.718-.568-1.286-1.285-1.286-.718 0-1.285.568-1.285 1.286 0 .717.567 1.285 1.285 1.285zm6.666 0c.718 0 1.285-.568 1.285-1.285 0-.718-.567-1.286-1.285-1.286-.717 0-1.285.568-1.285 1.286 0 .717.568 1.285 1.285 1.285z" /></svg>