<svg fill="currentColor" height="24" viewBox="0 0 24 24" width="24" xmlns="http://www.w3.org/2000/svg"><path d="m10 14.6762v-.062c0-2.508 2.016-4.618 4.753-5.233-.364-2.302-2.794-4.181-5.853-4.181-3.32 0-5.9 2.213-5.9 4.78 0 .969.36 1.9 1.04 2.698.032.038.083.094.152.165.5879.6042.94288 1.397 1.002 2.238.71409-.4128 1.54797-.5688 2.363-.442.166.026.302.046.405.06.67708.0879 1.36318.0799 2.038-.024zm.457 1.951c-.90972.1562-1.83776.1747-2.753.055-.1516-.0205-.30294-.0428-.454-.067-.37372-.0582-.75602.0168-1.08.212l-1.904 1.148c-.14664.0903-.31836.1314-.49.117-.10381-.0078-.20505-.0361-.29791-.0831-.09287-.0471-.17554-.112-.24326-.1911-.06773-.079-.11918-.1707-.15142-.2697-.03223-.0989-.0446-.2033-.03641-.3071l.15-1.781c.01869-.2234-.01083-.4482-.08657-.6592s-.19593-.4033-.35243-.5638c-.08312-.0847-.1635-.1721-.241-.262-.954-1.12-1.517-2.502-1.517-3.996 0-3.744 3.537-6.779 7.9-6.779 4.06 0 7.403 2.627 7.85 6.008 3.372.153 6.05 2.515 6.05 5.406 0 1.193-.456 2.296-1.229 3.19-.051.06-.116.13-.195.21-.1264.1273-.2237.2804-.2851.4489-.0615.1685-.0857.3483-.0709.5271l.121 1.423c.0061.0834-.0043.1672-.0307.2466-.0263.0794-.0681.1528-.123.216-.0548.0632-.1216.1149-.1964.1522-.0749.0373-.1564.0595-.2399.0652-.1389.0114-.2779-.0215-.397-.094l-1.543-.917c-.263-.1557-.5719-.2154-.874-.169-.147.023-.27.04-.368.053-.316.04-.64.062-.969.062-2.694 0-4.998-1.408-5.943-3.401zm6.977 1.31c.5643-.0869 1.1415-.0269 1.676.174.1402-.5672.4308-1.086.841-1.502.05-.05.087-.09.106-.112.489-.565.743-1.213.743-1.883 0-1.804-1.903-3.414-4.4-3.414s-4.4 1.61-4.4 3.414 1.903 3.414 4.4 3.414c.241 0 .48-.016.714-.046.08-.01.188-.025.32-.046z" /></svg>