<svg fill="currentColor" height="24" viewBox="0 0 24 24" width="24" xmlns="http://www.w3.org/2000/svg"><path d="m17.525 11.3779c1.263.392 2.669 1.336 2.669 3.004 0 2.763-3.98 6.239-9.964 6.239-4.565 0-9.23-2.213-9.23-5.852 0-1.902 1.204-4.102 3.277-6.17696 2.773-2.77 6.004-4.033 7.219-2.816.537.537.588 1.464.244 2.572-.178.557.525.25.525.25 2.24-.938 4.196-.994 4.909.027.38.543.343 1.306-.008 2.18996-.163.407.048.471.36.563zm-7.282 7.939c3.641-.362 6.401-2.592 6.167-4.983-.237-2.391-3.382-4.038-7.023-3.677-3.64.36-6.403 2.59-6.167 4.98.237 2.394 3.382 4.039 7.023 3.68zm-4.083-4.879c.754-1.527 2.712-2.39 4.446-1.94 1.793.463 2.707 2.154 1.976 3.8-.744 1.682-2.882 2.578-4.695 1.993-1.752-.566-2.493-2.294-1.727-3.853zm1.446 2.587c.568.257 1.325.013 1.676-.55.346-.568.163-1.217-.407-1.459-.563-.237-1.291.008-1.64.553-.354.547-.189 1.202.371 1.456zm2.206-1.808c.219.092.501-.012.628-.231.123-.22.044-.466-.178-.548-.216-.084-.486.018-.613.232-.123.214-.054.458.163.547zm10.061-5.71696c-.0289.09137-.0756.1761-.1374.24931-.0619.0732-.1376.13342-.2229.17717-.0852.04375-.1783.07017-.2738.07768-.0955.0076-.1916-.0039-.2827-.03366-.0911-.02981-.1753-.07737-.2479-.13994-.0726-.06258-.132-.13892-.1749-.22461s-.0684-.17903-.075-.27463.0059-.19156.0366-.28232c.0761-.23148.0895-.47897.0389-.71732s-.1634-.45905-.3269-.63968c-.164-.17995-.3722-.31385-.6039-.38841-.2318-.07456-.479-.08717-.7171-.03659-.093.01989-.189.02128-.2825.00408s-.1827-.05265-.2625-.10432c-.1612-.10437-.2743-.26849-.3145-.45626-.0402-.18778-.0041-.38382.1002-.54501.1044-.16118.2685-.27431.4563-.31449.487-.10405.9928-.07803 1.4666.07546.4738.15348.8988.42901 1.2322.79888.3335.36987.5637.82102.6675 1.3081.1038.48707.0775.99288-.0763 1.46656zm-3.916-6.575c1.0002-.21315 2.0389-.15951 3.0118.15555s1.8458.88046 2.5312 1.63945c.6858.7602 1.1596 1.68744 1.3737 2.68865.2142 1.0012.1612 2.04112-.1537 3.01531-.0338.1053-.0881.2029-.1597.2871-.0717.0843-.1593.1535-.2579.2037-.0985.0502-.206.0804-.3163.0888-.1102.0085-.2211-.005-.3261-.0396-.2126-.0691-.389-.2198-.4906-.4189s-.1201-.4304-.0514-.64306c.2238-.69183.2616-1.43039.1096-2.14146-.152-.71108-.4885-1.36962-.9756-1.90946-.4871-.53983-1.1078-.94195-1.7996-1.16595-.6917-.224-1.4303-.26198-2.1414-.11013-.2136.03391-.432-.01535-.6103-.13762-.1784-.12227-.303-.30825-.3484-.51967s-.0079-.43218.1045-.61685c.1125-.18467.2915-.31918.5002-.37586z" /></svg>