<svg fill="currentColor" height="24" viewBox="0 0 24 24" width="24" xmlns="http://www.w3.org/2000/svg"><path d="m20.194 14.1968c0 3.362-4.53 6.4241-9.926 6.4241-4.95-.001-9.268-2.432-9.268-6.087 0-1.947 1.18-4.087 3.24-6.08805 2.832-2.746 6.229-4.033 7.858-2.448.498.482.723 1.122.719 1.858 1.975-.576 3.65-.404 4.483.752.449.623.532 1.38.326 2.20695 1.511.61 2.568 1.77 2.568 3.382zm-4.44-2.0699c-.386-.41-.4-.92-.198-1.41.208-.508.213-.81205.12-.94005-.264-.368-1.533-.363-3.194.31105-.1629.0684-.334.1155-.509.1399-.344.046-.671.0011-.983-.26495-.419-.359-.474-.855-.322-1.316.215-.67.18-1.076.037-1.215-.186-.18-.777-.191-1.659.143-1.069.405-2.298 1.224-3.414 2.306-1.707 1.65895-2.632 3.33705-2.632 4.65305 0 2.242 3.276 4.087 7.268 4.087 4.42 0 7.926-2.3701 7.926-4.4241 0-.738-.637-1.3389-1.673-1.6519-.394-.113-.536-.171-.767-.417zm7.054-1.617c-.0666.2567-.2324.4764-.461.6109s-.5013.1726-.758.1061c-.2567-.0666-.4765-.2324-.611-.4611-.1344-.2286-.1726-.5012-.106-.7579.1719-.65934.1726-1.35162.002-2.01126-.1706-.65963-.5069-1.26474-.977-1.75795-.4701-.49322-1.0583-.85818-1.709-1.06028-.6507-.20211-1.3422-.23466-2.009-.09456-.1292.0285-.2628.03107-.3931.00755-.1302-.02352-.2545-.07266-.3656-.14456-.1111-.07191-.2068-.16515-.2816-.27433-.0748-.10917-.1272-.23211-.1541-.36168-.027-.12957-.0279-.2632-.0028-.39314s.0757-.25361.149-.36383c.0732-.11023.1676-.20481.2777-.27829.11-.07347.2336-.12436.3635-.14972.9997-.20929 2.0363-.15991 3.0116.14347s1.857.85072 2.5616 1.59017 1.2088 1.64653 1.4648 2.63533c.256.98879.2553 2.02657-.002 3.01508z" /></svg>