<svg fill="currentColor" height="24" viewBox="0 0 24 24" width="24" xmlns="http://www.w3.org/2000/svg"><path d="m21.75 11h-.75v-2.25c0-.96562-.7844-1.75-1.75-1.75h-1c-.0844 0-.1688.0125-.25.025v-.275c0-.96562-.7844-1.75-1.75-1.75h-1c-.9656 0-1.75.78438-1.75 1.75v4.25h-3v-4.25c0-.96562-.78438-1.75-1.75-1.75h-1c-.96562 0-1.75.78438-1.75 1.75v.275c-.08125-.0125-.16562-.025-.25-.025h-1c-.96562 0-1.75.78438-1.75 1.75v2.25h-.75c-.1375 0-.25.1125-.25.25v1.5c0 .1375.1125.25.25.25h.75v2.25c0 .9656.78438 1.75 1.75 1.75h1c.08438 0 .16875-.0125.25-.025v.275c0 .9656.78438 1.75 1.75 1.75h1c.96562 0 1.75-.7844 1.75-1.75v-4.25h3v4.25c0 .9656.7844 1.75 1.75 1.75h1c.9656 0 1.75-.7844 1.75-1.75v-.275c.0812.0125.1656.025.25.025h1c.9656 0 1.75-.7844 1.75-1.75v-2.25h.75c.1375 0 .25-.1125.25-.25v-1.5c0-.1375-.1125-.25-.25-.25zm-16 4.5h-1c-.1375 0-.25-.1125-.25-.25v-6.5c0-.1375.1125-.25.25-.25h1c.1375 0 .25.1125.25.25v6.5c0 .1375-.1125.25-.25.25zm3.25 1.75c0 .1375-.1125.25-.25.25h-1c-.1375 0-.25-.1125-.25-.25v-10.5c0-.1375.1125-.25.25-.25h1c.1375 0 .25.1125.25.25zm7.5 0c0 .1375-.1125.25-.25.25h-1c-.1375 0-.25-.1125-.25-.25v-10.5c0-.1375.1125-.25.25-.25h1c.1375 0 .25.1125.25.25zm3-2c0 .1375-.1125.25-.25.25h-1c-.1375 0-.25-.1125-.25-.25v-6.5c0-.1375.1125-.25.25-.25h1c.1375 0 .25.1125.25.25z" fill="#000"/></svg>