<svg fill="currentColor" height="24" viewBox="0 0 24 24" width="24" xmlns="http://www.w3.org/2000/svg"><path d="m5.25 7h-1.5c-.41563 0-.75.33437-.75.75v3.25h-.75c-.1375 0-.25.1125-.25.25v1.5c0 .1375.1125.25.25.25h.75v3.25c0 .4156.33437.75.75.75h1.5c.41563 0 .75-.3344.75-.75v-8.5c0-.41563-.33437-.75-.75-.75zm16.5 4h-.75v-3.25c0-.41563-.3344-.75-.75-.75h-1.5c-.4156 0-.75.33437-.75.75v8.5c0 .4156.3344.75.75.75h1.5c.4156 0 .75-.3344.75-.75v-3.25h.75c.1375 0 .25-.1125.25-.25v-1.5c0-.1375-.1125-.25-.25-.25zm-5.5-6h-1.5c-.4156 0-.75.33437-.75.75v5.25h-4v-5.25c0-.41563-.33437-.75-.75-.75h-1.5c-.41563 0-.75.33437-.75.75v12.5c0 .4156.33437.75.75.75h1.5c.41563 0 .75-.3344.75-.75v-5.25h4v5.25c0 .4156.3344.75.75.75h1.5c.4156 0 .75-.3344.75-.75v-12.5c0-.41563-.3344-.75-.75-.75z" fill="#000"/></svg>