<svg fill="currentColor" height="24" viewBox="0 0 24 24" width="24" xmlns="http://www.w3.org/2000/svg"><path d="m7.25301 18.494.724.423c1.22094.7121 2.60959 1.0859 4.02299 1.083 1.5823 0 3.129-.4692 4.4446-1.3482 1.3156-.8791 2.3409-2.1285 2.9465-3.5903.6055-1.4618.7639-3.0704.4552-4.6222-.3087-1.55187-1.0706-2.97733-2.1894-4.09615-1.1189-1.11882-2.5443-1.88075-4.0962-2.18943-1.5518-.30868-3.1603-.15026-4.62215.45524-1.46181.60551-2.71124 1.63088-3.59029 2.94648-.87905 1.31559-1.34825 2.86226-1.34825 4.44456 0 1.436.377 2.813 1.084 4.024l.422.724-.653 2.401zm-5.249 3.506 1.352-4.968c-.89086-1.5271-1.3589-3.264-1.356-5.032 0-5.523 4.477-10 9.99999-10 5.523 0 10 4.477 10 10s-4.477 10-10 10c-1.7672.0029-3.50333-.4648-5.02999-1.355zm6.387-14.692c.134-.01.269-.01.403-.004.054.004.108.01.162.016.159.018.334.115.393.249.298.676.588 1.357.86799 2.04.062.152.025.347-.093.537-.0811.1285-.16893.2526-.26299.372-.113.145-.356.411-.356.411s-.099.118-.061.265c.014.056.06.137.102.205l.059.095c.256.427.59999.86 1.01999 1.268.12.116.237.235.363.346.468.413.998.75 1.57 1l.005.002c.085.037.128.057.252.11.062.026.126.049.191.066.0672.0171.1379.0139.2033-.0093.0653-.0231.1223-.0651.1637-.1207.724-.877.79-.934.796-.934v.002c.0503-.0469.1101-.0825.1753-.1044s.1343-.0296.2027-.0226c.06.004.121.015.177.04.531.243 1.4.622 1.4.622l.582.261c.098.047.187.158.19.265.004.067.01.175-.013.373-.032.259-.11.57-.188.733-.0534.1112-.1243.2132-.21.302-.1009.1059-.2114.2024-.33.288-.041.0309-.0827.0609-.125.09-.1244.0789-.2522.1523-.383.22-.2575.1368-.5418.2153-.833.23-.185.01-.37.024-.556.014-.008 0-.568-.087-.568-.087-1.4217-.374-2.7366-1.0745-3.83999-2.046-.226-.199-.435-.413-.649-.626-.89-.885-1.562-1.84-1.97-2.742-.20883-.4427-.32163-.9246-.331-1.414-.00412-.60715.19435-1.19833.564-1.68.073-.094.142-.192.261-.305.127-.12.207-.184.294-.228.11568-.05797.24187-.09198.371-.1z" /></svg>