<svg fill="currentColor" height="24" viewBox="0 0 24 24" width="24" xmlns="http://www.w3.org/2000/svg"><path d="m2.00401 22 1.352-4.968c-.89086-1.5271-1.3589-3.264-1.356-5.032 0-5.523 4.477-10 9.99999-10 5.523 0 10 4.477 10 10s-4.477 10-10 10c-1.7672.0029-3.50333-.4648-5.02999-1.355zm6.387-14.692c-.12913.00802-.25532.04203-.371.1-.10848.06143-.2075.13822-.294.228-.12.113-.188.211-.261.306-.36959.481-.56839 1.07142-.565 1.678.002.49.13.967.33 1.413.409.902 1.082 1.857 1.971 2.742.214.213.423.427.648.626 1.10339.9715 2.41829 1.672 3.83999 2.046l.569.087c.185.01.37-.004.556-.013.2913-.015.5756-.0939.833-.231.166-.088.244-.132.383-.22 0 0 .043-.028.125-.09.135-.1.218-.171.33-.288.083-.086.155-.187.21-.302.078-.163.156-.474.188-.733.024-.198.017-.306.014-.373-.004-.107-.093-.218-.19-.265l-.582-.261s-.87-.379-1.401-.621c-.056-.0244-.116-.0383-.177-.041-.0684-.007-.1375.0007-.2027.0226s-.125.0575-.1753.1044v-.002c-.005 0-.072.057-.795.933-.0415.0558-.0986.0979-.1642.1211-.0655.0231-.1365.0262-.2038.0089-.0651-.0174-.129-.0395-.191-.066-.124-.052-.167-.072-.252-.109l-.005-.002c-.5721-.2498-1.1018-.5872-1.57-1-.126-.11-.243-.23-.363-.346-.3934-.3768-.73627-.803-1.01999-1.268l-.059-.095c-.04237-.0638-.07664-.1327-.102-.205-.038-.147.061-.265.061-.265s.243-.266.356-.41c.09409-.1197.18189-.2442.26299-.373.118-.19.155-.385.093-.536-.27999-.684-.56999-1.365-.86799-2.041-.059-.134-.234-.23-.393-.249-.054-.006-.108-.012-.162-.016-.13429-.00667-.26886-.00534-.403.004z" /></svg>