<svg fill="currentColor" height="24" viewBox="0 0 24 24" width="24" xmlns="http://www.w3.org/2000/svg"><path d="m8 10.341v2.194c-1.196.692-2 1.985-2 3.465 0 2.21 1.79 4 4 4 1.48 0 2.773-.804 3.465-2h2.193c-.823 2.33-3.046 4-5.658 4-3.314 0-6-2.686-6-6 0-2.613 1.67-4.835 4-5.659zm4 6.659c-1.657 0-3-1.343-3-3v-4c0-1.044.534-1.964 1.343-2.501-.81-.535-1.343-1.455-1.343-2.499 0-1.657 1.343-3 3-3s3 1.343 3 3c0 1.044-.534 1.964-1.343 2.501.81.535 1.343 1.455 1.343 2.499v4.999l1.434.001c.648 0 1.253.314 1.626.836l.089.135 2.708 4.515-1.714 1.028-2.71-4.514-1.433-.001zm0-8c-.552 0-1 .448-1 1v4c0 .552.448 1 1 1h.999l.001-5c0-.552-.448-1-1-1zm0-5c-.552 0-1 .448-1 1s.448 1 1 1 1-.448 1-1-.448-1-1-1z" /></svg>