<svg fill="currentColor" height="24" viewBox="0 0 24 24" width="24" xmlns="http://www.w3.org/2000/svg"><path d="m8 10.341v2.194c-1.196.692-2 1.985-2 3.465 0 2.21 1.79 4 4 4 1.48 0 2.773-.804 3.465-2h2.193c-.823 2.33-3.046 4-5.658 4-3.314 0-6-2.686-6-6 0-2.613 1.67-4.835 4-5.659zm4 6.659c-1.657 0-3-1.343-3-3v-4c0-1.657 1.343-3 3-3s3 1.343 3 3v5h1.434c.648 0 1.253.314 1.626.836l.089.135 2.708 4.515-1.714 1.028-2.71-4.514zm0-15c1.38 0 2.5 1.12 2.5 2.5s-1.12 2.5-2.5 2.5-2.5-1.12-2.5-2.5 1.12-2.5 2.5-2.5z" /></svg>