<svg fill="currentColor" height="24" viewBox="0 0 24 24" width="24" xmlns="http://www.w3.org/2000/svg"><path d="m12.0005 18c.714 0 1.37.25 1.886.666l-1.886 2.334-1.886-2.334c.5334-.4321 1.1994-.6673 1.886-.666zm-9.19205-16.60699 17.67705 17.67799-1.414 1.414-3.682-3.68-.247.306c-.8887-.7202-1.9982-1.1125-3.142-1.111-1.1434-.0015-2.25252.3904-3.14105 1.11l-1.885-2.334c1.31406-1.0645 2.9329-1.6831 4.62205-1.766l-1.77305-1.772c-1.50347.3344-2.90893 1.0128-4.106 1.982l-1.887-2.333c1.07781-.8728 2.28848-1.56725 3.586-2.05699l-1.531-1.53c-1.18668.53071-2.29933 1.21343-3.31 2.031l-1.885997-2.334c.914997-.74 1.902997-1.391 2.951997-1.942l-2.248-2.247zm13.27605 10.47699-3.868-3.86699-.216-.003c3.095 0 5.937 1.081 8.17 2.88699l-1.886 2.334c-.6719-.5438-1.4114-.9983-2.2-1.352zm-4.084-8.86999c4.285 0 8.22 1.497 11.31 3.997l-1.884 2.333c-2.6663-2.15969-5.9948-3.33559-9.426-3.33-.572 0-1.136.032-1.69.094l-2.58705-2.583c1.371-.334 2.80405-.511 4.27705-.511z" /></svg>