<svg fill="currentColor" height="24" viewBox="0 0 24 24" width="24" xmlns="http://www.w3.org/2000/svg"><path d="m.69043 6.99702c3.19909-2.59168 7.19285-4.00309 11.30997-3.997 4.285 0 8.22 1.497 11.31 3.997l-1.885 2.333c-2.666-2.15947-5.9941-3.33535-9.425-3.33-3.56997 0-6.84997 1.248-9.42497 3.33zm3.141 3.88998c2.3106-1.87198 5.19524-2.89144 8.16897-2.88698 3.094 0 5.936 1.081 8.169 2.88598l-1.885 2.334c-1.7775-1.4398-3.9965-2.2237-6.284-2.22-2.37997 0-4.56597.832-6.28397 2.22l-1.885-2.334zm3.142 3.89c1.42185-1.1521 3.19697-1.7796 5.02697-1.777 1.904 0 3.653.665 5.027 1.776l-1.885 2.334c-.8888-.7198-1.9982-1.1118-3.142-1.11-1.1437-.0018-2.25317.3902-3.14197 1.11l-1.885-2.334zm3.14197 3.89c.5331-.4323 1.1987-.6678 1.885-.667.714 0 1.37.25 1.885.666l-1.885 2.334-1.885-2.334z" /></svg>