<svg fill="currentColor" height="24" viewBox="0 0 24 24" width="24" xmlns="http://www.w3.org/2000/svg"><path d="m.69043 6.99702c3.19909-2.59168 7.19285-4.00309 11.30997-3.997 4.285 0 8.22 1.497 11.31 3.997l-1.256 1.556c-2.8438-2.30393-6.394-3.55856-10.054-3.553-3.80897 0-7.30597 1.33-10.05397 3.553zm3.141 3.88998c2.3106-1.87198 5.19524-2.89144 8.16897-2.88698 3.094 0 5.936 1.081 8.169 2.88598l-1.257 1.556c-1.9551-1.5836-4.3959-2.44597-6.912-2.442-2.61797 0-5.02297.915-6.91197 2.442l-1.257-1.556zm3.142 3.89c1.42185-1.1521 3.19697-1.7796 5.02697-1.777 1.904 0 3.653.665 5.027 1.776l-1.257 1.556c-1.0664-.8638-2.3976-1.3341-3.77-1.332-1.428 0-2.73997.499-3.76997 1.332l-1.257-1.556zm3.14197 3.89c.5331-.4323 1.1987-.6678 1.885-.667.714 0 1.37.25 1.885.666l-1.885 2.334-1.885-2.334z" /></svg>