<svg fill="currentColor" height="24" viewBox="0 0 24 24" width="24" xmlns="http://www.w3.org/2000/svg"><path d="m12.0005 18c.714 0 1.37.25 1.886.666l-1.886 2.334-1.886-2.334c.5334-.4321 1.1994-.6673 1.886-.666zm-9.19205-16.60699 17.67705 17.67799-1.414 1.414-5.18-5.18c-.61-.2024-1.2484-.3054-1.891-.305-1.428 0-2.74005.499-3.77005 1.332l-1.256-1.556c1.31406-1.0645 2.9329-1.6831 4.62205-1.766l-2.59605-2.596c-1.42783.4047-2.75868 1.095-3.912 2.029l-1.258-1.556c1.07781-.8728 2.28848-1.56725 3.586-2.05699l-2.284-2.285c-1.1369.5414-2.20596 1.21506-3.185 2.007l-1.257997-1.555c.914997-.74 1.902997-1.391 2.951997-1.942l-2.248-2.247zm11.69205 8.89199-2.284-2.28299-.216-.002c3.095 0 5.937 1.081 8.17 2.88699l-1.258 1.556c-1.2885-1.0438-2.7971-1.7817-4.412-2.158zm-2.5-7.28499c4.285 0 8.22 1.497 11.31 3.997l-1.257 1.555c-2.8437-2.30335-6.3936-3.55762-10.053-3.552-.878 0-1.74.07-2.58005.207l-1.695-1.697c1.369-.333 2.80205-.51 4.27505-.51z" /></svg>