<svg fill="currentColor" height="24" viewBox="0 0 24 24" width="24" xmlns="http://www.w3.org/2000/svg"><path d="m10.5 17h-6.5v-2h6.5c.6387.0003 1.2653.1753 1.8116.5061.5464.3309.9919.8049 1.2881 1.3709.2962.5659.4319 1.2021.3923 1.8396-.0395.6375-.2527 1.2521-.6165 1.7771-.3639.5249-.8644.9404-1.4475 1.2012s-1.2264.3571-1.8603.2785c-.63387-.0787-1.23414-.3293-1.73576-.7248-.50162-.3954-.88547-.9206-1.10994-1.5186l1.873-.703c.09618.2563.26066.4814.47563.6509.21496.1695.47217.277.74387.3107s.5474-.0075.7973-.1193.4644-.2898.6204-.5148c.1559-.225.2473-.4883.2643-.7616.017-.2732-.0412-.5458-.1681-.7884-.1269-.2425-.3178-.4457-.552-.5875-.2341-.1418-.5026-.2169-.7764-.217zm-5.5-6h13.5c.6387.0003 1.2653.1753 1.8116.5061.5464.3309.9919.8049 1.2881 1.3709.2962.5659.4319 1.2021.3923 1.8396-.0395.6375-.2527 1.2521-.6165 1.7771-.3639.5249-.8644.9404-1.4475 1.2012s-1.2264.3571-1.8603.2785c-.6339-.0787-1.2341-.3293-1.7358-.7248-.5016-.3954-.8854-.9206-1.1099-1.5186l1.873-.703c.0962.2563.2607.4814.4756.6509.215.1695.4722.277.7439.3107s.5474-.0075.7973-.1193.4644-.2898.6204-.5148c.1559-.225.2473-.4883.2643-.7616.017-.2732-.0412-.5458-.1681-.7884-.1269-.2425-.3178-.4457-.552-.5875-.2341-.1418-.5026-.2169-.7764-.217h-13.5c-.79565 0-1.55871-.316-2.12132-.8787-.56261-.5626-.87868-1.3256-.87868-2.1213 0-.79562.31607-1.55869.87868-2.12129.56261-.56261 1.32567-.87868 2.12132-.87868h8.5c.2738-.00012.5423-.07514.7764-.21695.2342-.14181.4251-.345.552-.58755.1269-.24254.1851-.5152.1681-.78842-.017-.27323-.1084-.53661-.2643-.76159-.156-.22499-.3705-.40302-.6204-.51478-.2499-.11177-.5256-.15302-.7973-.11928s-.5289.14118-.7439.31068c-.2149.16949-.3794.39459-.4756.65089l-1.873-.702c.2885-.7672.837-1.40886 1.5499-1.81319.713-.40433 1.5452-.5457 2.3517-.39947.8065.14624 1.5361.5708 2.0617 1.19971.5257.62891.814 1.42231.8147 2.24195 0 .92825-.3687 1.81849-1.0251 2.47487s-1.5466 1.02513-2.4749 1.02513h-8.5c-.26522 0-.51957.10535-.70711.29289-.18753.18754-.29289.44189-.29289.70708 0 .2652.10536.5196.29289.7071.18754.1876.44189.2929.70711.2929z" /></svg>