<svg fill="currentColor" height="24" viewBox="0 0 24 24" width="24" xmlns="http://www.w3.org/2000/svg"><path d="m3.929 4.92902 1.414 1.414c-1.448 1.448-2.343 3.448-2.343 5.65698 0 2.21.895 4.21 2.343 5.657l-1.413 1.413c-1.811-1.809-2.93-4.309-2.93-7.07 0-2.76098 1.12-5.26098 2.929-7.07098zm16.142 0c1.81 1.81 2.929 4.31 2.929 7.07098 0 2.761-1.12 5.262-2.929 7.071l-1.414-1.414c1.448-1.448 2.343-3.448 2.343-5.657 0-2.20898-.895-4.20798-2.342-5.65598l1.412-1.414zm-7.071.071v5.99998h3l-5 8v-6h-3zm-6.243 2.757 1.415 1.415c-.724.723-1.172 1.72298-1.172 2.82798s.448 2.105 1.172 2.828l-1.415 1.415c-1.085-1.086-1.757-2.586-1.757-4.243s.672-3.15698 1.757-4.24298zm10.487.001c1.085 1.086 1.756 2.58598 1.756 4.24198 0 1.657-.672 3.157-1.757 4.243l-1.415-1.415c.724-.723 1.172-1.723 1.172-2.828 0-1.104-.447-2.10398-1.17-2.82698z" /></svg>