<svg fill="currentColor" height="24" viewBox="0 0 24 24" width="24" xmlns="http://www.w3.org/2000/svg" xmlns:xlink="http://www.w3.org/1999/xlink"><clipPath id="a"><path d="m0 0h24v24h-24z"/></clipPath><g clip-path="url(#a)"><path d="m11.0002 15.934c-1.88412-.2554-3.6009-1.2168-4.8032-2.6897-1.20231-1.4729-1.80042-3.3474-1.67339-5.24445.12703-1.89706.96972-3.6751 2.35767-4.97455 1.38794-1.29945 3.21752-2.02335 5.11892-2.0253 1.9036-.001832 3.7367.72028 5.1276 2.01993 1.391 1.29966 2.2356 3.0796 2.3628 4.97898s-.4726 3.77609-1.6779 5.24959c-1.2052 1.4735-2.9257 2.4335-4.8125 2.6855v2.066h5v2h-5v4h-2v-4h-5.00005v-2h5.00005z" /></g></svg>