<svg fill="currentColor" height="24" viewBox="0 0 24 24" width="24" xmlns="http://www.w3.org/2000/svg"><path d="m4.797 15.485c1.124-2.52 3.2-5.44 4.487-6.962-1.248-1.246-2.162-1.931-2.818-2.3-.78061.74592-1.40167 1.64255-1.82555 2.63556s-.64177 2.06174-.64045 3.14144c0 1.25.286 2.432.797 3.485zm4.051-10.84c1.6.405 3.152 1.314 3.152 1.314v-.005s1.552-.904 3.151-1.31c-.9957-.42645-2.0678-.64557-3.151-.644-1.12 0-2.185.23-3.152.645zm8.686 1.578c-.655.37-1.568 1.055-2.816 2.3 1.287 1.523 3.362 4.441 4.486 6.961.5257-1.0861.7979-2.2774.796-3.484 0-2.27-.946-4.32-2.466-5.777zm.408 11.133c-1.403-2.236-4.09-4.944-5.942-6.343-1.85 1.4-4.539 4.108-5.941 6.345.74935.8327 1.66563 1.4983 2.68922 1.9535 1.02358.4552 2.13158.6898 3.25178.6885 1.1206.0012 2.2288-.2336 3.2526-.6892 1.0238-.4555 1.9401-1.1216 2.6894-1.9548zm-5.942 4.644c-5.523 0-10-4.477-10-10s4.477-10 10-10 10 4.477 10 10-4.477 10-10 10z" /></svg>