<svg fill="currentColor" height="24" viewBox="0 0 24 24" width="24" xmlns="http://www.w3.org/2000/svg"><path d="m5.41801 19.527c1.8202 1.5974 4.16025 2.4766 6.58199 2.473 2.4226.0033 4.7635-.8758 6.585-2.473 1.564-1.593-3.597-7.257-6.585-9.514-2.98499 2.257-8.14999 7.921-6.58199 9.514zm9.29999-12.005c2.084 2.468 6.237 8.595 5.064 10.76 1.4384-1.7762 2.2216-3.9934 2.218-6.279.0018-1.3239-.2603-2.63478-.7712-3.85611-.5108-1.22133-1.26-2.32855-2.2038-3.25689 0 0-.022-.018-.068-.035-.0755-.02627-.155-.03913-.235-.038-.493 0-1.654.362-4.004 2.705zm-9.67299-2.666c-.048.017-.068.034-.072.035-.9431.92856-1.69173 2.03572-2.20218 3.25683-.51046 1.2211-.7725 2.53167-.77082 3.85517 0 2.379.832 4.561 2.218 6.278-1.168-2.171 2.982-8.293 5.066-10.758-2.35-2.345-3.513-2.705-4.004-2.705-.07981-.0026-.15935.01066-.234.039v-.002zm6.95499.103s-2.45399-1.436-4.36999-1.504c-.753-.027-1.212.246-1.268.282 1.787-1.199 3.68699-1.737 5.62499-1.737h.013c1.945 0 3.838.538 5.638 1.737-.056-.038-.512-.31-1.266-.282-1.917.068-4.372 1.5-4.372 1.5z" /></svg>