<svg fill="currentColor" height="24" viewBox="0 0 24 24" width="24" xmlns="http://www.w3.org/2000/svg"><path d="m20.4618 3.22998c.153 0 .307.078.384.155.0378.07095.0576.15011.0576.2305 0 .0804-.0198.15956-.0576.2305l-6.077 10.77002 3.846 7.076c.038.0711.0579.1504.0579.231s-.0199.1599-.0579.231c-.1051.0961-.2416.1509-.384.154h-2.77c-.384 0-.615-.308-.769-.539l-3.923-7.154c.231-.307 6.154-10.84502 6.154-10.84502.154-.307.385-.538.77-.538h2.769zm-11.539 3.77c.385 0 .615.308.77.538l1.922 3.30802c-.153.154-3 5.23-3 5.23-.153.232-.384.54-.769.54h-2.692c-.14277-.0029-.27962-.0576-.385-.154-.03799-.0711-.05786-.1504-.05786-.231s.01987-.1599.05786-.231l2.846-5.154-1.846-3.23002c-.03799-.07107-.05786-.15041-.05786-.231s.01987-.15993.05786-.231c.10538-.09638.24223-.15112.385-.154h2.77z" /></svg>