<svg fill="currentColor" height="24" viewBox="0 0 24 24" width="24" xmlns="http://www.w3.org/2000/svg"><path d="m8.26 8.26c-2.422.543-4.26 2.948-4.26 5.675-.00002 1.4701.54853 2.8874 1.53832 3.9744s2.34957 1.7656 3.81327 1.9029c1.46371.1373 2.92601-.2765 4.10071-1.1604 1.1747-.884 1.9773-2.1744 2.2507-3.6189.0589-.314.1921-.6093.3885-.8612s.4504-.4531.7405-.5868c.482-.222.91-.473 1.284-.743-.863-.603-1.186-1.862-.47-2.834.5968-.80718 1.0659-1.70128 1.391-2.651-1.1764.54547-2.4054.96934-3.668 1.265-1.261.303-2.392-.638-2.466-1.814-1.18.572-2.67 1.01-4.642 1.452zm10.996 2.934c1.166 0 1.917-.424 2.744-.587-.325 1.448-1.5 3.49-4.33 4.795-.3638 1.9357-1.4374 3.6659-3.0103 4.8514s-3.5318 1.7409-5.49285 1.5574c-1.96106-.1834-3.78295-1.0926-5.10867-2.5493-1.32572-1.4566-2.05972-3.3559-2.05818-5.3255 0-3.646 2.467-6.876 5.824-7.628 3.921-.878 5.704-1.566 7.076-4.308.689 1.333.689 2.892 0 4.677 2.816-.67 5.074-1.852 6.774-3.548 0 4.802-1.822 7.186-2.419 8.065zm-5.84 3.932c.584.145.584.832.584 1.02v1.022c0 .561-.342.773-.844.773h-5.414c-.475-.087-.734-.346-.734-.778v-.95c0-.475.216-.82.432-1.08l3.152-3.369h-3.066c-.302 0-.518-.216-.518-.604-.044-.735.086-1.9.647-2.16.087 0 .087.13.087.173-.087.173 0 .302.216.302h3.887c.863 0 1.381 0 1.684-.086.13-.043.216 0 .173.13-.087.302-.044.647-.044.95 0 .993 0 1.382-.777 2.159l-2.678 2.937 2.85-.002c.316 0 .364-.146.364-.437z" /></svg>