<svg fill="currentColor" height="24" viewBox="0 0 24 24" width="24" xmlns="http://www.w3.org/2000/svg"><path d="m9.902 21.839c-1.03784-.0001-2.06549-.2047-3.02427-.602-.95879-.3972-1.82993-.9795-2.5637-1.7134-.73377-.734-1.31579-1.6053-1.71283-2.5642s-.60133-1.9866-.6012-3.0244c0-3.645 2.467-6.875 5.824-7.625 3.921-.88 5.704-1.568 7.076-4.31.998 1.935.323 3.71 0 4.677 4.698-1.129 6.371-3.28 6.774-3.548 0 3.952-1.231 6.452-2.419 8.065 1.476-.056 2.009-.484 2.744-.587-.325 1.448-1.5 3.49-4.33 4.795-.3421 1.8099-1.3054 3.4435-2.7237 4.6188-1.4182 1.1752-3.2024 1.8183-5.0443 1.8182zm3.71-6.452c0 .323-.053.484-.403.484l-3.15.002 2.96-3.248c.86-.86.86-1.29.86-2.388 0-.334-.048-.717.048-1.05.047-.144-.048-.192-.191-.144-.335.095-.908.095-1.863.095h-4.298c-.239 0-.335-.143-.239-.334 0-.048 0-.191-.096-.191-.62.286-.764 1.576-.716 2.388 0 .43.239.669.573.669h3.391l-3.486 3.725c-.24.287-.478.669-.478 1.194v1.051c0 .478.287.764.812.86h5.988c.555 0 .933-.233.933-.855v-1.129c0-.208 0-.968-.645-1.129z" /></svg>